<?xml version="1.0" encoding="utf-8"?><svg width="100%" height="100%" viewBox="0 0 400 420" preserveAspectRatio="xMidYMid meet" version="1.1" xmlns="http://www.w3.org/2000/svg"><text font-family="Special Elite, sans-serif" text-anchor="middle" x="10" y="15" font-size="18px"><tspan>A</tspan></text><circle cx="34" cy="11" r="4" /><rect width="24" height="8" x="46" y="7" /><text font-family="Special Elite, sans-serif" text-anchor="middle" x="10" y="35" font-size="18px"><tspan>Â</tspan></text><circle cx="34" cy="31" r="4" /><rect width="24" height="8" x="46" y="27" /><rect width="24" height="8" x="78" y="27" /><circle cx="114" cy="31" r="4" /><rect width="24" height="8" x="126" y="27" /><text font-family="Special Elite, sans-serif" text-anchor="middle" x="10" y="55" font-size="18px"><tspan>Ă</tspan></text><circle cx="34" cy="51" r="4" /><rect width="24" height="8" x="46" y="47" /><circle cx="82" cy="51" r="4" /><rect width="24" height="8" x="94" y="47" /><text font-family="Special Elite, sans-serif" text-anchor="middle" x="10" y="75" font-size="18px"><tspan>B</tspan></text><rect width="24" height="8" x="30" y="67" /><circle cx="66" cy="71" r="4" /><circle cx="82" cy="71" r="4" /><circle cx="98" cy="71" r="4" /><text font-family="Special Elite, sans-serif" text-anchor="middle" x="10" y="95" font-size="18px"><tspan>C</tspan></text><rect width="24" height="8" x="30" y="87" /><circle cx="66" cy="91" r="4" /><rect width="24" height="8" x="78" y="87" /><circle cx="114" cy="91" r="4" /><text font-family="Special Elite, sans-serif" text-anchor="middle" x="10" y="115" font-size="18px"><tspan>D</tspan></text><rect width="24" height="8" x="30" y="107" /><circle cx="66" cy="111" r="4" /><circle cx="82" cy="111" r="4" /><text font-family="Special Elite, sans-serif" text-anchor="middle" x="10" y="135" font-size="18px"><tspan>E</tspan></text><circle cx="34" cy="131" r="4" /><text font-family="Special Elite, sans-serif" text-anchor="middle" x="10" y="155" font-size="18px"><tspan>F</tspan></text><circle cx="34" cy="151" r="4" /><circle cx="50" cy="151" r="4" /><rect width="24" height="8" x="62" y="147" /><circle cx="98" cy="151" r="4" /><text font-family="Special Elite, sans-serif" text-anchor="middle" x="10" y="175" font-size="18px"><tspan>G</tspan></text><rect width="24" height="8" x="30" y="167" /><rect width="24" height="8" x="62" y="167" /><circle cx="98" cy="171" r="4" /><text font-family="Special Elite, sans-serif" text-anchor="middle" x="10" y="195" font-size="18px"><tspan>H</tspan></text><circle cx="34" cy="191" r="4" /><circle cx="50" cy="191" r="4" /><circle cx="66" cy="191" r="4" /><circle cx="82" cy="191" r="4" /><text font-family="Special Elite, sans-serif" text-anchor="middle" x="10" y="215" font-size="18px"><tspan>I</tspan></text><circle cx="34" cy="211" r="4" /><circle cx="50" cy="211" r="4" /><text font-family="Special Elite, sans-serif" text-anchor="middle" x="10" y="235" font-size="18px"><tspan>Î</tspan></text><circle cx="34" cy="231" r="4" /><circle cx="50" cy="231" r="4" /><text font-family="Special Elite, sans-serif" text-anchor="middle" x="10" y="255" font-size="18px"><tspan>J</tspan></text><circle cx="34" cy="251" r="4" /><rect width="24" height="8" x="46" y="247" /><rect width="24" height="8" x="78" y="247" /><rect width="24" height="8" x="110" y="247" /><text font-family="Special Elite, sans-serif" text-anchor="middle" x="10" y="275" font-size="18px"><tspan>K</tspan></text><rect width="24" height="8" x="30" y="267" /><circle cx="66" cy="271" r="4" /><rect width="24" height="8" x="78" y="267" /><text font-family="Special Elite, sans-serif" text-anchor="middle" x="10" y="295" font-size="18px"><tspan>L</tspan></text><circle cx="34" cy="291" r="4" /><rect width="24" height="8" x="46" y="287" /><circle cx="82" cy="291" r="4" /><circle cx="98" cy="291" r="4" /><text font-family="Special Elite, sans-serif" text-anchor="middle" x="10" y="315" font-size="18px"><tspan>M</tspan></text><rect width="24" height="8" x="30" y="307" /><rect width="24" height="8" x="62" y="307" /><text font-family="Special Elite, sans-serif" text-anchor="middle" x="10" y="335" font-size="18px"><tspan>N</tspan></text><rect width="24" height="8" x="30" y="327" /><circle cx="66" cy="331" r="4" /><text font-family="Special Elite, sans-serif" text-anchor="middle" x="10" y="355" font-size="18px"><tspan>O</tspan></text><rect width="24" height="8" x="30" y="347" /><rect width="24" height="8" x="62" y="347" /><rect width="24" height="8" x="94" y="347" /><text font-family="Special Elite, sans-serif" text-anchor="middle" x="10" y="375" font-size="18px"><tspan>P</tspan></text><circle cx="34" cy="371" r="4" /><rect width="24" height="8" x="46" y="367" /><rect width="24" height="8" x="78" y="367" /><circle cx="114" cy="371" r="4" /><text font-family="Special Elite, sans-serif" text-anchor="middle" x="10" y="395" font-size="18px"><tspan>Q</tspan></text><rect width="24" height="8" x="30" y="387" /><rect width="24" height="8" x="62" y="387" /><circle cx="98" cy="391" r="4" /><rect width="24" height="8" x="110" y="387" /><text font-family="Special Elite, sans-serif" text-anchor="middle" x="200" y="15" font-size="18px"><tspan>R</tspan></text><circle cx="224" cy="11" r="4" /><rect width="24" height="8" x="236" y="7" /><circle cx="272" cy="11" r="4" /><text font-family="Special Elite, sans-serif" text-anchor="middle" x="200" y="35" font-size="18px"><tspan>S</tspan></text><circle cx="224" cy="31" r="4" /><circle cx="240" cy="31" r="4" /><circle cx="256" cy="31" r="4" /><text font-family="Special Elite, sans-serif" text-anchor="middle" x="200" y="55" font-size="18px"><tspan>ș</tspan></text><rect width="24" height="8" x="220" y="47" /><rect width="24" height="8" x="252" y="47" /><rect width="24" height="8" x="284" y="47" /><rect width="24" height="8" x="316" y="47" /><text font-family="Special Elite, sans-serif" text-anchor="middle" x="200" y="75" font-size="18px"><tspan>T</tspan></text><rect width="24" height="8" x="220" y="67" /><text font-family="Special Elite, sans-serif" text-anchor="middle" x="200" y="95" font-size="18px"><tspan>U</tspan></text><circle cx="224" cy="91" r="4" /><circle cx="240" cy="91" r="4" /><rect width="24" height="8" x="252" y="87" /><text font-family="Special Elite, sans-serif" text-anchor="middle" x="200" y="115" font-size="18px"><tspan>V</tspan></text><circle cx="224" cy="111" r="4" /><circle cx="240" cy="111" r="4" /><circle cx="256" cy="111" r="4" /><rect width="24" height="8" x="268" y="107" /><text font-family="Special Elite, sans-serif" text-anchor="middle" x="200" y="135" font-size="18px"><tspan>W</tspan></text><circle cx="224" cy="131" r="4" /><rect width="24" height="8" x="236" y="127" /><rect width="24" height="8" x="268" y="127" /><text font-family="Special Elite, sans-serif" text-anchor="middle" x="200" y="155" font-size="18px"><tspan>X</tspan></text><rect width="24" height="8" x="220" y="147" /><circle cx="256" cy="151" r="4" /><circle cx="272" cy="151" r="4" /><rect width="24" height="8" x="284" y="147" /><text font-family="Special Elite, sans-serif" text-anchor="middle" x="200" y="175" font-size="18px"><tspan>Y</tspan></text><rect width="24" height="8" x="220" y="167" /><circle cx="256" cy="171" r="4" /><rect width="24" height="8" x="268" y="167" /><rect width="24" height="8" x="300" y="167" /><text font-family="Special Elite, sans-serif" text-anchor="middle" x="200" y="195" font-size="18px"><tspan>Z</tspan></text><rect width="24" height="8" x="220" y="187" /><rect width="24" height="8" x="252" y="187" /><circle cx="288" cy="191" r="4" /><circle cx="304" cy="191" r="4" /></svg>