<?xml version="1.0" encoding="UTF-8" standalone="no"?>
<svg
   xmlns:dc="http://purl.org/dc/elements/1.1/"
   xmlns:cc="http://creativecommons.org/ns#"
   xmlns:rdf="http://www.w3.org/1999/02/22-rdf-syntax-ns#"
   xmlns:svg="http://www.w3.org/2000/svg"
   xmlns="http://www.w3.org/2000/svg"
   id="svg95"
   stroke-miterlimit="10"
   stroke-linecap="square"
   stroke="none"
   fill="none"
   viewBox="0.0 0.0 348.0 348.0"
   version="1.1">
  <metadata
     id="metadata101">
    <rdf:RDF>
      <cc:Work
         rdf:about="">
        <dc:format>image/svg+xml</dc:format>
        <dc:type
           rdf:resource="http://purl.org/dc/dcmitype/StillImage" />
      </cc:Work>
    </rdf:RDF>
  </metadata>
  <defs
     id="defs99" />
  <clipPath
     id="p.0">
    <path
       id="path2"
       clip-rule="nonzero"
       d="m0 0l348.0 0l0 348.0l-348.0 0l0 -348.0z" />
  </clipPath>
  <g
     id="g81"
     clip-path="url(#p.0)">
    <path
       id="path5"
       fill-rule="nonzero"
       d="M 0,0 H 348 V 348 H 0 Z"
       fill-opacity="0"
       fill="#000000" />
    <path
       id="path7"
       fill-rule="nonzero"
       d="M -6,0 H 348.01575 V 347.9685 H -6 Z"
       fill="#ffffff" />
    <path
       id="path9"
       fill-rule="nonzero"
       d="m 5.07874,5.7758217 h 336.9134 V 343.44512 H 5.07874 Z"
       fill-opacity="0"
       fill="#000000" />
    <path
       id="path11"
       fill-rule="nonzero"
       d="m 5.07874,5.7758217 h 336.9134 V 343.44512 H 5.07874 Z"
       stroke-linecap="butt"
       stroke-linejoin="round"
       stroke-width="2"
       stroke="#000000" />
    <path
       id="path13"
       fill-rule="nonzero"
       d="m 133.84251,15.666667 h 74.33072 v 56.881886 h -74.33072 z"
       fill="#000000" />
    <path
       id="path15"
       fill-rule="nonzero"
       d="m 154.53912,44.089794 q 0,-4.0625 0.82812,-6.53125 0.84375,-2.484375 2.48438,-3.828125 1.65625,-1.34375 4.15625,-1.34375 1.84375,0 3.23437,0.75 1.39063,0.734375 2.29688,2.140625 0.90625,1.390625 1.42187,3.40625 0.51563,2 0.51563,5.40625 0,4.03125 -0.82813,6.515625 -0.82812,2.46875 -2.48437,3.828125 -1.64063,1.34375 -4.15625,1.34375 -3.3125,0 -5.20313,-2.375 -2.26562,-2.859375 -2.26562,-9.3125 z m 2.89062,0 q 0,5.640625 1.3125,7.515625 1.32813,1.859375 3.26563,1.859375 1.9375,0 3.25,-1.875 1.32812,-1.875 1.32812,-7.5 0,-5.65625 -1.32812,-7.515625 -1.3125,-1.859375 -3.28125,-1.859375 -1.9375,0 -3.09375,1.640625 -1.45313,2.09375 -1.45313,7.734375 z m 14.90625,0 q 0,-4.0625 0.82813,-6.53125 0.84375,-2.484375 2.48437,-3.828125 1.65625,-1.34375 4.15625,-1.34375 1.84375,0 3.23438,0.75 1.39062,0.734375 2.29687,2.140625 0.90625,1.390625 1.42188,3.40625 0.51562,2 0.51562,5.40625 0,4.03125 -0.82812,6.515625 -0.82813,2.46875 -2.48438,3.828125 -1.64062,1.34375 -4.15625,1.34375 -3.3125,0 -5.20312,-2.375 -2.26563,-2.859375 -2.26563,-9.3125 z m 2.89063,0 q 0,5.640625 1.3125,7.515625 1.32812,1.859375 3.26562,1.859375 1.9375,0 3.25,-1.875 1.32813,-1.875 1.32813,-7.5 0,-5.65625 -1.32813,-7.515625 -1.3125,-1.859375 -3.28125,-1.859375 -1.9375,0 -3.09375,1.640625 -1.45312,2.09375 -1.45312,7.734375 z"
       fill="#ffffff" />
    <path
       id="path17"
       fill-rule="nonzero"
       d="M 15.262467,17.706038 H 125.15223 v 54.83464 H 15.262467 Z"
       fill="#ffffff" />
    <path
       id="path19"
       fill-rule="nonzero"
       d="M 15.262467,17.706038 H 125.15223 v 54.83464 H 15.262467 Z"
       stroke-linecap="butt"
       stroke-linejoin="round"
       stroke-width="2"
       stroke="#000000" />
    <path
       id="path21"
       fill-rule="nonzero"
       d="M 15.262467,72.65354 54.947507,18.5748"
       fill-opacity="0"
       fill="#000000" />
    <path
       id="path23"
       fill-rule="nonzero"
       d="M 15.262467,72.65354 54.947507,18.5748"
       stroke-linecap="butt"
       stroke-linejoin="round"
       stroke-width="2"
       stroke="#000000" />
    <path
       id="path25"
       fill-rule="nonzero"
       d="M 37.56649,72.65354 77.251533,18.5748"
       fill-opacity="0"
       fill="#000000" />
    <path
       id="path27"
       fill-rule="nonzero"
       d="M 37.56649,72.65354 77.251533,18.5748"
       stroke-linecap="butt"
       stroke-linejoin="round"
       stroke-width="2"
       stroke="#000000" />
    <path
       id="path29"
       fill-rule="nonzero"
       d="M 59.870514,72.65354 99.555557,18.5748"
       fill-opacity="0"
       fill="#000000" />
    <path
       id="path31"
       fill-rule="nonzero"
       d="M 59.870514,72.65354 99.555557,18.5748"
       stroke-linecap="butt"
       stroke-linejoin="round"
       stroke-width="2"
       stroke="#000000" />
    <path
       id="path33"
       fill-rule="nonzero"
       d="M 82.17454,72.65354 121.85958,18.5748"
       fill-opacity="0"
       fill="#000000" />
    <path
       id="path35"
       fill-rule="nonzero"
       d="M 82.17454,72.65354 121.85958,18.5748"
       stroke-linecap="butt"
       stroke-linejoin="round"
       stroke-width="2"
       stroke="#000000" />
    <path
       id="path37"
       fill-rule="nonzero"
       d="M 32.97638,83.031494 H 315.02362 V 325.3937 H 32.97638 Z"
       fill="#ffffff" />
    <path
       id="path39"
       fill-rule="nonzero"
       d="M 32.97638,83.031494 H 315.02362 V 325.3937 H 32.97638 Z"
       stroke-linecap="butt"
       stroke-linejoin="round"
       stroke-width="2"
       stroke="#000000" />
    <path
       id="path41"
       fill-rule="nonzero"
       d="m 216.86351,16.633858 h 109.88975 v 54.83465 H 216.86351 Z"
       fill="#ffffff" />
    <path
       id="path43"
       fill-rule="nonzero"
       d="m 216.86351,16.633858 h 109.88975 v 54.83465 H 216.86351 Z"
       stroke-linecap="butt"
       stroke-linejoin="round"
       stroke-width="2"
       stroke="#000000" />
    <path
       id="path45"
       fill-rule="nonzero"
       d="M 216.86351,71.58137 256.54855,17.502627"
       fill-opacity="0"
       fill="#000000" />
    <path
       id="path47"
       fill-rule="nonzero"
       d="M 216.86351,71.58137 256.54855,17.502627"
       stroke-linecap="butt"
       stroke-linejoin="round"
       stroke-width="2"
       stroke="#000000" />
    <path
       id="path49"
       fill-rule="nonzero"
       d="M 239.16754,71.58137 278.85257,17.502627"
       fill-opacity="0"
       fill="#000000" />
    <path
       id="path51"
       fill-rule="nonzero"
       d="M 239.16754,71.58137 278.85257,17.502627"
       stroke-linecap="butt"
       stroke-linejoin="round"
       stroke-width="2"
       stroke="#000000" />
    <path
       id="path53"
       fill-rule="nonzero"
       d="M 261.47156,71.58137 301.15662,17.502627"
       fill-opacity="0"
       fill="#000000" />
    <path
       id="path55"
       fill-rule="nonzero"
       d="M 261.47156,71.58137 301.15662,17.502627"
       stroke-linecap="butt"
       stroke-linejoin="round"
       stroke-width="2"
       stroke="#000000" />
    <path
       id="path57"
       fill-rule="nonzero"
       d="M 283.7756,71.58137 323.46063,17.502627"
       fill-opacity="0"
       fill="#000000" />
    <path
       id="path59"
       fill-rule="nonzero"
       d="M 283.7756,71.58137 323.46063,17.502627"
       stroke-linecap="butt"
       stroke-linejoin="round"
       stroke-width="2"
       stroke="#000000" />
    <path
       id="path61"
       fill-rule="nonzero"
       d="M 44.490814,88.11811 H 303.48294 V 252.05512 H 44.490814 Z"
       fill="#000000" />
    <path
       id="path63"
       fill-rule="nonzero"
       d="m 113.77165,267.51697 h 49.25984 v 45.48032 h -49.25984 z"
       stroke-linecap="butt"
       stroke-linejoin="round"
       stroke-width="1"
       stroke="#000000" />
    <path
       id="path65"
       fill-rule="nonzero"
       d="m 182.79527,267.51697 h 49.25984 v 45.48032 h -49.25984 z"
       fill-opacity="0"
       fill="#000000" />
    <path
       id="path67"
       fill-rule="nonzero"
       d="m 182.79527,267.51697 h 49.25984 v 45.48032 h -49.25984 z"
       stroke-linecap="butt"
       stroke-linejoin="round"
       stroke-width="1"
       stroke="#000000" />
    <path
       id="path69"
       fill-rule="nonzero"
       d="m 260.08136,270.74014 h 36.72443 v 25.63782 h -36.72443 z"
       fill="#ffffff" />
    <path
       id="path71"
       fill-rule="nonzero"
       d="m 260.08136,270.74014 h 36.72443 v 25.63782 h -36.72443 z"
       stroke-linecap="butt"
       stroke-linejoin="round"
       stroke-width="2"
       stroke="#000000" />
    <path
       id="path73"
       fill-rule="nonzero"
       d="m 265.46457,305.50656 v 0 c 0,-2.35699 1.91071,-4.26773 4.2677,-4.26773 v 0 c 1.1319,0 2.21741,0.44965 3.01773,1.25 0.80035,0.80035 1.25,1.88586 1.25,3.01773 v 0 c 0,2.35699 -1.91074,4.26773 -4.26773,4.26773 v 0 c -2.35699,0 -4.2677,-1.91074 -4.2677,-4.26773 z"
       fill="#ffffff" />
    <path
       id="path75"
       fill-rule="nonzero"
       d="m 265.46457,305.50656 v 0 c 0,-2.35699 1.91071,-4.26773 4.2677,-4.26773 v 0 c 1.1319,0 2.21741,0.44965 3.01773,1.25 0.80035,0.80035 1.25,1.88586 1.25,3.01773 v 0 c 0,2.35699 -1.91074,4.26773 -4.26773,4.26773 v 0 c -2.35699,0 -4.2677,-1.91074 -4.2677,-4.26773 z"
       stroke-linecap="butt"
       stroke-linejoin="round"
       stroke-width="2"
       stroke="#000000" />
    <path
       id="path77"
       fill-rule="nonzero"
       d="m 282.8084,305.50656 v 0 c 0,-2.35699 1.91071,-4.26773 4.2677,-4.26773 v 0 c 1.13187,0 2.21738,0.44965 3.01773,1.25 0.80035,0.80035 1.25,1.88586 1.25,3.01773 v 0 c 0,2.35699 -1.91074,4.26773 -4.26773,4.26773 v 0 c -2.35699,0 -4.2677,-1.91074 -4.2677,-4.26773 z"
       fill="#ffffff" />
    <path
       id="path79"
       fill-rule="nonzero"
       d="m 282.8084,305.50656 v 0 c 0,-2.35699 1.91071,-4.26773 4.2677,-4.26773 v 0 c 1.13187,0 2.21738,0.44965 3.01773,1.25 0.80035,0.80035 1.25,1.88586 1.25,3.01773 v 0 c 0,2.35699 -1.91074,4.26773 -4.26773,4.26773 v 0 c -2.35699,0 -4.2677,-1.91074 -4.2677,-4.26773 z"
       stroke-linecap="butt"
       stroke-linejoin="round"
       stroke-width="2"
       stroke="#000000" />
  </g>
  <g
     style="font-size:42px;font-family:'DejaVu Sans', sans-serif;text-anchor:middle;fill:#ffffff"
     id="text85"
     aria-label="[ TEKST ]">
    <path
       id="path103"
       d="m 81.755859,106.08984 h 8.695313 v 2.93262 h -4.921875 v 31.58203 h 4.921875 v 2.93262 h -8.695313 z" />
    <path
       id="path105"
       d="m 107.80078,107.38184 h 25.90137 v 3.48632 H 122.83301 V 138 h -4.16309 v -27.13184 h -10.86914 z" />
    <path
       id="path107"
       d="m 137.72168,107.38184 h 19.35937 v 3.48632 h -15.21679 v 9.06446 h 14.58105 v 3.48633 h -14.58105 v 11.09472 H 157.4502 V 138 h -19.72852 z" />
    <path
       id="path109"
       d="m 164.2998,107.38184 h 4.14258 v 12.94043 l 13.74024,-12.94043 h 5.33203 L 172.31836,121.65527 188.60156,138 h -5.45508 l -14.7041,-14.74512 V 138 h -4.14258 z" />
    <path
       id="path111"
       d="m 210.2168,108.38672 v 4.04004 q -2.3584,-1.12793 -4.4502,-1.68164 -2.0918,-0.55371 -4.04004,-0.55371 -3.38379,0 -5.22949,1.3125 -1.8252,1.3125 -1.8252,3.73242 0,2.03027 1.20997,3.07617 1.23046,1.02539 4.63476,1.66113 l 2.50195,0.5127 q 4.63477,0.88183 6.82911,3.11719 2.21484,2.21484 2.21484,5.94726 0,4.4502 -2.99414,6.74707 -2.97363,2.29688 -8.73633,2.29688 -2.17383,0 -4.63476,-0.49219 -2.44043,-0.49219 -5.06543,-1.45606 v -4.26562 q 2.52246,1.41504 4.94238,2.13281 2.41992,0.71778 4.75781,0.71778 3.54785,0 5.47559,-1.39454 1.92773,-1.39453 1.92773,-3.97851 0,-2.25586 -1.39453,-3.52735 -1.37402,-1.27148 -4.53223,-1.90722 l -2.52246,-0.49219 q -4.63476,-0.92285 -6.70605,-2.8916 -2.07129,-1.96875 -2.07129,-5.47559 0,-4.06054 2.85058,-6.39843 2.8711,-2.33789 7.89551,-2.33789 2.15332,0 4.38867,0.38964 2.23536,0.38965 4.57325,1.16895 z" />
    <path
       id="path113"
       d="m 214.27734,107.38184 h 25.90137 v 3.48632 H 229.30957 V 138 h -4.16309 v -27.13184 h -10.86914 z" />
    <path
       id="path115"
       d="m 266.22363,106.08984 v 37.44727 h -8.69531 v -2.93262 h 4.90137 v -31.58203 h -4.90137 v -2.93262 z" />
  </g>
  <g
     style="font-size:24px;font-family:'DejaVu Sans', sans-serif;text-anchor:middle;fill:#000000"
     id="text89"
     aria-label="J">
    <path
       id="path118"
       d="m 136.81641,279.50391 h 2.36718 v 16.27734 q 0,3.16406 -1.20703,4.59375 -1.19531,1.42969 -3.85547,1.42969 h -0.90234 v -1.99219 h 0.73828 q 1.57031,0 2.21484,-0.87891 0.64454,-0.8789 0.64454,-3.15234 z" />
  </g>
  <g
     style="font-size:24px;font-family:'DejaVu Sans', sans-serif;text-anchor:middle;fill:#000000"
     id="text93"
     aria-label="N">
    <path
       id="path121"
       d="m 201.37891,279.50391 h 3.1875 l 7.75781,14.63671 v -14.63671 h 2.29687 V 297 h -3.1875 l -7.75781,-14.63672 V 297 h -2.29687 z" />
  </g>
</svg>
