<?xml version="1.0" encoding="UTF-8" standalone="no"?>
<svg
   xmlns:dc="http://purl.org/dc/elements/1.1/"
   xmlns:cc="http://creativecommons.org/ns#"
   xmlns:rdf="http://www.w3.org/1999/02/22-rdf-syntax-ns#"
   xmlns:svg="http://www.w3.org/2000/svg"
   xmlns="http://www.w3.org/2000/svg"
   id="svg125"
   stroke-miterlimit="10"
   stroke-linecap="square"
   stroke="none"
   fill="none"
   viewBox="0.0 0.0 348.0 348.0"
   version="1.1">
  <metadata
     id="metadata131">
    <rdf:RDF>
      <cc:Work
         rdf:about="">
        <dc:format>image/svg+xml</dc:format>
        <dc:type
           rdf:resource="http://purl.org/dc/dcmitype/StillImage" />
      </cc:Work>
    </rdf:RDF>
  </metadata>
  <defs
     id="defs129" />
  <clipPath
     id="p.0">
    <path
       id="path2"
       clip-rule="nonzero"
       d="m0 0l348.0 0l0 348.0l-348.0 0l0 -348.0z" />
  </clipPath>
  <g
     id="g119"
     clip-path="url(#p.0)">
    <path
       style="fill:#000000;fill-opacity:0;fill-rule:nonzero"
       id="path5"
       d="M 0,0 H 348 V 348 H 0 Z" />
    <path
       style="fill:#ffffff;fill-rule:nonzero"
       id="path7"
       d="M -6,0 H 348.01575 V 347.9685 H -6 Z" />
    <path
       style="fill:#000000;fill-opacity:0;fill-rule:nonzero"
       id="path9"
       d="m 5.07874,5.7758217 h 336.9134 V 343.44512 H 5.07874 Z" />
    <path
       style="fill-rule:nonzero;stroke:#000000;stroke-width:2;stroke-linecap:butt;stroke-linejoin:round"
       id="path11"
       d="m 5.07874,5.7758217 h 336.9134 V 343.44512 H 5.07874 Z" />
    <path
       style="fill:#000000;fill-rule:nonzero"
       id="path13"
       d="m 133.84251,15.666667 h 74.33072 v 56.881886 h -74.33072 z" />
    <path
       style="fill:#ffffff;fill-rule:nonzero"
       id="path15"
       d="m 154.53912,44.089794 q 0,-4.0625 0.82812,-6.53125 0.84375,-2.484375 2.48438,-3.828125 1.65625,-1.34375 4.15625,-1.34375 1.84375,0 3.23437,0.75 1.39063,0.734375 2.29688,2.140625 0.90625,1.390625 1.42187,3.40625 0.51563,2 0.51563,5.40625 0,4.03125 -0.82813,6.515625 -0.82812,2.46875 -2.48437,3.828125 -1.64063,1.34375 -4.15625,1.34375 -3.3125,0 -5.20313,-2.375 -2.26562,-2.859375 -2.26562,-9.3125 z m 2.89062,0 q 0,5.640625 1.3125,7.515625 1.32813,1.859375 3.26563,1.859375 1.9375,0 3.25,-1.875 1.32812,-1.875 1.32812,-7.5 0,-5.65625 -1.32812,-7.515625 -1.3125,-1.859375 -3.28125,-1.859375 -1.9375,0 -3.09375,1.640625 -1.45313,2.09375 -1.45313,7.734375 z m 14.90625,0 q 0,-4.0625 0.82813,-6.53125 0.84375,-2.484375 2.48437,-3.828125 1.65625,-1.34375 4.15625,-1.34375 1.84375,0 3.23438,0.75 1.39062,0.734375 2.29687,2.140625 0.90625,1.390625 1.42188,3.40625 0.51562,2 0.51562,5.40625 0,4.03125 -0.82812,6.515625 -0.82813,2.46875 -2.48438,3.828125 -1.64062,1.34375 -4.15625,1.34375 -3.3125,0 -5.20312,-2.375 -2.26563,-2.859375 -2.26563,-9.3125 z m 2.89063,0 q 0,5.640625 1.3125,7.515625 1.32812,1.859375 3.26562,1.859375 1.9375,0 3.25,-1.875 1.32813,-1.875 1.32813,-7.5 0,-5.65625 -1.32813,-7.515625 -1.3125,-1.859375 -3.28125,-1.859375 -1.9375,0 -3.09375,1.640625 -1.45312,2.09375 -1.45312,7.734375 z" />
    <path
       style="fill:#ffffff;fill-rule:nonzero"
       id="path17"
       d="m 145.80315,164.96063 v 0 c 0,-15.7075 12.41617,-28.44095 27.73228,-28.44095 v 0 c 7.35506,0 14.40888,2.99645 19.6097,8.33016 5.20081,5.33372 8.12259,12.56778 8.12259,20.11079 v 0 c 0,15.7075 -12.41617,28.44095 -27.73229,28.44095 v 0 c -15.31611,0 -27.73228,-12.73345 -27.73228,-28.44095 z" />
    <path
       style="fill-rule:nonzero;stroke:#000000;stroke-width:2;stroke-linecap:butt;stroke-linejoin:round"
       id="path19"
       d="m 145.80315,164.96063 v 0 c 0,-15.7075 12.41617,-28.44095 27.73228,-28.44095 v 0 c 7.35506,0 14.40888,2.99645 19.6097,8.33016 5.20081,5.33372 8.12259,12.56778 8.12259,20.11079 v 0 c 0,15.7075 -12.41617,28.44095 -27.73229,28.44095 v 0 c -15.31611,0 -27.73228,-12.73345 -27.73228,-28.44095 z" />
    <path
       style="fill:#000000;fill-opacity:0;fill-rule:nonzero"
       id="path21"
       d="m 148.85039,82.88714 h 52.40945 v 48.00001 h -52.40945 z" />
    <path
       style="fill:#ffffff;fill-rule:nonzero"
       id="path23"
       d="m 39.766403,202.43307 v 0 c 0,-8.019 6.789761,-14.51968 15.165356,-14.51968 v 0 c 4.022102,0 7.879467,1.52974 10.723522,4.25271 2.844055,2.72296 4.441834,6.41611 4.441834,10.26697 v 0 c 0,8.019 -6.789761,14.51968 -15.165356,14.51968 v 0 c -8.375596,0 -15.165357,-6.50068 -15.165356,-14.51968 z" />
    <path
       style="fill-rule:nonzero;stroke:#000000;stroke-width:2;stroke-linecap:butt;stroke-linejoin:round"
       id="path25"
       d="m 39.766403,202.43307 v 0 c 0,-8.019 6.789761,-14.51968 15.165356,-14.51968 v 0 c 4.022102,0 7.879467,1.52974 10.723522,4.25271 2.844055,2.72296 4.441834,6.41611 4.441834,10.26697 v 0 c 0,8.019 -6.789761,14.51968 -15.165356,14.51968 v 0 c -8.375596,0 -15.165357,-6.50068 -15.165356,-14.51968 z" />
    <path
       style="fill:#ffffff;fill-rule:nonzero"
       id="path27"
       d="m 85.020996,242.1378 v 0 c 0,-8.01901 6.789764,-14.5197 15.165354,-14.5197 v 0 c 4.0221,0 7.87947,1.52976 10.72352,4.25273 2.84406,2.72296 4.44184,6.41611 4.44184,10.26697 v 0 c 0,8.019 -6.78977,14.51967 -15.16536,14.51967 v 0 c -8.375589,0 -15.165354,-6.50067 -15.165354,-14.51967 z" />
    <path
       style="fill-rule:nonzero;stroke:#000000;stroke-width:2;stroke-linecap:butt;stroke-linejoin:round"
       id="path29"
       d="m 85.020996,242.1378 v 0 c 0,-8.01901 6.789764,-14.5197 15.165354,-14.5197 v 0 c 4.0221,0 7.87947,1.52976 10.72352,4.25273 2.84406,2.72296 4.44184,6.41611 4.44184,10.26697 v 0 c 0,8.019 -6.78977,14.51967 -15.16536,14.51967 v 0 c -8.375589,0 -15.165354,-6.50067 -15.165354,-14.51967 z" />
    <path
       style="fill:#ffffff;fill-rule:nonzero"
       id="path31"
       d="m 132.69423,280.22964 v 0 c 0,-8.01898 6.78976,-14.51968 15.16534,-14.51968 v 0 c 4.02211,0 7.87948,1.52975 10.72353,4.25271 2.84406,2.72299 4.44183,6.41611 4.44183,10.26697 v 0 c 0,8.01901 -6.78976,14.51971 -15.16536,14.51971 v 0 c -8.37558,0 -15.16534,-6.5007 -15.16534,-14.51971 z" />
    <path
       style="fill-rule:nonzero;stroke:#000000;stroke-width:2;stroke-linecap:butt;stroke-linejoin:round"
       id="path33"
       d="m 132.69423,280.22964 v 0 c 0,-8.01898 6.78976,-14.51968 15.16534,-14.51968 v 0 c 4.02211,0 7.87948,1.52975 10.72353,4.25271 2.84406,2.72299 4.44183,6.41611 4.44183,10.26697 v 0 c 0,8.01901 -6.78976,14.51971 -15.16536,14.51971 v 0 c -8.37558,0 -15.16534,-6.5007 -15.16534,-14.51971 z" />
    <path
       style="fill:#ffffff;fill-rule:nonzero"
       id="path35"
       d="m 41.597115,247.71391 v 0 c 0,-8.019 6.789757,-14.51968 15.165352,-14.51968 v 0 c 4.022102,0 7.879471,1.52974 10.723526,4.25271 2.844055,2.72296 4.441826,6.41611 4.441826,10.26697 v 0 c 0,8.019 -6.789757,14.5197 -15.165352,14.5197 v 0 c -8.375595,0 -15.165352,-6.5007 -15.165352,-14.5197 z" />
    <path
       style="fill-rule:nonzero;stroke:#000000;stroke-width:2;stroke-linecap:butt;stroke-linejoin:round"
       id="path37"
       d="m 41.597115,247.71391 v 0 c 0,-8.019 6.789757,-14.51968 15.165352,-14.51968 v 0 c 4.022102,0 7.879471,1.52974 10.723526,4.25271 2.844055,2.72296 4.441826,6.41611 4.441826,10.26697 v 0 c 0,8.019 -6.789757,14.5197 -15.165352,14.5197 v 0 c -8.375595,0 -15.165352,-6.5007 -15.165352,-14.5197 z" />
    <path
       style="fill:#ffffff;fill-rule:nonzero"
       id="path39"
       d="m 86.85171,287.41864 v 0 c 0,-8.01901 6.789757,-14.51968 15.16535,-14.51968 v 0 c 4.0221,0 7.87947,1.52975 10.72353,4.25271 2.84405,2.72296 4.44182,6.41611 4.44182,10.26697 v 0 c 0,8.01898 -6.78975,14.51968 -15.16535,14.51968 v 0 c -8.375593,0 -15.16535,-6.5007 -15.16535,-14.51968 z" />
    <path
       style="fill-rule:nonzero;stroke:#000000;stroke-width:2;stroke-linecap:butt;stroke-linejoin:round"
       id="path41"
       d="m 86.85171,287.41864 v 0 c 0,-8.01901 6.789757,-14.51968 15.16535,-14.51968 v 0 c 4.0221,0 7.87947,1.52975 10.72353,4.25271 2.84405,2.72296 4.44182,6.41611 4.44182,10.26697 v 0 c 0,8.01898 -6.78975,14.51968 -15.16535,14.51968 v 0 c -8.375593,0 -15.16535,-6.5007 -15.16535,-14.51968 z" />
    <path
       style="fill:#ffffff;fill-rule:nonzero"
       id="path43"
       d="m 134.52493,325.5105 v 0 c 0,-8.01901 6.78976,-14.51968 15.16536,-14.51968 v 0 c 4.02209,0 7.87947,1.52975 10.72353,4.25271 2.84405,2.72296 4.44181,6.41611 4.44181,10.26697 v 0 c 0,8.01901 -6.78975,14.51968 -15.16534,14.51968 v 0 c -8.3756,0 -15.16536,-6.50067 -15.16536,-14.51968 z" />
    <path
       style="fill-rule:nonzero;stroke:#000000;stroke-width:2;stroke-linecap:butt;stroke-linejoin:round"
       id="path45"
       d="m 134.52493,325.5105 v 0 c 0,-8.01901 6.78976,-14.51968 15.16536,-14.51968 v 0 c 4.02209,0 7.87947,1.52975 10.72353,4.25271 2.84405,2.72296 4.44181,6.41611 4.44181,10.26697 v 0 c 0,8.01901 -6.78975,14.51968 -15.16534,14.51968 v 0 c -8.3756,0 -15.16536,-6.50067 -15.16536,-14.51968 z" />
    <path
       style="fill:#ffffff;fill-rule:nonzero"
       id="path47"
       d="m 182.21391,280.22964 v 0 c 0,-8.01898 6.78976,-14.51968 15.16536,-14.51968 v 0 c 4.02209,0 7.87946,1.52975 10.72351,4.25271 2.84406,2.72299 4.44183,6.41611 4.44183,10.26697 v 0 c 0,8.01901 -6.78976,14.51971 -15.16534,14.51971 v 0 c -8.3756,0 -15.16536,-6.5007 -15.16536,-14.51971 z" />
    <path
       style="fill-rule:nonzero;stroke:#000000;stroke-width:2;stroke-linecap:butt;stroke-linejoin:round"
       id="path49"
       d="m 182.21391,280.22964 v 0 c 0,-8.01898 6.78976,-14.51968 15.16536,-14.51968 v 0 c 4.02209,0 7.87946,1.52975 10.72351,4.25271 2.84406,2.72299 4.44183,6.41611 4.44183,10.26697 v 0 c 0,8.01901 -6.78976,14.51971 -15.16534,14.51971 v 0 c -8.3756,0 -15.16536,-6.5007 -15.16536,-14.51971 z" />
    <path
       style="fill:#ffffff;fill-rule:nonzero"
       id="path51"
       d="m 184.04462,325.5105 v 0 c 0,-8.01901 6.78976,-14.51968 15.16536,-14.51968 v 0 c 4.02209,0 7.87947,1.52975 10.72353,4.25271 2.84405,2.72296 4.44181,6.41611 4.44181,10.26697 v 0 c 0,8.01901 -6.78975,14.51968 -15.16534,14.51968 v 0 c -8.3756,0 -15.16536,-6.50067 -15.16536,-14.51968 z" />
    <path
       style="fill-rule:nonzero;stroke:#000000;stroke-width:2;stroke-linecap:butt;stroke-linejoin:round"
       id="path53"
       d="m 184.04462,325.5105 v 0 c 0,-8.01901 6.78976,-14.51968 15.16536,-14.51968 v 0 c 4.02209,0 7.87947,1.52975 10.72353,4.25271 2.84405,2.72296 4.44181,6.41611 4.44181,10.26697 v 0 c 0,8.01901 -6.78975,14.51968 -15.16534,14.51968 v 0 c -8.3756,0 -15.16536,-6.50067 -15.16536,-14.51968 z" />
    <path
       style="fill:#ffffff;fill-rule:nonzero"
       id="path55"
       d="m 226.04199,242.1378 v 0 c 0,-8.01901 6.78976,-14.5197 15.16536,-14.5197 v 0 c 4.02209,0 7.87947,1.52976 10.72353,4.25273 2.84405,2.72296 4.44183,6.41611 4.44183,10.26697 v 0 c 0,8.019 -6.78977,14.51967 -15.16536,14.51967 v 0 c -8.3756,0 -15.16536,-6.50067 -15.16536,-14.51967 z" />
    <path
       style="fill-rule:nonzero;stroke:#000000;stroke-width:2;stroke-linecap:butt;stroke-linejoin:round"
       id="path57"
       d="m 226.04199,242.1378 v 0 c 0,-8.01901 6.78976,-14.5197 15.16536,-14.5197 v 0 c 4.02209,0 7.87947,1.52976 10.72353,4.25273 2.84405,2.72296 4.44183,6.41611 4.44183,10.26697 v 0 c 0,8.019 -6.78977,14.51967 -15.16536,14.51967 v 0 c -8.3756,0 -15.16536,-6.50067 -15.16536,-14.51967 z" />
    <path
       style="fill:#ffffff;fill-rule:nonzero"
       id="path59"
       d="m 227.8727,287.41864 v 0 c 0,-8.01901 6.78976,-14.51968 15.16536,-14.51968 v 0 c 4.02211,0 7.87947,1.52975 10.72353,4.25271 2.84407,2.72296 4.44181,6.41611 4.44181,10.26697 v 0 c 0,8.01898 -6.78975,14.51968 -15.16534,14.51968 v 0 c -8.3756,0 -15.16536,-6.5007 -15.16536,-14.51968 z" />
    <path
       style="fill-rule:nonzero;stroke:#000000;stroke-width:2;stroke-linecap:butt;stroke-linejoin:round"
       id="path61"
       d="m 227.8727,287.41864 v 0 c 0,-8.01901 6.78976,-14.51968 15.16536,-14.51968 v 0 c 4.02211,0 7.87947,1.52975 10.72353,4.25271 2.84407,2.72296 4.44181,6.41611 4.44181,10.26697 v 0 c 0,8.01898 -6.78975,14.51968 -15.16534,14.51968 v 0 c -8.3756,0 -15.16536,-6.5007 -15.16536,-14.51968 z" />
    <path
       style="fill:#ffffff;fill-rule:nonzero"
       id="path63"
       d="m 272.41733,202.43307 v 0 c 0,-8.019 6.78976,-14.51968 15.16534,-14.51968 v 0 c 4.0221,0 7.87949,1.52974 10.72355,4.25271 2.84405,2.72296 4.4418,6.41611 4.4418,10.26697 v 0 c 0,8.019 -6.78974,14.51968 -15.16535,14.51968 v 0 c -8.37558,0 -15.16534,-6.50068 -15.16534,-14.51968 z" />
    <path
       style="fill-rule:nonzero;stroke:#000000;stroke-width:2;stroke-linecap:butt;stroke-linejoin:round"
       id="path65"
       d="m 272.41733,202.43307 v 0 c 0,-8.019 6.78976,-14.51968 15.16534,-14.51968 v 0 c 4.0221,0 7.87949,1.52974 10.72355,4.25271 2.84405,2.72296 4.4418,6.41611 4.4418,10.26697 v 0 c 0,8.019 -6.78974,14.51968 -15.16535,14.51968 v 0 c -8.37558,0 -15.16534,-6.50068 -15.16534,-14.51968 z" />
    <path
       style="fill:#ffffff;fill-rule:nonzero"
       id="path67"
       d="m 274.24802,247.71391 v 0 c 0,-8.019 6.78976,-14.51968 15.16537,-14.51968 v 0 c 4.0221,0 7.87946,1.52974 10.72352,4.25271 2.84405,2.72296 4.44183,6.41611 4.44183,10.26697 v 0 c 0,8.019 -6.78976,14.5197 -15.16534,14.5197 v 0 c -8.37561,0 -15.16538,-6.5007 -15.16538,-14.5197 z" />
    <path
       style="fill-rule:nonzero;stroke:#000000;stroke-width:2;stroke-linecap:butt;stroke-linejoin:round"
       id="path69"
       d="m 274.24802,247.71391 v 0 c 0,-8.019 6.78976,-14.51968 15.16537,-14.51968 v 0 c 4.0221,0 7.87946,1.52974 10.72352,4.25271 2.84405,2.72296 4.44183,6.41611 4.44183,10.26697 v 0 c 0,8.019 -6.78976,14.5197 -15.16534,14.5197 v 0 c -8.37561,0 -15.16538,-6.5007 -15.16538,-14.5197 z" />
    <path
       style="fill:#ffffff;fill-rule:nonzero"
       id="path71"
       d="m 195.9685,149.79527 31.9055,15.16536 -31.9055,15.16534 z" />
    <path
       style="fill-rule:nonzero;stroke:#000000;stroke-width:2;stroke-linecap:butt;stroke-linejoin:round"
       id="path73"
       d="m 195.9685,149.79527 31.9055,15.16536 -31.9055,15.16534 z" />
    <path
       style="fill:#000000;fill-opacity:0;fill-rule:nonzero"
       id="path75"
       d="m 101.35433,159.3832 v 0 c 0,-40.76469 32.99697,-73.81101 73.70078,-73.81101 v 0 c 19.54666,0 38.29276,7.776489 52.11433,21.61874 13.82158,13.84226 21.58646,32.61637 21.58646,52.19227 v 0 c 0,40.76471 -32.99696,73.81104 -73.70079,73.81104 v 0 c -40.70381,0 -73.70078,-33.04633 -73.70078,-73.81104 z" />
    <path
       style="fill-rule:nonzero;stroke:#000000;stroke-width:2;stroke-linecap:butt;stroke-linejoin:round"
       id="path77"
       d="m 101.35433,159.3832 v 0 c 0,-40.76469 32.99697,-73.81101 73.70078,-73.81101 v 0 c 19.54666,0 38.29276,7.776489 52.11433,21.61874 13.82158,13.84226 21.58646,32.61637 21.58646,52.19227 v 0 c 0,40.76471 -32.99696,73.81104 -73.70079,73.81104 v 0 c -40.70381,0 -73.70078,-33.04633 -73.70078,-73.81104 z" />
    <path
       style="fill:#ffffff;fill-rule:nonzero"
       id="path79"
       d="M 15.262467,17.706038 H 125.15223 v 54.83464 H 15.262467 Z" />
    <path
       style="fill-rule:nonzero;stroke:#000000;stroke-width:2;stroke-linecap:butt;stroke-linejoin:round"
       id="path81"
       d="M 15.262467,17.706038 H 125.15223 v 54.83464 H 15.262467 Z" />
    <path
       style="fill:#000000;fill-opacity:0;fill-rule:nonzero"
       id="path83"
       d="M 15.262467,72.65354 54.947507,18.5748" />
    <path
       style="fill-rule:nonzero;stroke:#000000;stroke-width:2;stroke-linecap:butt;stroke-linejoin:round"
       id="path85"
       d="M 15.262467,72.65354 54.947507,18.5748" />
    <path
       style="fill:#000000;fill-opacity:0;fill-rule:nonzero"
       id="path87"
       d="M 37.56649,72.65354 77.251533,18.5748" />
    <path
       style="fill-rule:nonzero;stroke:#000000;stroke-width:2;stroke-linecap:butt;stroke-linejoin:round"
       id="path89"
       d="M 37.56649,72.65354 77.251533,18.5748" />
    <path
       style="fill:#000000;fill-opacity:0;fill-rule:nonzero"
       id="path91"
       d="M 59.870514,72.65354 99.555557,18.5748" />
    <path
       style="fill-rule:nonzero;stroke:#000000;stroke-width:2;stroke-linecap:butt;stroke-linejoin:round"
       id="path93"
       d="M 59.870514,72.65354 99.555557,18.5748" />
    <path
       style="fill:#000000;fill-opacity:0;fill-rule:nonzero"
       id="path95"
       d="M 82.17454,72.65354 121.85958,18.5748" />
    <path
       style="fill-rule:nonzero;stroke:#000000;stroke-width:2;stroke-linecap:butt;stroke-linejoin:round"
       id="path97"
       d="M 82.17454,72.65354 121.85958,18.5748" />
    <path
       style="fill:#ffffff;fill-rule:nonzero"
       id="path99"
       d="m 216.86351,16.633858 h 109.88975 v 54.83465 H 216.86351 Z" />
    <path
       style="fill-rule:nonzero;stroke:#000000;stroke-width:2;stroke-linecap:butt;stroke-linejoin:round"
       id="path101"
       d="m 216.86351,16.633858 h 109.88975 v 54.83465 H 216.86351 Z" />
    <path
       style="fill:#000000;fill-opacity:0;fill-rule:nonzero"
       id="path103"
       d="M 216.86351,71.58137 256.54855,17.502627" />
    <path
       style="fill-rule:nonzero;stroke:#000000;stroke-width:2;stroke-linecap:butt;stroke-linejoin:round"
       id="path105"
       d="M 216.86351,71.58137 256.54855,17.502627" />
    <path
       style="fill:#000000;fill-opacity:0;fill-rule:nonzero"
       id="path107"
       d="M 239.16754,71.58137 278.85257,17.502627" />
    <path
       style="fill-rule:nonzero;stroke:#000000;stroke-width:2;stroke-linecap:butt;stroke-linejoin:round"
       id="path109"
       d="M 239.16754,71.58137 278.85257,17.502627" />
    <path
       style="fill:#000000;fill-opacity:0;fill-rule:nonzero"
       id="path111"
       d="M 261.47156,71.58137 301.15662,17.502627" />
    <path
       style="fill-rule:nonzero;stroke:#000000;stroke-width:2;stroke-linecap:butt;stroke-linejoin:round"
       id="path113"
       d="M 261.47156,71.58137 301.15662,17.502627" />
    <path
       style="fill:#000000;fill-opacity:0;fill-rule:nonzero"
       id="path115"
       d="M 283.7756,71.58137 323.46063,17.502627" />
    <path
       style="fill-rule:nonzero;stroke:#000000;stroke-width:2;stroke-linecap:butt;stroke-linejoin:round"
       id="path117"
       d="M 283.7756,71.58137 323.46063,17.502627" />
  </g>
  <g
     id="text123"
     style="font-size:20px;font-family:sans-serif;text-anchor:middle;fill:#000000"
     aria-label="[MISSING: NeedyKnobComponent/label_up]">
    <path
       id="path133"
       style="fill:#ff0000"
       d="m -41.878906,94.804688 h 4.140625 v 1.396484 h -2.34375 v 15.039058 h 2.34375 v 1.39649 h -4.140625 z" />
    <path
       id="path135"
       style="fill:#ff0000"
       d="m -33.822266,95.419922 h 2.939453 l 3.720704,9.921878 3.740234,-9.921878 h 2.939453 V 110 H -22.40625 V 97.197266 l -3.759766,10.000004 h -1.982422 L -31.908203,97.197266 V 110 h -1.914063 z" />
    <path
       id="path137"
       style="fill:#ff0000"
       d="m -16.556641,95.419922 h 1.972657 V 110 h -1.972657 z" />
    <path
       id="path139"
       style="fill:#ff0000"
       d="m -1.9179688,95.898438 v 1.923828 q -1.1230468,-0.53711 -2.1191406,-0.800782 -0.9960937,-0.263671 -1.9238281,-0.263671 -1.6113281,0 -2.4902344,0.625 -0.8691406,0.625 -0.8691406,1.777343 0,0.966794 0.5761719,1.464844 0.5859375,0.48828 2.2070312,0.79102 l 1.1914063,0.24414 q 2.2070312,0.41992 3.2519531,1.48437 1.0546875,1.05469 1.0546875,2.83203 0,2.11914 -1.4257812,3.21289 -1.4160157,1.09375 -4.1601563,1.09375 -1.0351563,0 -2.2070312,-0.23437 -1.1621094,-0.23438 -2.4121098,-0.69336 v -2.03125 q 1.201172,0.67383 2.353516,1.01562 1.1523437,0.3418 2.265625,0.3418 1.6894531,0 2.6074219,-0.66406 0.9179687,-0.66406 0.9179687,-1.89453 0,-1.07422 -0.6640625,-1.67969 -0.6542969,-0.60547 -2.1582031,-0.9082 l -1.2011719,-0.23438 q -2.2070312,-0.43945 -3.1933591,-1.37695 -0.986328,-0.9375 -0.986328,-2.607424 0,-1.933593 1.3574215,-3.046875 1.3671875,-1.113281 3.7597656,-1.113281 1.0253906,0 2.0898438,0.185547 1.0644531,0.185547 2.1777343,0.556641 z" />
    <path
       id="path141"
       style="fill:#ff0000"
       d="m 10.777344,95.898438 v 1.923828 Q 9.6542969,97.285156 8.6582031,97.021484 7.6621094,96.757813 6.734375,96.757813 q -1.6113281,0 -2.4902344,0.625 Q 3.375,98.007813 3.375,99.160156 q 0,0.966794 0.5761719,1.464844 0.5859375,0.48828 2.2070312,0.79102 l 1.1914063,0.24414 q 2.2070312,0.41992 3.2519526,1.48437 1.054688,1.05469 1.054688,2.83203 0,2.11914 -1.425781,3.21289 -1.4160159,1.09375 -4.1601565,1.09375 -1.0351562,0 -2.2070313,-0.23437 -1.1621093,-0.23438 -2.4121093,-0.69336 v -2.03125 q 1.2011718,0.67383 2.3535156,1.01562 1.1523438,0.3418 2.265625,0.3418 1.6894531,0 2.6074219,-0.66406 0.9179687,-0.66406 0.9179687,-1.89453 0,-1.07422 -0.6640625,-1.67969 -0.6542969,-0.60547 -2.1582031,-0.9082 l -1.2011719,-0.23438 q -2.2070312,-0.43945 -3.1933594,-1.37695 -0.9863281,-0.9375 -0.9863281,-2.607424 0,-1.933593 1.3574219,-3.046875 1.3671875,-1.113281 3.7597656,-1.113281 1.0253907,0 2.0898438,0.185547 1.0644531,0.185547 2.1777346,0.556641 z" />
    <path
       id="path143"
       style="fill:#ff0000"
       d="m 14.732422,95.419922 h 1.972656 V 110 h -1.972656 z" />
    <path
       id="path145"
       style="fill:#ff0000"
       d="m 20.630859,95.419922 h 2.65625 l 6.464844,12.197268 V 95.419922 h 1.914063 V 110 h -2.65625 L 22.544922,97.802734 V 110 h -1.914063 z" />
    <path
       id="path147"
       style="fill:#ff0000"
       d="m 45.533203,107.91992 v -3.91601 h -3.222656 v -1.6211 h 5.175781 v 6.25977 q -1.142578,0.81054 -2.519531,1.23047 -1.376953,0.41015 -2.939453,0.41015 -3.417969,0 -5.351563,-1.99218 -1.923828,-2.00196 -1.923828,-5.56641 0,-3.574219 1.923828,-5.566407 1.933594,-2.001953 5.351563,-2.001953 1.425781,0 2.705078,0.351563 1.289062,0.351562 2.373047,1.035156 v 2.099609 q -1.09375,-0.927734 -2.324219,-1.396484 -1.230469,-0.46875 -2.587891,-0.46875 -2.675781,0 -4.023437,1.49414 -1.337891,1.494141 -1.337891,4.453126 0,2.94922 1.337891,4.44336 1.347656,1.49414 4.023437,1.49414 1.044922,0 1.865235,-0.17578 0.820312,-0.18555 1.474609,-0.56641 z" />
    <path
       id="path149"
       style="fill:#ff0000"
       d="m 51.480469,107.51953 h 2.060547 V 110 h -2.060547 z m 0,-7.861327 h 2.060547 v 2.480467 h -2.060547 z" />
    <path
       id="path151"
       style="fill:#ff0000"
       d="m 64.224609,95.419922 h 2.65625 l 6.464844,12.197268 V 95.419922 h 1.914063 V 110 h -2.65625 L 66.138672,97.802734 V 110 h -1.914063 z" />
    <path
       id="path153"
       style="fill:#ff0000"
       d="m 88.462891,104.08203 v 0.87891 h -8.261719 q 0.117187,1.85547 1.113281,2.83203 1.00586,0.9668 2.792969,0.9668 1.035156,0 2.001953,-0.25391 0.976563,-0.25391 1.933594,-0.76172 v 1.69922 q -0.966797,0.41016 -1.982422,0.625 Q 85.044922,110.2832 84,110.2832 q -2.617187,0 -4.150391,-1.52343 -1.523437,-1.52344 -1.523437,-4.1211 0,-2.68555 1.445312,-4.25781 1.455079,-1.582032 3.916016,-1.582032 2.207031,0 3.486328,1.425782 1.289063,1.41601 1.289063,3.85742 z m -1.796875,-0.52734 q -0.01953,-1.47461 -0.830078,-2.35352 -0.800782,-0.8789 -2.128907,-0.8789 -1.503906,0 -2.412109,0.8496 -0.898438,0.84961 -1.035156,2.39258 z" />
    <path
       id="path155"
       style="fill:#ff0000"
       d="m 100.76758,104.08203 v 0.87891 h -8.261721 q 0.117188,1.85547 1.113282,2.83203 1.005859,0.9668 2.792968,0.9668 1.035157,0 2.001954,-0.25391 0.976562,-0.25391 1.933597,-0.76172 v 1.69922 q -0.966801,0.41016 -1.982426,0.625 -1.015625,0.21484 -2.060546,0.21484 -2.617188,0 -4.150391,-1.52343 -1.523438,-1.52344 -1.523438,-4.1211 0,-2.68555 1.445313,-4.25781 1.455078,-1.582032 3.916016,-1.582032 2.207031,0 3.486328,1.425782 1.289064,1.41601 1.289064,3.85742 z m -1.796877,-0.52734 q -0.01953,-1.47461 -0.830078,-2.35352 -0.800781,-0.8789 -2.128906,-0.8789 -1.503906,0 -2.41211,0.8496 -0.898437,0.84961 -1.035156,2.39258 z" />
    <path
       id="path157"
       style="fill:#ff0000"
       d="m 110.91406,100.72266 v -5.917972 h 1.79688 V 110 h -1.79688 v -1.64063 q -0.5664,0.97657 -1.43554,1.45508 -0.85938,0.46875 -2.07032,0.46875 -1.98242,0 -3.23242,-1.58203 -1.24023,-1.58203 -1.24023,-4.16015 0,-2.57813 1.24023,-4.16016 1.25,-1.582032 3.23242,-1.582032 1.21094,0 2.07032,0.478516 0.86914,0.46875 1.43554,1.445316 z m -6.12304,3.81836 q 0,1.98242 0.81054,3.11523 0.82031,1.12305 2.2461,1.12305 1.42578,0 2.24609,-1.12305 0.82031,-1.13281 0.82031,-3.11523 0,-1.98243 -0.82031,-3.10547 -0.82031,-1.13282 -2.24609,-1.13282 -1.42579,0 -2.2461,1.13282 -0.81054,1.12304 -0.81054,3.10547 z" />
    <path
       id="path159"
       style="fill:#ff0000"
       d="m 120.96289,111.01562 q -0.76172,1.95313 -1.48437,2.54883 -0.72266,0.59571 -1.9336,0.59571 h -1.43555 v -1.50391 h 1.05469 q 0.74219,0 1.15235,-0.35156 0.41015,-0.35157 0.9082,-1.66016 l 0.32226,-0.82031 -4.42382,-10.76172 h 1.90429 l 3.41797,8.55469 3.41797,-8.55469 h 1.9043 z" />
    <path
       id="path161"
       style="fill:#ff0000"
       d="m 128.32617,95.419922 h 1.97266 v 6.162108 l 6.54297,-6.162108 h 2.53906 l -7.23633,6.796878 7.75391,7.7832 h -2.59766 l -7.00195,-7.02148 V 110 h -1.97266 z" />
    <path
       id="path163"
       style="fill:#ff0000"
       d="M 150.46484,103.39844 V 110 h -1.79687 v -6.54297 q 0,-1.55273 -0.60547,-2.32422 -0.60547,-0.77148 -1.81641,-0.77148 -1.45507,0 -2.29492,0.92773 -0.83984,0.92774 -0.83984,2.5293 V 110 h -1.80664 V 99.0625 h 1.80664 v 1.69922 q 0.64453,-0.986329 1.51367,-1.474611 0.87891,-0.488281 2.02148,-0.488281 1.88477,0 2.85157,1.171875 0.96679,1.162107 0.96679,3.427737 z" />
    <path
       id="path165"
       style="fill:#ff0000"
       d="m 158.30664,100.32227 q -1.44531,0 -2.28516,1.13281 -0.83984,1.12304 -0.83984,3.08594 0,1.96289 0.83008,3.0957 0.83984,1.12305 2.29492,1.12305 1.43555,0 2.27539,-1.13282 0.83985,-1.13281 0.83985,-3.08593 0,-1.94336 -0.83985,-3.07618 -0.83984,-1.14257 -2.27539,-1.14257 z m 0,-1.523442 q 2.34375,0 3.68164,1.523442 1.33789,1.52343 1.33789,4.21875 0,2.68554 -1.33789,4.21875 -1.33789,1.52343 -3.68164,1.52343 -2.35351,0 -3.69141,-1.52343 -1.32812,-1.53321 -1.32812,-4.21875 0,-2.69532 1.32812,-4.21875 1.3379,-1.523442 3.69141,-1.523442 z" />
    <path
       id="path167"
       style="fill:#ff0000"
       d="m 174.14648,104.54102 q 0,-1.98243 -0.82031,-3.10547 -0.81054,-1.13282 -2.23633,-1.13282 -1.42578,0 -2.24609,1.13282 -0.81055,1.12304 -0.81055,3.10547 0,1.98242 0.81055,3.11523 0.82031,1.12305 2.24609,1.12305 1.42579,0 2.23633,-1.12305 0.82031,-1.13281 0.82031,-3.11523 z m -6.11328,-3.81836 q 0.56641,-0.976566 1.42578,-1.445316 0.86915,-0.478516 2.07032,-0.478516 1.99218,0 3.23242,1.582032 1.25,1.58203 1.25,4.16016 0,2.57812 -1.25,4.16015 -1.24024,1.58203 -3.23242,1.58203 -1.20117,0 -2.07032,-0.46875 -0.85937,-0.47851 -1.42578,-1.45508 V 110 h -1.80664 V 94.804688 h 1.80664 z" />
    <path
       id="path169"
       style="fill:#ff0000"
       d="m 189.98633,96.542969 v 2.080078 q -0.9961,-0.927734 -2.12891,-1.386719 -1.12304,-0.458984 -2.39258,-0.458984 -2.5,0 -3.82812,1.533203 -1.32813,1.523437 -1.32813,4.414063 0,2.88086 1.32813,4.41406 1.32812,1.52344 3.82812,1.52344 1.26954,0 2.39258,-0.45899 1.13281,-0.45898 2.12891,-1.38671 v 2.06054 q -1.03516,0.70313 -2.19727,1.05469 -1.15234,0.35156 -2.4414,0.35156 -3.31055,0 -5.21485,-2.02148 -1.90429,-2.03125 -1.90429,-5.53711 0,-3.515626 1.90429,-5.53711 1.9043,-2.03125 5.21485,-2.03125 1.30859,0 2.46093,0.351563 1.16211,0.341796 2.17774,1.035156 z" />
    <path
       id="path171"
       style="fill:#ff0000"
       d="m 197.21289,100.32227 q -1.44531,0 -2.28516,1.13281 -0.83984,1.12304 -0.83984,3.08594 0,1.96289 0.83008,3.0957 0.83984,1.12305 2.29492,1.12305 1.43555,0 2.27539,-1.13282 0.83985,-1.13281 0.83985,-3.08593 0,-1.94336 -0.83985,-3.07618 -0.83984,-1.14257 -2.27539,-1.14257 z m 0,-1.523442 q 2.34375,0 3.68164,1.523442 1.33789,1.52343 1.33789,4.21875 0,2.68554 -1.33789,4.21875 -1.33789,1.52343 -3.68164,1.52343 -2.35351,0 -3.69141,-1.52343 -1.32812,-1.53321 -1.32812,-4.21875 0,-2.69532 1.32812,-4.21875 1.3379,-1.523442 3.69141,-1.523442 z" />
    <path
       id="path173"
       style="fill:#ff0000"
       d="m 213.7168,101.16211 q 0.67383,-1.210938 1.61133,-1.78711 0.9375,-0.576172 2.20703,-0.576172 1.70898,0 2.63672,1.201172 0.92773,1.19141 0.92773,3.39844 V 110 h -1.80664 v -6.54297 q 0,-1.57226 -0.55664,-2.33398 -0.55664,-0.76172 -1.69922,-0.76172 -1.39648,0 -2.20703,0.92773 -0.81055,0.92774 -0.81055,2.5293 V 110 h -1.80664 v -6.54297 q 0,-1.58203 -0.55664,-2.33398 -0.55664,-0.76172 -1.71875,-0.76172 -1.37695,0 -2.1875,0.9375 -0.81055,0.92773 -0.81055,2.51953 V 110 h -1.80664 V 99.0625 h 1.80664 v 1.69922 q 0.61524,-1.005861 1.47461,-1.484376 0.85938,-0.478516 2.04102,-0.478516 1.1914,0 2.02148,0.605469 0.83985,0.605473 1.24024,1.757813 z" />
    <path
       id="path175"
       style="fill:#ff0000"
       d="m 226.43164,108.35937 v 5.80079 H 224.625 V 99.0625 h 1.80664 v 1.66016 q 0.56641,-0.976566 1.42578,-1.445316 0.86914,-0.478516 2.07031,-0.478516 1.99219,0 3.23243,1.582032 1.25,1.58203 1.25,4.16016 0,2.57812 -1.25,4.16015 -1.24024,1.58203 -3.23243,1.58203 -1.20117,0 -2.07031,-0.46875 -0.85937,-0.47851 -1.42578,-1.45508 z m 6.11328,-3.81835 q 0,-1.98243 -0.82031,-3.10547 -0.81055,-1.13282 -2.23633,-1.13282 -1.42578,0 -2.24609,1.13282 -0.81055,1.12304 -0.81055,3.10547 0,1.98242 0.81055,3.11523 0.82031,1.12305 2.24609,1.12305 1.42578,0 2.23633,-1.12305 0.82031,-1.13281 0.82031,-3.11523 z" />
    <path
       id="path177"
       style="fill:#ff0000"
       d="m 241.62695,100.32227 q -1.44531,0 -2.28515,1.13281 -0.83985,1.12304 -0.83985,3.08594 0,1.96289 0.83008,3.0957 0.83985,1.12305 2.29492,1.12305 1.43555,0 2.27539,-1.13282 0.83985,-1.13281 0.83985,-3.08593 0,-1.94336 -0.83985,-3.07618 -0.83984,-1.14257 -2.27539,-1.14257 z m 0,-1.523442 q 2.34375,0 3.68164,1.523442 1.33789,1.52343 1.33789,4.21875 0,2.68554 -1.33789,4.21875 -1.33789,1.52343 -3.68164,1.52343 -2.35351,0 -3.6914,-1.52343 -1.32813,-1.53321 -1.32813,-4.21875 0,-2.69532 1.32813,-4.21875 1.33789,-1.523442 3.6914,-1.523442 z" />
    <path
       id="path179"
       style="fill:#ff0000"
       d="M 258.70703,103.39844 V 110 h -1.79687 v -6.54297 q 0,-1.55273 -0.60547,-2.32422 -0.60547,-0.77148 -1.81641,-0.77148 -1.45508,0 -2.29492,0.92773 -0.83984,0.92774 -0.83984,2.5293 V 110 h -1.80664 V 99.0625 h 1.80664 v 1.69922 q 0.64453,-0.986329 1.51367,-1.474611 0.8789,-0.488281 2.02148,-0.488281 1.88477,0 2.85156,1.171875 0.9668,1.162107 0.9668,3.427737 z" />
    <path
       id="path181"
       style="fill:#ff0000"
       d="m 271.66602,104.08203 v 0.87891 h -8.26172 q 0.11718,1.85547 1.11328,2.83203 1.00586,0.9668 2.79297,0.9668 1.03515,0 2.00195,-0.25391 0.97656,-0.25391 1.93359,-0.76172 v 1.69922 q -0.96679,0.41016 -1.98242,0.625 -1.01562,0.21484 -2.06054,0.21484 -2.61719,0 -4.1504,-1.52343 -1.52343,-1.52344 -1.52343,-4.1211 0,-2.68555 1.44531,-4.25781 1.45508,-1.582032 3.91602,-1.582032 2.20703,0 3.48632,1.425782 1.28907,1.41601 1.28907,3.85742 z m -1.79688,-0.52734 q -0.0195,-1.47461 -0.83008,-2.35352 -0.80078,-0.8789 -2.1289,-0.8789 -1.50391,0 -2.41211,0.8496 -0.89844,0.84961 -1.03516,2.39258 z" />
    <path
       id="path183"
       style="fill:#ff0000"
       d="M 283.70703,103.39844 V 110 h -1.79687 v -6.54297 q 0,-1.55273 -0.60547,-2.32422 -0.60547,-0.77148 -1.81641,-0.77148 -1.45508,0 -2.29492,0.92773 -0.83984,0.92774 -0.83984,2.5293 V 110 h -1.80664 V 99.0625 h 1.80664 v 1.69922 q 0.64453,-0.986329 1.51367,-1.474611 0.8789,-0.488281 2.02148,-0.488281 1.88477,0 2.85156,1.171875 0.9668,1.162107 0.9668,3.427737 z" />
    <path
       id="path185"
       style="fill:#ff0000"
       d="M 289.08789,95.957031 V 99.0625 h 3.70117 v 1.39648 h -3.70117 v 5.9375 q 0,1.33789 0.36133,1.71875 0.37109,0.38086 1.49414,0.38086 h 1.8457 V 110 h -1.8457 q -2.08008,0 -2.87109,-0.77148 -0.79102,-0.78125 -0.79102,-2.83204 v -5.9375 h -1.31836 V 99.0625 h 1.31836 v -3.105469 z" />
    <path
       id="path187"
       style="fill:#ff0000"
       d="m 298.35547,95.419922 h 1.66016 l -5.07813,16.435548 h -1.66016 z" />
    <path
       id="path189"
       style="fill:#ff0000"
       d="m 301.91992,94.804688 h 1.79688 V 110 h -1.79688 z" />
    <path
       id="path191"
       style="fill:#ff0000"
       d="m 312.4375,104.50195 q -2.17773,0 -3.01758,0.49805 -0.83984,0.49805 -0.83984,1.69922 0,0.95703 0.625,1.52344 0.63476,0.55664 1.71875,0.55664 1.49414,0 2.39258,-1.05469 0.9082,-1.06445 0.9082,-2.82227 v -0.40039 z m 3.58398,-0.74218 V 110 h -1.79687 v -1.66016 q -0.61523,0.9961 -1.5332,1.47461 -0.91797,0.46875 -2.2461,0.46875 -1.67968,0 -2.67578,-0.9375 -0.98633,-0.94726 -0.98633,-2.52929 0,-1.84571 1.23047,-2.78321 1.24024,-0.9375 3.69141,-0.9375 h 2.51953 v -0.17578 q 0,-1.24023 -0.82031,-1.91406 -0.81055,-0.68359 -2.28516,-0.68359 -0.9375,0 -1.82617,0.2246 -0.88867,0.22461 -1.70899,0.67383 v -1.660153 q 0.98633,-0.380859 1.91407,-0.566406 0.92773,-0.195313 1.80664,-0.195313 2.37304,0 3.54492,1.230472 1.17187,1.23047 1.17187,3.73047 z" />
    <path
       id="path193"
       style="fill:#ff0000"
       d="m 327.58398,104.54102 q 0,-1.98243 -0.82031,-3.10547 -0.81054,-1.13282 -2.23633,-1.13282 -1.42578,0 -2.24609,1.13282 -0.81055,1.12304 -0.81055,3.10547 0,1.98242 0.81055,3.11523 0.82031,1.12305 2.24609,1.12305 1.42579,0 2.23633,-1.12305 0.82031,-1.13281 0.82031,-3.11523 z m -6.11328,-3.81836 q 0.56641,-0.976566 1.42578,-1.445316 0.86915,-0.478516 2.07032,-0.478516 1.99218,0 3.23242,1.582032 1.25,1.58203 1.25,4.16016 0,2.57812 -1.25,4.16015 -1.24024,1.58203 -3.23242,1.58203 -1.20117,0 -2.07032,-0.46875 -0.85937,-0.47851 -1.42578,-1.45508 V 110 h -1.80664 V 94.804688 h 1.80664 z" />
    <path
       id="path195"
       style="fill:#ff0000"
       d="m 341.7832,104.08203 v 0.87891 h -8.26172 q 0.11719,1.85547 1.11329,2.83203 1.00586,0.9668 2.79296,0.9668 1.03516,0 2.00196,-0.25391 0.97656,-0.25391 1.93359,-0.76172 v 1.69922 q -0.9668,0.41016 -1.98242,0.625 -1.01563,0.21484 -2.06055,0.21484 -2.61718,0 -4.15039,-1.52343 -1.52344,-1.52344 -1.52344,-4.1211 0,-2.68555 1.44532,-4.25781 1.45508,-1.582032 3.91601,-1.582032 2.20703,0 3.48633,1.425782 1.28906,1.41601 1.28906,3.85742 z m -1.79687,-0.52734 q -0.0195,-1.47461 -0.83008,-2.35352 -0.80078,-0.8789 -2.12891,-0.8789 -1.5039,0 -2.41211,0.8496 -0.89843,0.84961 -1.03515,2.39258 z" />
    <path
       id="path197"
       style="fill:#ff0000"
       d="m 344.73242,94.804688 h 1.79688 V 110 h -1.79688 z" />
    <path
       id="path199"
       style="fill:#ff0000"
       d="m 358.58984,113.32031 v 1.39649 h -10.39062 v -1.39649 z" />
    <path
       id="path201"
       style="fill:#ff0000"
       d="M 360.09375,105.68359 V 99.0625 h 1.79688 v 6.55273 q 0,1.55274 0.60546,2.33399 0.60547,0.77148 1.81641,0.77148 1.45508,0 2.29492,-0.92773 0.84961,-0.92774 0.84961,-2.5293 V 99.0625 h 1.79688 V 110 h -1.79688 v -1.67969 q -0.6543,0.9961 -1.52344,1.48438 -0.85937,0.47851 -2.00195,0.47851 -1.88476,0 -2.86133,-1.17187 -0.97656,-1.17188 -0.97656,-3.42774 z m 4.52148,-6.884762 z" />
    <path
       id="path203"
       style="fill:#ff0000"
       d="m 374.71289,108.35937 v 5.80079 h -1.80664 V 99.0625 h 1.80664 v 1.66016 q 0.56641,-0.976566 1.42578,-1.445316 0.86914,-0.478516 2.07031,-0.478516 1.99219,0 3.23243,1.582032 1.25,1.58203 1.25,4.16016 0,2.57812 -1.25,4.16015 -1.24024,1.58203 -3.23243,1.58203 -1.20117,0 -2.07031,-0.46875 -0.85937,-0.47851 -1.42578,-1.45508 z m 6.11328,-3.81835 q 0,-1.98243 -0.82031,-3.10547 -0.81055,-1.13282 -2.23633,-1.13282 -1.42578,0 -2.24609,1.13282 -0.81055,1.12304 -0.81055,3.10547 0,1.98242 0.81055,3.11523 0.82031,1.12305 2.24609,1.12305 1.42578,0 2.23633,-1.12305 0.82031,-1.13281 0.82031,-3.11523 z" />
    <path
       id="path205"
       style="fill:#ff0000"
       d="m 389.86914,94.804688 v 17.832032 h -4.14062 v -1.39649 h 2.33398 V 96.201172 h -2.33398 v -1.396484 z" />
  </g>
</svg>
