<?xml version="1.0" encoding="UTF-8" standalone="no"?>
<svg
   xmlns:dc="http://purl.org/dc/elements/1.1/"
   xmlns:cc="http://creativecommons.org/ns#"
   xmlns:rdf="http://www.w3.org/1999/02/22-rdf-syntax-ns#"
   xmlns:svg="http://www.w3.org/2000/svg"
   xmlns="http://www.w3.org/2000/svg"
   id="svg117"
   stroke-miterlimit="10"
   stroke-linecap="square"
   stroke="none"
   fill="none"
   viewBox="0.0 0.0 348.0 348.0"
   version="1.1">
  <metadata
     id="metadata123">
    <rdf:RDF>
      <cc:Work
         rdf:about="">
        <dc:format>image/svg+xml</dc:format>
        <dc:type
           rdf:resource="http://purl.org/dc/dcmitype/StillImage" />
      </cc:Work>
    </rdf:RDF>
  </metadata>
  <defs
     id="defs121" />
  <clipPath
     id="p.0">
    <path
       id="path2"
       clip-rule="nonzero"
       d="m0 0l348.0 0l0 348.0l-348.0 0l0 -348.0z" />
  </clipPath>
  <g
     id="g103"
     clip-path="url(#p.0)">
    <path
       style="fill:#000000;fill-opacity:0;fill-rule:nonzero"
       id="path5"
       d="M 0,0 H 348 V 348 H 0 Z" />
    <path
       style="fill:#ffffff;fill-rule:nonzero"
       id="path7"
       d="M -6,0 H 342 V 347.9685 H -6 Z" />
    <path
       style="fill:#000000;fill-opacity:0;fill-rule:nonzero"
       id="path9"
       d="M 68.950134,75.845146 H 265.32809 V 276.85302 H 68.950134 Z" />
    <path
       style="fill-rule:nonzero;stroke:#000000;stroke-width:2;stroke-linecap:butt;stroke-linejoin:round"
       id="path11"
       d="M 68.950134,75.845146 H 265.32809 V 276.85302 H 68.950134 Z" />
    <path
       style="fill:#000000;fill-opacity:0;fill-rule:nonzero"
       id="path13"
       d="m 66.92126,67.16798 h 42.99213 V 130.2546 H 66.92126 Z" />
    <path
       style="fill:#000000;fill-rule:nonzero"
       id="path15"
       d="M 90.82751,114.56798 H 87.311885 V 92.16173 q -1.265625,1.21875 -3.328125,2.4375 -2.0625,1.203125 -3.703125,1.796875 V 93.00548 q 2.953125,-1.390625 5.15625,-3.359375 2.203125,-1.96875 3.125,-3.828125 h 2.265625 z" />
    <path
       style="fill:#000000;fill-opacity:0;fill-rule:nonzero"
       id="path17"
       d="m 66.92126,136.80315 h 42.99213 v 63.08661 H 66.92126 Z" />
    <path
       style="fill:#000000;fill-rule:nonzero"
       id="path19"
       d="m 96.06188,180.82814 v 3.375 H 77.140005 q -0.04688,-1.26563 0.40625,-2.4375 0.71875,-1.9375 2.3125,-3.8125 1.59375,-1.875 4.59375,-4.34375 4.671875,-3.82813 6.3125,-6.0625 1.640625,-2.23438 1.640625,-4.21875 0,-2.09375 -1.5,-3.53125 -1.484375,-1.4375 -3.890625,-1.4375 -2.53125,0 -4.0625,1.53125 -1.515625,1.51562 -1.546875,4.21875 l -3.609375,-0.375 q 0.375,-4.04688 2.796875,-6.15625 2.421875,-2.125 6.5,-2.125 4.125,0 6.515625,2.28125 2.40625,2.28125 2.40625,5.67187 0,1.71875 -0.703125,3.375 -0.703125,1.65625 -2.328125,3.5 -1.625,1.82813 -5.421875,5.03125 -3.15625,2.65625 -4.0625,3.60938 -0.890625,0.9375 -1.484375,1.90625 z" />
    <path
       style="fill:#000000;fill-opacity:0;fill-rule:nonzero"
       id="path21"
       d="m 66.92126,208.18636 h 42.99213 v 63.08659 H 66.92126 Z" />
    <path
       style="fill:#000000;fill-rule:nonzero"
       id="path23"
       d="m 77.60876,248.02385 3.515625,-0.46875 q 0.59375,2.98438 2.046875,4.3125 1.46875,1.3125 3.546875,1.3125 2.484375,0 4.1875,-1.71875 1.71875,-1.71875 1.71875,-4.25 0,-2.42187 -1.59375,-4 -1.578125,-1.57812 -4.015625,-1.57812 -1,0 -2.484375,0.39062 l 0.390625,-3.07812 q 0.359375,0.0312 0.578125,0.0312 2.234375,0 4.03125,-1.17188 1.796875,-1.17187 1.796875,-3.60937 0,-1.9375 -1.3125,-3.20313 -1.296875,-1.26562 -3.375,-1.26562 -2.046875,0 -3.421875,1.29687 -1.359375,1.28125 -1.75,3.85938 l -3.515625,-0.625 q 0.640625,-3.53125 2.921875,-5.46875 2.296875,-1.95313 5.6875,-1.95313 2.34375,0 4.3125,1.01563 1.984375,1 3.03125,2.73437 1.046875,1.73438 1.046875,3.6875 0,1.85938 -1,3.39063 -1,1.51562 -2.953125,2.40625 2.546875,0.59375 3.953125,2.4375 1.40625,1.84375 1.40625,4.625 0,3.75 -2.734375,6.35937 -2.734375,2.60936 -6.921875,2.60936 -3.765625,0 -6.265625,-2.24998 -2.484375,-2.25 -2.828125,-5.82813 z" />
    <path
       style="fill:#000000;fill-opacity:0;fill-rule:nonzero"
       id="path25"
       d="m 219.3622,67.16798 h 42.99214 V 130.2546 H 219.3622 Z" />
    <path
       style="fill:#000000;fill-opacity:0;fill-rule:nonzero"
       id="path27"
       d="m 219.3622,136.80315 h 42.99214 v 63.08661 H 219.3622 Z" />
    <path
       style="fill:#000000;fill-opacity:0;fill-rule:nonzero"
       id="path29"
       d="m 219.3622,208.18636 h 42.99214 v 63.08659 H 219.3622 Z" />
    <path
       style="fill:#000000;fill-opacity:0;fill-rule:nonzero"
       id="path31"
       d="m 5.07874,5.7758217 h 336.9134 V 343.44512 H 5.07874 Z" />
    <path
       style="fill-rule:nonzero;stroke:#000000;stroke-width:2;stroke-linecap:butt;stroke-linejoin:round"
       id="path33"
       d="m 5.07874,5.7758217 h 336.9134 V 343.44512 H 5.07874 Z" />
    <path
       style="fill:#ffffff;fill-rule:nonzero"
       id="path35"
       d="m 282.73444,40.553925 v 0 c 0,-8.375591 6.96603,-15.165352 15.55905,-15.165352 v 0 c 4.12653,0 8.08402,1.597773 11.00192,4.441828 2.91788,2.844057 4.55713,6.701422 4.55713,10.723524 v 0 c 0,8.375595 -6.966,15.165356 -15.55905,15.165356 v 0 c -8.59302,0 -15.55905,-6.789761 -15.55905,-15.165356 z" />
    <path
       style="fill-rule:nonzero;stroke:#000000;stroke-width:2;stroke-linecap:butt;stroke-linejoin:round"
       id="path37"
       d="m 282.73444,40.553925 v 0 c 0,-8.375591 6.96603,-15.165352 15.55905,-15.165352 v 0 c 4.12653,0 8.08402,1.597773 11.00192,4.441828 2.91788,2.844057 4.55713,6.701422 4.55713,10.723524 v 0 c 0,8.375595 -6.966,15.165356 -15.55905,15.165356 v 0 c -8.59302,0 -15.55905,-6.789761 -15.55905,-15.165356 z" />
    <path
       style="fill:#000000;fill-opacity:0;fill-rule:nonzero"
       id="path39"
       d="m 127.70866,25.577427 h 91.65355 v 38.141735 h -91.65355 z" />
    <path
       style="fill-rule:nonzero;stroke:#000000;stroke-width:2;stroke-linecap:butt;stroke-linejoin:round"
       id="path41"
       d="m 127.70866,25.577427 h 91.65355 v 38.141735 h -91.65355 z" />
    <path
       style="fill:#000000;fill-rule:nonzero"
       id="path43"
       d="m 157.11023,44.648296 16.4252,-10.015751 16.4252,10.015751 h -8.2126 v 10.015747 h -16.4252 V 44.648296 Z" />
    <path
       style="fill:#000000;fill-opacity:0;fill-rule:nonzero"
       id="path45"
       d="m 128.17323,289.2152 h 91.65353 v 38.14175 h -91.65353 z" />
    <path
       style="fill-rule:nonzero;stroke:#000000;stroke-width:2;stroke-linecap:butt;stroke-linejoin:round"
       id="path47"
       d="m 128.17323,289.2152 h 91.65353 v 38.14175 h -91.65353 z" />
    <path
       style="fill:#000000;fill-rule:nonzero"
       id="path49"
       d="M 190.4252,308.2861 174,318.30185 157.5748,308.2861 h 8.2126 v -10.01575 h 16.4252 v 10.01575 z" />
    <path
       style="fill:#000000;fill-opacity:0;fill-rule:nonzero"
       id="path51"
       d="M 115.55118,101.03149 221.44095,242.13386" />
    <path
       style="fill-rule:nonzero;stroke:#000000;stroke-width:2;stroke-linecap:butt;stroke-linejoin:round"
       id="path53"
       d="M 115.55118,101.03149 221.44095,242.13386" />
    <path
       style="fill:#000000;fill-opacity:0;fill-rule:nonzero"
       id="path55"
       d="M 112.31233,170.79527 221.44619,97.346456" />
    <path
       style="fill-rule:nonzero;stroke:#000000;stroke-width:2;stroke-linecap:butt;stroke-linejoin:round"
       id="path57"
       d="M 112.31233,170.79527 221.44619,97.346456" />
    <path
       style="fill:#000000;fill-opacity:0;fill-rule:nonzero"
       id="path59"
       d="m 109.91338,239.72966 111.937,-70.58267" />
    <path
       style="fill-rule:nonzero;stroke:#000000;stroke-width:2;stroke-linecap:butt;stroke-linejoin:round"
       id="path61"
       d="m 109.91338,239.72966 111.937,-70.58267" />
    <path
       style="fill:#000000;fill-opacity:0;fill-rule:nonzero"
       id="path63"
       d="m 116.81102,101.80315 -6.07874,4.063" />
    <path
       style="fill-rule:nonzero;stroke:#000000;stroke-width:2;stroke-linecap:butt;stroke-linejoin:round"
       id="path65"
       d="m 116.81102,101.80315 -6.07874,4.063" />
    <path
       style="fill:#000000;fill-opacity:0;fill-rule:nonzero"
       id="path67"
       d="m 220.23885,96.937004 8.09448,7.685046" />
    <path
       style="fill-rule:nonzero;stroke:#000000;stroke-width:2;stroke-linecap:butt;stroke-linejoin:round"
       id="path69"
       d="m 220.23885,96.937004 8.09448,7.685046" />
    <path
       style="fill:#000000;fill-opacity:0;fill-rule:nonzero"
       id="path71"
       d="m 113.56693,169.94489 -6.07874,8.91338" />
    <path
       style="fill-rule:nonzero;stroke:#000000;stroke-width:2;stroke-linecap:butt;stroke-linejoin:round"
       id="path73"
       d="m 113.56693,169.94489 -6.07874,8.91338" />
    <path
       style="fill:#000000;fill-opacity:0;fill-rule:nonzero"
       id="path75"
       d="m 110.72704,238.08398 -2.23623,8.40945" />
    <path
       style="fill-rule:nonzero;stroke:#000000;stroke-width:2;stroke-linecap:butt;stroke-linejoin:round"
       id="path77"
       d="m 110.72704,238.08398 -2.23623,8.40945" />
    <path
       style="fill:#000000;fill-opacity:0;fill-rule:nonzero"
       id="path79"
       d="m 221.45407,241.73491 4.47244,1.63779" />
    <path
       style="fill-rule:nonzero;stroke:#000000;stroke-width:2;stroke-linecap:butt;stroke-linejoin:round"
       id="path81"
       d="m 221.45407,241.73491 4.47244,1.63779" />
    <path
       style="fill:#000000;fill-opacity:0;fill-rule:nonzero"
       id="path83"
       d="m 220.64305,169.53806 6.48819,6.07874" />
    <path
       style="fill-rule:nonzero;stroke:#000000;stroke-width:2;stroke-linecap:butt;stroke-linejoin:round"
       id="path85"
       d="m 220.64305,169.53806 6.48819,6.07874" />
    <path
       style="fill:#000000;fill-rule:nonzero"
       id="path87"
       d="m 276.51968,75.845146 h 52.66141 V 329.32544 h -52.66141 z" />
    <path
       style="fill-rule:nonzero;stroke:#000000;stroke-width:2;stroke-linecap:butt;stroke-linejoin:round"
       id="path89"
       d="m 276.51968,75.845146 h 52.66141 V 329.32544 h -52.66141 z" />
    <path
       style="fill:#ffffff;fill-rule:nonzero"
       id="path91"
       d="m 289.1181,259.021 h 27.46457 v 16.47244 H 289.1181 Z" />
    <path
       style="fill-rule:nonzero;stroke:#000000;stroke-width:2;stroke-linecap:butt;stroke-linejoin:round"
       id="path93"
       d="m 289.1181,259.021 h 27.46457 v 16.47244 H 289.1181 Z" />
    <path
       style="fill:#ffffff;fill-rule:nonzero"
       id="path95"
       d="m 289.1181,222.81102 h 27.46457 v 16.47244 H 289.1181 Z" />
    <path
       style="fill-rule:nonzero;stroke:#000000;stroke-width:2;stroke-linecap:butt;stroke-linejoin:round"
       id="path97"
       d="m 289.1181,222.81102 h 27.46457 v 16.47244 H 289.1181 Z" />
    <path
       style="fill:#ffffff;fill-rule:nonzero"
       id="path99"
       d="m 289.1181,295.23096 h 27.46457 V 311.7034 H 289.1181 Z" />
    <path
       style="fill-rule:nonzero;stroke:#000000;stroke-width:2;stroke-linecap:butt;stroke-linejoin:round"
       id="path101"
       d="m 289.1181,295.23096 h 27.46457 V 311.7034 H 289.1181 Z" />
  </g>
  <g
     id="text107"
     style="font-size:42px;font-family:sans-serif;text-anchor:middle;fill:#000000"
     aria-label="[MISSING: WireSequence/label_a]">
    <path
       id="path125"
       style="fill:#ff0000"
       d="m -103.89453,83.089844 h 8.695311 v 2.932617 h -4.921871 v 31.582029 h 4.921871 v 2.93262 h -8.695311 z" />
    <path
       id="path127"
       style="fill:#ff0000"
       d="m -86.975586,84.381836 h 6.172852 l 7.813476,20.835934 7.854492,-20.835934 h 6.172852 V 115 h -4.040039 V 88.114258 l -7.895508,21.000002 h -4.163086 L -82.956055,88.114258 V 115 h -4.019531 z" />
    <path
       id="path129"
       style="fill:#ff0000"
       d="m -50.717773,84.381836 h 4.142578 V 115 h -4.142578 z" />
    <path
       id="path131"
       style="fill:#ff0000"
       d="m -19.976563,85.386719 v 4.040039 q -2.358398,-1.12793 -4.450195,-1.681641 -2.091797,-0.553711 -4.040039,-0.553711 -3.383789,0 -5.229492,1.3125 -1.825195,1.3125 -1.825195,3.732422 0,2.030274 1.209961,3.076172 1.230468,1.025391 4.634765,1.661133 l 2.501953,0.512695 q 4.634766,0.881836 6.829102,3.117192 2.214844,2.21484 2.214844,5.94726 0,4.4502 -2.994141,6.74707 -2.973633,2.29688 -8.736328,2.29688 -2.173828,0 -4.634766,-0.49219 -2.440429,-0.49219 -5.065429,-1.45606 v -4.26562 q 2.52246,1.41504 4.942382,2.13281 2.419922,0.71778 4.757813,0.71778 3.547851,0 5.475586,-1.39454 1.927734,-1.39453 1.927734,-3.97851 0,-2.25586 -1.394531,-3.52735 -1.374024,-1.27148 -4.532227,-1.90722 l -2.522461,-0.49219 q -4.634765,-0.92285 -6.706054,-2.891601 -2.071289,-1.96875 -2.071289,-5.475586 0,-4.060547 2.850586,-6.398437 2.871093,-2.337891 7.895507,-2.337891 2.153321,0 4.388672,0.389648 2.235352,0.389649 4.573242,1.168946 z" />
    <path
       id="path133"
       style="fill:#ff0000"
       d="m 6.6835938,85.386719 v 4.040039 q -2.3583985,-1.12793 -4.4501954,-1.681641 -2.09179684,-0.553711 -4.040039,-0.553711 -3.3837891,0 -5.2294922,1.3125 -1.8251953,1.3125 -1.8251953,3.732422 0,2.030274 1.2099609,3.076172 1.2304688,1.025391 4.6347656,1.661133 l 2.50195316,0.512695 q 4.63476564,0.881836 6.82910154,3.117192 2.2148438,2.21484 2.2148438,5.94726 0,4.4502 -2.9941406,6.74707 -2.9736329,2.29688 -8.7363282,2.29688 -2.1738281,0 -4.6347656,-0.49219 -2.4404295,-0.49219 -5.0654295,-1.45606 v -4.26562 q 2.522461,1.41504 4.9423826,2.13281 2.4199219,0.71778 4.7578125,0.71778 3.54785159,0 5.475586,-1.39454 1.9277343,-1.39453 1.9277343,-3.97851 0,-2.25586 -1.3945312,-3.52735 -1.3740234,-1.27148 -4.5322266,-1.90722 l -2.5224609,-0.49219 q -4.6347656,-0.92285 -6.7060547,-2.891601 -2.071289,-1.96875 -2.071289,-5.475586 0,-4.060547 2.850586,-6.398437 2.8710936,-2.337891 7.8955077,-2.337891 2.1533203,0 4.3886719,0.389648 2.2353515,0.389649 4.5732422,1.168946 z" />
    <path
       id="path135"
       style="fill:#ff0000"
       d="m 14.989258,84.381836 h 4.142578 V 115 h -4.142578 z" />
    <path
       id="path137"
       style="fill:#ff0000"
       d="m 27.375977,84.381836 h 5.578125 L 46.530273,109.99609 V 84.381836 h 4.019532 V 115 H 44.97168 L 31.395508,89.385742 V 115 h -4.019531 z" />
    <path
       id="path139"
       style="fill:#ff0000"
       d="M 79.670898,110.63184 V 102.4082 H 72.90332 v -3.404294 h 10.869141 v 13.145504 q -2.399414,1.70215 -5.291016,2.58399 -2.891601,0.86133 -6.172851,0.86133 -7.177735,0 -11.238281,-4.1836 -4.04004,-4.2041 -4.04004,-11.68945 0,-7.50586 4.04004,-11.689453 4.060546,-4.204102 11.238281,-4.204102 2.99414,0 5.680664,0.738281 2.707031,0.738282 4.983398,2.173828 v 4.40918 q -2.296875,-1.948242 -4.880859,-2.932617 -2.583984,-0.984375 -5.43457,-0.984375 -5.619141,0 -8.449219,3.137695 -2.80957,3.137696 -2.80957,9.351563 0,6.19336 2.80957,9.33105 2.830078,3.1377 8.449219,3.1377 2.194336,0 3.916992,-0.36914 1.722656,-0.38965 3.096679,-1.18945 z" />
    <path
       id="path141"
       style="fill:#ff0000"
       d="m 92.160156,109.79102 h 4.327149 V 115 h -4.327149 z m 0,-16.508793 h 4.327149 v 5.208984 h -4.327149 z" />
    <path
       id="path143"
       style="fill:#ff0000"
       d="m 116.19531,84.381836 h 4.1836 l 6.43945,25.880864 6.41894,-25.880864 h 4.65528 l 6.43945,25.880864 6.41895,-25.880864 h 4.2041 L 147.26465,115 h -5.20899 L 135.5957,88.421875 129.07422,115 h -5.20899 z" />
    <path
       id="path145"
       style="fill:#ff0000"
       d="m 159.36426,92.03125 h 3.77344 V 115 h -3.77344 z m 0,-8.941406 h 3.77344 v 4.77832 h -3.77344 z" />
    <path
       id="path147"
       style="fill:#ff0000"
       d="m 184.32227,95.558594 q -0.63575,-0.369141 -1.39454,-0.533203 -0.73828,-0.184571 -1.64062,-0.184571 -3.19922,0 -4.92188,2.091797 -1.70214,2.071289 -1.70214,5.967773 V 115 h -3.79395 V 92.03125 h 3.79395 v 3.568359 q 1.18945,-2.091796 3.09668,-3.096679 1.90722,-1.025391 4.63476,-1.025391 0.38965,0 0.86133,0.06152 0.47168,0.04102 1.0459,0.143554 z" />
    <path
       id="path149"
       style="fill:#ff0000"
       d="m 207.06543,102.57227 v 1.8457 h -17.34961 q 0.24609,3.89648 2.33789,5.94726 2.11231,2.03028 5.86524,2.03028 2.17382,0 4.2041,-0.53321 2.05078,-0.5332 4.06054,-1.5996 v 3.56835 q -2.03027,0.86133 -4.16308,1.3125 -2.13281,0.45118 -4.32715,0.45118 -5.49609,0 -8.71582,-3.19922 -3.19922,-3.19922 -3.19922,-8.6543 0,-5.639647 3.03516,-8.941405 3.05566,-3.322266 8.22363,-3.322266 4.63477,0 7.32129,2.994141 2.70703,2.973633 2.70703,8.10059 z m -3.77344,-1.10743 q -0.041,-3.096676 -1.74316,-4.942379 -1.68164,-1.845703 -4.4707,-1.845703 -3.15821,0 -5.06543,1.78418 -1.88672,1.784179 -2.17383,5.024412 z" />
    <path
       id="path151"
       style="fill:#ff0000"
       d="m 231.77734,85.386719 v 4.040039 q -2.35839,-1.12793 -4.45019,-1.681641 -2.0918,-0.553711 -4.04004,-0.553711 -3.38379,0 -5.22949,1.3125 -1.8252,1.3125 -1.8252,3.732422 0,2.030274 1.20996,3.076172 1.23047,1.025391 4.63477,1.661133 l 2.50195,0.512695 q 4.63477,0.881836 6.8291,3.117192 2.21485,2.21484 2.21485,5.94726 0,4.4502 -2.99414,6.74707 -2.97364,2.29688 -8.73633,2.29688 -2.17383,0 -4.63477,-0.49219 -2.44043,-0.49219 -5.06543,-1.45606 v -4.26562 q 2.52246,1.41504 4.94239,2.13281 2.41992,0.71778 4.75781,0.71778 3.54785,0 5.47558,-1.39454 1.92774,-1.39453 1.92774,-3.97851 0,-2.25586 -1.39453,-3.52735 -1.37403,-1.27148 -4.53223,-1.90722 l -2.52246,-0.49219 q -4.63477,-0.92285 -6.70605,-2.891601 -2.07129,-1.96875 -2.07129,-5.475586 0,-4.060547 2.85058,-6.398437 2.8711,-2.337891 7.89551,-2.337891 2.15332,0 4.38867,0.389648 2.23535,0.389649 4.57324,1.168946 z" />
    <path
       id="path153"
       style="fill:#ff0000"
       d="m 259.56543,102.57227 v 1.8457 h -17.34961 q 0.24609,3.89648 2.33789,5.94726 2.11231,2.03028 5.86524,2.03028 2.17382,0 4.2041,-0.53321 2.05078,-0.5332 4.06054,-1.5996 v 3.56835 q -2.03027,0.86133 -4.16308,1.3125 -2.13281,0.45118 -4.32715,0.45118 -5.49609,0 -8.71582,-3.19922 -3.19922,-3.19922 -3.19922,-8.6543 0,-5.639647 3.03516,-8.941405 3.05566,-3.322266 8.22363,-3.322266 4.63477,0 7.32129,2.994141 2.70703,2.973633 2.70703,8.10059 z m -3.77344,-1.10743 q -0.041,-3.096676 -1.74316,-4.942379 -1.68164,-1.845703 -4.4707,-1.845703 -3.15821,0 -5.06543,1.78418 -1.88672,1.784179 -2.17383,5.024412 z" />
    <path
       id="path155"
       style="fill:#ff0000"
       d="m 268.01465,103.53613 q 0,4.16309 1.70215,6.54199 1.72265,2.3584 4.71679,2.3584 2.99414,0 4.7168,-2.3584 1.72266,-2.3789 1.72266,-6.54199 0,-4.163083 -1.72266,-6.521482 -1.72266,-2.378906 -4.7168,-2.378906 -2.99414,0 -4.71679,2.378906 -1.70215,2.358399 -1.70215,6.521482 z m 12.8584,8.01856 q -1.18946,2.05078 -3.01465,3.05566 -1.80469,0.98438 -4.34766,0.98438 -4.16308,0 -6.78808,-3.32227 -2.6045,-3.32226 -2.6045,-8.73633 0,-5.41406 2.6045,-8.736325 2.625,-3.322266 6.78808,-3.322266 2.54297,0 4.34766,1.004883 1.82519,0.984375 3.01465,3.035156 V 92.03125 h 3.77343 v 31.70508 h -3.77343 z" />
    <path
       id="path157"
       style="fill:#ff0000"
       d="m 292.0293,105.93555 v -13.9043 h 3.77343 v 13.76074 q 0,3.26074 1.27149,4.90137 1.27148,1.62012 3.81445,1.62012 3.05567,0 4.81934,-1.94825 1.78418,-1.94824 1.78418,-5.31152 V 92.03125 h 3.77344 V 115 h -3.77344 v -3.52734 q -1.37403,2.09179 -3.19922,3.11718 -1.80469,1.00489 -4.2041,1.00489 -3.95801,0 -6.00879,-2.46094 -2.05078,-2.46094 -2.05078,-7.19824 z m 9.49511,-14.458011 z" />
    <path
       id="path159"
       style="fill:#ff0000"
       d="m 338.72559,102.57227 v 1.8457 h -17.34961 q 0.24609,3.89648 2.33789,5.94726 2.1123,2.03028 5.86523,2.03028 2.17383,0 4.2041,-0.53321 2.05078,-0.5332 4.06055,-1.5996 v 3.56835 q -2.03027,0.86133 -4.16309,1.3125 -2.13281,0.45118 -4.32714,0.45118 -5.4961,0 -8.71582,-3.19922 -3.19922,-3.19922 -3.19922,-8.6543 0,-5.639647 3.03515,-8.941405 3.05567,-3.322266 8.22364,-3.322266 4.63476,0 7.32128,2.994141 2.70704,2.973633 2.70704,8.10059 z m -3.77344,-1.10743 q -0.041,-3.096676 -1.74317,-4.942379 -1.68164,-1.845703 -4.4707,-1.845703 -3.1582,0 -5.06543,1.78418 -1.88672,1.784179 -2.17383,5.024412 z" />
    <path
       id="path161"
       style="fill:#ff0000"
       d="M 364.01172,101.13672 V 115 h -3.77344 v -13.74023 q 0,-3.260747 -1.27148,-4.880864 -1.27149,-1.620117 -3.81446,-1.620117 -3.05566,0 -4.81933,1.948242 -1.76367,1.948242 -1.76367,5.311519 V 115 h -3.79395 V 92.03125 h 3.79395 v 3.568359 q 1.35351,-2.071289 3.17871,-3.096679 1.8457,-1.025391 4.24511,-1.025391 3.95801,0 5.98829,2.460938 2.03027,2.440429 2.03027,7.198243 z" />
    <path
       id="path163"
       style="fill:#ff0000"
       d="m 388.1084,92.913086 v 3.527344 q -1.59961,-0.881836 -3.21973,-1.3125 -1.59961,-0.451172 -3.24023,-0.451172 -3.6709,0 -5.70117,2.33789 -2.03028,2.317383 -2.03028,6.521482 0,4.2041 2.03028,6.54199 2.03027,2.31739 5.70117,2.31739 1.64062,0 3.24023,-0.43067 1.62012,-0.45117 3.21973,-1.333 v 3.48632 q -1.5791,0.73829 -3.28125,1.10743 -1.68164,0.36914 -3.58887,0.36914 -5.18848,0 -8.24414,-3.26075 -3.05566,-3.26074 -3.05566,-8.79785 0,-5.619138 3.07617,-8.838864 3.09668,-3.219727 8.46973,-3.219727 1.74316,0 3.40429,0.369141 1.66113,0.348633 3.21973,1.066406 z" />
    <path
       id="path165"
       style="fill:#ff0000"
       d="m 414.3584,102.57227 v 1.8457 h -17.34961 q 0.24609,3.89648 2.33789,5.94726 2.1123,2.03028 5.86523,2.03028 2.17383,0 4.20411,-0.53321 2.05078,-0.5332 4.06054,-1.5996 v 3.56835 q -2.03027,0.86133 -4.16308,1.3125 -2.13282,0.45118 -4.32715,0.45118 -5.4961,0 -8.71582,-3.19922 -3.19922,-3.19922 -3.19922,-8.6543 0,-5.639647 3.03516,-8.941405 3.05566,-3.322266 8.22363,-3.322266 4.63476,0 7.32129,2.994141 2.70703,2.973633 2.70703,8.10059 z m -3.77344,-1.10743 q -0.041,-3.096676 -1.74316,-4.942379 -1.68164,-1.845703 -4.47071,-1.845703 -3.1582,0 -5.06543,1.78418 -1.88671,1.784179 -2.17382,5.024412 z" />
    <path
       id="path167"
       style="fill:#ff0000"
       d="m 427.25781,84.381836 h 3.48633 l -10.66406,34.514644 h -3.48633 z" />
    <path
       id="path169"
       style="fill:#ff0000"
       d="m 434.74316,83.089844 h 3.77344 V 115 h -3.77344 z" />
    <path
       id="path171"
       style="fill:#ff0000"
       d="m 456.83008,103.4541 q -4.57324,0 -6.33692,1.0459 -1.76367,1.0459 -1.76367,3.56836 0,2.00976 1.3125,3.19922 1.33301,1.16894 3.60938,1.16894 3.13769,0 5.02441,-2.21484 1.90723,-2.23535 1.90723,-5.92676 v -0.84082 z m 7.52637,-1.55859 V 115 h -3.77344 v -3.48633 q -1.29199,2.0918 -3.21973,3.09668 -1.92773,0.98438 -4.7168,0.98438 -3.52734,0 -5.61914,-1.96875 -2.07129,-1.98926 -2.07129,-5.31153 0,-3.87597 2.58399,-5.84472 2.60449,-1.96875 7.75195,-1.96875 h 5.29102 v -0.36914 q 0,-2.604496 -1.72266,-4.019535 -1.70215,-1.435547 -4.79883,-1.435547 -1.96875,0 -3.83496,0.47168 -1.86621,0.471679 -3.58886,1.415039 v -3.486329 q 2.07128,-0.799804 4.01953,-1.189453 1.94824,-0.410156 3.79394,-0.410156 4.9834,0 7.44434,2.583984 2.46094,2.583985 2.46094,7.833987 z" />
    <path
       id="path173"
       style="fill:#ff0000"
       d="m 488.6377,103.53613 q 0,-4.163083 -1.72266,-6.521482 -1.70215,-2.378906 -4.69629,-2.378906 -2.99414,0 -4.7168,2.378906 -1.70215,2.358399 -1.70215,6.521482 0,4.16309 1.70215,6.54199 1.72266,2.3584 4.7168,2.3584 2.99414,0 4.69629,-2.3584 1.72266,-2.3789 1.72266,-6.54199 z m -12.8379,-8.018552 q 1.18946,-2.050781 2.99415,-3.035156 1.82519,-1.004883 4.34765,-1.004883 4.1836,0 6.78809,3.322266 2.625,3.322265 2.625,8.736325 0,5.41407 -2.625,8.73633 -2.60449,3.32227 -6.78809,3.32227 -2.52246,0 -4.34765,-0.98438 -1.80469,-1.00488 -2.99415,-3.05566 V 115 h -3.79394 V 83.089844 h 3.79394 z" />
    <path
       id="path175"
       style="fill:#ff0000"
       d="m 518.45605,102.57227 v 1.8457 h -17.3496 q 0.24609,3.89648 2.33789,5.94726 2.1123,2.03028 5.86523,2.03028 2.17383,0 4.2041,-0.53321 2.05078,-0.5332 4.06055,-1.5996 v 3.56835 q -2.03027,0.86133 -4.16309,1.3125 -2.13281,0.45118 -4.32715,0.45118 -5.49609,0 -8.71582,-3.19922 -3.19921,-3.19922 -3.19921,-8.6543 0,-5.639647 3.03515,-8.941405 3.05567,-3.322266 8.22363,-3.322266 4.63477,0 7.32129,2.994141 2.70703,2.973633 2.70703,8.10059 z m -3.77343,-1.10743 q -0.041,-3.096676 -1.74317,-4.942379 -1.68164,-1.845703 -4.4707,-1.845703 -3.1582,0 -5.06543,1.78418 -1.88672,1.784179 -2.17383,5.024412 z" />
    <path
       id="path177"
       style="fill:#ff0000"
       d="m 524.64941,83.089844 h 3.77344 V 115 h -3.77344 z" />
    <path
       id="path179"
       style="fill:#ff0000"
       d="m 553.75,121.97266 v 2.93261 h -21.82031 v -2.93261 z" />
    <path
       id="path181"
       style="fill:#ff0000"
       d="m 567.73633,103.4541 q -4.57324,0 -6.33692,1.0459 -1.76367,1.0459 -1.76367,3.56836 0,2.00976 1.3125,3.19922 1.33301,1.16894 3.60938,1.16894 3.13769,0 5.02441,-2.21484 1.90723,-2.23535 1.90723,-5.92676 v -0.84082 z m 7.52637,-1.55859 V 115 h -3.77344 v -3.48633 q -1.29199,2.0918 -3.21973,3.09668 -1.92773,0.98438 -4.7168,0.98438 -3.52734,0 -5.61914,-1.96875 -2.07129,-1.98926 -2.07129,-5.31153 0,-3.87597 2.58399,-5.84472 2.60449,-1.96875 7.75195,-1.96875 h 5.29102 v -0.36914 q 0,-2.604496 -1.72266,-4.019535 -1.70215,-1.435547 -4.79883,-1.435547 -1.96875,0 -3.83496,0.47168 -1.86621,0.471679 -3.58886,1.415039 v -3.486329 q 2.07128,-0.799804 4.01953,-1.189453 1.94824,-0.410156 3.79394,-0.410156 4.9834,0 7.44434,2.583984 2.46094,2.583985 2.46094,7.833987 z" />
    <path
       id="path183"
       style="fill:#ff0000"
       d="m 591.87402,83.089844 v 37.447266 h -8.69531 v -2.93262 h 4.90137 V 86.022461 h -4.90137 v -2.932617 z" />
  </g>
  <g
     id="text111"
     style="font-size:42px;font-family:sans-serif;text-anchor:middle;fill:#000000"
     aria-label="[MISSING: WireSequence/label_b]">
    <path
       id="path186"
       style="fill:#ff0000"
       d="m -104.3457,154.08984 h 8.695309 v 2.93262 h -4.921879 v 31.58203 h 4.921879 v 2.93262 h -8.695309 z" />
    <path
       id="path188"
       style="fill:#ff0000"
       d="m -87.426758,155.38184 h 6.172852 l 7.813476,20.83593 7.854492,-20.83593 h 6.172852 V 186 h -4.040039 v -26.88574 l -7.895508,21 h -4.163086 l -7.895508,-21 V 186 h -4.019531 z" />
    <path
       id="path190"
       style="fill:#ff0000"
       d="m -51.168945,155.38184 h 4.142578 V 186 h -4.142578 z" />
    <path
       id="path192"
       style="fill:#ff0000"
       d="m -20.427734,156.38672 v 4.04004 q -2.358399,-1.12793 -4.450196,-1.68164 -2.091797,-0.55371 -4.040039,-0.55371 -3.383789,0 -5.229492,1.3125 -1.825195,1.3125 -1.825195,3.73242 0,2.03027 1.209961,3.07617 1.230468,1.02539 4.634765,1.66113 l 2.501953,0.5127 q 4.634766,0.88183 6.829102,3.11719 2.214844,2.21484 2.214844,5.94726 0,4.4502 -2.994141,6.74707 -2.973633,2.29688 -8.736328,2.29688 -2.173828,0 -4.634766,-0.49219 -2.440429,-0.49219 -5.065429,-1.45606 v -4.26562 q 2.522461,1.41504 4.942382,2.13281 2.419922,0.71778 4.757813,0.71778 3.547852,0 5.475586,-1.39454 1.927734,-1.39453 1.927734,-3.97851 0,-2.25586 -1.394531,-3.52735 -1.374023,-1.27148 -4.532227,-1.90722 l -2.52246,-0.49219 q -4.634766,-0.92285 -6.706055,-2.8916 -2.071289,-1.96875 -2.071289,-5.47559 0,-4.06054 2.850586,-6.39843 2.871093,-2.33789 7.895508,-2.33789 2.15332,0 4.388671,0.38964 2.235352,0.38965 4.573243,1.16895 z" />
    <path
       id="path194"
       style="fill:#ff0000"
       d="m 6.2324219,156.38672 v 4.04004 q -2.3583985,-1.12793 -4.4501953,-1.68164 -2.09179691,-0.55371 -4.0400391,-0.55371 -3.3837891,0 -5.2294922,1.3125 -1.8251953,1.3125 -1.8251953,3.73242 0,2.03027 1.2099609,3.07617 1.2304688,1.02539 4.6347657,1.66113 l 2.50195309,0.5127 q 4.63476561,0.88183 6.82910161,3.11719 2.2148437,2.21484 2.2148437,5.94726 0,4.4502 -2.9941406,6.74707 -2.9736328,2.29688 -8.7363281,2.29688 -2.1738282,0 -4.6347657,-0.49219 -2.4404296,-0.49219 -5.0654296,-1.45606 v -4.26562 q 2.522461,1.41504 4.9423828,2.13281 2.4199218,0.71778 4.7578125,0.71778 3.54785151,0 5.4755859,-1.39454 1.9277344,-1.39453 1.9277344,-3.97851 0,-2.25586 -1.3945313,-3.52735 -1.37402342,-1.27148 -4.5322265,-1.90722 l -2.522461,-0.49219 q -4.6347656,-0.92285 -6.7060548,-2.8916 -2.071289,-1.96875 -2.071289,-5.47559 0,-4.06054 2.850586,-6.39843 2.8710937,-2.33789 7.8955078,-2.33789 2.15332032,0 4.3886719,0.38964 2.2353515,0.38965 4.5732422,1.16895 z" />
    <path
       id="path196"
       style="fill:#ff0000"
       d="m 14.538086,155.38184 h 4.142578 V 186 h -4.142578 z" />
    <path
       id="path198"
       style="fill:#ff0000"
       d="m 26.924805,155.38184 h 5.578125 l 13.576172,25.61425 v -25.61425 h 4.019531 V 186 H 44.520508 L 30.944336,160.38574 V 186 h -4.019531 z" />
    <path
       id="path200"
       style="fill:#ff0000"
       d="m 79.219727,181.63184 v -8.22364 h -6.767579 v -3.40429 h 10.869141 v 13.1455 q -2.399414,1.70215 -5.291016,2.58399 -2.891601,0.86133 -6.172851,0.86133 -7.177734,0 -11.238281,-4.1836 -4.040039,-4.2041 -4.040039,-11.68945 0,-7.50586 4.040039,-11.68945 4.060547,-4.2041 11.238281,-4.2041 2.994141,0 5.680664,0.73828 2.707031,0.73828 4.983398,2.17382 v 4.40918 q -2.296875,-1.94824 -4.880859,-2.93261 -2.583984,-0.98438 -5.43457,-0.98438 -5.619141,0 -8.449219,3.1377 -2.80957,3.13769 -2.80957,9.35156 0,6.19336 2.80957,9.33105 2.830078,3.1377 8.449219,3.1377 2.194336,0 3.916992,-0.36914 1.722656,-0.38965 3.09668,-1.18945 z" />
    <path
       id="path202"
       style="fill:#ff0000"
       d="m 91.708984,180.79102 h 4.327149 V 186 h -4.327149 z m 0,-16.50879 h 4.327149 v 5.20898 h -4.327149 z" />
    <path
       id="path204"
       style="fill:#ff0000"
       d="m 115.74414,155.38184 h 4.18359 l 6.43946,25.88086 6.41894,-25.88086 h 4.65528 l 6.43945,25.88086 6.41894,-25.88086 h 4.20411 L 146.81348,186 h -5.20899 L 135.14453,159.42188 128.62305,186 h -5.20899 z" />
    <path
       id="path206"
       style="fill:#ff0000"
       d="m 158.91309,163.03125 h 3.77343 V 186 h -3.77343 z m 0,-8.94141 h 3.77343 v 4.77832 h -3.77343 z" />
    <path
       id="path208"
       style="fill:#ff0000"
       d="m 183.87109,166.55859 q -0.63574,-0.36914 -1.39453,-0.5332 -0.73828,-0.18457 -1.64062,-0.18457 -3.19922,0 -4.92188,2.0918 -1.70215,2.07129 -1.70215,5.96777 V 186 h -3.79394 v -22.96875 h 3.79394 v 3.56836 q 1.18946,-2.0918 3.09668,-3.09668 1.90723,-1.02539 4.63477,-1.02539 0.38965,0 0.86133,0.0615 0.47168,0.041 1.0459,0.14356 z" />
    <path
       id="path210"
       style="fill:#ff0000"
       d="m 206.61426,173.57227 v 1.8457 h -17.34961 q 0.24609,3.89648 2.33789,5.94726 2.1123,2.03028 5.86523,2.03028 2.17383,0 4.20411,-0.53321 2.05078,-0.5332 4.06054,-1.5996 v 3.56835 q -2.03027,0.86133 -4.16308,1.3125 -2.13282,0.45118 -4.32715,0.45118 -5.4961,0 -8.71582,-3.19922 -3.19922,-3.19922 -3.19922,-8.6543 0,-5.63965 3.03515,-8.94141 3.05567,-3.32226 8.22364,-3.32226 4.63476,0 7.32129,2.99414 2.70703,2.97363 2.70703,8.10059 z m -3.77344,-1.10743 q -0.041,-3.09668 -1.74316,-4.94238 -1.68164,-1.8457 -4.47071,-1.8457 -3.1582,0 -5.06543,1.78418 -1.88672,1.78418 -2.17382,5.02441 z" />
    <path
       id="path212"
       style="fill:#ff0000"
       d="m 231.32617,156.38672 v 4.04004 q -2.3584,-1.12793 -4.45019,-1.68164 -2.0918,-0.55371 -4.04004,-0.55371 -3.38379,0 -5.22949,1.3125 -1.8252,1.3125 -1.8252,3.73242 0,2.03027 1.20996,3.07617 1.23047,1.02539 4.63477,1.66113 l 2.50195,0.5127 q 4.63477,0.88183 6.8291,3.11719 2.21485,2.21484 2.21485,5.94726 0,4.4502 -2.99415,6.74707 -2.97363,2.29688 -8.73632,2.29688 -2.17383,0 -4.63477,-0.49219 -2.44043,-0.49219 -5.06543,-1.45606 v -4.26562 q 2.52246,1.41504 4.94238,2.13281 2.41993,0.71778 4.75782,0.71778 3.54785,0 5.47558,-1.39454 1.92774,-1.39453 1.92774,-3.97851 0,-2.25586 -1.39453,-3.52735 -1.37403,-1.27148 -4.53223,-1.90722 l -2.52246,-0.49219 q -4.63477,-0.92285 -6.70606,-2.8916 -2.07129,-1.96875 -2.07129,-5.47559 0,-4.06054 2.85059,-6.39843 2.87109,-2.33789 7.89551,-2.33789 2.15332,0 4.38867,0.38964 2.23535,0.38965 4.57324,1.16895 z" />
    <path
       id="path214"
       style="fill:#ff0000"
       d="m 259.11426,173.57227 v 1.8457 h -17.34961 q 0.24609,3.89648 2.33789,5.94726 2.1123,2.03028 5.86523,2.03028 2.17383,0 4.20411,-0.53321 2.05078,-0.5332 4.06054,-1.5996 v 3.56835 q -2.03027,0.86133 -4.16308,1.3125 -2.13282,0.45118 -4.32715,0.45118 -5.4961,0 -8.71582,-3.19922 -3.19922,-3.19922 -3.19922,-8.6543 0,-5.63965 3.03515,-8.94141 3.05567,-3.32226 8.22364,-3.32226 4.63476,0 7.32129,2.99414 2.70703,2.97363 2.70703,8.10059 z m -3.77344,-1.10743 q -0.041,-3.09668 -1.74316,-4.94238 -1.68164,-1.8457 -4.47071,-1.8457 -3.1582,0 -5.06543,1.78418 -1.88672,1.78418 -2.17382,5.02441 z" />
    <path
       id="path216"
       style="fill:#ff0000"
       d="m 267.56348,174.53613 q 0,4.16309 1.70215,6.542 1.72265,2.35839 4.71679,2.35839 2.99414,0 4.7168,-2.35839 1.72266,-2.37891 1.72266,-6.542 0,-4.16308 -1.72266,-6.52148 -1.72266,-2.37891 -4.7168,-2.37891 -2.99414,0 -4.71679,2.37891 -1.70215,2.3584 -1.70215,6.52148 z m 12.8584,8.01856 q -1.18946,2.05078 -3.01465,3.05566 -1.80469,0.98438 -4.34766,0.98438 -4.16309,0 -6.78809,-3.32227 -2.60449,-3.32226 -2.60449,-8.73633 0,-5.41406 2.60449,-8.73633 2.625,-3.32226 6.78809,-3.32226 2.54297,0 4.34766,1.00488 1.82519,0.98438 3.01465,3.03516 v -3.48633 h 3.77343 v 31.70508 h -3.77343 z" />
    <path
       id="path218"
       style="fill:#ff0000"
       d="m 291.57813,176.93555 v -13.9043 h 3.77343 v 13.76074 q 0,3.26074 1.27149,4.90137 1.27148,1.62012 3.81445,1.62012 3.05566,0 4.81934,-1.94825 1.78418,-1.94824 1.78418,-5.31152 v -13.02246 h 3.77343 V 186 h -3.77343 v -3.52734 q -1.37403,2.09179 -3.19922,3.11718 -1.80469,1.00489 -4.2041,1.00489 -3.95801,0 -6.00879,-2.46094 -2.05078,-2.46094 -2.05078,-7.19824 z m 9.49511,-14.45801 z" />
    <path
       id="path220"
       style="fill:#ff0000"
       d="m 338.27441,173.57227 v 1.8457 H 320.9248 q 0.2461,3.89648 2.3379,5.94726 2.1123,2.03028 5.86523,2.03028 2.17383,0 4.2041,-0.53321 2.05078,-0.5332 4.06055,-1.5996 v 3.56835 q -2.03028,0.86133 -4.16309,1.3125 -2.13281,0.45118 -4.32715,0.45118 -5.49609,0 -8.71582,-3.19922 -3.19922,-3.19922 -3.19922,-8.6543 0,-5.63965 3.03516,-8.94141 3.05567,-3.32226 8.22363,-3.32226 4.63477,0 7.32129,2.99414 2.70703,2.97363 2.70703,8.10059 z m -3.77343,-1.10743 q -0.041,-3.09668 -1.74317,-4.94238 -1.68164,-1.8457 -4.4707,-1.8457 -3.1582,0 -5.06543,1.78418 -1.88672,1.78418 -2.17383,5.02441 z" />
    <path
       id="path222"
       style="fill:#ff0000"
       d="M 363.56055,172.13672 V 186 h -3.77344 v -13.74023 q 0,-3.26075 -1.27148,-4.88086 -1.27149,-1.62012 -3.81446,-1.62012 -3.05566,0 -4.81933,1.94824 -1.76368,1.94824 -1.76368,5.31152 V 186 h -3.79394 v -22.96875 h 3.79394 v 3.56836 q 1.35352,-2.07129 3.17872,-3.09668 1.8457,-1.02539 4.24511,-1.02539 3.95801,0 5.98828,2.46094 2.03028,2.44043 2.03028,7.19824 z" />
    <path
       id="path224"
       style="fill:#ff0000"
       d="m 387.65723,163.91309 v 3.52734 q -1.59961,-0.88184 -3.21973,-1.3125 -1.59961,-0.45117 -3.24023,-0.45117 -3.6709,0 -5.70118,2.33789 -2.03027,2.31738 -2.03027,6.52148 0,4.2041 2.03027,6.542 2.03028,2.31738 5.70118,2.31738 1.64062,0 3.24023,-0.43067 1.62012,-0.45117 3.21973,-1.333 v 3.48632 q -1.5791,0.73829 -3.28125,1.10743 -1.68164,0.36914 -3.58887,0.36914 -5.18848,0 -8.24414,-3.26075 -3.05567,-3.26074 -3.05567,-8.79785 0,-5.61914 3.07618,-8.83886 3.09668,-3.21973 8.46972,-3.21973 1.74317,0 3.4043,0.36914 1.66113,0.34863 3.21973,1.06641 z" />
    <path
       id="path226"
       style="fill:#ff0000"
       d="m 413.90723,173.57227 v 1.8457 h -17.34961 q 0.24609,3.89648 2.33789,5.94726 2.1123,2.03028 5.86523,2.03028 2.17383,0 4.2041,-0.53321 2.05079,-0.5332 4.06055,-1.5996 v 3.56835 q -2.03027,0.86133 -4.16309,1.3125 -2.13281,0.45118 -4.32714,0.45118 -5.4961,0 -8.71582,-3.19922 -3.19922,-3.19922 -3.19922,-8.6543 0,-5.63965 3.03515,-8.94141 3.05567,-3.32226 8.22364,-3.32226 4.63476,0 7.32129,2.99414 2.70703,2.97363 2.70703,8.10059 z m -3.77344,-1.10743 q -0.041,-3.09668 -1.74316,-4.94238 -1.68165,-1.8457 -4.47071,-1.8457 -3.1582,0 -5.06543,1.78418 -1.88672,1.78418 -2.17383,5.02441 z" />
    <path
       id="path228"
       style="fill:#ff0000"
       d="m 426.80664,155.38184 h 3.48633 l -10.66406,34.51464 h -3.48633 z" />
    <path
       id="path230"
       style="fill:#ff0000"
       d="m 434.29199,154.08984 h 3.77344 V 186 h -3.77344 z" />
    <path
       id="path232"
       style="fill:#ff0000"
       d="m 456.37891,174.4541 q -4.57325,0 -6.33692,1.0459 -1.76367,1.0459 -1.76367,3.56836 0,2.00977 1.3125,3.19922 1.33301,1.16894 3.60938,1.16894 3.13769,0 5.02441,-2.21484 1.90723,-2.23535 1.90723,-5.92676 v -0.84082 z m 7.52636,-1.55859 V 186 h -3.77343 v -3.48633 q -1.292,2.0918 -3.21973,3.09668 -1.92773,0.98438 -4.7168,0.98438 -3.52734,0 -5.61914,-1.96875 -2.07129,-1.98926 -2.07129,-5.31153 0,-3.87597 2.58399,-5.84472 2.60449,-1.96875 7.75195,-1.96875 h 5.29102 v -0.36914 q 0,-2.6045 -1.72266,-4.01954 -1.70215,-1.43554 -4.79883,-1.43554 -1.96875,0 -3.83496,0.47168 -1.86621,0.47168 -3.58887,1.41504 v -3.48633 q 2.07129,-0.79981 4.01953,-1.18945 1.94825,-0.41016 3.79395,-0.41016 4.9834,0 7.44434,2.58398 2.46093,2.58399 2.46093,7.83399 z" />
    <path
       id="path234"
       style="fill:#ff0000"
       d="m 488.18652,174.53613 q 0,-4.16308 -1.72265,-6.52148 -1.70215,-2.37891 -4.69629,-2.37891 -2.99414,0 -4.7168,2.37891 -1.70215,2.3584 -1.70215,6.52148 0,4.16309 1.70215,6.542 1.72266,2.35839 4.7168,2.35839 2.99414,0 4.69629,-2.35839 1.72265,-2.37891 1.72265,-6.542 z m -12.83789,-8.01855 q 1.18946,-2.05078 2.99414,-3.03516 1.8252,-1.00488 4.34766,-1.00488 4.18359,0 6.78809,3.32226 2.625,3.32227 2.625,8.73633 0,5.41407 -2.625,8.73633 -2.6045,3.32227 -6.78809,3.32227 -2.52246,0 -4.34766,-0.98438 -1.80468,-1.00488 -2.99414,-3.05566 V 186 h -3.79394 v -31.91016 h 3.79394 z" />
    <path
       id="path236"
       style="fill:#ff0000"
       d="m 518.00488,173.57227 v 1.8457 h -17.34961 q 0.2461,3.89648 2.33789,5.94726 2.11231,2.03028 5.86524,2.03028 2.17383,0 4.2041,-0.53321 2.05078,-0.5332 4.06055,-1.5996 v 3.56835 q -2.03028,0.86133 -4.16309,1.3125 -2.13281,0.45118 -4.32715,0.45118 -5.49609,0 -8.71582,-3.19922 -3.19922,-3.19922 -3.19922,-8.6543 0,-5.63965 3.03516,-8.94141 3.05566,-3.32226 8.22363,-3.32226 4.63477,0 7.32129,2.99414 2.70703,2.97363 2.70703,8.10059 z m -3.77343,-1.10743 q -0.041,-3.09668 -1.74317,-4.94238 -1.68164,-1.8457 -4.4707,-1.8457 -3.1582,0 -5.06543,1.78418 -1.88672,1.78418 -2.17383,5.02441 z" />
    <path
       id="path238"
       style="fill:#ff0000"
       d="m 524.19824,154.08984 h 3.77344 V 186 h -3.77344 z" />
    <path
       id="path240"
       style="fill:#ff0000"
       d="m 553.29883,192.97266 v 2.93261 h -21.82031 v -2.93261 z" />
    <path
       id="path242"
       style="fill:#ff0000"
       d="m 573.33496,174.53613 q 0,-4.16308 -1.72266,-6.52148 -1.70214,-2.37891 -4.69628,-2.37891 -2.99415,0 -4.7168,2.37891 -1.70215,2.3584 -1.70215,6.52148 0,4.16309 1.70215,6.542 1.72265,2.35839 4.7168,2.35839 2.99414,0 4.69628,-2.35839 1.72266,-2.37891 1.72266,-6.542 z m -12.83789,-8.01855 q 1.18945,-2.05078 2.99414,-3.03516 1.8252,-1.00488 4.34766,-1.00488 4.18359,0 6.78808,3.32226 2.625,3.32227 2.625,8.73633 0,5.41407 -2.625,8.73633 -2.60449,3.32227 -6.78808,3.32227 -2.52246,0 -4.34766,-0.98438 -1.80469,-1.00488 -2.99414,-3.05566 V 186 h -3.79395 v -31.91016 h 3.79395 z" />
    <path
       id="path244"
       style="fill:#ff0000"
       d="m 592.3252,154.08984 v 37.44727 h -8.69532 v -2.93262 h 4.90137 v -31.58203 h -4.90137 v -2.93262 z" />
  </g>
  <g
     id="text115"
     style="font-size:42px;font-family:sans-serif;text-anchor:middle;fill:#000000"
     aria-label="[MISSING: WireSequence/label_c]">
    <path
       id="path247"
       style="fill:#ff0000"
       d="m -102.58203,224.08984 h 8.695311 v 2.93262 h -4.921875 v 31.58203 h 4.921875 v 2.93262 h -8.695311 z" />
    <path
       id="path249"
       style="fill:#ff0000"
       d="m -85.663086,225.38184 h 6.172852 l 7.813476,20.83593 7.854492,-20.83593 h 6.172852 V 256 h -4.040039 v -26.88574 l -7.895508,21 h -4.163086 l -7.895508,-21 V 256 h -4.019531 z" />
    <path
       id="path251"
       style="fill:#ff0000"
       d="m -49.405273,225.38184 h 4.142578 V 256 h -4.142578 z" />
    <path
       id="path253"
       style="fill:#ff0000"
       d="m -18.664063,226.38672 v 4.04004 q -2.358398,-1.12793 -4.450195,-1.68164 -2.091797,-0.55371 -4.040039,-0.55371 -3.383789,0 -5.229492,1.3125 -1.825195,1.3125 -1.825195,3.73242 0,2.03027 1.209961,3.07617 1.230468,1.02539 4.634765,1.66113 l 2.501953,0.5127 q 4.634766,0.88183 6.829102,3.11719 2.214844,2.21484 2.214844,5.94726 0,4.4502 -2.994141,6.74707 -2.973633,2.29688 -8.736328,2.29688 -2.173828,0 -4.634766,-0.49219 -2.440429,-0.49219 -5.065429,-1.45606 v -4.26562 q 2.52246,1.41504 4.942382,2.13281 2.419922,0.71778 4.757813,0.71778 3.547851,0 5.475586,-1.39454 1.927734,-1.39453 1.927734,-3.97851 0,-2.25586 -1.394531,-3.52735 -1.374024,-1.27148 -4.532227,-1.90722 l -2.522461,-0.49219 q -4.634765,-0.92285 -6.706054,-2.8916 -2.071289,-1.96875 -2.071289,-5.47559 0,-4.06054 2.850586,-6.39843 2.871093,-2.33789 7.895507,-2.33789 2.153321,0 4.388672,0.38964 2.235352,0.38965 4.573242,1.16895 z" />
    <path
       id="path255"
       style="fill:#ff0000"
       d="m 7.9960938,226.38672 v 4.04004 q -2.3583985,-1.12793 -4.4501954,-1.68164 -2.0917968,-0.55371 -4.04003903,-0.55371 -3.38378907,0 -5.22949217,1.3125 -1.8251953,1.3125 -1.8251953,3.73242 0,2.03027 1.2099609,3.07617 1.2304688,1.02539 4.6347656,1.66113 l 2.50195316,0.5127 q 4.63476564,0.88183 6.82910154,3.11719 2.2148438,2.21484 2.2148438,5.94726 0,4.4502 -2.9941406,6.74707 -2.9736329,2.29688 -8.7363282,2.29688 -2.1738281,0 -4.6347656,-0.49219 -2.4404297,-0.49219 -5.0654295,-1.45606 v -4.26562 q 2.5224608,1.41504 4.9423826,2.13281 2.4199219,0.71778 4.7578125,0.71778 3.5478516,0 5.475586,-1.39454 1.9277343,-1.39453 1.9277343,-3.97851 0,-2.25586 -1.3945312,-3.52735 -1.3740235,-1.27148 -4.53222658,-1.90722 l -2.52246092,-0.49219 q -4.6347656,-0.92285 -6.7060547,-2.8916 -2.071289,-1.96875 -2.071289,-5.47559 0,-4.06054 2.8505859,-6.39843 2.8710937,-2.33789 7.89550779,-2.33789 2.15332031,0 4.38867191,0.38964 2.2353515,0.38965 4.5732422,1.16895 z" />
    <path
       id="path257"
       style="fill:#ff0000"
       d="m 16.301758,225.38184 h 4.142578 V 256 h -4.142578 z" />
    <path
       id="path259"
       style="fill:#ff0000"
       d="m 28.688477,225.38184 h 5.578125 l 13.576171,25.61425 v -25.61425 h 4.019532 V 256 H 46.28418 L 32.708008,230.38574 V 256 h -4.019531 z" />
    <path
       id="path261"
       style="fill:#ff0000"
       d="M 80.983398,251.63184 V 243.4082 H 74.21582 v -3.40429 h 10.869141 v 13.1455 q -2.399414,1.70215 -5.291016,2.58399 -2.891601,0.86133 -6.172851,0.86133 -7.177735,0 -11.238281,-4.1836 -4.04004,-4.2041 -4.04004,-11.68945 0,-7.50586 4.04004,-11.68945 4.060546,-4.2041 11.238281,-4.2041 2.99414,0 5.680664,0.73828 2.707031,0.73828 4.983398,2.17382 v 4.40918 q -2.296875,-1.94824 -4.880859,-2.93261 -2.583984,-0.98438 -5.43457,-0.98438 -5.619141,0 -8.449219,3.1377 -2.80957,3.13769 -2.80957,9.35156 0,6.19336 2.80957,9.33105 2.830078,3.1377 8.449219,3.1377 2.194336,0 3.916992,-0.36914 1.722656,-0.38965 3.096679,-1.18945 z" />
    <path
       id="path263"
       style="fill:#ff0000"
       d="m 93.472656,250.79102 h 4.327149 V 256 h -4.327149 z m 0,-16.50879 h 4.327149 v 5.20898 h -4.327149 z" />
    <path
       id="path265"
       style="fill:#ff0000"
       d="m 117.50781,225.38184 h 4.1836 l 6.43945,25.88086 6.41894,-25.88086 h 4.65528 l 6.43945,25.88086 6.41895,-25.88086 h 4.2041 L 148.57715,256 h -5.20899 L 136.9082,229.42188 130.38672,256 h -5.20899 z" />
    <path
       id="path267"
       style="fill:#ff0000"
       d="m 160.67676,233.03125 h 3.77344 V 256 h -3.77344 z m 0,-8.94141 h 3.77344 v 4.77832 h -3.77344 z" />
    <path
       id="path269"
       style="fill:#ff0000"
       d="m 185.63477,236.55859 q -0.63575,-0.36914 -1.39454,-0.5332 -0.73828,-0.18457 -1.64062,-0.18457 -3.19922,0 -4.92188,2.0918 -1.70214,2.07129 -1.70214,5.96777 V 256 h -3.79395 v -22.96875 h 3.79395 v 3.56836 q 1.18945,-2.0918 3.09668,-3.09668 1.90722,-1.02539 4.63476,-1.02539 0.38965,0 0.86133,0.0615 0.47168,0.041 1.0459,0.14356 z" />
    <path
       id="path271"
       style="fill:#ff0000"
       d="m 208.37793,243.57227 v 1.8457 h -17.34961 q 0.24609,3.89648 2.33789,5.94726 2.11231,2.03028 5.86524,2.03028 2.17382,0 4.2041,-0.53321 2.05078,-0.5332 4.06054,-1.5996 v 3.56835 q -2.03027,0.86133 -4.16308,1.3125 -2.13281,0.45118 -4.32715,0.45118 -5.49609,0 -8.71582,-3.19922 -3.19922,-3.19922 -3.19922,-8.6543 0,-5.63965 3.03516,-8.94141 3.05566,-3.32226 8.22363,-3.32226 4.63477,0 7.32129,2.99414 2.70703,2.97363 2.70703,8.10059 z m -3.77344,-1.10743 q -0.041,-3.09668 -1.74316,-4.94238 -1.68164,-1.8457 -4.4707,-1.8457 -3.15821,0 -5.06543,1.78418 -1.88672,1.78418 -2.17383,5.02441 z" />
    <path
       id="path273"
       style="fill:#ff0000"
       d="m 233.08984,226.38672 v 4.04004 q -2.35839,-1.12793 -4.45019,-1.68164 -2.0918,-0.55371 -4.04004,-0.55371 -3.38379,0 -5.22949,1.3125 -1.8252,1.3125 -1.8252,3.73242 0,2.03027 1.20996,3.07617 1.23047,1.02539 4.63477,1.66113 l 2.50195,0.5127 q 4.63477,0.88183 6.8291,3.11719 2.21485,2.21484 2.21485,5.94726 0,4.4502 -2.99414,6.74707 -2.97364,2.29688 -8.73633,2.29688 -2.17383,0 -4.63477,-0.49219 -2.44043,-0.49219 -5.06543,-1.45606 v -4.26562 q 2.52246,1.41504 4.94239,2.13281 2.41992,0.71778 4.75781,0.71778 3.54785,0 5.47558,-1.39454 1.92774,-1.39453 1.92774,-3.97851 0,-2.25586 -1.39453,-3.52735 -1.37403,-1.27148 -4.53223,-1.90722 l -2.52246,-0.49219 q -4.63477,-0.92285 -6.70605,-2.8916 -2.07129,-1.96875 -2.07129,-5.47559 0,-4.06054 2.85058,-6.39843 2.8711,-2.33789 7.89551,-2.33789 2.15332,0 4.38867,0.38964 2.23535,0.38965 4.57324,1.16895 z" />
    <path
       id="path275"
       style="fill:#ff0000"
       d="m 260.87793,243.57227 v 1.8457 h -17.34961 q 0.24609,3.89648 2.33789,5.94726 2.11231,2.03028 5.86524,2.03028 2.17382,0 4.2041,-0.53321 2.05078,-0.5332 4.06054,-1.5996 v 3.56835 q -2.03027,0.86133 -4.16308,1.3125 -2.13281,0.45118 -4.32715,0.45118 -5.49609,0 -8.71582,-3.19922 -3.19922,-3.19922 -3.19922,-8.6543 0,-5.63965 3.03516,-8.94141 3.05566,-3.32226 8.22363,-3.32226 4.63477,0 7.32129,2.99414 2.70703,2.97363 2.70703,8.10059 z m -3.77344,-1.10743 q -0.041,-3.09668 -1.74316,-4.94238 -1.68164,-1.8457 -4.4707,-1.8457 -3.15821,0 -5.06543,1.78418 -1.88672,1.78418 -2.17383,5.02441 z" />
    <path
       id="path277"
       style="fill:#ff0000"
       d="m 269.32715,244.53613 q 0,4.16309 1.70215,6.542 1.72265,2.35839 4.71679,2.35839 2.99414,0 4.7168,-2.35839 1.72266,-2.37891 1.72266,-6.542 0,-4.16308 -1.72266,-6.52148 -1.72266,-2.37891 -4.7168,-2.37891 -2.99414,0 -4.71679,2.37891 -1.70215,2.3584 -1.70215,6.52148 z m 12.8584,8.01856 q -1.18946,2.05078 -3.01465,3.05566 -1.80469,0.98438 -4.34766,0.98438 -4.16308,0 -6.78808,-3.32227 -2.6045,-3.32226 -2.6045,-8.73633 0,-5.41406 2.6045,-8.73633 2.625,-3.32226 6.78808,-3.32226 2.54297,0 4.34766,1.00488 1.82519,0.98438 3.01465,3.03516 v -3.48633 h 3.77343 v 31.70508 h -3.77343 z" />
    <path
       id="path279"
       style="fill:#ff0000"
       d="m 293.3418,246.93555 v -13.9043 h 3.77343 v 13.76074 q 0,3.26074 1.27149,4.90137 1.27148,1.62012 3.81445,1.62012 3.05567,0 4.81934,-1.94825 1.78418,-1.94824 1.78418,-5.31152 v -13.02246 h 3.77344 V 256 h -3.77344 v -3.52734 q -1.37403,2.09179 -3.19922,3.11718 -1.80469,1.00489 -4.2041,1.00489 -3.95801,0 -6.00879,-2.46094 -2.05078,-2.46094 -2.05078,-7.19824 z m 9.49511,-14.45801 z" />
    <path
       id="path281"
       style="fill:#ff0000"
       d="m 340.03809,243.57227 v 1.8457 h -17.34961 q 0.24609,3.89648 2.33789,5.94726 2.1123,2.03028 5.86523,2.03028 2.17383,0 4.2041,-0.53321 2.05078,-0.5332 4.06055,-1.5996 v 3.56835 q -2.03027,0.86133 -4.16309,1.3125 -2.13281,0.45118 -4.32714,0.45118 -5.4961,0 -8.71582,-3.19922 -3.19922,-3.19922 -3.19922,-8.6543 0,-5.63965 3.03515,-8.94141 3.05567,-3.32226 8.22364,-3.32226 4.63476,0 7.32128,2.99414 2.70704,2.97363 2.70704,8.10059 z m -3.77344,-1.10743 q -0.041,-3.09668 -1.74317,-4.94238 -1.68164,-1.8457 -4.4707,-1.8457 -3.1582,0 -5.06543,1.78418 -1.88672,1.78418 -2.17383,5.02441 z" />
    <path
       id="path283"
       style="fill:#ff0000"
       d="M 365.32422,242.13672 V 256 h -3.77344 v -13.74023 q 0,-3.26075 -1.27148,-4.88086 -1.27149,-1.62012 -3.81446,-1.62012 -3.05566,0 -4.81933,1.94824 -1.76367,1.94824 -1.76367,5.31152 V 256 h -3.79395 v -22.96875 h 3.79395 v 3.56836 q 1.35351,-2.07129 3.17871,-3.09668 1.8457,-1.02539 4.24511,-1.02539 3.95801,0 5.98829,2.46094 2.03027,2.44043 2.03027,7.19824 z" />
    <path
       id="path285"
       style="fill:#ff0000"
       d="m 389.4209,233.91309 v 3.52734 q -1.59961,-0.88184 -3.21973,-1.3125 -1.59961,-0.45117 -3.24023,-0.45117 -3.6709,0 -5.70117,2.33789 -2.03028,2.31738 -2.03028,6.52148 0,4.2041 2.03028,6.542 2.03027,2.31738 5.70117,2.31738 1.64062,0 3.24023,-0.43067 1.62012,-0.45117 3.21973,-1.333 v 3.48632 q -1.5791,0.73829 -3.28125,1.10743 -1.68164,0.36914 -3.58887,0.36914 -5.18848,0 -8.24414,-3.26075 -3.05566,-3.26074 -3.05566,-8.79785 0,-5.61914 3.07617,-8.83886 3.09668,-3.21973 8.46973,-3.21973 1.74316,0 3.40429,0.36914 1.66113,0.34863 3.21973,1.06641 z" />
    <path
       id="path287"
       style="fill:#ff0000"
       d="m 415.6709,243.57227 v 1.8457 h -17.34961 q 0.24609,3.89648 2.33789,5.94726 2.1123,2.03028 5.86523,2.03028 2.17383,0 4.20411,-0.53321 2.05078,-0.5332 4.06054,-1.5996 v 3.56835 q -2.03027,0.86133 -4.16308,1.3125 -2.13282,0.45118 -4.32715,0.45118 -5.4961,0 -8.71582,-3.19922 -3.19922,-3.19922 -3.19922,-8.6543 0,-5.63965 3.03516,-8.94141 3.05566,-3.32226 8.22363,-3.32226 4.63476,0 7.32129,2.99414 2.70703,2.97363 2.70703,8.10059 z m -3.77344,-1.10743 q -0.041,-3.09668 -1.74316,-4.94238 -1.68164,-1.8457 -4.47071,-1.8457 -3.1582,0 -5.06543,1.78418 -1.88671,1.78418 -2.17382,5.02441 z" />
    <path
       id="path289"
       style="fill:#ff0000"
       d="m 428.57031,225.38184 h 3.48633 l -10.66406,34.51464 h -3.48633 z" />
    <path
       id="path291"
       style="fill:#ff0000"
       d="m 436.05566,224.08984 h 3.77344 V 256 h -3.77344 z" />
    <path
       id="path293"
       style="fill:#ff0000"
       d="m 458.14258,244.4541 q -4.57324,0 -6.33692,1.0459 -1.76367,1.0459 -1.76367,3.56836 0,2.00977 1.3125,3.19922 1.33301,1.16894 3.60938,1.16894 3.13769,0 5.02441,-2.21484 1.90723,-2.23535 1.90723,-5.92676 v -0.84082 z m 7.52637,-1.55859 V 256 h -3.77344 v -3.48633 q -1.29199,2.0918 -3.21973,3.09668 -1.92773,0.98438 -4.7168,0.98438 -3.52734,0 -5.61914,-1.96875 -2.07129,-1.98926 -2.07129,-5.31153 0,-3.87597 2.58399,-5.84472 2.60449,-1.96875 7.75195,-1.96875 h 5.29102 v -0.36914 q 0,-2.6045 -1.72266,-4.01954 -1.70215,-1.43554 -4.79883,-1.43554 -1.96875,0 -3.83496,0.47168 -1.86621,0.47168 -3.58886,1.41504 v -3.48633 q 2.07128,-0.79981 4.01953,-1.18945 1.94824,-0.41016 3.79394,-0.41016 4.9834,0 7.44434,2.58398 2.46094,2.58399 2.46094,7.83399 z" />
    <path
       id="path295"
       style="fill:#ff0000"
       d="m 489.9502,244.53613 q 0,-4.16308 -1.72266,-6.52148 -1.70215,-2.37891 -4.69629,-2.37891 -2.99414,0 -4.7168,2.37891 -1.70215,2.3584 -1.70215,6.52148 0,4.16309 1.70215,6.542 1.72266,2.35839 4.7168,2.35839 2.99414,0 4.69629,-2.35839 1.72266,-2.37891 1.72266,-6.542 z m -12.8379,-8.01855 q 1.18946,-2.05078 2.99415,-3.03516 1.82519,-1.00488 4.34765,-1.00488 4.1836,0 6.78809,3.32226 2.625,3.32227 2.625,8.73633 0,5.41407 -2.625,8.73633 -2.60449,3.32227 -6.78809,3.32227 -2.52246,0 -4.34765,-0.98438 -1.80469,-1.00488 -2.99415,-3.05566 V 256 h -3.79394 v -31.91016 h 3.79394 z" />
    <path
       id="path297"
       style="fill:#ff0000"
       d="m 519.76855,243.57227 v 1.8457 h -17.3496 q 0.24609,3.89648 2.33789,5.94726 2.1123,2.03028 5.86523,2.03028 2.17383,0 4.2041,-0.53321 2.05078,-0.5332 4.06055,-1.5996 v 3.56835 q -2.03027,0.86133 -4.16309,1.3125 -2.13281,0.45118 -4.32715,0.45118 -5.49609,0 -8.71582,-3.19922 -3.19921,-3.19922 -3.19921,-8.6543 0,-5.63965 3.03515,-8.94141 3.05567,-3.32226 8.22363,-3.32226 4.63477,0 7.32129,2.99414 2.70703,2.97363 2.70703,8.10059 z m -3.77343,-1.10743 q -0.041,-3.09668 -1.74317,-4.94238 -1.68164,-1.8457 -4.4707,-1.8457 -3.1582,0 -5.06543,1.78418 -1.88672,1.78418 -2.17383,5.02441 z" />
    <path
       id="path299"
       style="fill:#ff0000"
       d="m 525.96191,224.08984 h 3.77344 V 256 h -3.77344 z" />
    <path
       id="path301"
       style="fill:#ff0000"
       d="m 555.0625,262.97266 v 2.93261 h -21.82031 v -2.93261 z" />
    <path
       id="path303"
       style="fill:#ff0000"
       d="m 575.13965,233.91309 v 3.52734 q -1.59961,-0.88184 -3.21973,-1.3125 -1.59961,-0.45117 -3.24023,-0.45117 -3.6709,0 -5.70117,2.33789 -2.03028,2.31738 -2.03028,6.52148 0,4.2041 2.03028,6.542 2.03027,2.31738 5.70117,2.31738 1.64062,0 3.24023,-0.43067 1.62012,-0.45117 3.21973,-1.333 v 3.48632 q -1.5791,0.73829 -3.28125,1.10743 -1.68164,0.36914 -3.58887,0.36914 -5.18848,0 -8.24414,-3.26075 -3.05566,-3.26074 -3.05566,-8.79785 0,-5.61914 3.07617,-8.83886 3.09668,-3.21973 8.46972,-3.21973 1.74317,0 3.4043,0.36914 1.66113,0.34863 3.21973,1.06641 z" />
    <path
       id="path305"
       style="fill:#ff0000"
       d="m 590.56152,224.08984 v 37.44727 h -8.69531 v -2.93262 h 4.90137 v -31.58203 h -4.90137 v -2.93262 z" />
  </g>
</svg>
