<?xml version="1.0" encoding="UTF-8" standalone="no"?>
<svg
   xmlns:dc="http://purl.org/dc/elements/1.1/"
   xmlns:cc="http://creativecommons.org/ns#"
   xmlns:rdf="http://www.w3.org/1999/02/22-rdf-syntax-ns#"
   xmlns:svg="http://www.w3.org/2000/svg"
   xmlns="http://www.w3.org/2000/svg"
   id="svg97"
   stroke-miterlimit="10"
   stroke-linecap="square"
   stroke="none"
   fill="none"
   viewBox="0.0 0.0 369.0 801.0"
   version="1.1">
  <metadata
     id="metadata103">
    <rdf:RDF>
      <cc:Work
         rdf:about="">
        <dc:format>image/svg+xml</dc:format>
        <dc:type
           rdf:resource="http://purl.org/dc/dcmitype/StillImage" />
      </cc:Work>
    </rdf:RDF>
  </metadata>
  <defs
     id="defs101" />
  <clipPath
     id="p.0">
    <path
       id="path2"
       clip-rule="nonzero"
       d="m0 0l369.0 0l0 801.0l-369.0 0l0 -801.0z" />
  </clipPath>
  <g
     id="g91"
     clip-path="url(#p.0)">
    <path
       style="fill:#000000;fill-opacity:0;fill-rule:nonzero"
       id="path5"
       d="M 0,0 H 369.1076 V 801.916 H 0 Z" />
    <path
       style="fill:#000000;fill-rule:nonzero"
       id="path7"
       d="m 248.5753,444.2651 h 101.4803 v 67.55905 H 248.5753 Z" />
    <path
       style="fill-rule:nonzero;stroke:#000000;stroke-width:2;stroke-linecap:butt;stroke-linejoin:round"
       id="path9"
       d="m 248.5753,444.2651 h 101.4803 v 67.55905 H 248.5753 Z" />
    <path
       style="fill:#ffffff;fill-rule:nonzero"
       id="path11"
       d="m 289.4047,109.25535 h 67.3071 v 208.0315 h -67.3071 z" />
    <path
       style="fill-rule:nonzero;stroke:#000000;stroke-width:2;stroke-linecap:butt;stroke-linejoin:round"
       id="path13"
       d="m 289.4047,109.25535 h 67.3071 v 208.0315 h -67.3071 z" />
    <path
       style="fill:#ffffff;fill-rule:nonzero"
       id="path15"
       d="M 5.589649,165.38321 H 53.306183 V 273.09973 H 5.589649 Z" />
    <path
       style="fill-rule:nonzero;stroke:#000000;stroke-width:2;stroke-linecap:butt;stroke-linejoin:round"
       id="path17"
       d="M 5.589649,165.38321 H 53.306183 V 273.09973 H 5.589649 Z" />
    <path
       style="fill:#ffffff;fill-rule:nonzero"
       id="path19"
       d="m 278.36172,66.32809 h 68.82806 v 0 c 9.01667,0 16.32611,7.042313 16.32611,15.729446 0,8.687134 -7.30944,15.729446 -16.32611,15.729446 h -68.82806 v 0 c -9.01666,0 -16.32614,-7.042313 -16.32614,-15.729446 0,-8.687134 7.30948,-15.729446 16.32614,-15.729446 z" />
    <path
       style="fill-rule:nonzero;stroke:#000000;stroke-width:2;stroke-linecap:butt;stroke-linejoin:round"
       id="path21"
       d="m 278.36172,66.32809 h 68.82806 v 0 c 9.01667,0 16.32611,7.042313 16.32611,15.729446 0,8.687134 -7.30944,15.729446 -16.32611,15.729446 h -68.82806 v 0 c -9.01666,0 -16.32614,-7.042313 -16.32614,-15.729446 0,-8.687134 7.30948,-15.729446 16.32614,-15.729446 z" />
    <path
       style="fill:#ffffff;fill-rule:nonzero"
       id="path23"
       d="m 12.574803,486.2047 h 67.30708 v 208.0315 h -67.30708 z" />
    <path
       style="fill-rule:nonzero;stroke:#000000;stroke-width:2;stroke-linecap:butt;stroke-linejoin:round"
       id="path25"
       d="m 12.574803,486.2047 h 67.30708 v 208.0315 h -67.30708 z" />
    <path
       style="fill:#ffffff;fill-rule:nonzero"
       id="path27"
       d="m 243.86876,46.650917 h 92.15749 V 384.32022 h -92.15749 z" />
    <path
       style="fill-rule:nonzero;stroke:#000000;stroke-width:2;stroke-linecap:butt;stroke-linejoin:round"
       id="path29"
       d="m 243.86876,46.650917 h 92.15749 V 384.32022 h -92.15749 z" />
    <path
       style="fill:#000000;fill-rule:nonzero"
       id="path31"
       d="M 22.658957,122.89764 H 101.74557 V 304.53543 H 22.658957 Z" />
    <path
       style="fill-rule:nonzero;stroke:#000000;stroke-width:2;stroke-linecap:butt;stroke-linejoin:round"
       id="path33"
       d="M 22.658957,122.89764 H 101.74557 V 304.53543 H 22.658957 Z" />
    <path
       style="fill:#ffffff;fill-rule:nonzero"
       id="path35"
       d="m 22.689058,66.32809 h 68.82809 v 0 c 9.016662,0 16.326122,7.042313 16.326122,15.729446 0,8.687134 -7.30946,15.729446 -16.326122,15.729446 h -68.82809 v 0 c -9.016665,0 -16.326115,-7.042313 -16.326115,-15.729446 0,-8.687134 7.309451,-15.729446 16.326115,-15.729446 z" />
    <path
       style="fill-rule:nonzero;stroke:#000000;stroke-width:2;stroke-linecap:butt;stroke-linejoin:round"
       id="path37"
       d="m 22.689058,66.32809 h 68.82809 v 0 c 9.016662,0 16.326122,7.042313 16.326122,15.729446 0,8.687134 -7.30946,15.729446 -16.326122,15.729446 h -68.82809 v 0 c -9.016665,0 -16.326115,-7.042313 -16.326115,-15.729446 0,-8.687134 7.309451,-15.729446 16.326115,-15.729446 z" />
    <path
       style="fill:#ffffff;fill-rule:nonzero"
       id="path39"
       d="m 22.689058,443.84253 h 68.82809 v 0 c 9.016662,0 16.326122,7.0423 16.326122,15.72943 0,8.68714 -7.30946,15.72946 -16.326122,15.72946 h -68.82809 v 0 c -9.016665,0 -16.326115,-7.04232 -16.326115,-15.72946 0,-8.68713 7.309451,-15.72943 16.326115,-15.72943 z" />
    <path
       style="fill-rule:nonzero;stroke:#000000;stroke-width:2;stroke-linecap:butt;stroke-linejoin:round"
       id="path41"
       d="m 22.689058,443.84253 h 68.82809 v 0 c 9.016662,0 16.326122,7.0423 16.326122,15.72943 0,8.68714 -7.30946,15.72946 -16.326122,15.72946 h -68.82809 v 0 c -9.016665,0 -16.326115,-7.04232 -16.326115,-15.72946 0,-8.68713 7.309451,-15.72943 16.326115,-15.72943 z" />
    <path
       style="fill:#ffffff;fill-rule:nonzero"
       id="path43"
       d="M 31.853674,46.650917 H 86.814306 V 384.32022 H 31.853674 Z" />
    <path
       style="fill-rule:nonzero;stroke:#000000;stroke-width:2;stroke-linecap:butt;stroke-linejoin:round"
       id="path45"
       d="M 31.853674,46.650917 H 86.814306 V 384.32022 H 31.853674 Z" />
    <path
       style="fill:#ffffff;fill-rule:nonzero"
       id="path47"
       d="m 278.36368,443.84253 h 68.82809 v 0 c 9.01667,0 16.32611,7.0423 16.32611,15.72943 0,8.68714 -7.30944,15.72946 -16.32611,15.72946 h -68.82809 v 0 c -9.01666,0 -16.32611,-7.04232 -16.32611,-15.72946 0,-8.68713 7.30945,-15.72943 16.32611,-15.72943 z" />
    <path
       style="fill-rule:nonzero;stroke:#000000;stroke-width:2;stroke-linecap:butt;stroke-linejoin:round"
       id="path49"
       d="m 278.36368,443.84253 h 68.82809 v 0 c 9.01667,0 16.32611,7.0423 16.32611,15.72943 0,8.68714 -7.30944,15.72946 -16.32611,15.72946 h -68.82809 v 0 c -9.01666,0 -16.32611,-7.04232 -16.32611,-15.72946 0,-8.68713 7.30945,-15.72943 16.32611,-15.72943 z" />
    <path
       style="fill:#ffffff;fill-rule:nonzero"
       id="path51"
       d="M 251.84662,615.33795 H 358.49228 V 660.1568 H 251.84662 Z" />
    <path
       style="fill-rule:nonzero;stroke:#000000;stroke-width:2;stroke-linecap:butt;stroke-linejoin:round"
       id="path53"
       d="M 251.84662,615.33795 H 358.49228 V 660.1568 H 251.84662 Z" />
    <path
       style="fill:#ffffff;fill-rule:nonzero"
       id="path55"
       d="m 251.84662,544.1022 h 106.64566 v 44.81891 H 251.84662 Z" />
    <path
       style="fill-rule:nonzero;stroke:#000000;stroke-width:2;stroke-linecap:butt;stroke-linejoin:round"
       id="path57"
       d="m 251.84662,544.1022 h 106.64566 v 44.81891 H 251.84662 Z" />
    <path
       style="fill:#ffffff;fill-rule:nonzero"
       id="path59"
       d="m 251.84662,689.47974 h 106.64566 v 44.81891 H 251.84662 Z" />
    <path
       style="fill-rule:nonzero;stroke:#000000;stroke-width:2;stroke-linecap:butt;stroke-linejoin:round"
       id="path61"
       d="m 251.84662,689.47974 h 106.64566 v 44.81891 H 251.84662 Z" />
    <path
       style="fill:#000000;fill-opacity:0;fill-rule:nonzero"
       id="path63"
       d="m 6.361959,517.22833 h 24.88189" />
    <path
       style="fill-rule:nonzero;stroke:#000000;stroke-width:2;stroke-linecap:butt;stroke-linejoin:round"
       id="path65"
       d="m 6.361959,517.22833 h 24.88189" />
    <path
       style="fill:#000000;fill-opacity:0;fill-rule:nonzero"
       id="path67"
       d="m 6.361959,569.0379 h 24.88189" />
    <path
       style="fill-rule:nonzero;stroke:#000000;stroke-width:2;stroke-linecap:butt;stroke-linejoin:round"
       id="path69"
       d="m 6.361959,569.0379 h 24.88189" />
    <path
       style="fill:#000000;fill-opacity:0;fill-rule:nonzero"
       id="path71"
       d="m 6.361959,616.8954 h 24.88189" />
    <path
       style="fill-rule:nonzero;stroke:#000000;stroke-width:2;stroke-linecap:butt;stroke-linejoin:round"
       id="path73"
       d="m 6.361959,616.8954 h 24.88189" />
    <path
       style="fill:#000000;fill-opacity:0;fill-rule:nonzero"
       id="path75"
       d="M 6.361959,673.9764 H 31.999753" />
    <path
       style="fill-rule:nonzero;stroke:#000000;stroke-width:2;stroke-linecap:butt;stroke-linejoin:round"
       id="path77"
       d="M 6.361959,673.9764 H 31.999753" />
    <path
       style="fill:#ffffff;fill-rule:nonzero"
       id="path79"
       d="m 31.85023,423.8084 h 304.1575 V 761.47765 H 31.85023 Z" />
    <path
       style="fill-rule:nonzero;stroke:#000000;stroke-width:2;stroke-linecap:butt;stroke-linejoin:round"
       id="path81"
       d="m 31.85023,423.8084 h 304.1575 V 761.47765 H 31.85023 Z" />
    <path
       style="fill:#ffffff;fill-rule:nonzero"
       id="path83"
       d="M 56.01132,0.9422572 H 312.60974 V 800.97376 H 56.01132 Z" />
    <path
       style="fill-rule:nonzero;stroke:#000000;stroke-width:2;stroke-linecap:butt;stroke-linejoin:round"
       id="path85"
       d="M 56.01132,0.9422572 H 312.60974 V 800.97376 H 56.01132 Z" />
    <path
       style="fill:#000000;fill-opacity:0;fill-rule:nonzero"
       id="path87"
       d="M 289.4042,31.199474 V 346.85303 H 221.84513 V 31.199474 Z" />
    <path
       style="fill-rule:nonzero;stroke:#000000;stroke-width:2;stroke-linecap:butt;stroke-linejoin:round"
       id="path89"
       d="M 289.4042,31.199474 V 386.85303 H 221.84513 V 31.199474 Z" />
  </g>
  <g
     id="text95"
     style="font-size:15px;font-family:sans-serif;text-anchor:middle;fill:#000000"
     transform="rotate(90)"
     aria-label="[MISSING: Manual/intro.label-serialnumber]">
    <path
       id="path105"
       style="fill:#ff0000"
       d="m 49.779297,-263.89648 h 3.105469 v 1.04736 h -1.757813 v 11.2793 h 1.757813 v 1.04736 h -3.105469 z" />
    <path
       id="path107"
       style="fill:#ff0000"
       d="m 55.821777,-263.43506 h 2.20459 l 2.790528,7.44141 2.805175,-7.44141 h 2.20459 V -252.5 h -1.442871 v -9.60205 l -2.819824,7.5 h -1.486817 l -2.819824,-7.5 V -252.5 h -1.435547 z" />
    <path
       id="path109"
       style="fill:#ff0000"
       d="m 68.770996,-263.43506 h 1.479492 V -252.5 h -1.479492 z" />
    <path
       id="path111"
       style="fill:#ff0000"
       d="m 79.75,-263.07617 v 1.44287 q -0.842285,-0.40283 -1.589355,-0.60059 -0.747071,-0.19775 -1.442872,-0.19775 -1.208496,0 -1.867675,0.46875 -0.651856,0.46875 -0.651856,1.33301 0,0.72509 0.432129,1.09863 0.439453,0.36621 1.655274,0.59326 l 0.893554,0.18311 q 1.655274,0.31494 2.438965,1.11328 0.791016,0.79101 0.791016,2.12402 0,1.58936 -1.069336,2.40967 -1.062012,0.82031 -3.120117,0.82031 -0.776368,0 -1.655274,-0.17578 -0.871582,-0.17578 -1.809082,-0.52002 v -1.52344 q 0.900879,0.50538 1.765137,0.76172 0.864258,0.25635 1.699219,0.25635 1.267089,0 1.955566,-0.49805 0.688477,-0.49804 0.688477,-1.42089 0,-0.80567 -0.498047,-1.25977 -0.490723,-0.4541 -1.618653,-0.68115 l -0.900879,-0.17578 q -1.655273,-0.32959 -2.395019,-1.03272 -0.739746,-0.70312 -0.739746,-1.95557 0,-1.45019 1.018066,-2.28515 1.025391,-0.83496 2.819824,-0.83496 0.769043,0 1.567383,0.13916 0.79834,0.13916 1.633301,0.41748 z" />
    <path
       id="path113"
       style="fill:#ff0000"
       d="m 89.271484,-263.07617 v 1.44287 q -0.842285,-0.40283 -1.589355,-0.60059 -0.74707,-0.19775 -1.442871,-0.19775 -1.208496,0 -1.867676,0.46875 -0.651855,0.46875 -0.651855,1.33301 0,0.72509 0.432128,1.09863 0.439454,0.36621 1.655274,0.59326 l 0.893555,0.18311 q 1.655273,0.31494 2.438964,1.11328 0.791016,0.79101 0.791016,2.12402 0,1.58936 -1.069336,2.40967 -1.062012,0.82031 -3.120117,0.82031 -0.776367,0 -1.655273,-0.17578 -0.871583,-0.17578 -1.809083,-0.52002 v -1.52344 q 0.900879,0.50538 1.765137,0.76172 0.864258,0.25635 1.699219,0.25635 1.26709,0 1.955566,-0.49805 0.688477,-0.49804 0.688477,-1.42089 0,-0.80567 -0.498047,-1.25977 -0.490723,-0.4541 -1.618652,-0.68115 l -0.900879,-0.17578 q -1.655274,-0.32959 -2.39502,-1.03272 -0.739746,-0.70312 -0.739746,-1.95557 0,-1.45019 1.018067,-2.28515 1.02539,-0.83496 2.819824,-0.83496 0.769043,0 1.567383,0.13916 0.798339,0.13916 1.6333,0.41748 z" />
    <path
       id="path115"
       style="fill:#ff0000"
       d="m 92.237793,-263.43506 h 1.479492 V -252.5 h -1.479492 z" />
    <path
       id="path117"
       style="fill:#ff0000"
       d="m 96.661621,-263.43506 h 1.992188 l 4.848631,9.14795 v -9.14795 h 1.43555 V -252.5 h -1.99219 l -4.848632,-9.14795 V -252.5 h -1.435547 z" />
    <path
       id="path119"
       style="fill:#ff0000"
       d="m 115.33838,-254.06006 v -2.93701 h -2.41699 v -1.21582 h 3.88183 v 4.69482 q -0.85693,0.60791 -1.88965,0.92286 -1.03271,0.30761 -2.20459,0.30761 -2.56347,0 -4.01367,-1.49414 -1.44287,-1.50146 -1.44287,-4.1748 0,-2.68067 1.44287,-4.17481 1.4502,-1.50146 4.01367,-1.50146 1.06934,0 2.02881,0.26367 0.9668,0.26367 1.77979,0.77637 v 1.5747 q -0.82031,-0.6958 -1.74317,-1.04736 -0.92285,-0.35156 -1.94091,-0.35156 -2.00684,0 -3.01758,1.1206 -1.00342,1.12061 -1.00342,3.33985 0,2.21191 1.00342,3.33252 1.01074,1.1206 3.01758,1.1206 0.78369,0 1.39892,-0.13183 0.61524,-0.13916 1.10596,-0.42481 z" />
    <path
       id="path121"
       style="fill:#ff0000"
       d="m 119.79883,-254.36035 h 1.54541 V -252.5 h -1.54541 z m 0,-5.896 h 1.54541 v 1.86035 h -1.54541 z" />
    <path
       id="path123"
       style="fill:#ff0000"
       d="m 129.35693,-263.43506 h 2.20459 l 2.79053,7.44141 2.80518,-7.44141 h 2.20459 V -252.5 h -1.44287 v -9.60205 l -2.81983,7.5 h -1.48682 l -2.81982,-7.5 V -252.5 h -1.43555 z" />
    <path
       id="path125"
       style="fill:#ff0000"
       d="m 145.97559,-256.62354 q -1.6333,0 -2.26319,0.37354 -0.62988,0.37354 -0.62988,1.27441 0,0.71778 0.46875,1.14258 0.47607,0.41748 1.28906,0.41748 1.12061,0 1.79444,-0.79101 0.68115,-0.79834 0.68115,-2.1167 v -0.3003 z m 2.68798,-0.55664 V -252.5 h -1.34765 v -1.24512 q -0.46143,0.74707 -1.1499,1.10596 -0.68848,0.35156 -1.68457,0.35156 -1.25977,0 -2.00684,-0.70312 -0.73975,-0.71045 -0.73975,-1.89698 0,-1.38427 0.92285,-2.0874 0.93018,-0.70312 2.76856,-0.70312 h 1.88965 v -0.13184 q 0,-0.93017 -0.61524,-1.43555 -0.60791,-0.51269 -1.71386,-0.51269 -0.70313,0 -1.36963,0.16846 -0.66651,0.16845 -1.28174,0.50537 v -1.24512 q 0.73975,-0.28564 1.43555,-0.4248 0.6958,-0.14649 1.35498,-0.14649 1.77978,0 2.65869,0.92285 0.8789,0.92285 0.8789,2.79785 z" />
    <path
       id="path127"
       style="fill:#ff0000"
       d="M 158.26563,-257.45117 V -252.5 h -1.34766 v -4.90723 q 0,-1.16455 -0.4541,-1.74316 -0.4541,-0.57861 -1.36231,-0.57861 -1.09131,0 -1.72119,0.6958 -0.62988,0.6958 -0.62988,1.89697 V -252.5 h -1.35498 v -8.20313 h 1.35498 v 1.27442 q 0.4834,-0.73975 1.13525,-1.10596 0.65918,-0.36621 1.51612,-0.36621 1.41357,0 2.13867,0.87891 0.7251,0.87158 0.7251,2.5708 z" />
    <path
       id="path129"
       style="fill:#ff0000"
       d="m 160.8291,-255.7373 v -4.96583 h 1.34766 v 4.91456 q 0,1.16455 0.4541,1.75048 0.4541,0.57862 1.3623,0.57862 1.09131,0 1.7212,-0.6958 0.6372,-0.6958 0.6372,-1.89698 v -4.65088 h 1.34766 V -252.5 h -1.34766 v -1.25977 q -0.49072,0.74707 -1.14258,1.11329 -0.64453,0.35888 -1.50146,0.35888 -1.41357,0 -2.146,-0.8789 -0.73242,-0.87891 -0.73242,-2.5708 z m 3.39111,-5.16358 z" />
    <path
       id="path131"
       style="fill:#ff0000"
       d="m 174.21777,-256.62354 q -1.6333,0 -2.26318,0.37354 -0.62988,0.37354 -0.62988,1.27441 0,0.71778 0.46875,1.14258 0.47607,0.41748 1.28906,0.41748 1.12061,0 1.79443,-0.79101 0.68116,-0.79834 0.68116,-2.1167 v -0.3003 z m 2.68799,-0.55664 V -252.5 h -1.34765 v -1.24512 q -0.46143,0.74707 -1.14991,1.10596 -0.68847,0.35156 -1.68457,0.35156 -1.25976,0 -2.00683,-0.70312 -0.73975,-0.71045 -0.73975,-1.89698 0,-1.38427 0.92285,-2.0874 0.93018,-0.70312 2.76856,-0.70312 h 1.88965 v -0.13184 q 0,-0.93017 -0.61524,-1.43555 -0.60791,-0.51269 -1.71387,-0.51269 -0.70312,0 -1.36962,0.16846 -0.66651,0.16845 -1.28174,0.50537 v -1.24512 q 0.73974,-0.28564 1.43554,-0.4248 0.6958,-0.14649 1.35498,-0.14649 1.77979,0 2.6587,0.92285 0.8789,0.92285 0.8789,2.79785 z" />
    <path
       id="path133"
       style="fill:#ff0000"
       d="m 179.68896,-263.89648 h 1.34766 V -252.5 h -1.34766 z" />
    <path
       id="path135"
       style="fill:#ff0000"
       d="m 186.24414,-263.43506 h 1.24512 l -3.8086,12.32666 h -1.24511 z" />
    <path
       id="path137"
       style="fill:#ff0000"
       d="m 188.91748,-260.70313 h 1.34766 V -252.5 h -1.34766 z m 0,-3.19335 h 1.34766 v 1.70654 h -1.34766 z" />
    <path
       id="path139"
       style="fill:#ff0000"
       d="M 199.89648,-257.45117 V -252.5 h -1.34765 v -4.90723 q 0,-1.16455 -0.4541,-1.74316 -0.4541,-0.57861 -1.36231,-0.57861 -1.09131,0 -1.72119,0.6958 -0.62988,0.6958 -0.62988,1.89697 V -252.5 h -1.35498 v -8.20313 h 1.35498 v 1.27442 q 0.4834,-0.73975 1.13525,-1.10596 0.65918,-0.36621 1.51611,-0.36621 1.41358,0 2.13868,0.87891 0.72509,0.87158 0.72509,2.5708 z" />
    <path
       id="path141"
       style="fill:#ff0000"
       d="m 203.93213,-263.03223 v 2.3291 h 2.77588 v 1.04737 h -2.77588 v 4.45312 q 0,1.00342 0.271,1.28907 0.27832,0.28564 1.1206,0.28564 h 1.38428 V -252.5 h -1.38428 q -1.56006,0 -2.15332,-0.57861 -0.59326,-0.58594 -0.59326,-2.12403 v -4.45312 h -0.98877 v -1.04737 h 0.98877 v -2.3291 z" />
    <path
       id="path143"
       style="fill:#ff0000"
       d="m 213.24121,-259.44336 q -0.22705,-0.13184 -0.49805,-0.19043 -0.26367,-0.0659 -0.58593,-0.0659 -1.14258,0 -1.75782,0.74707 -0.60791,0.73975 -0.60791,2.13135 V -252.5 h -1.35498 v -8.20313 h 1.35498 v 1.27442 q 0.42481,-0.74707 1.10596,-1.10596 0.68115,-0.36621 1.65527,-0.36621 0.13916,0 0.30762,0.022 0.16846,0.0147 0.37354,0.0513 z" />
    <path
       id="path145"
       style="fill:#ff0000"
       d="m 217.52588,-259.7583 q -1.08399,0 -1.71387,0.84961 -0.62988,0.84228 -0.62988,2.31445 0,1.47217 0.62256,2.32178 0.62988,0.84228 1.72119,0.84228 1.07666,0 1.70654,-0.84961 0.62988,-0.8496 0.62988,-2.31445 0,-1.45752 -0.62988,-2.30713 -0.62988,-0.85693 -1.70654,-0.85693 z m 0,-1.14258 q 1.75781,0 2.76123,1.14258 1.00342,1.14258 1.00342,3.16406 0,2.01416 -1.00342,3.16406 -1.00342,1.14258 -2.76123,1.14258 -1.76514,0 -2.76856,-1.14258 -0.99609,-1.1499 -0.99609,-3.16406 0,-2.02148 0.99609,-3.16406 1.00342,-1.14258 2.76856,-1.14258 z" />
    <path
       id="path147"
       style="fill:#ff0000"
       d="m 223.44385,-254.36035 h 1.54541 V -252.5 h -1.54541 z" />
    <path
       id="path149"
       style="fill:#ff0000"
       d="m 228.02881,-263.89648 h 1.34765 V -252.5 h -1.34765 z" />
    <path
       id="path151"
       style="fill:#ff0000"
       d="m 235.91699,-256.62354 q -1.6333,0 -2.26318,0.37354 -0.62988,0.37354 -0.62988,1.27441 0,0.71778 0.46875,1.14258 0.47607,0.41748 1.28906,0.41748 1.1206,0 1.79443,-0.79101 0.68115,-0.79834 0.68115,-2.1167 v -0.3003 z m 2.68799,-0.55664 V -252.5 h -1.34766 v -1.24512 q -0.46142,0.74707 -1.1499,1.10596 -0.68847,0.35156 -1.68457,0.35156 -1.25976,0 -2.00683,-0.70312 -0.73975,-0.71045 -0.73975,-1.89698 0,-1.38427 0.92285,-2.0874 0.93018,-0.70312 2.76856,-0.70312 h 1.88964 v -0.13184 q 0,-0.93017 -0.61523,-1.43555 -0.60791,-0.51269 -1.71387,-0.51269 -0.70312,0 -1.36963,0.16846 -0.6665,0.16845 -1.28173,0.50537 v -1.24512 q 0.73974,-0.28564 1.43554,-0.4248 0.6958,-0.14649 1.35498,-0.14649 1.77979,0 2.65869,0.92285 0.87891,0.92285 0.87891,2.79785 z" />
    <path
       id="path153"
       style="fill:#ff0000"
       d="m 247.27686,-256.59424 q 0,-1.48681 -0.61524,-2.3291 -0.60791,-0.84961 -1.67724,-0.84961 -1.06934,0 -1.68458,0.84961 -0.60791,0.84229 -0.60791,2.3291 0,1.48682 0.60791,2.33643 0.61524,0.84228 1.68458,0.84228 1.06933,0 1.67724,-0.84228 0.61524,-0.84961 0.61524,-2.33643 z m -4.58497,-2.86377 q 0.42481,-0.73242 1.06934,-1.08398 0.65186,-0.35889 1.55273,-0.35889 1.49415,0 2.42432,1.18652 0.9375,1.18653 0.9375,3.12012 0,1.9336 -0.9375,3.12012 -0.93017,1.18652 -2.42432,1.18652 -0.90087,0 -1.55273,-0.35156 -0.64453,-0.35889 -1.06934,-1.09131 V -252.5 h -1.35498 v -11.39648 h 1.35498 z" />
    <path
       id="path155"
       style="fill:#ff0000"
       d="m 257.92627,-256.93848 v 0.65918 h -6.19629 q 0.0879,1.3916 0.83496,2.12403 0.7544,0.72509 2.09473,0.72509 0.77637,0 1.50146,-0.19043 0.73242,-0.19043 1.4502,-0.57128 v 1.27441 q -0.7251,0.30762 -1.48682,0.46875 -0.76172,0.16113 -1.54541,0.16113 -1.96289,0 -3.11279,-1.14258 -1.14258,-1.14257 -1.14258,-3.09082 0,-2.01416 1.08398,-3.19336 1.09131,-1.18652 2.93702,-1.18652 1.65527,0 2.61474,1.06934 0.9668,1.06201 0.9668,2.89306 z m -1.34766,-0.3955 q -0.0147,-1.10596 -0.62256,-1.76514 -0.60058,-0.65918 -1.59667,-0.65918 -1.12793,0 -1.80909,0.63721 -0.67383,0.6372 -0.77636,1.79443 z" />
    <path
       id="path157"
       style="fill:#ff0000"
       d="m 260.13818,-263.89648 h 1.34766 V -252.5 h -1.34766 z" />
    <path
       id="path159"
       style="fill:#ff0000"
       d="m 263.61719,-257.20947 h 3.94775 v 1.20117 h -3.94775 z" />
    <path
       id="path161"
       style="fill:#ff0000"
       d="m 274.94775,-260.46143 v 1.27442 q -0.57129,-0.29297 -1.18652,-0.43945 -0.61523,-0.14649 -1.27441,-0.14649 -1.00342,0 -1.50879,0.30762 -0.49805,0.30762 -0.49805,0.92285 0,0.46875 0.35889,0.73975 0.35888,0.26367 1.44287,0.50537 l 0.46142,0.10254 q 1.43555,0.30761 2.03614,0.87158 0.60791,0.55664 0.60791,1.56006 0,1.14257 -0.90821,1.80908 -0.90087,0.6665 -2.48291,0.6665 -0.65918,0 -1.37695,-0.13183 -0.71045,-0.12452 -1.50146,-0.38086 v -1.3916 q 0.74707,0.38818 1.47216,0.58593 0.7251,0.19043 1.43555,0.19043 0.95215,0 1.46484,-0.32226 0.5127,-0.32959 0.5127,-0.92285 0,-0.54932 -0.37354,-0.84229 -0.36621,-0.29297 -1.61865,-0.56396 l -0.46875,-0.10987 q -1.25244,-0.26367 -1.80908,-0.80566 -0.55664,-0.54932 -0.55664,-1.50147 0,-1.15722 0.82031,-1.78711 0.82031,-0.62988 2.3291,-0.62988 0.74707,0 1.40625,0.10986 0.65918,0.10987 1.21582,0.32959 z" />
    <path
       id="path163"
       style="fill:#ff0000"
       d="m 284.55713,-256.93848 v 0.65918 h -6.19629 q 0.0879,1.3916 0.83496,2.12403 0.7544,0.72509 2.09473,0.72509 0.77636,0 1.50146,-0.19043 0.73242,-0.19043 1.4502,-0.57128 v 1.27441 q -0.7251,0.30762 -1.48682,0.46875 -0.76172,0.16113 -1.54541,0.16113 -1.96289,0 -3.11279,-1.14258 -1.14258,-1.14257 -1.14258,-3.09082 0,-2.01416 1.08398,-3.19336 1.09131,-1.18652 2.93702,-1.18652 1.65527,0 2.61474,1.06934 0.9668,1.06201 0.9668,2.89306 z m -1.34766,-0.3955 q -0.0147,-1.10596 -0.62256,-1.76514 -0.60058,-0.65918 -1.59668,-0.65918 -1.12793,0 -1.80908,0.63721 -0.67383,0.6372 -0.77636,1.79443 z" />
    <path
       id="path165"
       style="fill:#ff0000"
       d="m 291.52246,-259.44336 q -0.22705,-0.13184 -0.49805,-0.19043 -0.26367,-0.0659 -0.58593,-0.0659 -1.14258,0 -1.75782,0.74707 -0.60791,0.73975 -0.60791,2.13135 V -252.5 h -1.35498 v -8.20313 h 1.35498 v 1.27442 q 0.42481,-0.74707 1.10596,-1.10596 0.68115,-0.36621 1.65527,-0.36621 0.13916,0 0.30762,0.022 0.16846,0.0147 0.37354,0.0513 z" />
    <path
       id="path167"
       style="fill:#ff0000"
       d="m 292.95068,-260.70313 h 1.34766 V -252.5 h -1.34766 z m 0,-3.19335 h 1.34766 v 1.70654 h -1.34766 z" />
    <path
       id="path169"
       style="fill:#ff0000"
       d="m 300.83887,-256.62354 q -1.6333,0 -2.26319,0.37354 -0.62988,0.37354 -0.62988,1.27441 0,0.71778 0.46875,1.14258 0.47608,0.41748 1.28906,0.41748 1.12061,0 1.79444,-0.79101 0.68115,-0.79834 0.68115,-2.1167 v -0.3003 z m 2.68799,-0.55664 V -252.5 h -1.34766 v -1.24512 q -0.46143,0.74707 -1.1499,1.10596 -0.68848,0.35156 -1.68457,0.35156 -1.25977,0 -2.00684,-0.70312 -0.73975,-0.71045 -0.73975,-1.89698 0,-1.38427 0.92286,-2.0874 0.93017,-0.70312 2.76855,-0.70312 h 1.88965 v -0.13184 q 0,-0.93017 -0.61524,-1.43555 -0.60791,-0.51269 -1.71386,-0.51269 -0.70313,0 -1.36963,0.16846 -0.66651,0.16845 -1.28174,0.50537 v -1.24512 q 0.73975,-0.28564 1.43555,-0.4248 0.6958,-0.14649 1.35498,-0.14649 1.77978,0 2.65869,0.92285 0.87891,0.92285 0.87891,2.79785 z" />
    <path
       id="path171"
       style="fill:#ff0000"
       d="m 306.31006,-263.89648 h 1.34765 V -252.5 h -1.34765 z" />
    <path
       id="path173"
       style="fill:#ff0000"
       d="M 317.28906,-257.45117 V -252.5 h -1.34765 v -4.90723 q 0,-1.16455 -0.45411,-1.74316 -0.4541,-0.57861 -1.3623,-0.57861 -1.09131,0 -1.72119,0.6958 -0.62988,0.6958 -0.62988,1.89697 V -252.5 h -1.35498 v -8.20313 h 1.35498 v 1.27442 q 0.48339,-0.73975 1.13525,-1.10596 0.65918,-0.36621 1.51611,-0.36621 1.41358,0 2.13867,0.87891 0.7251,0.87158 0.7251,2.5708 z" />
    <path
       id="path175"
       style="fill:#ff0000"
       d="m 319.85254,-255.7373 v -4.96583 h 1.34766 v 4.91456 q 0,1.16455 0.4541,1.75048 0.4541,0.57862 1.3623,0.57862 1.09131,0 1.72119,-0.6958 0.63721,-0.6958 0.63721,-1.89698 v -4.65088 h 1.34766 V -252.5 H 325.375 v -1.25977 q -0.49072,0.74707 -1.14258,1.11329 -0.64453,0.35888 -1.50146,0.35888 -1.41358,0 -2.146,-0.8789 -0.73242,-0.87891 -0.73242,-2.5708 z m 3.39111,-5.16358 z" />
    <path
       id="path177"
       style="fill:#ff0000"
       d="m 335.8999,-259.12842 q 0.50537,-0.9082 1.2085,-1.34033 0.70312,-0.43213 1.65527,-0.43213 1.28174,0 1.97754,0.90088 0.6958,0.89355 0.6958,2.54883 V -252.5 h -1.35498 v -4.90723 q 0,-1.1792 -0.41748,-1.75048 -0.41748,-0.57129 -1.27441,-0.57129 -1.04737,0 -1.65528,0.6958 -0.60791,0.6958 -0.60791,1.89697 V -252.5 h -1.35498 v -4.90723 q 0,-1.18652 -0.41748,-1.75048 -0.41748,-0.57129 -1.28906,-0.57129 -1.03272,0 -1.64063,0.70312 -0.60791,0.6958 -0.60791,1.88965 V -252.5 h -1.35498 v -8.20313 h 1.35498 v 1.27442 q 0.46143,-0.7544 1.10596,-1.11328 0.64453,-0.35889 1.53076,-0.35889 0.89356,0 1.51612,0.4541 0.62988,0.4541 0.93017,1.31836 z" />
    <path
       id="path179"
       style="fill:#ff0000"
       d="m 350.021,-256.59424 q 0,-1.48681 -0.61524,-2.3291 -0.60791,-0.84961 -1.67724,-0.84961 -1.06934,0 -1.68457,0.84961 -0.60791,0.84229 -0.60791,2.3291 0,1.48682 0.60791,2.33643 0.61523,0.84228 1.68457,0.84228 1.06933,0 1.67724,-0.84228 0.61524,-0.84961 0.61524,-2.33643 z m -4.58496,-2.86377 q 0.4248,-0.73242 1.06933,-1.08398 0.65186,-0.35889 1.55274,-0.35889 1.49414,0 2.42431,1.18652 0.9375,1.18653 0.9375,3.12012 0,1.9336 -0.9375,3.12012 -0.93017,1.18652 -2.42431,1.18652 -0.90088,0 -1.55274,-0.35156 -0.64453,-0.35889 -1.06933,-1.09131 V -252.5 h -1.35499 v -11.39648 h 1.35499 z" />
    <path
       id="path181"
       style="fill:#ff0000"
       d="m 360.67041,-256.93848 v 0.65918 h -6.19629 q 0.0879,1.3916 0.83496,2.12403 0.7544,0.72509 2.09473,0.72509 0.77637,0 1.50146,-0.19043 0.73243,-0.19043 1.4502,-0.57128 v 1.27441 q -0.7251,0.30762 -1.48682,0.46875 -0.76172,0.16113 -1.54541,0.16113 -1.96289,0 -3.11279,-1.14258 -1.14258,-1.14257 -1.14258,-3.09082 0,-2.01416 1.08399,-3.19336 1.0913,-1.18652 2.93701,-1.18652 1.65527,0 2.61474,1.06934 0.9668,1.06201 0.9668,2.89306 z m -1.34766,-0.3955 q -0.0146,-1.10596 -0.62255,-1.76514 -0.60059,-0.65918 -1.59668,-0.65918 -1.12793,0 -1.80909,0.63721 -0.67382,0.6372 -0.77636,1.79443 z" />
    <path
       id="path183"
       style="fill:#ff0000"
       d="m 367.63574,-259.44336 q -0.22705,-0.13184 -0.49804,-0.19043 -0.26368,-0.0659 -0.58594,-0.0659 -1.14258,0 -1.75781,0.74707 -0.60791,0.73975 -0.60791,2.13135 V -252.5 h -1.35499 v -8.20313 h 1.35499 v 1.27442 q 0.4248,-0.74707 1.10595,-1.10596 0.68115,-0.36621 1.65528,-0.36621 0.13916,0 0.30761,0.022 0.16846,0.0147 0.37354,0.0513 z" />
    <path
       id="path185"
       style="fill:#ff0000"
       d="m 372.21338,-263.89648 v 13.37402 h -3.10547 v -1.04736 h 1.75049 v -11.2793 h -1.75049 v -1.04736 z" />
  </g>
</svg>
