<?xml version="1.0" encoding="UTF-8" standalone="no"?>
<svg
   xmlns:dc="http://purl.org/dc/elements/1.1/"
   xmlns:cc="http://creativecommons.org/ns#"
   xmlns:rdf="http://www.w3.org/1999/02/22-rdf-syntax-ns#"
   xmlns:svg="http://www.w3.org/2000/svg"
   xmlns="http://www.w3.org/2000/svg"
   id="svg173"
   stroke-miterlimit="10"
   stroke-linecap="square"
   stroke="none"
   fill="none"
   viewBox="0.0 0.0 1234.0 802.0"
   version="1.1">
  <metadata
     id="metadata179">
    <rdf:RDF>
      <cc:Work
         rdf:about="">
        <dc:format>image/svg+xml</dc:format>
        <dc:type
           rdf:resource="http://purl.org/dc/dcmitype/StillImage" />
      </cc:Work>
    </rdf:RDF>
  </metadata>
  <defs
     id="defs177" />
  <clipPath
     id="p.0">
    <path
       id="path2"
       clip-rule="nonzero"
       d="m0 0l1234.0 0l0 802.0l-1234.0 0l0 -802.0z" />
  </clipPath>
  <g
     id="g167"
     clip-path="url(#p.0)">
    <path
       style="fill:#000000;fill-opacity:0;fill-rule:evenodd"
       id="path5"
       d="M 0,0 H 1234 V 802 H 0 Z" />
    <path
       style="fill:#ffffff;fill-rule:evenodd"
       id="path7"
       d="M 0,-0.00131234 H 1232 V 800.03025 H 0 Z" />
    <path
       style="fill-rule:evenodd;stroke:#000000;stroke-width:2;stroke-linecap:butt;stroke-linejoin:round"
       id="path9"
       d="M 0,-0.00131234 H 1232 V 800.03025 H 0 Z" />
    <path
       style="fill:#ffffff;fill-rule:evenodd"
       id="path11"
       d="m 54.20866,40.560368 h 348 V 388.52887 h -348 z" />
    <path
       style="fill:#000000;fill-opacity:0;fill-rule:evenodd"
       id="path13"
       d="m 65.2874,46.33619 h 336.9134 v 337.6693 H 65.2874 Z" />
    <path
       style="fill-rule:evenodd;stroke:#000000;stroke-width:2;stroke-linecap:butt;stroke-linejoin:round"
       id="path15"
       d="m 65.2874,46.33619 h 336.9134 v 337.6693 H 65.2874 Z" />
    <path
       style="fill:#ffffff;fill-rule:evenodd"
       id="path17"
       d="m 81.65092,139.12111 h 304.189 v 208.03148 h -304.189 z" />
    <path
       style="fill-rule:evenodd;stroke:#000000;stroke-width:2;stroke-linecap:butt;stroke-linejoin:round"
       id="path19"
       d="m 81.65092,139.12111 h 304.189 v 208.03148 h -304.189 z" />
    <path
       style="fill:#000000;fill-opacity:0;fill-rule:evenodd"
       id="path21"
       d="m 89.41207,150.47804 h 288.78738 v 181.6378 H 89.41207 Z" />
    <path
       style="fill:#000000;fill-rule:nonzero"
       id="path23"
       d="m 114.55576,263.17694 11.8125,-1 q 1.3125,8.625 6.09376,12.96875 4.78125,4.34375 11.53125,4.34375 8.125,0 13.75,-6.125 5.625,-6.125 5.625,-16.25 0,-9.62501 -5.40625,-15.18751 -5.40625,-5.5625 -14.15625,-5.5625 -5.4375,0 -9.8125,2.46875 -4.375,2.46875 -6.87501,6.40625 l -10.5625,-1.375 8.875,-47.0625 h 45.56251 v 10.75 h -36.5625 l -4.9375,24.625 q 8.25,-5.75 17.3125,-5.75 12,0 20.25,8.3125 8.25,8.3125 8.25,21.37501 0,12.4375 -7.25,21.5 -8.8125,11.125 -24.0625,11.125 -12.5,0 -20.40626,-7 -7.90625,-7 -9.03125,-18.5625 z m 77.43751,-29.56251 v -12.8125 h 12.8125 v 12.8125 z m 0,53.56251 v -12.8125 h 12.8125 v 12.8125 z m 29.3125,-45.18751 q 0,-16.25 3.34375,-26.15625 3.34375,-9.90625 9.9375,-15.28125 6.59375,-5.375 16.59375,-5.375 7.37498,0 12.93748,2.96875 5.5625,2.96875 9.1875,8.5625 3.625,5.59375 5.6875,13.625 2.0625,8.03125 2.0625,21.65625 0,16.12501 -3.3125,26.03126 -3.3125,9.90625 -9.90625,15.3125 -6.59375,5.40625 -16.65623,5.40625 -13.25,0 -20.8125,-9.5 -9.0625,-11.4375 -9.0625,-37.25001 z m 11.5625,0 q 0,22.56251 5.28125,30.03126 5.28125,7.46875 13.03125,7.46875 7.74998,0 13.03123,-7.5 5.28125,-7.5 5.28125,-30.00001 0,-22.625 -5.28125,-30.0625 -5.28125,-7.4375 -13.15623,-7.4375 -7.75,0 -12.375,6.5625 -5.8125,8.375 -5.8125,30.9375 z m 59.62498,0 q 0,-16.25 3.34375,-26.15625 3.34375,-9.90625 9.9375,-15.28125 6.59375,-5.375 16.59375,-5.375 7.375,0 12.9375,2.96875 5.5625,2.96875 9.1875,8.5625 3.625,5.59375 5.6875,13.625 2.0625,8.03125 2.0625,21.65625 0,16.12501 -3.3125,26.03126 -3.3125,9.90625 -9.90625,15.3125 -6.59375,5.40625 -16.65625,5.40625 -13.25,0 -20.8125,-9.5 -9.0625,-11.4375 -9.0625,-37.25001 z m 11.5625,0 q 0,22.56251 5.28125,30.03126 5.28125,7.46875 13.03125,7.46875 7.75,0 13.03125,-7.5 5.28125,-7.5 5.28125,-30.00001 0,-22.625 -5.28125,-30.0625 -5.28125,-7.4375 -13.15625,-7.4375 -7.75,0 -12.375,6.5625 -5.8125,8.375 -5.8125,30.9375 z" />
    <path
       style="fill:#000000;fill-opacity:0;fill-rule:evenodd"
       id="path25"
       d="M 457.3281,422.8664 H 794.24146 V 760.5357 H 457.3281 Z" />
    <path
       style="fill-rule:evenodd;stroke:#000000;stroke-width:2;stroke-linecap:butt;stroke-linejoin:round"
       id="path27"
       d="M 457.3281,422.8664 H 794.24146 V 760.5357 H 457.3281 Z" />
    <path
       style="fill:#000000;fill-opacity:0;fill-rule:evenodd"
       id="path29"
       d="M 843.65356,45.708893 H 1180.5669 V 383.37819 H 843.65356 Z" />
    <path
       style="fill-rule:evenodd;stroke:#000000;stroke-width:2;stroke-linecap:butt;stroke-linejoin:round"
       id="path31"
       d="M 843.65356,45.708893 H 1180.5669 V 383.37819 H 843.65356 Z" />
    <path
       style="fill:#000000;fill-opacity:0;fill-rule:evenodd"
       id="path33"
       d="m 183.8924,65.91076 h 106.64566 v 63.40157 H 183.8924 Z" />
    <path
       style="fill-rule:evenodd;stroke:#000000;stroke-width:2;stroke-linecap:butt;stroke-linejoin:round"
       id="path35"
       d="m 183.8924,65.91076 h 106.64566 v 63.40157 H 183.8924 Z" />
    <path
       style="fill:#000000;fill-opacity:0;fill-rule:evenodd"
       id="path37"
       d="m 308.15222,97.61155 v 0 c 0,-17.507866 15.0672,-31.70079 33.65356,-31.70079 v 0 c 8.92548,0 17.48539,3.339897 23.79663,9.28495 6.31128,5.945045 9.85691,14.00827 9.85691,22.41584 v 0 c 0,17.50786 -15.0672,31.70078 -33.65354,31.70078 v 0 c -18.58636,0 -33.65356,-14.19292 -33.65356,-31.70078 z" />
    <path
       style="fill-rule:evenodd;stroke:#000000;stroke-width:2;stroke-linecap:butt;stroke-linejoin:round"
       id="path39"
       d="m 308.15222,97.61155 v 0 c 0,-17.507866 15.0672,-31.70079 33.65356,-31.70079 v 0 c 8.92548,0 17.48539,3.339897 23.79663,9.28495 6.31128,5.945045 9.85691,14.00827 9.85691,22.41584 v 0 c 0,17.50786 -15.0672,31.70078 -33.65354,31.70078 v 0 c -18.58636,0 -33.65356,-14.19292 -33.65356,-31.70078 z" />
    <path
       style="fill:#000000;fill-opacity:0;fill-rule:evenodd"
       id="path41"
       d="m 183.8924,65.91076 h 929.5433 V 174.3517 H 183.8924 Z" />
    <path
       style="fill:#ffffff;fill-rule:evenodd"
       id="path43"
       d="M 446.66858,40.343136 H 792.85895 V 390.39948 H 446.66858 Z" />
    <path
       style="fill:#000000;fill-opacity:0;fill-rule:evenodd"
       id="path45"
       d="m 457.68973,46.15361 h 335.1614 v 339.6953 h -335.1614 z" />
    <path
       style="fill-rule:evenodd;stroke:#000000;stroke-width:2;stroke-linecap:butt;stroke-linejoin:round"
       id="path47"
       d="m 457.68973,46.15361 h 335.1614 v 339.6953 h -335.1614 z" />
    <path
       style="fill:#ffffff;fill-rule:evenodd"
       id="path49"
       d="M 469.5857,111.94842 H 693.7995 V 348.69903 H 469.5857 Z" />
    <path
       style="fill-rule:evenodd;stroke:#000000;stroke-width:2;stroke-linecap:butt;stroke-linejoin:round"
       id="path51"
       d="M 469.5857,111.94842 H 693.7995 V 348.69903 H 469.5857 Z" />
    <path
       style="fill:#000000;fill-rule:evenodd"
       id="path53"
       d="M 724.6719,150.9634 H 770.699 V 348.70975 H 724.6719 Z" />
    <path
       style="fill-rule:evenodd;stroke:#000000;stroke-width:2;stroke-linecap:butt;stroke-linejoin:round"
       id="path55"
       d="M 724.6719,150.9634 H 770.699 V 348.70975 H 724.6719 Z" />
    <path
       style="fill:#ffffff;fill-rule:evenodd"
       id="path57"
       d="m 733.9016,81.14039 v 0 c 0,-8.42585 6.92981,-15.256348 15.47815,-15.256348 v 0 c 4.10504,0 8.04199,1.607361 10.9447,4.468475 2.90271,2.861122 4.53345,6.741638 4.53345,10.787872 v 0 c 0,8.425842 -6.92981,15.256348 -15.47815,15.256348 v 0 c -8.54834,0 -15.47815,-6.830505 -15.47815,-15.256347 z" />
    <path
       style="fill-rule:evenodd;stroke:#000000;stroke-width:2;stroke-linecap:butt;stroke-linejoin:round"
       id="path59"
       d="m 733.9016,81.14039 v 0 c 0,-8.42585 6.92981,-15.256348 15.47815,-15.256348 v 0 c 4.10504,0 8.04199,1.607361 10.9447,4.468475 2.90271,2.861122 4.53345,6.741638 4.53345,10.787872 v 0 c 0,8.425842 -6.92981,15.256348 -15.47815,15.256348 v 0 c -8.54834,0 -15.47815,-6.830505 -15.47815,-15.256347 z" />
    <path
       style="fill:#ffffff;fill-rule:evenodd"
       id="path61"
       d="m 484.02972,230.32394 v 0 c 0,-55.27986 43.7251,-100.09305 97.66272,-100.09305 v 0 c 25.90173,0 50.74268,10.54549 69.05798,29.31657 18.31531,18.77109 28.60474,44.23015 28.60474,70.77648 v 0 c 0,55.27987 -43.7251,100.09305 -97.66272,100.09305 v 0 c -53.93763,0 -97.66272,-44.81317 -97.66272,-100.09305 z" />
    <path
       style="fill-rule:evenodd;stroke:#000000;stroke-width:2;stroke-linecap:butt;stroke-linejoin:round"
       id="path63"
       d="m 484.02972,230.32394 v 0 c 0,-55.27986 43.7251,-100.09305 97.66272,-100.09305 v 0 c 25.90173,0 50.74268,10.54549 69.05798,29.31657 18.31531,18.77109 28.60474,44.23015 28.60474,70.77648 v 0 c 0,55.27987 -43.7251,100.09305 -97.66272,100.09305 v 0 c -53.93763,0 -97.66272,-44.81317 -97.66272,-100.09305 z" />
    <path
       style="fill:#000000;fill-opacity:0;fill-rule:evenodd"
       id="path65"
       d="m 497.82376,194.7483 h 201.46658 v 71.10121 H 497.82376 Z" />
    <path
       style="fill:#000000;fill-opacity:0;fill-rule:evenodd"
       id="path67"
       d="m 493.3942,136.91644 h 176.99606 v 186.815 H 493.3942 Z" />
    <path
       style="fill-rule:evenodd;stroke:#000000;stroke-width:1;stroke-linecap:butt;stroke-linejoin:round"
       id="path69"
       d="m 493.3942,136.91644 h 176.99606 v 186.815 H 493.3942 Z" />
    <path
       style="fill:#000000;fill-opacity:0;fill-rule:evenodd"
       id="path71"
       d="m 470.25397,113.67552 23.34256,23.19345" />
    <path
       style="fill-rule:evenodd;stroke:#000000;stroke-width:1;stroke-linecap:butt;stroke-linejoin:round"
       id="path73"
       d="m 470.25397,113.67552 23.34256,23.19345" />
    <path
       style="fill:#000000;fill-opacity:0;fill-rule:evenodd"
       id="path75"
       d="m 670.5952,323.72885 22.96655,24.42917" />
    <path
       style="fill-rule:evenodd;stroke:#000000;stroke-width:1;stroke-linecap:butt;stroke-linejoin:round"
       id="path77"
       d="m 670.5952,323.72885 22.96655,24.42917" />
    <path
       style="fill:#000000;fill-opacity:0;fill-rule:evenodd"
       id="path79"
       d="m 693.53564,113.67552 -22.52789,23.19345" />
    <path
       style="fill-rule:evenodd;stroke:#000000;stroke-width:1;stroke-linecap:butt;stroke-linejoin:round"
       id="path81"
       d="m 693.53564,113.67552 -22.52789,23.19345" />
    <path
       style="fill:#000000;fill-opacity:0;fill-rule:evenodd"
       id="path83"
       d="m 493.18918,323.73413 -22.52789,23.19345" />
    <path
       style="fill-rule:evenodd;stroke:#000000;stroke-width:1;stroke-linecap:butt;stroke-linejoin:round"
       id="path85"
       d="m 493.18918,323.73413 -22.52789,23.19345" />
    <path
       style="fill:#000000;fill-opacity:0;fill-rule:evenodd"
       id="path87"
       d="m 507.53677,99.58888 h 25.81778 v 12.35716 h -25.81778 z" />
    <path
       style="fill-rule:evenodd;stroke:#000000;stroke-width:2;stroke-linecap:butt;stroke-linejoin:round"
       id="path89"
       d="m 507.53677,99.58888 h 25.81778 v 12.35716 h -25.81778 z" />
    <path
       style="fill:#000000;fill-opacity:0;fill-rule:evenodd"
       id="path91"
       d="m 632.0356,99.58888 h 25.81781 v 12.35716 H 632.0356 Z" />
    <path
       style="fill-rule:evenodd;stroke:#000000;stroke-width:2;stroke-linecap:butt;stroke-linejoin:round"
       id="path93"
       d="m 632.0356,99.58888 h 25.81781 v 12.35716 H 632.0356 Z" />
    <path
       style="fill:#000000;fill-opacity:0;fill-rule:evenodd"
       id="path95"
       d="m 536.34155,104.14625 h 91.77228 v 7.79452 h -91.77228 z" />
    <path
       style="fill-rule:evenodd;stroke:#000000;stroke-width:2;stroke-linecap:butt;stroke-linejoin:round"
       id="path97"
       d="m 536.34155,104.14625 h 91.77228 v 7.79452 h -91.77228 z" />
    <path
       style="fill:#ffffff;fill-rule:evenodd"
       id="path99"
       d="M 54.209972,415.29398 H 402.20997 V 763.26246 H 54.209972 Z" />
    <path
       style="fill:#000000;fill-opacity:0;fill-rule:evenodd"
       id="path101"
       d="m 65.28871,421.0698 h 336.9134 V 758.73908 H 65.28871 Z" />
    <path
       style="fill-rule:evenodd;stroke:#000000;stroke-width:2;stroke-linecap:butt;stroke-linejoin:round"
       id="path103"
       d="m 65.28871,421.0698 h 336.9134 V 758.73908 H 65.28871 Z" />
    <path
       style="fill:#000000;fill-opacity:0;fill-rule:evenodd"
       id="path105"
       d="m 128.61154,590.35956 52.56694,-52.5669 52.56692,52.5669 -52.56692,52.56696 z" />
    <path
       style="fill-rule:evenodd;stroke:#000000;stroke-width:2;stroke-linecap:butt;stroke-linejoin:round"
       id="path107"
       d="m 128.61154,590.35956 52.56694,-52.5669 52.56692,52.5669 -52.56692,52.56696 z" />
    <path
       style="fill:#000000;fill-opacity:0;fill-rule:evenodd"
       id="path109"
       d="m 181.47244,642.4724 52.56693,-52.5669 52.56692,52.5669 -52.56692,52.56696 z" />
    <path
       style="fill-rule:evenodd;stroke:#000000;stroke-width:2;stroke-linecap:butt;stroke-linejoin:round"
       id="path111"
       d="m 181.47244,642.4724 52.56693,-52.5669 52.56692,52.5669 -52.56692,52.56696 z" />
    <path
       style="fill:#000000;fill-opacity:0;fill-rule:evenodd"
       id="path113"
       d="m 233.7454,590.35956 52.56694,-52.5669 52.56693,52.5669 -52.56693,52.56696 z" />
    <path
       style="fill-rule:evenodd;stroke:#000000;stroke-width:2;stroke-linecap:butt;stroke-linejoin:round"
       id="path115"
       d="m 233.7454,590.35956 52.56694,-52.5669 52.56693,52.5669 -52.56693,52.56696 z" />
    <path
       style="fill:#000000;fill-opacity:0;fill-rule:evenodd"
       id="path117"
       d="m 181.47244,537.33856 52.56693,-52.56689 52.56692,52.56689 -52.56692,52.56696 z" />
    <path
       style="fill-rule:evenodd;stroke:#000000;stroke-width:2;stroke-linecap:butt;stroke-linejoin:round"
       id="path119"
       d="m 181.47244,537.33856 52.56693,-52.56689 52.56692,52.56689 -52.56692,52.56696 z" />
    <path
       style="fill:#ffffff;fill-rule:evenodd"
       id="path121"
       d="m 342.9444,455.8479 v 0 c 0,-8.37561 6.96603,-15.16538 15.55908,-15.16538 v 0 c 4.1265,0 8.08402,1.59778 11.00189,4.44184 2.91791,2.84405 4.55716,6.70141 4.55716,10.72354 v 0 c 0,8.37558 -6.96603,15.16534 -15.55905,15.16534 v 0 c -8.59305,0 -15.55908,-6.78976 -15.55908,-15.16534 z" />
    <path
       style="fill-rule:evenodd;stroke:#000000;stroke-width:2;stroke-linecap:butt;stroke-linejoin:round"
       id="path123"
       d="m 342.9444,455.8479 v 0 c 0,-8.37561 6.96603,-15.16538 15.55908,-15.16538 v 0 c 4.1265,0 8.08402,1.59778 11.00189,4.44184 2.91791,2.84405 4.55716,6.70141 4.55716,10.72354 v 0 c 0,8.37558 -6.96603,15.16534 -15.55905,15.16534 v 0 c -8.59305,0 -15.55908,-6.78976 -15.55908,-15.16534 z" />
    <path
       style="fill:#ffffff;fill-rule:evenodd"
       id="path125"
       d="m 829.4068,419.04724 h 348.0001 v 347.9685 H 829.4068 Z" />
    <path
       style="fill:#000000;fill-opacity:0;fill-rule:evenodd"
       id="path127"
       d="m 840.48553,424.82306 h 336.91337 v 337.6693 H 840.48553 Z" />
    <path
       style="fill-rule:evenodd;stroke:#000000;stroke-width:2;stroke-linecap:butt;stroke-linejoin:round"
       id="path129"
       d="m 840.48553,424.82306 h 336.91337 v 337.6693 H 840.48553 Z" />
    <path
       style="fill:#ffffff;fill-rule:evenodd"
       id="path131"
       d="m 1118.1412,459.60117 v 0 c 0,-8.37558 6.9661,-15.16534 15.5591,-15.16534 v 0 c 4.1264,0 8.084,1.59777 11.0019,4.44183 2.9179,2.84405 4.5572,6.70142 4.5572,10.72351 v 0 c 0,8.37561 -6.9661,15.16534 -15.5591,15.16534 v 0 c -8.593,0 -15.5591,-6.78973 -15.5591,-15.16534 z" />
    <path
       style="fill-rule:evenodd;stroke:#000000;stroke-width:2;stroke-linecap:butt;stroke-linejoin:round"
       id="path133"
       d="m 1118.1412,459.60117 v 0 c 0,-8.37558 6.9661,-15.16534 15.5591,-15.16534 v 0 c 4.1264,0 8.084,1.59777 11.0019,4.44183 2.9179,2.84405 4.5572,6.70142 4.5572,10.72351 v 0 c 0,8.37561 -6.9661,15.16534 -15.5591,15.16534 v 0 c -8.593,0 -15.5591,-6.78973 -15.5591,-15.16534 z" />
    <path
       style="fill:#000000;fill-opacity:0;fill-rule:evenodd"
       id="path135"
       d="m 882.43304,480.79266 h 29.1654 v 225.7323 h -29.1654 z" />
    <path
       style="fill-rule:evenodd;stroke:#000000;stroke-width:2;stroke-linecap:butt;stroke-linejoin:round"
       id="path137"
       d="m 882.43304,480.79266 h 29.1654 v 225.7323 h -29.1654 z" />
    <path
       style="fill:#000000;fill-opacity:0;fill-rule:evenodd"
       id="path139"
       d="m 1092.9763,525.6352 h 29.1654 v 178.20471 h -29.1654 z" />
    <path
       style="fill-rule:evenodd;stroke:#000000;stroke-width:2;stroke-linecap:butt;stroke-linejoin:round"
       id="path141"
       d="m 1092.9763,525.6352 h 29.1654 v 178.20471 h -29.1654 z" />
    <path
       style="fill:#000000;fill-opacity:0;fill-rule:evenodd"
       id="path143"
       d="m 897.0131,513.10205 c 10.84711,-2.32684 19.52801,12.0625 30.56696,13.16534 24.49322,2.44709 49.25921,-2.85345 73.83194,-1.40942 11.6878,0.68683 20.1348,12.745 31.5092,15.51965 25.0114,6.10132 50.6969,9.06037 76.1838,12.69556" />
    <path
       style="fill-rule:evenodd;stroke:#000000;stroke-width:2;stroke-linecap:butt;stroke-linejoin:round"
       id="path145"
       d="m 897.0131,513.10205 c 10.84711,-2.32684 19.52801,12.0625 30.56696,13.16534 24.49322,2.44709 49.25921,-2.85345 73.83194,-1.40942 11.6878,0.68683 20.1348,12.745 31.5092,15.51965 25.0114,6.10132 50.6969,9.06037 76.1838,12.69556" />
    <path
       style="fill:#000000;fill-opacity:0;fill-rule:evenodd"
       id="path147"
       d="m 900.7743,549.31165 c 24.46918,-11.12347 52.59796,13.95001 79.47504,13.63782 23.98266,-0.27857 49.30706,-7.90027 71.95286,0 18.9275,6.60315 43.6676,30.63415 57.8425,16.45929" />
    <path
       style="fill-rule:evenodd;stroke:#000000;stroke-width:2;stroke-linecap:butt;stroke-linejoin:round"
       id="path149"
       d="m 900.7743,549.31165 c 24.46918,-11.12347 52.59796,13.95001 79.47504,13.63782 23.98266,-0.27857 49.30706,-7.90027 71.95286,0 18.9275,6.60315 43.6676,30.63415 57.8425,16.45929" />
    <path
       style="fill:#000000;fill-opacity:0;fill-rule:evenodd"
       id="path151"
       d="m 897.4829,582.23114 c 13.5943,-1.78241 28.33264,-9.68384 40.91339,-4.23358 8.54523,3.70196 7.23016,21.3305 16.45935,22.57483 30.32599,4.08856 61.21616,-1.60498 91.70346,-4.23358 21.8703,-1.88568 43.4159,7.99475 65.3674,7.99475" />
    <path
       style="fill-rule:evenodd;stroke:#000000;stroke-width:2;stroke-linecap:butt;stroke-linejoin:round"
       id="path153"
       d="m 897.4829,582.23114 c 13.5943,-1.78241 28.33264,-9.68384 40.91339,-4.23358 8.54523,3.70196 7.23016,21.3305 16.45935,22.57483 30.32599,4.08856 61.21616,-1.60498 91.70346,-4.23358 21.8703,-1.88568 43.4159,7.99475 65.3674,7.99475" />
    <path
       style="fill:#000000;fill-opacity:0;fill-rule:evenodd"
       id="path155"
       d="m 896.5407,609.50684 c 14.41009,-0.97375 29.28052,-5.96173 43.26508,-2.35168 11.1842,2.88714 21.44329,9.5205 32.92126,10.81628 22.41309,2.53021 45.28646,2.3772 67.24666,7.5249 11.8427,2.77606 21.6269,5.82349 29.1575,6.11286 13.7923,0.52996 29.0403,-7.58667 41.3832,-1.40943" />
    <path
       style="fill-rule:evenodd;stroke:#000000;stroke-width:2;stroke-linecap:butt;stroke-linejoin:round"
       id="path157"
       d="m 896.5407,609.50684 c 14.41009,-0.97375 29.28052,-5.96173 43.26508,-2.35168 11.1842,2.88714 21.44329,9.5205 32.92126,10.81628 22.41309,2.53021 45.28646,2.3772 67.24666,7.5249 11.8427,2.77606 21.6269,5.82349 29.1575,6.11286 13.7923,0.52996 29.0403,-7.58667 41.3832,-1.40943" />
    <path
       style="fill:#000000;fill-opacity:0;fill-rule:evenodd"
       id="path159"
       d="m 896.5407,681.4593 c 9.02869,12.40344 31.70154,12.57263 45.61676,6.11292 10.12317,-4.69941 17.9967,-16.45935 29.15747,-16.45935 9.07165,0 18.35089,1.4132 26.80579,4.7008 6.32168,2.45813 4.52398,16.40192 11.28608,16.93176 32.746,2.5658 66.4223,0.91828 98.2861,-7.05511" />
    <path
       style="fill-rule:evenodd;stroke:#000000;stroke-width:2;stroke-linecap:butt;stroke-linejoin:round"
       id="path161"
       d="m 896.5407,681.4593 c 9.02869,12.40344 31.70154,12.57263 45.61676,6.11292 10.12317,-4.69941 17.9967,-16.45935 29.15747,-16.45935 9.07165,0 18.35089,1.4132 26.80579,4.7008 6.32168,2.45813 4.52398,16.40192 11.28608,16.93176 32.746,2.5658 66.4223,0.91828 98.2861,-7.05511" />
    <path
       style="fill:#000000;fill-opacity:0;fill-rule:evenodd"
       id="path163"
       d="m 901.7139,646.66 c 46.12604,-8.5426 94.6983,5.85767 139.2021,20.69025 8.9125,2.97046 16.0248,-11.53241 25.3937,-12.22571 14.257,-1.05499 28.4992,2.82153 42.7953,2.82153" />
    <path
       style="fill-rule:evenodd;stroke:#000000;stroke-width:2;stroke-linecap:butt;stroke-linejoin:round"
       id="path165"
       d="m 901.7139,646.66 c 46.12604,-8.5426 94.6983,5.85767 139.2021,20.69025 8.9125,2.97046 16.0248,-11.53241 25.3937,-12.22571 14.257,-1.05499 28.4992,2.82153 42.7953,2.82153" />
  </g>
  <g
     id="text171"
     style="font-size:8.39999962px;font-family:sans-serif;text-anchor:middle;fill:#000000"
     aria-label="[MISSING: Manual/bigbutton.moduleicontext]">
    <path
       id="path181"
       style="fill:#ff0000"
       d="m 487.71329,224.81797 h 1.73906 v 0.58652 h -0.98438 v 6.31641 h 0.98438 v 0.58652 h -1.73906 z" />
    <path
       id="path183"
       style="fill:#ff0000"
       d="m 491.09707,225.07636 h 1.23457 l 1.5627,4.16719 1.5709,-4.16719 h 1.23457 V 231.2 h -0.80801 v -5.37715 l -1.5791,4.2 h -0.83262 l -1.5791,-4.2 V 231.2 h -0.80391 z" />
    <path
       id="path185"
       style="fill:#ff0000"
       d="m 498.34864,225.07636 h 0.82851 V 231.2 h -0.82851 z" />
    <path
       id="path187"
       style="fill:#ff0000"
       d="m 504.49688,225.27734 v 0.80801 q -0.47168,-0.22559 -0.89004,-0.33633 -0.41836,-0.11074 -0.80801,-0.11074 -0.67676,0 -1.0459,0.2625 -0.36504,0.2625 -0.36504,0.74648 0,0.40606 0.242,0.61524 0.24609,0.20508 0.92695,0.33222 l 0.50039,0.10254 q 0.92695,0.17637 1.36582,0.62344 0.44297,0.44297 0.44297,1.18945 0,0.89004 -0.59883,1.34942 -0.59473,0.45937 -1.74726,0.45937 -0.43477,0 -0.92696,-0.0984 -0.48808,-0.0984 -1.01308,-0.29121 v -0.85312 q 0.50449,0.28301 0.98847,0.42656 0.48399,0.14356 0.95157,0.14356 0.70957,0 1.09511,-0.27891 0.38555,-0.27891 0.38555,-0.7957 0,-0.45118 -0.27891,-0.70547 -0.2748,-0.2543 -0.90644,-0.38145 l -0.50449,-0.0984 q -0.92696,-0.18458 -1.34122,-0.57833 -0.41425,-0.39375 -0.41425,-1.09511 0,-0.81211 0.57011,-1.27969 0.57422,-0.46758 1.57911,-0.46758 0.43066,0 0.87773,0.0779 0.44707,0.0779 0.91465,0.23379 z" />
    <path
       id="path189"
       style="fill:#ff0000"
       d="m 509.82891,225.27734 v 0.80801 q -0.47168,-0.22559 -0.89004,-0.33633 -0.41836,-0.11074 -0.80801,-0.11074 -0.67676,0 -1.0459,0.2625 -0.36504,0.2625 -0.36504,0.74648 0,0.40606 0.242,0.61524 0.24609,0.20508 0.92695,0.33222 l 0.50039,0.10254 q 0.92695,0.17637 1.36582,0.62344 0.44297,0.44297 0.44297,1.18945 0,0.89004 -0.59883,1.34942 -0.59473,0.45937 -1.74726,0.45937 -0.43477,0 -0.92696,-0.0984 -0.48808,-0.0984 -1.01308,-0.29121 v -0.85312 q 0.50449,0.28301 0.98847,0.42656 0.48399,0.14356 0.95157,0.14356 0.70957,0 1.09511,-0.27891 0.38555,-0.27891 0.38555,-0.7957 0,-0.45118 -0.27891,-0.70547 -0.2748,-0.2543 -0.90644,-0.38145 l -0.50449,-0.0984 q -0.92696,-0.18458 -1.34121,-0.57833 -0.41426,-0.39375 -0.41426,-1.09511 0,-0.81211 0.57011,-1.27969 0.57422,-0.46758 1.57911,-0.46758 0.43066,0 0.87773,0.0779 0.44707,0.0779 0.91465,0.23379 z" />
    <path
       id="path191"
       style="fill:#ff0000"
       d="m 511.49004,225.07636 h 0.82852 V 231.2 h -0.82852 z" />
    <path
       id="path193"
       style="fill:#ff0000"
       d="m 513.96738,225.07636 h 1.11563 l 2.71523,5.12286 v -5.12286 h 0.80391 V 231.2 h -1.11563 l -2.71523,-5.12285 V 231.2 h -0.80391 z" />
    <path
       id="path195"
       style="fill:#ff0000"
       d="m 524.42637,230.32636 v -1.64472 h -1.35352 v -0.68086 h 2.17383 v 2.6291 q -0.47988,0.34043 -1.0582,0.5168 -0.57832,0.17226 -1.23457,0.17226 -1.43555,0 -2.24766,-0.83672 -0.80801,-0.84082 -0.80801,-2.33789 0,-1.50117 0.80801,-2.33789 0.81211,-0.84082 2.24766,-0.84082 0.59883,0 1.13613,0.14766 0.54141,0.14765 0.99668,0.43476 v 0.88184 q -0.45937,-0.38965 -0.97617,-0.58652 -0.5168,-0.19688 -1.08692,-0.19688 -1.12382,0 -1.68984,0.62754 -0.56191,0.62754 -0.56191,1.87031 0,1.23867 0.56191,1.86621 0.56602,0.62754 1.68984,0.62754 0.43887,0 0.7834,-0.0738 0.34453,-0.0779 0.61934,-0.23789 z" />
    <path
       id="path197"
       style="fill:#ff0000"
       d="m 526.92422,230.1582 h 0.86543 V 231.2 h -0.86543 z m 0,-3.30176 h 0.86543 v 1.0418 h -0.86543 z" />
    <path
       id="path199"
       style="fill:#ff0000"
       d="m 532.27676,225.07636 h 1.23457 l 1.56269,4.16719 1.5709,-4.16719 h 1.23457 V 231.2 h -0.80801 v -5.37715 l -1.5791,4.2 h -0.83261 l -1.57911,-4.2 V 231.2 h -0.8039 z" />
    <path
       id="path201"
       style="fill:#ff0000"
       d="m 541.58321,228.89082 q -0.91465,0 -1.26739,0.20918 -0.35273,0.20918 -0.35273,0.71367 0,0.40195 0.2625,0.63984 0.2666,0.23379 0.72187,0.23379 0.62754,0 1.00489,-0.44297 0.38144,-0.44707 0.38144,-1.18535 v -0.16816 z m 1.50527,-0.31172 V 231.2 h -0.75469 v -0.69727 q -0.2584,0.41836 -0.64394,0.61934 -0.38555,0.19687 -0.94336,0.19687 -0.70547,0 -1.12383,-0.39375 -0.41426,-0.39785 -0.41426,-1.0623 0,-0.7752 0.5168,-1.16895 0.5209,-0.39375 1.55039,-0.39375 h 1.0582 v -0.0738 q 0,-0.52089 -0.34453,-0.8039 -0.34043,-0.28711 -0.95977,-0.28711 -0.39375,0 -0.76699,0.0943 -0.37324,0.0943 -0.71777,0.28301 v -0.69726 q 0.41426,-0.15996 0.8039,-0.23789 0.38965,-0.082 0.75879,-0.082 0.99668,0 1.48887,0.5168 0.49219,0.5168 0.49219,1.5668 z" />
    <path
       id="path203"
       style="fill:#ff0000"
       d="M 548.46563,228.42734 V 231.2 h -0.75469 v -2.74805 q 0,-0.65215 -0.2543,-0.97617 -0.2543,-0.32403 -0.76289,-0.32403 -0.61113,0 -0.96387,0.38965 -0.35273,0.38965 -0.35273,1.06231 V 231.2 h -0.75879 v -4.59375 h 0.75879 v 0.71367 q 0.2707,-0.41426 0.63574,-0.61934 0.36914,-0.20508 0.84903,-0.20508 0.7916,0 1.19765,0.49219 0.40606,0.48809 0.40606,1.43965 z" />
    <path
       id="path205"
       style="fill:#ff0000"
       d="m 549.90117,229.38711 v -2.78086 h 0.75469 v 2.75215 q 0,0.65214 0.2543,0.98027 0.25429,0.32402 0.76289,0.32402 0.61113,0 0.96387,-0.38965 0.35683,-0.38964 0.35683,-1.0623 v -2.60449 h 0.75469 V 231.2 h -0.75469 v -0.70547 q -0.2748,0.41836 -0.63984,0.62344 -0.36094,0.20097 -0.84082,0.20097 -0.7916,0 -1.20176,-0.49219 -0.41016,-0.49218 -0.41016,-1.43964 z m 1.89903,-2.89161 z" />
    <path
       id="path207"
       style="fill:#ff0000"
       d="m 557.39883,228.89082 q -0.91465,0 -1.26738,0.20918 -0.35274,0.20918 -0.35274,0.71367 0,0.40195 0.2625,0.63984 0.2666,0.23379 0.72188,0.23379 0.62754,0 1.00488,-0.44297 0.38145,-0.44707 0.38145,-1.18535 v -0.16816 z m 1.50527,-0.31172 V 231.2 h -0.75468 v -0.69727 q -0.2584,0.41836 -0.64395,0.61934 -0.38555,0.19687 -0.94336,0.19687 -0.70547,0 -1.12383,-0.39375 -0.41426,-0.39785 -0.41426,-1.0623 0,-0.7752 0.5168,-1.16895 0.5209,-0.39375 1.55039,-0.39375 h 1.05821 v -0.0738 q 0,-0.52089 -0.34454,-0.8039 -0.34043,-0.28711 -0.95976,-0.28711 -0.39375,0 -0.76699,0.0943 -0.37325,0.0943 -0.71778,0.28301 v -0.69726 q 0.41426,-0.15996 0.80391,-0.23789 0.38965,-0.082 0.75879,-0.082 0.99668,0 1.48887,0.5168 0.49218,0.5168 0.49218,1.5668 z" />
    <path
       id="path209"
       style="fill:#ff0000"
       d="m 560.46269,224.81797 h 0.75469 V 231.2 h -0.75469 z" />
    <path
       id="path211"
       style="fill:#ff0000"
       d="m 564.13359,225.07636 h 0.69727 l -2.13281,6.90293 h -0.69727 z" />
    <path
       id="path213"
       style="fill:#ff0000"
       d="m 568.92832,228.90722 q 0,-0.83261 -0.34453,-1.30429 -0.34043,-0.47578 -0.93926,-0.47578 -0.59883,0 -0.94336,0.47578 -0.34043,0.47168 -0.34043,1.30429 0,0.83262 0.34043,1.3084 0.34453,0.47168 0.94336,0.47168 0.59883,0 0.93926,-0.47168 0.34453,-0.47578 0.34453,-1.3084 z m -2.56758,-1.60371 q 0.23789,-0.41015 0.59883,-0.60703 0.36504,-0.20098 0.86953,-0.20098 0.83672,0 1.35762,0.66446 0.525,0.66445 0.525,1.74726 0,1.08282 -0.525,1.74727 -0.5209,0.66445 -1.35762,0.66445 -0.50449,0 -0.86953,-0.19687 -0.36094,-0.20098 -0.59883,-0.61114 V 231.2 h -0.75879 v -6.38203 h 0.75879 z" />
    <path
       id="path215"
       style="fill:#ff0000"
       d="m 570.96269,226.60625 h 0.75469 V 231.2 h -0.75469 z m 0,-1.78828 h 0.75469 v 0.95566 h -0.75469 z" />
    <path
       id="path217"
       style="fill:#ff0000"
       d="m 576.31523,228.8498 q 0,-0.82031 -0.34043,-1.27148 -0.33633,-0.45117 -0.94746,-0.45117 -0.60703,0 -0.94746,0.45117 -0.33633,0.45117 -0.33633,1.27148 0,0.81621 0.33633,1.26738 0.34043,0.45118 0.94746,0.45118 0.61113,0 0.94746,-0.45118 0.34043,-0.45117 0.34043,-1.26738 z m 0.75469,1.78008 q 0,1.17305 -0.5209,1.74316 -0.5209,0.57422 -1.59551,0.57422 -0.39785,0 -0.75058,-0.0615 -0.35274,-0.0574 -0.68496,-0.18047 v -0.73418 q 0.33222,0.18047 0.65625,0.2666 0.32402,0.0861 0.66035,0.0861 0.74238,0 1.11152,-0.38965 0.36914,-0.38555 0.36914,-1.16895 v -0.37324 q -0.23379,0.40605 -0.59883,0.60703 -0.36503,0.20098 -0.87363,0.20098 -0.84492,0 -1.36172,-0.64395 -0.51679,-0.64394 -0.51679,-1.70625 0,-1.0664 0.51679,-1.71035 0.5168,-0.64395 1.36172,-0.64395 0.5086,0 0.87363,0.20098 0.36504,0.20098 0.59883,0.60703 v -0.69726 h 0.75469 z" />
    <path
       id="path219"
       style="fill:#ff0000"
       d="m 581.92207,228.90722 q 0,-0.83261 -0.34453,-1.30429 -0.34043,-0.47578 -0.93926,-0.47578 -0.59883,0 -0.94336,0.47578 -0.34043,0.47168 -0.34043,1.30429 0,0.83262 0.34043,1.3084 0.34453,0.47168 0.94336,0.47168 0.59883,0 0.93926,-0.47168 0.34453,-0.47578 0.34453,-1.3084 z m -2.56758,-1.60371 q 0.23789,-0.41015 0.59883,-0.60703 0.36504,-0.20098 0.86953,-0.20098 0.83672,0 1.35762,0.66446 0.525,0.66445 0.525,1.74726 0,1.08282 -0.525,1.74727 -0.5209,0.66445 -1.35762,0.66445 -0.50449,0 -0.86953,-0.19687 -0.36094,-0.20098 -0.59883,-0.61114 V 231.2 h -0.75879 v -6.38203 h 0.75879 z" />
    <path
       id="path221"
       style="fill:#ff0000"
       d="m 583.87851,229.38711 v -2.78086 h 0.75469 v 2.75215 q 0,0.65214 0.2543,0.98027 0.25429,0.32402 0.76289,0.32402 0.61113,0 0.96387,-0.38965 0.35683,-0.38964 0.35683,-1.0623 v -2.60449 h 0.75469 V 231.2 h -0.75469 v -0.70547 q -0.2748,0.41836 -0.63984,0.62344 -0.36094,0.20097 -0.84082,0.20097 -0.7916,0 -1.20176,-0.49219 -0.41016,-0.49218 -0.41016,-1.43964 z m 1.89903,-2.89161 z" />
    <path
       id="path223"
       style="fill:#ff0000"
       d="m 590.03496,225.30195 v 1.3043 h 1.55449 v 0.58652 h -1.55449 v 2.49375 q 0,0.56191 0.15176,0.72188 0.15586,0.15996 0.62754,0.15996 h 0.77519 V 231.2 h -0.77519 q -0.87364,0 -1.20586,-0.32403 -0.33223,-0.32812 -0.33223,-1.18945 v -2.49375 h -0.55371 v -0.58652 h 0.55371 v -1.3043 z" />
    <path
       id="path225"
       style="fill:#ff0000"
       d="m 593.33261,225.30195 v 1.3043 h 1.55449 v 0.58652 h -1.55449 v 2.49375 q 0,0.56191 0.15176,0.72188 0.15586,0.15996 0.62754,0.15996 h 0.77519 V 231.2 h -0.77519 q -0.87363,0 -1.20586,-0.32403 -0.33223,-0.32812 -0.33223,-1.18945 v -2.49375 h -0.55371 v -0.58652 h 0.55371 v -1.3043 z" />
    <path
       id="path227"
       style="fill:#ff0000"
       d="m 597.66387,227.13535 q -0.60703,0 -0.95977,0.47578 -0.35273,0.47168 -0.35273,1.29609 0,0.82442 0.34863,1.3002 0.35273,0.47168 0.96387,0.47168 0.60293,0 0.95566,-0.47578 0.35274,-0.47578 0.35274,-1.2961 0,-0.81621 -0.35274,-1.29199 -0.35273,-0.47988 -0.95566,-0.47988 z m 0,-0.63985 q 0.98437,0 1.54629,0.63985 0.56191,0.63984 0.56191,1.77187 0,1.12793 -0.56191,1.77188 -0.56192,0.63984 -1.54629,0.63984 -0.98848,0 -1.55039,-0.63984 -0.55782,-0.64395 -0.55782,-1.77188 0,-1.13203 0.55782,-1.77187 0.56191,-0.63985 1.55039,-0.63985 z" />
    <path
       id="path229"
       style="fill:#ff0000"
       d="M 604.8375,228.42734 V 231.2 h -0.75469 v -2.74805 q 0,-0.65215 -0.2543,-0.97617 -0.25429,-0.32403 -0.76289,-0.32403 -0.61113,0 -0.96386,0.38965 -0.35274,0.38965 -0.35274,1.06231 V 231.2 h -0.75879 v -4.59375 h 0.75879 v 0.71367 q 0.2707,-0.41426 0.63574,-0.61934 0.36914,-0.20508 0.84903,-0.20508 0.7916,0 1.19765,0.49219 0.40606,0.48809 0.40606,1.43965 z" />
    <path
       id="path231"
       style="fill:#ff0000"
       d="m 606.45762,230.1582 h 0.86543 V 231.2 h -0.86543 z" />
    <path
       id="path233"
       style="fill:#ff0000"
       d="m 612.60175,227.48808 q 0.28301,-0.50859 0.67676,-0.75058 0.39375,-0.242 0.92696,-0.242 0.71777,0 1.10742,0.5045 0.38965,0.50039 0.38965,1.42734 V 231.2 h -0.75879 v -2.74805 q 0,-0.66035 -0.23379,-0.98027 -0.23379,-0.31993 -0.71367,-0.31993 -0.58653,0 -0.92696,0.38965 -0.34043,0.38965 -0.34043,1.06231 V 231.2 h -0.75879 v -2.74805 q 0,-0.66445 -0.23379,-0.98027 -0.23378,-0.31993 -0.72187,-0.31993 -0.57832,0 -0.91875,0.39375 -0.34043,0.38965 -0.34043,1.05821 V 231.2 h -0.75879 v -4.59375 h 0.75879 v 0.71367 q 0.2584,-0.42246 0.61934,-0.62344 0.36093,-0.20098 0.85722,-0.20098 0.50039,0 0.84903,0.2543 0.35273,0.2543 0.52089,0.73828 z" />
    <path
       id="path235"
       style="fill:#ff0000"
       d="m 618.99198,227.13535 q -0.60703,0 -0.95976,0.47578 -0.35274,0.47168 -0.35274,1.29609 0,0.82442 0.34864,1.3002 0.35273,0.47168 0.96386,0.47168 0.60293,0 0.95567,-0.47578 0.35273,-0.47578 0.35273,-1.2961 0,-0.81621 -0.35273,-1.29199 -0.35274,-0.47988 -0.95567,-0.47988 z m 0,-0.63985 q 0.98438,0 1.54629,0.63985 0.56192,0.63984 0.56192,1.77187 0,1.12793 -0.56192,1.77188 -0.56191,0.63984 -1.54629,0.63984 -0.98847,0 -1.55039,-0.63984 -0.55781,-0.64395 -0.55781,-1.77188 0,-1.13203 0.55781,-1.77187 0.56192,-0.63985 1.55039,-0.63985 z" />
    <path
       id="path237"
       style="fill:#ff0000"
       d="m 625.36992,227.30351 v -2.48554 h 0.75469 V 231.2 h -0.75469 v -0.68907 q -0.23789,0.41016 -0.60293,0.61114 -0.36094,0.19687 -0.86953,0.19687 -0.83262,0 -1.35762,-0.66445 -0.5209,-0.66445 -0.5209,-1.74727 0,-1.08281 0.5209,-1.74726 0.525,-0.66446 1.35762,-0.66446 0.50859,0 0.86953,0.20098 0.36504,0.19688 0.60293,0.60703 z m -2.57168,1.60371 q 0,0.83262 0.34043,1.3084 0.34453,0.47168 0.94336,0.47168 0.59883,0 0.94336,-0.47168 0.34453,-0.47578 0.34453,-1.3084 0,-0.83261 -0.34453,-1.30429 -0.34453,-0.47578 -0.94336,-0.47578 -0.59883,0 -0.94336,0.47578 -0.34043,0.47168 -0.34043,1.30429 z" />
    <path
       id="path239"
       style="fill:#ff0000"
       d="m 627.60117,229.38711 v -2.78086 h 0.75469 v 2.75215 q 0,0.65214 0.25429,0.98027 0.2543,0.32402 0.76289,0.32402 0.61114,0 0.96387,-0.38965 0.35684,-0.38964 0.35684,-1.0623 v -2.60449 h 0.75469 V 231.2 h -0.75469 v -0.70547 q -0.27481,0.41836 -0.63985,0.62344 -0.36093,0.20097 -0.84082,0.20097 -0.7916,0 -1.20175,-0.49219 -0.41016,-0.49218 -0.41016,-1.43964 z m 1.89902,-2.89161 z" />
    <path
       id="path241"
       style="fill:#ff0000"
       d="m 633.01113,224.81797 h 0.75469 V 231.2 h -0.75469 z" />
    <path
       id="path243"
       style="fill:#ff0000"
       d="m 639.27011,228.71445 v 0.36914 h -3.46992 q 0.0492,0.7793 0.46758,1.18945 0.42246,0.40606 1.17304,0.40606 0.43477,0 0.84082,-0.10664 0.41016,-0.10664 0.81211,-0.31992 v 0.71367 q -0.40605,0.17226 -0.83262,0.2625 -0.42656,0.0902 -0.86542,0.0902 -1.09922,0 -1.74317,-0.63984 -0.63984,-0.63985 -0.63984,-1.73086 0,-1.12793 0.60703,-1.78828 0.61113,-0.66446 1.64473,-0.66446 0.92695,0 1.46425,0.59883 0.54141,0.59473 0.54141,1.62012 z m -0.75469,-0.22148 q -0.008,-0.61934 -0.34863,-0.98848 -0.33633,-0.36914 -0.89414,-0.36914 -0.63164,0 -1.01309,0.35683 -0.37734,0.35684 -0.43476,1.00489 z" />
    <path
       id="path245"
       style="fill:#ff0000"
       d="m 640.50878,226.60625 h 0.75469 V 231.2 h -0.75469 z m 0,-1.78828 h 0.75469 v 0.95566 h -0.75469 z" />
    <path
       id="path247"
       style="fill:#ff0000"
       d="m 646.14434,226.78261 v 0.70547 q -0.31992,-0.17636 -0.64395,-0.2625 -0.31992,-0.0902 -0.64805,-0.0902 -0.73417,0 -1.14023,0.46758 -0.40605,0.46347 -0.40605,1.30429 0,0.84082 0.40605,1.3084 0.40606,0.46348 1.14023,0.46348 0.32813,0 0.64805,-0.0861 0.32403,-0.0902 0.64395,-0.26661 v 0.69727 q -0.31582,0.14766 -0.65625,0.22148 -0.33633,0.0738 -0.71778,0.0738 -1.03769,0 -1.64882,-0.65215 -0.61114,-0.65214 -0.61114,-1.75957 0,-1.12382 0.61524,-1.76777 0.61933,-0.64395 1.69394,-0.64395 0.34864,0 0.68086,0.0738 0.33223,0.0697 0.64395,0.21328 z" />
    <path
       id="path249"
       style="fill:#ff0000"
       d="m 649.24511,227.13535 q -0.60703,0 -0.95976,0.47578 -0.35274,0.47168 -0.35274,1.29609 0,0.82442 0.34864,1.3002 0.35273,0.47168 0.96386,0.47168 0.60293,0 0.95567,-0.47578 0.35273,-0.47578 0.35273,-1.2961 0,-0.81621 -0.35273,-1.29199 -0.35274,-0.47988 -0.95567,-0.47988 z m 0,-0.63985 q 0.98438,0 1.54629,0.63985 0.56192,0.63984 0.56192,1.77187 0,1.12793 -0.56192,1.77188 -0.56191,0.63984 -1.54629,0.63984 -0.98847,0 -1.55039,-0.63984 -0.55781,-0.64395 -0.55781,-1.77188 0,-1.13203 0.55781,-1.77187 0.56192,-0.63985 1.55039,-0.63985 z" />
    <path
       id="path251"
       style="fill:#ff0000"
       d="M 656.41875,228.42734 V 231.2 h -0.75469 v -2.74805 q 0,-0.65215 -0.25429,-0.97617 -0.2543,-0.32403 -0.76289,-0.32403 -0.61114,0 -0.96387,0.38965 -0.35274,0.38965 -0.35274,1.06231 V 231.2 h -0.75878 v -4.59375 h 0.75878 v 0.71367 q 0.27071,-0.41426 0.63575,-0.61934 0.36914,-0.20508 0.84902,-0.20508 0.7916,0 1.19766,0.49219 0.40605,0.48809 0.40605,1.43965 z" />
    <path
       id="path253"
       style="fill:#ff0000"
       d="m 658.6787,225.30195 v 1.3043 h 1.55449 v 0.58652 h -1.55449 v 2.49375 q 0,0.56191 0.15175,0.72188 0.15586,0.15996 0.62754,0.15996 h 0.7752 V 231.2 h -0.7752 q -0.87363,0 -1.20586,-0.32403 -0.33222,-0.32812 -0.33222,-1.18945 v -2.49375 h -0.55371 v -0.58652 h 0.55371 v -1.3043 z" />
    <path
       id="path255"
       style="fill:#ff0000"
       d="m 665.15918,228.71445 v 0.36914 h -3.46992 q 0.0492,0.7793 0.46757,1.18945 0.42246,0.40606 1.17305,0.40606 0.43477,0 0.84082,-0.10664 0.41016,-0.10664 0.81211,-0.31992 v 0.71367 q -0.40605,0.17226 -0.83262,0.2625 -0.42656,0.0902 -0.86543,0.0902 -1.09921,0 -1.74316,-0.63984 -0.63984,-0.63985 -0.63984,-1.73086 0,-1.12793 0.60703,-1.78828 0.61113,-0.66446 1.64472,-0.66446 0.92696,0 1.46426,0.59883 0.54141,0.59473 0.54141,1.62012 z m -0.75469,-0.22148 q -0.008,-0.61934 -0.34863,-0.98848 -0.33633,-0.36914 -0.89414,-0.36914 -0.63164,0 -1.01309,0.35683 -0.37734,0.35684 -0.43476,1.00489 z" />
    <path
       id="path257"
       style="fill:#ff0000"
       d="m 670.06874,226.60625 -1.66113,2.23535 1.74727,2.3584 h -0.89004 l -1.33711,-1.80469 -1.33711,1.80469 h -0.89004 l 1.78418,-2.40352 -1.63242,-2.19023 h 0.89004 l 1.21816,1.63652 1.21817,-1.63652 z" />
    <path
       id="path259"
       style="fill:#ff0000"
       d="m 671.96776,225.30195 v 1.3043 h 1.55449 v 0.58652 h -1.55449 v 2.49375 q 0,0.56191 0.15176,0.72188 0.15586,0.15996 0.62754,0.15996 h 0.77519 V 231.2 h -0.77519 q -0.87364,0 -1.20586,-0.32403 -0.33223,-0.32812 -0.33223,-1.18945 v -2.49375 h -0.55371 v -0.58652 h 0.55371 v -1.3043 z" />
    <path
       id="path261"
       style="fill:#ff0000"
       d="m 676.28262,224.81797 v 7.48945 h -1.73907 v -0.58652 h 0.98028 v -6.31641 h -0.98028 v -0.58652 z" />
  </g>
</svg>
