<?xml version="1.0" encoding="UTF-8" standalone="no"?>
<svg
   xmlns:dc="http://purl.org/dc/elements/1.1/"
   xmlns:cc="http://creativecommons.org/ns#"
   xmlns:rdf="http://www.w3.org/1999/02/22-rdf-syntax-ns#"
   xmlns:svg="http://www.w3.org/2000/svg"
   xmlns="http://www.w3.org/2000/svg"
   id="svg97"
   stroke-miterlimit="10"
   stroke-linecap="square"
   stroke="none"
   fill="none"
   viewBox="0.0 0.0 369.0 801.0"
   version="1.1">
  <metadata
     id="metadata103">
    <rdf:RDF>
      <cc:Work
         rdf:about="">
        <dc:format>image/svg+xml</dc:format>
        <dc:type
           rdf:resource="http://purl.org/dc/dcmitype/StillImage" />
      </cc:Work>
    </rdf:RDF>
  </metadata>
  <defs
     id="defs101" />
  <clipPath
     id="p.0">
    <path
       id="path2"
       clip-rule="nonzero"
       d="m0 0l369.0 0l0 801.0l-369.0 0l0 -801.0z" />
  </clipPath>
  <g
     id="g91"
     clip-path="url(#p.0)">
    <path
       id="path5"
       fill-rule="nonzero"
       d="M 0,0 H 369.1076 V 801.916 H 0 Z"
       fill-opacity="0"
       fill="#000000" />
    <path
       id="path7"
       fill-rule="nonzero"
       d="m 248.5753,444.2651 h 101.4803 v 67.55905 H 248.5753 Z"
       fill="#000000" />
    <path
       id="path9"
       fill-rule="nonzero"
       d="m 248.5753,444.2651 h 101.4803 v 67.55905 H 248.5753 Z"
       stroke-linecap="butt"
       stroke-linejoin="round"
       stroke-width="2"
       stroke="#000000" />
    <path
       id="path11"
       fill-rule="nonzero"
       d="m 289.4047,109.25535 h 67.3071 v 208.0315 h -67.3071 z"
       fill="#ffffff" />
    <path
       id="path13"
       fill-rule="nonzero"
       d="m 289.4047,109.25535 h 67.3071 v 208.0315 h -67.3071 z"
       stroke-linecap="butt"
       stroke-linejoin="round"
       stroke-width="2"
       stroke="#000000" />
    <path
       id="path15"
       fill-rule="nonzero"
       d="M 5.589649,165.38321 H 53.306183 V 273.09973 H 5.589649 Z"
       fill="#ffffff" />
    <path
       id="path17"
       fill-rule="nonzero"
       d="M 5.589649,165.38321 H 53.306183 V 273.09973 H 5.589649 Z"
       stroke-linecap="butt"
       stroke-linejoin="round"
       stroke-width="2"
       stroke="#000000" />
    <path
       id="path19"
       fill-rule="nonzero"
       d="m 278.36172,66.32809 h 68.82806 v 0 c 9.01667,0 16.32611,7.042313 16.32611,15.729446 0,8.687134 -7.30944,15.729446 -16.32611,15.729446 h -68.82806 v 0 c -9.01666,0 -16.32614,-7.042313 -16.32614,-15.729446 0,-8.687134 7.30948,-15.729446 16.32614,-15.729446 z"
       fill="#ffffff" />
    <path
       id="path21"
       fill-rule="nonzero"
       d="m 278.36172,66.32809 h 68.82806 v 0 c 9.01667,0 16.32611,7.042313 16.32611,15.729446 0,8.687134 -7.30944,15.729446 -16.32611,15.729446 h -68.82806 v 0 c -9.01666,0 -16.32614,-7.042313 -16.32614,-15.729446 0,-8.687134 7.30948,-15.729446 16.32614,-15.729446 z"
       stroke-linecap="butt"
       stroke-linejoin="round"
       stroke-width="2"
       stroke="#000000" />
    <path
       id="path23"
       fill-rule="nonzero"
       d="m 12.574803,486.2047 h 67.30708 v 208.0315 h -67.30708 z"
       fill="#ffffff" />
    <path
       id="path25"
       fill-rule="nonzero"
       d="m 12.574803,486.2047 h 67.30708 v 208.0315 h -67.30708 z"
       stroke-linecap="butt"
       stroke-linejoin="round"
       stroke-width="2"
       stroke="#000000" />
    <path
       id="path27"
       fill-rule="nonzero"
       d="m 243.86876,46.650917 h 92.15749 V 384.32022 h -92.15749 z"
       fill="#ffffff" />
    <path
       id="path29"
       fill-rule="nonzero"
       d="m 243.86876,46.650917 h 92.15749 V 384.32022 h -92.15749 z"
       stroke-linecap="butt"
       stroke-linejoin="round"
       stroke-width="2"
       stroke="#000000" />
    <path
       id="path31"
       fill-rule="nonzero"
       d="M 22.658957,122.89764 H 101.74557 V 304.53543 H 22.658957 Z"
       fill="#000000" />
    <path
       id="path33"
       fill-rule="nonzero"
       d="M 22.658957,122.89764 H 101.74557 V 304.53543 H 22.658957 Z"
       stroke-linecap="butt"
       stroke-linejoin="round"
       stroke-width="2"
       stroke="#000000" />
    <path
       id="path35"
       fill-rule="nonzero"
       d="m 22.689058,66.32809 h 68.82809 v 0 c 9.016662,0 16.326122,7.042313 16.326122,15.729446 0,8.687134 -7.30946,15.729446 -16.326122,15.729446 h -68.82809 v 0 c -9.016665,0 -16.326115,-7.042313 -16.326115,-15.729446 0,-8.687134 7.309451,-15.729446 16.326115,-15.729446 z"
       fill="#ffffff" />
    <path
       id="path37"
       fill-rule="nonzero"
       d="m 22.689058,66.32809 h 68.82809 v 0 c 9.016662,0 16.326122,7.042313 16.326122,15.729446 0,8.687134 -7.30946,15.729446 -16.326122,15.729446 h -68.82809 v 0 c -9.016665,0 -16.326115,-7.042313 -16.326115,-15.729446 0,-8.687134 7.309451,-15.729446 16.326115,-15.729446 z"
       stroke-linecap="butt"
       stroke-linejoin="round"
       stroke-width="2"
       stroke="#000000" />
    <path
       id="path39"
       fill-rule="nonzero"
       d="m 22.689058,443.84253 h 68.82809 v 0 c 9.016662,0 16.326122,7.0423 16.326122,15.72943 0,8.68713 -7.30946,15.72946 -16.326122,15.72946 h -68.82809 v 0 c -9.016665,0 -16.326115,-7.04233 -16.326115,-15.72946 0,-8.68713 7.309451,-15.72943 16.326115,-15.72943 z"
       fill="#ffffff" />
    <path
       id="path41"
       fill-rule="nonzero"
       d="m 22.689058,443.84253 h 68.82809 v 0 c 9.016662,0 16.326122,7.0423 16.326122,15.72943 0,8.68713 -7.30946,15.72946 -16.326122,15.72946 h -68.82809 v 0 c -9.016665,0 -16.326115,-7.04233 -16.326115,-15.72946 0,-8.68713 7.309451,-15.72943 16.326115,-15.72943 z"
       stroke-linecap="butt"
       stroke-linejoin="round"
       stroke-width="2"
       stroke="#000000" />
    <path
       id="path43"
       fill-rule="nonzero"
       d="M 31.853674,46.650917 H 86.814306 V 384.32022 H 31.853674 Z"
       fill="#ffffff" />
    <path
       id="path45"
       fill-rule="nonzero"
       d="M 31.853674,46.650917 H 86.814306 V 384.32022 H 31.853674 Z"
       stroke-linecap="butt"
       stroke-linejoin="round"
       stroke-width="2"
       stroke="#000000" />
    <path
       id="path47"
       fill-rule="nonzero"
       d="m 278.36368,443.84253 h 68.82809 v 0 c 9.01667,0 16.32611,7.0423 16.32611,15.72943 0,8.68713 -7.30944,15.72946 -16.32611,15.72946 h -68.82809 v 0 c -9.01666,0 -16.32611,-7.04233 -16.32611,-15.72946 0,-8.68713 7.30945,-15.72943 16.32611,-15.72943 z"
       fill="#ffffff" />
    <path
       id="path49"
       fill-rule="nonzero"
       d="m 278.36368,443.84253 h 68.82809 v 0 c 9.01667,0 16.32611,7.0423 16.32611,15.72943 0,8.68713 -7.30944,15.72946 -16.32611,15.72946 h -68.82809 v 0 c -9.01666,0 -16.32611,-7.04233 -16.32611,-15.72946 0,-8.68713 7.30945,-15.72943 16.32611,-15.72943 z"
       stroke-linecap="butt"
       stroke-linejoin="round"
       stroke-width="2"
       stroke="#000000" />
    <path
       id="path51"
       fill-rule="nonzero"
       d="M 251.84662,615.33795 H 358.49228 V 660.1568 H 251.84662 Z"
       fill="#ffffff" />
    <path
       id="path53"
       fill-rule="nonzero"
       d="M 251.84662,615.33795 H 358.49228 V 660.1568 H 251.84662 Z"
       stroke-linecap="butt"
       stroke-linejoin="round"
       stroke-width="2"
       stroke="#000000" />
    <path
       id="path55"
       fill-rule="nonzero"
       d="m 251.84662,544.1022 h 106.64566 v 44.81891 H 251.84662 Z"
       fill="#ffffff" />
    <path
       id="path57"
       fill-rule="nonzero"
       d="m 251.84662,544.1022 h 106.64566 v 44.81891 H 251.84662 Z"
       stroke-linecap="butt"
       stroke-linejoin="round"
       stroke-width="2"
       stroke="#000000" />
    <path
       id="path59"
       fill-rule="nonzero"
       d="m 251.84662,689.47974 h 106.64566 v 44.81891 H 251.84662 Z"
       fill="#ffffff" />
    <path
       id="path61"
       fill-rule="nonzero"
       d="m 251.84662,689.47974 h 106.64566 v 44.81891 H 251.84662 Z"
       stroke-linecap="butt"
       stroke-linejoin="round"
       stroke-width="2"
       stroke="#000000" />
    <path
       id="path63"
       fill-rule="nonzero"
       d="m 6.361959,517.22833 h 24.88189"
       fill-opacity="0"
       fill="#000000" />
    <path
       id="path65"
       fill-rule="nonzero"
       d="m 6.361959,517.22833 h 24.88189"
       stroke-linecap="butt"
       stroke-linejoin="round"
       stroke-width="2"
       stroke="#000000" />
    <path
       id="path67"
       fill-rule="nonzero"
       d="m 6.361959,569.0379 h 24.88189"
       fill-opacity="0"
       fill="#000000" />
    <path
       id="path69"
       fill-rule="nonzero"
       d="m 6.361959,569.0379 h 24.88189"
       stroke-linecap="butt"
       stroke-linejoin="round"
       stroke-width="2"
       stroke="#000000" />
    <path
       id="path71"
       fill-rule="nonzero"
       d="m 6.361959,616.8954 h 24.88189"
       fill-opacity="0"
       fill="#000000" />
    <path
       id="path73"
       fill-rule="nonzero"
       d="m 6.361959,616.8954 h 24.88189"
       stroke-linecap="butt"
       stroke-linejoin="round"
       stroke-width="2"
       stroke="#000000" />
    <path
       id="path75"
       fill-rule="nonzero"
       d="M 6.361959,673.9764 H 31.999753"
       fill-opacity="0"
       fill="#000000" />
    <path
       id="path77"
       fill-rule="nonzero"
       d="M 6.361959,673.9764 H 31.999753"
       stroke-linecap="butt"
       stroke-linejoin="round"
       stroke-width="2"
       stroke="#000000" />
    <path
       id="path79"
       fill-rule="nonzero"
       d="m 31.85023,423.8084 h 304.1575 V 761.47765 H 31.85023 Z"
       fill="#ffffff" />
    <path
       id="path81"
       fill-rule="nonzero"
       d="m 31.85023,423.8084 h 304.1575 V 761.47765 H 31.85023 Z"
       stroke-linecap="butt"
       stroke-linejoin="round"
       stroke-width="2"
       stroke="#000000" />
    <path
       id="path83"
       fill-rule="nonzero"
       d="M 56.01132,0.9422572 H 312.60974 V 800.97376 H 56.01132 Z"
       fill="#ffffff" />
    <path
       id="path85"
       fill-rule="nonzero"
       d="M 56.01132,0.9422572 H 312.60974 V 800.97376 H 56.01132 Z"
       stroke-linecap="butt"
       stroke-linejoin="round"
       stroke-width="2"
       stroke="#000000" />
    <path
       id="path87"
       fill-rule="nonzero"
       d="M 289.4042,31.199474 V 346.85303 H 221.84513 V 31.199474 Z"
       fill-opacity="0"
       fill="#000000" />
    <path
       id="path89"
       fill-rule="nonzero"
       d="M 289.4042,31.199474 V 386.85303 H 221.84513 V 31.199474 Z"
       stroke-linecap="butt"
       stroke-linejoin="round"
       stroke-width="2"
       stroke="#000000" />
  </g>
  <g
     style="font-size:30px;font-family:'DejaVu Sans', sans-serif;text-anchor:middle;fill:#000000"
     id="text95"
     transform="rotate(90)"
     aria-label="[序號列]">
    <path
       id="path105"
       d="m 156.85937,-267.79297 h 6.21094 v 2.09473 h -3.51562 v 22.55859 h 3.51562 v 2.09473 h -6.21094 z" />
    <path
       id="path107"
       d="m 182.64062,-258.35937 2.8125,-1.875 h -10.3125 v -1.875 h 12.65625 l 0.70313,-0.46875 1.64062,1.17187 q 0.46875,0.70313 -0.46875,0.58594 -1.875,1.40625 -5.27343,3.39844 0.70312,0.35156 1.40625,0.82031 l -1.40625,1.52344 q -3.04688,-1.875 -5.74219,-3.04688 l 1.17187,-1.52344 z m -12.77343,-7.96875 h 10.19531 v -3.04688 h 2.57812 q 1.17188,0.23438 0.11719,0.9375 v 2.10938 h 11.01563 v 2.22656 h -21.5625 v 10.89844 q 0,6.79687 -2.34375,10.07812 l -2.10938,-1.75781 q 2.10938,-2.34375 2.10938,-8.32031 z m 3.51562,13.82812 v -2.22656 h 17.92969 l 0.58594,-0.58594 1.875,1.875 q 0.35156,0.70313 -0.70313,0.58594 -2.57812,2.46094 -5.74219,4.92187 l -1.52343,-1.875 q 2.10937,-1.28906 3.39843,-2.69531 h -4.80468 v 7.73438 q 0,2.10937 -1.875,2.10937 h -2.8125 l -0.23438,-2.22656 h 2.22656 q 0.35157,0 0.35157,-0.35156 V -252.5 Z" />
    <path
       id="path109"
       d="m 214.16406,-261.75781 h -2.92969 v 2.10937 l 2.92969,-0.11718 z m -4.92187,-1.875 h 4.6875 v -5.50781 h 2.22656 q 0.9375,0.11718 0.11719,0.70312 v 1.28906 h 5.39062 v 1.875 h -5.39062 v 1.64063 H 222.25 l 0.23437,-0.46875 1.75782,0.82031 q 0.70312,0.23438 0,0.58594 -0.35157,1.75781 -1.05469,3.51562 l -2.10938,-0.46875 0.70313,-2.10937 h -5.625 v 1.875 l 4.21875,-0.35156 v 1.875 l -4.21875,0.35156 v 0.82031 q 0,0.82031 1.05469,0.82031 h 3.28125 q 0.58593,0 0.70312,-0.46875 l 0.23438,-1.17187 2.10937,0.58594 -0.35156,1.40625 q -0.35156,1.52343 -1.875,1.52343 h -5.03906 q -2.10938,0 -2.10938,-2.10937 v -1.28906 l -2.92969,0.11718 v 6.79688 q 0,5.03906 -3.39843,8.78906 l -1.17188,-2.22656 q 2.57813,-2.92969 2.57813,-6.79688 z m -6.67969,7.61719 -0.46875,2.57812 h 4.92187 l -0.82031,6.79688 q -0.46875,3.75 -3.39844,3.75 h -1.28906 l -0.46875,-2.22657 h 1.52344 q 1.52344,0 1.64062,-1.40625 l 0.46875,-4.6875 h -3.16406 l -0.70312,2.22657 -2.10938,-0.23438 q 0.9375,-2.57812 1.75781,-6.79687 h -3.04687 v -2.22657 h 10.89844 v 2.22657 z m -3.39844,-11.71875 h 7.61719 v 7.85156 h -1.99219 v -0.82031 h -3.63281 v 0.9375 h -1.99219 z m 1.99219,5.15625 h 3.63281 v -3.28125 h -3.63281 z m 16.75781,9.72656 h 1.875 q 0.9375,0.11719 0.11719,0.70312 v 6.91407 q 0,0.46875 0.46875,0.46875 h 1.05469 q 0.46875,0 0.58593,-0.82032 l 0.23438,-1.875 1.99219,0.46875 -0.11719,1.875 q -0.11719,2.22657 -1.875,2.22657 h -2.34375 q -1.99219,0 -1.99219,-1.99219 z m -4.21875,-0.11719 h 1.875 q 0.9375,0.11719 0.11719,0.70313 v 3.98437 q 0,4.10156 -4.10156,6.21094 l -0.9375,-1.99219 q 3.04687,-1.52344 3.04687,-4.92187 z" />
    <path
       id="path111"
       d="m 235.14062,-259.41406 q -0.23437,0.70312 -1.17187,2.8125 2.46094,1.17187 4.21875,2.57812 0.70312,-2.57812 0.9375,-5.39062 z m -2.22656,4.57031 q -1.875,2.8125 -3.75,3.98438 l -1.40625,-2.22657 q 5.27344,-4.21875 6.09375,-12.07031 h -4.21875 v -2.22656 h 13.71094 v 2.22656 h -7.14844 q 0,0.58594 -0.58594,3.51563 h 6.09375 q 0.23438,14.29687 -10.89843,18.98437 l -1.52344,-2.46094 q 5.85937,-2.57812 7.85156,-6.44531 -1.05469,-1.40625 -4.21875,-3.28125 z m 17.34375,-13.24219 h 2.22656 q 0.9375,0.11719 0.11719,0.70313 v 22.26562 q 0,1.75782 -1.40625,1.75782 h -3.51562 l -0.23438,-2.22657 h 2.34375 q 0.46875,0 0.46875,-0.46875 z m -3.75,3.16407 q 0.9375,0.11718 0.11719,0.70312 V -248.75 h -2.34375 v -16.17187 z" />
    <path
       id="path113"
       d="m 265.12598,-267.79297 v 26.74805 h -6.21094 v -2.09473 h 3.50098 v -22.55859 h -3.50098 v -2.09473 z" />
  </g>
</svg>
