<?xml version="1.0" encoding="UTF-8" standalone="no"?>
<svg
   xmlns:dc="http://purl.org/dc/elements/1.1/"
   xmlns:cc="http://creativecommons.org/ns#"
   xmlns:rdf="http://www.w3.org/1999/02/22-rdf-syntax-ns#"
   xmlns:svg="http://www.w3.org/2000/svg"
   xmlns="http://www.w3.org/2000/svg"
   id="svg89"
   stroke-miterlimit="10"
   stroke-linecap="square"
   stroke="none"
   fill="none"
   viewBox="0.0 0.0 348.0 348.0"
   version="1.1">
  <metadata
     id="metadata95">
    <rdf:RDF>
      <cc:Work
         rdf:about="">
        <dc:format>image/svg+xml</dc:format>
        <dc:type
           rdf:resource="http://purl.org/dc/dcmitype/StillImage" />
      </cc:Work>
    </rdf:RDF>
  </metadata>
  <defs
     id="defs93" />
  <clipPath
     id="p.0">
    <path
       id="path2"
       clip-rule="nonzero"
       d="m0 0l348.0 0l0 348.0l-348.0 0l0 -348.0z" />
  </clipPath>
  <g
     id="g59"
     clip-path="url(#p.0)">
    <path
       id="path5"
       fill-rule="nonzero"
       d="M 0,0 H 348 V 348 H 0 Z"
       fill-opacity="0"
       fill="#000000" />
    <path
       id="path7"
       fill-rule="nonzero"
       d="M -6,0 H 342 V 347.9685 H -6 Z"
       fill="#ffffff" />
    <path
       id="path9"
       fill-rule="nonzero"
       d="m 5.07874,5.7758217 h 336.9134 V 343.44512 H 5.07874 Z"
       fill-opacity="0"
       fill="#000000" />
    <path
       id="path11"
       fill-rule="nonzero"
       d="m 5.07874,5.7758217 h 336.9134 V 343.44512 H 5.07874 Z"
       stroke-linecap="butt"
       stroke-linejoin="round"
       stroke-width="2"
       stroke="#000000" />
    <path
       id="path13"
       fill-rule="nonzero"
       d="m 282.73444,40.553925 v 0 c 0,-8.375591 6.96603,-15.165352 15.55905,-15.165352 v 0 c 4.12653,0 8.08402,1.597773 11.00192,4.441828 2.91788,2.844057 4.55713,6.701422 4.55713,10.723524 v 0 c 0,8.375595 -6.966,15.165356 -15.55905,15.165356 v 0 c -8.59302,0 -15.55905,-6.789761 -15.55905,-15.165356 z"
       fill="#ffffff" />
    <path
       id="path15"
       fill-rule="nonzero"
       d="m 282.73444,40.553925 v 0 c 0,-8.375591 6.96603,-15.165352 15.55905,-15.165352 v 0 c 4.12653,0 8.08402,1.597773 11.00192,4.441828 2.91788,2.844057 4.55713,6.701422 4.55713,10.723524 v 0 c 0,8.375595 -6.966,15.165356 -15.55905,15.165356 v 0 c -8.59302,0 -15.55905,-6.789761 -15.55905,-15.165356 z"
       stroke-linecap="butt"
       stroke-linejoin="round"
       stroke-width="2"
       stroke="#000000" />
    <path
       id="path17"
       fill-rule="nonzero"
       d="M 34.771652,25.389738 H 267.18112 v 67.55905 H 34.771652 Z"
       fill="#000000" />
    <path
       id="path19"
       fill-rule="nonzero"
       d="M 34.771652,25.389738 H 267.18112 v 67.55905 H 34.771652 Z"
       stroke-linecap="butt"
       stroke-linejoin="round"
       stroke-width="2"
       stroke="#000000" />
    <path
       id="path21"
       fill-rule="nonzero"
       d="M 34.771652,202.31795 H 141.41733 v 44.81891 H 34.771652 Z"
       stroke-linecap="butt"
       stroke-linejoin="round"
       stroke-width="1"
       stroke="#000000" />
    <path
       id="path23"
       fill-rule="nonzero"
       d="M 34.771652,125.22639 H 141.41733 v 44.8189 H 34.771652 Z"
       fill-opacity="0"
       fill="#000000" />
    <path
       id="path25"
       fill-rule="nonzero"
       d="M 34.771652,125.22639 H 141.41733 v 44.8189 H 34.771652 Z"
       stroke-linecap="butt"
       stroke-linejoin="round"
       stroke-width="1"
       stroke="#000000" />
    <path
       id="path27"
       fill-rule="nonzero"
       d="M 34.771652,270.60397 H 141.41733 v 44.81891 H 34.771652 Z"
       fill-opacity="0"
       fill="#000000" />
    <path
       id="path29"
       fill-rule="nonzero"
       d="M 34.771652,270.60397 H 141.41733 v 44.81891 H 34.771652 Z"
       stroke-linecap="butt"
       stroke-linejoin="round"
       stroke-width="1"
       stroke="#000000" />
    <path
       id="path31"
       fill-rule="nonzero"
       d="m 157.40683,202.31795 h 106.64566 v 44.81891 H 157.40683 Z"
       fill-opacity="0"
       fill="#000000" />
    <path
       id="path33"
       fill-rule="nonzero"
       d="m 157.40683,202.31795 h 106.64566 v 44.81891 H 157.40683 Z"
       stroke-linecap="butt"
       stroke-linejoin="round"
       stroke-width="1"
       stroke="#000000" />
    <path
       id="path35"
       fill-rule="nonzero"
       d="m 157.40683,125.22639 h 106.64566 v 44.8189 H 157.40683 Z"
       fill-opacity="0"
       fill="#000000" />
    <path
       id="path37"
       fill-rule="nonzero"
       d="m 157.40683,125.22639 h 106.64566 v 44.8189 H 157.40683 Z"
       stroke-linecap="butt"
       stroke-linejoin="round"
       stroke-width="1"
       stroke="#000000" />
    <path
       id="path39"
       fill-rule="nonzero"
       d="m 157.40683,270.60397 h 106.64566 v 44.81891 H 157.40683 Z"
       fill-opacity="0"
       fill="#000000" />
    <path
       id="path41"
       fill-rule="nonzero"
       d="m 157.40683,270.60397 h 106.64566 v 44.81891 H 157.40683 Z"
       stroke-linecap="butt"
       stroke-linejoin="round"
       stroke-width="1"
       stroke="#000000" />
    <path
       id="path43"
       fill-rule="nonzero"
       d="m 277.46194,106.3832 h 52.66141 v 209.03937 h -52.66141 z"
       fill="#000000" />
    <path
       id="path45"
       fill-rule="nonzero"
       d="m 277.46194,106.3832 h 52.66141 v 209.03937 h -52.66141 z"
       stroke-linecap="butt"
       stroke-linejoin="round"
       stroke-width="2"
       stroke="#000000" />
    <path
       id="path47"
       fill-rule="nonzero"
       d="m 290.06036,245.11285 h 27.46457 v 16.47244 h -27.46457 z"
       fill="#ffffff" />
    <path
       id="path49"
       fill-rule="nonzero"
       d="m 290.06036,245.11285 h 27.46457 v 16.47244 h -27.46457 z"
       stroke-linecap="butt"
       stroke-linejoin="round"
       stroke-width="2"
       stroke="#000000" />
    <path
       id="path51"
       fill-rule="nonzero"
       d="m 290.06036,208.9029 h 27.46457 v 16.47243 h -27.46457 z"
       fill="#ffffff" />
    <path
       id="path53"
       fill-rule="nonzero"
       d="m 290.06036,208.9029 h 27.46457 v 16.47243 h -27.46457 z"
       stroke-linecap="butt"
       stroke-linejoin="round"
       stroke-width="2"
       stroke="#000000" />
    <path
       id="path55"
       fill-rule="nonzero"
       d="m 290.06036,281.32285 h 27.46457 v 16.47244 h -27.46457 z"
       fill="#ffffff" />
    <path
       id="path57"
       fill-rule="nonzero"
       d="m 290.06036,281.32285 h 27.46457 v 16.47244 h -27.46457 z"
       stroke-linecap="butt"
       stroke-linejoin="round"
       stroke-width="2"
       stroke="#000000" />
  </g>
  <g
     style="font-size:32px;font-family:'DejaVu Sans', sans-serif;text-anchor:middle;fill:#ffffff"
     id="text63"
     aria-label="[ MONITOR ]">
    <path
       id="path97"
       d="m 53.46875,45.6875 h 6.625 v 2.234375 h -3.75 v 24.0625 h 3.75 v 2.234375 h -6.625 z" />
    <path
       id="path99"
       d="M 76.546875,46.671875 H 81.25 l 5.953125,15.875 5.984375,-15.875 h 4.703125 V 70 H 94.8125 V 49.515625 l -6.015625,16 H 85.625 l -6.015625,-16 V 70 h -3.0625 z" />
    <path
       id="path101"
       d="m 113.64063,48.8125 q -3.4375,0 -5.46875,2.5625 -2.01563,2.5625 -2.01563,6.984375 0,4.40625 2.01563,6.96875 2.03125,2.5625 5.46875,2.5625 3.4375,0 5.4375,-2.5625 2.01562,-2.5625 2.01562,-6.96875 0,-4.421875 -2.01562,-6.984375 -2,-2.5625 -5.4375,-2.5625 z m 0,-2.5625 q 4.90625,0 7.84375,3.296875 2.9375,3.28125 2.9375,8.8125 0,5.515625 -2.9375,8.8125 -2.9375,3.28125 -7.84375,3.28125 -4.92188,0 -7.875,-3.28125 -2.9375,-3.28125 -2.9375,-8.8125 0,-5.53125 2.9375,-8.8125 2.95312,-3.296875 7.875,-3.296875 z" />
    <path
       id="path103"
       d="m 129.35937,46.671875 h 4.25 L 143.95312,66.1875 V 46.671875 h 3.0625 V 70 h -4.25 L 132.42187,50.484375 V 70 h -3.0625 z" />
    <path
       id="path105"
       d="m 153.29687,46.671875 h 3.15625 V 70 h -3.15625 z" />
    <path
       id="path107"
       d="m 159.5,46.671875 h 19.73437 v 2.65625 h -8.28125 V 70 h -3.17187 V 49.328125 H 159.5 Z" />
    <path
       id="path109"
       d="m 191.76562,48.8125 q -3.4375,0 -5.46875,2.5625 -2.01562,2.5625 -2.01562,6.984375 0,4.40625 2.01562,6.96875 2.03125,2.5625 5.46875,2.5625 3.4375,0 5.4375,-2.5625 2.01563,-2.5625 2.01563,-6.96875 0,-4.421875 -2.01563,-6.984375 -2,-2.5625 -5.4375,-2.5625 z m 0,-2.5625 q 4.90625,0 7.84375,3.296875 2.9375,3.28125 2.9375,8.8125 0,5.515625 -2.9375,8.8125 -2.9375,3.28125 -7.84375,3.28125 -4.92187,0 -7.875,-3.28125 -2.9375,-3.28125 -2.9375,-8.8125 0,-5.53125 2.9375,-8.8125 2.95313,-3.296875 7.875,-3.296875 z" />
    <path
       id="path111"
       d="m 218.54687,59.0625 q 1.01563,0.34375 1.96875,1.46875 0.96875,1.125 1.9375,3.09375 L 225.65625,70 h -3.39063 l -2.98437,-5.984375 q -1.15625,-2.34375 -2.25,-3.109375 -1.07813,-0.765625 -2.95313,-0.765625 h -3.4375 V 70 h -3.15625 V 46.671875 h 7.125 q 4,0 5.96875,1.671875 1.96875,1.671875 1.96875,5.046875 0,2.203125 -1.03125,3.65625 Q 220.5,58.5 218.54687,59.0625 Z m -7.90625,-9.796875 v 8.28125 h 3.96875 q 2.28125,0 3.4375,-1.046875 1.17188,-1.0625 1.17188,-3.109375 0,-2.046875 -1.17188,-3.078125 -1.15625,-1.046875 -3.4375,-1.046875 z" />
    <path
       id="path113"
       d="m 246.51562,45.6875 v 28.53125 h -6.625 v -2.234375 h 3.73438 v -24.0625 h -3.73438 V 45.6875 Z" />
  </g>
  <g
     style="font-size:20px;font-family:'DejaVu Sans', sans-serif;text-anchor:middle;fill:#000000"
     id="text67"
     aria-label="[ TEXTO ]">
    <path
       id="path116"
       d="m 41.433594,138.80469 h 4.140625 v 1.39648 h -2.34375 v 15.03906 h 2.34375 v 1.39649 h -4.140625 z" />
    <path
       id="path118"
       d="m 53.835937,139.41992 h 12.333985 v 1.66016 H 60.994141 V 154 h -1.982422 v -12.91992 h -5.175782 z" />
    <path
       id="path120"
       d="m 68.083984,139.41992 h 9.21875 v 1.66016 h -7.246093 v 4.3164 H 77 v 1.66016 h -6.943359 v 5.2832 h 7.421875 V 154 h -9.394532 z" />
    <path
       id="path122"
       d="m 80.037109,139.41992 h 2.119141 l 3.623047,5.41992 3.642578,-5.41992 h 2.119141 l -4.6875,7.00195 5,7.57813 H 89.734375 L 85.632812,147.79883 81.501953,154 h -2.128906 l 5.205078,-7.7832 z" />
    <path
       id="path124"
       d="m 92.078125,139.41992 h 12.333985 v 1.66016 H 99.236328 V 154 h -1.982422 v -12.91992 h -5.175781 z" />
    <path
       id="path126"
       d="m 112.24414,140.75781 q -2.14844,0 -3.41797,1.60156 -1.25976,1.60157 -1.25976,4.36524 0,2.75391 1.25976,4.35547 1.26953,1.60156 3.41797,1.60156 2.14844,0 3.39844,-1.60156 1.25976,-1.60156 1.25976,-4.35547 0,-2.76367 -1.25976,-4.36524 -1.25,-1.60156 -3.39844,-1.60156 z m 0,-1.60156 q 3.06641,0 4.90234,2.06055 1.83594,2.05078 1.83594,5.50781 0,3.44726 -1.83594,5.50781 -1.83593,2.05078 -4.90234,2.05078 -3.07617,0 -4.92187,-2.05078 -1.83594,-2.05078 -1.83594,-5.50781 0,-3.45703 1.83594,-5.50781 1.8457,-2.06055 4.92187,-2.06055 z" />
    <path
       id="path128"
       d="m 132.55664,138.80469 v 17.83203 h -4.14062 v -1.39649 H 130.75 v -15.03906 h -2.33398 v -1.39648 z" />
  </g>
  <g
     style="font-size:20px;font-family:'DejaVu Sans', sans-serif;text-anchor:middle;fill:#000000"
     id="text71"
     aria-label="[ TEXTO ]">
    <path
       id="path131"
       d="m 41.433594,215.80469 h 4.140625 v 1.39648 h -2.34375 v 15.03906 h 2.34375 v 1.39649 h -4.140625 z" />
    <path
       id="path133"
       d="m 53.835937,216.41992 h 12.333985 v 1.66016 H 60.994141 V 231 h -1.982422 v -12.91992 h -5.175782 z" />
    <path
       id="path135"
       d="m 68.083984,216.41992 h 9.21875 v 1.66016 h -7.246093 v 4.3164 H 77 v 1.66016 h -6.943359 v 5.2832 h 7.421875 V 231 h -9.394532 z" />
    <path
       id="path137"
       d="m 80.037109,216.41992 h 2.119141 l 3.623047,5.41992 3.642578,-5.41992 h 2.119141 l -4.6875,7.00195 5,7.57813 H 89.734375 L 85.632812,224.79883 81.501953,231 h -2.128906 l 5.205078,-7.7832 z" />
    <path
       id="path139"
       d="m 92.078125,216.41992 h 12.333985 v 1.66016 H 99.236328 V 231 h -1.982422 v -12.91992 h -5.175781 z" />
    <path
       id="path141"
       d="m 112.24414,217.75781 q -2.14844,0 -3.41797,1.60156 -1.25976,1.60157 -1.25976,4.36524 0,2.75391 1.25976,4.35547 1.26953,1.60156 3.41797,1.60156 2.14844,0 3.39844,-1.60156 1.25976,-1.60156 1.25976,-4.35547 0,-2.76367 -1.25976,-4.36524 -1.25,-1.60156 -3.39844,-1.60156 z m 0,-1.60156 q 3.06641,0 4.90234,2.06055 1.83594,2.05078 1.83594,5.50781 0,3.44726 -1.83594,5.50781 -1.83593,2.05078 -4.90234,2.05078 -3.07617,0 -4.92187,-2.05078 -1.83594,-2.05078 -1.83594,-5.50781 0,-3.45703 1.83594,-5.50781 1.8457,-2.06055 4.92187,-2.06055 z" />
    <path
       id="path143"
       d="m 132.55664,215.80469 v 17.83203 h -4.14062 v -1.39649 H 130.75 v -15.03906 h -2.33398 v -1.39648 z" />
  </g>
  <g
     style="font-size:20px;font-family:'DejaVu Sans', sans-serif;text-anchor:middle;fill:#000000"
     id="text75"
     aria-label="[ TEXTO ]">
    <path
       id="path146"
       d="m 41.433594,283.80469 h 4.140625 v 1.39648 h -2.34375 v 15.03906 h 2.34375 v 1.39649 h -4.140625 z" />
    <path
       id="path148"
       d="m 53.835937,284.41992 h 12.333985 v 1.66016 H 60.994141 V 299 h -1.982422 v -12.91992 h -5.175782 z" />
    <path
       id="path150"
       d="m 68.083984,284.41992 h 9.21875 v 1.66016 h -7.246093 v 4.3164 H 77 v 1.66016 h -6.943359 v 5.2832 h 7.421875 V 299 h -9.394532 z" />
    <path
       id="path152"
       d="m 80.037109,284.41992 h 2.119141 l 3.623047,5.41992 3.642578,-5.41992 h 2.119141 l -4.6875,7.00195 5,7.57813 H 89.734375 L 85.632812,292.79883 81.501953,299 h -2.128906 l 5.205078,-7.7832 z" />
    <path
       id="path154"
       d="m 92.078125,284.41992 h 12.333985 v 1.66016 H 99.236328 V 299 h -1.982422 v -12.91992 h -5.175781 z" />
    <path
       id="path156"
       d="m 112.24414,285.75781 q -2.14844,0 -3.41797,1.60156 -1.25976,1.60157 -1.25976,4.36524 0,2.75391 1.25976,4.35547 1.26953,1.60156 3.41797,1.60156 2.14844,0 3.39844,-1.60156 1.25976,-1.60156 1.25976,-4.35547 0,-2.76367 -1.25976,-4.36524 -1.25,-1.60156 -3.39844,-1.60156 z m 0,-1.60156 q 3.06641,0 4.90234,2.06055 1.83594,2.05078 1.83594,5.50781 0,3.44726 -1.83594,5.50781 -1.83593,2.05078 -4.90234,2.05078 -3.07617,0 -4.92187,-2.05078 -1.83594,-2.05078 -1.83594,-5.50781 0,-3.45703 1.83594,-5.50781 1.8457,-2.06055 4.92187,-2.06055 z" />
    <path
       id="path158"
       d="m 132.55664,283.80469 v 17.83203 h -4.14062 v -1.39649 H 130.75 v -15.03906 h -2.33398 v -1.39648 z" />
  </g>
  <g
     style="font-size:20px;font-family:'DejaVu Sans', sans-serif;text-anchor:middle;fill:#000000"
     id="text79"
     aria-label="[ TEXTO ]">
    <path
       id="path161"
       d="m 164.43359,138.80469 h 4.14063 v 1.39648 h -2.34375 v 15.03906 h 2.34375 v 1.39649 h -4.14063 z" />
    <path
       id="path163"
       d="m 176.83594,139.41992 h 12.33398 v 1.66016 h -5.17578 V 154 h -1.98242 v -12.91992 h -5.17578 z" />
    <path
       id="path165"
       d="m 191.08398,139.41992 h 9.21875 v 1.66016 h -7.24609 v 4.3164 H 200 v 1.66016 h -6.94336 v 5.2832 h 7.42188 V 154 h -9.39454 z" />
    <path
       id="path167"
       d="m 203.03711,139.41992 h 2.11914 l 3.62305,5.41992 3.64257,-5.41992 h 2.11915 l -4.6875,7.00195 5,7.57813 h -2.11915 L 208.63281,147.79883 204.50195,154 h -2.1289 l 5.20507,-7.7832 z" />
    <path
       id="path169"
       d="m 215.07812,139.41992 h 12.33399 v 1.66016 h -5.17578 V 154 h -1.98242 v -12.91992 h -5.17579 z" />
    <path
       id="path171"
       d="m 235.24414,140.75781 q -2.14844,0 -3.41797,1.60156 -1.25976,1.60157 -1.25976,4.36524 0,2.75391 1.25976,4.35547 1.26953,1.60156 3.41797,1.60156 2.14844,0 3.39844,-1.60156 1.25976,-1.60156 1.25976,-4.35547 0,-2.76367 -1.25976,-4.36524 -1.25,-1.60156 -3.39844,-1.60156 z m 0,-1.60156 q 3.06641,0 4.90234,2.06055 1.83594,2.05078 1.83594,5.50781 0,3.44726 -1.83594,5.50781 -1.83593,2.05078 -4.90234,2.05078 -3.07617,0 -4.92187,-2.05078 -1.83594,-2.05078 -1.83594,-5.50781 0,-3.45703 1.83594,-5.50781 1.8457,-2.06055 4.92187,-2.06055 z" />
    <path
       id="path173"
       d="m 255.55664,138.80469 v 17.83203 h -4.14062 v -1.39649 H 253.75 v -15.03906 h -2.33398 v -1.39648 z" />
  </g>
  <g
     style="font-size:20px;font-family:'DejaVu Sans', sans-serif;text-anchor:middle;fill:#000000"
     id="text83"
     aria-label="[ TEXTO ]">
    <path
       id="path176"
       d="m 164.43359,215.80469 h 4.14063 v 1.39648 h -2.34375 v 15.03906 h 2.34375 v 1.39649 h -4.14063 z" />
    <path
       id="path178"
       d="m 176.83594,216.41992 h 12.33398 v 1.66016 h -5.17578 V 231 h -1.98242 v -12.91992 h -5.17578 z" />
    <path
       id="path180"
       d="m 191.08398,216.41992 h 9.21875 v 1.66016 h -7.24609 v 4.3164 H 200 v 1.66016 h -6.94336 v 5.2832 h 7.42188 V 231 h -9.39454 z" />
    <path
       id="path182"
       d="m 203.03711,216.41992 h 2.11914 l 3.62305,5.41992 3.64257,-5.41992 h 2.11915 l -4.6875,7.00195 5,7.57813 h -2.11915 L 208.63281,224.79883 204.50195,231 h -2.1289 l 5.20507,-7.7832 z" />
    <path
       id="path184"
       d="m 215.07812,216.41992 h 12.33399 v 1.66016 h -5.17578 V 231 h -1.98242 v -12.91992 h -5.17579 z" />
    <path
       id="path186"
       d="m 235.24414,217.75781 q -2.14844,0 -3.41797,1.60156 -1.25976,1.60157 -1.25976,4.36524 0,2.75391 1.25976,4.35547 1.26953,1.60156 3.41797,1.60156 2.14844,0 3.39844,-1.60156 1.25976,-1.60156 1.25976,-4.35547 0,-2.76367 -1.25976,-4.36524 -1.25,-1.60156 -3.39844,-1.60156 z m 0,-1.60156 q 3.06641,0 4.90234,2.06055 1.83594,2.05078 1.83594,5.50781 0,3.44726 -1.83594,5.50781 -1.83593,2.05078 -4.90234,2.05078 -3.07617,0 -4.92187,-2.05078 -1.83594,-2.05078 -1.83594,-5.50781 0,-3.45703 1.83594,-5.50781 1.8457,-2.06055 4.92187,-2.06055 z" />
    <path
       id="path188"
       d="m 255.55664,215.80469 v 17.83203 h -4.14062 v -1.39649 H 253.75 v -15.03906 h -2.33398 v -1.39648 z" />
  </g>
  <g
     style="font-size:20px;font-family:'DejaVu Sans', sans-serif;text-anchor:middle;fill:#000000"
     id="text87"
     aria-label="[ TEXTO ]">
    <path
       id="path191"
       d="m 164.43359,283.80469 h 4.14063 v 1.39648 h -2.34375 v 15.03906 h 2.34375 v 1.39649 h -4.14063 z" />
    <path
       id="path193"
       d="m 176.83594,284.41992 h 12.33398 v 1.66016 h -5.17578 V 299 h -1.98242 v -12.91992 h -5.17578 z" />
    <path
       id="path195"
       d="m 191.08398,284.41992 h 9.21875 v 1.66016 h -7.24609 v 4.3164 H 200 v 1.66016 h -6.94336 v 5.2832 h 7.42188 V 299 h -9.39454 z" />
    <path
       id="path197"
       d="m 203.03711,284.41992 h 2.11914 l 3.62305,5.41992 3.64257,-5.41992 h 2.11915 l -4.6875,7.00195 5,7.57813 h -2.11915 L 208.63281,292.79883 204.50195,299 h -2.1289 l 5.20507,-7.7832 z" />
    <path
       id="path199"
       d="m 215.07812,284.41992 h 12.33399 v 1.66016 h -5.17578 V 299 h -1.98242 v -12.91992 h -5.17579 z" />
    <path
       id="path201"
       d="m 235.24414,285.75781 q -2.14844,0 -3.41797,1.60156 -1.25976,1.60157 -1.25976,4.36524 0,2.75391 1.25976,4.35547 1.26953,1.60156 3.41797,1.60156 2.14844,0 3.39844,-1.60156 1.25976,-1.60156 1.25976,-4.35547 0,-2.76367 -1.25976,-4.36524 -1.25,-1.60156 -3.39844,-1.60156 z m 0,-1.60156 q 3.06641,0 4.90234,2.06055 1.83594,2.05078 1.83594,5.50781 0,3.44726 -1.83594,5.50781 -1.83593,2.05078 -4.90234,2.05078 -3.07617,0 -4.92187,-2.05078 -1.83594,-2.05078 -1.83594,-5.50781 0,-3.45703 1.83594,-5.50781 1.8457,-2.06055 4.92187,-2.06055 z" />
    <path
       id="path203"
       d="m 255.55664,283.80469 v 17.83203 h -4.14062 v -1.39649 H 253.75 v -15.03906 h -2.33398 v -1.39648 z" />
  </g>
</svg>
