<?xml version="1.0" encoding="UTF-8" standalone="no"?>
<svg
   xmlns:dc="http://purl.org/dc/elements/1.1/"
   xmlns:cc="http://creativecommons.org/ns#"
   xmlns:rdf="http://www.w3.org/1999/02/22-rdf-syntax-ns#"
   xmlns:svg="http://www.w3.org/2000/svg"
   xmlns="http://www.w3.org/2000/svg"
   id="svg95"
   stroke-miterlimit="10"
   stroke-linecap="square"
   stroke="none"
   fill="none"
   viewBox="0.0 0.0 348.0 348.0"
   version="1.1">
  <metadata
     id="metadata101">
    <rdf:RDF>
      <cc:Work
         rdf:about="">
        <dc:format>image/svg+xml</dc:format>
        <dc:type
           rdf:resource="http://purl.org/dc/dcmitype/StillImage" />
      </cc:Work>
    </rdf:RDF>
  </metadata>
  <defs
     id="defs99" />
  <clipPath
     id="p.0">
    <path
       id="path2"
       clip-rule="nonzero"
       d="m0 0l348.0 0l0 348.0l-348.0 0l0 -348.0z" />
  </clipPath>
  <g
     id="g81"
     clip-path="url(#p.0)">
    <path
       style="fill:#000000;fill-opacity:0;fill-rule:nonzero"
       id="path5"
       d="M 0,0 H 348 V 348 H 0 Z" />
    <path
       style="fill:#ffffff;fill-rule:nonzero"
       id="path7"
       d="M -6,0 H 348.01575 V 347.9685 H -6 Z" />
    <path
       style="fill:#000000;fill-opacity:0;fill-rule:nonzero"
       id="path9"
       d="m 5.07874,5.7758217 h 336.9134 V 343.44512 H 5.07874 Z" />
    <path
       style="fill-rule:nonzero;stroke:#000000;stroke-width:2;stroke-linecap:butt;stroke-linejoin:round"
       id="path11"
       d="m 5.07874,5.7758217 h 336.9134 V 343.44512 H 5.07874 Z" />
    <path
       style="fill:#000000;fill-rule:nonzero"
       id="path13"
       d="m 133.84251,15.666667 h 74.33072 v 56.881886 h -74.33072 z" />
    <path
       style="fill:#ffffff;fill-rule:nonzero"
       id="path15"
       d="m 154.53912,44.089794 q 0,-4.0625 0.82812,-6.53125 0.84375,-2.484375 2.48438,-3.828125 1.65625,-1.34375 4.15625,-1.34375 1.84375,0 3.23437,0.75 1.39063,0.734375 2.29688,2.140625 0.90625,1.390625 1.42187,3.40625 0.51563,2 0.51563,5.40625 0,4.03125 -0.82813,6.515625 -0.82812,2.46875 -2.48437,3.828125 -1.64063,1.34375 -4.15625,1.34375 -3.3125,0 -5.20313,-2.375 -2.26562,-2.859375 -2.26562,-9.3125 z m 2.89062,0 q 0,5.640625 1.3125,7.515625 1.32813,1.859375 3.26563,1.859375 1.9375,0 3.25,-1.875 1.32812,-1.875 1.32812,-7.5 0,-5.65625 -1.32812,-7.515625 -1.3125,-1.859375 -3.28125,-1.859375 -1.9375,0 -3.09375,1.640625 -1.45313,2.09375 -1.45313,7.734375 z m 14.90625,0 q 0,-4.0625 0.82813,-6.53125 0.84375,-2.484375 2.48437,-3.828125 1.65625,-1.34375 4.15625,-1.34375 1.84375,0 3.23438,0.75 1.39062,0.734375 2.29687,2.140625 0.90625,1.390625 1.42188,3.40625 0.51562,2 0.51562,5.40625 0,4.03125 -0.82812,6.515625 -0.82813,2.46875 -2.48438,3.828125 -1.64062,1.34375 -4.15625,1.34375 -3.3125,0 -5.20312,-2.375 -2.26563,-2.859375 -2.26563,-9.3125 z m 2.89063,0 q 0,5.640625 1.3125,7.515625 1.32812,1.859375 3.26562,1.859375 1.9375,0 3.25,-1.875 1.32813,-1.875 1.32813,-7.5 0,-5.65625 -1.32813,-7.515625 -1.3125,-1.859375 -3.28125,-1.859375 -1.9375,0 -3.09375,1.640625 -1.45312,2.09375 -1.45312,7.734375 z" />
    <path
       style="fill:#ffffff;fill-rule:nonzero"
       id="path17"
       d="M 15.262467,17.706038 H 125.15223 v 54.83464 H 15.262467 Z" />
    <path
       style="fill-rule:nonzero;stroke:#000000;stroke-width:2;stroke-linecap:butt;stroke-linejoin:round"
       id="path19"
       d="M 15.262467,17.706038 H 125.15223 v 54.83464 H 15.262467 Z" />
    <path
       style="fill:#000000;fill-opacity:0;fill-rule:nonzero"
       id="path21"
       d="M 15.262467,72.65354 54.947507,18.5748" />
    <path
       style="fill-rule:nonzero;stroke:#000000;stroke-width:2;stroke-linecap:butt;stroke-linejoin:round"
       id="path23"
       d="M 15.262467,72.65354 54.947507,18.5748" />
    <path
       style="fill:#000000;fill-opacity:0;fill-rule:nonzero"
       id="path25"
       d="M 37.56649,72.65354 77.251533,18.5748" />
    <path
       style="fill-rule:nonzero;stroke:#000000;stroke-width:2;stroke-linecap:butt;stroke-linejoin:round"
       id="path27"
       d="M 37.56649,72.65354 77.251533,18.5748" />
    <path
       style="fill:#000000;fill-opacity:0;fill-rule:nonzero"
       id="path29"
       d="M 59.870514,72.65354 99.555557,18.5748" />
    <path
       style="fill-rule:nonzero;stroke:#000000;stroke-width:2;stroke-linecap:butt;stroke-linejoin:round"
       id="path31"
       d="M 59.870514,72.65354 99.555557,18.5748" />
    <path
       style="fill:#000000;fill-opacity:0;fill-rule:nonzero"
       id="path33"
       d="M 82.17454,72.65354 121.85958,18.5748" />
    <path
       style="fill-rule:nonzero;stroke:#000000;stroke-width:2;stroke-linecap:butt;stroke-linejoin:round"
       id="path35"
       d="M 82.17454,72.65354 121.85958,18.5748" />
    <path
       style="fill:#ffffff;fill-rule:nonzero"
       id="path37"
       d="M 32.97638,83.031494 H 315.02362 V 325.3937 H 32.97638 Z" />
    <path
       style="fill-rule:nonzero;stroke:#000000;stroke-width:2;stroke-linecap:butt;stroke-linejoin:round"
       id="path39"
       d="M 32.97638,83.031494 H 315.02362 V 325.3937 H 32.97638 Z" />
    <path
       style="fill:#ffffff;fill-rule:nonzero"
       id="path41"
       d="m 216.86351,16.633858 h 109.88975 v 54.83465 H 216.86351 Z" />
    <path
       style="fill-rule:nonzero;stroke:#000000;stroke-width:2;stroke-linecap:butt;stroke-linejoin:round"
       id="path43"
       d="m 216.86351,16.633858 h 109.88975 v 54.83465 H 216.86351 Z" />
    <path
       style="fill:#000000;fill-opacity:0;fill-rule:nonzero"
       id="path45"
       d="M 216.86351,71.58137 256.54855,17.502627" />
    <path
       style="fill-rule:nonzero;stroke:#000000;stroke-width:2;stroke-linecap:butt;stroke-linejoin:round"
       id="path47"
       d="M 216.86351,71.58137 256.54855,17.502627" />
    <path
       style="fill:#000000;fill-opacity:0;fill-rule:nonzero"
       id="path49"
       d="M 239.16754,71.58137 278.85257,17.502627" />
    <path
       style="fill-rule:nonzero;stroke:#000000;stroke-width:2;stroke-linecap:butt;stroke-linejoin:round"
       id="path51"
       d="M 239.16754,71.58137 278.85257,17.502627" />
    <path
       style="fill:#000000;fill-opacity:0;fill-rule:nonzero"
       id="path53"
       d="M 261.47156,71.58137 301.15662,17.502627" />
    <path
       style="fill-rule:nonzero;stroke:#000000;stroke-width:2;stroke-linecap:butt;stroke-linejoin:round"
       id="path55"
       d="M 261.47156,71.58137 301.15662,17.502627" />
    <path
       style="fill:#000000;fill-opacity:0;fill-rule:nonzero"
       id="path57"
       d="M 283.7756,71.58137 323.46063,17.502627" />
    <path
       style="fill-rule:nonzero;stroke:#000000;stroke-width:2;stroke-linecap:butt;stroke-linejoin:round"
       id="path59"
       d="M 283.7756,71.58137 323.46063,17.502627" />
    <path
       style="fill:#000000;fill-rule:nonzero"
       id="path61"
       d="M 44.490814,88.11811 H 303.48294 V 252.05512 H 44.490814 Z" />
    <path
       style="fill-rule:nonzero;stroke:#000000;stroke-width:1;stroke-linecap:butt;stroke-linejoin:round"
       id="path63"
       d="m 113.77165,267.51697 h 49.25984 v 45.48032 h -49.25984 z" />
    <path
       style="fill:#000000;fill-opacity:0;fill-rule:nonzero"
       id="path65"
       d="m 182.79527,267.51697 h 49.25984 v 45.48032 h -49.25984 z" />
    <path
       style="fill-rule:nonzero;stroke:#000000;stroke-width:1;stroke-linecap:butt;stroke-linejoin:round"
       id="path67"
       d="m 182.79527,267.51697 h 49.25984 v 45.48032 h -49.25984 z" />
    <path
       style="fill:#ffffff;fill-rule:nonzero"
       id="path69"
       d="m 260.08136,270.74014 h 36.72443 v 25.63782 h -36.72443 z" />
    <path
       style="fill-rule:nonzero;stroke:#000000;stroke-width:2;stroke-linecap:butt;stroke-linejoin:round"
       id="path71"
       d="m 260.08136,270.74014 h 36.72443 v 25.63782 h -36.72443 z" />
    <path
       style="fill:#ffffff;fill-rule:nonzero"
       id="path73"
       d="m 265.46457,305.50656 v 0 c 0,-2.35699 1.91071,-4.26773 4.2677,-4.26773 v 0 c 1.1319,0 2.21741,0.44965 3.01773,1.25 0.80035,0.80035 1.25,1.88586 1.25,3.01773 v 0 c 0,2.35699 -1.91074,4.26773 -4.26773,4.26773 v 0 c -2.35699,0 -4.2677,-1.91074 -4.2677,-4.26773 z" />
    <path
       style="fill-rule:nonzero;stroke:#000000;stroke-width:2;stroke-linecap:butt;stroke-linejoin:round"
       id="path75"
       d="m 265.46457,305.50656 v 0 c 0,-2.35699 1.91071,-4.26773 4.2677,-4.26773 v 0 c 1.1319,0 2.21741,0.44965 3.01773,1.25 0.80035,0.80035 1.25,1.88586 1.25,3.01773 v 0 c 0,2.35699 -1.91074,4.26773 -4.26773,4.26773 v 0 c -2.35699,0 -4.2677,-1.91074 -4.2677,-4.26773 z" />
    <path
       style="fill:#ffffff;fill-rule:nonzero"
       id="path77"
       d="m 282.8084,305.50656 v 0 c 0,-2.35699 1.91071,-4.26773 4.2677,-4.26773 v 0 c 1.13187,0 2.21738,0.44965 3.01773,1.25 0.80035,0.80035 1.25,1.88586 1.25,3.01773 v 0 c 0,2.35699 -1.91074,4.26773 -4.26773,4.26773 v 0 c -2.35699,0 -4.2677,-1.91074 -4.2677,-4.26773 z" />
    <path
       style="fill-rule:nonzero;stroke:#000000;stroke-width:2;stroke-linecap:butt;stroke-linejoin:round"
       id="path79"
       d="m 282.8084,305.50656 v 0 c 0,-2.35699 1.91071,-4.26773 4.2677,-4.26773 v 0 c 1.13187,0 2.21738,0.44965 3.01773,1.25 0.80035,0.80035 1.25,1.88586 1.25,3.01773 v 0 c 0,2.35699 -1.91074,4.26773 -4.26773,4.26773 v 0 c -2.35699,0 -4.2677,-1.91074 -4.2677,-4.26773 z" />
  </g>
  <g
     id="text85"
     style="font-size:42px;font-family:'DejaVu Sans', sans-serif;text-anchor:middle;fill:#ffffff"
     aria-label="[ טקסט ]">
    <path
       id="path103"
       style=""
       d="m 92.091797,106.08984 h 8.695313 v 2.93262 h -4.921876 v 31.58203 h 4.921876 v 2.93262 h -8.695313 z" />
    <path
       id="path105"
       style=""
       d="m 210.09375,115.03125 v 12.05859 q 0,2.37891 0.45117,4.04004 0.47168,1.66114 1.37403,2.6045 0.92285,0.92285 2.1123,1.333 1.18945,0.41016 2.83008,0.41016 1.64062,0 2.83008,-0.41016 1.18945,-0.41015 2.09179,-1.333 0.92285,-0.94336 1.37403,-2.6045 0.47168,-1.66113 0.47168,-4.04004 0,-2.31738 -0.20508,-3.91699 -0.18457,-1.62012 -0.67676,-2.8916 -0.49219,-1.29199 -1.41504,-1.90723 -0.92285,-0.63574 -2.29687,-0.63574 -1.35352,0 -3.26075,0.61524 v -2.93262 q 2.33789,-0.61524 4.12207,-0.61524 2.0918,0 3.56836,0.84082 1.47657,0.82032 2.33789,2.46094 0.86133,1.62012 1.23047,3.77344 0.38965,2.15332 0.38965,5.04492 0,6.15235 -2.58398,8.9209 -2.58399,2.74805 -7.97754,2.74805 -5.39356,0 -7.97754,-2.74805 -2.58399,-2.76855 -2.58399,-8.9209 v -11.89453 z" />
    <path
       id="path107"
       style=""
       d="m 180.84961,146.73633 v -22.76367 l -3.81445,1.55859 v 21.20508 z M 186.6123,138 l 8.28516,-20.03613 h -18.35449 v -2.91211 h 22.78418 v 2.25586 L 190.61133,138 Z" />
    <path
       id="path109"
       style=""
       d="m 149.28809,115.03125 h 9.9873 q 5.84473,0 8.49024,2.56348 2.6455,2.56347 2.6455,8.71582 0,6.23437 -2.625,9.26953 -2.625,3.01465 -7.93652,3.01465 -5.31152,0 -7.93652,-3.01465 -2.625,-3.03516 -2.625,-9.26953 z m 9.9873,3.1377 h -6.19336 v 8.30566 q 0,9.00293 6.76758,9.00293 6.76758,0 6.76758,-9.16699 0,-2.39942 -0.47168,-3.99903 -0.45117,-1.59961 -1.43555,-2.50195 -0.96387,-0.90234 -2.27637,-1.27148 -1.29199,-0.36914 -3.1582,-0.36914 z" />
    <path
       id="path111"
       style=""
       d="m 125.84766,115.03125 v 12.05859 q 0,2.37891 0.45117,4.04004 0.47168,1.66114 1.37402,2.6045 0.92285,0.92285 2.11231,1.333 1.18945,0.41016 2.83007,0.41016 1.64063,0 2.83008,-0.41016 1.18946,-0.41015 2.0918,-1.333 0.92285,-0.94336 1.37402,-2.6045 0.47168,-1.66113 0.47168,-4.04004 0,-2.31738 -0.20508,-3.91699 -0.18457,-1.62012 -0.67675,-2.8916 -0.49219,-1.29199 -1.41504,-1.90723 -0.92285,-0.63574 -2.29688,-0.63574 -1.35351,0 -3.26074,0.61524 v -2.93262 q 2.33789,-0.61524 4.12207,-0.61524 2.0918,0 3.56836,0.84082 1.47656,0.82032 2.33789,2.46094 0.86133,1.62012 1.23047,3.77344 0.38965,2.15332 0.38965,5.04492 0,6.15235 -2.58399,8.9209 -2.58398,2.74805 -7.97754,2.74805 -5.39355,0 -7.97753,-2.74805 -2.58399,-2.76855 -2.58399,-8.9209 v -11.89453 z" />
    <path
       id="path113"
       style=""
       d="m 255.8877,106.08984 v 37.44727 h -8.69532 v -2.93262 h 4.90137 v -31.58203 h -4.90137 v -2.93262 z" />
  </g>
  <g
     id="text89"
     style="font-size:24px;font-family:'DejaVu Sans', sans-serif;text-anchor:middle;fill:#000000"
     aria-label="ל">
    <path
       id="path116"
       style=""
       d="m 135.69141,297 4.73437,-11.44922 h -8.21484 v -6.04687 h 2.1914 v 4.37109 l 8.58985,0.0117 -0.0352,1.28906 L 137.97656,297 Z" />
  </g>
  <g
     id="text93"
     style="font-size:24px;font-family:'DejaVu Sans', sans-serif;text-anchor:middle;fill:#000000"
     aria-label="כ">
    <path
       id="path119"
       style=""
       d="m 202.67969,283.875 h 4.03125 q 1.37109,0 2.46094,0.375 1.10156,0.375 1.80468,1.00781 0.70313,0.6211 1.17188,1.47657 0.46875,0.85546 0.66797,1.78125 0.19922,0.91406 0.19922,1.92187 0,1.00781 -0.19922,1.93359 -0.19922,0.91407 -0.66797,1.76954 -0.46875,0.85546 -1.17188,1.48828 -0.70312,0.62109 -1.80468,0.99609 -1.08985,0.375 -2.46094,0.375 h -4.03125 v -1.66406 h 4.03125 q 1.17187,0 1.99219,-0.36328 0.83203,-0.36328 1.28906,-1.04297 0.45703,-0.69141 0.65625,-1.53516 0.19922,-0.85547 0.19922,-1.95703 0,-1.10156 -0.19922,-1.94531 -0.19922,-0.85547 -0.65625,-1.53516 -0.45703,-0.6914 -1.28906,-1.05469 -0.82032,-0.36328 -1.99219,-0.36328 h -4.03125 z" />
  </g>
</svg>
