<?xml version="1.0" encoding="UTF-8" standalone="no"?>
<svg
   xmlns:dc="http://purl.org/dc/elements/1.1/"
   xmlns:cc="http://creativecommons.org/ns#"
   xmlns:rdf="http://www.w3.org/1999/02/22-rdf-syntax-ns#"
   xmlns:svg="http://www.w3.org/2000/svg"
   xmlns="http://www.w3.org/2000/svg"
   id="svg111"
   stroke-miterlimit="10"
   stroke-linecap="square"
   stroke="none"
   fill="none"
   viewBox="0.0 0.0 348.0 348.0"
   version="1.1">
  <metadata
     id="metadata117">
    <rdf:RDF>
      <cc:Work
         rdf:about="">
        <dc:format>image/svg+xml</dc:format>
        <dc:type
           rdf:resource="http://purl.org/dc/dcmitype/StillImage" />
      </cc:Work>
    </rdf:RDF>
  </metadata>
  <defs
     id="defs115" />
  <clipPath
     id="p.0">
    <path
       id="path2"
       clip-rule="nonzero"
       d="m0 0l348.0 0l0 348.0l-348.0 0l0 -348.0z" />
  </clipPath>
  <g
     id="g85"
     clip-path="url(#p.0)">
    <path
       id="path5"
       fill-rule="evenodd"
       d="M 0,0 H 348 V 348 H 0 Z"
       fill-opacity="0"
       fill="#000000" />
    <path
       id="path7"
       fill-rule="evenodd"
       d="M -6,0 H 348.01575 V 347.9685 H -6 Z"
       fill="#ffffff" />
    <path
       id="path9"
       fill-rule="evenodd"
       d="m 5.07874,5.7758217 h 336.9134 V 343.4451 H 5.07874 Z"
       fill-opacity="0"
       fill="#000000" />
    <path
       id="path11"
       fill-rule="evenodd"
       d="m 5.07874,5.7758217 h 336.9134 V 343.4451 H 5.07874 Z"
       stroke-linecap="butt"
       stroke-linejoin="round"
       stroke-width="2"
       stroke="#000000" />
    <path
       id="path13"
       fill-rule="evenodd"
       d="m 282.73444,40.553925 v 0 c 0,-8.375591 6.96603,-15.165352 15.55905,-15.165352 v 0 c 4.12653,0 8.08402,1.597773 11.00192,4.441828 2.91788,2.844057 4.55713,6.701422 4.55713,10.723524 v 0 c 0,8.375595 -6.966,15.165356 -15.55905,15.165356 v 0 c -8.59302,0 -15.55905,-6.789761 -15.55905,-15.165356 z"
       fill="#ffffff" />
    <path
       id="path15"
       fill-rule="evenodd"
       d="m 282.73444,40.553925 v 0 c 0,-8.375591 6.96603,-15.165352 15.55905,-15.165352 v 0 c 4.12653,0 8.08402,1.597773 11.00192,4.441828 2.91788,2.844057 4.55713,6.701422 4.55713,10.723524 v 0 c 0,8.375595 -6.966,15.165356 -15.55905,15.165356 v 0 c -8.59302,0 -15.55905,-6.789761 -15.55905,-15.165356 z"
       stroke-linecap="butt"
       stroke-linejoin="round"
       stroke-width="2"
       stroke="#000000" />
    <path
       id="path17"
       fill-rule="evenodd"
       d="M 50.949955,90.04964 60.41452,72.726802 69.879089,90.04964 Z"
       fill="#000000" />
    <path
       id="path19"
       fill-rule="evenodd"
       d="M 50.949955,90.04964 60.41452,72.726802 69.879089,90.04964 Z"
       stroke-linecap="butt"
       stroke-linejoin="round"
       stroke-width="2"
       stroke="#000000" />
    <path
       id="path21"
       fill-rule="evenodd"
       d="m 122.04724,268.00525 h 97.92126 v 41.88977 h -97.92126 z"
       fill-opacity="0"
       fill="#000000" />
    <path
       id="path23"
       fill-rule="evenodd"
       d="m 122.04724,268.00525 h 97.92126 v 41.88977 h -97.92126 z"
       stroke-linecap="butt"
       stroke-linejoin="round"
       stroke-width="2"
       stroke="#000000" />
    <path
       id="path25"
       fill-rule="evenodd"
       d="M 29.517061,106.30446 H 289.61154 v 96.81889 H 29.517061 Z"
       fill="#000000" />
    <path
       id="path27"
       fill-rule="evenodd"
       d="M 29.517061,106.30446 H 289.61154 v 96.81889 H 29.517061 Z"
       stroke-linecap="butt"
       stroke-linejoin="round"
       stroke-width="2"
       stroke="#000000" />
    <path
       id="path29"
       fill-rule="evenodd"
       d="m 35.627296,113.07874 h 49.574806 v 82.14173 H 35.627296 Z"
       fill="#ffffff" />
    <path
       id="path31"
       fill-rule="evenodd"
       d="m 35.627296,113.07874 h 49.574806 v 82.14173 H 35.627296 Z"
       stroke-linecap="butt"
       stroke-linejoin="round"
       stroke-width="1"
       stroke="#000000" />
    <path
       id="path33"
       fill-rule="evenodd"
       d="m 85.2021,113.07874 h 49.5748 v 82.14173 H 85.2021 Z"
       fill="#ffffff" />
    <path
       id="path35"
       fill-rule="evenodd"
       d="m 85.2021,113.07874 h 49.5748 v 82.14173 H 85.2021 Z"
       stroke-linecap="butt"
       stroke-linejoin="round"
       stroke-width="1"
       stroke="#000000" />
    <path
       id="path37"
       fill-rule="evenodd"
       d="m 134.77843,113.07874 h 49.5748 v 82.14173 h -49.5748 z"
       fill="#ffffff" />
    <path
       id="path39"
       fill-rule="evenodd"
       d="m 134.77843,113.07874 h 49.5748 v 82.14173 h -49.5748 z"
       stroke-linecap="butt"
       stroke-linejoin="round"
       stroke-width="1"
       stroke="#000000" />
    <path
       id="path41"
       fill-rule="evenodd"
       d="m 184.35214,113.07874 h 49.5748 v 82.14173 h -49.5748 z"
       fill="#ffffff" />
    <path
       id="path43"
       fill-rule="evenodd"
       d="m 184.35214,113.07874 h 49.5748 v 82.14173 h -49.5748 z"
       stroke-linecap="butt"
       stroke-linejoin="round"
       stroke-width="1"
       stroke="#000000" />
    <path
       id="path45"
       fill-rule="evenodd"
       d="m 233.9265,113.07874 h 49.57481 v 82.14173 H 233.9265 Z"
       fill="#ffffff" />
    <path
       id="path47"
       fill-rule="evenodd"
       d="m 233.9265,113.07874 h 49.57481 v 82.14173 H 233.9265 Z"
       stroke-linecap="butt"
       stroke-linejoin="round"
       stroke-width="1"
       stroke="#000000" />
    <path
       id="path49"
       fill-rule="evenodd"
       d="m 100.52476,90.04964 9.46457,-17.322838 9.46457,17.322838 z"
       fill="#000000" />
    <path
       id="path51"
       fill-rule="evenodd"
       d="m 100.52476,90.04964 9.46457,-17.322838 9.46457,17.322838 z"
       stroke-linecap="butt"
       stroke-linejoin="round"
       stroke-width="2"
       stroke="#000000" />
    <path
       id="path53"
       fill-rule="evenodd"
       d="m 150.09956,90.04964 9.46457,-17.322838 9.46457,17.322838 z"
       fill="#000000" />
    <path
       id="path55"
       fill-rule="evenodd"
       d="m 150.09956,90.04964 9.46457,-17.322838 9.46457,17.322838 z"
       stroke-linecap="butt"
       stroke-linejoin="round"
       stroke-width="2"
       stroke="#000000" />
    <path
       id="path57"
       fill-rule="evenodd"
       d="m 199.67436,90.04964 9.46457,-17.322838 9.46457,17.322838 z"
       fill="#000000" />
    <path
       id="path59"
       fill-rule="evenodd"
       d="m 199.67436,90.04964 9.46457,-17.322838 9.46457,17.322838 z"
       stroke-linecap="butt"
       stroke-linejoin="round"
       stroke-width="2"
       stroke="#000000" />
    <path
       id="path61"
       fill-rule="evenodd"
       d="m 249.24916,90.04964 9.46458,-17.322838 9.46457,17.322838 z"
       fill="#000000" />
    <path
       id="path63"
       fill-rule="evenodd"
       d="m 249.24916,90.04964 9.46458,-17.322838 9.46457,17.322838 z"
       stroke-linecap="butt"
       stroke-linejoin="round"
       stroke-width="2"
       stroke="#000000" />
    <path
       id="path65"
       fill-rule="evenodd"
       d="m 268.1783,219.37772 -9.46457,17.32284 -9.46458,-17.32284 z"
       fill="#000000" />
    <path
       id="path67"
       fill-rule="evenodd"
       d="m 268.1783,219.37772 -9.46457,17.32284 -9.46458,-17.32284 z"
       stroke-linecap="butt"
       stroke-linejoin="round"
       stroke-width="2"
       stroke="#000000" />
    <path
       id="path69"
       fill-rule="evenodd"
       d="m 218.6035,219.37772 -9.46457,17.32284 -9.46457,-17.32284 z"
       fill="#000000" />
    <path
       id="path71"
       fill-rule="evenodd"
       d="m 218.6035,219.37772 -9.46457,17.32284 -9.46457,-17.32284 z"
       stroke-linecap="butt"
       stroke-linejoin="round"
       stroke-width="2"
       stroke="#000000" />
    <path
       id="path73"
       fill-rule="evenodd"
       d="m 169.0287,219.37772 -9.46457,17.32284 -9.46457,-17.32284 z"
       fill="#000000" />
    <path
       id="path75"
       fill-rule="evenodd"
       d="m 169.0287,219.37772 -9.46457,17.32284 -9.46457,-17.32284 z"
       stroke-linecap="butt"
       stroke-linejoin="round"
       stroke-width="2"
       stroke="#000000" />
    <path
       id="path77"
       fill-rule="evenodd"
       d="m 119.4539,219.37772 -9.46457,17.32284 -9.46457,-17.32284 z"
       fill="#000000" />
    <path
       id="path79"
       fill-rule="evenodd"
       d="m 119.4539,219.37772 -9.46457,17.32284 -9.46457,-17.32284 z"
       stroke-linecap="butt"
       stroke-linejoin="round"
       stroke-width="2"
       stroke="#000000" />
    <path
       id="path81"
       fill-rule="evenodd"
       d="m 69.87909,219.37772 -9.464569,17.32284 -9.464565,-17.32284 z"
       fill="#000000" />
    <path
       id="path83"
       fill-rule="evenodd"
       d="m 69.87909,219.37772 -9.464569,17.32284 -9.464565,-17.32284 z"
       stroke-linecap="butt"
       stroke-linejoin="round"
       stroke-width="2"
       stroke="#000000" />
  </g>
  <g
     style="font-size:20px;font-family:'DejaVu Sans', sans-serif;text-anchor:middle;fill:#000000"
     id="text89"
     aria-label="שליחה">
    <path
       id="path119"
       d="m 189.125,296 h -1.83594 l -1.5039,-10.9375 h 1.80664 l 0.71289,5.14648 q 0.46875,-0.01 0.83008,-0.0781 0.37109,-0.0781 0.64453,-0.23438 0.27343,-0.16601 0.46875,-0.33203 0.19531,-0.17578 0.33203,-0.48828 0.14648,-0.3125 0.22461,-0.5664 0.0879,-0.26368 0.15625,-0.7129 0.0781,-0.45898 0.11718,-0.79101 0.0391,-0.3418 0.0977,-0.92774 0.0684,-0.5957 0.12695,-1.01562 h 1.61133 q -0.17578,2.53906 -0.41015,3.54492 -0.40039,1.66992 -1.45508,2.34375 -0.92774,0.5957 -2.5586,0.6543 l 0.41993,2.99805 q 0.95703,0 1.68945,-0.0684 0.74219,-0.0781 1.45508,-0.27344 0.71289,-0.19531 1.23047,-0.51758 0.52734,-0.33203 1.00586,-0.83984 0.48828,-0.51758 0.82031,-1.23047 0.34179,-0.71289 0.61523,-1.66992 0.27344,-0.9668 0.43946,-2.1875 0.16601,-1.22071 0.26367,-2.75391 h 1.80664 q -0.17578,1.62109 -0.38086,2.85156 -0.20508,1.23047 -0.50781,2.34375 -0.29297,1.11328 -0.66407,1.91406 -0.36132,0.79102 -0.8789,1.46485 -0.50782,0.66406 -1.14258,1.09375 -0.625,0.41992 -1.46484,0.72265 -0.83008,0.29297 -1.82618,0.41993 Q 190.38477,296 189.125,296 Z" />
    <path
       id="path121"
       d="m 177.31836,296 3.94531,-9.54102 h -6.8457 v -5.03906 h 1.82617 v 3.64258 l 7.1582,0.01 -0.0293,1.07421 L 179.22266,296 Z" />
    <path
       id="path123"
       d="m 172.21094,285.0625 v 6.11328 l -1.81641,0.74219 v -6.85547 z" />
    <path
       id="path125"
       d="M 167.23047,290.08203 V 296 h -1.81641 v -6.18164 q 0,-1.93359 -0.63476,-2.64649 -0.63477,-0.71289 -2.43164,-0.71289 h -2.74414 V 296 h -1.80665 v -10.9375 h 4.53125 q 2.69532,0 3.79883,1.17187 1.10352,1.17188 1.10352,3.84766 z" />
    <path
       id="path127"
       d="M 146.72266,289.32031 V 296 h -1.80664 v -5.9375 z m 7.42187,1.11328 V 296 h -1.80664 v -5.9375 q 0,-2.10938 -0.63477,-2.85156 -0.625,-0.75196 -2.4414,-0.75196 h -4.55078 v -1.39648 h 4.53125 q 2.70508,0 3.79883,1.2207 1.10351,1.22071 1.10351,4.15039 z" />
  </g>
  <g
     style="font-size:42px;font-family:'DejaVu Sans', sans-serif;text-anchor:middle;fill:#000000"
     id="text93"
     aria-label="א">
    <path
       id="path130"
       d="M 64.347656,161.57129 70.192383,170 h -4.450196 l -8.53125,-12.30469 q -0.574218,0.28711 -0.943359,0.5127 -0.348633,0.20508 -0.922851,0.75879 -0.574219,0.5332 -0.922852,1.20996 -0.328125,0.65625 -0.594727,1.78418 -0.266601,1.12793 -0.266601,2.54297 V 170 h -3.773438 v -3.79395 q 0,-1.66113 0.205078,-3.07617 0.205079,-1.41504 0.512696,-2.39941 0.328125,-0.98438 0.84082,-1.80469 0.512695,-0.84082 0.963867,-1.35351 0.47168,-0.5127 1.12793,-0.96387 0.676758,-0.45117 1.12793,-0.65625 0.451172,-0.22559 1.086914,-0.49219 l -5.824219,-8.42871 h 4.450195 l 8.53125,12.30469 q 0.553711,-0.2666 0.902344,-0.47168 0.369141,-0.22559 0.943359,-0.7793 0.574219,-0.55371 0.922852,-1.20996 0.348633,-0.67676 0.615234,-1.80469 0.266602,-1.12793 0.266602,-2.54297 v -5.49609 h 3.773437 v 3.79395 q 0,1.68164 -0.205078,3.09667 -0.205078,1.39454 -0.533203,2.39942 -0.307617,0.98437 -0.820312,1.82519 -0.512696,0.82032 -0.984375,1.33301 -0.47168,0.49219 -1.12793,0.94336 -0.65625,0.45117 -1.107422,0.67676 -0.451172,0.20508 -1.107422,0.47168 z" />
  </g>
  <g
     style="font-size:42px;font-family:'DejaVu Sans', sans-serif;text-anchor:middle;fill:#000000"
     id="text97"
     aria-label="א">
    <path
       id="path133"
       d="M 114.34766,161.57129 120.19238,170 h -4.45019 l -8.53125,-12.30469 q -0.57422,0.28711 -0.94336,0.5127 -0.34863,0.20508 -0.92285,0.75879 -0.57422,0.5332 -0.92285,1.20996 -0.32813,0.65625 -0.59473,1.78418 -0.2666,1.12793 -0.2666,2.54297 V 170 h -3.773441 v -3.79395 q 0,-1.66113 0.205078,-3.07617 0.205083,-1.41504 0.512693,-2.39941 0.32813,-0.98438 0.84082,-1.80469 0.5127,-0.84082 0.96387,-1.35351 0.47168,-0.5127 1.12793,-0.96387 0.67676,-0.45117 1.12793,-0.65625 0.45117,-0.22559 1.08691,-0.49219 l -5.824215,-8.42871 h 4.450195 l 8.53125,12.30469 q 0.55371,-0.2666 0.90234,-0.47168 0.36914,-0.22559 0.94336,-0.7793 0.57422,-0.55371 0.92286,-1.20996 0.34863,-0.67676 0.61523,-1.80469 0.2666,-1.12793 0.2666,-2.54297 v -5.49609 h 3.77344 v 3.79395 q 0,1.68164 -0.20508,3.09667 -0.20508,1.39454 -0.5332,2.39942 -0.30762,0.98437 -0.82032,1.82519 -0.51269,0.82032 -0.98437,1.33301 -0.47168,0.49219 -1.12793,0.94336 -0.65625,0.45117 -1.10742,0.67676 -0.45117,0.20508 -1.10742,0.47168 z" />
  </g>
  <g
     style="font-size:42px;font-family:'DejaVu Sans', sans-serif;text-anchor:middle;fill:#000000"
     id="text101"
     aria-label="א">
    <path
       id="path136"
       d="M 164.34766,161.57129 170.19238,170 h -4.45019 l -8.53125,-12.30469 q -0.57422,0.28711 -0.94336,0.5127 -0.34863,0.20508 -0.92285,0.75879 -0.57422,0.5332 -0.92286,1.20996 -0.32812,0.65625 -0.59472,1.78418 -0.2666,1.12793 -0.2666,2.54297 V 170 h -3.77344 v -3.79395 q 0,-1.66113 0.20508,-3.07617 0.20508,-1.41504 0.51269,-2.39941 0.32813,-0.98438 0.84082,-1.80469 0.5127,-0.84082 0.96387,-1.35351 0.47168,-0.5127 1.12793,-0.96387 0.67676,-0.45117 1.12793,-0.65625 0.45117,-0.22559 1.08691,-0.49219 l -5.82422,-8.42871 h 4.4502 l 8.53125,12.30469 q 0.55371,-0.2666 0.90234,-0.47168 0.36914,-0.22559 0.94336,-0.7793 0.57422,-0.55371 0.92285,-1.20996 0.34864,-0.67676 0.61524,-1.80469 0.2666,-1.12793 0.2666,-2.54297 v -5.49609 h 3.77344 v 3.79395 q 0,1.68164 -0.20508,3.09667 -0.20508,1.39454 -0.5332,2.39942 -0.30762,0.98437 -0.82032,1.82519 -0.51269,0.82032 -0.98437,1.33301 -0.47168,0.49219 -1.12793,0.94336 -0.65625,0.45117 -1.10742,0.67676 -0.45117,0.20508 -1.10742,0.47168 z" />
  </g>
  <g
     style="font-size:42px;font-family:'DejaVu Sans', sans-serif;text-anchor:middle;fill:#000000"
     id="text105"
     aria-label="א">
    <path
       id="path139"
       d="M 214.34766,161.57129 220.19238,170 h -4.45019 l -8.53125,-12.30469 q -0.57422,0.28711 -0.94336,0.5127 -0.34863,0.20508 -0.92285,0.75879 -0.57422,0.5332 -0.92286,1.20996 -0.32812,0.65625 -0.59472,1.78418 -0.2666,1.12793 -0.2666,2.54297 V 170 h -3.77344 v -3.79395 q 0,-1.66113 0.20508,-3.07617 0.20508,-1.41504 0.51269,-2.39941 0.32813,-0.98438 0.84082,-1.80469 0.5127,-0.84082 0.96387,-1.35351 0.47168,-0.5127 1.12793,-0.96387 0.67676,-0.45117 1.12793,-0.65625 0.45117,-0.22559 1.08691,-0.49219 l -5.82422,-8.42871 h 4.4502 l 8.53125,12.30469 q 0.55371,-0.2666 0.90234,-0.47168 0.36914,-0.22559 0.94336,-0.7793 0.57422,-0.55371 0.92285,-1.20996 0.34864,-0.67676 0.61524,-1.80469 0.2666,-1.12793 0.2666,-2.54297 v -5.49609 h 3.77344 v 3.79395 q 0,1.68164 -0.20508,3.09667 -0.20508,1.39454 -0.5332,2.39942 -0.30762,0.98437 -0.82032,1.82519 -0.51269,0.82032 -0.98437,1.33301 -0.47168,0.49219 -1.12793,0.94336 -0.65625,0.45117 -1.10742,0.67676 -0.45117,0.20508 -1.10742,0.47168 z" />
  </g>
  <g
     style="font-size:42px;font-family:'DejaVu Sans', sans-serif;text-anchor:middle;fill:#000000"
     id="text109"
     aria-label="א">
    <path
       id="path142"
       d="M 264.34766,161.57129 270.19238,170 h -4.45019 l -8.53125,-12.30469 q -0.57422,0.28711 -0.94336,0.5127 -0.34863,0.20508 -0.92285,0.75879 -0.57422,0.5332 -0.92286,1.20996 -0.32812,0.65625 -0.59472,1.78418 -0.2666,1.12793 -0.2666,2.54297 V 170 h -3.77344 v -3.79395 q 0,-1.66113 0.20508,-3.07617 0.20508,-1.41504 0.51269,-2.39941 0.32813,-0.98438 0.84082,-1.80469 0.5127,-0.84082 0.96387,-1.35351 0.47168,-0.5127 1.12793,-0.96387 0.67676,-0.45117 1.12793,-0.65625 0.45117,-0.22559 1.08691,-0.49219 l -5.82422,-8.42871 h 4.4502 l 8.53125,12.30469 q 0.55371,-0.2666 0.90234,-0.47168 0.36914,-0.22559 0.94336,-0.7793 0.57422,-0.55371 0.92285,-1.20996 0.34864,-0.67676 0.61524,-1.80469 0.2666,-1.12793 0.2666,-2.54297 v -5.49609 h 3.77344 v 3.79395 q 0,1.68164 -0.20508,3.09667 -0.20508,1.39454 -0.5332,2.39942 -0.30762,0.98437 -0.82032,1.82519 -0.51269,0.82032 -0.98437,1.33301 -0.47168,0.49219 -1.12793,0.94336 -0.65625,0.45117 -1.10742,0.67676 -0.45117,0.20508 -1.10742,0.47168 z" />
  </g>
</svg>
