<?xml version="1.0" encoding="UTF-8" standalone="no"?>
<svg
   xmlns:dc="http://purl.org/dc/elements/1.1/"
   xmlns:cc="http://creativecommons.org/ns#"
   xmlns:rdf="http://www.w3.org/1999/02/22-rdf-syntax-ns#"
   xmlns:svg="http://www.w3.org/2000/svg"
   xmlns="http://www.w3.org/2000/svg"
   id="svg89"
   stroke-miterlimit="10"
   stroke-linecap="square"
   stroke="none"
   fill="none"
   viewBox="0.0 0.0 348.0 348.0"
   version="1.1">
  <metadata
     id="metadata95">
    <rdf:RDF>
      <cc:Work
         rdf:about="">
        <dc:format>image/svg+xml</dc:format>
        <dc:type
           rdf:resource="http://purl.org/dc/dcmitype/StillImage" />
      </cc:Work>
    </rdf:RDF>
  </metadata>
  <defs
     id="defs93" />
  <clipPath
     id="p.0">
    <path
       id="path2"
       clip-rule="nonzero"
       d="m0 0l348.0 0l0 348.0l-348.0 0l0 -348.0z" />
  </clipPath>
  <g
     id="g59"
     clip-path="url(#p.0)">
    <path
       id="path5"
       fill-rule="nonzero"
       d="M 0,0 H 348 V 348 H 0 Z"
       fill-opacity="0"
       fill="#000000" />
    <path
       id="path7"
       fill-rule="nonzero"
       d="M -6,0 H 342 V 347.9685 H -6 Z"
       fill="#ffffff" />
    <path
       id="path9"
       fill-rule="nonzero"
       d="m 5.07874,5.7758217 h 336.9134 V 343.44512 H 5.07874 Z"
       fill-opacity="0"
       fill="#000000" />
    <path
       id="path11"
       fill-rule="nonzero"
       d="m 5.07874,5.7758217 h 336.9134 V 343.44512 H 5.07874 Z"
       stroke-linecap="butt"
       stroke-linejoin="round"
       stroke-width="2"
       stroke="#000000" />
    <path
       id="path13"
       fill-rule="nonzero"
       d="m 282.73444,40.553925 v 0 c 0,-8.375591 6.96603,-15.165352 15.55905,-15.165352 v 0 c 4.12653,0 8.08402,1.597773 11.00192,4.441828 2.91788,2.844057 4.55713,6.701422 4.55713,10.723524 v 0 c 0,8.375595 -6.966,15.165356 -15.55905,15.165356 v 0 c -8.59302,0 -15.55905,-6.789761 -15.55905,-15.165356 z"
       fill="#ffffff" />
    <path
       id="path15"
       fill-rule="nonzero"
       d="m 282.73444,40.553925 v 0 c 0,-8.375591 6.96603,-15.165352 15.55905,-15.165352 v 0 c 4.12653,0 8.08402,1.597773 11.00192,4.441828 2.91788,2.844057 4.55713,6.701422 4.55713,10.723524 v 0 c 0,8.375595 -6.966,15.165356 -15.55905,15.165356 v 0 c -8.59302,0 -15.55905,-6.789761 -15.55905,-15.165356 z"
       stroke-linecap="butt"
       stroke-linejoin="round"
       stroke-width="2"
       stroke="#000000" />
    <path
       id="path17"
       fill-rule="nonzero"
       d="M 34.771652,25.389738 H 267.18112 v 67.55905 H 34.771652 Z"
       fill="#000000" />
    <path
       id="path19"
       fill-rule="nonzero"
       d="M 34.771652,25.389738 H 267.18112 v 67.55905 H 34.771652 Z"
       stroke-linecap="butt"
       stroke-linejoin="round"
       stroke-width="2"
       stroke="#000000" />
    <path
       id="path21"
       fill-rule="nonzero"
       d="M 34.771652,202.31795 H 141.41733 v 44.81891 H 34.771652 Z"
       stroke-linecap="butt"
       stroke-linejoin="round"
       stroke-width="1"
       stroke="#000000" />
    <path
       id="path23"
       fill-rule="nonzero"
       d="M 34.771652,125.22639 H 141.41733 v 44.8189 H 34.771652 Z"
       fill-opacity="0"
       fill="#000000" />
    <path
       id="path25"
       fill-rule="nonzero"
       d="M 34.771652,125.22639 H 141.41733 v 44.8189 H 34.771652 Z"
       stroke-linecap="butt"
       stroke-linejoin="round"
       stroke-width="1"
       stroke="#000000" />
    <path
       id="path27"
       fill-rule="nonzero"
       d="M 34.771652,270.60397 H 141.41733 v 44.81891 H 34.771652 Z"
       fill-opacity="0"
       fill="#000000" />
    <path
       id="path29"
       fill-rule="nonzero"
       d="M 34.771652,270.60397 H 141.41733 v 44.81891 H 34.771652 Z"
       stroke-linecap="butt"
       stroke-linejoin="round"
       stroke-width="1"
       stroke="#000000" />
    <path
       id="path31"
       fill-rule="nonzero"
       d="m 157.40683,202.31795 h 106.64566 v 44.81891 H 157.40683 Z"
       fill-opacity="0"
       fill="#000000" />
    <path
       id="path33"
       fill-rule="nonzero"
       d="m 157.40683,202.31795 h 106.64566 v 44.81891 H 157.40683 Z"
       stroke-linecap="butt"
       stroke-linejoin="round"
       stroke-width="1"
       stroke="#000000" />
    <path
       id="path35"
       fill-rule="nonzero"
       d="m 157.40683,125.22639 h 106.64566 v 44.8189 H 157.40683 Z"
       fill-opacity="0"
       fill="#000000" />
    <path
       id="path37"
       fill-rule="nonzero"
       d="m 157.40683,125.22639 h 106.64566 v 44.8189 H 157.40683 Z"
       stroke-linecap="butt"
       stroke-linejoin="round"
       stroke-width="1"
       stroke="#000000" />
    <path
       id="path39"
       fill-rule="nonzero"
       d="m 157.40683,270.60397 h 106.64566 v 44.81891 H 157.40683 Z"
       fill-opacity="0"
       fill="#000000" />
    <path
       id="path41"
       fill-rule="nonzero"
       d="m 157.40683,270.60397 h 106.64566 v 44.81891 H 157.40683 Z"
       stroke-linecap="butt"
       stroke-linejoin="round"
       stroke-width="1"
       stroke="#000000" />
    <path
       id="path43"
       fill-rule="nonzero"
       d="m 277.46194,106.3832 h 52.66141 v 209.03937 h -52.66141 z"
       fill="#000000" />
    <path
       id="path45"
       fill-rule="nonzero"
       d="m 277.46194,106.3832 h 52.66141 v 209.03937 h -52.66141 z"
       stroke-linecap="butt"
       stroke-linejoin="round"
       stroke-width="2"
       stroke="#000000" />
    <path
       id="path47"
       fill-rule="nonzero"
       d="m 290.06036,245.11285 h 27.46457 v 16.47244 h -27.46457 z"
       fill="#ffffff" />
    <path
       id="path49"
       fill-rule="nonzero"
       d="m 290.06036,245.11285 h 27.46457 v 16.47244 h -27.46457 z"
       stroke-linecap="butt"
       stroke-linejoin="round"
       stroke-width="2"
       stroke="#000000" />
    <path
       id="path51"
       fill-rule="nonzero"
       d="m 290.06036,208.9029 h 27.46457 v 16.47243 h -27.46457 z"
       fill="#ffffff" />
    <path
       id="path53"
       fill-rule="nonzero"
       d="m 290.06036,208.9029 h 27.46457 v 16.47243 h -27.46457 z"
       stroke-linecap="butt"
       stroke-linejoin="round"
       stroke-width="2"
       stroke="#000000" />
    <path
       id="path55"
       fill-rule="nonzero"
       d="m 290.06036,281.32285 h 27.46457 v 16.47244 h -27.46457 z"
       fill="#ffffff" />
    <path
       id="path57"
       fill-rule="nonzero"
       d="m 290.06036,281.32285 h 27.46457 v 16.47244 h -27.46457 z"
       stroke-linecap="butt"
       stroke-linejoin="round"
       stroke-width="2"
       stroke="#000000" />
  </g>
  <g
     style="font-size:32px;font-family:'DejaVu Sans', sans-serif;text-anchor:middle;fill:#ffffff"
     id="text63"
     aria-label="[ צג ]">
    <path
       id="path97"
       d="m 113.96875,45.6875 h 6.625 v 2.234375 h -3.75 v 24.0625 h 3.75 v 2.234375 h -6.625 z" />
    <path
       id="path99"
       d="M 158.90625,67.78125 148.46875,52.5 h 3.40625 l 6.04687,8.859375 q 0.0625,-0.04687 0.17188,-0.125 0.375,-0.265625 0.57812,-0.4375 0.20313,-0.171875 0.54688,-0.578125 0.34375,-0.40625 0.53125,-0.828125 0.1875,-0.4375 0.32812,-1.140625 0.15625,-0.703125 0.15625,-1.5625 V 52.5 h 2.875 v 2.890625 q 0,1.15625 -0.14062,2.140625 -0.14063,0.96875 -0.34375,1.65625 -0.20313,0.6875 -0.5625,1.296875 -0.35938,0.59375 -0.65625,0.953125 -0.29688,0.359375 -0.78125,0.734375 -0.46875,0.359375 -0.75,0.53125 -0.28125,0.15625 -0.75,0.40625 l 4.04687,5.78125 V 70 h -14.70312 v -2.21875 z" />
    <path
       id="path101"
       d="m 143.89062,60.53125 q 0,2.25 0.53125,4.75 0.54688,2.5 1.75,4.71875 h -3.10937 q -0.90625,-2.109375 -1.29688,-3.859375 -0.51562,1.265625 -1.0625,2.078125 -0.54687,0.796875 -1.17187,1.21875 -0.625,0.421875 -1.25,0.5625 -0.625,0.15625 -1.48438,0.15625 -0.71875,0 -1.51562,-0.21875 v -2.640625 q 0.53125,0.15625 1.09375,0.15625 0.6875,0 1.21875,-0.09375 0.54687,-0.109375 1.21875,-0.515625 0.67187,-0.40625 1.10937,-1.109375 0.4375,-0.71875 0.75,-2.046875 0.3125,-1.328125 0.3125,-3.15625 0,-2.359375 -0.40625,-3.609375 -0.39062,-1.265625 -1.1875,-1.71875 -0.78125,-0.46875 -2.21875,-0.46875 h -1.40625 V 52.5 h 1.5 q 3.45313,0 5.03125,1.90625 1.59375,1.90625 1.59375,6.125 z" />
    <path
       id="path103"
       d="m 186.01562,45.6875 v 28.53125 h -6.625 v -2.234375 h 3.73438 v -24.0625 h -3.73438 V 45.6875 Z" />
  </g>
  <g
     style="font-size:20px;font-family:'DejaVu Sans', sans-serif;text-anchor:middle;fill:#000000"
     id="text67"
     aria-label="[ טקסט ]">
    <path
       id="path106"
       d="m 47.996094,138.80469 h 4.140625 v 1.39648 h -2.34375 v 15.03906 h 2.34375 v 1.39649 h -4.140625 z" />
    <path
       id="path108"
       d="m 104.1875,143.0625 v 5.74219 q 0,1.13281 0.21484,1.92383 0.22461,0.79101 0.6543,1.24023 0.43945,0.43945 1.00586,0.63477 0.56641,0.19531 1.34766,0.19531 0.78125,0 1.34765,-0.19531 0.56641,-0.19532 0.9961,-0.63477 0.43945,-0.44922 0.65429,-1.24023 0.22461,-0.79102 0.22461,-1.92383 0,-1.10352 -0.0977,-1.86524 -0.0879,-0.77148 -0.32227,-1.37695 -0.23437,-0.61523 -0.67383,-0.9082 -0.43945,-0.30274 -1.09375,-0.30274 -0.64453,0 -1.55273,0.29297 v -1.39648 q 1.11328,-0.29297 1.96289,-0.29297 0.99609,0 1.69922,0.40039 0.70312,0.39062 1.11328,1.17187 0.41016,0.77149 0.58594,1.79688 0.18554,1.02539 0.18554,2.40234 0,2.92969 -1.23047,4.24805 -1.23046,1.30859 -3.79882,1.30859 -2.56836,0 -3.79883,-1.30859 -1.23047,-1.31836 -1.23047,-4.24805 v -5.66406 z" />
    <path
       id="path110"
       d="M 90.261719,158.16016 H 88.445312 V 148.0625 l 1.816407,-0.74219 z M 93.005859,154 l 3.945313,-9.54102 h -8.740235 v -1.38671 h 10.84961 v 1.07421 L 94.910156,154 Z" />
    <path
       id="path112"
       d="m 75.232422,143.0625 h 4.755859 q 2.783203,0 4.042969,1.2207 1.259766,1.22071 1.259766,4.15039 0,2.96875 -1.25,4.41407 -1.25,1.43554 -3.779297,1.43554 -2.529297,0 -3.779297,-1.43554 -1.25,-1.44532 -1.25,-4.41407 z m 4.755859,1.49414 h -2.949219 v 3.95508 q 0,4.28711 3.222657,4.28711 3.222656,0 3.222656,-4.36524 0,-1.14257 -0.224609,-1.90429 -0.214844,-0.76172 -0.683594,-1.19141 -0.458985,-0.42969 -1.083985,-0.60547 -0.615234,-0.17578 -1.503906,-0.17578 z" />
    <path
       id="path114"
       d="m 64.070312,143.0625 v 5.74219 q 0,1.13281 0.214844,1.92383 0.22461,0.79101 0.654297,1.24023 0.439453,0.43945 1.005859,0.63477 0.566407,0.19531 1.347657,0.19531 0.78125,0 1.347656,-0.19531 0.566406,-0.19532 0.996094,-0.63477 0.439453,-0.44922 0.654297,-1.24023 0.224609,-0.79102 0.224609,-1.92383 0,-1.10352 -0.09766,-1.86524 -0.08789,-0.77148 -0.322266,-1.37695 -0.234375,-0.61523 -0.673828,-0.9082 -0.439453,-0.30274 -1.09375,-0.30274 -0.644531,0 -1.552734,0.29297 v -1.39648 q 1.113281,-0.29297 1.96289,-0.29297 0.996094,0 1.699219,0.40039 0.703125,0.39062 1.113281,1.17187 0.410156,0.77149 0.585938,1.79688 0.185547,1.02539 0.185547,2.40234 0,2.92969 -1.230469,4.24805 -1.230469,1.30859 -3.798828,1.30859 -2.56836,0 -3.798828,-1.30859 -1.230469,-1.31836 -1.230469,-4.24805 v -5.66406 z" />
    <path
       id="path116"
       d="m 125.99414,138.80469 v 17.83203 h -4.14062 v -1.39649 h 2.33398 v -15.03906 h -2.33398 v -1.39648 z" />
  </g>
  <g
     style="font-size:20px;font-family:'DejaVu Sans', sans-serif;text-anchor:middle;fill:#000000"
     id="text71"
     aria-label="[ טקסט ]">
    <path
       id="path119"
       d="m 47.996094,215.80469 h 4.140625 v 1.39648 h -2.34375 v 15.03906 h 2.34375 v 1.39649 h -4.140625 z" />
    <path
       id="path121"
       d="m 104.1875,220.0625 v 5.74219 q 0,1.13281 0.21484,1.92383 0.22461,0.79101 0.6543,1.24023 0.43945,0.43945 1.00586,0.63477 0.56641,0.19531 1.34766,0.19531 0.78125,0 1.34765,-0.19531 0.56641,-0.19532 0.9961,-0.63477 0.43945,-0.44922 0.65429,-1.24023 0.22461,-0.79102 0.22461,-1.92383 0,-1.10352 -0.0977,-1.86524 -0.0879,-0.77148 -0.32227,-1.37695 -0.23437,-0.61523 -0.67383,-0.9082 -0.43945,-0.30274 -1.09375,-0.30274 -0.64453,0 -1.55273,0.29297 v -1.39648 q 1.11328,-0.29297 1.96289,-0.29297 0.99609,0 1.69922,0.40039 0.70312,0.39062 1.11328,1.17187 0.41016,0.77149 0.58594,1.79688 0.18554,1.02539 0.18554,2.40234 0,2.92969 -1.23047,4.24805 -1.23046,1.30859 -3.79882,1.30859 -2.56836,0 -3.79883,-1.30859 -1.23047,-1.31836 -1.23047,-4.24805 v -5.66406 z" />
    <path
       id="path123"
       d="M 90.261719,235.16016 H 88.445312 V 225.0625 l 1.816407,-0.74219 z M 93.005859,231 l 3.945313,-9.54102 h -8.740235 v -1.38671 h 10.84961 v 1.07421 L 94.910156,231 Z" />
    <path
       id="path125"
       d="m 75.232422,220.0625 h 4.755859 q 2.783203,0 4.042969,1.2207 1.259766,1.22071 1.259766,4.15039 0,2.96875 -1.25,4.41407 -1.25,1.43554 -3.779297,1.43554 -2.529297,0 -3.779297,-1.43554 -1.25,-1.44532 -1.25,-4.41407 z m 4.755859,1.49414 h -2.949219 v 3.95508 q 0,4.28711 3.222657,4.28711 3.222656,0 3.222656,-4.36524 0,-1.14257 -0.224609,-1.90429 -0.214844,-0.76172 -0.683594,-1.19141 -0.458985,-0.42969 -1.083985,-0.60547 -0.615234,-0.17578 -1.503906,-0.17578 z" />
    <path
       id="path127"
       d="m 64.070312,220.0625 v 5.74219 q 0,1.13281 0.214844,1.92383 0.22461,0.79101 0.654297,1.24023 0.439453,0.43945 1.005859,0.63477 0.566407,0.19531 1.347657,0.19531 0.78125,0 1.347656,-0.19531 0.566406,-0.19532 0.996094,-0.63477 0.439453,-0.44922 0.654297,-1.24023 0.224609,-0.79102 0.224609,-1.92383 0,-1.10352 -0.09766,-1.86524 -0.08789,-0.77148 -0.322266,-1.37695 -0.234375,-0.61523 -0.673828,-0.9082 -0.439453,-0.30274 -1.09375,-0.30274 -0.644531,0 -1.552734,0.29297 v -1.39648 q 1.113281,-0.29297 1.96289,-0.29297 0.996094,0 1.699219,0.40039 0.703125,0.39062 1.113281,1.17187 0.410156,0.77149 0.585938,1.79688 0.185547,1.02539 0.185547,2.40234 0,2.92969 -1.230469,4.24805 -1.230469,1.30859 -3.798828,1.30859 -2.56836,0 -3.798828,-1.30859 -1.230469,-1.31836 -1.230469,-4.24805 v -5.66406 z" />
    <path
       id="path129"
       d="m 125.99414,215.80469 v 17.83203 h -4.14062 v -1.39649 h 2.33398 v -15.03906 h -2.33398 v -1.39648 z" />
  </g>
  <g
     style="font-size:20px;font-family:'DejaVu Sans', sans-serif;text-anchor:middle;fill:#000000"
     id="text75"
     aria-label="[ טקסט ]">
    <path
       id="path132"
       d="m 47.996094,283.80469 h 4.140625 v 1.39648 h -2.34375 v 15.03906 h 2.34375 v 1.39649 h -4.140625 z" />
    <path
       id="path134"
       d="m 104.1875,288.0625 v 5.74219 q 0,1.13281 0.21484,1.92383 0.22461,0.79101 0.6543,1.24023 0.43945,0.43945 1.00586,0.63477 0.56641,0.19531 1.34766,0.19531 0.78125,0 1.34765,-0.19531 0.56641,-0.19532 0.9961,-0.63477 0.43945,-0.44922 0.65429,-1.24023 0.22461,-0.79102 0.22461,-1.92383 0,-1.10352 -0.0977,-1.86524 -0.0879,-0.77148 -0.32227,-1.37695 -0.23437,-0.61523 -0.67383,-0.9082 -0.43945,-0.30274 -1.09375,-0.30274 -0.64453,0 -1.55273,0.29297 v -1.39648 q 1.11328,-0.29297 1.96289,-0.29297 0.99609,0 1.69922,0.40039 0.70312,0.39062 1.11328,1.17187 0.41016,0.77149 0.58594,1.79688 0.18554,1.02539 0.18554,2.40234 0,2.92969 -1.23047,4.24805 -1.23046,1.30859 -3.79882,1.30859 -2.56836,0 -3.79883,-1.30859 -1.23047,-1.31836 -1.23047,-4.24805 v -5.66406 z" />
    <path
       id="path136"
       d="M 90.261719,303.16016 H 88.445312 V 293.0625 l 1.816407,-0.74219 z M 93.005859,299 l 3.945313,-9.54102 h -8.740235 v -1.38671 h 10.84961 v 1.07421 L 94.910156,299 Z" />
    <path
       id="path138"
       d="m 75.232422,288.0625 h 4.755859 q 2.783203,0 4.042969,1.2207 1.259766,1.22071 1.259766,4.15039 0,2.96875 -1.25,4.41407 -1.25,1.43554 -3.779297,1.43554 -2.529297,0 -3.779297,-1.43554 -1.25,-1.44532 -1.25,-4.41407 z m 4.755859,1.49414 h -2.949219 v 3.95508 q 0,4.28711 3.222657,4.28711 3.222656,0 3.222656,-4.36524 0,-1.14257 -0.224609,-1.90429 -0.214844,-0.76172 -0.683594,-1.19141 -0.458985,-0.42969 -1.083985,-0.60547 -0.615234,-0.17578 -1.503906,-0.17578 z" />
    <path
       id="path140"
       d="m 64.070312,288.0625 v 5.74219 q 0,1.13281 0.214844,1.92383 0.22461,0.79101 0.654297,1.24023 0.439453,0.43945 1.005859,0.63477 0.566407,0.19531 1.347657,0.19531 0.78125,0 1.347656,-0.19531 0.566406,-0.19532 0.996094,-0.63477 0.439453,-0.44922 0.654297,-1.24023 0.224609,-0.79102 0.224609,-1.92383 0,-1.10352 -0.09766,-1.86524 -0.08789,-0.77148 -0.322266,-1.37695 -0.234375,-0.61523 -0.673828,-0.9082 -0.439453,-0.30274 -1.09375,-0.30274 -0.644531,0 -1.552734,0.29297 v -1.39648 q 1.113281,-0.29297 1.96289,-0.29297 0.996094,0 1.699219,0.40039 0.703125,0.39062 1.113281,1.17187 0.410156,0.77149 0.585938,1.79688 0.185547,1.02539 0.185547,2.40234 0,2.92969 -1.230469,4.24805 -1.230469,1.30859 -3.798828,1.30859 -2.56836,0 -3.798828,-1.30859 -1.230469,-1.31836 -1.230469,-4.24805 v -5.66406 z" />
    <path
       id="path142"
       d="m 125.99414,283.80469 v 17.83203 h -4.14062 v -1.39649 h 2.33398 v -15.03906 h -2.33398 v -1.39648 z" />
  </g>
  <g
     style="font-size:20px;font-family:'DejaVu Sans', sans-serif;text-anchor:middle;fill:#000000"
     id="text79"
     aria-label="[ טקסט ]">
    <path
       id="path145"
       d="m 170.99609,138.80469 h 4.14063 v 1.39648 h -2.34375 v 15.03906 h 2.34375 v 1.39649 h -4.14063 z" />
    <path
       id="path147"
       d="m 227.1875,143.0625 v 5.74219 q 0,1.13281 0.21484,1.92383 0.22461,0.79101 0.6543,1.24023 0.43945,0.43945 1.00586,0.63477 0.56641,0.19531 1.34766,0.19531 0.78125,0 1.34765,-0.19531 0.56641,-0.19532 0.9961,-0.63477 0.43945,-0.44922 0.65429,-1.24023 0.22461,-0.79102 0.22461,-1.92383 0,-1.10352 -0.0977,-1.86524 -0.0879,-0.77148 -0.32227,-1.37695 -0.23437,-0.61523 -0.67383,-0.9082 -0.43945,-0.30274 -1.09375,-0.30274 -0.64453,0 -1.55273,0.29297 v -1.39648 q 1.11328,-0.29297 1.96289,-0.29297 0.99609,0 1.69922,0.40039 0.70312,0.39062 1.11328,1.17187 0.41015,0.77149 0.58594,1.79688 0.18554,1.02539 0.18554,2.40234 0,2.92969 -1.23047,4.24805 -1.23046,1.30859 -3.79882,1.30859 -2.56836,0 -3.79883,-1.30859 -1.23047,-1.31836 -1.23047,-4.24805 v -5.66406 z" />
    <path
       id="path149"
       d="m 213.26172,158.16016 h -1.81641 V 148.0625 l 1.81641,-0.74219 z M 216.00586,154 l 3.94531,-9.54102 h -8.74023 v -1.38671 h 10.84961 v 1.07421 L 217.91016,154 Z" />
    <path
       id="path151"
       d="m 198.23242,143.0625 h 4.75586 q 2.7832,0 4.04297,1.2207 1.25977,1.22071 1.25977,4.15039 0,2.96875 -1.25,4.41407 -1.25,1.43554 -3.7793,1.43554 -2.5293,0 -3.7793,-1.43554 -1.25,-1.44532 -1.25,-4.41407 z m 4.75586,1.49414 h -2.94922 v 3.95508 q 0,4.28711 3.22266,4.28711 3.22265,0 3.22265,-4.36524 0,-1.14257 -0.2246,-1.90429 -0.21485,-0.76172 -0.6836,-1.19141 -0.45898,-0.42969 -1.08398,-0.60547 -0.61524,-0.17578 -1.50391,-0.17578 z" />
    <path
       id="path153"
       d="m 187.07031,143.0625 v 5.74219 q 0,1.13281 0.21485,1.92383 0.22461,0.79101 0.65429,1.24023 0.43946,0.43945 1.00586,0.63477 0.56641,0.19531 1.34766,0.19531 0.78125,0 1.34765,-0.19531 0.56641,-0.19532 0.9961,-0.63477 0.43945,-0.44922 0.6543,-1.24023 0.2246,-0.79102 0.2246,-1.92383 0,-1.10352 -0.0977,-1.86524 -0.0879,-0.77148 -0.32227,-1.37695 -0.23437,-0.61523 -0.67383,-0.9082 -0.43945,-0.30274 -1.09375,-0.30274 -0.64453,0 -1.55273,0.29297 v -1.39648 q 1.11328,-0.29297 1.96289,-0.29297 0.99609,0 1.69922,0.40039 0.70312,0.39062 1.11328,1.17187 0.41016,0.77149 0.58594,1.79688 0.18555,1.02539 0.18555,2.40234 0,2.92969 -1.23047,4.24805 -1.23047,1.30859 -3.79883,1.30859 -2.56836,0 -3.79883,-1.30859 -1.23047,-1.31836 -1.23047,-4.24805 v -5.66406 z" />
    <path
       id="path155"
       d="m 248.99414,138.80469 v 17.83203 h -4.14062 v -1.39649 h 2.33398 v -15.03906 h -2.33398 v -1.39648 z" />
  </g>
  <g
     style="font-size:20px;font-family:'DejaVu Sans', sans-serif;text-anchor:middle;fill:#000000"
     id="text83"
     aria-label="[ טקסט ]">
    <path
       id="path158"
       d="m 170.99609,215.80469 h 4.14063 v 1.39648 h -2.34375 v 15.03906 h 2.34375 v 1.39649 h -4.14063 z" />
    <path
       id="path160"
       d="m 227.1875,220.0625 v 5.74219 q 0,1.13281 0.21484,1.92383 0.22461,0.79101 0.6543,1.24023 0.43945,0.43945 1.00586,0.63477 0.56641,0.19531 1.34766,0.19531 0.78125,0 1.34765,-0.19531 0.56641,-0.19532 0.9961,-0.63477 0.43945,-0.44922 0.65429,-1.24023 0.22461,-0.79102 0.22461,-1.92383 0,-1.10352 -0.0977,-1.86524 -0.0879,-0.77148 -0.32227,-1.37695 -0.23437,-0.61523 -0.67383,-0.9082 -0.43945,-0.30274 -1.09375,-0.30274 -0.64453,0 -1.55273,0.29297 v -1.39648 q 1.11328,-0.29297 1.96289,-0.29297 0.99609,0 1.69922,0.40039 0.70312,0.39062 1.11328,1.17187 0.41015,0.77149 0.58594,1.79688 0.18554,1.02539 0.18554,2.40234 0,2.92969 -1.23047,4.24805 -1.23046,1.30859 -3.79882,1.30859 -2.56836,0 -3.79883,-1.30859 -1.23047,-1.31836 -1.23047,-4.24805 v -5.66406 z" />
    <path
       id="path162"
       d="m 213.26172,235.16016 h -1.81641 V 225.0625 l 1.81641,-0.74219 z M 216.00586,231 l 3.94531,-9.54102 h -8.74023 v -1.38671 h 10.84961 v 1.07421 L 217.91016,231 Z" />
    <path
       id="path164"
       d="m 198.23242,220.0625 h 4.75586 q 2.7832,0 4.04297,1.2207 1.25977,1.22071 1.25977,4.15039 0,2.96875 -1.25,4.41407 -1.25,1.43554 -3.7793,1.43554 -2.5293,0 -3.7793,-1.43554 -1.25,-1.44532 -1.25,-4.41407 z m 4.75586,1.49414 h -2.94922 v 3.95508 q 0,4.28711 3.22266,4.28711 3.22265,0 3.22265,-4.36524 0,-1.14257 -0.2246,-1.90429 -0.21485,-0.76172 -0.6836,-1.19141 -0.45898,-0.42969 -1.08398,-0.60547 -0.61524,-0.17578 -1.50391,-0.17578 z" />
    <path
       id="path166"
       d="m 187.07031,220.0625 v 5.74219 q 0,1.13281 0.21485,1.92383 0.22461,0.79101 0.65429,1.24023 0.43946,0.43945 1.00586,0.63477 0.56641,0.19531 1.34766,0.19531 0.78125,0 1.34765,-0.19531 0.56641,-0.19532 0.9961,-0.63477 0.43945,-0.44922 0.6543,-1.24023 0.2246,-0.79102 0.2246,-1.92383 0,-1.10352 -0.0977,-1.86524 -0.0879,-0.77148 -0.32227,-1.37695 -0.23437,-0.61523 -0.67383,-0.9082 -0.43945,-0.30274 -1.09375,-0.30274 -0.64453,0 -1.55273,0.29297 v -1.39648 q 1.11328,-0.29297 1.96289,-0.29297 0.99609,0 1.69922,0.40039 0.70312,0.39062 1.11328,1.17187 0.41016,0.77149 0.58594,1.79688 0.18555,1.02539 0.18555,2.40234 0,2.92969 -1.23047,4.24805 -1.23047,1.30859 -3.79883,1.30859 -2.56836,0 -3.79883,-1.30859 -1.23047,-1.31836 -1.23047,-4.24805 v -5.66406 z" />
    <path
       id="path168"
       d="m 248.99414,215.80469 v 17.83203 h -4.14062 v -1.39649 h 2.33398 v -15.03906 h -2.33398 v -1.39648 z" />
  </g>
  <g
     style="font-size:20px;font-family:'DejaVu Sans', sans-serif;text-anchor:middle;fill:#000000"
     id="text87"
     aria-label="[ טקסט ]">
    <path
       id="path171"
       d="m 170.99609,283.80469 h 4.14063 v 1.39648 h -2.34375 v 15.03906 h 2.34375 v 1.39649 h -4.14063 z" />
    <path
       id="path173"
       d="m 227.1875,288.0625 v 5.74219 q 0,1.13281 0.21484,1.92383 0.22461,0.79101 0.6543,1.24023 0.43945,0.43945 1.00586,0.63477 0.56641,0.19531 1.34766,0.19531 0.78125,0 1.34765,-0.19531 0.56641,-0.19532 0.9961,-0.63477 0.43945,-0.44922 0.65429,-1.24023 0.22461,-0.79102 0.22461,-1.92383 0,-1.10352 -0.0977,-1.86524 -0.0879,-0.77148 -0.32227,-1.37695 -0.23437,-0.61523 -0.67383,-0.9082 -0.43945,-0.30274 -1.09375,-0.30274 -0.64453,0 -1.55273,0.29297 v -1.39648 q 1.11328,-0.29297 1.96289,-0.29297 0.99609,0 1.69922,0.40039 0.70312,0.39062 1.11328,1.17187 0.41015,0.77149 0.58594,1.79688 0.18554,1.02539 0.18554,2.40234 0,2.92969 -1.23047,4.24805 -1.23046,1.30859 -3.79882,1.30859 -2.56836,0 -3.79883,-1.30859 -1.23047,-1.31836 -1.23047,-4.24805 v -5.66406 z" />
    <path
       id="path175"
       d="m 213.26172,303.16016 h -1.81641 V 293.0625 l 1.81641,-0.74219 z M 216.00586,299 l 3.94531,-9.54102 h -8.74023 v -1.38671 h 10.84961 v 1.07421 L 217.91016,299 Z" />
    <path
       id="path177"
       d="m 198.23242,288.0625 h 4.75586 q 2.7832,0 4.04297,1.2207 1.25977,1.22071 1.25977,4.15039 0,2.96875 -1.25,4.41407 -1.25,1.43554 -3.7793,1.43554 -2.5293,0 -3.7793,-1.43554 -1.25,-1.44532 -1.25,-4.41407 z m 4.75586,1.49414 h -2.94922 v 3.95508 q 0,4.28711 3.22266,4.28711 3.22265,0 3.22265,-4.36524 0,-1.14257 -0.2246,-1.90429 -0.21485,-0.76172 -0.6836,-1.19141 -0.45898,-0.42969 -1.08398,-0.60547 -0.61524,-0.17578 -1.50391,-0.17578 z" />
    <path
       id="path179"
       d="m 187.07031,288.0625 v 5.74219 q 0,1.13281 0.21485,1.92383 0.22461,0.79101 0.65429,1.24023 0.43946,0.43945 1.00586,0.63477 0.56641,0.19531 1.34766,0.19531 0.78125,0 1.34765,-0.19531 0.56641,-0.19532 0.9961,-0.63477 0.43945,-0.44922 0.6543,-1.24023 0.2246,-0.79102 0.2246,-1.92383 0,-1.10352 -0.0977,-1.86524 -0.0879,-0.77148 -0.32227,-1.37695 -0.23437,-0.61523 -0.67383,-0.9082 -0.43945,-0.30274 -1.09375,-0.30274 -0.64453,0 -1.55273,0.29297 v -1.39648 q 1.11328,-0.29297 1.96289,-0.29297 0.99609,0 1.69922,0.40039 0.70312,0.39062 1.11328,1.17187 0.41016,0.77149 0.58594,1.79688 0.18555,1.02539 0.18555,2.40234 0,2.92969 -1.23047,4.24805 -1.23047,1.30859 -3.79883,1.30859 -2.56836,0 -3.79883,-1.30859 -1.23047,-1.31836 -1.23047,-4.24805 v -5.66406 z" />
    <path
       id="path181"
       d="m 248.99414,283.80469 v 17.83203 h -4.14062 v -1.39649 h 2.33398 v -15.03906 h -2.33398 v -1.39648 z" />
  </g>
</svg>
