<?xml version="1.0" encoding="UTF-8" standalone="no"?>
<svg
   xmlns:dc="http://purl.org/dc/elements/1.1/"
   xmlns:cc="http://creativecommons.org/ns#"
   xmlns:rdf="http://www.w3.org/1999/02/22-rdf-syntax-ns#"
   xmlns:svg="http://www.w3.org/2000/svg"
   xmlns="http://www.w3.org/2000/svg"
   id="svg97"
   stroke-miterlimit="10"
   stroke-linecap="square"
   stroke="none"
   fill="none"
   viewBox="0.0 0.0 369.0 801.0"
   version="1.1">
  <metadata
     id="metadata103">
    <rdf:RDF>
      <cc:Work
         rdf:about="">
        <dc:format>image/svg+xml</dc:format>
        <dc:type
           rdf:resource="http://purl.org/dc/dcmitype/StillImage" />
      </cc:Work>
    </rdf:RDF>
  </metadata>
  <defs
     id="defs101" />
  <clipPath
     id="p.0">
    <path
       id="path2"
       clip-rule="nonzero"
       d="m0 0l369.0 0l0 801.0l-369.0 0l0 -801.0z" />
  </clipPath>
  <g
     id="g91"
     clip-path="url(#p.0)">
    <path
       id="path5"
       fill-rule="nonzero"
       d="M 0,0 H 369.1076 V 801.916 H 0 Z"
       fill-opacity="0"
       fill="#000000" />
    <path
       id="path7"
       fill-rule="nonzero"
       d="m 248.5753,444.2651 h 101.4803 v 67.55905 H 248.5753 Z"
       fill="#000000" />
    <path
       id="path9"
       fill-rule="nonzero"
       d="m 248.5753,444.2651 h 101.4803 v 67.55905 H 248.5753 Z"
       stroke-linecap="butt"
       stroke-linejoin="round"
       stroke-width="2"
       stroke="#000000" />
    <path
       id="path11"
       fill-rule="nonzero"
       d="m 289.4047,109.25535 h 67.3071 v 208.0315 h -67.3071 z"
       fill="#ffffff" />
    <path
       id="path13"
       fill-rule="nonzero"
       d="m 289.4047,109.25535 h 67.3071 v 208.0315 h -67.3071 z"
       stroke-linecap="butt"
       stroke-linejoin="round"
       stroke-width="2"
       stroke="#000000" />
    <path
       id="path15"
       fill-rule="nonzero"
       d="M 5.589649,165.38321 H 53.306183 V 273.09973 H 5.589649 Z"
       fill="#ffffff" />
    <path
       id="path17"
       fill-rule="nonzero"
       d="M 5.589649,165.38321 H 53.306183 V 273.09973 H 5.589649 Z"
       stroke-linecap="butt"
       stroke-linejoin="round"
       stroke-width="2"
       stroke="#000000" />
    <path
       id="path19"
       fill-rule="nonzero"
       d="m 278.36172,66.32809 h 68.82806 v 0 c 9.01667,0 16.32611,7.042313 16.32611,15.729446 0,8.687134 -7.30944,15.729446 -16.32611,15.729446 h -68.82806 v 0 c -9.01666,0 -16.32614,-7.042313 -16.32614,-15.729446 0,-8.687134 7.30948,-15.729446 16.32614,-15.729446 z"
       fill="#ffffff" />
    <path
       id="path21"
       fill-rule="nonzero"
       d="m 278.36172,66.32809 h 68.82806 v 0 c 9.01667,0 16.32611,7.042313 16.32611,15.729446 0,8.687134 -7.30944,15.729446 -16.32611,15.729446 h -68.82806 v 0 c -9.01666,0 -16.32614,-7.042313 -16.32614,-15.729446 0,-8.687134 7.30948,-15.729446 16.32614,-15.729446 z"
       stroke-linecap="butt"
       stroke-linejoin="round"
       stroke-width="2"
       stroke="#000000" />
    <path
       id="path23"
       fill-rule="nonzero"
       d="m 12.574803,486.2047 h 67.30708 v 208.0315 h -67.30708 z"
       fill="#ffffff" />
    <path
       id="path25"
       fill-rule="nonzero"
       d="m 12.574803,486.2047 h 67.30708 v 208.0315 h -67.30708 z"
       stroke-linecap="butt"
       stroke-linejoin="round"
       stroke-width="2"
       stroke="#000000" />
    <path
       id="path27"
       fill-rule="nonzero"
       d="m 243.86876,46.650917 h 92.15749 V 384.32022 h -92.15749 z"
       fill="#ffffff" />
    <path
       id="path29"
       fill-rule="nonzero"
       d="m 243.86876,46.650917 h 92.15749 V 384.32022 h -92.15749 z"
       stroke-linecap="butt"
       stroke-linejoin="round"
       stroke-width="2"
       stroke="#000000" />
    <path
       id="path31"
       fill-rule="nonzero"
       d="M 22.658957,122.89764 H 101.74557 V 304.53543 H 22.658957 Z"
       fill="#000000" />
    <path
       id="path33"
       fill-rule="nonzero"
       d="M 22.658957,122.89764 H 101.74557 V 304.53543 H 22.658957 Z"
       stroke-linecap="butt"
       stroke-linejoin="round"
       stroke-width="2"
       stroke="#000000" />
    <path
       id="path35"
       fill-rule="nonzero"
       d="m 22.689058,66.32809 h 68.82809 v 0 c 9.016662,0 16.326122,7.042313 16.326122,15.729446 0,8.687134 -7.30946,15.729446 -16.326122,15.729446 h -68.82809 v 0 c -9.016665,0 -16.326115,-7.042313 -16.326115,-15.729446 0,-8.687134 7.309451,-15.729446 16.326115,-15.729446 z"
       fill="#ffffff" />
    <path
       id="path37"
       fill-rule="nonzero"
       d="m 22.689058,66.32809 h 68.82809 v 0 c 9.016662,0 16.326122,7.042313 16.326122,15.729446 0,8.687134 -7.30946,15.729446 -16.326122,15.729446 h -68.82809 v 0 c -9.016665,0 -16.326115,-7.042313 -16.326115,-15.729446 0,-8.687134 7.309451,-15.729446 16.326115,-15.729446 z"
       stroke-linecap="butt"
       stroke-linejoin="round"
       stroke-width="2"
       stroke="#000000" />
    <path
       id="path39"
       fill-rule="nonzero"
       d="m 22.689058,443.84253 h 68.82809 v 0 c 9.016662,0 16.326122,7.0423 16.326122,15.72943 0,8.68713 -7.30946,15.72946 -16.326122,15.72946 h -68.82809 v 0 c -9.016665,0 -16.326115,-7.04233 -16.326115,-15.72946 0,-8.68713 7.309451,-15.72943 16.326115,-15.72943 z"
       fill="#ffffff" />
    <path
       id="path41"
       fill-rule="nonzero"
       d="m 22.689058,443.84253 h 68.82809 v 0 c 9.016662,0 16.326122,7.0423 16.326122,15.72943 0,8.68713 -7.30946,15.72946 -16.326122,15.72946 h -68.82809 v 0 c -9.016665,0 -16.326115,-7.04233 -16.326115,-15.72946 0,-8.68713 7.309451,-15.72943 16.326115,-15.72943 z"
       stroke-linecap="butt"
       stroke-linejoin="round"
       stroke-width="2"
       stroke="#000000" />
    <path
       id="path43"
       fill-rule="nonzero"
       d="M 31.853674,46.650917 H 86.814306 V 384.32022 H 31.853674 Z"
       fill="#ffffff" />
    <path
       id="path45"
       fill-rule="nonzero"
       d="M 31.853674,46.650917 H 86.814306 V 384.32022 H 31.853674 Z"
       stroke-linecap="butt"
       stroke-linejoin="round"
       stroke-width="2"
       stroke="#000000" />
    <path
       id="path47"
       fill-rule="nonzero"
       d="m 278.36368,443.84253 h 68.82809 v 0 c 9.01667,0 16.32611,7.0423 16.32611,15.72943 0,8.68713 -7.30944,15.72946 -16.32611,15.72946 h -68.82809 v 0 c -9.01666,0 -16.32611,-7.04233 -16.32611,-15.72946 0,-8.68713 7.30945,-15.72943 16.32611,-15.72943 z"
       fill="#ffffff" />
    <path
       id="path49"
       fill-rule="nonzero"
       d="m 278.36368,443.84253 h 68.82809 v 0 c 9.01667,0 16.32611,7.0423 16.32611,15.72943 0,8.68713 -7.30944,15.72946 -16.32611,15.72946 h -68.82809 v 0 c -9.01666,0 -16.32611,-7.04233 -16.32611,-15.72946 0,-8.68713 7.30945,-15.72943 16.32611,-15.72943 z"
       stroke-linecap="butt"
       stroke-linejoin="round"
       stroke-width="2"
       stroke="#000000" />
    <path
       id="path51"
       fill-rule="nonzero"
       d="M 251.84662,615.33795 H 358.49228 V 660.1568 H 251.84662 Z"
       fill="#ffffff" />
    <path
       id="path53"
       fill-rule="nonzero"
       d="M 251.84662,615.33795 H 358.49228 V 660.1568 H 251.84662 Z"
       stroke-linecap="butt"
       stroke-linejoin="round"
       stroke-width="2"
       stroke="#000000" />
    <path
       id="path55"
       fill-rule="nonzero"
       d="m 251.84662,544.1022 h 106.64566 v 44.81891 H 251.84662 Z"
       fill="#ffffff" />
    <path
       id="path57"
       fill-rule="nonzero"
       d="m 251.84662,544.1022 h 106.64566 v 44.81891 H 251.84662 Z"
       stroke-linecap="butt"
       stroke-linejoin="round"
       stroke-width="2"
       stroke="#000000" />
    <path
       id="path59"
       fill-rule="nonzero"
       d="m 251.84662,689.47974 h 106.64566 v 44.81891 H 251.84662 Z"
       fill="#ffffff" />
    <path
       id="path61"
       fill-rule="nonzero"
       d="m 251.84662,689.47974 h 106.64566 v 44.81891 H 251.84662 Z"
       stroke-linecap="butt"
       stroke-linejoin="round"
       stroke-width="2"
       stroke="#000000" />
    <path
       id="path63"
       fill-rule="nonzero"
       d="m 6.361959,517.22833 h 24.88189"
       fill-opacity="0"
       fill="#000000" />
    <path
       id="path65"
       fill-rule="nonzero"
       d="m 6.361959,517.22833 h 24.88189"
       stroke-linecap="butt"
       stroke-linejoin="round"
       stroke-width="2"
       stroke="#000000" />
    <path
       id="path67"
       fill-rule="nonzero"
       d="m 6.361959,569.0379 h 24.88189"
       fill-opacity="0"
       fill="#000000" />
    <path
       id="path69"
       fill-rule="nonzero"
       d="m 6.361959,569.0379 h 24.88189"
       stroke-linecap="butt"
       stroke-linejoin="round"
       stroke-width="2"
       stroke="#000000" />
    <path
       id="path71"
       fill-rule="nonzero"
       d="m 6.361959,616.8954 h 24.88189"
       fill-opacity="0"
       fill="#000000" />
    <path
       id="path73"
       fill-rule="nonzero"
       d="m 6.361959,616.8954 h 24.88189"
       stroke-linecap="butt"
       stroke-linejoin="round"
       stroke-width="2"
       stroke="#000000" />
    <path
       id="path75"
       fill-rule="nonzero"
       d="M 6.361959,673.9764 H 31.999753"
       fill-opacity="0"
       fill="#000000" />
    <path
       id="path77"
       fill-rule="nonzero"
       d="M 6.361959,673.9764 H 31.999753"
       stroke-linecap="butt"
       stroke-linejoin="round"
       stroke-width="2"
       stroke="#000000" />
    <path
       id="path79"
       fill-rule="nonzero"
       d="m 31.85023,423.8084 h 304.1575 V 761.47765 H 31.85023 Z"
       fill="#ffffff" />
    <path
       id="path81"
       fill-rule="nonzero"
       d="m 31.85023,423.8084 h 304.1575 V 761.47765 H 31.85023 Z"
       stroke-linecap="butt"
       stroke-linejoin="round"
       stroke-width="2"
       stroke="#000000" />
    <path
       id="path83"
       fill-rule="nonzero"
       d="M 56.01132,0.9422572 H 312.60974 V 800.97376 H 56.01132 Z"
       fill="#ffffff" />
    <path
       id="path85"
       fill-rule="nonzero"
       d="M 56.01132,0.9422572 H 312.60974 V 800.97376 H 56.01132 Z"
       stroke-linecap="butt"
       stroke-linejoin="round"
       stroke-width="2"
       stroke="#000000" />
    <path
       id="path87"
       fill-rule="nonzero"
       d="M 289.4042,31.199474 V 346.85303 H 221.84513 V 31.199474 Z"
       fill-opacity="0"
       fill="#000000" />
    <path
       id="path89"
       fill-rule="nonzero"
       d="M 289.4042,31.199474 V 386.85303 H 221.84513 V 31.199474 Z"
       stroke-linecap="butt"
       stroke-linejoin="round"
       stroke-width="2"
       stroke="#000000" />
  </g>
  <g
     style="font-size:30px;font-family:'DejaVu Sans', sans-serif;text-anchor:middle;fill:#000000"
     id="text95"
     transform="rotate(90)"
     aria-label="[รหัสซีเรียล]">
    <path
       id="path105"
       d="m 136.55664,-267.79297 h 6.21094 v 2.09473 h -3.51563 v 22.55859 h 3.51563 v 2.09473 h -6.21094 z" />
    <path
       id="path107"
       d="m 157.97266,-259.34082 q -1.30371,0.26367 -2.70996,0.26367 l -3.26661,-0.14648 q -1.46484,0 -2.28515,0.4834 -0.80567,0.46875 -0.80567,1.17187 0.46875,-0.0879 1.34766,-0.0879 3.22266,0 4.45312,1.33301 1.24512,1.33301 1.24512,4.45312 v 3.17871 q 0,1.81641 -1.04004,2.8711 -1.02539,1.05469 -2.76855,1.05469 -1.14258,0 -1.96289,-0.82032 -0.82032,-0.82031 -0.82032,-1.96289 0,-1.14258 0.82032,-1.94824 0.82031,-0.80566 1.96289,-0.80566 0.60058,0 1.05469,0.17578 v -1.74317 q 0,-1.99218 -0.70313,-2.87109 -0.70312,-0.87891 -2.24121,-0.87891 -0.62988,0 -1.43555,0.0879 -0.80566,0.0733 -1.3916,0.17578 l -1.04004,0.19043 h -0.0879 v -1.02539 q 0,-2.56347 1.27442,-3.98437 1.27441,-1.4209 4.42382,-1.4209 l 3.26661,0.13184 q 0.65917,0 1.3623,-0.14649 l 1.21582,-0.27832 h 0.13184 z m -5.83008,12.93457 q 0.46875,0 0.79101,-0.32227 0.32227,-0.33691 0.32227,-0.82031 0,-0.4541 -0.33691,-0.76172 -0.32227,-0.32226 -0.77637,-0.32226 -0.4541,0 -0.77637,0.32226 -0.32226,0.32227 -0.32226,0.76172 0,0.4834 0.32226,0.82031 0.32227,0.32227 0.77637,0.32227 z" />
    <path
       id="path109"
       d="m 176.22461,-245 h -2.75391 v -8.07129 q 0,-1.71387 -0.51269,-2.21191 -3.07617,2.94433 -6.87012,10.2832 h -2.75391 v -11.45508 q -0.4541,0.17578 -1.05468,0.17578 -1.14258,0 -1.97754,-0.80566 -0.82031,-0.82031 -0.82031,-1.94824 0,-1.15723 0.82031,-1.97754 0.83496,-0.82031 1.97754,-0.82031 1.72851,0 2.76855,1.06933 1.04004,1.05469 1.04004,2.85645 v 9.15527 q 2.90039,-5.28809 5.66895,-7.79297 -0.61524,-0.35156 -0.9961,-1.02539 -0.38086,-0.68848 -0.38086,-1.43555 0,-1.15722 0.83496,-1.99218 0.83496,-0.83496 1.97754,-0.83496 1.14258,0 1.97754,0.8496 0.84961,0.83497 0.84961,1.97754 0,1.69922 -1.46484,2.49024 1.66992,0.8789 1.66992,3.53027 z m -13.94531,-12.96387 q 0.4541,0 0.77636,-0.30761 0.33692,-0.32227 0.33692,-0.76172 0,-0.49805 -0.33692,-0.82032 -0.32226,-0.32226 -0.77636,-0.32226 -0.4541,0 -0.79102,0.33691 -0.32226,0.32227 -0.32226,0.80567 0,0.43945 0.32226,0.76172 0.33692,0.30761 0.79102,0.30761 z m 10.91308,0.0293 q 0.4541,0 0.77637,-0.30762 0.33691,-0.32226 0.33691,-0.76172 0,-0.48339 -0.32226,-0.80566 -0.32227,-0.33691 -0.79102,-0.33691 -0.4541,0 -0.77636,0.33691 -0.32227,0.32227 -0.32227,0.80566 0,0.43946 0.32227,0.76172 0.32226,0.30762 0.77636,0.30762 z" />
    <path
       id="path111"
       d="m 180.95605,-267.77832 q -0.71777,2.41699 -2.90039,3.83789 -2.19726,1.4209 -5.083,1.4209 -2.10938,0 -3.3252,-0.9082 -1.23047,-0.92286 -1.23047,-2.46094 0,-1.14258 0.83496,-1.96289 0.82032,-0.82031 1.96289,-0.82031 1.12793,0 1.94825,0.82031 0.80566,0.82031 0.80566,1.96289 0,1.21582 -0.57129,1.88965 1.93359,0 3.67676,-1.21582 1.72851,-1.21582 1.99219,-2.56348 z m -9.74121,3.00293 q 0.43946,0 0.76172,-0.32227 0.30762,-0.33691 0.30762,-0.79101 0,-0.4541 -0.30762,-0.77637 -0.32226,-0.33691 -0.76172,-0.33691 -0.48339,0 -0.80566,0.33691 -0.33691,0.32227 -0.33691,0.77637 0,0.4541 0.33691,0.79101 0.32227,0.32227 0.80566,0.32227 z" />
    <path
       id="path113"
       d="m 195.91211,-263.48633 q -0.46875,2.02149 -2.51953,3.96973 1.31836,1.71387 1.31836,4.35058 V -245 h -2.76856 q -2.60742,-4.95117 -3.39843,-6.22559 -0.79102,-1.28906 -1.64063,-1.97753 -0.84961,-0.70313 -1.64062,-0.70313 -0.76172,0 -1.24512,0.5127 -0.46875,0.51269 -0.46875,1.31835 v 1.94825 q 0.4541,-0.17578 1.04004,-0.17578 1.15722,0 1.97754,0.80566 0.82031,0.80566 0.82031,1.94824 0,1.14258 -0.83496,1.96289 -0.82031,0.82032 -1.96289,0.82032 -1.72852,0 -2.76856,-1.05469 -1.04004,-1.05469 -1.04004,-2.8711 v -3.32519 q 0,-2.13867 1.12793,-3.2666 1.14258,-1.14258 3.16407,-1.14258 1.3916,0 2.56347,0.89355 1.17188,0.89356 1.86035,1.99219 0.70313,1.09863 2.44629,4.49707 v -6.12305 q 0,-1.56738 -0.68847,-2.57812 -0.89356,0.64453 -2.46094,1.37695 l -0.68848,-0.96679 q 0.9668,-0.49805 2.00684,-1.49414 -1.02539,-0.60059 -2.40235,-0.60059 -3.01757,0 -5.93261,1.94824 h -0.14649 v -3.09082 q 3.16407,-1.25976 6.04981,-1.25976 2.57812,0 4.2041,1.02539 1.20117,-1.62598 1.20117,-2.68067 z m -11.32324,17.08008 q 0.46875,0 0.79101,-0.32227 0.32227,-0.33691 0.32227,-0.82031 0,-0.43945 -0.33692,-0.76172 -0.32226,-0.32226 -0.77636,-0.32226 -0.43946,0 -0.77637,0.32226 -0.32227,0.32227 -0.32227,0.76172 0,0.4834 0.32227,0.82031 0.32227,0.32227 0.77637,0.32227 z" />
    <path
       id="path115"
       d="m 216.88867,-263.66211 q 0,1.62598 -0.9668,2.92969 -0.96679,1.28906 -2.57812,1.72851 1.01074,0.36621 1.56738,1.14258 0.57129,0.77637 0.57129,1.75781 V -245 h -13.13965 v -2.60742 h 2.40235 v -4.2334 q 0,-0.68848 0.20508,-1.4502 0.21972,-0.76171 1.04003,-1.99218 0.64454,-0.98145 0.80567,-1.46485 0.16113,-0.4834 0.16113,-0.9082 0,-1.25977 -1.14258,-1.77246 l -1.64062,1.23047 -1.65528,-1.23047 q -0.58593,0.17578 -1.11328,0.92285 1.24512,0.0879 2.00684,0.9082 0.76172,0.80567 0.76172,1.88965 0,1.14258 -0.83496,1.94824 -0.82032,0.80567 -1.96289,0.80567 -1.37696,0 -2.32911,-1.05469 -0.9375,-1.05469 -0.9375,-2.69531 0,-1.75781 1.24512,-3.2666 1.25977,-1.50879 3.16406,-1.86035 l 1.65528,1.28906 1.64062,-1.28906 q 1.74317,0.32226 2.76856,1.46484 1.04004,1.14258 1.04004,2.68066 0,0.61524 -0.20508,1.31836 -0.19043,0.68848 -0.95215,1.86035 -0.64453,0.9961 -0.80566,1.52344 -0.16114,0.5127 -0.16114,0.9668 v 4.40918 h 5.21485 v -8.0127 q 0,-2.10937 -1.46485,-2.51953 v -1.28906 q 1.36231,-0.4541 2.08008,-1.56738 0.73242,-1.12793 0.73242,-2.66602 z m -15.51269,9.06738 q 0.4541,0 0.77636,-0.32226 0.33692,-0.33692 0.33692,-0.82031 0,-0.43946 -0.33692,-0.76172 -0.32226,-0.32227 -0.77636,-0.32227 -0.45411,0 -0.79102,0.32227 -0.32226,0.32226 -0.32226,0.76172 0,0.48339 0.32226,0.82031 0.33691,0.32226 0.79102,0.32226 z" />
    <path
       id="path117"
       d="m 215.52637,-264.21875 h -11.96778 q 0.55664,-1.71387 1.05469,-2.46094 0.49805,-0.74707 1.31836,-1.34765 0.80566,-0.61524 1.74316,-0.92286 0.9375,-0.30761 1.88965,-0.30761 2.54883,0 4.32129,1.8457 v -3.14941 h 1.64063 z m -2.3584,-1.62598 q -0.35156,-0.79101 -1.37695,-1.27441 -1.0254,-0.49805 -2.22657,-0.49805 -1.21582,0 -2.24121,0.49805 -1.02539,0.4834 -1.3623,1.27441 z" />
    <path
       id="path119"
       d="m 222.74805,-250.12695 q 0.4541,-0.17578 1.05468,-0.17578 1.14258,0 1.96289,0.80566 0.82032,0.80566 0.82032,1.94824 0,1.14258 -0.82032,1.96289 -0.82031,0.82032 -1.96289,0.82032 -1.72851,0 -2.76855,-1.05469 -1.04004,-1.05469 -1.04004,-2.8711 v -12.68554 h 2.75391 z m 1.05468,3.7207 q 0.45411,0 0.77637,-0.32227 0.33692,-0.33691 0.33692,-0.82031 0,-0.43945 -0.33692,-0.76172 -0.32226,-0.32226 -0.77637,-0.32226 -0.4541,0 -0.79101,0.32226 -0.32227,0.32227 -0.32227,0.76172 0,0.4834 0.32227,0.82031 0.33691,0.32227 0.79101,0.32227 z" />
    <path
       id="path121"
       d="m 239.76953,-259.34082 q -1.30371,0.26367 -2.70996,0.26367 l -3.2666,-0.14648 q -1.46485,0 -2.28516,0.4834 -0.80566,0.46875 -0.80566,1.17187 0.46875,-0.0879 1.34765,-0.0879 3.22266,0 4.45313,1.33301 1.24512,1.33301 1.24512,4.45312 v 3.17871 q 0,1.81641 -1.04004,2.8711 -1.02539,1.05469 -2.76856,1.05469 -1.14258,0 -1.96289,-0.82032 -0.82031,-0.82031 -0.82031,-1.96289 0,-1.14258 0.82031,-1.94824 0.82031,-0.80566 1.96289,-0.80566 0.60059,0 1.05469,0.17578 v -1.74317 q 0,-1.99218 -0.70312,-2.87109 -0.70313,-0.87891 -2.24122,-0.87891 -0.62988,0 -1.43554,0.0879 -0.80567,0.0733 -1.3916,0.17578 l -1.04004,0.19043 h -0.0879 v -1.02539 q 0,-2.56347 1.27441,-3.98437 1.27441,-1.4209 4.42383,-1.4209 l 3.2666,0.13184 q 0.65918,0 1.3623,-0.14649 l 1.21583,-0.27832 h 0.13183 z m -5.83008,12.93457 q 0.46875,0 0.79102,-0.32227 0.32226,-0.33691 0.32226,-0.82031 0,-0.4541 -0.33691,-0.76172 -0.32227,-0.32226 -0.77637,-0.32226 -0.4541,0 -0.77636,0.32226 -0.32227,0.32227 -0.32227,0.76172 0,0.4834 0.32227,0.82031 0.32226,0.32227 0.77636,0.32227 z" />
    <path
       id="path123"
       d="m 237.7627,-262.75391 h -11.96778 q 0.55664,-1.71386 1.05469,-2.46093 0.49805,-0.74707 1.31836,-1.34766 0.80566,-0.61523 1.74316,-0.92285 0.9375,-0.30762 1.88965,-0.30762 2.54883,0 4.32129,1.8457 v -3.14941 h 1.64063 z m -2.3584,-1.62597 q -0.35157,-0.79102 -1.37696,-1.27442 -1.02539,-0.49804 -2.22656,-0.49804 -1.21582,0 -2.24121,0.49804 -1.02539,0.4834 -1.3623,1.27442 z" />
    <path
       id="path125"
       d="M 255.32617,-245 H 242.8457 v -4.7168 q 0,-1.49414 1.49414,-2.3584 -1.46484,-0.86425 -1.46484,-2.40234 v -3.42773 q 0,-1.80176 1.04004,-2.85645 1.04004,-1.06933 2.76855,-1.06933 1.14258,0 1.96289,0.83496 0.83497,0.82031 0.83497,1.96289 0,1.14258 -0.82032,1.94824 -0.82031,0.80566 -1.97754,0.80566 -0.60058,0 -1.05468,-0.17578 v 1.91895 q 0,1.55273 1.56738,1.55273 h 0.57129 v 1.80176 h -0.57129 q -1.56738,0 -1.56738,1.46484 v 2.10938 h 6.92871 v -13.76953 h 2.76855 z m -8.64258,-12.96387 q 0.45411,0 0.77637,-0.30761 0.33691,-0.32227 0.33691,-0.76172 0,-0.49805 -0.33691,-0.82032 -0.32226,-0.32226 -0.77637,-0.32226 -0.4541,0 -0.79101,0.33691 -0.32227,0.32227 -0.32227,0.80567 0,0.43945 0.32227,0.76172 0.33691,0.30761 0.79101,0.30761 z" />
    <path
       id="path127"
       d="m 273.8125,-245 h -2.76855 q -2.60743,-4.95117 -3.39844,-6.22559 -0.79102,-1.28906 -1.64063,-1.97753 -0.84961,-0.70313 -1.64062,-0.70313 -0.76172,0 -1.24512,0.5127 -0.46875,0.51269 -0.46875,1.31835 v 1.94825 q 0.4541,-0.17578 1.04004,-0.17578 1.15723,0 1.97754,0.80566 0.82031,0.80566 0.82031,1.94824 0,1.14258 -0.83496,1.96289 -0.82031,0.82032 -1.96289,0.82032 -1.72852,0 -2.76856,-1.05469 -1.04003,-1.05469 -1.04003,-2.8711 v -3.32519 q 0,-2.13867 1.12793,-3.2666 1.14257,-1.14258 3.16406,-1.14258 1.3916,0 2.56347,0.89355 1.17188,0.89356 1.86036,1.99219 0.70312,1.09863 2.44629,4.49707 v -6.12305 q 0,-2.00683 -1.14258,-3.13476 -1.14258,-1.12793 -3.09082,-1.12793 -3.01758,0 -5.93262,1.94824 h -0.14648 v -3.09082 q 3.16406,-1.25976 6.0498,-1.25976 3.38379,0 5.2002,1.77246 1.83105,1.77246 1.83105,4.89257 z m -10.12207,-1.40625 q 0.46875,0 0.79102,-0.32227 0.32226,-0.33691 0.32226,-0.82031 0,-0.43945 -0.33691,-0.76172 -0.32227,-0.32226 -0.77637,-0.32226 -0.43945,0 -0.77637,0.32226 -0.32226,0.32227 -0.32226,0.76172 0,0.4834 0.32226,0.82031 0.32227,0.32227 0.77637,0.32227 z" />
    <path
       id="path129"
       d="m 285.42871,-267.79297 v 26.74805 h -6.21094 v -2.09473 h 3.50098 v -22.55859 h -3.50098 v -2.09473 z" />
  </g>
</svg>
