<?xml version="1.0" encoding="UTF-8" standalone="no"?>
<svg
   xmlns:dc="http://purl.org/dc/elements/1.1/"
   xmlns:cc="http://creativecommons.org/ns#"
   xmlns:rdf="http://www.w3.org/1999/02/22-rdf-syntax-ns#"
   xmlns:svg="http://www.w3.org/2000/svg"
   xmlns="http://www.w3.org/2000/svg"
   id="svg97"
   stroke-miterlimit="10"
   stroke-linecap="square"
   stroke="none"
   fill="none"
   viewBox="0.0 0.0 369.0 801.0"
   version="1.1">
  <metadata
     id="metadata103">
    <rdf:RDF>
      <cc:Work
         rdf:about="">
        <dc:format>image/svg+xml</dc:format>
        <dc:type
           rdf:resource="http://purl.org/dc/dcmitype/StillImage" />
      </cc:Work>
    </rdf:RDF>
  </metadata>
  <defs
     id="defs101" />
  <clipPath
     id="p.0">
    <path
       id="path2"
       clip-rule="nonzero"
       d="m0 0l369.0 0l0 801.0l-369.0 0l0 -801.0z" />
  </clipPath>
  <g
     id="g91"
     clip-path="url(#p.0)">
    <path
       id="path5"
       fill-rule="nonzero"
       d="M 0,0 H 369.1076 V 801.916 H 0 Z"
       fill-opacity="0"
       fill="#000000" />
    <path
       id="path7"
       fill-rule="nonzero"
       d="m 248.5753,444.2651 h 101.4803 v 67.55905 H 248.5753 Z"
       fill="#000000" />
    <path
       id="path9"
       fill-rule="nonzero"
       d="m 248.5753,444.2651 h 101.4803 v 67.55905 H 248.5753 Z"
       stroke-linecap="butt"
       stroke-linejoin="round"
       stroke-width="2"
       stroke="#000000" />
    <path
       id="path11"
       fill-rule="nonzero"
       d="m 289.4047,109.25535 h 67.3071 v 208.0315 h -67.3071 z"
       fill="#ffffff" />
    <path
       id="path13"
       fill-rule="nonzero"
       d="m 289.4047,109.25535 h 67.3071 v 208.0315 h -67.3071 z"
       stroke-linecap="butt"
       stroke-linejoin="round"
       stroke-width="2"
       stroke="#000000" />
    <path
       id="path15"
       fill-rule="nonzero"
       d="M 5.589649,165.38321 H 53.306183 V 273.09973 H 5.589649 Z"
       fill="#ffffff" />
    <path
       id="path17"
       fill-rule="nonzero"
       d="M 5.589649,165.38321 H 53.306183 V 273.09973 H 5.589649 Z"
       stroke-linecap="butt"
       stroke-linejoin="round"
       stroke-width="2"
       stroke="#000000" />
    <path
       id="path19"
       fill-rule="nonzero"
       d="m 278.36172,66.32809 h 68.82806 v 0 c 9.01667,0 16.32611,7.042313 16.32611,15.729446 0,8.687134 -7.30944,15.729446 -16.32611,15.729446 h -68.82806 v 0 c -9.01666,0 -16.32614,-7.042313 -16.32614,-15.729446 0,-8.687134 7.30948,-15.729446 16.32614,-15.729446 z"
       fill="#ffffff" />
    <path
       id="path21"
       fill-rule="nonzero"
       d="m 278.36172,66.32809 h 68.82806 v 0 c 9.01667,0 16.32611,7.042313 16.32611,15.729446 0,8.687134 -7.30944,15.729446 -16.32611,15.729446 h -68.82806 v 0 c -9.01666,0 -16.32614,-7.042313 -16.32614,-15.729446 0,-8.687134 7.30948,-15.729446 16.32614,-15.729446 z"
       stroke-linecap="butt"
       stroke-linejoin="round"
       stroke-width="2"
       stroke="#000000" />
    <path
       id="path23"
       fill-rule="nonzero"
       d="m 12.574803,486.2047 h 67.30708 v 208.0315 h -67.30708 z"
       fill="#ffffff" />
    <path
       id="path25"
       fill-rule="nonzero"
       d="m 12.574803,486.2047 h 67.30708 v 208.0315 h -67.30708 z"
       stroke-linecap="butt"
       stroke-linejoin="round"
       stroke-width="2"
       stroke="#000000" />
    <path
       id="path27"
       fill-rule="nonzero"
       d="m 243.86876,46.650917 h 92.15749 V 384.32022 h -92.15749 z"
       fill="#ffffff" />
    <path
       id="path29"
       fill-rule="nonzero"
       d="m 243.86876,46.650917 h 92.15749 V 384.32022 h -92.15749 z"
       stroke-linecap="butt"
       stroke-linejoin="round"
       stroke-width="2"
       stroke="#000000" />
    <path
       id="path31"
       fill-rule="nonzero"
       d="M 22.658957,122.89764 H 101.74557 V 304.53543 H 22.658957 Z"
       fill="#000000" />
    <path
       id="path33"
       fill-rule="nonzero"
       d="M 22.658957,122.89764 H 101.74557 V 304.53543 H 22.658957 Z"
       stroke-linecap="butt"
       stroke-linejoin="round"
       stroke-width="2"
       stroke="#000000" />
    <path
       id="path35"
       fill-rule="nonzero"
       d="m 22.689058,66.32809 h 68.82809 v 0 c 9.016662,0 16.326122,7.042313 16.326122,15.729446 0,8.687134 -7.30946,15.729446 -16.326122,15.729446 h -68.82809 v 0 c -9.016665,0 -16.326115,-7.042313 -16.326115,-15.729446 0,-8.687134 7.309451,-15.729446 16.326115,-15.729446 z"
       fill="#ffffff" />
    <path
       id="path37"
       fill-rule="nonzero"
       d="m 22.689058,66.32809 h 68.82809 v 0 c 9.016662,0 16.326122,7.042313 16.326122,15.729446 0,8.687134 -7.30946,15.729446 -16.326122,15.729446 h -68.82809 v 0 c -9.016665,0 -16.326115,-7.042313 -16.326115,-15.729446 0,-8.687134 7.309451,-15.729446 16.326115,-15.729446 z"
       stroke-linecap="butt"
       stroke-linejoin="round"
       stroke-width="2"
       stroke="#000000" />
    <path
       id="path39"
       fill-rule="nonzero"
       d="m 22.689058,443.84253 h 68.82809 v 0 c 9.016662,0 16.326122,7.0423 16.326122,15.72943 0,8.68713 -7.30946,15.72946 -16.326122,15.72946 h -68.82809 v 0 c -9.016665,0 -16.326115,-7.04233 -16.326115,-15.72946 0,-8.68713 7.309451,-15.72943 16.326115,-15.72943 z"
       fill="#ffffff" />
    <path
       id="path41"
       fill-rule="nonzero"
       d="m 22.689058,443.84253 h 68.82809 v 0 c 9.016662,0 16.326122,7.0423 16.326122,15.72943 0,8.68713 -7.30946,15.72946 -16.326122,15.72946 h -68.82809 v 0 c -9.016665,0 -16.326115,-7.04233 -16.326115,-15.72946 0,-8.68713 7.309451,-15.72943 16.326115,-15.72943 z"
       stroke-linecap="butt"
       stroke-linejoin="round"
       stroke-width="2"
       stroke="#000000" />
    <path
       id="path43"
       fill-rule="nonzero"
       d="M 31.853674,46.650917 H 86.814306 V 384.32022 H 31.853674 Z"
       fill="#ffffff" />
    <path
       id="path45"
       fill-rule="nonzero"
       d="M 31.853674,46.650917 H 86.814306 V 384.32022 H 31.853674 Z"
       stroke-linecap="butt"
       stroke-linejoin="round"
       stroke-width="2"
       stroke="#000000" />
    <path
       id="path47"
       fill-rule="nonzero"
       d="m 278.36368,443.84253 h 68.82809 v 0 c 9.01667,0 16.32611,7.0423 16.32611,15.72943 0,8.68713 -7.30944,15.72946 -16.32611,15.72946 h -68.82809 v 0 c -9.01666,0 -16.32611,-7.04233 -16.32611,-15.72946 0,-8.68713 7.30945,-15.72943 16.32611,-15.72943 z"
       fill="#ffffff" />
    <path
       id="path49"
       fill-rule="nonzero"
       d="m 278.36368,443.84253 h 68.82809 v 0 c 9.01667,0 16.32611,7.0423 16.32611,15.72943 0,8.68713 -7.30944,15.72946 -16.32611,15.72946 h -68.82809 v 0 c -9.01666,0 -16.32611,-7.04233 -16.32611,-15.72946 0,-8.68713 7.30945,-15.72943 16.32611,-15.72943 z"
       stroke-linecap="butt"
       stroke-linejoin="round"
       stroke-width="2"
       stroke="#000000" />
    <path
       id="path51"
       fill-rule="nonzero"
       d="M 251.84662,615.33795 H 358.49228 V 660.1568 H 251.84662 Z"
       fill="#ffffff" />
    <path
       id="path53"
       fill-rule="nonzero"
       d="M 251.84662,615.33795 H 358.49228 V 660.1568 H 251.84662 Z"
       stroke-linecap="butt"
       stroke-linejoin="round"
       stroke-width="2"
       stroke="#000000" />
    <path
       id="path55"
       fill-rule="nonzero"
       d="m 251.84662,544.1022 h 106.64566 v 44.81891 H 251.84662 Z"
       fill="#ffffff" />
    <path
       id="path57"
       fill-rule="nonzero"
       d="m 251.84662,544.1022 h 106.64566 v 44.81891 H 251.84662 Z"
       stroke-linecap="butt"
       stroke-linejoin="round"
       stroke-width="2"
       stroke="#000000" />
    <path
       id="path59"
       fill-rule="nonzero"
       d="m 251.84662,689.47974 h 106.64566 v 44.81891 H 251.84662 Z"
       fill="#ffffff" />
    <path
       id="path61"
       fill-rule="nonzero"
       d="m 251.84662,689.47974 h 106.64566 v 44.81891 H 251.84662 Z"
       stroke-linecap="butt"
       stroke-linejoin="round"
       stroke-width="2"
       stroke="#000000" />
    <path
       id="path63"
       fill-rule="nonzero"
       d="m 6.361959,517.22833 h 24.88189"
       fill-opacity="0"
       fill="#000000" />
    <path
       id="path65"
       fill-rule="nonzero"
       d="m 6.361959,517.22833 h 24.88189"
       stroke-linecap="butt"
       stroke-linejoin="round"
       stroke-width="2"
       stroke="#000000" />
    <path
       id="path67"
       fill-rule="nonzero"
       d="m 6.361959,569.0379 h 24.88189"
       fill-opacity="0"
       fill="#000000" />
    <path
       id="path69"
       fill-rule="nonzero"
       d="m 6.361959,569.0379 h 24.88189"
       stroke-linecap="butt"
       stroke-linejoin="round"
       stroke-width="2"
       stroke="#000000" />
    <path
       id="path71"
       fill-rule="nonzero"
       d="m 6.361959,616.8954 h 24.88189"
       fill-opacity="0"
       fill="#000000" />
    <path
       id="path73"
       fill-rule="nonzero"
       d="m 6.361959,616.8954 h 24.88189"
       stroke-linecap="butt"
       stroke-linejoin="round"
       stroke-width="2"
       stroke="#000000" />
    <path
       id="path75"
       fill-rule="nonzero"
       d="M 6.361959,673.9764 H 31.999753"
       fill-opacity="0"
       fill="#000000" />
    <path
       id="path77"
       fill-rule="nonzero"
       d="M 6.361959,673.9764 H 31.999753"
       stroke-linecap="butt"
       stroke-linejoin="round"
       stroke-width="2"
       stroke="#000000" />
    <path
       id="path79"
       fill-rule="nonzero"
       d="m 31.85023,423.8084 h 304.1575 V 761.47765 H 31.85023 Z"
       fill="#ffffff" />
    <path
       id="path81"
       fill-rule="nonzero"
       d="m 31.85023,423.8084 h 304.1575 V 761.47765 H 31.85023 Z"
       stroke-linecap="butt"
       stroke-linejoin="round"
       stroke-width="2"
       stroke="#000000" />
    <path
       id="path83"
       fill-rule="nonzero"
       d="M 56.01132,0.9422572 H 312.60974 V 800.97376 H 56.01132 Z"
       fill="#ffffff" />
    <path
       id="path85"
       fill-rule="nonzero"
       d="M 56.01132,0.9422572 H 312.60974 V 800.97376 H 56.01132 Z"
       stroke-linecap="butt"
       stroke-linejoin="round"
       stroke-width="2"
       stroke="#000000" />
    <path
       id="path87"
       fill-rule="nonzero"
       d="M 289.4042,31.199474 V 346.85303 H 221.84513 V 31.199474 Z"
       fill-opacity="0"
       fill="#000000" />
    <path
       id="path89"
       fill-rule="nonzero"
       d="M 289.4042,31.199474 V 386.85303 H 221.84513 V 31.199474 Z"
       stroke-linecap="butt"
       stroke-linejoin="round"
       stroke-width="2"
       stroke="#000000" />
  </g>
  <g
     style="font-size:30px;font-family:'DejaVu Sans', sans-serif;text-anchor:middle;fill:#000000"
     id="text95"
     transform="rotate(90)"
     aria-label="[الرقم التسلسلي]">
    <path
       id="path105"
       d="m 100.375,-267.79297 h 6.21094 v 2.09473 h -3.51563 v 22.55859 h 3.51563 v 2.09473 H 100.375 Z" />
    <path
       id="path107"
       d="m 306.99121,-267.79297 h 2.69531 V -245 h -2.69531 z" />
    <path
       id="path109"
       d="m 301.33691,-250.43457 q 0,2.60742 -1.27441,4.08691 Q 298.89062,-245 296.63477,-245 h -1.9043 v -2.69531 h 1.09863 q 1.4502,0 2.09473,-0.64453 0.71777,-0.71778 0.71777,-2.27051 v -17.18262 h 2.69531 z" />
    <path
       id="path111"
       d="m 287.69922,-253.05664 h 2.69531 q 0.43945,1.64062 0.4834,2.08008 0.14648,1.50879 1.21582,2.63672 0.61523,0.64453 2.09473,0.64453 h 1.09863 V -245 h -1.9043 q -1.90429,0 -2.63672,-0.9082 -0.99609,4.07226 -4.67285,6.0205 -4.16015,2.21192 -8.87695,2.21192 v -2.69531 q 4.45312,0 7.42676,-1.875 3.19336,-2.02149 3.70605,-5.06836 0.14649,-0.84961 0.14649,-1.9043 0,-1.8457 -0.77637,-3.83789 z" />
    <path
       id="path113"
       d="m 272.8457,-252.86621 q 0.60059,-0.62988 0.60059,-1.75781 0,-0.86426 -0.9668,-1.61133 -0.4541,-0.36621 -1.09863,-0.35156 -0.76172,0.0146 -1.34766,0.62988 -0.58593,0.60058 -0.60058,1.34766 0,1.17187 0.80566,1.72851 0.58594,0.36621 1.20117,0.36621 1.05469,0 1.40625,-0.35156 z m -9.05273,5.1709 h 3.53027 q 1.23047,0 3.44238,-0.33692 1.15723,-0.17578 2.03614,-1.53808 0.4541,-0.70313 0.67383,-1.43555 -0.92286,0.80566 -2.34375,0.83496 -1.9043,0.0293 -3.04688,-0.98144 -1.43555,-1.27442 -1.43555,-3.16407 0,-0.76171 0.11719,-1.40625 0.33692,-2.16796 2.53418,-3.17871 1.14258,-0.52734 2.25586,-0.52734 1.31836,0 2.28516,0.73242 1.40625,1.05469 2.08007,2.54883 0.33692,0.74707 0.33692,2.79785 0,3.04688 -1.14258,5.1416 -1.08398,1.99219 -2.90039,2.63672 Q 270.61914,-245 268.49512,-245 h -4.70215 z m 8.34961,-16.34766 h 2.19726 v 2.19727 h -2.19726 z m -3.66211,0 h 2.19726 v 2.19727 h -2.19726 z" />
    <path
       id="path115"
       d="m 253.04102,-247.46094 q 1.7871,0.61524 2.90039,0.61524 0.64453,0 0.95214,-0.32227 0.77637,-0.83496 0.77637,-1.68457 0,-0.35156 -0.0879,-0.64453 -0.30762,-1.28906 -1.17187,-1.53809 -0.58594,-0.17578 -1.25977,-0.17578 -0.86426,0 -1.25977,0.39551 -0.99609,0.99609 -0.99609,1.99219 0,0.58594 0.14649,1.3623 z m 6.41601,1.69922 q -0.21973,0.20508 -0.41016,0.32227 -1.94824,1.17187 -3.04687,1.17187 -2.65137,0 -4.7168,-1.14258 -0.73242,-0.41015 -1.83105,0.73243 -0.36621,0.38086 -0.36621,1.53808 v 5.34668 h -2.92969 v -5.34668 q 0,-2.53418 1.75781,-4.02832 0.95215,-0.80566 2.27051,-0.80566 -0.0293,-0.61524 -0.0293,-1.20117 0,-2.16797 2.37305,-4.10157 1.12793,-0.92285 2.47559,-0.92285 1.05468,0 2.28515,0.52735 2.49024,1.04003 3.07617,3.6621 0.21973,0.98145 0.80567,1.62598 0.55664,0.64453 2.09472,0.64453 h 1.09864 v 2.69531 h -1.9043 q -2.56348,0 -3.00293,-0.71777 z" />
    <path
       id="path117"
       d="m 229.06152,-267.79297 h 2.69532 V -245 h -2.69532 z" />
    <path
       id="path119"
       d="m 223.40723,-250.43457 q 0,2.60742 -1.27442,4.08691 Q 220.96094,-245 218.70508,-245 h -1.9043 v -2.69531 h 1.09863 q 1.4502,0 2.09473,-0.64453 0.71777,-0.71778 0.71777,-2.27051 v -17.18262 h 2.69532 z" />
    <path
       id="path121"
       d="M 212.3916,-246.25977 Q 211.26367,-245 209.03711,-245 h -1.31836 v -2.69531 h 0.5127 q 1.45019,0 2.09472,-0.64453 0.71778,-0.71778 0.71778,-2.27051 v -3.17871 h 2.69531 v 3.17871 q 0,1.55273 0.71777,2.27051 0.64453,0.64453 2.09473,0.64453 h 0.80566 V -245 h -1.61133 q -2.19726,0 -3.35449,-1.25977 z m 0.73242,-13.38867 h 2.19727 v 2.19727 h -2.19727 z m -3.66211,0 h 2.19727 v 2.19727 h -2.19727 z" />
    <path
       id="path123"
       d="m 199.94043,-244.70703 q -0.54199,0.13183 -1.05469,0.13183 -0.92285,0 -1.72851,-0.36621 -2.00684,-0.89355 -2.27051,-2.82714 -0.70313,2.28515 -2.10938,2.76855 -0.99609,0.35156 -1.94824,0.35156 -1.43555,0 -2.49023,-0.71777 -0.87891,-0.58594 -1.4795,-1.65527 -0.62988,0.86425 -1.45019,1.34765 Q 184.2959,-245 182.8457,-245 h -1.90429 v -2.69531 h 1.09863 q 1.45019,0 2.09473,-0.64453 1.17187,-1.17188 1.17187,-2.63672 v -2.8125 h 2.69531 v 2.28515 q 0,0.9375 0.64453,2.40235 0.62989,1.45019 2.15332,1.45019 1.59668,0 2.24122,-1.78711 0.54199,-1.50879 0.54199,-4.35058 h 2.69531 q 0,3.00293 0.27832,3.73535 0.9375,2.49023 2.54883,2.47559 2.08008,-0.0293 2.08008,-4.10157 v -4.30664 h 2.69531 v 5.00977 q 0,1.4209 1.21582,2.63672 0.64453,0.64453 2.09473,0.64453 h 1.09863 V -245 h -1.9043 q -2.12402,0 -3.85254,-1.40625 -0.99609,1.31836 -2.59277,1.69922 z" />
    <path
       id="path125"
       d="M 176.23926,-246.25977 Q 175.11133,-245 172.88477,-245 h -1.9043 v -2.69531 h 1.09863 q 1.4502,0 2.09473,-0.64453 0.71777,-0.71778 0.71777,-2.27051 v -17.18262 h 2.69531 v 17.18262 q 0,1.55273 0.71778,2.27051 0.64453,0.64453 2.09472,0.64453 h 1.09864 V -245 h -1.9043 q -2.19727,0 -3.35449,-1.25977 z" />
    <path
       id="path127"
       d="m 163.20215,-244.70703 q -0.54199,0.13183 -1.05469,0.13183 -0.92285,0 -1.72851,-0.36621 -2.00684,-0.89355 -2.27051,-2.82714 -0.70313,2.28515 -2.10938,2.76855 -0.99609,0.35156 -1.94824,0.35156 -1.43555,0 -2.49023,-0.71777 -0.87891,-0.58594 -1.4795,-1.65527 -0.62988,0.86425 -1.45019,1.34765 Q 147.55762,-245 146.10742,-245 h -1.9043 v -2.69531 h 1.09864 q 1.45019,0 2.09472,-0.64453 1.17188,-1.17188 1.17188,-2.63672 v -2.8125 h 2.69531 v 2.28515 q 0,0.9375 0.64453,2.40235 0.62989,1.45019 2.15332,1.45019 1.59668,0 2.24121,-1.78711 0.542,-1.50879 0.542,-4.35058 h 2.69531 q 0,3.00293 0.27832,3.73535 0.9375,2.49023 2.54883,2.47559 2.08008,-0.0293 2.08008,-4.10157 v -4.30664 h 2.69531 v 5.00977 q 0,1.4209 1.21582,2.63672 0.64453,0.64453 2.09472,0.64453 h 1.09864 V -245 h -1.9043 q -2.12402,0 -3.85254,-1.40625 -0.99609,1.31836 -2.59277,1.69922 z" />
    <path
       id="path129"
       d="M 139.50098,-246.25977 Q 138.37305,-245 136.14648,-245 h -1.90429 v -2.69531 h 1.09863 q 1.4502,0 2.09473,-0.64453 0.71777,-0.71778 0.71777,-2.27051 v -17.18262 h 2.69531 v 17.18262 q 0,1.55273 0.71778,2.27051 0.64453,0.64453 2.09472,0.64453 h 1.09864 V -245 h -1.9043 q -2.19727,0 -3.35449,-1.25977 z" />
    <path
       id="path131"
       d="m 120.50195,-239.87305 h 2.19727 v 2.19727 h -2.19727 z m -3.66211,0 h 2.19727 v 2.19727 h -2.19727 z m 8.78907,-4.64355 q 1.333,-0.74707 1.333,-1.23047 -0.0146,-0.62988 -0.70312,-0.82031 -0.42481,-0.11719 -0.86426,-0.70313 -0.64453,-0.86426 -0.64453,-1.75781 0,-0.95215 0.76172,-1.83105 1.17187,-1.37696 2.40234,-1.58204 0.43946,-0.0879 1.05469,-0.0879 1.71387,0 2.98828,1.96289 1.875,2.8711 2.34375,2.8711 h 0.5127 V -245 h -0.5127 q -1.66992,0 -3.31055,-2.51953 -1.58203,-2.41699 -1.96289,-2.41699 -0.52734,0 -0.74707,0.0879 -0.65918,0.24902 -0.65918,0.76172 0,0.70312 0.95215,1.09863 1.06934,0.43945 1.11328,2.24121 0.0439,1.43555 -1.61132,2.69531 -1.875,1.40625 -5.06836,1.86035 -1.30371,0.17579 -2.82715,0.17579 -2.75391,0 -4.46778,-0.60059 -4.29199,-1.50879 -4.29199,-5.34668 0,-2.24121 0.92285,-3.55957 h 2.69532 q -0.95215,1.31836 -0.95215,3.55957 0,1.66992 2.43164,2.8125 0.9668,0.4541 3.58887,0.4541 1.333,0 2.46093,-0.11719 2.18262,-0.21972 3.06153,-0.70312 z" />
    <path
       id="path133"
       d="m 321.61035,-267.79297 v 26.74805 h -6.21094 v -2.09473 h 3.50098 v -22.55859 h -3.50098 v -2.09473 z" />
  </g>
</svg>
