<?xml version="1.0" standalone="yes"?>

<svg version="1.1" viewBox="0.0 0.0 369.0 801.0" fill="none" stroke="none" stroke-linecap="square" stroke-miterlimit="10" xmlns="http://www.w3.org/2000/svg" xmlns:xlink="http://www.w3.org/1999/xlink">
	<clipPath id="p.0">
		<path d="m0 0l369.0 0l0 801.0l-369.0 0l0 -801.0z" clip-rule="nonzero"/>
	</clipPath>
	<g clip-path="url(#p.0)">
		<path fill="#000000" fill-opacity="0.0" d="m0 0l369.1076 0l0 801.916l-369.1076 0z" fill-rule="nonzero"/>
		<path fill="#000000" d="m248.5753 444.2651l101.4803 0l0 67.55905l-101.4803 0z" fill-rule="nonzero"/>
		<path stroke="#000000" stroke-width="2.0" stroke-linejoin="round" stroke-linecap="butt" d="m248.5753 444.2651l101.4803 0l0 67.55905l-101.4803 0z" fill-rule="nonzero"/>
		<path fill="#ffffff" d="m289.4047 109.25535l67.3071 0l0 208.0315l-67.3071 0z" fill-rule="nonzero"/>
		<path stroke="#000000" stroke-width="2.0" stroke-linejoin="round" stroke-linecap="butt" d="m289.4047 109.25535l67.3071 0l0 208.0315l-67.3071 0z" fill-rule="nonzero"/>
		<path fill="#ffffff" d="m5.589649 165.38321l47.716534 0l0 107.71652l-47.716534 0z" fill-rule="nonzero"/>
		<path stroke="#000000" stroke-width="2.0" stroke-linejoin="round" stroke-linecap="butt" d="m5.589649 165.38321l47.716534 0l0 107.71652l-47.716534 0z" fill-rule="nonzero"/>
		<path fill="#ffffff" d="m278.36172 66.32809l68.828064 0l0 0c9.016663 0 16.32611 7.0423126 16.32611 15.729446c0 8.687134 -7.3094482 15.729446 -16.32611 15.729446l-68.828064 0l0 0c-9.016663 0 -16.326141 -7.0423126 -16.326141 -15.729446c0 -8.687134 7.3094788 -15.729446 16.326141 -15.729446z" fill-rule="nonzero"/>
		<path stroke="#000000" stroke-width="2.0" stroke-linejoin="round" stroke-linecap="butt" d="m278.36172 66.32809l68.828064 0l0 0c9.016663 0 16.32611 7.0423126 16.32611 15.729446c0 8.687134 -7.3094482 15.729446 -16.32611 15.729446l-68.828064 0l0 0c-9.016663 0 -16.326141 -7.0423126 -16.326141 -15.729446c0 -8.687134 7.3094788 -15.729446 16.326141 -15.729446z" fill-rule="nonzero"/>
		<path fill="#ffffff" d="m12.574803 486.2047l67.30708 0l0 208.0315l-67.30708 0z" fill-rule="nonzero"/>
		<path stroke="#000000" stroke-width="2.0" stroke-linejoin="round" stroke-linecap="butt" d="m12.574803 486.2047l67.30708 0l0 208.0315l-67.30708 0z" fill-rule="nonzero"/>
		<path fill="#ffffff" d="m243.86876 46.650917l92.157486 0l0 337.6693l-92.157486 0z" fill-rule="nonzero"/>
		<path stroke="#000000" stroke-width="2.0" stroke-linejoin="round" stroke-linecap="butt" d="m243.86876 46.650917l92.157486 0l0 337.6693l-92.157486 0z" fill-rule="nonzero"/>
		<path fill="#000000" d="m22.658957 122.89764l79.08661 0l0 181.63779l-79.08661 0z" fill-rule="nonzero"/>
		<path stroke="#000000" stroke-width="2.0" stroke-linejoin="round" stroke-linecap="butt" d="m22.658957 122.89764l79.08661 0l0 181.63779l-79.08661 0z" fill-rule="nonzero"/>
		<path fill="#ffffff" d="m22.689058 66.32809l68.82809 0l0 0c9.016663 0 16.326118 7.0423126 16.326118 15.729446c0 8.687134 -7.309456 15.729446 -16.326118 15.729446l-68.82809 0l0 0c-9.0166645 0 -16.326115 -7.0423126 -16.326115 -15.729446c0 -8.687134 7.3094506 -15.729446 16.326115 -15.729446z" fill-rule="nonzero"/>
		<path stroke="#000000" stroke-width="2.0" stroke-linejoin="round" stroke-linecap="butt" d="m22.689058 66.32809l68.82809 0l0 0c9.016663 0 16.326118 7.0423126 16.326118 15.729446c0 8.687134 -7.309456 15.729446 -16.326118 15.729446l-68.82809 0l0 0c-9.0166645 0 -16.326115 -7.0423126 -16.326115 -15.729446c0 -8.687134 7.3094506 -15.729446 16.326115 -15.729446z" fill-rule="nonzero"/>
		<path fill="#ffffff" d="m22.689058 443.84253l68.82809 0l0 0c9.016663 0 16.326118 7.0422974 16.326118 15.729431c0 8.687134 -7.309456 15.729462 -16.326118 15.729462l-68.82809 0l0 0c-9.0166645 0 -16.326115 -7.042328 -16.326115 -15.729462c0 -8.687134 7.3094506 -15.729431 16.326115 -15.729431z" fill-rule="nonzero"/>
		<path stroke="#000000" stroke-width="2.0" stroke-linejoin="round" stroke-linecap="butt" d="m22.689058 443.84253l68.82809 0l0 0c9.016663 0 16.326118 7.0422974 16.326118 15.729431c0 8.687134 -7.309456 15.729462 -16.326118 15.729462l-68.82809 0l0 0c-9.0166645 0 -16.326115 -7.042328 -16.326115 -15.729462c0 -8.687134 7.3094506 -15.729431 16.326115 -15.729431z" fill-rule="nonzero"/>
		<path fill="#ffffff" d="m31.853674 46.650917l54.960632 0l0 337.6693l-54.960632 0z" fill-rule="nonzero"/>
		<path stroke="#000000" stroke-width="2.0" stroke-linejoin="round" stroke-linecap="butt" d="m31.853674 46.650917l54.960632 0l0 337.6693l-54.960632 0z" fill-rule="nonzero"/>
		<path fill="#ffffff" d="m278.36368 443.84253l68.828094 0l0 0c9.016663 0 16.32611 7.0422974 16.32611 15.729431c0 8.687134 -7.3094482 15.729462 -16.32611 15.729462l-68.828094 0l0 0c-9.016663 0 -16.32611 -7.042328 -16.32611 -15.729462c0 -8.687134 7.3094482 -15.729431 16.32611 -15.729431z" fill-rule="nonzero"/>
		<path stroke="#000000" stroke-width="2.0" stroke-linejoin="round" stroke-linecap="butt" d="m278.36368 443.84253l68.828094 0l0 0c9.016663 0 16.32611 7.0422974 16.32611 15.729431c0 8.687134 -7.3094482 15.729462 -16.32611 15.729462l-68.828094 0l0 0c-9.016663 0 -16.32611 -7.042328 -16.32611 -15.729462c0 -8.687134 7.3094482 -15.729431 16.32611 -15.729431z" fill-rule="nonzero"/>
		<path fill="#ffffff" d="m251.84662 615.33795l106.64566 0l0 44.818848l-106.64566 0z" fill-rule="nonzero"/>
		<path stroke="#000000" stroke-width="2.0" stroke-linejoin="round" stroke-linecap="butt" d="m251.84662 615.33795l106.64566 0l0 44.818848l-106.64566 0z" fill-rule="nonzero"/>
		<path fill="#ffffff" d="m251.84662 544.1022l106.64566 0l0 44.81891l-106.64566 0z" fill-rule="nonzero"/>
		<path stroke="#000000" stroke-width="2.0" stroke-linejoin="round" stroke-linecap="butt" d="m251.84662 544.1022l106.64566 0l0 44.81891l-106.64566 0z" fill-rule="nonzero"/>
		<path fill="#ffffff" d="m251.84662 689.47974l106.64566 0l0 44.81891l-106.64566 0z" fill-rule="nonzero"/>
		<path stroke="#000000" stroke-width="2.0" stroke-linejoin="round" stroke-linecap="butt" d="m251.84662 689.47974l106.64566 0l0 44.81891l-106.64566 0z" fill-rule="nonzero"/>
		<path fill="#000000" fill-opacity="0.0" d="m6.361959 517.22833l24.88189 0" fill-rule="nonzero"/>
		<path stroke="#000000" stroke-width="2.0" stroke-linejoin="round" stroke-linecap="butt" d="m6.361959 517.22833l24.88189 0" fill-rule="nonzero"/>
		<path fill="#000000" fill-opacity="0.0" d="m6.361959 569.0379l24.88189 0" fill-rule="nonzero"/>
		<path stroke="#000000" stroke-width="2.0" stroke-linejoin="round" stroke-linecap="butt" d="m6.361959 569.0379l24.88189 0" fill-rule="nonzero"/>
		<path fill="#000000" fill-opacity="0.0" d="m6.361959 616.8954l24.88189 0" fill-rule="nonzero"/>
		<path stroke="#000000" stroke-width="2.0" stroke-linejoin="round" stroke-linecap="butt" d="m6.361959 616.8954l24.88189 0" fill-rule="nonzero"/>
		<path fill="#000000" fill-opacity="0.0" d="m6.361959 673.9764l25.637794 0" fill-rule="nonzero"/>
		<path stroke="#000000" stroke-width="2.0" stroke-linejoin="round" stroke-linecap="butt" d="m6.361959 673.9764l25.637794 0" fill-rule="nonzero"/>
		<path fill="#ffffff" d="m31.85023 423.8084l304.1575 0l0 337.66925l-304.1575 0z" fill-rule="nonzero"/>
		<path stroke="#000000" stroke-width="2.0" stroke-linejoin="round" stroke-linecap="butt" d="m31.85023 423.8084l304.1575 0l0 337.66925l-304.1575 0z" fill-rule="nonzero"/>
		<path fill="#ffffff" d="m56.01132 0.9422572l256.59842 0l0 800.0315l-256.59842 0z" fill-rule="nonzero"/>
		<path stroke="#000000" stroke-width="2.0" stroke-linejoin="round" stroke-linecap="butt" d="m56.01132 0.9422572l256.59842 0l0 800.0315l-256.59842 0z" fill-rule="nonzero"/>
		<path fill="#000000" fill-opacity="0.0" d="m289.4042 31.199474l0 315.65356l-67.55907 0l0 -315.65356z" fill-rule="nonzero"/>
		<path stroke="#000000" stroke-width="2.0" stroke-linejoin="round" stroke-linecap="butt" d="m289.4042 31.199474l0 355.65356l-67.55907 0l0 -355.65356z" fill-rule="nonzero"/>
	</g>
	<text fill="#000000" font-family="DejaVu Sans, sans-serif" transform="rotate(90)" text-anchor="middle" x="211" y="-245"  font-size="30px">
		<tspan data-localize="intro.label-serialnumber"  data-autosize="20">[SERIAL NUMBER]</tspan>
	</text>
</svg>

