<?xml version="1.0" encoding="utf-8"?><svg width="100%" height="100%" viewBox="0 0 400 420" preserveAspectRatio="xMidYMid meet" version="1.1" xmlns="http://www.w3.org/2000/svg"><text font-family="Special Elite, sans-serif" text-anchor="middle" x="10" y="215" font-size="18px"><tspan>0</tspan></text><rect width="24" height="8" x="30" y="207" /><rect width="24" height="8" x="62" y="207" /><rect width="24" height="8" x="94" y="207" /><rect width="24" height="8" x="126" y="207" /><rect width="24" height="8" x="158" y="207" /><text font-family="Special Elite, sans-serif" text-anchor="middle" x="10" y="235" font-size="18px"><tspan>1</tspan></text><circle cx="34" cy="231" r="4" /><rect width="24" height="8" x="46" y="227" /><rect width="24" height="8" x="78" y="227" /><rect width="24" height="8" x="110" y="227" /><rect width="24" height="8" x="142" y="227" /><text font-family="Special Elite, sans-serif" text-anchor="middle" x="10" y="255" font-size="18px"><tspan>2</tspan></text><circle cx="34" cy="251" r="4" /><circle cx="50" cy="251" r="4" /><rect width="24" height="8" x="62" y="247" /><rect width="24" height="8" x="94" y="247" /><rect width="24" height="8" x="126" y="247" /><text font-family="Special Elite, sans-serif" text-anchor="middle" x="10" y="275" font-size="18px"><tspan>3</tspan></text><circle cx="34" cy="271" r="4" /><circle cx="50" cy="271" r="4" /><circle cx="66" cy="271" r="4" /><rect width="24" height="8" x="78" y="267" /><rect width="24" height="8" x="110" y="267" /><text font-family="Special Elite, sans-serif" text-anchor="middle" x="10" y="295" font-size="18px"><tspan>4</tspan></text><circle cx="34" cy="291" r="4" /><circle cx="50" cy="291" r="4" /><circle cx="66" cy="291" r="4" /><circle cx="82" cy="291" r="4" /><rect width="24" height="8" x="94" y="287" /><text font-family="Special Elite, sans-serif" text-anchor="middle" x="10" y="315" font-size="18px"><tspan>5</tspan></text><circle cx="34" cy="311" r="4" /><circle cx="50" cy="311" r="4" /><circle cx="66" cy="311" r="4" /><circle cx="82" cy="311" r="4" /><circle cx="98" cy="311" r="4" /><text font-family="Special Elite, sans-serif" text-anchor="middle" x="10" y="335" font-size="18px"><tspan>6</tspan></text><rect width="24" height="8" x="30" y="327" /><circle cx="66" cy="331" r="4" /><circle cx="82" cy="331" r="4" /><circle cx="98" cy="331" r="4" /><circle cx="114" cy="331" r="4" /><text font-family="Special Elite, sans-serif" text-anchor="middle" x="10" y="355" font-size="18px"><tspan>7</tspan></text><rect width="24" height="8" x="30" y="347" /><rect width="24" height="8" x="62" y="347" /><circle cx="98" cy="351" r="4" /><circle cx="114" cy="351" r="4" /><circle cx="130" cy="351" r="4" /><text font-family="Special Elite, sans-serif" text-anchor="middle" x="10" y="375" font-size="18px"><tspan>8</tspan></text><rect width="24" height="8" x="30" y="367" /><rect width="24" height="8" x="62" y="367" /><rect width="24" height="8" x="94" y="367" /><circle cx="130" cy="371" r="4" /><circle cx="146" cy="371" r="4" /><text font-family="Special Elite, sans-serif" text-anchor="middle" x="10" y="395" font-size="18px"><tspan>9</tspan></text><rect width="24" height="8" x="30" y="387" /><rect width="24" height="8" x="62" y="387" /><rect width="24" height="8" x="94" y="387" /><rect width="24" height="8" x="126" y="387" /><circle cx="162" cy="391" r="4" /><text font-family="Special Elite, sans-serif" text-anchor="middle" x="10" y="415" font-size="18px"><tspan>ת</tspan></text><rect width="24" height="8" x="30" y="407" /><text font-family="Special Elite, sans-serif" text-anchor="middle" x="10" y="435" font-size="18px"><tspan>ש</tspan></text><circle cx="34" cy="431" r="4" /><circle cx="50" cy="431" r="4" /><circle cx="66" cy="431" r="4" /><text font-family="Special Elite, sans-serif" text-anchor="middle" x="10" y="455" font-size="18px"><tspan>ר</tspan></text><circle cx="34" cy="451" r="4" /><rect width="24" height="8" x="46" y="447" /><circle cx="82" cy="451" r="4" /><text font-family="Special Elite, sans-serif" text-anchor="middle" x="10" y="475" font-size="18px"><tspan>ק</tspan></text><rect width="24" height="8" x="30" y="467" /><rect width="24" height="8" x="62" y="467" /><circle cx="98" cy="471" r="4" /><rect width="24" height="8" x="110" y="467" /><text font-family="Special Elite, sans-serif" text-anchor="middle" x="10" y="495" font-size="18px"><tspan>ץ</tspan></text><circle cx="34" cy="491" r="4" /><rect width="24" height="8" x="46" y="487" /><rect width="24" height="8" x="78" y="487" /><text font-family="Special Elite, sans-serif" text-anchor="middle" x="10" y="515" font-size="18px"><tspan>צ</tspan></text><circle cx="34" cy="511" r="4" /><rect width="24" height="8" x="46" y="507" /><rect width="24" height="8" x="78" y="507" /><text font-family="Special Elite, sans-serif" text-anchor="middle" x="10" y="535" font-size="18px"><tspan>ף</tspan></text><circle cx="34" cy="531" r="4" /><rect width="24" height="8" x="46" y="527" /><rect width="24" height="8" x="78" y="527" /><circle cx="114" cy="531" r="4" /><text font-family="Special Elite, sans-serif" text-anchor="middle" x="10" y="555" font-size="18px"><tspan>פ</tspan></text><circle cx="34" cy="551" r="4" /><rect width="24" height="8" x="46" y="547" /><rect width="24" height="8" x="78" y="547" /><circle cx="114" cy="551" r="4" /><text font-family="Special Elite, sans-serif" text-anchor="middle" x="10" y="575" font-size="18px"><tspan>ע</tspan></text><circle cx="34" cy="571" r="4" /><rect width="24" height="8" x="46" y="567" /><rect width="24" height="8" x="78" y="567" /><rect width="24" height="8" x="110" y="567" /><text font-family="Special Elite, sans-serif" text-anchor="middle" x="10" y="595" font-size="18px"><tspan>ס</tspan></text><rect width="24" height="8" x="30" y="587" /><circle cx="66" cy="591" r="4" /><rect width="24" height="8" x="78" y="587" /><circle cx="114" cy="591" r="4" /><text font-family="Special Elite, sans-serif" text-anchor="middle" x="200" y="15" font-size="18px"><tspan>ן</tspan></text><rect width="24" height="8" x="220" y="7" /><circle cx="256" cy="11" r="4" /><text font-family="Special Elite, sans-serif" text-anchor="middle" x="200" y="35" font-size="18px"><tspan>נ</tspan></text><rect width="24" height="8" x="220" y="27" /><circle cx="256" cy="31" r="4" /><text font-family="Special Elite, sans-serif" text-anchor="middle" x="200" y="55" font-size="18px"><tspan>ם</tspan></text><rect width="24" height="8" x="220" y="47" /><rect width="24" height="8" x="252" y="47" /><text font-family="Special Elite, sans-serif" text-anchor="middle" x="200" y="75" font-size="18px"><tspan>מ</tspan></text><rect width="24" height="8" x="220" y="67" /><rect width="24" height="8" x="252" y="67" /><text font-family="Special Elite, sans-serif" text-anchor="middle" x="200" y="95" font-size="18px"><tspan>ל</tspan></text><circle cx="224" cy="91" r="4" /><rect width="24" height="8" x="236" y="87" /><circle cx="272" cy="91" r="4" /><circle cx="288" cy="91" r="4" /><text font-family="Special Elite, sans-serif" text-anchor="middle" x="200" y="115" font-size="18px"><tspan>ך</tspan></text><rect width="24" height="8" x="220" y="107" /><circle cx="256" cy="111" r="4" /><rect width="24" height="8" x="268" y="107" /><text font-family="Special Elite, sans-serif" text-anchor="middle" x="200" y="135" font-size="18px"><tspan>כ</tspan></text><rect width="24" height="8" x="220" y="127" /><circle cx="256" cy="131" r="4" /><rect width="24" height="8" x="268" y="127" /><text font-family="Special Elite, sans-serif" text-anchor="middle" x="200" y="155" font-size="18px"><tspan>י</tspan></text><circle cx="224" cy="151" r="4" /><circle cx="240" cy="151" r="4" /><text font-family="Special Elite, sans-serif" text-anchor="middle" x="200" y="175" font-size="18px"><tspan>ט</tspan></text><circle cx="224" cy="171" r="4" /><circle cx="240" cy="171" r="4" /><rect width="24" height="8" x="252" y="167" /><text font-family="Special Elite, sans-serif" text-anchor="middle" x="200" y="195" font-size="18px"><tspan>ח</tspan></text><circle cx="224" cy="191" r="4" /><circle cx="240" cy="191" r="4" /><circle cx="256" cy="191" r="4" /><circle cx="272" cy="191" r="4" /><text font-family="Special Elite, sans-serif" text-anchor="middle" x="200" y="215" font-size="18px"><tspan>ז</tspan></text><rect width="24" height="8" x="220" y="207" /><rect width="24" height="8" x="252" y="207" /><circle cx="288" cy="211" r="4" /><circle cx="304" cy="211" r="4" /><text font-family="Special Elite, sans-serif" text-anchor="middle" x="200" y="235" font-size="18px"><tspan>ו</tspan></text><circle cx="224" cy="231" r="4" /><text font-family="Special Elite, sans-serif" text-anchor="middle" x="200" y="255" font-size="18px"><tspan>ה</tspan></text><rect width="24" height="8" x="220" y="247" /><rect width="24" height="8" x="252" y="247" /><rect width="24" height="8" x="284" y="247" /><text font-family="Special Elite, sans-serif" text-anchor="middle" x="200" y="275" font-size="18px"><tspan>ד</tspan></text><rect width="24" height="8" x="220" y="267" /><circle cx="256" cy="271" r="4" /><circle cx="272" cy="271" r="4" /><text font-family="Special Elite, sans-serif" text-anchor="middle" x="200" y="295" font-size="18px"><tspan>ג</tspan></text><rect width="24" height="8" x="220" y="287" /><rect width="24" height="8" x="252" y="287" /><circle cx="288" cy="291" r="4" /><text font-family="Special Elite, sans-serif" text-anchor="middle" x="200" y="315" font-size="18px"><tspan>ב</tspan></text><rect width="24" height="8" x="220" y="307" /><circle cx="256" cy="311" r="4" /><circle cx="272" cy="311" r="4" /><circle cx="288" cy="311" r="4" /><text font-family="Special Elite, sans-serif" text-anchor="middle" x="200" y="335" font-size="18px"><tspan>א</tspan></text><circle cx="224" cy="331" r="4" /><rect width="24" height="8" x="236" y="327" /></svg>