<?xml version="1.0" encoding="UTF-8" standalone="no"?>
<svg
   xmlns:dc="http://purl.org/dc/elements/1.1/"
   xmlns:cc="http://creativecommons.org/ns#"
   xmlns:rdf="http://www.w3.org/1999/02/22-rdf-syntax-ns#"
   xmlns:svg="http://www.w3.org/2000/svg"
   xmlns="http://www.w3.org/2000/svg"
   id="svg111"
   stroke-miterlimit="10"
   stroke-linecap="square"
   stroke="none"
   fill="none"
   viewBox="0.0 0.0 348.0 348.0"
   version="1.1">
  <metadata
     id="metadata117">
    <rdf:RDF>
      <cc:Work
         rdf:about="">
        <dc:format>image/svg+xml</dc:format>
        <dc:type
           rdf:resource="http://purl.org/dc/dcmitype/StillImage" />
      </cc:Work>
    </rdf:RDF>
  </metadata>
  <defs
     id="defs115" />
  <clipPath
     id="p.0">
    <path
       id="path2"
       clip-rule="nonzero"
       d="m0 0l348.0 0l0 348.0l-348.0 0l0 -348.0z" />
  </clipPath>
  <g
     id="g85"
     clip-path="url(#p.0)">
    <path
       style="fill:#000000;fill-opacity:0;fill-rule:evenodd"
       id="path5"
       d="M 0,0 H 348 V 348 H 0 Z" />
    <path
       style="fill:#ffffff;fill-rule:evenodd"
       id="path7"
       d="M -6,0 H 348.01575 V 347.9685 H -6 Z" />
    <path
       style="fill:#000000;fill-opacity:0;fill-rule:evenodd"
       id="path9"
       d="m 5.07874,5.7758217 h 336.9134 V 343.4451 H 5.07874 Z" />
    <path
       style="fill-rule:evenodd;stroke:#000000;stroke-width:2;stroke-linecap:butt;stroke-linejoin:round"
       id="path11"
       d="m 5.07874,5.7758217 h 336.9134 V 343.4451 H 5.07874 Z" />
    <path
       style="fill:#ffffff;fill-rule:evenodd"
       id="path13"
       d="m 282.73444,40.553925 v 0 c 0,-8.375591 6.96603,-15.165352 15.55905,-15.165352 v 0 c 4.12653,0 8.08402,1.597773 11.00192,4.441828 2.91788,2.844057 4.55713,6.701422 4.55713,10.723524 v 0 c 0,8.375595 -6.966,15.165356 -15.55905,15.165356 v 0 c -8.59302,0 -15.55905,-6.789761 -15.55905,-15.165356 z" />
    <path
       style="fill-rule:evenodd;stroke:#000000;stroke-width:2;stroke-linecap:butt;stroke-linejoin:round"
       id="path15"
       d="m 282.73444,40.553925 v 0 c 0,-8.375591 6.96603,-15.165352 15.55905,-15.165352 v 0 c 4.12653,0 8.08402,1.597773 11.00192,4.441828 2.91788,2.844057 4.55713,6.701422 4.55713,10.723524 v 0 c 0,8.375595 -6.966,15.165356 -15.55905,15.165356 v 0 c -8.59302,0 -15.55905,-6.789761 -15.55905,-15.165356 z" />
    <path
       style="fill:#000000;fill-rule:evenodd"
       id="path17"
       d="M 50.949955,90.04964 60.41452,72.726802 69.879089,90.04964 Z" />
    <path
       style="fill-rule:evenodd;stroke:#000000;stroke-width:2;stroke-linecap:butt;stroke-linejoin:round"
       id="path19"
       d="M 50.949955,90.04964 60.41452,72.726802 69.879089,90.04964 Z" />
    <path
       style="fill:#000000;fill-opacity:0;fill-rule:evenodd"
       id="path21"
       d="m 122.04724,268.00525 h 97.92126 v 41.88977 h -97.92126 z" />
    <path
       style="fill-rule:evenodd;stroke:#000000;stroke-width:2;stroke-linecap:butt;stroke-linejoin:round"
       id="path23"
       d="m 122.04724,268.00525 h 97.92126 v 41.88977 h -97.92126 z" />
    <path
       style="fill:#000000;fill-rule:evenodd"
       id="path25"
       d="M 29.517061,106.30446 H 289.61154 v 96.81889 H 29.517061 Z" />
    <path
       style="fill-rule:evenodd;stroke:#000000;stroke-width:2;stroke-linecap:butt;stroke-linejoin:round"
       id="path27"
       d="M 29.517061,106.30446 H 289.61154 v 96.81889 H 29.517061 Z" />
    <path
       style="fill:#ffffff;fill-rule:evenodd"
       id="path29"
       d="m 35.627296,113.07874 h 49.574806 v 82.14173 H 35.627296 Z" />
    <path
       style="fill-rule:evenodd;stroke:#000000;stroke-width:1;stroke-linecap:butt;stroke-linejoin:round"
       id="path31"
       d="m 35.627296,113.07874 h 49.574806 v 82.14173 H 35.627296 Z" />
    <path
       style="fill:#ffffff;fill-rule:evenodd"
       id="path33"
       d="m 85.2021,113.07874 h 49.5748 v 82.14173 H 85.2021 Z" />
    <path
       style="fill-rule:evenodd;stroke:#000000;stroke-width:1;stroke-linecap:butt;stroke-linejoin:round"
       id="path35"
       d="m 85.2021,113.07874 h 49.5748 v 82.14173 H 85.2021 Z" />
    <path
       style="fill:#ffffff;fill-rule:evenodd"
       id="path37"
       d="m 134.77843,113.07874 h 49.5748 v 82.14173 h -49.5748 z" />
    <path
       style="fill-rule:evenodd;stroke:#000000;stroke-width:1;stroke-linecap:butt;stroke-linejoin:round"
       id="path39"
       d="m 134.77843,113.07874 h 49.5748 v 82.14173 h -49.5748 z" />
    <path
       style="fill:#ffffff;fill-rule:evenodd"
       id="path41"
       d="m 184.35214,113.07874 h 49.5748 v 82.14173 h -49.5748 z" />
    <path
       style="fill-rule:evenodd;stroke:#000000;stroke-width:1;stroke-linecap:butt;stroke-linejoin:round"
       id="path43"
       d="m 184.35214,113.07874 h 49.5748 v 82.14173 h -49.5748 z" />
    <path
       style="fill:#ffffff;fill-rule:evenodd"
       id="path45"
       d="m 233.9265,113.07874 h 49.57481 v 82.14173 H 233.9265 Z" />
    <path
       style="fill-rule:evenodd;stroke:#000000;stroke-width:1;stroke-linecap:butt;stroke-linejoin:round"
       id="path47"
       d="m 233.9265,113.07874 h 49.57481 v 82.14173 H 233.9265 Z" />
    <path
       style="fill:#000000;fill-rule:evenodd"
       id="path49"
       d="m 100.52476,90.04964 9.46457,-17.322838 9.46457,17.322838 z" />
    <path
       style="fill-rule:evenodd;stroke:#000000;stroke-width:2;stroke-linecap:butt;stroke-linejoin:round"
       id="path51"
       d="m 100.52476,90.04964 9.46457,-17.322838 9.46457,17.322838 z" />
    <path
       style="fill:#000000;fill-rule:evenodd"
       id="path53"
       d="m 150.09956,90.04964 9.46457,-17.322838 9.46457,17.322838 z" />
    <path
       style="fill-rule:evenodd;stroke:#000000;stroke-width:2;stroke-linecap:butt;stroke-linejoin:round"
       id="path55"
       d="m 150.09956,90.04964 9.46457,-17.322838 9.46457,17.322838 z" />
    <path
       style="fill:#000000;fill-rule:evenodd"
       id="path57"
       d="m 199.67436,90.04964 9.46457,-17.322838 9.46457,17.322838 z" />
    <path
       style="fill-rule:evenodd;stroke:#000000;stroke-width:2;stroke-linecap:butt;stroke-linejoin:round"
       id="path59"
       d="m 199.67436,90.04964 9.46457,-17.322838 9.46457,17.322838 z" />
    <path
       style="fill:#000000;fill-rule:evenodd"
       id="path61"
       d="m 249.24916,90.04964 9.46458,-17.322838 9.46457,17.322838 z" />
    <path
       style="fill-rule:evenodd;stroke:#000000;stroke-width:2;stroke-linecap:butt;stroke-linejoin:round"
       id="path63"
       d="m 249.24916,90.04964 9.46458,-17.322838 9.46457,17.322838 z" />
    <path
       style="fill:#000000;fill-rule:evenodd"
       id="path65"
       d="m 268.1783,219.37772 -9.46457,17.32285 -9.46458,-17.32285 z" />
    <path
       style="fill-rule:evenodd;stroke:#000000;stroke-width:2;stroke-linecap:butt;stroke-linejoin:round"
       id="path67"
       d="m 268.1783,219.37772 -9.46457,17.32285 -9.46458,-17.32285 z" />
    <path
       style="fill:#000000;fill-rule:evenodd"
       id="path69"
       d="m 218.6035,219.37772 -9.46457,17.32285 -9.46457,-17.32285 z" />
    <path
       style="fill-rule:evenodd;stroke:#000000;stroke-width:2;stroke-linecap:butt;stroke-linejoin:round"
       id="path71"
       d="m 218.6035,219.37772 -9.46457,17.32285 -9.46457,-17.32285 z" />
    <path
       style="fill:#000000;fill-rule:evenodd"
       id="path73"
       d="m 169.0287,219.37772 -9.46457,17.32285 -9.46457,-17.32285 z" />
    <path
       style="fill-rule:evenodd;stroke:#000000;stroke-width:2;stroke-linecap:butt;stroke-linejoin:round"
       id="path75"
       d="m 169.0287,219.37772 -9.46457,17.32285 -9.46457,-17.32285 z" />
    <path
       style="fill:#000000;fill-rule:evenodd"
       id="path77"
       d="m 119.4539,219.37772 -9.46457,17.32285 -9.46457,-17.32285 z" />
    <path
       style="fill-rule:evenodd;stroke:#000000;stroke-width:2;stroke-linecap:butt;stroke-linejoin:round"
       id="path79"
       d="m 119.4539,219.37772 -9.46457,17.32285 -9.46457,-17.32285 z" />
    <path
       style="fill:#000000;fill-rule:evenodd"
       id="path81"
       d="m 69.87909,219.37772 -9.464569,17.32285 -9.464565,-17.32285 z" />
    <path
       style="fill-rule:evenodd;stroke:#000000;stroke-width:2;stroke-linecap:butt;stroke-linejoin:round"
       id="path83"
       d="m 69.87909,219.37772 -9.464569,17.32285 -9.464565,-17.32285 z" />
  </g>
  <g
     id="text89"
     style="font-size:20px;font-family:'DejaVu Sans', sans-serif;text-anchor:middle;fill:#000000"
     aria-label="Gönder">
    <path
       id="path119"
       style=""
       d="m 146.06836,293.91992 v -3.91601 h -3.22266 v -1.6211 h 5.17578 v 6.25977 q -1.14257,0.81055 -2.51953,1.23047 -1.37695,0.41015 -2.93945,0.41015 -3.41797,0 -5.35156,-1.99218 -1.92383,-2.00196 -1.92383,-5.56641 0,-3.57422 1.92383,-5.56641 1.93359,-2.00195 5.35156,-2.00195 1.42578,0 2.70508,0.35156 1.28906,0.35157 2.37305,1.03516 v 2.09961 q -1.09375,-0.92774 -2.32422,-1.39649 -1.23047,-0.46875 -2.58789,-0.46875 -2.67579,0 -4.02344,1.49414 -1.33789,1.49415 -1.33789,4.45313 0,2.94922 1.33789,4.44336 1.34765,1.49414 4.02344,1.49414 1.04492,0 1.86523,-0.17578 0.82031,-0.18555 1.47461,-0.56641 z" />
    <path
       id="path121"
       style=""
       d="m 155.79492,286.32227 q -1.44531,0 -2.28515,1.13281 -0.83985,1.12305 -0.83985,3.08594 0,1.96289 0.83008,3.0957 0.83984,1.12305 2.29492,1.12305 1.43555,0 2.27539,-1.13282 0.83985,-1.13281 0.83985,-3.08593 0,-1.94336 -0.83985,-3.07618 -0.83984,-1.14257 -2.27539,-1.14257 z m 0,-1.52344 q 2.34375,0 3.68164,1.52344 1.33789,1.52343 1.33789,4.21875 0,2.68554 -1.33789,4.21875 -1.33789,1.52343 -3.68164,1.52343 -2.35351,0 -3.6914,-1.52343 -1.32813,-1.53321 -1.32813,-4.21875 0,-2.69532 1.32813,-4.21875 1.33789,-1.52344 3.6914,-1.52344 z m 0.91797,-3.95508 h 1.98242 v 1.97266 h -1.98242 z m -3.81836,0 h 1.98242 v 1.97266 h -1.98242 z" />
    <path
       id="path123"
       style=""
       d="M 172.875,289.39844 V 296 h -1.79687 v -6.54297 q 0,-1.55273 -0.60547,-2.32422 -0.60547,-0.77148 -1.81641,-0.77148 -1.45508,0 -2.29492,0.92773 -0.83985,0.92774 -0.83985,2.5293 V 296 h -1.80664 v -10.9375 h 1.80664 v 1.69922 q 0.64454,-0.98633 1.51368,-1.47461 0.8789,-0.48828 2.02148,-0.48828 1.88477,0 2.85156,1.17187 0.9668,1.16211 0.9668,3.42774 z" />
    <path
       id="path125"
       style=""
       d="m 183.67578,286.72266 v -5.91797 h 1.79688 V 296 h -1.79688 v -1.64062 q -0.5664,0.97656 -1.43555,1.45507 -0.85937,0.46875 -2.07031,0.46875 -1.98242,0 -3.23242,-1.58203 -1.24023,-1.58203 -1.24023,-4.16015 0,-2.57813 1.24023,-4.16016 1.25,-1.58203 3.23242,-1.58203 1.21094,0 2.07031,0.47851 0.86915,0.46875 1.43555,1.44532 z m -6.12305,3.81836 q 0,1.98242 0.81055,3.11523 0.82031,1.12305 2.2461,1.12305 1.42578,0 2.24609,-1.12305 0.82031,-1.13281 0.82031,-3.11523 0,-1.98243 -0.82031,-3.10547 -0.82031,-1.13282 -2.24609,-1.13282 -1.42579,0 -2.2461,1.13282 -0.81055,1.12304 -0.81055,3.10547 z" />
    <path
       id="path127"
       style=""
       d="m 198.5293,290.08203 v 0.87891 h -8.26172 q 0.11719,1.85547 1.11328,2.83203 1.00586,0.9668 2.79297,0.9668 1.03515,0 2.00195,-0.25391 0.97656,-0.25391 1.9336,-0.76172 v 1.69922 q -0.9668,0.41016 -1.98243,0.625 -1.01562,0.21484 -2.06054,0.21484 -2.61719,0 -4.15039,-1.52343 -1.52344,-1.52344 -1.52344,-4.1211 0,-2.68554 1.44531,-4.25781 1.45508,-1.58203 3.91602,-1.58203 2.20703,0 3.48632,1.42578 1.28907,1.41602 1.28907,3.85742 z m -1.79688,-0.52734 q -0.0195,-1.47461 -0.83008,-2.35352 -0.80078,-0.8789 -2.1289,-0.8789 -1.50391,0 -2.41211,0.84961 -0.89844,0.8496 -1.03516,2.39257 z" />
    <path
       id="path129"
       style=""
       d="m 207.81641,286.74219 q -0.30274,-0.17578 -0.66407,-0.25391 -0.35156,-0.0879 -0.78125,-0.0879 -1.52343,0 -2.34375,0.99609 -0.81054,0.98633 -0.81054,2.8418 V 296 h -1.80664 v -10.9375 h 1.80664 v 1.69922 q 0.5664,-0.99609 1.47461,-1.47461 0.9082,-0.48828 2.20703,-0.48828 0.18554,0 0.41015,0.0293 0.22461,0.0195 0.49805,0.0684 z" />
  </g>
  <g
     id="text93"
     style="font-size:42px;font-family:'DejaVu Sans', sans-serif;text-anchor:middle;fill:#000000"
     aria-label="A">
    <path
       id="path132"
       style=""
       d="m 60,143.46289 -5.619141,15.23731 h 11.258789 z m -2.337891,-4.08105 h 4.696289 L 74.027344,170 h -4.306641 l -2.789062,-7.85449 H 53.129883 L 50.34082,170 h -4.368164 z" />
  </g>
  <g
     id="text97"
     style="font-size:42px;font-family:'DejaVu Sans', sans-serif;text-anchor:middle;fill:#000000"
     aria-label="A">
    <path
       id="path135"
       style=""
       d="m 110,143.46289 -5.61914,15.23731 h 11.25879 z m -2.33789,-4.08105 h 4.69629 L 124.02734,170 h -4.30664 l -2.78906,-7.85449 H 103.12988 L 100.34082,170 h -4.368164 z" />
  </g>
  <g
     id="text101"
     style="font-size:42px;font-family:'DejaVu Sans', sans-serif;text-anchor:middle;fill:#000000"
     aria-label="A">
    <path
       id="path138"
       style=""
       d="m 160,143.46289 -5.61914,15.23731 h 11.25879 z m -2.33789,-4.08105 h 4.69629 L 174.02734,170 h -4.30664 l -2.78906,-7.85449 H 153.12988 L 150.34082,170 h -4.36816 z" />
  </g>
  <g
     id="text105"
     style="font-size:42px;font-family:'DejaVu Sans', sans-serif;text-anchor:middle;fill:#000000"
     aria-label="A">
    <path
       id="path141"
       style=""
       d="m 210,143.46289 -5.61914,15.23731 h 11.25879 z m -2.33789,-4.08105 h 4.69629 L 224.02734,170 h -4.30664 l -2.78906,-7.85449 H 203.12988 L 200.34082,170 h -4.36816 z" />
  </g>
  <g
     id="text109"
     style="font-size:42px;font-family:'DejaVu Sans', sans-serif;text-anchor:middle;fill:#000000"
     aria-label="A">
    <path
       id="path144"
       style=""
       d="m 260,143.46289 -5.61914,15.23731 h 11.25879 z m -2.33789,-4.08105 h 4.69629 L 274.02734,170 h -4.30664 l -2.78906,-7.85449 H 253.12988 L 250.34082,170 h -4.36816 z" />
  </g>
</svg>
