<?xml version="1.0" encoding="UTF-8" standalone="no"?>
<svg
   xmlns:dc="http://purl.org/dc/elements/1.1/"
   xmlns:cc="http://creativecommons.org/ns#"
   xmlns:rdf="http://www.w3.org/1999/02/22-rdf-syntax-ns#"
   xmlns:svg="http://www.w3.org/2000/svg"
   xmlns="http://www.w3.org/2000/svg"
   id="svg149"
   stroke-miterlimit="10"
   stroke-linecap="square"
   stroke="none"
   fill="none"
   viewBox="0.0 0.0 348.0 348.0"
   version="1.1">
  <metadata
     id="metadata155">
    <rdf:RDF>
      <cc:Work
         rdf:about="">
        <dc:format>image/svg+xml</dc:format>
        <dc:type
           rdf:resource="http://purl.org/dc/dcmitype/StillImage" />
      </cc:Work>
    </rdf:RDF>
  </metadata>
  <defs
     id="defs153" />
  <clipPath
     id="p.0">
    <path
       id="path2"
       clip-rule="nonzero"
       d="m0 0l348.0 0l0 348.0l-348.0 0l0 -348.0z" />
  </clipPath>
  <g
     id="g123"
     clip-path="url(#p.0)">
    <path
       style="fill:#000000;fill-opacity:0;fill-rule:nonzero"
       id="path5"
       d="M 0,0 H 348 V 348 H 0 Z" />
    <path
       style="fill:#ffffff;fill-rule:nonzero"
       id="path7"
       d="M -6,0 H 348.01575 V 347.9685 H -6 Z" />
    <path
       style="fill:#000000;fill-opacity:0;fill-rule:nonzero"
       id="path9"
       d="m 5.07874,5.7758217 h 336.9134 V 343.44512 H 5.07874 Z" />
    <path
       style="fill-rule:nonzero;stroke:#000000;stroke-width:2;stroke-linecap:butt;stroke-linejoin:round"
       id="path11"
       d="m 5.07874,5.7758217 h 336.9134 V 343.44512 H 5.07874 Z" />
    <path
       style="fill:#ffffff;fill-rule:nonzero"
       id="path13"
       d="m 282.73444,40.553925 v 0 c 0,-8.375591 6.96603,-15.165352 15.55905,-15.165352 v 0 c 4.12653,0 8.08402,1.597773 11.00192,4.441828 2.91788,2.844057 4.55713,6.701422 4.55713,10.723524 v 0 c 0,8.375595 -6.966,15.165356 -15.55905,15.165356 v 0 c -8.59302,0 -15.55905,-6.789761 -15.55905,-15.165356 z" />
    <path
       style="fill-rule:nonzero;stroke:#000000;stroke-width:2;stroke-linecap:butt;stroke-linejoin:round"
       id="path15"
       d="m 282.73444,40.553925 v 0 c 0,-8.375591 6.96603,-15.165352 15.55905,-15.165352 v 0 c 4.12653,0 8.08402,1.597773 11.00192,4.441828 2.91788,2.844057 4.55713,6.701422 4.55713,10.723524 v 0 c 0,8.375595 -6.966,15.165356 -15.55905,15.165356 v 0 c -8.59302,0 -15.55905,-6.789761 -15.55905,-15.165356 z" />
    <path
       style="fill:#000000;fill-opacity:0;fill-rule:nonzero"
       id="path17"
       d="m 110.60368,279.34647 h 97.92126 v 41.88974 h -97.92126 z" />
    <path
       style="fill-rule:nonzero;stroke:#000000;stroke-width:2;stroke-linecap:butt;stroke-linejoin:round"
       id="path19"
       d="m 110.60368,279.34647 h 97.92126 v 41.88974 h -97.92126 z" />
    <path
       style="fill-rule:nonzero;stroke:#000000;stroke-width:2;stroke-linecap:butt;stroke-linejoin:round"
       id="path21"
       d="m 50.50525,84.80578 v 0 c 0,-5.566338 4.512405,-10.078743 10.078739,-10.078743 v 0 c 2.67305,0 5.236614,1.061859 7.126751,2.951996 1.890129,1.890129 2.951988,4.453697 2.951988,7.126747 v 0 c 0,5.56633 -4.512405,10.078735 -10.078739,10.078735 v 0 c -5.566334,0 -10.078739,-4.512406 -10.078739,-10.078735 z" />
    <path
       style="fill:#000000;fill-rule:nonzero"
       id="path23"
       d="m 56.537144,88.511055 4.047245,-7.401573 4.047241,7.401573 z" />
    <path
       style="fill-rule:nonzero;stroke:#000000;stroke-width:2;stroke-linecap:butt;stroke-linejoin:round"
       id="path25"
       d="m 56.537144,88.511055 4.047245,-7.401573 4.047241,7.401573 z" />
    <path
       style="fill:#ffffff;fill-rule:nonzero"
       id="path27"
       d="m 99.99606,84.80578 v 0 c 0,-5.566338 4.51241,-10.078743 10.07874,-10.078743 v 0 c 2.67305,0 5.23661,1.061859 7.12674,2.951996 1.89014,1.890129 2.952,4.453697 2.952,7.126747 v 0 c 0,5.56633 -4.51241,10.078735 -10.07874,10.078735 v 0 c -5.56633,0 -10.07874,-4.512406 -10.07874,-10.078735 z" />
    <path
       style="fill-rule:nonzero;stroke:#000000;stroke-width:2;stroke-linecap:butt;stroke-linejoin:round"
       id="path29"
       d="m 99.99606,84.80578 v 0 c 0,-5.566338 4.51241,-10.078743 10.07874,-10.078743 v 0 c 2.67305,0 5.23661,1.061859 7.12674,2.951996 1.89014,1.890129 2.952,4.453697 2.952,7.126747 v 0 c 0,5.56633 -4.51241,10.078735 -10.07874,10.078735 v 0 c -5.56633,0 -10.07874,-4.512406 -10.07874,-10.078735 z" />
    <path
       style="fill:#000000;fill-rule:nonzero"
       id="path31"
       d="m 106.02796,88.511055 4.04724,-7.401573 4.04724,7.401573 z" />
    <path
       style="fill-rule:nonzero;stroke:#000000;stroke-width:2;stroke-linecap:butt;stroke-linejoin:round"
       id="path33"
       d="m 106.02796,88.511055 4.04724,-7.401573 4.04724,7.401573 z" />
    <path
       style="fill:#ffffff;fill-rule:nonzero"
       id="path35"
       d="m 149.48557,84.80578 v 0 c 0,-5.566338 4.51241,-10.078743 10.07873,-10.078743 v 0 c 2.67305,0 5.23662,1.061859 7.12676,2.951996 1.89012,1.890129 2.952,4.453697 2.952,7.126747 v 0 c 0,5.56633 -4.51241,10.078735 -10.07876,10.078735 v 0 c -5.56633,0 -10.07873,-4.512406 -10.07873,-10.078735 z" />
    <path
       style="fill-rule:nonzero;stroke:#000000;stroke-width:2;stroke-linecap:butt;stroke-linejoin:round"
       id="path37"
       d="m 149.48557,84.80578 v 0 c 0,-5.566338 4.51241,-10.078743 10.07873,-10.078743 v 0 c 2.67305,0 5.23662,1.061859 7.12676,2.951996 1.89012,1.890129 2.952,4.453697 2.952,7.126747 v 0 c 0,5.56633 -4.51241,10.078735 -10.07876,10.078735 v 0 c -5.56633,0 -10.07873,-4.512406 -10.07873,-10.078735 z" />
    <path
       style="fill:#000000;fill-rule:nonzero"
       id="path39"
       d="m 155.51746,88.511055 4.04724,-7.401573 4.04726,7.401573 z" />
    <path
       style="fill-rule:nonzero;stroke:#000000;stroke-width:2;stroke-linecap:butt;stroke-linejoin:round"
       id="path41"
       d="m 155.51746,88.511055 4.04724,-7.401573 4.04726,7.401573 z" />
    <path
       style="fill:#ffffff;fill-rule:nonzero"
       id="path43"
       d="m 198.89108,84.80578 v 0 c 0,-5.566338 4.51241,-10.078743 10.07873,-10.078743 v 0 c 2.67305,0 5.23662,1.061859 7.12674,2.951996 1.89014,1.890129 2.952,4.453697 2.952,7.126747 v 0 c 0,5.56633 -4.51241,10.078735 -10.07873,10.078735 v 0 c -5.56633,0 -10.07874,-4.512406 -10.07874,-10.078735 z" />
    <path
       style="fill-rule:nonzero;stroke:#000000;stroke-width:2;stroke-linecap:butt;stroke-linejoin:round"
       id="path45"
       d="m 198.89108,84.80578 v 0 c 0,-5.566338 4.51241,-10.078743 10.07873,-10.078743 v 0 c 2.67305,0 5.23662,1.061859 7.12674,2.951996 1.89014,1.890129 2.952,4.453697 2.952,7.126747 v 0 c 0,5.56633 -4.51241,10.078735 -10.07873,10.078735 v 0 c -5.56633,0 -10.07874,-4.512406 -10.07874,-10.078735 z" />
    <path
       style="fill:#000000;fill-rule:nonzero"
       id="path47"
       d="m 204.92297,88.511055 4.04724,-7.401573 4.04724,7.401573 z" />
    <path
       style="fill-rule:nonzero;stroke:#000000;stroke-width:2;stroke-linecap:butt;stroke-linejoin:round"
       id="path49"
       d="m 204.92297,88.511055 4.04724,-7.401573 4.04724,7.401573 z" />
    <path
       style="fill:#ffffff;fill-rule:nonzero"
       id="path51"
       d="m 248.46588,84.80578 v 0 c 0,-5.566338 4.51241,-10.078743 10.07874,-10.078743 v 0 c 2.67306,0 5.23663,1.061859 7.12673,2.951996 1.89014,1.890129 2.952,4.453697 2.952,7.126747 v 0 c 0,5.56633 -4.51239,10.078735 -10.07873,10.078735 v 0 c -5.56633,0 -10.07874,-4.512406 -10.07874,-10.078735 z" />
    <path
       style="fill-rule:nonzero;stroke:#000000;stroke-width:2;stroke-linecap:butt;stroke-linejoin:round"
       id="path53"
       d="m 248.46588,84.80578 v 0 c 0,-5.566338 4.51241,-10.078743 10.07874,-10.078743 v 0 c 2.67306,0 5.23663,1.061859 7.12673,2.951996 1.89014,1.890129 2.952,4.453697 2.952,7.126747 v 0 c 0,5.56633 -4.51239,10.078735 -10.07873,10.078735 v 0 c -5.56633,0 -10.07874,-4.512406 -10.07874,-10.078735 z" />
    <path
       style="fill:#000000;fill-rule:nonzero"
       id="path55"
       d="m 254.49777,88.511055 4.04724,-7.401573 4.04724,7.401573 z" />
    <path
       style="fill-rule:nonzero;stroke:#000000;stroke-width:2;stroke-linecap:butt;stroke-linejoin:round"
       id="path57"
       d="m 254.49777,88.511055 4.04724,-7.401573 4.04724,7.401573 z" />
    <path
       style="fill:#ffffff;fill-rule:nonzero"
       id="path59"
       d="m 50.503937,259.30185 v 0 c 0,5.56631 4.512405,10.07873 10.078739,10.07873 v 0 c 2.67305,0 5.236614,-1.06185 7.126751,-2.95199 1.890129,-1.89014 2.951988,-4.45371 2.951988,-7.12674 v 0 c 0,-5.56635 -4.512405,-10.07875 -10.078739,-10.07875 v 0 c -5.566334,0 -10.078739,4.5124 -10.078739,10.07875 z" />
    <path
       style="fill-rule:nonzero;stroke:#000000;stroke-width:2;stroke-linecap:butt;stroke-linejoin:round"
       id="path61"
       d="m 50.503937,259.30185 v 0 c 0,5.56631 4.512405,10.07873 10.078739,10.07873 v 0 c 2.67305,0 5.236614,-1.06185 7.126751,-2.95199 1.890129,-1.89014 2.951988,-4.45371 2.951988,-7.12674 v 0 c 0,-5.56635 -4.512405,-10.07875 -10.078739,-10.07875 v 0 c -5.566334,0 -10.078739,4.5124 -10.078739,10.07875 z" />
    <path
       style="fill:#000000;fill-rule:nonzero"
       id="path63"
       d="m 56.53583,255.59656 4.047245,7.40158 4.047241,-7.40158 z" />
    <path
       style="fill-rule:nonzero;stroke:#000000;stroke-width:2;stroke-linecap:butt;stroke-linejoin:round"
       id="path65"
       d="m 56.53583,255.59656 4.047245,7.40158 4.047241,-7.40158 z" />
    <path
       style="fill:#ffffff;fill-rule:nonzero"
       id="path67"
       d="m 99.99475,259.30185 v 0 c 0,5.56631 4.51241,10.07873 10.07874,10.07873 v 0 c 2.67305,0 5.23661,-1.06185 7.12674,-2.95199 1.89014,-1.89014 2.952,-4.45371 2.952,-7.12674 v 0 c 0,-5.56635 -4.51241,-10.07875 -10.07874,-10.07875 v 0 c -5.56633,0 -10.07874,4.5124 -10.07874,10.07875 z" />
    <path
       style="fill-rule:nonzero;stroke:#000000;stroke-width:2;stroke-linecap:butt;stroke-linejoin:round"
       id="path69"
       d="m 99.99475,259.30185 v 0 c 0,5.56631 4.51241,10.07873 10.07874,10.07873 v 0 c 2.67305,0 5.23661,-1.06185 7.12674,-2.95199 1.89014,-1.89014 2.952,-4.45371 2.952,-7.12674 v 0 c 0,-5.56635 -4.51241,-10.07875 -10.07874,-10.07875 v 0 c -5.56633,0 -10.07874,4.5124 -10.07874,10.07875 z" />
    <path
       style="fill:#000000;fill-rule:nonzero"
       id="path71"
       d="m 106.02665,255.59656 4.04724,7.40158 4.04724,-7.40158 z" />
    <path
       style="fill-rule:nonzero;stroke:#000000;stroke-width:2;stroke-linecap:butt;stroke-linejoin:round"
       id="path73"
       d="m 106.02665,255.59656 4.04724,7.40158 4.04724,-7.40158 z" />
    <path
       style="fill:#ffffff;fill-rule:nonzero"
       id="path75"
       d="m 149.48425,259.30185 v 0 c 0,5.56631 4.51241,10.07873 10.07873,10.07873 v 0 c 2.67305,0 5.23662,-1.06185 7.12676,-2.95199 1.89012,-1.89014 2.952,-4.45371 2.952,-7.12674 v 0 c 0,-5.56635 -4.51241,-10.07875 -10.07876,-10.07875 v 0 c -5.56633,0 -10.07873,4.5124 -10.07873,10.07875 z" />
    <path
       style="fill-rule:nonzero;stroke:#000000;stroke-width:2;stroke-linecap:butt;stroke-linejoin:round"
       id="path77"
       d="m 149.48425,259.30185 v 0 c 0,5.56631 4.51241,10.07873 10.07873,10.07873 v 0 c 2.67305,0 5.23662,-1.06185 7.12676,-2.95199 1.89012,-1.89014 2.952,-4.45371 2.952,-7.12674 v 0 c 0,-5.56635 -4.51241,-10.07875 -10.07876,-10.07875 v 0 c -5.56633,0 -10.07873,4.5124 -10.07873,10.07875 z" />
    <path
       style="fill:#000000;fill-rule:nonzero"
       id="path79"
       d="m 155.51614,255.59656 4.04724,7.40158 4.04726,-7.40158 z" />
    <path
       style="fill-rule:nonzero;stroke:#000000;stroke-width:2;stroke-linecap:butt;stroke-linejoin:round"
       id="path81"
       d="m 155.51614,255.59656 4.04724,7.40158 4.04726,-7.40158 z" />
    <path
       style="fill:#000000;fill-rule:nonzero"
       id="path83"
       d="M 29.517061,98.30446 H 289.61154 V 245.29659 H 29.517061 Z" />
    <path
       style="fill-rule:nonzero;stroke:#000000;stroke-width:2;stroke-linecap:butt;stroke-linejoin:round"
       id="path85"
       d="M 29.517061,98.30446 H 289.61154 V 245.29659 H 29.517061 Z" />
    <path
       style="fill:#ffffff;fill-rule:nonzero"
       id="path87"
       d="m 198.88977,259.30185 v 0 c 0,5.56631 4.51241,10.07873 10.07873,10.07873 v 0 c 2.67305,0 5.23662,-1.06185 7.12674,-2.95199 1.89014,-1.89014 2.952,-4.45371 2.952,-7.12674 v 0 c 0,-5.56635 -4.51241,-10.07875 -10.07873,-10.07875 v 0 c -5.56633,0 -10.07874,4.5124 -10.07874,10.07875 z" />
    <path
       style="fill-rule:nonzero;stroke:#000000;stroke-width:2;stroke-linecap:butt;stroke-linejoin:round"
       id="path89"
       d="m 198.88977,259.30185 v 0 c 0,5.56631 4.51241,10.07873 10.07873,10.07873 v 0 c 2.67305,0 5.23662,-1.06185 7.12674,-2.95199 1.89014,-1.89014 2.952,-4.45371 2.952,-7.12674 v 0 c 0,-5.56635 -4.51241,-10.07875 -10.07873,-10.07875 v 0 c -5.56633,0 -10.07874,4.5124 -10.07874,10.07875 z" />
    <path
       style="fill:#000000;fill-rule:nonzero"
       id="path91"
       d="m 204.92166,255.59656 4.04724,7.40158 4.04724,-7.40158 z" />
    <path
       style="fill-rule:nonzero;stroke:#000000;stroke-width:2;stroke-linecap:butt;stroke-linejoin:round"
       id="path93"
       d="m 204.92166,255.59656 4.04724,7.40158 4.04724,-7.40158 z" />
    <path
       style="fill:#ffffff;fill-rule:nonzero"
       id="path95"
       d="m 248.46457,259.30185 v 0 c 0,5.56631 4.51241,10.07873 10.07874,10.07873 v 0 c 2.67306,0 5.23663,-1.06185 7.12673,-2.95199 1.89014,-1.89014 2.952,-4.45371 2.952,-7.12674 v 0 c 0,-5.56635 -4.51239,-10.07875 -10.07873,-10.07875 v 0 c -5.56633,0 -10.07874,4.5124 -10.07874,10.07875 z" />
    <path
       style="fill-rule:nonzero;stroke:#000000;stroke-width:2;stroke-linecap:butt;stroke-linejoin:round"
       id="path97"
       d="m 248.46457,259.30185 v 0 c 0,5.56631 4.51241,10.07873 10.07874,10.07873 v 0 c 2.67306,0 5.23663,-1.06185 7.12673,-2.95199 1.89014,-1.89014 2.952,-4.45371 2.952,-7.12674 v 0 c 0,-5.56635 -4.51239,-10.07875 -10.07873,-10.07875 v 0 c -5.56633,0 -10.07874,4.5124 -10.07874,10.07875 z" />
    <path
       style="fill:#000000;fill-rule:nonzero"
       id="path99"
       d="m 254.49646,255.59656 4.04724,7.40158 4.04724,-7.40158 z" />
    <path
       style="fill-rule:nonzero;stroke:#000000;stroke-width:2;stroke-linecap:butt;stroke-linejoin:round"
       id="path101"
       d="m 254.49646,255.59656 4.04724,7.40158 4.04724,-7.40158 z" />
    <path
       style="fill:#ffffff;fill-rule:nonzero"
       id="path103"
       d="m 35.627296,105.07874 h 49.5748 v 132.56693 h -49.5748 z" />
    <path
       style="fill-rule:nonzero;stroke:#000000;stroke-width:1;stroke-linecap:butt;stroke-linejoin:round"
       id="path105"
       d="m 35.627296,105.07874 h 49.5748 v 132.56693 h -49.5748 z" />
    <path
       style="fill:#ffffff;fill-rule:nonzero"
       id="path107"
       d="m 85.20143,105.07874 h 49.5748 v 132.56693 h -49.5748 z" />
    <path
       style="fill-rule:nonzero;stroke:#000000;stroke-width:1;stroke-linecap:butt;stroke-linejoin:round"
       id="path109"
       d="m 85.20143,105.07874 h 49.5748 v 132.56693 h -49.5748 z" />
    <path
       style="fill:#ffffff;fill-rule:nonzero"
       id="path111"
       d="m 134.77818,105.07874 h 49.5748 v 132.56693 h -49.5748 z" />
    <path
       style="fill-rule:nonzero;stroke:#000000;stroke-width:1;stroke-linecap:butt;stroke-linejoin:round"
       id="path113"
       d="m 134.77818,105.07874 h 49.5748 v 132.56693 h -49.5748 z" />
    <path
       style="fill:#ffffff;fill-rule:nonzero"
       id="path115"
       d="m 184.35233,105.07874 h 49.5748 v 132.56693 h -49.5748 z" />
    <path
       style="fill-rule:nonzero;stroke:#000000;stroke-width:1;stroke-linecap:butt;stroke-linejoin:round"
       id="path117"
       d="m 184.35233,105.07874 h 49.5748 v 132.56693 h -49.5748 z" />
    <path
       style="fill:#ffffff;fill-rule:nonzero"
       id="path119"
       d="m 233.92645,105.07874 h 49.5748 v 132.56693 h -49.5748 z" />
    <path
       style="fill-rule:nonzero;stroke:#000000;stroke-width:1;stroke-linecap:butt;stroke-linejoin:round"
       id="path121"
       d="m 233.92645,105.07874 h 49.5748 v 132.56693 h -49.5748 z" />
  </g>
  <g
     id="text127"
     style="font-size:20px;font-family:'DejaVu Sans', sans-serif;text-anchor:middle;fill:#000000"
     aria-label="PAYLAŞ">
    <path
       id="path157"
       style=""
       d="m 126.39258,294.04102 v 5.47851 h 2.48047 q 1.37695,0 2.1289,-0.71289 0.75196,-0.71289 0.75196,-2.03125 0,-1.30859 -0.75196,-2.02148 -0.75195,-0.71289 -2.1289,-0.71289 z m -1.97266,-1.6211 h 4.45313 q 2.45117,0 3.70117,1.11328 1.25976,1.10352 1.25976,3.24219 0,2.1582 -1.25976,3.26172 -1.25,1.10352 -3.70117,1.10352 h -2.48047 V 307 h -1.97266 z" />
    <path
       id="path159"
       style=""
       d="m 140.07422,294.36328 -2.67578,7.25586 h 5.36133 z m -1.11328,-1.94336 h 2.23633 L 146.75391,307 h -2.05078 l -1.32813,-3.74023 h -6.57227 L 135.47461,307 h -2.08008 z" />
    <path
       id="path161"
       style=""
       d="m 145.30859,292.41992 h 2.11914 l 4.04297,5.9961 4.01368,-5.9961 h 2.11914 l -5.15625,7.63672 V 307 h -1.98243 v -6.94336 z" />
    <path
       id="path163"
       style=""
       d="m 159.53711,292.41992 h 1.97266 v 12.91992 h 7.09961 V 307 h -9.07227 z" />
    <path
       id="path165"
       style=""
       d="m 176.01172,294.36328 -2.67578,7.25586 h 5.36133 z m -1.11328,-1.94336 h 2.23633 L 182.69141,307 h -2.05078 l -1.32813,-3.74023 h -6.57227 L 171.41211,307 h -2.08008 z" />
    <path
       id="path167"
       style=""
       d="m 193.55078,292.89844 v 1.92383 q -1.12305,-0.53711 -2.11914,-0.80079 -0.99609,-0.26367 -1.92383,-0.26367 -1.61133,0 -2.49023,0.625 -0.86914,0.625 -0.86914,1.77735 0,0.96679 0.57617,1.46484 0.58594,0.48828 2.20703,0.79102 l 1.19141,0.24414 q 2.20703,0.41992 3.25195,1.48437 1.05469,1.05469 1.05469,2.83203 0,2.11914 -1.42578,3.21289 -1.41602,1.09375 -4.16016,1.09375 -1.03516,0 -2.20703,-0.23437 -1.16211,-0.23438 -2.41211,-0.69336 v -2.03125 q 1.20117,0.67383 2.35352,1.01562 1.15234,0.3418 2.26562,0.3418 1.68945,0 2.60742,-0.66406 0.91797,-0.66406 0.91797,-1.89453 0,-1.07422 -0.66406,-1.67969 -0.6543,-0.60547 -2.1582,-0.9082 l -1.20118,-0.23438 q -2.20703,-0.43945 -3.19336,-1.37695 -0.98632,-0.9375 -0.98632,-2.60742 0,-1.9336 1.35742,-3.04688 1.36719,-1.11328 3.75976,-1.11328 1.02539,0 2.08985,0.18555 1.06445,0.18554 2.17773,0.55664 z M 190.02539,307 q 0.53711,0.60547 0.80078,1.11328 0.26367,0.51758 0.26367,0.98633 0,0.86914 -0.58593,1.30859 -0.58594,0.44922 -1.73828,0.44922 -0.44922,0 -0.87891,-0.0586 -0.41992,-0.0586 -0.83984,-0.17578 v -1.2793 q 0.33203,0.16602 0.69335,0.23438 0.36133,0.0781 0.82032,0.0781 0.57617,0 0.86914,-0.23437 0.29297,-0.23438 0.29297,-0.6836 0,-0.29297 -0.21485,-0.72265 Q 189.30273,307.5957 188.86328,307 Z" />
  </g>
  <g
     id="text131"
     style="font-size:42px;font-family:'DejaVu Sans', sans-serif;text-anchor:middle;fill:#000000"
     aria-label="A">
    <path
       id="path170"
       style=""
       d="m 60,159.46289 -5.619141,15.23731 h 11.258789 z m -2.337891,-4.08105 h 4.696289 L 74.027344,186 h -4.306641 l -2.789062,-7.85449 H 53.129883 L 50.34082,186 h -4.368164 z" />
  </g>
  <g
     id="text135"
     style="font-size:42px;font-family:'DejaVu Sans', sans-serif;text-anchor:middle;fill:#000000"
     aria-label="A">
    <path
       id="path173"
       style=""
       d="m 110,159.46289 -5.61914,15.23731 h 11.25879 z m -2.33789,-4.08105 h 4.69629 L 124.02734,186 h -4.30664 l -2.78906,-7.85449 H 103.12988 L 100.34082,186 h -4.368164 z" />
  </g>
  <g
     id="text139"
     style="font-size:42px;font-family:'DejaVu Sans', sans-serif;text-anchor:middle;fill:#000000"
     aria-label="A">
    <path
       id="path176"
       style=""
       d="m 159,159.46289 -5.61914,15.23731 h 11.25879 z m -2.33789,-4.08105 h 4.69629 L 173.02734,186 h -4.30664 l -2.78906,-7.85449 H 152.12988 L 149.34082,186 h -4.36816 z" />
  </g>
  <g
     id="text143"
     style="font-size:42px;font-family:'DejaVu Sans', sans-serif;text-anchor:middle;fill:#000000"
     aria-label="A">
    <path
       id="path179"
       style=""
       d="m 209,159.46289 -5.61914,15.23731 h 11.25879 z m -2.33789,-4.08105 h 4.69629 L 223.02734,186 h -4.30664 l -2.78906,-7.85449 H 202.12988 L 199.34082,186 h -4.36816 z" />
  </g>
  <g
     id="text147"
     style="font-size:42px;font-family:'DejaVu Sans', sans-serif;text-anchor:middle;fill:#000000"
     aria-label="A">
    <path
       id="path182"
       style=""
       d="m 258,159.46289 -5.61914,15.23731 h 11.25879 z m -2.33789,-4.08105 h 4.69629 L 272.02734,186 h -4.30664 l -2.78906,-7.85449 H 251.12988 L 248.34082,186 h -4.36816 z" />
  </g>
</svg>
