<?xml version="1.0" encoding="UTF-8" standalone="no"?>
<svg
   xmlns:dc="http://purl.org/dc/elements/1.1/"
   xmlns:cc="http://creativecommons.org/ns#"
   xmlns:rdf="http://www.w3.org/1999/02/22-rdf-syntax-ns#"
   xmlns:svg="http://www.w3.org/2000/svg"
   xmlns="http://www.w3.org/2000/svg"
   id="svg89"
   stroke-miterlimit="10"
   stroke-linecap="square"
   stroke="none"
   fill="none"
   viewBox="0.0 0.0 348.0 348.0"
   version="1.1">
  <metadata
     id="metadata95">
    <rdf:RDF>
      <cc:Work
         rdf:about="">
        <dc:format>image/svg+xml</dc:format>
        <dc:type
           rdf:resource="http://purl.org/dc/dcmitype/StillImage" />
      </cc:Work>
    </rdf:RDF>
  </metadata>
  <defs
     id="defs93" />
  <clipPath
     id="p.0">
    <path
       id="path2"
       clip-rule="nonzero"
       d="m0 0l348.0 0l0 348.0l-348.0 0l0 -348.0z" />
  </clipPath>
  <g
     id="g59"
     clip-path="url(#p.0)">
    <path
       id="path5"
       fill-rule="nonzero"
       d="M 0,0 H 348 V 348 H 0 Z"
       fill-opacity="0"
       fill="#000000" />
    <path
       id="path7"
       fill-rule="nonzero"
       d="M -6,0 H 342 V 347.9685 H -6 Z"
       fill="#ffffff" />
    <path
       id="path9"
       fill-rule="nonzero"
       d="m 5.07874,5.7758217 h 336.9134 V 343.44512 H 5.07874 Z"
       fill-opacity="0"
       fill="#000000" />
    <path
       id="path11"
       fill-rule="nonzero"
       d="m 5.07874,5.7758217 h 336.9134 V 343.44512 H 5.07874 Z"
       stroke-linecap="butt"
       stroke-linejoin="round"
       stroke-width="2"
       stroke="#000000" />
    <path
       id="path13"
       fill-rule="nonzero"
       d="m 282.73444,40.553925 v 0 c 0,-8.375591 6.96603,-15.165352 15.55905,-15.165352 v 0 c 4.12653,0 8.08402,1.597773 11.00192,4.441828 2.91788,2.844057 4.55713,6.701422 4.55713,10.723524 v 0 c 0,8.375595 -6.966,15.165356 -15.55905,15.165356 v 0 c -8.59302,0 -15.55905,-6.789761 -15.55905,-15.165356 z"
       fill="#ffffff" />
    <path
       id="path15"
       fill-rule="nonzero"
       d="m 282.73444,40.553925 v 0 c 0,-8.375591 6.96603,-15.165352 15.55905,-15.165352 v 0 c 4.12653,0 8.08402,1.597773 11.00192,4.441828 2.91788,2.844057 4.55713,6.701422 4.55713,10.723524 v 0 c 0,8.375595 -6.966,15.165356 -15.55905,15.165356 v 0 c -8.59302,0 -15.55905,-6.789761 -15.55905,-15.165356 z"
       stroke-linecap="butt"
       stroke-linejoin="round"
       stroke-width="2"
       stroke="#000000" />
    <path
       id="path17"
       fill-rule="nonzero"
       d="M 34.771652,25.389738 H 267.18112 v 67.55905 H 34.771652 Z"
       fill="#000000" />
    <path
       id="path19"
       fill-rule="nonzero"
       d="M 34.771652,25.389738 H 267.18112 v 67.55905 H 34.771652 Z"
       stroke-linecap="butt"
       stroke-linejoin="round"
       stroke-width="2"
       stroke="#000000" />
    <path
       id="path21"
       fill-rule="nonzero"
       d="M 34.771652,202.31795 H 141.41733 v 44.81891 H 34.771652 Z"
       stroke-linecap="butt"
       stroke-linejoin="round"
       stroke-width="1"
       stroke="#000000" />
    <path
       id="path23"
       fill-rule="nonzero"
       d="M 34.771652,125.22639 H 141.41733 v 44.8189 H 34.771652 Z"
       fill-opacity="0"
       fill="#000000" />
    <path
       id="path25"
       fill-rule="nonzero"
       d="M 34.771652,125.22639 H 141.41733 v 44.8189 H 34.771652 Z"
       stroke-linecap="butt"
       stroke-linejoin="round"
       stroke-width="1"
       stroke="#000000" />
    <path
       id="path27"
       fill-rule="nonzero"
       d="M 34.771652,270.60397 H 141.41733 v 44.81891 H 34.771652 Z"
       fill-opacity="0"
       fill="#000000" />
    <path
       id="path29"
       fill-rule="nonzero"
       d="M 34.771652,270.60397 H 141.41733 v 44.81891 H 34.771652 Z"
       stroke-linecap="butt"
       stroke-linejoin="round"
       stroke-width="1"
       stroke="#000000" />
    <path
       id="path31"
       fill-rule="nonzero"
       d="m 157.40683,202.31795 h 106.64566 v 44.81891 H 157.40683 Z"
       fill-opacity="0"
       fill="#000000" />
    <path
       id="path33"
       fill-rule="nonzero"
       d="m 157.40683,202.31795 h 106.64566 v 44.81891 H 157.40683 Z"
       stroke-linecap="butt"
       stroke-linejoin="round"
       stroke-width="1"
       stroke="#000000" />
    <path
       id="path35"
       fill-rule="nonzero"
       d="m 157.40683,125.22639 h 106.64566 v 44.8189 H 157.40683 Z"
       fill-opacity="0"
       fill="#000000" />
    <path
       id="path37"
       fill-rule="nonzero"
       d="m 157.40683,125.22639 h 106.64566 v 44.8189 H 157.40683 Z"
       stroke-linecap="butt"
       stroke-linejoin="round"
       stroke-width="1"
       stroke="#000000" />
    <path
       id="path39"
       fill-rule="nonzero"
       d="m 157.40683,270.60397 h 106.64566 v 44.81891 H 157.40683 Z"
       fill-opacity="0"
       fill="#000000" />
    <path
       id="path41"
       fill-rule="nonzero"
       d="m 157.40683,270.60397 h 106.64566 v 44.81891 H 157.40683 Z"
       stroke-linecap="butt"
       stroke-linejoin="round"
       stroke-width="1"
       stroke="#000000" />
    <path
       id="path43"
       fill-rule="nonzero"
       d="m 277.46194,106.3832 h 52.66141 v 209.03937 h -52.66141 z"
       fill="#000000" />
    <path
       id="path45"
       fill-rule="nonzero"
       d="m 277.46194,106.3832 h 52.66141 v 209.03937 h -52.66141 z"
       stroke-linecap="butt"
       stroke-linejoin="round"
       stroke-width="2"
       stroke="#000000" />
    <path
       id="path47"
       fill-rule="nonzero"
       d="m 290.06036,245.11285 h 27.46457 v 16.47244 h -27.46457 z"
       fill="#ffffff" />
    <path
       id="path49"
       fill-rule="nonzero"
       d="m 290.06036,245.11285 h 27.46457 v 16.47244 h -27.46457 z"
       stroke-linecap="butt"
       stroke-linejoin="round"
       stroke-width="2"
       stroke="#000000" />
    <path
       id="path51"
       fill-rule="nonzero"
       d="m 290.06036,208.9029 h 27.46457 v 16.47243 h -27.46457 z"
       fill="#ffffff" />
    <path
       id="path53"
       fill-rule="nonzero"
       d="m 290.06036,208.9029 h 27.46457 v 16.47243 h -27.46457 z"
       stroke-linecap="butt"
       stroke-linejoin="round"
       stroke-width="2"
       stroke="#000000" />
    <path
       id="path55"
       fill-rule="nonzero"
       d="m 290.06036,281.32285 h 27.46457 v 16.47244 h -27.46457 z"
       fill="#ffffff" />
    <path
       id="path57"
       fill-rule="nonzero"
       d="m 290.06036,281.32285 h 27.46457 v 16.47244 h -27.46457 z"
       stroke-linecap="butt"
       stroke-linejoin="round"
       stroke-width="2"
       stroke="#000000" />
  </g>
  <g
     style="font-size:32px;font-family:'DejaVu Sans', sans-serif;text-anchor:middle;fill:#ffffff"
     id="text63"
     aria-label="[ EKRAN ]">
    <path
       id="path97"
       d="m 76.0625,45.6875 h 6.625 v 2.234375 h -3.75 v 24.0625 h 3.75 v 2.234375 h -6.625 z" />
    <path
       id="path99"
       d="m 99.140625,46.671875 h 14.750005 v 2.65625 h -11.59375 v 6.90625 h 11.10937 v 2.65625 h -11.10937 v 8.453125 h 11.875 V 70 H 99.140625 Z" />
    <path
       id="path101"
       d="m 119.39063,46.671875 h 3.15625 v 9.859375 l 10.46874,-9.859375 h 4.0625 L 125.5,57.546875 137.90625,70 H 133.75 L 122.54688,58.765625 V 70 h -3.15625 z" />
    <path
       id="path103"
       d="m 151.45312,59.0625 q 1.01563,0.34375 1.96875,1.46875 0.96875,1.125 1.9375,3.09375 L 158.5625,70 h -3.39063 l -2.98437,-5.984375 q -1.15625,-2.34375 -2.25,-3.109375 -1.07813,-0.765625 -2.95313,-0.765625 h -3.4375 V 70 h -3.15625 V 46.671875 h 7.125 q 4,0 5.96875,1.671875 1.96875,1.671875 1.96875,5.046875 0,2.203125 -1.03125,3.65625 Q 153.40625,58.5 151.45312,59.0625 Z m -7.90625,-9.796875 v 8.28125 h 3.96875 q 2.28125,0 3.4375,-1.046875 1.17188,-1.0625 1.17188,-3.109375 0,-2.046875 -1.17188,-3.078125 -1.15625,-1.046875 -3.4375,-1.046875 z" />
    <path
       id="path105"
       d="m 169.125,49.78125 -4.28125,11.609375 h 8.57812 z m -1.78125,-3.109375 h 3.57812 L 179.8125,70 h -3.28125 l -2.125,-5.984375 H 163.89062 L 161.76562,70 h -3.32812 z" />
    <path
       id="path107"
       d="m 183.20312,46.671875 h 4.25 L 197.79687,66.1875 V 46.671875 h 3.0625 V 70 h -4.25 L 186.26562,50.484375 V 70 h -3.0625 z" />
    <path
       id="path109"
       d="m 223.92187,45.6875 v 28.53125 h -6.625 v -2.234375 h 3.73438 v -24.0625 h -3.73438 V 45.6875 Z" />
  </g>
  <g
     style="font-size:20px;font-family:'DejaVu Sans', sans-serif;text-anchor:middle;fill:#000000"
     id="text67"
     aria-label="[ YAZI ]">
    <path
       id="path112"
       d="m 52.566406,138.80469 h 4.140625 v 1.39648 h -2.34375 v 15.03906 h 2.34375 v 1.39649 h -4.140625 z" />
    <path
       id="path114"
       d="m 64.988281,139.41992 h 2.119141 l 4.042969,5.9961 4.013671,-5.9961 h 2.119141 l -5.15625,7.63672 V 154 h -1.982422 v -6.94336 z" />
    <path
       id="path116"
       d="m 82.527344,141.36328 -2.675782,7.25586 h 5.361329 z m -1.113282,-1.94336 h 2.236329 L 89.207031,154 H 87.15625 l -1.328125,-3.74023 H 79.255859 L 77.927734,154 h -2.080078 z" />
    <path
       id="path118"
       d="m 90.486328,139.41992 h 11.455082 v 1.50391 l -9.218754,11.41601 h 9.443364 V 154 H 90.261719 v -1.50391 l 9.21875,-11.41601 h -8.994141 z" />
    <path
       id="path120"
       d="m 105.03711,139.41992 h 1.97266 V 154 h -1.97266 z" />
    <path
       id="path122"
       d="m 121.42383,138.80469 v 17.83203 h -4.14063 v -1.39649 h 2.33399 v -15.03906 h -2.33399 v -1.39648 z" />
  </g>
  <g
     style="font-size:20px;font-family:'DejaVu Sans', sans-serif;text-anchor:middle;fill:#000000"
     id="text71"
     aria-label="[ YAZI ]">
    <path
       id="path125"
       d="m 52.566406,215.80469 h 4.140625 v 1.39648 h -2.34375 v 15.03906 h 2.34375 v 1.39649 h -4.140625 z" />
    <path
       id="path127"
       d="m 64.988281,216.41992 h 2.119141 l 4.042969,5.9961 4.013671,-5.9961 h 2.119141 l -5.15625,7.63672 V 231 h -1.982422 v -6.94336 z" />
    <path
       id="path129"
       d="m 82.527344,218.36328 -2.675782,7.25586 h 5.361329 z m -1.113282,-1.94336 h 2.236329 L 89.207031,231 H 87.15625 l -1.328125,-3.74023 H 79.255859 L 77.927734,231 h -2.080078 z" />
    <path
       id="path131"
       d="m 90.486328,216.41992 h 11.455082 v 1.50391 l -9.218754,11.41601 h 9.443364 V 231 H 90.261719 v -1.50391 l 9.21875,-11.41601 h -8.994141 z" />
    <path
       id="path133"
       d="m 105.03711,216.41992 h 1.97266 V 231 h -1.97266 z" />
    <path
       id="path135"
       d="m 121.42383,215.80469 v 17.83203 h -4.14063 v -1.39649 h 2.33399 v -15.03906 h -2.33399 v -1.39648 z" />
  </g>
  <g
     style="font-size:20px;font-family:'DejaVu Sans', sans-serif;text-anchor:middle;fill:#000000"
     id="text75"
     aria-label="[ YAZI ]">
    <path
       id="path138"
       d="m 52.566406,283.80469 h 4.140625 v 1.39648 h -2.34375 v 15.03906 h 2.34375 v 1.39649 h -4.140625 z" />
    <path
       id="path140"
       d="m 64.988281,284.41992 h 2.119141 l 4.042969,5.9961 4.013671,-5.9961 h 2.119141 l -5.15625,7.63672 V 299 h -1.982422 v -6.94336 z" />
    <path
       id="path142"
       d="m 82.527344,286.36328 -2.675782,7.25586 h 5.361329 z m -1.113282,-1.94336 h 2.236329 L 89.207031,299 H 87.15625 l -1.328125,-3.74023 H 79.255859 L 77.927734,299 h -2.080078 z" />
    <path
       id="path144"
       d="m 90.486328,284.41992 h 11.455082 v 1.50391 l -9.218754,11.41601 h 9.443364 V 299 H 90.261719 v -1.50391 l 9.21875,-11.41601 h -8.994141 z" />
    <path
       id="path146"
       d="m 105.03711,284.41992 h 1.97266 V 299 h -1.97266 z" />
    <path
       id="path148"
       d="m 121.42383,283.80469 v 17.83203 h -4.14063 v -1.39649 h 2.33399 v -15.03906 h -2.33399 v -1.39648 z" />
  </g>
  <g
     style="font-size:20px;font-family:'DejaVu Sans', sans-serif;text-anchor:middle;fill:#000000"
     id="text79"
     aria-label="[ YAZI ]">
    <path
       id="path151"
       d="m 175.56641,138.80469 h 4.14062 v 1.39648 h -2.34375 v 15.03906 h 2.34375 v 1.39649 h -4.14062 z" />
    <path
       id="path153"
       d="m 187.98828,139.41992 h 2.11914 l 4.04297,5.9961 4.01367,-5.9961 h 2.11914 l -5.15625,7.63672 V 154 h -1.98242 v -6.94336 z" />
    <path
       id="path155"
       d="m 205.52734,141.36328 -2.67578,7.25586 h 5.36133 z m -1.11328,-1.94336 h 2.23633 L 212.20703,154 h -2.05078 l -1.32813,-3.74023 h -6.57226 L 200.92773,154 h -2.08007 z" />
    <path
       id="path157"
       d="m 213.48633,139.41992 h 11.45508 v 1.50391 l -9.21875,11.41601 h 9.44336 V 154 h -11.9043 v -1.50391 l 9.21875,-11.41601 h -8.99414 z" />
    <path
       id="path159"
       d="m 228.03711,139.41992 h 1.97266 V 154 h -1.97266 z" />
    <path
       id="path161"
       d="m 244.42383,138.80469 v 17.83203 h -4.14063 v -1.39649 h 2.33399 v -15.03906 h -2.33399 v -1.39648 z" />
  </g>
  <g
     style="font-size:20px;font-family:'DejaVu Sans', sans-serif;text-anchor:middle;fill:#000000"
     id="text83"
     aria-label="[ YAZI ]">
    <path
       id="path164"
       d="m 175.56641,215.80469 h 4.14062 v 1.39648 h -2.34375 v 15.03906 h 2.34375 v 1.39649 h -4.14062 z" />
    <path
       id="path166"
       d="m 187.98828,216.41992 h 2.11914 l 4.04297,5.9961 4.01367,-5.9961 h 2.11914 l -5.15625,7.63672 V 231 h -1.98242 v -6.94336 z" />
    <path
       id="path168"
       d="m 205.52734,218.36328 -2.67578,7.25586 h 5.36133 z m -1.11328,-1.94336 h 2.23633 L 212.20703,231 h -2.05078 l -1.32813,-3.74023 h -6.57226 L 200.92773,231 h -2.08007 z" />
    <path
       id="path170"
       d="m 213.48633,216.41992 h 11.45508 v 1.50391 l -9.21875,11.41601 h 9.44336 V 231 h -11.9043 v -1.50391 l 9.21875,-11.41601 h -8.99414 z" />
    <path
       id="path172"
       d="m 228.03711,216.41992 h 1.97266 V 231 h -1.97266 z" />
    <path
       id="path174"
       d="m 244.42383,215.80469 v 17.83203 h -4.14063 v -1.39649 h 2.33399 v -15.03906 h -2.33399 v -1.39648 z" />
  </g>
  <g
     style="font-size:20px;font-family:'DejaVu Sans', sans-serif;text-anchor:middle;fill:#000000"
     id="text87"
     aria-label="[ YAZI ]">
    <path
       id="path177"
       d="m 175.56641,283.80469 h 4.14062 v 1.39648 h -2.34375 v 15.03906 h 2.34375 v 1.39649 h -4.14062 z" />
    <path
       id="path179"
       d="m 187.98828,284.41992 h 2.11914 l 4.04297,5.9961 4.01367,-5.9961 h 2.11914 l -5.15625,7.63672 V 299 h -1.98242 v -6.94336 z" />
    <path
       id="path181"
       d="m 205.52734,286.36328 -2.67578,7.25586 h 5.36133 z m -1.11328,-1.94336 h 2.23633 L 212.20703,299 h -2.05078 l -1.32813,-3.74023 h -6.57226 L 200.92773,299 h -2.08007 z" />
    <path
       id="path183"
       d="m 213.48633,284.41992 h 11.45508 v 1.50391 l -9.21875,11.41601 h 9.44336 V 299 h -11.9043 v -1.50391 l 9.21875,-11.41601 h -8.99414 z" />
    <path
       id="path185"
       d="m 228.03711,284.41992 h 1.97266 V 299 h -1.97266 z" />
    <path
       id="path187"
       d="m 244.42383,283.80469 v 17.83203 h -4.14063 v -1.39649 h 2.33399 v -15.03906 h -2.33399 v -1.39648 z" />
  </g>
</svg>
