<?xml version="1.0" encoding="UTF-8" standalone="no"?>
<svg
   xmlns:dc="http://purl.org/dc/elements/1.1/"
   xmlns:cc="http://creativecommons.org/ns#"
   xmlns:rdf="http://www.w3.org/1999/02/22-rdf-syntax-ns#"
   xmlns:svg="http://www.w3.org/2000/svg"
   xmlns="http://www.w3.org/2000/svg"
   id="svg89"
   stroke-miterlimit="10"
   stroke-linecap="square"
   stroke="none"
   fill="none"
   viewBox="0.0 0.0 348.0 348.0"
   version="1.1">
  <metadata
     id="metadata95">
    <rdf:RDF>
      <cc:Work
         rdf:about="">
        <dc:format>image/svg+xml</dc:format>
        <dc:type
           rdf:resource="http://purl.org/dc/dcmitype/StillImage" />
      </cc:Work>
    </rdf:RDF>
  </metadata>
  <defs
     id="defs93" />
  <clipPath
     id="p.0">
    <path
       id="path2"
       clip-rule="nonzero"
       d="m0 0l348.0 0l0 348.0l-348.0 0l0 -348.0z" />
  </clipPath>
  <g
     id="g59"
     clip-path="url(#p.0)">
    <path
       style="fill:#000000;fill-opacity:0;fill-rule:nonzero"
       id="path5"
       d="M 0,0 H 348 V 348 H 0 Z" />
    <path
       style="fill:#ffffff;fill-rule:nonzero"
       id="path7"
       d="M -6,0 H 342 V 347.9685 H -6 Z" />
    <path
       style="fill:#000000;fill-opacity:0;fill-rule:nonzero"
       id="path9"
       d="m 5.07874,5.7758217 h 336.9134 V 343.44512 H 5.07874 Z" />
    <path
       style="fill-rule:nonzero;stroke:#000000;stroke-width:2;stroke-linecap:butt;stroke-linejoin:round"
       id="path11"
       d="m 5.07874,5.7758217 h 336.9134 V 343.44512 H 5.07874 Z" />
    <path
       style="fill:#ffffff;fill-rule:nonzero"
       id="path13"
       d="m 282.73444,40.553925 v 0 c 0,-8.375591 6.96603,-15.165352 15.55905,-15.165352 v 0 c 4.12653,0 8.08402,1.597773 11.00192,4.441828 2.91788,2.844057 4.55713,6.701422 4.55713,10.723524 v 0 c 0,8.375595 -6.966,15.165356 -15.55905,15.165356 v 0 c -8.59302,0 -15.55905,-6.789761 -15.55905,-15.165356 z" />
    <path
       style="fill-rule:nonzero;stroke:#000000;stroke-width:2;stroke-linecap:butt;stroke-linejoin:round"
       id="path15"
       d="m 282.73444,40.553925 v 0 c 0,-8.375591 6.96603,-15.165352 15.55905,-15.165352 v 0 c 4.12653,0 8.08402,1.597773 11.00192,4.441828 2.91788,2.844057 4.55713,6.701422 4.55713,10.723524 v 0 c 0,8.375595 -6.966,15.165356 -15.55905,15.165356 v 0 c -8.59302,0 -15.55905,-6.789761 -15.55905,-15.165356 z" />
    <path
       style="fill:#000000;fill-rule:nonzero"
       id="path17"
       d="M 34.771652,25.389738 H 267.18112 v 67.55905 H 34.771652 Z" />
    <path
       style="fill-rule:nonzero;stroke:#000000;stroke-width:2;stroke-linecap:butt;stroke-linejoin:round"
       id="path19"
       d="M 34.771652,25.389738 H 267.18112 v 67.55905 H 34.771652 Z" />
    <path
       style="fill-rule:nonzero;stroke:#000000;stroke-width:1;stroke-linecap:butt;stroke-linejoin:round"
       id="path21"
       d="M 34.771652,202.31795 H 141.41733 v 44.81891 H 34.771652 Z" />
    <path
       style="fill:#000000;fill-opacity:0;fill-rule:nonzero"
       id="path23"
       d="M 34.771652,125.22639 H 141.41733 v 44.8189 H 34.771652 Z" />
    <path
       style="fill-rule:nonzero;stroke:#000000;stroke-width:1;stroke-linecap:butt;stroke-linejoin:round"
       id="path25"
       d="M 34.771652,125.22639 H 141.41733 v 44.8189 H 34.771652 Z" />
    <path
       style="fill:#000000;fill-opacity:0;fill-rule:nonzero"
       id="path27"
       d="M 34.771652,270.60397 H 141.41733 v 44.81891 H 34.771652 Z" />
    <path
       style="fill-rule:nonzero;stroke:#000000;stroke-width:1;stroke-linecap:butt;stroke-linejoin:round"
       id="path29"
       d="M 34.771652,270.60397 H 141.41733 v 44.81891 H 34.771652 Z" />
    <path
       style="fill:#000000;fill-opacity:0;fill-rule:nonzero"
       id="path31"
       d="m 157.40683,202.31795 h 106.64566 v 44.81891 H 157.40683 Z" />
    <path
       style="fill-rule:nonzero;stroke:#000000;stroke-width:1;stroke-linecap:butt;stroke-linejoin:round"
       id="path33"
       d="m 157.40683,202.31795 h 106.64566 v 44.81891 H 157.40683 Z" />
    <path
       style="fill:#000000;fill-opacity:0;fill-rule:nonzero"
       id="path35"
       d="m 157.40683,125.22639 h 106.64566 v 44.8189 H 157.40683 Z" />
    <path
       style="fill-rule:nonzero;stroke:#000000;stroke-width:1;stroke-linecap:butt;stroke-linejoin:round"
       id="path37"
       d="m 157.40683,125.22639 h 106.64566 v 44.8189 H 157.40683 Z" />
    <path
       style="fill:#000000;fill-opacity:0;fill-rule:nonzero"
       id="path39"
       d="m 157.40683,270.60397 h 106.64566 v 44.81891 H 157.40683 Z" />
    <path
       style="fill-rule:nonzero;stroke:#000000;stroke-width:1;stroke-linecap:butt;stroke-linejoin:round"
       id="path41"
       d="m 157.40683,270.60397 h 106.64566 v 44.81891 H 157.40683 Z" />
    <path
       style="fill:#000000;fill-rule:nonzero"
       id="path43"
       d="m 277.46194,106.3832 h 52.66141 v 209.03937 h -52.66141 z" />
    <path
       style="fill-rule:nonzero;stroke:#000000;stroke-width:2;stroke-linecap:butt;stroke-linejoin:round"
       id="path45"
       d="m 277.46194,106.3832 h 52.66141 v 209.03937 h -52.66141 z" />
    <path
       style="fill:#ffffff;fill-rule:nonzero"
       id="path47"
       d="m 290.06036,245.11285 h 27.46457 v 16.47244 h -27.46457 z" />
    <path
       style="fill-rule:nonzero;stroke:#000000;stroke-width:2;stroke-linecap:butt;stroke-linejoin:round"
       id="path49"
       d="m 290.06036,245.11285 h 27.46457 v 16.47244 h -27.46457 z" />
    <path
       style="fill:#ffffff;fill-rule:nonzero"
       id="path51"
       d="m 290.06036,208.9029 h 27.46457 v 16.47243 h -27.46457 z" />
    <path
       style="fill-rule:nonzero;stroke:#000000;stroke-width:2;stroke-linecap:butt;stroke-linejoin:round"
       id="path53"
       d="m 290.06036,208.9029 h 27.46457 v 16.47243 h -27.46457 z" />
    <path
       style="fill:#ffffff;fill-rule:nonzero"
       id="path55"
       d="m 290.06036,281.32285 h 27.46457 v 16.47244 h -27.46457 z" />
    <path
       style="fill-rule:nonzero;stroke:#000000;stroke-width:2;stroke-linecap:butt;stroke-linejoin:round"
       id="path57"
       d="m 290.06036,281.32285 h 27.46457 v 16.47244 h -27.46457 z" />
  </g>
  <g
     id="text63"
     style="font-size:32px;font-family:'DejaVu Sans', sans-serif;text-anchor:middle;fill:#ffffff"
     aria-label="[EKRAN]">
    <path
       id="path97"
       style=""
       d="m 86.25,45.6875 h 6.625 v 2.234375 h -3.75 v 24.0625 h 3.75 V 74.21875 H 86.25 Z" />
    <path
       id="path99"
       style=""
       d="m 99.140625,46.671875 h 14.749995 v 2.65625 h -11.59375 v 6.90625 h 11.10938 v 2.65625 h -11.10938 v 8.453125 h 11.875 V 70 H 99.140625 Z" />
    <path
       id="path101"
       style=""
       d="m 119.39062,46.671875 h 3.15625 v 9.859375 l 10.46876,-9.859375 h 4.0625 L 125.5,57.546875 137.90625,70 H 133.75 L 122.54687,58.765625 V 70 h -3.15625 z" />
    <path
       id="path103"
       style=""
       d="m 151.45313,59.0625 q 1.01562,0.34375 1.96875,1.46875 0.96875,1.125 1.9375,3.09375 L 158.5625,70 h -3.39062 l -2.98438,-5.984375 q -1.15625,-2.34375 -2.25,-3.109375 -1.07812,-0.765625 -2.95312,-0.765625 h -3.4375 V 70 h -3.15625 V 46.671875 h 7.125 q 4,0 5.96875,1.671875 1.96875,1.671875 1.96875,5.046875 0,2.203125 -1.03125,3.65625 Q 153.40625,58.5 151.45313,59.0625 Z m -7.90625,-9.796875 v 8.28125 h 3.96875 q 2.28125,0 3.4375,-1.046875 1.17187,-1.0625 1.17187,-3.109375 0,-2.046875 -1.17187,-3.078125 -1.15625,-1.046875 -3.4375,-1.046875 z" />
    <path
       id="path105"
       style=""
       d="m 169.125,49.78125 -4.28125,11.609375 h 8.57813 z m -1.78125,-3.109375 h 3.57813 L 179.8125,70 h -3.28125 l -2.125,-5.984375 H 163.89063 L 161.76563,70 h -3.32813 z" />
    <path
       id="path107"
       style=""
       d="m 183.20313,46.671875 h 4.25 L 197.79688,66.1875 V 46.671875 h 3.0625 V 70 h -4.25 L 186.26563,50.484375 V 70 h -3.0625 z" />
    <path
       id="path109"
       style=""
       d="m 213.73438,45.6875 v 28.53125 h -6.625 v -2.234375 h 3.73437 v -24.0625 h -3.73437 V 45.6875 Z" />
  </g>
  <g
     id="text67"
     style="font-size:20px;font-family:'DejaVu Sans', sans-serif;text-anchor:middle;fill:#000000"
     aria-label="[YAZI]">
    <path
       id="path112"
       style=""
       d="m 58.933594,138.80469 h 4.140625 v 1.39648 h -2.34375 v 15.03906 h 2.34375 v 1.39649 h -4.140625 z" />
    <path
       id="path114"
       style=""
       d="m 64.988281,139.41992 h 2.119141 l 4.042969,5.9961 4.013672,-5.9961 h 2.11914 l -5.15625,7.63672 V 154 h -1.982422 v -6.94336 z" />
    <path
       id="path116"
       style=""
       d="m 82.527344,141.36328 -2.675781,7.25586 h 5.361328 z m -1.113281,-1.94336 h 2.236328 L 89.207031,154 H 87.15625 l -1.328125,-3.74023 H 79.255859 L 77.927734,154 h -2.080078 z" />
    <path
       id="path118"
       style=""
       d="m 90.486328,139.41992 h 11.455082 v 1.50391 l -9.218754,11.41601 h 9.443364 V 154 H 90.261719 v -1.50391 l 9.21875,-11.41601 h -8.994141 z" />
    <path
       id="path120"
       style=""
       d="m 105.03711,139.41992 h 1.97266 V 154 h -1.97266 z" />
    <path
       id="path122"
       style=""
       d="m 115.05664,138.80469 v 17.83203 h -4.14062 v -1.39649 H 113.25 v -15.03906 h -2.33398 v -1.39648 z" />
  </g>
  <g
     id="text71"
     style="font-size:20px;font-family:'DejaVu Sans', sans-serif;text-anchor:middle;fill:#000000"
     aria-label="[YAZI]">
    <path
       id="path125"
       style=""
       d="m 58.933594,215.80469 h 4.140625 v 1.39648 h -2.34375 v 15.03906 h 2.34375 v 1.39649 h -4.140625 z" />
    <path
       id="path127"
       style=""
       d="m 64.988281,216.41992 h 2.119141 l 4.042969,5.9961 4.013672,-5.9961 h 2.11914 l -5.15625,7.63672 V 231 h -1.982422 v -6.94336 z" />
    <path
       id="path129"
       style=""
       d="m 82.527344,218.36328 -2.675781,7.25586 h 5.361328 z m -1.113281,-1.94336 h 2.236328 L 89.207031,231 H 87.15625 l -1.328125,-3.74023 H 79.255859 L 77.927734,231 h -2.080078 z" />
    <path
       id="path131"
       style=""
       d="m 90.486328,216.41992 h 11.455082 v 1.50391 l -9.218754,11.41601 h 9.443364 V 231 H 90.261719 v -1.50391 l 9.21875,-11.41601 h -8.994141 z" />
    <path
       id="path133"
       style=""
       d="m 105.03711,216.41992 h 1.97266 V 231 h -1.97266 z" />
    <path
       id="path135"
       style=""
       d="m 115.05664,215.80469 v 17.83203 h -4.14062 v -1.39649 H 113.25 v -15.03906 h -2.33398 v -1.39648 z" />
  </g>
  <g
     id="text75"
     style="font-size:20px;font-family:'DejaVu Sans', sans-serif;text-anchor:middle;fill:#000000"
     aria-label="[YAZI]">
    <path
       id="path138"
       style=""
       d="m 58.933594,283.80469 h 4.140625 v 1.39648 h -2.34375 v 15.03906 h 2.34375 v 1.39649 h -4.140625 z" />
    <path
       id="path140"
       style=""
       d="m 64.988281,284.41992 h 2.119141 l 4.042969,5.9961 4.013672,-5.9961 h 2.11914 l -5.15625,7.63672 V 299 h -1.982422 v -6.94336 z" />
    <path
       id="path142"
       style=""
       d="m 82.527344,286.36328 -2.675781,7.25586 h 5.361328 z m -1.113281,-1.94336 h 2.236328 L 89.207031,299 H 87.15625 l -1.328125,-3.74023 H 79.255859 L 77.927734,299 h -2.080078 z" />
    <path
       id="path144"
       style=""
       d="m 90.486328,284.41992 h 11.455082 v 1.50391 l -9.218754,11.41601 h 9.443364 V 299 H 90.261719 v -1.50391 l 9.21875,-11.41601 h -8.994141 z" />
    <path
       id="path146"
       style=""
       d="m 105.03711,284.41992 h 1.97266 V 299 h -1.97266 z" />
    <path
       id="path148"
       style=""
       d="m 115.05664,283.80469 v 17.83203 h -4.14062 v -1.39649 H 113.25 v -15.03906 h -2.33398 v -1.39648 z" />
  </g>
  <g
     id="text79"
     style="font-size:20px;font-family:'DejaVu Sans', sans-serif;text-anchor:middle;fill:#000000"
     aria-label="[YAZI]">
    <path
       id="path151"
       style=""
       d="m 181.93359,138.80469 h 4.14063 v 1.39648 h -2.34375 v 15.03906 h 2.34375 v 1.39649 h -4.14063 z" />
    <path
       id="path153"
       style=""
       d="m 187.98828,139.41992 h 2.11914 l 4.04297,5.9961 4.01367,-5.9961 h 2.11914 l -5.15625,7.63672 V 154 h -1.98242 v -6.94336 z" />
    <path
       id="path155"
       style=""
       d="m 205.52734,141.36328 -2.67578,7.25586 h 5.36133 z m -1.11328,-1.94336 h 2.23633 L 212.20703,154 h -2.05078 l -1.32812,-3.74023 h -6.57227 L 200.92773,154 h -2.08007 z" />
    <path
       id="path157"
       style=""
       d="m 213.48633,139.41992 h 11.45508 v 1.50391 l -9.21875,11.41601 h 9.44336 V 154 h -11.9043 v -1.50391 l 9.21875,-11.41601 h -8.99414 z" />
    <path
       id="path159"
       style=""
       d="m 228.03711,139.41992 h 1.97266 V 154 h -1.97266 z" />
    <path
       id="path161"
       style=""
       d="m 238.05664,138.80469 v 17.83203 h -4.14062 v -1.39649 H 236.25 v -15.03906 h -2.33398 v -1.39648 z" />
  </g>
  <g
     id="text83"
     style="font-size:20px;font-family:'DejaVu Sans', sans-serif;text-anchor:middle;fill:#000000"
     aria-label="[YAZI]">
    <path
       id="path164"
       style=""
       d="m 181.93359,215.80469 h 4.14063 v 1.39648 h -2.34375 v 15.03906 h 2.34375 v 1.39649 h -4.14063 z" />
    <path
       id="path166"
       style=""
       d="m 187.98828,216.41992 h 2.11914 l 4.04297,5.9961 4.01367,-5.9961 h 2.11914 l -5.15625,7.63672 V 231 h -1.98242 v -6.94336 z" />
    <path
       id="path168"
       style=""
       d="m 205.52734,218.36328 -2.67578,7.25586 h 5.36133 z m -1.11328,-1.94336 h 2.23633 L 212.20703,231 h -2.05078 l -1.32812,-3.74023 h -6.57227 L 200.92773,231 h -2.08007 z" />
    <path
       id="path170"
       style=""
       d="m 213.48633,216.41992 h 11.45508 v 1.50391 l -9.21875,11.41601 h 9.44336 V 231 h -11.9043 v -1.50391 l 9.21875,-11.41601 h -8.99414 z" />
    <path
       id="path172"
       style=""
       d="m 228.03711,216.41992 h 1.97266 V 231 h -1.97266 z" />
    <path
       id="path174"
       style=""
       d="m 238.05664,215.80469 v 17.83203 h -4.14062 v -1.39649 H 236.25 v -15.03906 h -2.33398 v -1.39648 z" />
  </g>
  <g
     id="text87"
     style="font-size:20px;font-family:'DejaVu Sans', sans-serif;text-anchor:middle;fill:#000000"
     aria-label="[YAZI]">
    <path
       id="path177"
       style=""
       d="m 181.93359,283.80469 h 4.14063 v 1.39648 h -2.34375 v 15.03906 h 2.34375 v 1.39649 h -4.14063 z" />
    <path
       id="path179"
       style=""
       d="m 187.98828,284.41992 h 2.11914 l 4.04297,5.9961 4.01367,-5.9961 h 2.11914 l -5.15625,7.63672 V 299 h -1.98242 v -6.94336 z" />
    <path
       id="path181"
       style=""
       d="m 205.52734,286.36328 -2.67578,7.25586 h 5.36133 z m -1.11328,-1.94336 h 2.23633 L 212.20703,299 h -2.05078 l -1.32812,-3.74023 h -6.57227 L 200.92773,299 h -2.08007 z" />
    <path
       id="path183"
       style=""
       d="m 213.48633,284.41992 h 11.45508 v 1.50391 l -9.21875,11.41601 h 9.44336 V 299 h -11.9043 v -1.50391 l 9.21875,-11.41601 h -8.99414 z" />
    <path
       id="path185"
       style=""
       d="m 228.03711,284.41992 h 1.97266 V 299 h -1.97266 z" />
    <path
       id="path187"
       style=""
       d="m 238.05664,283.80469 v 17.83203 h -4.14062 v -1.39649 H 236.25 v -15.03906 h -2.33398 v -1.39648 z" />
  </g>
</svg>
