<?xml version="1.0" encoding="UTF-8" standalone="no"?>
<svg
   xmlns:dc="http://purl.org/dc/elements/1.1/"
   xmlns:cc="http://creativecommons.org/ns#"
   xmlns:rdf="http://www.w3.org/1999/02/22-rdf-syntax-ns#"
   xmlns:svg="http://www.w3.org/2000/svg"
   xmlns="http://www.w3.org/2000/svg"
   id="svg89"
   stroke-miterlimit="10"
   stroke-linecap="square"
   stroke="none"
   fill="none"
   viewBox="0.0 0.0 348.0 348.0"
   version="1.1">
  <metadata
     id="metadata95">
    <rdf:RDF>
      <cc:Work
         rdf:about="">
        <dc:format>image/svg+xml</dc:format>
        <dc:type
           rdf:resource="http://purl.org/dc/dcmitype/StillImage" />
      </cc:Work>
    </rdf:RDF>
  </metadata>
  <defs
     id="defs93" />
  <clipPath
     id="p.0">
    <path
       id="path2"
       clip-rule="nonzero"
       d="m0 0l348.0 0l0 348.0l-348.0 0l0 -348.0z" />
  </clipPath>
  <g
     id="g59"
     clip-path="url(#p.0)">
    <path
       id="path5"
       fill-rule="nonzero"
       d="M 0,0 H 348 V 348 H 0 Z"
       fill-opacity="0"
       fill="#000000" />
    <path
       id="path7"
       fill-rule="nonzero"
       d="M -6,0 H 342 V 347.9685 H -6 Z"
       fill="#ffffff" />
    <path
       id="path9"
       fill-rule="nonzero"
       d="m 5.07874,5.7758217 h 336.9134 V 343.44512 H 5.07874 Z"
       fill-opacity="0"
       fill="#000000" />
    <path
       id="path11"
       fill-rule="nonzero"
       d="m 5.07874,5.7758217 h 336.9134 V 343.44512 H 5.07874 Z"
       stroke-linecap="butt"
       stroke-linejoin="round"
       stroke-width="2"
       stroke="#000000" />
    <path
       id="path13"
       fill-rule="nonzero"
       d="m 282.73444,40.553925 v 0 c 0,-8.375591 6.96603,-15.165352 15.55905,-15.165352 v 0 c 4.12653,0 8.08402,1.597773 11.00192,4.441828 2.91788,2.844057 4.55713,6.701422 4.55713,10.723524 v 0 c 0,8.375595 -6.966,15.165356 -15.55905,15.165356 v 0 c -8.59302,0 -15.55905,-6.789761 -15.55905,-15.165356 z"
       fill="#ffffff" />
    <path
       id="path15"
       fill-rule="nonzero"
       d="m 282.73444,40.553925 v 0 c 0,-8.375591 6.96603,-15.165352 15.55905,-15.165352 v 0 c 4.12653,0 8.08402,1.597773 11.00192,4.441828 2.91788,2.844057 4.55713,6.701422 4.55713,10.723524 v 0 c 0,8.375595 -6.966,15.165356 -15.55905,15.165356 v 0 c -8.59302,0 -15.55905,-6.789761 -15.55905,-15.165356 z"
       stroke-linecap="butt"
       stroke-linejoin="round"
       stroke-width="2"
       stroke="#000000" />
    <path
       id="path17"
       fill-rule="nonzero"
       d="M 34.771652,25.389738 H 267.18112 v 67.55905 H 34.771652 Z"
       fill="#000000" />
    <path
       id="path19"
       fill-rule="nonzero"
       d="M 34.771652,25.389738 H 267.18112 v 67.55905 H 34.771652 Z"
       stroke-linecap="butt"
       stroke-linejoin="round"
       stroke-width="2"
       stroke="#000000" />
    <path
       id="path21"
       fill-rule="nonzero"
       d="M 34.771652,202.31795 H 141.41733 v 44.81891 H 34.771652 Z"
       stroke-linecap="butt"
       stroke-linejoin="round"
       stroke-width="1"
       stroke="#000000" />
    <path
       id="path23"
       fill-rule="nonzero"
       d="M 34.771652,125.22639 H 141.41733 v 44.8189 H 34.771652 Z"
       fill-opacity="0"
       fill="#000000" />
    <path
       id="path25"
       fill-rule="nonzero"
       d="M 34.771652,125.22639 H 141.41733 v 44.8189 H 34.771652 Z"
       stroke-linecap="butt"
       stroke-linejoin="round"
       stroke-width="1"
       stroke="#000000" />
    <path
       id="path27"
       fill-rule="nonzero"
       d="M 34.771652,270.60397 H 141.41733 v 44.81891 H 34.771652 Z"
       fill-opacity="0"
       fill="#000000" />
    <path
       id="path29"
       fill-rule="nonzero"
       d="M 34.771652,270.60397 H 141.41733 v 44.81891 H 34.771652 Z"
       stroke-linecap="butt"
       stroke-linejoin="round"
       stroke-width="1"
       stroke="#000000" />
    <path
       id="path31"
       fill-rule="nonzero"
       d="m 157.40683,202.31795 h 106.64566 v 44.81891 H 157.40683 Z"
       fill-opacity="0"
       fill="#000000" />
    <path
       id="path33"
       fill-rule="nonzero"
       d="m 157.40683,202.31795 h 106.64566 v 44.81891 H 157.40683 Z"
       stroke-linecap="butt"
       stroke-linejoin="round"
       stroke-width="1"
       stroke="#000000" />
    <path
       id="path35"
       fill-rule="nonzero"
       d="m 157.40683,125.22639 h 106.64566 v 44.8189 H 157.40683 Z"
       fill-opacity="0"
       fill="#000000" />
    <path
       id="path37"
       fill-rule="nonzero"
       d="m 157.40683,125.22639 h 106.64566 v 44.8189 H 157.40683 Z"
       stroke-linecap="butt"
       stroke-linejoin="round"
       stroke-width="1"
       stroke="#000000" />
    <path
       id="path39"
       fill-rule="nonzero"
       d="m 157.40683,270.60397 h 106.64566 v 44.81891 H 157.40683 Z"
       fill-opacity="0"
       fill="#000000" />
    <path
       id="path41"
       fill-rule="nonzero"
       d="m 157.40683,270.60397 h 106.64566 v 44.81891 H 157.40683 Z"
       stroke-linecap="butt"
       stroke-linejoin="round"
       stroke-width="1"
       stroke="#000000" />
    <path
       id="path43"
       fill-rule="nonzero"
       d="m 277.46194,106.3832 h 52.66141 v 209.03937 h -52.66141 z"
       fill="#000000" />
    <path
       id="path45"
       fill-rule="nonzero"
       d="m 277.46194,106.3832 h 52.66141 v 209.03937 h -52.66141 z"
       stroke-linecap="butt"
       stroke-linejoin="round"
       stroke-width="2"
       stroke="#000000" />
    <path
       id="path47"
       fill-rule="nonzero"
       d="m 290.06036,245.11285 h 27.46457 v 16.47244 h -27.46457 z"
       fill="#ffffff" />
    <path
       id="path49"
       fill-rule="nonzero"
       d="m 290.06036,245.11285 h 27.46457 v 16.47244 h -27.46457 z"
       stroke-linecap="butt"
       stroke-linejoin="round"
       stroke-width="2"
       stroke="#000000" />
    <path
       id="path51"
       fill-rule="nonzero"
       d="m 290.06036,208.9029 h 27.46457 v 16.47243 h -27.46457 z"
       fill="#ffffff" />
    <path
       id="path53"
       fill-rule="nonzero"
       d="m 290.06036,208.9029 h 27.46457 v 16.47243 h -27.46457 z"
       stroke-linecap="butt"
       stroke-linejoin="round"
       stroke-width="2"
       stroke="#000000" />
    <path
       id="path55"
       fill-rule="nonzero"
       d="m 290.06036,281.32285 h 27.46457 v 16.47244 h -27.46457 z"
       fill="#ffffff" />
    <path
       id="path57"
       fill-rule="nonzero"
       d="m 290.06036,281.32285 h 27.46457 v 16.47244 h -27.46457 z"
       stroke-linecap="butt"
       stroke-linejoin="round"
       stroke-width="2"
       stroke="#000000" />
  </g>
  <g
     style="font-size:32px;font-family:'DejaVu Sans', sans-serif;text-anchor:middle;fill:#ffffff"
     id="text63"
     aria-label="[ NÄYTTÖ ]">
    <path
       id="path97"
       d="m 66.75,45.6875 h 6.625 v 2.234375 h -3.75 v 24.0625 h 3.75 V 74.21875 H 66.75 Z" />
    <path
       id="path99"
       d="m 89.828125,46.671875 h 4.25 L 104.42188,66.1875 V 46.671875 h 3.0625 V 70 h -4.25 L 92.890625,50.484375 V 70 h -3.0625 z" />
    <path
       id="path101"
       d="m 121.5625,49.78125 -4.28125,11.609375 h 8.57813 z m -1.78125,-3.109375 h 3.57813 L 132.25,70 h -3.28125 l -2.125,-5.984375 H 116.32813 L 114.20313,70 H 110.875 Z m 3.25,-5.890625 h 3.17188 v 3.171875 h -3.17188 z m -6.10937,0 h 3.17187 v 3.171875 h -3.17187 z" />
    <path
       id="path103"
       d="m 129.9375,46.671875 h 3.39062 l 6.46875,9.59375 6.42188,-9.59375 h 3.39062 l -8.25,12.21875 V 70 H 138.1875 V 58.890625 Z" />
    <path
       id="path105"
       d="m 149.46875,46.671875 h 19.73437 v 2.65625 h -8.28125 V 70 H 157.75 V 49.328125 h -8.28125 z" />
    <path
       id="path107"
       d="m 168.46875,46.671875 h 19.73437 v 2.65625 h -8.28125 V 70 H 176.75 V 49.328125 h -8.28125 z" />
    <path
       id="path109"
       d="m 200.73437,48.8125 q -3.4375,0 -5.46875,2.5625 -2.01562,2.5625 -2.01562,6.984375 0,4.40625 2.01562,6.96875 2.03125,2.5625 5.46875,2.5625 3.4375,0 5.4375,-2.5625 2.01563,-2.5625 2.01563,-6.96875 0,-4.421875 -2.01563,-6.984375 -2,-2.5625 -5.4375,-2.5625 z m 0,-2.5625 q 4.90625,0 7.84375,3.296875 2.9375,3.28125 2.9375,8.8125 0,5.515625 -2.9375,8.8125 -2.9375,3.28125 -7.84375,3.28125 -4.92187,0 -7.875,-3.28125 -2.9375,-3.28125 -2.9375,-8.8125 0,-5.53125 2.9375,-8.8125 Q 195.8125,46.25 200.73437,46.25 Z m 1.46875,-5.46875 h 3.17188 v 3.171875 h -3.17188 z m -6.10937,0 h 3.17187 v 3.171875 h -3.17187 z" />
    <path
       id="path111"
       d="m 233.23437,45.6875 v 28.53125 h -6.625 v -2.234375 h 3.73438 v -24.0625 h -3.73438 V 45.6875 Z" />
  </g>
  <g
     style="font-size:20px;font-family:'DejaVu Sans', sans-serif;text-anchor:middle;fill:#000000"
     id="text67"
     aria-label="[ TEKSTI ]">
    <path
       id="path114"
       d="m 40.125,138.80469 h 4.140625 v 1.39648 h -2.34375 v 15.03906 h 2.34375 v 1.39649 H 40.125 Z" />
    <path
       id="path116"
       d="m 52.527344,139.41992 h 12.333984 v 1.66016 H 59.685547 V 154 h -1.982422 v -12.91992 h -5.175781 z" />
    <path
       id="path118"
       d="m 66.775391,139.41992 h 9.21875 v 1.66016 h -7.246094 v 4.3164 h 6.943359 v 1.66016 h -6.943359 v 5.2832 h 7.421875 V 154 h -9.394531 z" />
    <path
       id="path120"
       d="m 79.431641,139.41992 h 1.972656 v 6.16211 l 6.542969,-6.16211 h 2.539062 L 83.25,146.2168 91.003906,154 H 88.40625 l -7.001953,-7.02148 V 154 h -1.972656 z" />
    <path
       id="path122"
       d="m 101.29688,139.89844 v 1.92383 q -1.12305,-0.53711 -2.119146,-0.80079 -0.996093,-0.26367 -1.923828,-0.26367 -1.611328,0 -2.490234,0.625 -0.869141,0.625 -0.869141,1.77735 0,0.96679 0.576172,1.46484 0.585938,0.48828 2.207031,0.79102 l 1.191407,0.24414 q 2.207029,0.41992 3.251949,1.48437 1.05469,1.05469 1.05469,2.83203 0,2.11914 -1.42578,3.21289 -1.416016,1.09375 -4.160156,1.09375 -1.035157,0 -2.207032,-0.23437 -1.162109,-0.23438 -2.412109,-0.69336 v -2.03125 q 1.201172,0.67383 2.353516,1.01562 1.152343,0.3418 2.265625,0.3418 1.689453,0 2.607422,-0.66406 0.917964,-0.66406 0.917964,-1.89453 0,-1.07422 -0.664058,-1.67969 -0.654297,-0.60547 -2.158203,-0.9082 l -1.201172,-0.23438 q -2.207031,-0.43945 -3.19336,-1.37695 -0.986328,-0.9375 -0.986328,-2.60742 0,-1.9336 1.357422,-3.04688 1.367188,-1.11328 3.759766,-1.11328 1.02539,0 2.089844,0.18555 1.064449,0.18554 2.177739,0.55664 z" />
    <path
       id="path124"
       d="m 103.23047,139.41992 h 12.33398 v 1.66016 h -5.17578 V 154 h -1.98242 v -12.91992 h -5.17578 z" />
    <path
       id="path126"
       d="m 117.47852,139.41992 h 1.97265 V 154 h -1.97265 z" />
    <path
       id="path128"
       d="m 133.86523,138.80469 v 17.83203 h -4.14062 v -1.39649 h 2.33398 v -15.03906 h -2.33398 v -1.39648 z" />
  </g>
  <g
     style="font-size:20px;font-family:'DejaVu Sans', sans-serif;text-anchor:middle;fill:#000000"
     id="text71"
     aria-label="[ TEKSTI ]">
    <path
       id="path131"
       d="m 40.125,215.80469 h 4.140625 v 1.39648 h -2.34375 v 15.03906 h 2.34375 v 1.39649 H 40.125 Z" />
    <path
       id="path133"
       d="m 52.527344,216.41992 h 12.333984 v 1.66016 H 59.685547 V 231 h -1.982422 v -12.91992 h -5.175781 z" />
    <path
       id="path135"
       d="m 66.775391,216.41992 h 9.21875 v 1.66016 h -7.246094 v 4.3164 h 6.943359 v 1.66016 h -6.943359 v 5.2832 h 7.421875 V 231 h -9.394531 z" />
    <path
       id="path137"
       d="m 79.431641,216.41992 h 1.972656 v 6.16211 l 6.542969,-6.16211 h 2.539062 L 83.25,223.2168 91.003906,231 H 88.40625 l -7.001953,-7.02148 V 231 h -1.972656 z" />
    <path
       id="path139"
       d="m 101.29688,216.89844 v 1.92383 q -1.12305,-0.53711 -2.119146,-0.80079 -0.996093,-0.26367 -1.923828,-0.26367 -1.611328,0 -2.490234,0.625 -0.869141,0.625 -0.869141,1.77735 0,0.96679 0.576172,1.46484 0.585938,0.48828 2.207031,0.79102 l 1.191407,0.24414 q 2.207029,0.41992 3.251949,1.48437 1.05469,1.05469 1.05469,2.83203 0,2.11914 -1.42578,3.21289 -1.416016,1.09375 -4.160156,1.09375 -1.035157,0 -2.207032,-0.23437 -1.162109,-0.23438 -2.412109,-0.69336 v -2.03125 q 1.201172,0.67383 2.353516,1.01562 1.152343,0.3418 2.265625,0.3418 1.689453,0 2.607422,-0.66406 0.917964,-0.66406 0.917964,-1.89453 0,-1.07422 -0.664058,-1.67969 -0.654297,-0.60547 -2.158203,-0.9082 l -1.201172,-0.23438 q -2.207031,-0.43945 -3.19336,-1.37695 -0.986328,-0.9375 -0.986328,-2.60742 0,-1.9336 1.357422,-3.04688 1.367188,-1.11328 3.759766,-1.11328 1.02539,0 2.089844,0.18555 1.064449,0.18554 2.177739,0.55664 z" />
    <path
       id="path141"
       d="m 103.23047,216.41992 h 12.33398 v 1.66016 h -5.17578 V 231 h -1.98242 v -12.91992 h -5.17578 z" />
    <path
       id="path143"
       d="m 117.47852,216.41992 h 1.97265 V 231 h -1.97265 z" />
    <path
       id="path145"
       d="m 133.86523,215.80469 v 17.83203 h -4.14062 v -1.39649 h 2.33398 v -15.03906 h -2.33398 v -1.39648 z" />
  </g>
  <g
     style="font-size:20px;font-family:'DejaVu Sans', sans-serif;text-anchor:middle;fill:#000000"
     id="text75"
     aria-label="[ TEKSTI ]">
    <path
       id="path148"
       d="m 40.125,283.80469 h 4.140625 v 1.39648 h -2.34375 v 15.03906 h 2.34375 v 1.39649 H 40.125 Z" />
    <path
       id="path150"
       d="m 52.527344,284.41992 h 12.333984 v 1.66016 H 59.685547 V 299 h -1.982422 v -12.91992 h -5.175781 z" />
    <path
       id="path152"
       d="m 66.775391,284.41992 h 9.21875 v 1.66016 h -7.246094 v 4.3164 h 6.943359 v 1.66016 h -6.943359 v 5.2832 h 7.421875 V 299 h -9.394531 z" />
    <path
       id="path154"
       d="m 79.431641,284.41992 h 1.972656 v 6.16211 l 6.542969,-6.16211 h 2.539062 L 83.25,291.2168 91.003906,299 H 88.40625 l -7.001953,-7.02148 V 299 h -1.972656 z" />
    <path
       id="path156"
       d="m 101.29688,284.89844 v 1.92383 q -1.12305,-0.53711 -2.119146,-0.80079 -0.996093,-0.26367 -1.923828,-0.26367 -1.611328,0 -2.490234,0.625 -0.869141,0.625 -0.869141,1.77735 0,0.96679 0.576172,1.46484 0.585938,0.48828 2.207031,0.79102 l 1.191407,0.24414 q 2.207029,0.41992 3.251949,1.48437 1.05469,1.05469 1.05469,2.83203 0,2.11914 -1.42578,3.21289 -1.416016,1.09375 -4.160156,1.09375 -1.035157,0 -2.207032,-0.23437 -1.162109,-0.23438 -2.412109,-0.69336 v -2.03125 q 1.201172,0.67383 2.353516,1.01562 1.152343,0.3418 2.265625,0.3418 1.689453,0 2.607422,-0.66406 0.917964,-0.66406 0.917964,-1.89453 0,-1.07422 -0.664058,-1.67969 -0.654297,-0.60547 -2.158203,-0.9082 l -1.201172,-0.23438 q -2.207031,-0.43945 -3.19336,-1.37695 -0.986328,-0.9375 -0.986328,-2.60742 0,-1.9336 1.357422,-3.04688 1.367188,-1.11328 3.759766,-1.11328 1.02539,0 2.089844,0.18555 1.064449,0.18554 2.177739,0.55664 z" />
    <path
       id="path158"
       d="m 103.23047,284.41992 h 12.33398 v 1.66016 h -5.17578 V 299 h -1.98242 v -12.91992 h -5.17578 z" />
    <path
       id="path160"
       d="m 117.47852,284.41992 h 1.97265 V 299 h -1.97265 z" />
    <path
       id="path162"
       d="m 133.86523,283.80469 v 17.83203 h -4.14062 v -1.39649 h 2.33398 v -15.03906 h -2.33398 v -1.39648 z" />
  </g>
  <g
     style="font-size:20px;font-family:'DejaVu Sans', sans-serif;text-anchor:middle;fill:#000000"
     id="text79"
     aria-label="[ TEKSTI ]">
    <path
       id="path165"
       d="m 163.125,138.80469 h 4.14062 v 1.39648 h -2.34375 v 15.03906 h 2.34375 v 1.39649 H 163.125 Z" />
    <path
       id="path167"
       d="m 175.52734,139.41992 h 12.33399 v 1.66016 h -5.17578 V 154 h -1.98243 v -12.91992 h -5.17578 z" />
    <path
       id="path169"
       d="m 189.77539,139.41992 h 9.21875 v 1.66016 h -7.24609 v 4.3164 h 6.94336 v 1.66016 h -6.94336 v 5.2832 h 7.42187 V 154 h -9.39453 z" />
    <path
       id="path171"
       d="m 202.43164,139.41992 h 1.97266 v 6.16211 l 6.54297,-6.16211 h 2.53906 L 206.25,146.2168 214.00391,154 h -2.59766 l -7.00195,-7.02148 V 154 h -1.97266 z" />
    <path
       id="path173"
       d="m 224.29687,139.89844 v 1.92383 q -1.12304,-0.53711 -2.11914,-0.80079 -0.99609,-0.26367 -1.92382,-0.26367 -1.61133,0 -2.49024,0.625 -0.86914,0.625 -0.86914,1.77735 0,0.96679 0.57617,1.46484 0.58594,0.48828 2.20703,0.79102 l 1.19141,0.24414 q 2.20703,0.41992 3.25195,1.48437 1.05469,1.05469 1.05469,2.83203 0,2.11914 -1.42578,3.21289 -1.41602,1.09375 -4.16016,1.09375 -1.03515,0 -2.20703,-0.23437 -1.16211,-0.23438 -2.41211,-0.69336 v -2.03125 q 1.20117,0.67383 2.35352,1.01562 1.15234,0.3418 2.26562,0.3418 1.68946,0 2.60743,-0.66406 0.91796,-0.66406 0.91796,-1.89453 0,-1.07422 -0.66406,-1.67969 -0.6543,-0.60547 -2.1582,-0.9082 l -1.20117,-0.23438 q -2.20703,-0.43945 -3.19336,-1.37695 -0.98633,-0.9375 -0.98633,-2.60742 0,-1.9336 1.35742,-3.04688 1.36719,-1.11328 3.75977,-1.11328 1.02539,0 2.08984,0.18555 1.06445,0.18554 2.17773,0.55664 z" />
    <path
       id="path175"
       d="m 226.23047,139.41992 h 12.33398 v 1.66016 h -5.17578 V 154 h -1.98242 v -12.91992 h -5.17578 z" />
    <path
       id="path177"
       d="m 240.47852,139.41992 h 1.97265 V 154 h -1.97265 z" />
    <path
       id="path179"
       d="m 256.86523,138.80469 v 17.83203 h -4.14062 v -1.39649 h 2.33398 v -15.03906 h -2.33398 v -1.39648 z" />
  </g>
  <g
     style="font-size:20px;font-family:'DejaVu Sans', sans-serif;text-anchor:middle;fill:#000000"
     id="text83"
     aria-label="[ TEKSTI ]">
    <path
       id="path182"
       d="m 163.125,215.80469 h 4.14062 v 1.39648 h -2.34375 v 15.03906 h 2.34375 v 1.39649 H 163.125 Z" />
    <path
       id="path184"
       d="m 175.52734,216.41992 h 12.33399 v 1.66016 h -5.17578 V 231 h -1.98243 v -12.91992 h -5.17578 z" />
    <path
       id="path186"
       d="m 189.77539,216.41992 h 9.21875 v 1.66016 h -7.24609 v 4.3164 h 6.94336 v 1.66016 h -6.94336 v 5.2832 h 7.42187 V 231 h -9.39453 z" />
    <path
       id="path188"
       d="m 202.43164,216.41992 h 1.97266 v 6.16211 l 6.54297,-6.16211 h 2.53906 L 206.25,223.2168 214.00391,231 h -2.59766 l -7.00195,-7.02148 V 231 h -1.97266 z" />
    <path
       id="path190"
       d="m 224.29687,216.89844 v 1.92383 q -1.12304,-0.53711 -2.11914,-0.80079 -0.99609,-0.26367 -1.92382,-0.26367 -1.61133,0 -2.49024,0.625 -0.86914,0.625 -0.86914,1.77735 0,0.96679 0.57617,1.46484 0.58594,0.48828 2.20703,0.79102 l 1.19141,0.24414 q 2.20703,0.41992 3.25195,1.48437 1.05469,1.05469 1.05469,2.83203 0,2.11914 -1.42578,3.21289 -1.41602,1.09375 -4.16016,1.09375 -1.03515,0 -2.20703,-0.23437 -1.16211,-0.23438 -2.41211,-0.69336 v -2.03125 q 1.20117,0.67383 2.35352,1.01562 1.15234,0.3418 2.26562,0.3418 1.68946,0 2.60743,-0.66406 0.91796,-0.66406 0.91796,-1.89453 0,-1.07422 -0.66406,-1.67969 -0.6543,-0.60547 -2.1582,-0.9082 l -1.20117,-0.23438 q -2.20703,-0.43945 -3.19336,-1.37695 -0.98633,-0.9375 -0.98633,-2.60742 0,-1.9336 1.35742,-3.04688 1.36719,-1.11328 3.75977,-1.11328 1.02539,0 2.08984,0.18555 1.06445,0.18554 2.17773,0.55664 z" />
    <path
       id="path192"
       d="m 226.23047,216.41992 h 12.33398 v 1.66016 h -5.17578 V 231 h -1.98242 v -12.91992 h -5.17578 z" />
    <path
       id="path194"
       d="m 240.47852,216.41992 h 1.97265 V 231 h -1.97265 z" />
    <path
       id="path196"
       d="m 256.86523,215.80469 v 17.83203 h -4.14062 v -1.39649 h 2.33398 v -15.03906 h -2.33398 v -1.39648 z" />
  </g>
  <g
     style="font-size:20px;font-family:'DejaVu Sans', sans-serif;text-anchor:middle;fill:#000000"
     id="text87"
     aria-label="[ TEKSTI ]">
    <path
       id="path199"
       d="m 163.125,283.80469 h 4.14062 v 1.39648 h -2.34375 v 15.03906 h 2.34375 v 1.39649 H 163.125 Z" />
    <path
       id="path201"
       d="m 175.52734,284.41992 h 12.33399 v 1.66016 h -5.17578 V 299 h -1.98243 v -12.91992 h -5.17578 z" />
    <path
       id="path203"
       d="m 189.77539,284.41992 h 9.21875 v 1.66016 h -7.24609 v 4.3164 h 6.94336 v 1.66016 h -6.94336 v 5.2832 h 7.42187 V 299 h -9.39453 z" />
    <path
       id="path205"
       d="m 202.43164,284.41992 h 1.97266 v 6.16211 l 6.54297,-6.16211 h 2.53906 L 206.25,291.2168 214.00391,299 h -2.59766 l -7.00195,-7.02148 V 299 h -1.97266 z" />
    <path
       id="path207"
       d="m 224.29687,284.89844 v 1.92383 q -1.12304,-0.53711 -2.11914,-0.80079 -0.99609,-0.26367 -1.92382,-0.26367 -1.61133,0 -2.49024,0.625 -0.86914,0.625 -0.86914,1.77735 0,0.96679 0.57617,1.46484 0.58594,0.48828 2.20703,0.79102 l 1.19141,0.24414 q 2.20703,0.41992 3.25195,1.48437 1.05469,1.05469 1.05469,2.83203 0,2.11914 -1.42578,3.21289 -1.41602,1.09375 -4.16016,1.09375 -1.03515,0 -2.20703,-0.23437 -1.16211,-0.23438 -2.41211,-0.69336 v -2.03125 q 1.20117,0.67383 2.35352,1.01562 1.15234,0.3418 2.26562,0.3418 1.68946,0 2.60743,-0.66406 0.91796,-0.66406 0.91796,-1.89453 0,-1.07422 -0.66406,-1.67969 -0.6543,-0.60547 -2.1582,-0.9082 l -1.20117,-0.23438 q -2.20703,-0.43945 -3.19336,-1.37695 -0.98633,-0.9375 -0.98633,-2.60742 0,-1.9336 1.35742,-3.04688 1.36719,-1.11328 3.75977,-1.11328 1.02539,0 2.08984,0.18555 1.06445,0.18554 2.17773,0.55664 z" />
    <path
       id="path209"
       d="m 226.23047,284.41992 h 12.33398 v 1.66016 h -5.17578 V 299 h -1.98242 v -12.91992 h -5.17578 z" />
    <path
       id="path211"
       d="m 240.47852,284.41992 h 1.97265 V 299 h -1.97265 z" />
    <path
       id="path213"
       d="m 256.86523,283.80469 v 17.83203 h -4.14062 v -1.39649 h 2.33398 v -15.03906 h -2.33398 v -1.39648 z" />
  </g>
</svg>
