<?xml version="1.0" encoding="utf-8"?><svg width="100%" height="100%" viewBox="0 0 400 420" preserveAspectRatio="xMidYMid meet" version="1.1" xmlns="http://www.w3.org/2000/svg"><text font-family="Special Elite, sans-serif" text-anchor="middle" x="390" y="15" font-size="18px"><tspan>A</tspan></text><circle cx="366" cy="11" r="4" /><rect width="24" height="8" x="330" y="7" /><text font-family="Special Elite, sans-serif" text-anchor="middle" x="390" y="35" font-size="18px"><tspan>B</tspan></text><rect width="24" height="8" x="346" y="27" /><circle cx="334" cy="31" r="4" /><circle cx="318" cy="31" r="4" /><circle cx="302" cy="31" r="4" /><text font-family="Special Elite, sans-serif" text-anchor="middle" x="390" y="55" font-size="18px"><tspan>C</tspan></text><rect width="24" height="8" x="346" y="47" /><circle cx="334" cy="51" r="4" /><rect width="24" height="8" x="298" y="47" /><circle cx="286" cy="51" r="4" /><text font-family="Special Elite, sans-serif" text-anchor="middle" x="390" y="75" font-size="18px"><tspan>D</tspan></text><rect width="24" height="8" x="346" y="67" /><circle cx="334" cy="71" r="4" /><circle cx="318" cy="71" r="4" /><text font-family="Special Elite, sans-serif" text-anchor="middle" x="390" y="95" font-size="18px"><tspan>E</tspan></text><circle cx="366" cy="91" r="4" /><text font-family="Special Elite, sans-serif" text-anchor="middle" x="390" y="115" font-size="18px"><tspan>F</tspan></text><circle cx="366" cy="111" r="4" /><circle cx="350" cy="111" r="4" /><rect width="24" height="8" x="314" y="107" /><circle cx="302" cy="111" r="4" /><text font-family="Special Elite, sans-serif" text-anchor="middle" x="390" y="135" font-size="18px"><tspan>G</tspan></text><rect width="24" height="8" x="346" y="127" /><rect width="24" height="8" x="314" y="127" /><circle cx="302" cy="131" r="4" /><text font-family="Special Elite, sans-serif" text-anchor="middle" x="390" y="155" font-size="18px"><tspan>H</tspan></text><circle cx="366" cy="151" r="4" /><circle cx="350" cy="151" r="4" /><circle cx="334" cy="151" r="4" /><circle cx="318" cy="151" r="4" /><text font-family="Special Elite, sans-serif" text-anchor="middle" x="390" y="175" font-size="18px"><tspan>I</tspan></text><circle cx="366" cy="171" r="4" /><circle cx="350" cy="171" r="4" /><text font-family="Special Elite, sans-serif" text-anchor="middle" x="390" y="195" font-size="18px"><tspan>J</tspan></text><circle cx="366" cy="191" r="4" /><rect width="24" height="8" x="330" y="187" /><rect width="24" height="8" x="298" y="187" /><rect width="24" height="8" x="266" y="187" /><text font-family="Special Elite, sans-serif" text-anchor="middle" x="390" y="215" font-size="18px"><tspan>K</tspan></text><rect width="24" height="8" x="346" y="207" /><circle cx="334" cy="211" r="4" /><rect width="24" height="8" x="298" y="207" /><text font-family="Special Elite, sans-serif" text-anchor="middle" x="390" y="235" font-size="18px"><tspan>L</tspan></text><circle cx="366" cy="231" r="4" /><rect width="24" height="8" x="330" y="227" /><circle cx="318" cy="231" r="4" /><circle cx="302" cy="231" r="4" /><text font-family="Special Elite, sans-serif" text-anchor="middle" x="390" y="255" font-size="18px"><tspan>M</tspan></text><rect width="24" height="8" x="346" y="247" /><rect width="24" height="8" x="314" y="247" /><text font-family="Special Elite, sans-serif" text-anchor="middle" x="390" y="275" font-size="18px"><tspan>N</tspan></text><rect width="24" height="8" x="346" y="267" /><circle cx="334" cy="271" r="4" /><text font-family="Special Elite, sans-serif" text-anchor="middle" x="390" y="295" font-size="18px"><tspan>O</tspan></text><rect width="24" height="8" x="346" y="287" /><rect width="24" height="8" x="314" y="287" /><rect width="24" height="8" x="282" y="287" /><text font-family="Special Elite, sans-serif" text-anchor="middle" x="390" y="315" font-size="18px"><tspan>P</tspan></text><circle cx="366" cy="311" r="4" /><rect width="24" height="8" x="330" y="307" /><rect width="24" height="8" x="298" y="307" /><circle cx="286" cy="311" r="4" /><text font-family="Special Elite, sans-serif" text-anchor="middle" x="390" y="335" font-size="18px"><tspan>Q</tspan></text><rect width="24" height="8" x="346" y="327" /><rect width="24" height="8" x="314" y="327" /><circle cx="302" cy="331" r="4" /><rect width="24" height="8" x="266" y="327" /><text font-family="Special Elite, sans-serif" text-anchor="middle" x="390" y="355" font-size="18px"><tspan>R</tspan></text><circle cx="366" cy="351" r="4" /><rect width="24" height="8" x="330" y="347" /><circle cx="318" cy="351" r="4" /><text font-family="Special Elite, sans-serif" text-anchor="middle" x="390" y="375" font-size="18px"><tspan>S</tspan></text><circle cx="366" cy="371" r="4" /><circle cx="350" cy="371" r="4" /><circle cx="334" cy="371" r="4" /><text font-family="Special Elite, sans-serif" text-anchor="middle" x="390" y="395" font-size="18px"><tspan>T</tspan></text><rect width="24" height="8" x="346" y="387" /><text font-family="Special Elite, sans-serif" text-anchor="middle" x="200" y="15" font-size="18px"><tspan>U</tspan></text><circle cx="176" cy="11" r="4" /><circle cx="160" cy="11" r="4" /><rect width="24" height="8" x="124" y="7" /><text font-family="Special Elite, sans-serif" text-anchor="middle" x="200" y="35" font-size="18px"><tspan>V</tspan></text><circle cx="176" cy="31" r="4" /><circle cx="160" cy="31" r="4" /><circle cx="144" cy="31" r="4" /><rect width="24" height="8" x="108" y="27" /><text font-family="Special Elite, sans-serif" text-anchor="middle" x="200" y="55" font-size="18px"><tspan>W</tspan></text><circle cx="176" cy="51" r="4" /><rect width="24" height="8" x="140" y="47" /><rect width="24" height="8" x="108" y="47" /><text font-family="Special Elite, sans-serif" text-anchor="middle" x="200" y="75" font-size="18px"><tspan>X</tspan></text><rect width="24" height="8" x="156" y="67" /><circle cx="144" cy="71" r="4" /><circle cx="128" cy="71" r="4" /><rect width="24" height="8" x="92" y="67" /><text font-family="Special Elite, sans-serif" text-anchor="middle" x="200" y="95" font-size="18px"><tspan>Y</tspan></text><rect width="24" height="8" x="156" y="87" /><circle cx="144" cy="91" r="4" /><rect width="24" height="8" x="108" y="87" /><rect width="24" height="8" x="76" y="87" /><text font-family="Special Elite, sans-serif" text-anchor="middle" x="200" y="115" font-size="18px"><tspan>Z</tspan></text><rect width="24" height="8" x="156" y="107" /><rect width="24" height="8" x="124" y="107" /><circle cx="112" cy="111" r="4" /><circle cx="96" cy="111" r="4" /><text font-family="Special Elite, sans-serif" text-anchor="middle" x="200" y="215" font-size="18px"><tspan>0</tspan></text><rect width="24" height="8" x="156" y="207" /><rect width="24" height="8" x="124" y="207" /><rect width="24" height="8" x="92" y="207" /><rect width="24" height="8" x="60" y="207" /><rect width="24" height="8" x="28" y="207" /><text font-family="Special Elite, sans-serif" text-anchor="middle" x="200" y="235" font-size="18px"><tspan>1</tspan></text><circle cx="176" cy="231" r="4" /><rect width="24" height="8" x="140" y="227" /><rect width="24" height="8" x="108" y="227" /><rect width="24" height="8" x="76" y="227" /><rect width="24" height="8" x="44" y="227" /><text font-family="Special Elite, sans-serif" text-anchor="middle" x="200" y="255" font-size="18px"><tspan>2</tspan></text><circle cx="176" cy="251" r="4" /><circle cx="160" cy="251" r="4" /><rect width="24" height="8" x="124" y="247" /><rect width="24" height="8" x="92" y="247" /><rect width="24" height="8" x="60" y="247" /><text font-family="Special Elite, sans-serif" text-anchor="middle" x="200" y="275" font-size="18px"><tspan>3</tspan></text><circle cx="176" cy="271" r="4" /><circle cx="160" cy="271" r="4" /><circle cx="144" cy="271" r="4" /><rect width="24" height="8" x="108" y="267" /><rect width="24" height="8" x="76" y="267" /><text font-family="Special Elite, sans-serif" text-anchor="middle" x="200" y="295" font-size="18px"><tspan>4</tspan></text><circle cx="176" cy="291" r="4" /><circle cx="160" cy="291" r="4" /><circle cx="144" cy="291" r="4" /><circle cx="128" cy="291" r="4" /><rect width="24" height="8" x="92" y="287" /><text font-family="Special Elite, sans-serif" text-anchor="middle" x="200" y="315" font-size="18px"><tspan>5</tspan></text><circle cx="176" cy="311" r="4" /><circle cx="160" cy="311" r="4" /><circle cx="144" cy="311" r="4" /><circle cx="128" cy="311" r="4" /><circle cx="112" cy="311" r="4" /><text font-family="Special Elite, sans-serif" text-anchor="middle" x="200" y="335" font-size="18px"><tspan>6</tspan></text><rect width="24" height="8" x="156" y="327" /><circle cx="144" cy="331" r="4" /><circle cx="128" cy="331" r="4" /><circle cx="112" cy="331" r="4" /><circle cx="96" cy="331" r="4" /><text font-family="Special Elite, sans-serif" text-anchor="middle" x="200" y="355" font-size="18px"><tspan>7</tspan></text><rect width="24" height="8" x="156" y="347" /><rect width="24" height="8" x="124" y="347" /><circle cx="112" cy="351" r="4" /><circle cx="96" cy="351" r="4" /><circle cx="80" cy="351" r="4" /><text font-family="Special Elite, sans-serif" text-anchor="middle" x="200" y="375" font-size="18px"><tspan>8</tspan></text><rect width="24" height="8" x="156" y="367" /><rect width="24" height="8" x="124" y="367" /><rect width="24" height="8" x="92" y="367" /><circle cx="80" cy="371" r="4" /><circle cx="64" cy="371" r="4" /><text font-family="Special Elite, sans-serif" text-anchor="middle" x="200" y="395" font-size="18px"><tspan>9</tspan></text><rect width="24" height="8" x="156" y="387" /><rect width="24" height="8" x="124" y="387" /><rect width="24" height="8" x="92" y="387" /><rect width="24" height="8" x="60" y="387" /><circle cx="48" cy="391" r="4" /></svg>