<?xml version="1.0" standalone="yes"?>

<svg version="1.1" viewBox="0.0 0.0 288.0 115.0" fill="none" stroke="none" stroke-linecap="square" stroke-miterlimit="10" xmlns="http://www.w3.org/2000/svg" xmlns:xlink="http://www.w3.org/1999/xlink">
	<clipPath id="p.0">
		<path d="m0 0l288.0 0l0 115.0l-288.0 0l0 -115.0z" clip-rule="nonzero"/>
	</clipPath><g clip-path="url(#p.0)">
		<path fill="#000000" fill-opacity="0.0" d="m0 0l288.0 0l0 115.0l-288.0 0z" fill-rule="nonzero"/>
		<path fill="#ffffff" d="m12.0 8.503937l264.0 0l0 98.99213l-264.0 0z" fill-rule="nonzero"/>
		<path stroke="#000000" stroke-width="2.0" stroke-linejoin="round" stroke-linecap="butt" d="m12.0 8.503937l264.0 0l0 98.99213l-264.0 0z" fill-rule="nonzero"/>
		<path fill="#000000" d="m114.0 32.0l145.00787 0l0 53.984253l-145.00787 0z" fill-rule="nonzero"/>
		<path stroke="#000000" stroke-width="2.0" stroke-linejoin="round" stroke-linecap="butt" d="m114.0 32.0l145.00787 0l0 53.984253l-145.00787 0z" fill-rule="nonzero"/>
		<path fill="#ffffff" d="m36.0 58.0l0 0c0 -14.907341 12.084785 -26.992126 26.992126 -26.992126l0 0c7.15876 0 14.024307 2.8438072 19.086311 7.9058113c5.0620117 5.062004 7.905815 11.927559 7.905815 19.086315l0 0c0 14.907341 -12.084785 26.992126 -26.992126 26.992126l0 0c-14.907341 0 -26.992126 -12.084785 -26.992126 -26.992126z" fill-rule="nonzero"/>
		<path stroke="#000000" stroke-width="2.0" stroke-linejoin="round" stroke-linecap="butt" d="m36.0 58.0l0 0c0 -14.907341 12.084785 -26.992126 26.992126 -26.992126l0 0c7.15876 0 14.024307 2.8438072 19.086311 7.9058113c5.0620117 5.062004 7.905815 11.927559 7.905815 19.086315l0 0c0 14.907341 -12.084785 26.992126 -26.992126 26.992126l0 0c-14.907341 0 -26.992126 -12.084785 -26.992126 -26.992126z" fill-rule="nonzero"/>
	</g>
	<text fill="#ffffff" font-family="DejaVu Sans, sans-serif" text-anchor="middle" x="187" y="70" font-size="32px">
		<tspan data-localize="indicators.labeltxt"  data-autosize="6">[TXT]</tspan>
	</text>
</svg>

