<?xml version="1.0" encoding="UTF-8" standalone="no"?>
<svg
   xmlns:dc="http://purl.org/dc/elements/1.1/"
   xmlns:cc="http://creativecommons.org/ns#"
   xmlns:rdf="http://www.w3.org/1999/02/22-rdf-syntax-ns#"
   xmlns:svg="http://www.w3.org/2000/svg"
   xmlns="http://www.w3.org/2000/svg"
   id="svg173"
   stroke-miterlimit="10"
   stroke-linecap="square"
   stroke="none"
   fill="none"
   viewBox="0.0 0.0 1234.0 802.0"
   version="1.1">
  <metadata
     id="metadata179">
    <rdf:RDF>
      <cc:Work
         rdf:about="">
        <dc:format>image/svg+xml</dc:format>
        <dc:type
           rdf:resource="http://purl.org/dc/dcmitype/StillImage" />
      </cc:Work>
    </rdf:RDF>
  </metadata>
  <defs
     id="defs177" />
  <clipPath
     id="p.0">
    <path
       id="path2"
       clip-rule="nonzero"
       d="m0 0l1234.0 0l0 802.0l-1234.0 0l0 -802.0z" />
  </clipPath>
  <g
     id="g167"
     clip-path="url(#p.0)">
    <path
       style="fill:#000000;fill-opacity:0;fill-rule:evenodd"
       id="path5"
       d="M 0,0 H 1234 V 802 H 0 Z" />
    <path
       style="fill:#ffffff;fill-rule:evenodd"
       id="path7"
       d="M 0,-0.00131234 H 1232 V 800.03025 H 0 Z" />
    <path
       style="fill-rule:evenodd;stroke:#000000;stroke-width:2;stroke-linecap:butt;stroke-linejoin:round"
       id="path9"
       d="M 0,-0.00131234 H 1232 V 800.03025 H 0 Z" />
    <path
       style="fill:#ffffff;fill-rule:evenodd"
       id="path11"
       d="m 54.20866,40.560368 h 348 V 388.52887 h -348 z" />
    <path
       style="fill:#000000;fill-opacity:0;fill-rule:evenodd"
       id="path13"
       d="m 65.2874,46.33619 h 336.9134 v 337.6693 H 65.2874 Z" />
    <path
       style="fill-rule:evenodd;stroke:#000000;stroke-width:2;stroke-linecap:butt;stroke-linejoin:round"
       id="path15"
       d="m 65.2874,46.33619 h 336.9134 v 337.6693 H 65.2874 Z" />
    <path
       style="fill:#ffffff;fill-rule:evenodd"
       id="path17"
       d="m 81.65092,139.12111 h 304.189 v 208.03148 h -304.189 z" />
    <path
       style="fill-rule:evenodd;stroke:#000000;stroke-width:2;stroke-linecap:butt;stroke-linejoin:round"
       id="path19"
       d="m 81.65092,139.12111 h 304.189 v 208.03148 h -304.189 z" />
    <path
       style="fill:#000000;fill-opacity:0;fill-rule:evenodd"
       id="path21"
       d="m 89.41207,150.47804 h 288.78738 v 181.6378 H 89.41207 Z" />
    <path
       style="fill:#000000;fill-rule:nonzero"
       id="path23"
       d="m 114.55576,263.17694 11.8125,-1 q 1.3125,8.625 6.09376,12.96875 4.78125,4.34375 11.53125,4.34375 8.125,0 13.75,-6.125 5.625,-6.125 5.625,-16.25 0,-9.62501 -5.40625,-15.18751 -5.40625,-5.5625 -14.15625,-5.5625 -5.4375,0 -9.8125,2.46875 -4.375,2.46875 -6.87501,6.40625 l -10.5625,-1.375 8.875,-47.0625 h 45.56251 v 10.75 h -36.5625 l -4.9375,24.625 q 8.25,-5.75 17.3125,-5.75 12,0 20.25,8.3125 8.25,8.3125 8.25,21.37501 0,12.4375 -7.25,21.5 -8.8125,11.125 -24.0625,11.125 -12.5,0 -20.40626,-7 -7.90625,-7 -9.03125,-18.5625 z m 77.43751,-29.56251 v -12.8125 h 12.8125 v 12.8125 z m 0,53.56251 v -12.8125 h 12.8125 v 12.8125 z m 29.3125,-45.18751 q 0,-16.25 3.34375,-26.15625 3.34375,-9.90625 9.9375,-15.28125 6.59375,-5.375 16.59375,-5.375 7.37498,0 12.93748,2.96875 5.5625,2.96875 9.1875,8.5625 3.625,5.59375 5.6875,13.625 2.0625,8.03125 2.0625,21.65625 0,16.12501 -3.3125,26.03126 -3.3125,9.90625 -9.90625,15.3125 -6.59375,5.40625 -16.65623,5.40625 -13.25,0 -20.8125,-9.5 -9.0625,-11.4375 -9.0625,-37.25001 z m 11.5625,0 q 0,22.56251 5.28125,30.03126 5.28125,7.46875 13.03125,7.46875 7.74998,0 13.03123,-7.5 5.28125,-7.5 5.28125,-30.00001 0,-22.625 -5.28125,-30.0625 -5.28125,-7.4375 -13.15623,-7.4375 -7.75,0 -12.375,6.5625 -5.8125,8.375 -5.8125,30.9375 z m 59.62498,0 q 0,-16.25 3.34375,-26.15625 3.34375,-9.90625 9.9375,-15.28125 6.59375,-5.375 16.59375,-5.375 7.375,0 12.9375,2.96875 5.5625,2.96875 9.1875,8.5625 3.625,5.59375 5.6875,13.625 2.0625,8.03125 2.0625,21.65625 0,16.12501 -3.3125,26.03126 -3.3125,9.90625 -9.90625,15.3125 -6.59375,5.40625 -16.65625,5.40625 -13.25,0 -20.8125,-9.5 -9.0625,-11.4375 -9.0625,-37.25001 z m 11.5625,0 q 0,22.56251 5.28125,30.03126 5.28125,7.46875 13.03125,7.46875 7.75,0 13.03125,-7.5 5.28125,-7.5 5.28125,-30.00001 0,-22.625 -5.28125,-30.0625 -5.28125,-7.4375 -13.15625,-7.4375 -7.75,0 -12.375,6.5625 -5.8125,8.375 -5.8125,30.9375 z" />
    <path
       style="fill:#000000;fill-opacity:0;fill-rule:evenodd"
       id="path25"
       d="M 457.3281,422.8664 H 794.24146 V 760.5357 H 457.3281 Z" />
    <path
       style="fill-rule:evenodd;stroke:#000000;stroke-width:2;stroke-linecap:butt;stroke-linejoin:round"
       id="path27"
       d="M 457.3281,422.8664 H 794.24146 V 760.5357 H 457.3281 Z" />
    <path
       style="fill:#000000;fill-opacity:0;fill-rule:evenodd"
       id="path29"
       d="M 843.65356,45.708893 H 1180.5669 V 383.37819 H 843.65356 Z" />
    <path
       style="fill-rule:evenodd;stroke:#000000;stroke-width:2;stroke-linecap:butt;stroke-linejoin:round"
       id="path31"
       d="M 843.65356,45.708893 H 1180.5669 V 383.37819 H 843.65356 Z" />
    <path
       style="fill:#000000;fill-opacity:0;fill-rule:evenodd"
       id="path33"
       d="m 183.8924,65.91076 h 106.64566 v 63.40157 H 183.8924 Z" />
    <path
       style="fill-rule:evenodd;stroke:#000000;stroke-width:2;stroke-linecap:butt;stroke-linejoin:round"
       id="path35"
       d="m 183.8924,65.91076 h 106.64566 v 63.40157 H 183.8924 Z" />
    <path
       style="fill:#000000;fill-opacity:0;fill-rule:evenodd"
       id="path37"
       d="m 308.15222,97.61155 v 0 c 0,-17.507866 15.0672,-31.70079 33.65356,-31.70079 v 0 c 8.92548,0 17.48539,3.339897 23.79663,9.28495 6.31128,5.945045 9.85691,14.00827 9.85691,22.41584 v 0 c 0,17.50786 -15.0672,31.70078 -33.65354,31.70078 v 0 c -18.58636,0 -33.65356,-14.19292 -33.65356,-31.70078 z" />
    <path
       style="fill-rule:evenodd;stroke:#000000;stroke-width:2;stroke-linecap:butt;stroke-linejoin:round"
       id="path39"
       d="m 308.15222,97.61155 v 0 c 0,-17.507866 15.0672,-31.70079 33.65356,-31.70079 v 0 c 8.92548,0 17.48539,3.339897 23.79663,9.28495 6.31128,5.945045 9.85691,14.00827 9.85691,22.41584 v 0 c 0,17.50786 -15.0672,31.70078 -33.65354,31.70078 v 0 c -18.58636,0 -33.65356,-14.19292 -33.65356,-31.70078 z" />
    <path
       style="fill:#000000;fill-opacity:0;fill-rule:evenodd"
       id="path41"
       d="m 183.8924,65.91076 h 929.5433 V 174.3517 H 183.8924 Z" />
    <path
       style="fill:#ffffff;fill-rule:evenodd"
       id="path43"
       d="M 446.66858,40.343136 H 792.85895 V 390.39948 H 446.66858 Z" />
    <path
       style="fill:#000000;fill-opacity:0;fill-rule:evenodd"
       id="path45"
       d="m 457.68973,46.15361 h 335.1614 v 339.6953 h -335.1614 z" />
    <path
       style="fill-rule:evenodd;stroke:#000000;stroke-width:2;stroke-linecap:butt;stroke-linejoin:round"
       id="path47"
       d="m 457.68973,46.15361 h 335.1614 v 339.6953 h -335.1614 z" />
    <path
       style="fill:#ffffff;fill-rule:evenodd"
       id="path49"
       d="M 469.5857,111.94842 H 693.7995 V 348.69903 H 469.5857 Z" />
    <path
       style="fill-rule:evenodd;stroke:#000000;stroke-width:2;stroke-linecap:butt;stroke-linejoin:round"
       id="path51"
       d="M 469.5857,111.94842 H 693.7995 V 348.69903 H 469.5857 Z" />
    <path
       style="fill:#000000;fill-rule:evenodd"
       id="path53"
       d="M 724.6719,150.9634 H 770.699 V 348.70975 H 724.6719 Z" />
    <path
       style="fill-rule:evenodd;stroke:#000000;stroke-width:2;stroke-linecap:butt;stroke-linejoin:round"
       id="path55"
       d="M 724.6719,150.9634 H 770.699 V 348.70975 H 724.6719 Z" />
    <path
       style="fill:#ffffff;fill-rule:evenodd"
       id="path57"
       d="m 733.9016,81.14039 v 0 c 0,-8.42585 6.92981,-15.256348 15.47815,-15.256348 v 0 c 4.10504,0 8.04199,1.607361 10.9447,4.468475 2.90271,2.861122 4.53345,6.741638 4.53345,10.787872 v 0 c 0,8.425842 -6.92981,15.256348 -15.47815,15.256348 v 0 c -8.54834,0 -15.47815,-6.830505 -15.47815,-15.256347 z" />
    <path
       style="fill-rule:evenodd;stroke:#000000;stroke-width:2;stroke-linecap:butt;stroke-linejoin:round"
       id="path59"
       d="m 733.9016,81.14039 v 0 c 0,-8.42585 6.92981,-15.256348 15.47815,-15.256348 v 0 c 4.10504,0 8.04199,1.607361 10.9447,4.468475 2.90271,2.861122 4.53345,6.741638 4.53345,10.787872 v 0 c 0,8.425842 -6.92981,15.256348 -15.47815,15.256348 v 0 c -8.54834,0 -15.47815,-6.830505 -15.47815,-15.256347 z" />
    <path
       style="fill:#ffffff;fill-rule:evenodd"
       id="path61"
       d="m 484.02972,230.32394 v 0 c 0,-55.27986 43.7251,-100.09305 97.66272,-100.09305 v 0 c 25.90173,0 50.74268,10.54549 69.05798,29.31657 18.31531,18.77109 28.60474,44.23015 28.60474,70.77648 v 0 c 0,55.27987 -43.7251,100.09305 -97.66272,100.09305 v 0 c -53.93763,0 -97.66272,-44.81317 -97.66272,-100.09305 z" />
    <path
       style="fill-rule:evenodd;stroke:#000000;stroke-width:2;stroke-linecap:butt;stroke-linejoin:round"
       id="path63"
       d="m 484.02972,230.32394 v 0 c 0,-55.27986 43.7251,-100.09305 97.66272,-100.09305 v 0 c 25.90173,0 50.74268,10.54549 69.05798,29.31657 18.31531,18.77109 28.60474,44.23015 28.60474,70.77648 v 0 c 0,55.27987 -43.7251,100.09305 -97.66272,100.09305 v 0 c -53.93763,0 -97.66272,-44.81317 -97.66272,-100.09305 z" />
    <path
       style="fill:#000000;fill-opacity:0;fill-rule:evenodd"
       id="path65"
       d="m 497.82376,194.7483 h 201.46658 v 71.10121 H 497.82376 Z" />
    <path
       style="fill:#000000;fill-opacity:0;fill-rule:evenodd"
       id="path67"
       d="m 493.3942,136.91644 h 176.99606 v 186.815 H 493.3942 Z" />
    <path
       style="fill-rule:evenodd;stroke:#000000;stroke-width:1;stroke-linecap:butt;stroke-linejoin:round"
       id="path69"
       d="m 493.3942,136.91644 h 176.99606 v 186.815 H 493.3942 Z" />
    <path
       style="fill:#000000;fill-opacity:0;fill-rule:evenodd"
       id="path71"
       d="m 470.25397,113.67552 23.34256,23.19345" />
    <path
       style="fill-rule:evenodd;stroke:#000000;stroke-width:1;stroke-linecap:butt;stroke-linejoin:round"
       id="path73"
       d="m 470.25397,113.67552 23.34256,23.19345" />
    <path
       style="fill:#000000;fill-opacity:0;fill-rule:evenodd"
       id="path75"
       d="m 670.5952,323.72885 22.96655,24.42917" />
    <path
       style="fill-rule:evenodd;stroke:#000000;stroke-width:1;stroke-linecap:butt;stroke-linejoin:round"
       id="path77"
       d="m 670.5952,323.72885 22.96655,24.42917" />
    <path
       style="fill:#000000;fill-opacity:0;fill-rule:evenodd"
       id="path79"
       d="m 693.53564,113.67552 -22.52789,23.19345" />
    <path
       style="fill-rule:evenodd;stroke:#000000;stroke-width:1;stroke-linecap:butt;stroke-linejoin:round"
       id="path81"
       d="m 693.53564,113.67552 -22.52789,23.19345" />
    <path
       style="fill:#000000;fill-opacity:0;fill-rule:evenodd"
       id="path83"
       d="m 493.18918,323.73413 -22.52789,23.19345" />
    <path
       style="fill-rule:evenodd;stroke:#000000;stroke-width:1;stroke-linecap:butt;stroke-linejoin:round"
       id="path85"
       d="m 493.18918,323.73413 -22.52789,23.19345" />
    <path
       style="fill:#000000;fill-opacity:0;fill-rule:evenodd"
       id="path87"
       d="m 507.53677,99.58888 h 25.81778 v 12.35716 h -25.81778 z" />
    <path
       style="fill-rule:evenodd;stroke:#000000;stroke-width:2;stroke-linecap:butt;stroke-linejoin:round"
       id="path89"
       d="m 507.53677,99.58888 h 25.81778 v 12.35716 h -25.81778 z" />
    <path
       style="fill:#000000;fill-opacity:0;fill-rule:evenodd"
       id="path91"
       d="m 632.0356,99.58888 h 25.81781 v 12.35716 H 632.0356 Z" />
    <path
       style="fill-rule:evenodd;stroke:#000000;stroke-width:2;stroke-linecap:butt;stroke-linejoin:round"
       id="path93"
       d="m 632.0356,99.58888 h 25.81781 v 12.35716 H 632.0356 Z" />
    <path
       style="fill:#000000;fill-opacity:0;fill-rule:evenodd"
       id="path95"
       d="m 536.34155,104.14625 h 91.77228 v 7.79452 h -91.77228 z" />
    <path
       style="fill-rule:evenodd;stroke:#000000;stroke-width:2;stroke-linecap:butt;stroke-linejoin:round"
       id="path97"
       d="m 536.34155,104.14625 h 91.77228 v 7.79452 h -91.77228 z" />
    <path
       style="fill:#ffffff;fill-rule:evenodd"
       id="path99"
       d="M 54.209972,415.29398 H 402.20997 V 763.26246 H 54.209972 Z" />
    <path
       style="fill:#000000;fill-opacity:0;fill-rule:evenodd"
       id="path101"
       d="m 65.28871,421.0698 h 336.9134 V 758.73908 H 65.28871 Z" />
    <path
       style="fill-rule:evenodd;stroke:#000000;stroke-width:2;stroke-linecap:butt;stroke-linejoin:round"
       id="path103"
       d="m 65.28871,421.0698 h 336.9134 V 758.73908 H 65.28871 Z" />
    <path
       style="fill:#000000;fill-opacity:0;fill-rule:evenodd"
       id="path105"
       d="m 128.61154,590.35956 52.56694,-52.5669 52.56692,52.5669 -52.56692,52.56696 z" />
    <path
       style="fill-rule:evenodd;stroke:#000000;stroke-width:2;stroke-linecap:butt;stroke-linejoin:round"
       id="path107"
       d="m 128.61154,590.35956 52.56694,-52.5669 52.56692,52.5669 -52.56692,52.56696 z" />
    <path
       style="fill:#000000;fill-opacity:0;fill-rule:evenodd"
       id="path109"
       d="m 181.47244,642.4724 52.56693,-52.5669 52.56692,52.5669 -52.56692,52.56696 z" />
    <path
       style="fill-rule:evenodd;stroke:#000000;stroke-width:2;stroke-linecap:butt;stroke-linejoin:round"
       id="path111"
       d="m 181.47244,642.4724 52.56693,-52.5669 52.56692,52.5669 -52.56692,52.56696 z" />
    <path
       style="fill:#000000;fill-opacity:0;fill-rule:evenodd"
       id="path113"
       d="m 233.7454,590.35956 52.56694,-52.5669 52.56693,52.5669 -52.56693,52.56696 z" />
    <path
       style="fill-rule:evenodd;stroke:#000000;stroke-width:2;stroke-linecap:butt;stroke-linejoin:round"
       id="path115"
       d="m 233.7454,590.35956 52.56694,-52.5669 52.56693,52.5669 -52.56693,52.56696 z" />
    <path
       style="fill:#000000;fill-opacity:0;fill-rule:evenodd"
       id="path117"
       d="m 181.47244,537.33856 52.56693,-52.56689 52.56692,52.56689 -52.56692,52.56696 z" />
    <path
       style="fill-rule:evenodd;stroke:#000000;stroke-width:2;stroke-linecap:butt;stroke-linejoin:round"
       id="path119"
       d="m 181.47244,537.33856 52.56693,-52.56689 52.56692,52.56689 -52.56692,52.56696 z" />
    <path
       style="fill:#ffffff;fill-rule:evenodd"
       id="path121"
       d="m 342.9444,455.8479 v 0 c 0,-8.37561 6.96603,-15.16538 15.55908,-15.16538 v 0 c 4.1265,0 8.08402,1.59778 11.00189,4.44184 2.91791,2.84405 4.55716,6.70141 4.55716,10.72354 v 0 c 0,8.37558 -6.96603,15.16534 -15.55905,15.16534 v 0 c -8.59305,0 -15.55908,-6.78976 -15.55908,-15.16534 z" />
    <path
       style="fill-rule:evenodd;stroke:#000000;stroke-width:2;stroke-linecap:butt;stroke-linejoin:round"
       id="path123"
       d="m 342.9444,455.8479 v 0 c 0,-8.37561 6.96603,-15.16538 15.55908,-15.16538 v 0 c 4.1265,0 8.08402,1.59778 11.00189,4.44184 2.91791,2.84405 4.55716,6.70141 4.55716,10.72354 v 0 c 0,8.37558 -6.96603,15.16534 -15.55905,15.16534 v 0 c -8.59305,0 -15.55908,-6.78976 -15.55908,-15.16534 z" />
    <path
       style="fill:#ffffff;fill-rule:evenodd"
       id="path125"
       d="m 829.4068,419.04724 h 348.0001 v 347.9685 H 829.4068 Z" />
    <path
       style="fill:#000000;fill-opacity:0;fill-rule:evenodd"
       id="path127"
       d="m 840.48553,424.82306 h 336.91337 v 337.6693 H 840.48553 Z" />
    <path
       style="fill-rule:evenodd;stroke:#000000;stroke-width:2;stroke-linecap:butt;stroke-linejoin:round"
       id="path129"
       d="m 840.48553,424.82306 h 336.91337 v 337.6693 H 840.48553 Z" />
    <path
       style="fill:#ffffff;fill-rule:evenodd"
       id="path131"
       d="m 1118.1412,459.60117 v 0 c 0,-8.37558 6.9661,-15.16534 15.5591,-15.16534 v 0 c 4.1264,0 8.084,1.59777 11.0019,4.44183 2.9179,2.84405 4.5572,6.70142 4.5572,10.72351 v 0 c 0,8.37561 -6.9661,15.16534 -15.5591,15.16534 v 0 c -8.593,0 -15.5591,-6.78973 -15.5591,-15.16534 z" />
    <path
       style="fill-rule:evenodd;stroke:#000000;stroke-width:2;stroke-linecap:butt;stroke-linejoin:round"
       id="path133"
       d="m 1118.1412,459.60117 v 0 c 0,-8.37558 6.9661,-15.16534 15.5591,-15.16534 v 0 c 4.1264,0 8.084,1.59777 11.0019,4.44183 2.9179,2.84405 4.5572,6.70142 4.5572,10.72351 v 0 c 0,8.37561 -6.9661,15.16534 -15.5591,15.16534 v 0 c -8.593,0 -15.5591,-6.78973 -15.5591,-15.16534 z" />
    <path
       style="fill:#000000;fill-opacity:0;fill-rule:evenodd"
       id="path135"
       d="m 882.43304,480.79266 h 29.1654 v 225.7323 h -29.1654 z" />
    <path
       style="fill-rule:evenodd;stroke:#000000;stroke-width:2;stroke-linecap:butt;stroke-linejoin:round"
       id="path137"
       d="m 882.43304,480.79266 h 29.1654 v 225.7323 h -29.1654 z" />
    <path
       style="fill:#000000;fill-opacity:0;fill-rule:evenodd"
       id="path139"
       d="m 1092.9763,525.6352 h 29.1654 v 178.20471 h -29.1654 z" />
    <path
       style="fill-rule:evenodd;stroke:#000000;stroke-width:2;stroke-linecap:butt;stroke-linejoin:round"
       id="path141"
       d="m 1092.9763,525.6352 h 29.1654 v 178.20471 h -29.1654 z" />
    <path
       style="fill:#000000;fill-opacity:0;fill-rule:evenodd"
       id="path143"
       d="m 897.0131,513.10205 c 10.84711,-2.32684 19.52801,12.0625 30.56696,13.16534 24.49322,2.44709 49.25921,-2.85345 73.83194,-1.40942 11.6878,0.68683 20.1348,12.745 31.5092,15.51965 25.0114,6.10132 50.6969,9.06037 76.1838,12.69556" />
    <path
       style="fill-rule:evenodd;stroke:#000000;stroke-width:2;stroke-linecap:butt;stroke-linejoin:round"
       id="path145"
       d="m 897.0131,513.10205 c 10.84711,-2.32684 19.52801,12.0625 30.56696,13.16534 24.49322,2.44709 49.25921,-2.85345 73.83194,-1.40942 11.6878,0.68683 20.1348,12.745 31.5092,15.51965 25.0114,6.10132 50.6969,9.06037 76.1838,12.69556" />
    <path
       style="fill:#000000;fill-opacity:0;fill-rule:evenodd"
       id="path147"
       d="m 900.7743,549.31165 c 24.46918,-11.12347 52.59796,13.95001 79.47504,13.63782 23.98266,-0.27857 49.30706,-7.90027 71.95286,0 18.9275,6.60315 43.6676,30.63415 57.8425,16.45929" />
    <path
       style="fill-rule:evenodd;stroke:#000000;stroke-width:2;stroke-linecap:butt;stroke-linejoin:round"
       id="path149"
       d="m 900.7743,549.31165 c 24.46918,-11.12347 52.59796,13.95001 79.47504,13.63782 23.98266,-0.27857 49.30706,-7.90027 71.95286,0 18.9275,6.60315 43.6676,30.63415 57.8425,16.45929" />
    <path
       style="fill:#000000;fill-opacity:0;fill-rule:evenodd"
       id="path151"
       d="m 897.4829,582.23114 c 13.5943,-1.78241 28.33264,-9.68384 40.91339,-4.23358 8.54523,3.70196 7.23016,21.3305 16.45935,22.57483 30.32599,4.08856 61.21616,-1.60498 91.70346,-4.23358 21.8703,-1.88568 43.4159,7.99475 65.3674,7.99475" />
    <path
       style="fill-rule:evenodd;stroke:#000000;stroke-width:2;stroke-linecap:butt;stroke-linejoin:round"
       id="path153"
       d="m 897.4829,582.23114 c 13.5943,-1.78241 28.33264,-9.68384 40.91339,-4.23358 8.54523,3.70196 7.23016,21.3305 16.45935,22.57483 30.32599,4.08856 61.21616,-1.60498 91.70346,-4.23358 21.8703,-1.88568 43.4159,7.99475 65.3674,7.99475" />
    <path
       style="fill:#000000;fill-opacity:0;fill-rule:evenodd"
       id="path155"
       d="m 896.5407,609.50684 c 14.41009,-0.97375 29.28052,-5.96173 43.26508,-2.35168 11.1842,2.88714 21.44329,9.5205 32.92126,10.81628 22.41309,2.53021 45.28646,2.3772 67.24666,7.5249 11.8427,2.77606 21.6269,5.82349 29.1575,6.11286 13.7923,0.52996 29.0403,-7.58667 41.3832,-1.40943" />
    <path
       style="fill-rule:evenodd;stroke:#000000;stroke-width:2;stroke-linecap:butt;stroke-linejoin:round"
       id="path157"
       d="m 896.5407,609.50684 c 14.41009,-0.97375 29.28052,-5.96173 43.26508,-2.35168 11.1842,2.88714 21.44329,9.5205 32.92126,10.81628 22.41309,2.53021 45.28646,2.3772 67.24666,7.5249 11.8427,2.77606 21.6269,5.82349 29.1575,6.11286 13.7923,0.52996 29.0403,-7.58667 41.3832,-1.40943" />
    <path
       style="fill:#000000;fill-opacity:0;fill-rule:evenodd"
       id="path159"
       d="m 896.5407,681.4593 c 9.02869,12.40344 31.70154,12.57263 45.61676,6.11292 10.12317,-4.69941 17.9967,-16.45935 29.15747,-16.45935 9.07165,0 18.35089,1.4132 26.80579,4.7008 6.32168,2.45813 4.52398,16.40192 11.28608,16.93176 32.746,2.5658 66.4223,0.91828 98.2861,-7.05511" />
    <path
       style="fill-rule:evenodd;stroke:#000000;stroke-width:2;stroke-linecap:butt;stroke-linejoin:round"
       id="path161"
       d="m 896.5407,681.4593 c 9.02869,12.40344 31.70154,12.57263 45.61676,6.11292 10.12317,-4.69941 17.9967,-16.45935 29.15747,-16.45935 9.07165,0 18.35089,1.4132 26.80579,4.7008 6.32168,2.45813 4.52398,16.40192 11.28608,16.93176 32.746,2.5658 66.4223,0.91828 98.2861,-7.05511" />
    <path
       style="fill:#000000;fill-opacity:0;fill-rule:evenodd"
       id="path163"
       d="m 901.7139,646.66 c 46.12604,-8.5426 94.6983,5.85767 139.2021,20.69025 8.9125,2.97046 16.0248,-11.53241 25.3937,-12.22571 14.257,-1.05499 28.4992,2.82153 42.7953,2.82153" />
    <path
       style="fill-rule:evenodd;stroke:#000000;stroke-width:2;stroke-linecap:butt;stroke-linejoin:round"
       id="path165"
       d="m 901.7139,646.66 c 46.12604,-8.5426 94.6983,5.85767 139.2021,20.69025 8.9125,2.97046 16.0248,-11.53241 25.3937,-12.22571 14.257,-1.05499 28.4992,2.82153 42.7953,2.82153" />
  </g>
  <g
     id="text171"
     style="font-size:42px;font-family:sans-serif;text-anchor:middle;fill:#000000"
     aria-label="[MISSING: Manual/bigbutton.moduleicontext]">
    <path
       id="path181"
       style="fill:#ff0000"
       d="m 110.56641,216.08984 h 8.69531 v 2.93262 h -4.92188 v 31.58203 h 4.92188 v 2.93262 h -8.69531 z" />
    <path
       id="path183"
       style="fill:#ff0000"
       d="m 127.48535,217.38184 h 6.17285 l 7.81348,20.83593 7.85449,-20.83593 h 6.17285 V 248 h -4.04004 v -26.88574 l -7.8955,21 h -4.16309 l -7.89551,-21 V 248 h -4.01953 z" />
    <path
       id="path185"
       style="fill:#ff0000"
       d="m 163.74316,217.38184 h 4.14258 V 248 h -4.14258 z" />
    <path
       id="path187"
       style="fill:#ff0000"
       d="m 194.48438,218.38672 v 4.04004 q -2.3584,-1.12793 -4.4502,-1.68164 -2.0918,-0.55371 -4.04004,-0.55371 -3.38379,0 -5.22949,1.3125 -1.8252,1.3125 -1.8252,3.73242 0,2.03027 1.20996,3.07617 1.23047,1.02539 4.63477,1.66113 l 2.50195,0.5127 q 4.63477,0.88183 6.8291,3.11719 2.21485,2.21484 2.21485,5.94726 0,4.4502 -2.99414,6.74707 -2.97364,2.29688 -8.73633,2.29688 -2.17383,0 -4.63477,-0.49219 -2.44043,-0.49219 -5.06543,-1.45606 v -4.26562 q 2.52247,1.41504 4.94239,2.13281 2.41992,0.71778 4.75781,0.71778 3.54785,0 5.47559,-1.39454 1.92773,-1.39453 1.92773,-3.97851 0,-2.25586 -1.39453,-3.52735 -1.37402,-1.27148 -4.53223,-1.90722 l -2.52246,-0.49219 q -4.63476,-0.92285 -6.70605,-2.8916 -2.07129,-1.96875 -2.07129,-5.47559 0,-4.06054 2.85058,-6.39843 2.8711,-2.33789 7.89551,-2.33789 2.15332,0 4.38867,0.38964 2.23535,0.38965 4.57325,1.16895 z" />
    <path
       id="path189"
       style="fill:#ff0000"
       d="m 221.14453,218.38672 v 4.04004 q -2.3584,-1.12793 -4.45019,-1.68164 -2.0918,-0.55371 -4.04004,-0.55371 -3.38379,0 -5.2295,1.3125 -1.82519,1.3125 -1.82519,3.73242 0,2.03027 1.20996,3.07617 1.23047,1.02539 4.63477,1.66113 l 2.50195,0.5127 q 4.63476,0.88183 6.8291,3.11719 2.21484,2.21484 2.21484,5.94726 0,4.4502 -2.99414,6.74707 -2.97363,2.29688 -8.73632,2.29688 -2.17383,0 -4.63477,-0.49219 -2.44043,-0.49219 -5.06543,-1.45606 v -4.26562 q 2.52246,1.41504 4.94238,2.13281 2.41993,0.71778 4.75782,0.71778 3.54785,0 5.47558,-1.39454 1.92774,-1.39453 1.92774,-3.97851 0,-2.25586 -1.39454,-3.52735 -1.37402,-1.27148 -4.53222,-1.90722 l -2.52246,-0.49219 q -4.63477,-0.92285 -6.70606,-2.8916 -2.07129,-1.96875 -2.07129,-5.47559 0,-4.06054 2.85059,-6.39843 2.87109,-2.33789 7.89551,-2.33789 2.15332,0 4.38867,0.38964 2.23535,0.38965 4.57324,1.16895 z" />
    <path
       id="path191"
       style="fill:#ff0000"
       d="m 229.4502,217.38184 h 4.14257 V 248 h -4.14257 z" />
    <path
       id="path193"
       style="fill:#ff0000"
       d="m 241.83691,217.38184 h 5.57813 l 13.57617,25.61425 v -25.61425 h 4.01953 V 248 h -5.57812 L 245.85645,222.38574 V 248 h -4.01954 z" />
    <path
       id="path195"
       style="fill:#ff0000"
       d="m 294.13184,243.63184 v -8.22364 h -6.76758 v -3.40429 h 10.86914 v 13.1455 q -2.39942,1.70215 -5.29102,2.58399 -2.8916,0.86133 -6.17285,0.86133 -7.17773,0 -11.23828,-4.1836 -4.04004,-4.2041 -4.04004,-11.68945 0,-7.50586 4.04004,-11.68945 4.06055,-4.2041 11.23828,-4.2041 2.99414,0 5.68067,0.73828 2.70703,0.73828 4.98339,2.17382 v 4.40918 q -2.29687,-1.94824 -4.88086,-2.93261 -2.58398,-0.98438 -5.43457,-0.98438 -5.61914,0 -8.44921,3.1377 -2.80957,3.13769 -2.80957,9.35156 0,6.19336 2.80957,9.33105 2.83007,3.1377 8.44921,3.1377 2.19434,0 3.917,-0.36914 1.72265,-0.38965 3.09668,-1.18945 z" />
    <path
       id="path197"
       style="fill:#ff0000"
       d="m 306.62109,242.79102 h 4.32715 V 248 h -4.32715 z m 0,-16.50879 h 4.32715 v 5.20898 h -4.32715 z" />
    <path
       id="path199"
       style="fill:#ff0000"
       d="m 333.38379,217.38184 h 6.17285 l 7.81348,20.83593 7.85449,-20.83593 h 6.17285 V 248 h -4.04004 v -26.88574 l -7.89551,21 h -4.16308 l -7.89551,-21 V 248 h -4.01953 z" />
    <path
       id="path201"
       style="fill:#ff0000"
       d="m 379.91602,236.4541 q -4.57325,0 -6.33692,1.0459 -1.76367,1.0459 -1.76367,3.56836 0,2.00977 1.3125,3.19922 1.33301,1.16894 3.60937,1.16894 3.1377,0 5.02442,-2.21484 1.90723,-2.23535 1.90723,-5.92676 v -0.84082 z m 7.52636,-1.55859 V 248 h -3.77343 v -3.48633 q -1.292,2.0918 -3.21973,3.09668 -1.92774,0.98438 -4.7168,0.98438 -3.52734,0 -5.61914,-1.96875 -2.07129,-1.98926 -2.07129,-5.31153 0,-3.87597 2.58399,-5.84472 2.60449,-1.96875 7.75195,-1.96875 h 5.29102 v -0.36914 q 0,-2.6045 -1.72266,-4.01954 -1.70215,-1.43554 -4.79883,-1.43554 -1.96875,0 -3.83496,0.47168 -1.86621,0.47168 -3.58887,1.41504 v -3.48633 q 2.07129,-0.79981 4.01953,-1.18945 1.94825,-0.41016 3.79395,-0.41016 4.9834,0 7.44434,2.58398 2.46093,2.58399 2.46093,7.83399 z" />
    <path
       id="path203"
       style="fill:#ff0000"
       d="M 414.32813,234.13672 V 248 h -3.77344 v -13.74023 q 0,-3.26075 -1.27149,-4.88086 -1.27148,-1.62012 -3.81445,-1.62012 -3.05566,0 -4.81934,1.94824 -1.76367,1.94824 -1.76367,5.31152 V 248 h -3.79394 v -22.96875 h 3.79394 v 3.56836 q 1.35352,-2.07129 3.17871,-3.09668 1.84571,-1.02539 4.24512,-1.02539 3.95801,0 5.98828,2.46094 2.03028,2.44043 2.03028,7.19824 z" />
    <path
       id="path205"
       style="fill:#ff0000"
       d="m 421.50586,238.93555 v -13.9043 h 3.77344 v 13.76074 q 0,3.26074 1.27148,4.90137 1.27149,1.62012 3.81445,1.62012 3.05567,0 4.81934,-1.94825 1.78418,-1.94824 1.78418,-5.31152 v -13.02246 h 3.77344 V 248 h -3.77344 v -3.52734 q -1.37402,2.09179 -3.19922,3.11718 -1.80469,1.00489 -4.2041,1.00489 -3.95801,0 -6.00879,-2.46094 -2.05078,-2.46094 -2.05078,-7.19824 z m 9.49512,-14.45801 z" />
    <path
       id="path207"
       style="fill:#ff0000"
       d="m 458.99414,236.4541 q -4.57324,0 -6.33691,1.0459 -1.76368,1.0459 -1.76368,3.56836 0,2.00977 1.3125,3.19922 1.33301,1.16894 3.60938,1.16894 3.1377,0 5.02441,-2.21484 1.90723,-2.23535 1.90723,-5.92676 v -0.84082 z m 7.52637,-1.55859 V 248 h -3.77344 v -3.48633 q -1.29199,2.0918 -3.21973,3.09668 -1.92773,0.98438 -4.71679,0.98438 -3.52735,0 -5.61914,-1.96875 -2.07129,-1.98926 -2.07129,-5.31153 0,-3.87597 2.58398,-5.84472 2.60449,-1.96875 7.75195,-1.96875 h 5.29102 v -0.36914 q 0,-2.6045 -1.72266,-4.01954 -1.70214,-1.43554 -4.79882,-1.43554 -1.96875,0 -3.83496,0.47168 -1.86622,0.47168 -3.58887,1.41504 v -3.48633 q 2.07129,-0.79981 4.01953,-1.18945 1.94824,-0.41016 3.79394,-0.41016 4.9834,0 7.44434,2.58398 2.46094,2.58399 2.46094,7.83399 z" />
    <path
       id="path209"
       style="fill:#ff0000"
       d="m 474.31348,216.08984 h 3.77343 V 248 h -3.77343 z" />
    <path
       id="path211"
       style="fill:#ff0000"
       d="m 492.66797,217.38184 h 3.48633 l -10.66407,34.51464 h -3.48632 z" />
    <path
       id="path213"
       style="fill:#ff0000"
       d="m 516.6416,236.53613 q 0,-4.16308 -1.72265,-6.52148 -1.70215,-2.37891 -4.69629,-2.37891 -2.99414,0 -4.7168,2.37891 -1.70215,2.3584 -1.70215,6.52148 0,4.16309 1.70215,6.542 1.72266,2.35839 4.7168,2.35839 2.99414,0 4.69629,-2.35839 1.72265,-2.37891 1.72265,-6.542 z m -12.83789,-8.01855 q 1.18945,-2.05078 2.99414,-3.03516 1.8252,-1.00488 4.34766,-1.00488 4.18359,0 6.78808,3.32226 2.625,3.32227 2.625,8.73633 0,5.41407 -2.625,8.73633 -2.60449,3.32227 -6.78808,3.32227 -2.52246,0 -4.34766,-0.98438 -1.80469,-1.00488 -2.99414,-3.05566 V 248 h -3.79394 v -31.91016 h 3.79394 z" />
    <path
       id="path215"
       style="fill:#ff0000"
       d="m 526.81348,225.03125 h 3.77343 V 248 h -3.77343 z m 0,-8.94141 h 3.77343 v 4.77832 h -3.77343 z" />
    <path
       id="path217"
       style="fill:#ff0000"
       d="m 553.57617,236.24902 q 0,-4.10156 -1.70215,-6.35742 -1.68164,-2.25586 -4.7373,-2.25586 -3.03516,0 -4.73731,2.25586 -1.68164,2.25586 -1.68164,6.35742 0,4.08106 1.68164,6.33692 1.70215,2.25586 4.73731,2.25586 3.05566,0 4.7373,-2.25586 1.70215,-2.25586 1.70215,-6.33692 z m 3.77344,8.90039 q 0,5.86524 -2.60449,8.71582 -2.6045,2.8711 -7.97754,2.8711 -1.98926,0 -3.75293,-0.30762 -1.76367,-0.28711 -3.42481,-0.90234 v -3.6709 q 1.66114,0.90234 3.28125,1.33301 1.62012,0.43066 3.30176,0.43066 3.71192,0 5.55762,-1.94824 1.8457,-1.92774 1.8457,-5.84473 v -1.86621 q -1.16894,2.03027 -2.99414,3.03516 Q 548.75684,248 546.21387,248 q -4.22461,0 -6.8086,-3.21973 -2.58398,-3.21972 -2.58398,-8.53125 0,-5.33203 2.58398,-8.55175 2.58399,-3.21973 6.8086,-3.21973 2.54297,0 4.36816,1.00488 1.8252,1.00488 2.99414,3.03516 v -3.48633 h 3.77344 z" />
    <path
       id="path219"
       style="fill:#ff0000"
       d="m 581.61035,236.53613 q 0,-4.16308 -1.72265,-6.52148 -1.70215,-2.37891 -4.69629,-2.37891 -2.99414,0 -4.7168,2.37891 -1.70215,2.3584 -1.70215,6.52148 0,4.16309 1.70215,6.542 1.72266,2.35839 4.7168,2.35839 2.99414,0 4.69629,-2.35839 1.72265,-2.37891 1.72265,-6.542 z m -12.83789,-8.01855 q 1.18945,-2.05078 2.99414,-3.03516 1.8252,-1.00488 4.34766,-1.00488 4.18359,0 6.78808,3.32226 2.625,3.32227 2.625,8.73633 0,5.41407 -2.625,8.73633 -2.60449,3.32227 -6.78808,3.32227 -2.52246,0 -4.34766,-0.98438 -1.80469,-1.00488 -2.99414,-3.05566 V 248 h -3.79394 v -31.91016 h 3.79394 z" />
    <path
       id="path221"
       style="fill:#ff0000"
       d="m 591.39258,238.93555 v -13.9043 h 3.77344 v 13.76074 q 0,3.26074 1.27148,4.90137 1.27148,1.62012 3.81445,1.62012 3.05567,0 4.81934,-1.94825 1.78418,-1.94824 1.78418,-5.31152 v -13.02246 h 3.77344 V 248 h -3.77344 v -3.52734 q -1.37402,2.09179 -3.19922,3.11718 -1.80469,1.00489 -4.2041,1.00489 -3.95801,0 -6.00879,-2.46094 -2.05078,-2.46094 -2.05078,-7.19824 z m 9.49512,-14.45801 z" />
    <path
       id="path223"
       style="fill:#ff0000"
       d="m 622.1748,218.50977 v 6.52148 h 7.77247 v 2.93262 h -7.77247 v 12.46875 q 0,2.80957 0.75879,3.60937 0.7793,0.79981 3.1377,0.79981 h 3.87598 V 248 h -3.87598 q -4.36817,0 -6.0293,-1.62012 -1.66113,-1.64062 -1.66113,-5.94726 v -12.46875 h -2.76856 v -2.93262 h 2.76856 v -6.52148 z" />
    <path
       id="path225"
       style="fill:#ff0000"
       d="m 638.66309,218.50977 v 6.52148 h 7.77246 v 2.93262 h -7.77246 v 12.46875 q 0,2.80957 0.75878,3.60937 0.7793,0.79981 3.1377,0.79981 h 3.87598 V 248 h -3.87598 q -4.36816,0 -6.0293,-1.62012 -1.66113,-1.64062 -1.66113,-5.94726 v -12.46875 h -2.76855 v -2.93262 h 2.76855 v -6.52148 z" />
    <path
       id="path227"
       style="fill:#ff0000"
       d="m 660.31934,227.67676 q -3.03516,0 -4.79883,2.3789 -1.76367,2.3584 -1.76367,6.48047 0,4.12207 1.74316,6.50098 1.76367,2.3584 4.81934,2.3584 3.01464,0 4.77832,-2.37891 1.76367,-2.3789 1.76367,-6.48047 0,-4.08105 -1.76367,-6.45996 -1.76368,-2.39941 -4.77832,-2.39941 z m 0,-3.19922 q 4.92187,0 7.73144,3.19922 2.80957,3.19922 2.80957,8.85937 0,5.63965 -2.80957,8.85938 -2.80957,3.19922 -7.73144,3.19922 -4.94239,0 -7.75196,-3.19922 -2.78906,-3.21973 -2.78906,-8.85938 0,-5.66015 2.78906,-8.85937 2.80957,-3.19922 7.75196,-3.19922 z" />
    <path
       id="path229"
       style="fill:#ff0000"
       d="M 696.1875,234.13672 V 248 h -3.77344 v -13.74023 q 0,-3.26075 -1.27148,-4.88086 -1.27149,-1.62012 -3.81446,-1.62012 -3.05566,0 -4.81933,1.94824 -1.76367,1.94824 -1.76367,5.31152 V 248 h -3.79395 v -22.96875 h 3.79395 v 3.56836 q 1.35351,-2.07129 3.17871,-3.09668 1.8457,-1.02539 4.24512,-1.02539 3.958,0 5.98828,2.46094 2.03027,2.44043 2.03027,7.19824 z" />
    <path
       id="path231"
       style="fill:#ff0000"
       d="m 704.28809,242.79102 h 4.32714 V 248 h -4.32714 z" />
    <path
       id="path233"
       style="fill:#ff0000"
       d="m 735.00879,229.44043 q 1.41504,-2.54297 3.38379,-3.75293 1.96875,-1.20996 4.63476,-1.20996 3.58887,0 5.53711,2.52246 1.94825,2.50195 1.94825,7.13672 V 248 h -3.79395 v -13.74023 q 0,-3.30176 -1.16895,-4.90137 -1.16894,-1.59961 -3.56835,-1.59961 -2.93262,0 -4.63477,1.94824 -1.70215,1.94824 -1.70215,5.31152 V 248 h -3.79394 v -13.74023 q 0,-3.32227 -1.16895,-4.90137 -1.16894,-1.59961 -3.60937,-1.59961 -2.89161,0 -4.59375,1.96875 -1.70215,1.94824 -1.70215,5.29101 V 248 h -3.79395 v -22.96875 h 3.79395 v 3.56836 q 1.29199,-2.11231 3.09668,-3.11719 1.80468,-1.00488 4.28613,-1.00488 2.50195,0 4.24512,1.27148 1.76367,1.27149 2.60449,3.69141 z" />
    <path
       id="path235"
       style="fill:#ff0000"
       d="m 766.95996,227.67676 q -3.03516,0 -4.79883,2.3789 -1.76367,2.3584 -1.76367,6.48047 0,4.12207 1.74316,6.50098 1.76368,2.3584 4.81934,2.3584 3.01465,0 4.77832,-2.37891 1.76367,-2.3789 1.76367,-6.48047 0,-4.08105 -1.76367,-6.45996 -1.76367,-2.39941 -4.77832,-2.39941 z m 0,-3.19922 q 4.92188,0 7.73145,3.19922 2.80957,3.19922 2.80957,8.85937 0,5.63965 -2.80957,8.85938 -2.80957,3.19922 -7.73145,3.19922 -4.94238,0 -7.75195,-3.19922 -2.78906,-3.21973 -2.78906,-8.85938 0,-5.66015 2.78906,-8.85937 2.80957,-3.19922 7.75195,-3.19922 z" />
    <path
       id="path237"
       style="fill:#ff0000"
       d="m 798.84961,228.51758 v -12.42774 h 3.77344 V 248 h -3.77344 v -3.44531 q -1.18945,2.05078 -3.01465,3.05566 -1.80469,0.98438 -4.34766,0.98438 -4.16308,0 -6.78808,-3.32227 -2.60449,-3.32226 -2.60449,-8.73633 0,-5.41406 2.60449,-8.73633 2.625,-3.32226 6.78808,-3.32226 2.54297,0 4.34766,1.00488 1.8252,0.98438 3.01465,3.03516 z m -12.8584,8.01855 q 0,4.16309 1.70215,6.542 1.72266,2.35839 4.7168,2.35839 2.99414,0 4.71679,-2.35839 1.72266,-2.37891 1.72266,-6.542 0,-4.16308 -1.72266,-6.52148 -1.72265,-2.37891 -4.71679,-2.37891 -2.99414,0 -4.7168,2.37891 -1.70215,2.3584 -1.70215,6.52148 z" />
    <path
       id="path239"
       style="fill:#ff0000"
       d="m 810.00586,238.93555 v -13.9043 h 3.77344 v 13.76074 q 0,3.26074 1.27148,4.90137 1.27149,1.62012 3.81445,1.62012 3.05567,0 4.81934,-1.94825 1.78418,-1.94824 1.78418,-5.31152 v -13.02246 h 3.77344 V 248 h -3.77344 v -3.52734 q -1.37402,2.09179 -3.19922,3.11718 -1.80469,1.00489 -4.2041,1.00489 -3.95801,0 -6.00879,-2.46094 -2.05078,-2.46094 -2.05078,-7.19824 z m 9.49512,-14.45801 z" />
    <path
       id="path241"
       style="fill:#ff0000"
       d="m 837.05566,216.08984 h 3.77344 V 248 h -3.77344 z" />
    <path
       id="path243"
       style="fill:#ff0000"
       d="m 868.35059,235.57227 v 1.8457 h -17.34961 q 0.24609,3.89648 2.33789,5.94726 2.1123,2.03028 5.86523,2.03028 2.17383,0 4.2041,-0.53321 2.05078,-0.5332 4.06055,-1.5996 v 3.56835 q -2.03027,0.86133 -4.16309,1.3125 -2.13281,0.45118 -4.32714,0.45118 -5.4961,0 -8.71582,-3.19922 -3.19922,-3.19922 -3.19922,-8.6543 0,-5.63965 3.03515,-8.94141 3.05567,-3.32226 8.22364,-3.32226 4.63476,0 7.32128,2.99414 2.70704,2.97363 2.70704,8.10059 z m -3.77344,-1.10743 q -0.041,-3.09668 -1.74317,-4.94238 -1.68164,-1.8457 -4.4707,-1.8457 -3.1582,0 -5.06543,1.78418 -1.88672,1.78418 -2.17383,5.02441 z" />
    <path
       id="path245"
       style="fill:#ff0000"
       d="m 874.54395,225.03125 h 3.77343 V 248 h -3.77343 z m 0,-8.94141 h 3.77343 v 4.77832 h -3.77343 z" />
    <path
       id="path247"
       style="fill:#ff0000"
       d="m 902.72168,225.91309 v 3.52734 q -1.59961,-0.88184 -3.21973,-1.3125 -1.59961,-0.45117 -3.24023,-0.45117 -3.6709,0 -5.70117,2.33789 -2.03028,2.31738 -2.03028,6.52148 0,4.2041 2.03028,6.542 2.03027,2.31738 5.70117,2.31738 1.64062,0 3.24023,-0.43067 1.62012,-0.45117 3.21973,-1.333 v 3.48632 q -1.5791,0.73829 -3.28125,1.10743 -1.68164,0.36914 -3.58887,0.36914 -5.18847,0 -8.24414,-3.26075 -3.05566,-3.26074 -3.05566,-8.79785 0,-5.61914 3.07617,-8.83886 3.09668,-3.21973 8.46973,-3.21973 1.74316,0 3.40429,0.36914 1.66114,0.34863 3.21973,1.06641 z" />
    <path
       id="path249"
       style="fill:#ff0000"
       d="m 918.22559,227.67676 q -3.03516,0 -4.79883,2.3789 -1.76367,2.3584 -1.76367,6.48047 0,4.12207 1.74316,6.50098 1.76367,2.3584 4.81934,2.3584 3.01464,0 4.77832,-2.37891 1.76367,-2.3789 1.76367,-6.48047 0,-4.08105 -1.76367,-6.45996 -1.76368,-2.39941 -4.77832,-2.39941 z m 0,-3.19922 q 4.92187,0 7.73144,3.19922 2.80957,3.19922 2.80957,8.85937 0,5.63965 -2.80957,8.85938 -2.80957,3.19922 -7.73144,3.19922 -4.94239,0 -7.75196,-3.19922 -2.78906,-3.21973 -2.78906,-8.85938 0,-5.66015 2.78906,-8.85937 2.80957,-3.19922 7.75196,-3.19922 z" />
    <path
       id="path251"
       style="fill:#ff0000"
       d="M 954.09375,234.13672 V 248 h -3.77344 v -13.74023 q 0,-3.26075 -1.27148,-4.88086 -1.27149,-1.62012 -3.81446,-1.62012 -3.05566,0 -4.81933,1.94824 -1.76367,1.94824 -1.76367,5.31152 V 248 h -3.79395 v -22.96875 h 3.79395 v 3.56836 q 1.35351,-2.07129 3.17871,-3.09668 1.8457,-1.02539 4.24512,-1.02539 3.958,0 5.98828,2.46094 2.03027,2.44043 2.03027,7.19824 z" />
    <path
       id="path253"
       style="fill:#ff0000"
       d="m 965.39355,218.50977 v 6.52148 h 7.77247 v 2.93262 h -7.77247 v 12.46875 q 0,2.80957 0.75879,3.60937 0.7793,0.79981 3.1377,0.79981 h 3.87598 V 248 h -3.87598 q -4.36817,0 -6.0293,-1.62012 -1.66113,-1.64062 -1.66113,-5.94726 v -12.46875 h -2.76856 v -2.93262 h 2.76856 v -6.52148 z" />
    <path
       id="path255"
       style="fill:#ff0000"
       d="m 997.7959,235.57227 v 1.8457 h -17.34961 q 0.24609,3.89648 2.33789,5.94726 2.1123,2.03028 5.86523,2.03028 2.17383,0 4.20411,-0.53321 2.05078,-0.5332 4.06054,-1.5996 v 3.56835 q -2.03027,0.86133 -4.16308,1.3125 -2.13282,0.45118 -4.32715,0.45118 -5.4961,0 -8.71582,-3.19922 -3.19922,-3.19922 -3.19922,-8.6543 0,-5.63965 3.03516,-8.94141 3.05566,-3.32226 8.22363,-3.32226 4.63476,0 7.32129,2.99414 2.70703,2.97363 2.70703,8.10059 z m -3.77344,-1.10743 q -0.041,-3.09668 -1.74316,-4.94238 -1.68164,-1.8457 -4.47071,-1.8457 -3.1582,0 -5.06543,1.78418 -1.88671,1.78418 -2.17382,5.02441 z" />
    <path
       id="path257"
       style="fill:#ff0000"
       d="m 1022.3437,225.03125 -8.3056,11.17676 8.7363,11.79199 h -4.4502 l -6.6855,-9.02344 -6.6856,9.02344 h -4.4502 l 8.9209,-12.01758 -8.1621,-10.95117 h 4.4502 l 6.0908,8.18262 6.0909,-8.18262 z" />
    <path
       id="path259"
       style="fill:#ff0000"
       d="m 1031.8389,218.50977 v 6.52148 h 7.7724 v 2.93262 h -7.7724 v 12.46875 q 0,2.80957 0.7588,3.60937 0.7793,0.79981 3.1377,0.79981 h 3.8759 V 248 h -3.8759 q -4.3682,0 -6.0293,-1.62012 -1.6612,-1.64062 -1.6612,-5.94726 v -12.46875 h -2.7685 v -2.93262 h 2.7685 v -6.52148 z" />
    <path
       id="path261"
       style="fill:#ff0000"
       d="m 1053.4131,216.08984 v 37.44727 h -8.6953 v -2.93262 h 4.9013 v -31.58203 h -4.9013 v -2.93262 z" />
  </g>
</svg>
