<?xml version="1.0" encoding="UTF-8" standalone="no"?>
<svg
   xmlns:dc="http://purl.org/dc/elements/1.1/"
   xmlns:cc="http://creativecommons.org/ns#"
   xmlns:rdf="http://www.w3.org/1999/02/22-rdf-syntax-ns#"
   xmlns:svg="http://www.w3.org/2000/svg"
   xmlns="http://www.w3.org/2000/svg"
   id="svg149"
   stroke-miterlimit="10"
   stroke-linecap="square"
   stroke="none"
   fill="none"
   viewBox="0.0 0.0 348.0 348.0"
   version="1.1">
  <metadata
     id="metadata155">
    <rdf:RDF>
      <cc:Work
         rdf:about="">
        <dc:format>image/svg+xml</dc:format>
        <dc:type
           rdf:resource="http://purl.org/dc/dcmitype/StillImage" />
      </cc:Work>
    </rdf:RDF>
  </metadata>
  <defs
     id="defs153" />
  <clipPath
     id="p.0">
    <path
       id="path2"
       clip-rule="nonzero"
       d="m0 0l348.0 0l0 348.0l-348.0 0l0 -348.0z" />
  </clipPath>
  <g
     id="g123"
     clip-path="url(#p.0)">
    <path
       style="fill:#000000;fill-opacity:0;fill-rule:nonzero"
       id="path5"
       d="M 0,0 H 348 V 348 H 0 Z" />
    <path
       style="fill:#ffffff;fill-rule:nonzero"
       id="path7"
       d="M -6,0 H 348.01575 V 347.9685 H -6 Z" />
    <path
       style="fill:#000000;fill-opacity:0;fill-rule:nonzero"
       id="path9"
       d="m 5.07874,5.7758217 h 336.9134 V 343.44512 H 5.07874 Z" />
    <path
       style="fill-rule:nonzero;stroke:#000000;stroke-width:2;stroke-linecap:butt;stroke-linejoin:round"
       id="path11"
       d="m 5.07874,5.7758217 h 336.9134 V 343.44512 H 5.07874 Z" />
    <path
       style="fill:#ffffff;fill-rule:nonzero"
       id="path13"
       d="m 282.73444,40.553925 v 0 c 0,-8.375591 6.96603,-15.165352 15.55905,-15.165352 v 0 c 4.12653,0 8.08402,1.597773 11.00192,4.441828 2.91788,2.844057 4.55713,6.701422 4.55713,10.723524 v 0 c 0,8.375595 -6.966,15.165356 -15.55905,15.165356 v 0 c -8.59302,0 -15.55905,-6.789761 -15.55905,-15.165356 z" />
    <path
       style="fill-rule:nonzero;stroke:#000000;stroke-width:2;stroke-linecap:butt;stroke-linejoin:round"
       id="path15"
       d="m 282.73444,40.553925 v 0 c 0,-8.375591 6.96603,-15.165352 15.55905,-15.165352 v 0 c 4.12653,0 8.08402,1.597773 11.00192,4.441828 2.91788,2.844057 4.55713,6.701422 4.55713,10.723524 v 0 c 0,8.375595 -6.966,15.165356 -15.55905,15.165356 v 0 c -8.59302,0 -15.55905,-6.789761 -15.55905,-15.165356 z" />
    <path
       style="fill:#000000;fill-opacity:0;fill-rule:nonzero"
       id="path17"
       d="m 110.60368,279.34647 h 97.92126 v 41.88974 h -97.92126 z" />
    <path
       style="fill-rule:nonzero;stroke:#000000;stroke-width:2;stroke-linecap:butt;stroke-linejoin:round"
       id="path19"
       d="m 110.60368,279.34647 h 97.92126 v 41.88974 h -97.92126 z" />
    <path
       style="fill-rule:nonzero;stroke:#000000;stroke-width:2;stroke-linecap:butt;stroke-linejoin:round"
       id="path21"
       d="m 50.50525,84.80578 v 0 c 0,-5.566338 4.512405,-10.078743 10.078739,-10.078743 v 0 c 2.67305,0 5.236614,1.061859 7.126751,2.951996 1.890129,1.890129 2.951988,4.453697 2.951988,7.126747 v 0 c 0,5.56633 -4.512405,10.078735 -10.078739,10.078735 v 0 c -5.566334,0 -10.078739,-4.512406 -10.078739,-10.078735 z" />
    <path
       style="fill:#000000;fill-rule:nonzero"
       id="path23"
       d="m 56.537144,88.511055 4.047245,-7.401573 4.047241,7.401573 z" />
    <path
       style="fill-rule:nonzero;stroke:#000000;stroke-width:2;stroke-linecap:butt;stroke-linejoin:round"
       id="path25"
       d="m 56.537144,88.511055 4.047245,-7.401573 4.047241,7.401573 z" />
    <path
       style="fill:#ffffff;fill-rule:nonzero"
       id="path27"
       d="m 99.99606,84.80578 v 0 c 0,-5.566338 4.51241,-10.078743 10.07874,-10.078743 v 0 c 2.67305,0 5.23661,1.061859 7.12674,2.951996 1.89014,1.890129 2.952,4.453697 2.952,7.126747 v 0 c 0,5.56633 -4.51241,10.078735 -10.07874,10.078735 v 0 c -5.56633,0 -10.07874,-4.512406 -10.07874,-10.078735 z" />
    <path
       style="fill-rule:nonzero;stroke:#000000;stroke-width:2;stroke-linecap:butt;stroke-linejoin:round"
       id="path29"
       d="m 99.99606,84.80578 v 0 c 0,-5.566338 4.51241,-10.078743 10.07874,-10.078743 v 0 c 2.67305,0 5.23661,1.061859 7.12674,2.951996 1.89014,1.890129 2.952,4.453697 2.952,7.126747 v 0 c 0,5.56633 -4.51241,10.078735 -10.07874,10.078735 v 0 c -5.56633,0 -10.07874,-4.512406 -10.07874,-10.078735 z" />
    <path
       style="fill:#000000;fill-rule:nonzero"
       id="path31"
       d="m 106.02796,88.511055 4.04724,-7.401573 4.04724,7.401573 z" />
    <path
       style="fill-rule:nonzero;stroke:#000000;stroke-width:2;stroke-linecap:butt;stroke-linejoin:round"
       id="path33"
       d="m 106.02796,88.511055 4.04724,-7.401573 4.04724,7.401573 z" />
    <path
       style="fill:#ffffff;fill-rule:nonzero"
       id="path35"
       d="m 149.48557,84.80578 v 0 c 0,-5.566338 4.51241,-10.078743 10.07873,-10.078743 v 0 c 2.67305,0 5.23662,1.061859 7.12676,2.951996 1.89012,1.890129 2.952,4.453697 2.952,7.126747 v 0 c 0,5.56633 -4.51241,10.078735 -10.07876,10.078735 v 0 c -5.56633,0 -10.07873,-4.512406 -10.07873,-10.078735 z" />
    <path
       style="fill-rule:nonzero;stroke:#000000;stroke-width:2;stroke-linecap:butt;stroke-linejoin:round"
       id="path37"
       d="m 149.48557,84.80578 v 0 c 0,-5.566338 4.51241,-10.078743 10.07873,-10.078743 v 0 c 2.67305,0 5.23662,1.061859 7.12676,2.951996 1.89012,1.890129 2.952,4.453697 2.952,7.126747 v 0 c 0,5.56633 -4.51241,10.078735 -10.07876,10.078735 v 0 c -5.56633,0 -10.07873,-4.512406 -10.07873,-10.078735 z" />
    <path
       style="fill:#000000;fill-rule:nonzero"
       id="path39"
       d="m 155.51746,88.511055 4.04724,-7.401573 4.04726,7.401573 z" />
    <path
       style="fill-rule:nonzero;stroke:#000000;stroke-width:2;stroke-linecap:butt;stroke-linejoin:round"
       id="path41"
       d="m 155.51746,88.511055 4.04724,-7.401573 4.04726,7.401573 z" />
    <path
       style="fill:#ffffff;fill-rule:nonzero"
       id="path43"
       d="m 198.89108,84.80578 v 0 c 0,-5.566338 4.51241,-10.078743 10.07873,-10.078743 v 0 c 2.67305,0 5.23662,1.061859 7.12674,2.951996 1.89014,1.890129 2.952,4.453697 2.952,7.126747 v 0 c 0,5.56633 -4.51241,10.078735 -10.07873,10.078735 v 0 c -5.56633,0 -10.07874,-4.512406 -10.07874,-10.078735 z" />
    <path
       style="fill-rule:nonzero;stroke:#000000;stroke-width:2;stroke-linecap:butt;stroke-linejoin:round"
       id="path45"
       d="m 198.89108,84.80578 v 0 c 0,-5.566338 4.51241,-10.078743 10.07873,-10.078743 v 0 c 2.67305,0 5.23662,1.061859 7.12674,2.951996 1.89014,1.890129 2.952,4.453697 2.952,7.126747 v 0 c 0,5.56633 -4.51241,10.078735 -10.07873,10.078735 v 0 c -5.56633,0 -10.07874,-4.512406 -10.07874,-10.078735 z" />
    <path
       style="fill:#000000;fill-rule:nonzero"
       id="path47"
       d="m 204.92297,88.511055 4.04724,-7.401573 4.04724,7.401573 z" />
    <path
       style="fill-rule:nonzero;stroke:#000000;stroke-width:2;stroke-linecap:butt;stroke-linejoin:round"
       id="path49"
       d="m 204.92297,88.511055 4.04724,-7.401573 4.04724,7.401573 z" />
    <path
       style="fill:#ffffff;fill-rule:nonzero"
       id="path51"
       d="m 248.46588,84.80578 v 0 c 0,-5.566338 4.51241,-10.078743 10.07874,-10.078743 v 0 c 2.67306,0 5.23663,1.061859 7.12673,2.951996 1.89014,1.890129 2.952,4.453697 2.952,7.126747 v 0 c 0,5.56633 -4.51239,10.078735 -10.07873,10.078735 v 0 c -5.56633,0 -10.07874,-4.512406 -10.07874,-10.078735 z" />
    <path
       style="fill-rule:nonzero;stroke:#000000;stroke-width:2;stroke-linecap:butt;stroke-linejoin:round"
       id="path53"
       d="m 248.46588,84.80578 v 0 c 0,-5.566338 4.51241,-10.078743 10.07874,-10.078743 v 0 c 2.67306,0 5.23663,1.061859 7.12673,2.951996 1.89014,1.890129 2.952,4.453697 2.952,7.126747 v 0 c 0,5.56633 -4.51239,10.078735 -10.07873,10.078735 v 0 c -5.56633,0 -10.07874,-4.512406 -10.07874,-10.078735 z" />
    <path
       style="fill:#000000;fill-rule:nonzero"
       id="path55"
       d="m 254.49777,88.511055 4.04724,-7.401573 4.04724,7.401573 z" />
    <path
       style="fill-rule:nonzero;stroke:#000000;stroke-width:2;stroke-linecap:butt;stroke-linejoin:round"
       id="path57"
       d="m 254.49777,88.511055 4.04724,-7.401573 4.04724,7.401573 z" />
    <path
       style="fill:#ffffff;fill-rule:nonzero"
       id="path59"
       d="m 50.503937,259.30185 v 0 c 0,5.56631 4.512405,10.07873 10.078739,10.07873 v 0 c 2.67305,0 5.236614,-1.06185 7.126751,-2.95199 1.890129,-1.89014 2.951988,-4.45371 2.951988,-7.12674 v 0 c 0,-5.56635 -4.512405,-10.07875 -10.078739,-10.07875 v 0 c -5.566334,0 -10.078739,4.5124 -10.078739,10.07875 z" />
    <path
       style="fill-rule:nonzero;stroke:#000000;stroke-width:2;stroke-linecap:butt;stroke-linejoin:round"
       id="path61"
       d="m 50.503937,259.30185 v 0 c 0,5.56631 4.512405,10.07873 10.078739,10.07873 v 0 c 2.67305,0 5.236614,-1.06185 7.126751,-2.95199 1.890129,-1.89014 2.951988,-4.45371 2.951988,-7.12674 v 0 c 0,-5.56635 -4.512405,-10.07875 -10.078739,-10.07875 v 0 c -5.566334,0 -10.078739,4.5124 -10.078739,10.07875 z" />
    <path
       style="fill:#000000;fill-rule:nonzero"
       id="path63"
       d="m 56.53583,255.59656 4.047245,7.40158 4.047241,-7.40158 z" />
    <path
       style="fill-rule:nonzero;stroke:#000000;stroke-width:2;stroke-linecap:butt;stroke-linejoin:round"
       id="path65"
       d="m 56.53583,255.59656 4.047245,7.40158 4.047241,-7.40158 z" />
    <path
       style="fill:#ffffff;fill-rule:nonzero"
       id="path67"
       d="m 99.99475,259.30185 v 0 c 0,5.56631 4.51241,10.07873 10.07874,10.07873 v 0 c 2.67305,0 5.23661,-1.06185 7.12674,-2.95199 1.89014,-1.89014 2.952,-4.45371 2.952,-7.12674 v 0 c 0,-5.56635 -4.51241,-10.07875 -10.07874,-10.07875 v 0 c -5.56633,0 -10.07874,4.5124 -10.07874,10.07875 z" />
    <path
       style="fill-rule:nonzero;stroke:#000000;stroke-width:2;stroke-linecap:butt;stroke-linejoin:round"
       id="path69"
       d="m 99.99475,259.30185 v 0 c 0,5.56631 4.51241,10.07873 10.07874,10.07873 v 0 c 2.67305,0 5.23661,-1.06185 7.12674,-2.95199 1.89014,-1.89014 2.952,-4.45371 2.952,-7.12674 v 0 c 0,-5.56635 -4.51241,-10.07875 -10.07874,-10.07875 v 0 c -5.56633,0 -10.07874,4.5124 -10.07874,10.07875 z" />
    <path
       style="fill:#000000;fill-rule:nonzero"
       id="path71"
       d="m 106.02665,255.59656 4.04724,7.40158 4.04724,-7.40158 z" />
    <path
       style="fill-rule:nonzero;stroke:#000000;stroke-width:2;stroke-linecap:butt;stroke-linejoin:round"
       id="path73"
       d="m 106.02665,255.59656 4.04724,7.40158 4.04724,-7.40158 z" />
    <path
       style="fill:#ffffff;fill-rule:nonzero"
       id="path75"
       d="m 149.48425,259.30185 v 0 c 0,5.56631 4.51241,10.07873 10.07873,10.07873 v 0 c 2.67305,0 5.23662,-1.06185 7.12676,-2.95199 1.89012,-1.89014 2.952,-4.45371 2.952,-7.12674 v 0 c 0,-5.56635 -4.51241,-10.07875 -10.07876,-10.07875 v 0 c -5.56633,0 -10.07873,4.5124 -10.07873,10.07875 z" />
    <path
       style="fill-rule:nonzero;stroke:#000000;stroke-width:2;stroke-linecap:butt;stroke-linejoin:round"
       id="path77"
       d="m 149.48425,259.30185 v 0 c 0,5.56631 4.51241,10.07873 10.07873,10.07873 v 0 c 2.67305,0 5.23662,-1.06185 7.12676,-2.95199 1.89012,-1.89014 2.952,-4.45371 2.952,-7.12674 v 0 c 0,-5.56635 -4.51241,-10.07875 -10.07876,-10.07875 v 0 c -5.56633,0 -10.07873,4.5124 -10.07873,10.07875 z" />
    <path
       style="fill:#000000;fill-rule:nonzero"
       id="path79"
       d="m 155.51614,255.59656 4.04724,7.40158 4.04726,-7.40158 z" />
    <path
       style="fill-rule:nonzero;stroke:#000000;stroke-width:2;stroke-linecap:butt;stroke-linejoin:round"
       id="path81"
       d="m 155.51614,255.59656 4.04724,7.40158 4.04726,-7.40158 z" />
    <path
       style="fill:#000000;fill-rule:nonzero"
       id="path83"
       d="M 29.517061,98.30446 H 289.61154 V 245.29659 H 29.517061 Z" />
    <path
       style="fill-rule:nonzero;stroke:#000000;stroke-width:2;stroke-linecap:butt;stroke-linejoin:round"
       id="path85"
       d="M 29.517061,98.30446 H 289.61154 V 245.29659 H 29.517061 Z" />
    <path
       style="fill:#ffffff;fill-rule:nonzero"
       id="path87"
       d="m 198.88977,259.30185 v 0 c 0,5.56631 4.51241,10.07873 10.07873,10.07873 v 0 c 2.67305,0 5.23662,-1.06185 7.12674,-2.95199 1.89014,-1.89014 2.952,-4.45371 2.952,-7.12674 v 0 c 0,-5.56635 -4.51241,-10.07875 -10.07873,-10.07875 v 0 c -5.56633,0 -10.07874,4.5124 -10.07874,10.07875 z" />
    <path
       style="fill-rule:nonzero;stroke:#000000;stroke-width:2;stroke-linecap:butt;stroke-linejoin:round"
       id="path89"
       d="m 198.88977,259.30185 v 0 c 0,5.56631 4.51241,10.07873 10.07873,10.07873 v 0 c 2.67305,0 5.23662,-1.06185 7.12674,-2.95199 1.89014,-1.89014 2.952,-4.45371 2.952,-7.12674 v 0 c 0,-5.56635 -4.51241,-10.07875 -10.07873,-10.07875 v 0 c -5.56633,0 -10.07874,4.5124 -10.07874,10.07875 z" />
    <path
       style="fill:#000000;fill-rule:nonzero"
       id="path91"
       d="m 204.92166,255.59656 4.04724,7.40158 4.04724,-7.40158 z" />
    <path
       style="fill-rule:nonzero;stroke:#000000;stroke-width:2;stroke-linecap:butt;stroke-linejoin:round"
       id="path93"
       d="m 204.92166,255.59656 4.04724,7.40158 4.04724,-7.40158 z" />
    <path
       style="fill:#ffffff;fill-rule:nonzero"
       id="path95"
       d="m 248.46457,259.30185 v 0 c 0,5.56631 4.51241,10.07873 10.07874,10.07873 v 0 c 2.67306,0 5.23663,-1.06185 7.12673,-2.95199 1.89014,-1.89014 2.952,-4.45371 2.952,-7.12674 v 0 c 0,-5.56635 -4.51239,-10.07875 -10.07873,-10.07875 v 0 c -5.56633,0 -10.07874,4.5124 -10.07874,10.07875 z" />
    <path
       style="fill-rule:nonzero;stroke:#000000;stroke-width:2;stroke-linecap:butt;stroke-linejoin:round"
       id="path97"
       d="m 248.46457,259.30185 v 0 c 0,5.56631 4.51241,10.07873 10.07874,10.07873 v 0 c 2.67306,0 5.23663,-1.06185 7.12673,-2.95199 1.89014,-1.89014 2.952,-4.45371 2.952,-7.12674 v 0 c 0,-5.56635 -4.51239,-10.07875 -10.07873,-10.07875 v 0 c -5.56633,0 -10.07874,4.5124 -10.07874,10.07875 z" />
    <path
       style="fill:#000000;fill-rule:nonzero"
       id="path99"
       d="m 254.49646,255.59656 4.04724,7.40158 4.04724,-7.40158 z" />
    <path
       style="fill-rule:nonzero;stroke:#000000;stroke-width:2;stroke-linecap:butt;stroke-linejoin:round"
       id="path101"
       d="m 254.49646,255.59656 4.04724,7.40158 4.04724,-7.40158 z" />
    <path
       style="fill:#ffffff;fill-rule:nonzero"
       id="path103"
       d="m 35.627296,105.07874 h 49.5748 v 132.56693 h -49.5748 z" />
    <path
       style="fill-rule:nonzero;stroke:#000000;stroke-width:1;stroke-linecap:butt;stroke-linejoin:round"
       id="path105"
       d="m 35.627296,105.07874 h 49.5748 v 132.56693 h -49.5748 z" />
    <path
       style="fill:#ffffff;fill-rule:nonzero"
       id="path107"
       d="m 85.20143,105.07874 h 49.5748 v 132.56693 h -49.5748 z" />
    <path
       style="fill-rule:nonzero;stroke:#000000;stroke-width:1;stroke-linecap:butt;stroke-linejoin:round"
       id="path109"
       d="m 85.20143,105.07874 h 49.5748 v 132.56693 h -49.5748 z" />
    <path
       style="fill:#ffffff;fill-rule:nonzero"
       id="path111"
       d="m 134.77818,105.07874 h 49.5748 v 132.56693 h -49.5748 z" />
    <path
       style="fill-rule:nonzero;stroke:#000000;stroke-width:1;stroke-linecap:butt;stroke-linejoin:round"
       id="path113"
       d="m 134.77818,105.07874 h 49.5748 v 132.56693 h -49.5748 z" />
    <path
       style="fill:#ffffff;fill-rule:nonzero"
       id="path115"
       d="m 184.35233,105.07874 h 49.5748 v 132.56693 h -49.5748 z" />
    <path
       style="fill-rule:nonzero;stroke:#000000;stroke-width:1;stroke-linecap:butt;stroke-linejoin:round"
       id="path117"
       d="m 184.35233,105.07874 h 49.5748 v 132.56693 h -49.5748 z" />
    <path
       style="fill:#ffffff;fill-rule:nonzero"
       id="path119"
       d="m 233.92645,105.07874 h 49.5748 v 132.56693 h -49.5748 z" />
    <path
       style="fill-rule:nonzero;stroke:#000000;stroke-width:1;stroke-linecap:butt;stroke-linejoin:round"
       id="path121"
       d="m 233.92645,105.07874 h 49.5748 v 132.56693 h -49.5748 z" />
  </g>
  <g
     id="text127"
     style="font-size:20px;font-family:'DejaVu Sans', sans-serif;text-anchor:middle;fill:#000000"
     aria-label="SUBMIT">
    <path
       id="path157"
       style=""
       d="m 131.48047,292.89844 v 1.92383 q -1.12305,-0.53711 -2.11914,-0.80079 -0.9961,-0.26367 -1.92383,-0.26367 -1.61133,0 -2.49023,0.625 -0.86915,0.625 -0.86915,1.77735 0,0.96679 0.57618,1.46484 0.58593,0.48828 2.20703,0.79102 l 1.1914,0.24414 q 2.20704,0.41992 3.25196,1.48437 1.05469,1.05469 1.05469,2.83203 0,2.11914 -1.42579,3.21289 -1.41601,1.09375 -4.16015,1.09375 -1.03516,0 -2.20703,-0.23437 -1.16211,-0.23438 -2.41211,-0.69336 v -2.03125 q 1.20117,0.67383 2.35351,1.01562 1.15235,0.3418 2.26563,0.3418 1.68945,0 2.60742,-0.66406 0.91797,-0.66406 0.91797,-1.89453 0,-1.07422 -0.66406,-1.67969 -0.6543,-0.60547 -2.15821,-0.9082 l -1.20117,-0.23438 q -2.20703,-0.43945 -3.19336,-1.37695 -0.98633,-0.9375 -0.98633,-2.60742 0,-1.9336 1.35742,-3.04688 1.36719,-1.11328 3.75977,-1.11328 1.02539,0 2.08984,0.18555 1.06446,0.18554 2.17774,0.55664 z" />
    <path
       id="path159"
       style=""
       d="m 135.21094,292.41992 h 1.98242 v 8.85742 q 0,2.34375 0.84961,3.37891 0.84961,1.02539 2.75391,1.02539 1.89453,0 2.74414,-1.02539 0.84961,-1.03516 0.84961,-3.37891 v -8.85742 h 1.98242 v 9.10156 q 0,2.85157 -1.41602,4.30665 -1.40625,1.45507 -4.16015,1.45507 -2.76368,0 -4.17969,-1.45507 -1.40625,-1.45508 -1.40625,-4.30665 z" />
    <path
       id="path161"
       style=""
       d="m 152.05664,300.03711 v 5.3418 h 3.16406 q 1.5918,0 2.35352,-0.6543 0.77148,-0.66406 0.77148,-2.02148 0,-1.36719 -0.77148,-2.01172 -0.76172,-0.6543 -2.35352,-0.6543 z m 0,-5.99609 v 4.39453 h 2.91992 q 1.44532,0 2.14844,-0.53711 0.71289,-0.54688 0.71289,-1.66016 0,-1.10351 -0.71289,-1.65039 -0.70312,-0.54687 -2.14844,-0.54687 z m -1.97266,-1.6211 h 5.03907 q 2.25586,0 3.47656,0.9375 1.2207,0.9375 1.2207,2.66602 0,1.33789 -0.625,2.1289 -0.625,0.79102 -1.83593,0.98633 1.45507,0.3125 2.25585,1.3086 0.81055,0.98632 0.81055,2.4707 0,1.95312 -1.32812,3.01758 Q 157.76953,307 155.31836,307 h -5.23438 z" />
    <path
       id="path163"
       style=""
       d="m 163.79492,292.41992 h 2.93946 l 3.7207,9.92188 3.74023,-9.92188 h 2.93946 V 307 h -1.92383 v -12.80273 l -3.75977,10 h -1.98242 l -3.75977,-10 V 307 h -1.91406 z" />
    <path
       id="path165"
       style=""
       d="m 181.06055,292.41992 h 1.97265 V 307 h -1.97265 z" />
    <path
       id="path167"
       style=""
       d="m 184.9375,292.41992 h 12.33398 v 1.66016 H 192.0957 V 307 h -1.98242 v -12.91992 h -5.17578 z" />
  </g>
  <g
     id="text131"
     style="font-size:42px;font-family:'DejaVu Sans', sans-serif;text-anchor:middle;fill:#000000"
     aria-label="A">
    <path
       id="path170"
       style=""
       d="m 60,159.46289 -5.619141,15.23731 h 11.258789 z m -2.337891,-4.08105 h 4.696289 L 74.027344,186 h -4.306641 l -2.789062,-7.85449 H 53.129883 L 50.34082,186 h -4.368164 z" />
  </g>
  <g
     id="text135"
     style="font-size:42px;font-family:'DejaVu Sans', sans-serif;text-anchor:middle;fill:#000000"
     aria-label="A">
    <path
       id="path173"
       style=""
       d="m 110,159.46289 -5.61914,15.23731 h 11.25879 z m -2.33789,-4.08105 h 4.69629 L 124.02734,186 h -4.30664 l -2.78906,-7.85449 H 103.12988 L 100.34082,186 h -4.368164 z" />
  </g>
  <g
     id="text139"
     style="font-size:42px;font-family:'DejaVu Sans', sans-serif;text-anchor:middle;fill:#000000"
     aria-label="A">
    <path
       id="path176"
       style=""
       d="m 159,159.46289 -5.61914,15.23731 h 11.25879 z m -2.33789,-4.08105 h 4.69629 L 173.02734,186 h -4.30664 l -2.78906,-7.85449 H 152.12988 L 149.34082,186 h -4.36816 z" />
  </g>
  <g
     id="text143"
     style="font-size:42px;font-family:'DejaVu Sans', sans-serif;text-anchor:middle;fill:#000000"
     aria-label="A">
    <path
       id="path179"
       style=""
       d="m 209,159.46289 -5.61914,15.23731 h 11.25879 z m -2.33789,-4.08105 h 4.69629 L 223.02734,186 h -4.30664 l -2.78906,-7.85449 H 202.12988 L 199.34082,186 h -4.36816 z" />
  </g>
  <g
     id="text147"
     style="font-size:42px;font-family:'DejaVu Sans', sans-serif;text-anchor:middle;fill:#000000"
     aria-label="A">
    <path
       id="path182"
       style=""
       d="m 258,159.46289 -5.61914,15.23731 h 11.25879 z m -2.33789,-4.08105 h 4.69629 L 272.02734,186 h -4.30664 l -2.78906,-7.85449 H 251.12988 L 248.34082,186 h -4.36816 z" />
  </g>
</svg>
