<?xml version="1.0" encoding="UTF-8" standalone="no"?>
<svg
   xmlns:dc="http://purl.org/dc/elements/1.1/"
   xmlns:cc="http://creativecommons.org/ns#"
   xmlns:rdf="http://www.w3.org/1999/02/22-rdf-syntax-ns#"
   xmlns:svg="http://www.w3.org/2000/svg"
   xmlns="http://www.w3.org/2000/svg"
   id="svg97"
   stroke-miterlimit="10"
   stroke-linecap="square"
   stroke="none"
   fill="none"
   viewBox="0.0 0.0 369.0 801.0"
   version="1.1">
  <metadata
     id="metadata103">
    <rdf:RDF>
      <cc:Work
         rdf:about="">
        <dc:format>image/svg+xml</dc:format>
        <dc:type
           rdf:resource="http://purl.org/dc/dcmitype/StillImage" />
      </cc:Work>
    </rdf:RDF>
  </metadata>
  <defs
     id="defs101" />
  <clipPath
     id="p.0">
    <path
       id="path2"
       clip-rule="nonzero"
       d="m0 0l369.0 0l0 801.0l-369.0 0l0 -801.0z" />
  </clipPath>
  <g
     id="g91"
     clip-path="url(#p.0)">
    <path
       style="fill:#000000;fill-opacity:0;fill-rule:nonzero"
       id="path5"
       d="M 0,0 H 369.1076 V 801.916 H 0 Z" />
    <path
       style="fill:#000000;fill-rule:nonzero"
       id="path7"
       d="m 248.5753,444.2651 h 101.4803 v 67.55905 H 248.5753 Z" />
    <path
       style="fill-rule:nonzero;stroke:#000000;stroke-width:2;stroke-linecap:butt;stroke-linejoin:round"
       id="path9"
       d="m 248.5753,444.2651 h 101.4803 v 67.55905 H 248.5753 Z" />
    <path
       style="fill:#ffffff;fill-rule:nonzero"
       id="path11"
       d="m 289.4047,109.25535 h 67.3071 v 208.0315 h -67.3071 z" />
    <path
       style="fill-rule:nonzero;stroke:#000000;stroke-width:2;stroke-linecap:butt;stroke-linejoin:round"
       id="path13"
       d="m 289.4047,109.25535 h 67.3071 v 208.0315 h -67.3071 z" />
    <path
       style="fill:#ffffff;fill-rule:nonzero"
       id="path15"
       d="M 5.589649,165.38321 H 53.306183 V 273.09973 H 5.589649 Z" />
    <path
       style="fill-rule:nonzero;stroke:#000000;stroke-width:2;stroke-linecap:butt;stroke-linejoin:round"
       id="path17"
       d="M 5.589649,165.38321 H 53.306183 V 273.09973 H 5.589649 Z" />
    <path
       style="fill:#ffffff;fill-rule:nonzero"
       id="path19"
       d="m 278.36172,66.32809 h 68.82806 v 0 c 9.01667,0 16.32611,7.042313 16.32611,15.729446 0,8.687134 -7.30944,15.729446 -16.32611,15.729446 h -68.82806 v 0 c -9.01666,0 -16.32614,-7.042313 -16.32614,-15.729446 0,-8.687134 7.30948,-15.729446 16.32614,-15.729446 z" />
    <path
       style="fill-rule:nonzero;stroke:#000000;stroke-width:2;stroke-linecap:butt;stroke-linejoin:round"
       id="path21"
       d="m 278.36172,66.32809 h 68.82806 v 0 c 9.01667,0 16.32611,7.042313 16.32611,15.729446 0,8.687134 -7.30944,15.729446 -16.32611,15.729446 h -68.82806 v 0 c -9.01666,0 -16.32614,-7.042313 -16.32614,-15.729446 0,-8.687134 7.30948,-15.729446 16.32614,-15.729446 z" />
    <path
       style="fill:#ffffff;fill-rule:nonzero"
       id="path23"
       d="m 12.574803,486.2047 h 67.30708 v 208.0315 h -67.30708 z" />
    <path
       style="fill-rule:nonzero;stroke:#000000;stroke-width:2;stroke-linecap:butt;stroke-linejoin:round"
       id="path25"
       d="m 12.574803,486.2047 h 67.30708 v 208.0315 h -67.30708 z" />
    <path
       style="fill:#ffffff;fill-rule:nonzero"
       id="path27"
       d="m 243.86876,46.650917 h 92.15749 V 384.32022 h -92.15749 z" />
    <path
       style="fill-rule:nonzero;stroke:#000000;stroke-width:2;stroke-linecap:butt;stroke-linejoin:round"
       id="path29"
       d="m 243.86876,46.650917 h 92.15749 V 384.32022 h -92.15749 z" />
    <path
       style="fill:#000000;fill-rule:nonzero"
       id="path31"
       d="M 22.658957,122.89764 H 101.74557 V 304.53543 H 22.658957 Z" />
    <path
       style="fill-rule:nonzero;stroke:#000000;stroke-width:2;stroke-linecap:butt;stroke-linejoin:round"
       id="path33"
       d="M 22.658957,122.89764 H 101.74557 V 304.53543 H 22.658957 Z" />
    <path
       style="fill:#ffffff;fill-rule:nonzero"
       id="path35"
       d="m 22.689058,66.32809 h 68.82809 v 0 c 9.016662,0 16.326122,7.042313 16.326122,15.729446 0,8.687134 -7.30946,15.729446 -16.326122,15.729446 h -68.82809 v 0 c -9.016665,0 -16.326115,-7.042313 -16.326115,-15.729446 0,-8.687134 7.309451,-15.729446 16.326115,-15.729446 z" />
    <path
       style="fill-rule:nonzero;stroke:#000000;stroke-width:2;stroke-linecap:butt;stroke-linejoin:round"
       id="path37"
       d="m 22.689058,66.32809 h 68.82809 v 0 c 9.016662,0 16.326122,7.042313 16.326122,15.729446 0,8.687134 -7.30946,15.729446 -16.326122,15.729446 h -68.82809 v 0 c -9.016665,0 -16.326115,-7.042313 -16.326115,-15.729446 0,-8.687134 7.309451,-15.729446 16.326115,-15.729446 z" />
    <path
       style="fill:#ffffff;fill-rule:nonzero"
       id="path39"
       d="m 22.689058,443.84253 h 68.82809 v 0 c 9.016662,0 16.326122,7.0423 16.326122,15.72943 0,8.68714 -7.30946,15.72946 -16.326122,15.72946 h -68.82809 v 0 c -9.016665,0 -16.326115,-7.04232 -16.326115,-15.72946 0,-8.68713 7.309451,-15.72943 16.326115,-15.72943 z" />
    <path
       style="fill-rule:nonzero;stroke:#000000;stroke-width:2;stroke-linecap:butt;stroke-linejoin:round"
       id="path41"
       d="m 22.689058,443.84253 h 68.82809 v 0 c 9.016662,0 16.326122,7.0423 16.326122,15.72943 0,8.68714 -7.30946,15.72946 -16.326122,15.72946 h -68.82809 v 0 c -9.016665,0 -16.326115,-7.04232 -16.326115,-15.72946 0,-8.68713 7.309451,-15.72943 16.326115,-15.72943 z" />
    <path
       style="fill:#ffffff;fill-rule:nonzero"
       id="path43"
       d="M 31.853674,46.650917 H 86.814306 V 384.32022 H 31.853674 Z" />
    <path
       style="fill-rule:nonzero;stroke:#000000;stroke-width:2;stroke-linecap:butt;stroke-linejoin:round"
       id="path45"
       d="M 31.853674,46.650917 H 86.814306 V 384.32022 H 31.853674 Z" />
    <path
       style="fill:#ffffff;fill-rule:nonzero"
       id="path47"
       d="m 278.36368,443.84253 h 68.82809 v 0 c 9.01667,0 16.32611,7.0423 16.32611,15.72943 0,8.68714 -7.30944,15.72946 -16.32611,15.72946 h -68.82809 v 0 c -9.01666,0 -16.32611,-7.04232 -16.32611,-15.72946 0,-8.68713 7.30945,-15.72943 16.32611,-15.72943 z" />
    <path
       style="fill-rule:nonzero;stroke:#000000;stroke-width:2;stroke-linecap:butt;stroke-linejoin:round"
       id="path49"
       d="m 278.36368,443.84253 h 68.82809 v 0 c 9.01667,0 16.32611,7.0423 16.32611,15.72943 0,8.68714 -7.30944,15.72946 -16.32611,15.72946 h -68.82809 v 0 c -9.01666,0 -16.32611,-7.04232 -16.32611,-15.72946 0,-8.68713 7.30945,-15.72943 16.32611,-15.72943 z" />
    <path
       style="fill:#ffffff;fill-rule:nonzero"
       id="path51"
       d="M 251.84662,615.33795 H 358.49228 V 660.1568 H 251.84662 Z" />
    <path
       style="fill-rule:nonzero;stroke:#000000;stroke-width:2;stroke-linecap:butt;stroke-linejoin:round"
       id="path53"
       d="M 251.84662,615.33795 H 358.49228 V 660.1568 H 251.84662 Z" />
    <path
       style="fill:#ffffff;fill-rule:nonzero"
       id="path55"
       d="m 251.84662,544.1022 h 106.64566 v 44.81891 H 251.84662 Z" />
    <path
       style="fill-rule:nonzero;stroke:#000000;stroke-width:2;stroke-linecap:butt;stroke-linejoin:round"
       id="path57"
       d="m 251.84662,544.1022 h 106.64566 v 44.81891 H 251.84662 Z" />
    <path
       style="fill:#ffffff;fill-rule:nonzero"
       id="path59"
       d="m 251.84662,689.47974 h 106.64566 v 44.81891 H 251.84662 Z" />
    <path
       style="fill-rule:nonzero;stroke:#000000;stroke-width:2;stroke-linecap:butt;stroke-linejoin:round"
       id="path61"
       d="m 251.84662,689.47974 h 106.64566 v 44.81891 H 251.84662 Z" />
    <path
       style="fill:#000000;fill-opacity:0;fill-rule:nonzero"
       id="path63"
       d="m 6.361959,517.22833 h 24.88189" />
    <path
       style="fill-rule:nonzero;stroke:#000000;stroke-width:2;stroke-linecap:butt;stroke-linejoin:round"
       id="path65"
       d="m 6.361959,517.22833 h 24.88189" />
    <path
       style="fill:#000000;fill-opacity:0;fill-rule:nonzero"
       id="path67"
       d="m 6.361959,569.0379 h 24.88189" />
    <path
       style="fill-rule:nonzero;stroke:#000000;stroke-width:2;stroke-linecap:butt;stroke-linejoin:round"
       id="path69"
       d="m 6.361959,569.0379 h 24.88189" />
    <path
       style="fill:#000000;fill-opacity:0;fill-rule:nonzero"
       id="path71"
       d="m 6.361959,616.8954 h 24.88189" />
    <path
       style="fill-rule:nonzero;stroke:#000000;stroke-width:2;stroke-linecap:butt;stroke-linejoin:round"
       id="path73"
       d="m 6.361959,616.8954 h 24.88189" />
    <path
       style="fill:#000000;fill-opacity:0;fill-rule:nonzero"
       id="path75"
       d="M 6.361959,673.9764 H 31.999753" />
    <path
       style="fill-rule:nonzero;stroke:#000000;stroke-width:2;stroke-linecap:butt;stroke-linejoin:round"
       id="path77"
       d="M 6.361959,673.9764 H 31.999753" />
    <path
       style="fill:#ffffff;fill-rule:nonzero"
       id="path79"
       d="m 31.85023,423.8084 h 304.1575 V 761.47765 H 31.85023 Z" />
    <path
       style="fill-rule:nonzero;stroke:#000000;stroke-width:2;stroke-linecap:butt;stroke-linejoin:round"
       id="path81"
       d="m 31.85023,423.8084 h 304.1575 V 761.47765 H 31.85023 Z" />
    <path
       style="fill:#ffffff;fill-rule:nonzero"
       id="path83"
       d="M 56.01132,0.9422572 H 312.60974 V 800.97376 H 56.01132 Z" />
    <path
       style="fill-rule:nonzero;stroke:#000000;stroke-width:2;stroke-linecap:butt;stroke-linejoin:round"
       id="path85"
       d="M 56.01132,0.9422572 H 312.60974 V 800.97376 H 56.01132 Z" />
    <path
       style="fill:#000000;fill-opacity:0;fill-rule:nonzero"
       id="path87"
       d="M 289.4042,31.199474 V 346.85303 H 221.84513 V 31.199474 Z" />
    <path
       style="fill-rule:nonzero;stroke:#000000;stroke-width:2;stroke-linecap:butt;stroke-linejoin:round"
       id="path89"
       d="M 289.4042,31.199474 V 386.85303 H 221.84513 V 31.199474 Z" />
  </g>
  <g
     id="text95"
     style="font-size:30px;font-family:'DejaVu Sans', sans-serif;text-anchor:middle;fill:#000000"
     transform="rotate(90)"
     aria-label="[NUMER SERYJNY]">
    <path
       id="path105"
       style=""
       d="m 79.544922,-267.79297 h 6.210937 v 2.09473 h -3.515625 v 22.55859 h 3.515625 v 2.09473 h -6.210937 z" />
    <path
       id="path107"
       style=""
       d="m 91.629883,-266.87012 h 3.984375 l 9.697262,18.2959 v -18.2959 h 2.8711 V -245 h -3.98438 l -9.697263,-18.2959 V -245 h -2.871094 z" />
    <path
       id="path109"
       style=""
       d="m 113.73437,-266.87012 h 2.97364 v 13.28614 q 0,3.51562 1.27441,5.06835 1.27442,1.53809 4.13086,1.53809 2.8418,0 4.11621,-1.53809 1.27442,-1.55273 1.27442,-5.06835 v -13.28614 h 2.97363 v 13.65235 q 0,4.27734 -2.12402,6.45996 -2.10938,2.18261 -6.24024,2.18261 -4.14551,0 -6.26953,-2.18261 -2.10938,-2.18262 -2.10938,-6.45996 z" />
    <path
       id="path111"
       style=""
       d="m 136.04395,-266.87012 h 4.40918 l 5.58105,14.88282 5.61035,-14.88282 h 4.40918 V -245 h -2.88574 v -19.2041 l -5.63965,15 h -2.97363 l -5.63965,-15 V -245 h -2.87109 z" />
    <path
       id="path113"
       style=""
       d="m 161.94238,-266.87012 h 13.82813 v 2.49024 h -10.86914 v 6.47461 h 10.41504 v 2.49023 h -10.41504 v 7.92481 h 11.13281 V -245 h -14.0918 z" />
    <path
       id="path115"
       style=""
       d="m 191.29785,-255.25391 q 0.95215,0.32227 1.8457,1.37696 0.90821,1.05468 1.81641,2.90039 L 197.96289,-245 h -3.17871 l -2.79785,-5.61035 q -1.08399,-2.19727 -2.10938,-2.91504 -1.01074,-0.71777 -2.76855,-0.71777 h -3.22266 V -245 h -2.95898 v -21.87012 h 6.67969 q 3.75,0 5.5957,1.56739 1.8457,1.56738 1.8457,4.73144 0,2.06543 -0.9668,3.42774 -0.95214,1.3623 -2.7832,1.88964 z m -7.41211,-9.18457 v 7.76368 h 3.72071 q 2.13867,0 3.22265,-0.98145 1.09863,-0.99609 1.09863,-2.91504 0,-1.91894 -1.09863,-2.88574 -1.08398,-0.98145 -3.22265,-0.98145 z" />
    <path
       id="path117"
       style=""
       d="m 224.44727,-266.15234 v 2.88574 q -1.68457,-0.80567 -3.17872,-1.20117 -1.49414,-0.39551 -2.88574,-0.39551 -2.41699,0 -3.73535,0.9375 -1.30371,0.9375 -1.30371,2.66601 0,1.4502 0.86426,2.19727 0.8789,0.73242 3.31054,1.18652 l 1.78711,0.36621 q 3.31055,0.62989 4.87793,2.22657 1.58204,1.58203 1.58204,4.24804 0,3.17871 -2.13868,4.81934 -2.12402,1.64062 -6.24023,1.64062 -1.55274,0 -3.31055,-0.35156 -1.74316,-0.35156 -3.61816,-1.04004 v -3.04687 q 1.80176,1.01074 3.53027,1.52344 1.72852,0.51269 3.39844,0.51269 2.53418,0 3.91113,-0.99609 1.37695,-0.9961 1.37695,-2.8418 0,-1.61133 -0.99609,-2.51953 -0.98144,-0.9082 -3.2373,-1.36231 l -1.80176,-0.35156 q -3.31055,-0.65918 -4.79004,-2.06543 -1.47949,-1.40625 -1.47949,-3.91113 0,-2.90039 2.03613,-4.57031 2.05078,-1.66993 5.63965,-1.66993 1.53808,0 3.13476,0.27833 1.59668,0.27832 3.26661,0.83496 z" />
    <path
       id="path119"
       style=""
       d="m 230.37988,-266.87012 h 13.82813 v 2.49024 h -10.86914 v 6.47461 h 10.41504 v 2.49023 h -10.41504 v 7.92481 h 11.13281 V -245 h -14.0918 z" />
    <path
       id="path121"
       style=""
       d="m 259.73535,-255.25391 q 0.95215,0.32227 1.8457,1.37696 0.90821,1.05468 1.81641,2.90039 L 266.40039,-245 h -3.17871 l -2.79785,-5.61035 q -1.08399,-2.19727 -2.10938,-2.91504 -1.01074,-0.71777 -2.76855,-0.71777 h -3.22266 V -245 h -2.95898 v -21.87012 h 6.67969 q 3.75,0 5.5957,1.56739 1.8457,1.56738 1.8457,4.73144 0,2.06543 -0.9668,3.42774 -0.95214,1.3623 -2.7832,1.88964 z m -7.41211,-9.18457 v 7.76368 h 3.72071 q 2.13867,0 3.22265,-0.98145 1.09863,-0.99609 1.09863,-2.91504 0,-1.91894 -1.09863,-2.88574 -1.08398,-0.98145 -3.22265,-0.98145 z" />
    <path
       id="path123"
       style=""
       d="m 265.28711,-266.87012 h 3.17871 l 6.06445,8.99414 6.02051,-8.99414 h 3.17871 l -7.73437,11.45508 V -245 h -2.97364 v -10.41504 z" />
    <path
       id="path125"
       style=""
       d="m 286.62988,-266.87012 h 2.95899 v 20.34668 q 0,3.95508 -1.50879,5.74219 -1.49414,1.78711 -4.81934,1.78711 h -1.12793 v -2.49024 h 0.92285 q 1.96289,0 2.76856,-1.09863 0.80566,-1.09863 0.80566,-3.94043 z" />
    <path
       id="path127"
       style=""
       d="m 295.47754,-266.87012 h 3.98437 l 9.69727,18.2959 v -18.2959 h 2.87109 V -245 h -3.98437 l -9.69727,-18.2959 V -245 h -2.87109 z" />
    <path
       id="path129"
       style=""
       d="m 314.91602,-266.87012 h 3.17871 l 6.06445,8.99414 6.02051,-8.99414 h 3.17871 l -7.73438,11.45508 V -245 h -2.97363 v -10.41504 z" />
    <path
       id="path131"
       style=""
       d="m 342.44043,-267.79297 v 26.74805 h -6.21094 v -2.09473 h 3.50098 v -22.55859 h -3.50098 v -2.09473 z" />
  </g>
</svg>
