<?xml version="1.0" encoding="UTF-8" standalone="no"?>
<svg
   xmlns:dc="http://purl.org/dc/elements/1.1/"
   xmlns:cc="http://creativecommons.org/ns#"
   xmlns:rdf="http://www.w3.org/1999/02/22-rdf-syntax-ns#"
   xmlns:svg="http://www.w3.org/2000/svg"
   xmlns="http://www.w3.org/2000/svg"
   id="svg95"
   stroke-miterlimit="10"
   stroke-linecap="square"
   stroke="none"
   fill="none"
   viewBox="0.0 0.0 348.0 348.0"
   version="1.1">
  <metadata
     id="metadata101">
    <rdf:RDF>
      <cc:Work
         rdf:about="">
        <dc:format>image/svg+xml</dc:format>
        <dc:type
           rdf:resource="http://purl.org/dc/dcmitype/StillImage" />
      </cc:Work>
    </rdf:RDF>
  </metadata>
  <defs
     id="defs99" />
  <clipPath
     id="p.0">
    <path
       id="path2"
       clip-rule="nonzero"
       d="m0 0l348.0 0l0 348.0l-348.0 0l0 -348.0z" />
  </clipPath>
  <g
     id="g81"
     clip-path="url(#p.0)">
    <path
       style="fill:#000000;fill-opacity:0;fill-rule:nonzero"
       id="path5"
       d="M 0,0 H 348 V 348 H 0 Z" />
    <path
       style="fill:#ffffff;fill-rule:nonzero"
       id="path7"
       d="M -6,0 H 348.01575 V 347.9685 H -6 Z" />
    <path
       style="fill:#000000;fill-opacity:0;fill-rule:nonzero"
       id="path9"
       d="m 5.07874,5.7758217 h 336.9134 V 343.44512 H 5.07874 Z" />
    <path
       style="fill-rule:nonzero;stroke:#000000;stroke-width:2;stroke-linecap:butt;stroke-linejoin:round"
       id="path11"
       d="m 5.07874,5.7758217 h 336.9134 V 343.44512 H 5.07874 Z" />
    <path
       style="fill:#000000;fill-rule:nonzero"
       id="path13"
       d="m 133.84251,15.666667 h 74.33072 v 56.881886 h -74.33072 z" />
    <path
       style="fill:#ffffff;fill-rule:nonzero"
       id="path15"
       d="m 154.53912,44.089794 q 0,-4.0625 0.82812,-6.53125 0.84375,-2.484375 2.48438,-3.828125 1.65625,-1.34375 4.15625,-1.34375 1.84375,0 3.23437,0.75 1.39063,0.734375 2.29688,2.140625 0.90625,1.390625 1.42187,3.40625 0.51563,2 0.51563,5.40625 0,4.03125 -0.82813,6.515625 -0.82812,2.46875 -2.48437,3.828125 -1.64063,1.34375 -4.15625,1.34375 -3.3125,0 -5.20313,-2.375 -2.26562,-2.859375 -2.26562,-9.3125 z m 2.89062,0 q 0,5.640625 1.3125,7.515625 1.32813,1.859375 3.26563,1.859375 1.9375,0 3.25,-1.875 1.32812,-1.875 1.32812,-7.5 0,-5.65625 -1.32812,-7.515625 -1.3125,-1.859375 -3.28125,-1.859375 -1.9375,0 -3.09375,1.640625 -1.45313,2.09375 -1.45313,7.734375 z m 14.90625,0 q 0,-4.0625 0.82813,-6.53125 0.84375,-2.484375 2.48437,-3.828125 1.65625,-1.34375 4.15625,-1.34375 1.84375,0 3.23438,0.75 1.39062,0.734375 2.29687,2.140625 0.90625,1.390625 1.42188,3.40625 0.51562,2 0.51562,5.40625 0,4.03125 -0.82812,6.515625 -0.82813,2.46875 -2.48438,3.828125 -1.64062,1.34375 -4.15625,1.34375 -3.3125,0 -5.20312,-2.375 -2.26563,-2.859375 -2.26563,-9.3125 z m 2.89063,0 q 0,5.640625 1.3125,7.515625 1.32812,1.859375 3.26562,1.859375 1.9375,0 3.25,-1.875 1.32813,-1.875 1.32813,-7.5 0,-5.65625 -1.32813,-7.515625 -1.3125,-1.859375 -3.28125,-1.859375 -1.9375,0 -3.09375,1.640625 -1.45312,2.09375 -1.45312,7.734375 z" />
    <path
       style="fill:#ffffff;fill-rule:nonzero"
       id="path17"
       d="M 15.262467,17.706038 H 125.15223 v 54.83464 H 15.262467 Z" />
    <path
       style="fill-rule:nonzero;stroke:#000000;stroke-width:2;stroke-linecap:butt;stroke-linejoin:round"
       id="path19"
       d="M 15.262467,17.706038 H 125.15223 v 54.83464 H 15.262467 Z" />
    <path
       style="fill:#000000;fill-opacity:0;fill-rule:nonzero"
       id="path21"
       d="M 15.262467,72.65354 54.947507,18.5748" />
    <path
       style="fill-rule:nonzero;stroke:#000000;stroke-width:2;stroke-linecap:butt;stroke-linejoin:round"
       id="path23"
       d="M 15.262467,72.65354 54.947507,18.5748" />
    <path
       style="fill:#000000;fill-opacity:0;fill-rule:nonzero"
       id="path25"
       d="M 37.56649,72.65354 77.251533,18.5748" />
    <path
       style="fill-rule:nonzero;stroke:#000000;stroke-width:2;stroke-linecap:butt;stroke-linejoin:round"
       id="path27"
       d="M 37.56649,72.65354 77.251533,18.5748" />
    <path
       style="fill:#000000;fill-opacity:0;fill-rule:nonzero"
       id="path29"
       d="M 59.870514,72.65354 99.555557,18.5748" />
    <path
       style="fill-rule:nonzero;stroke:#000000;stroke-width:2;stroke-linecap:butt;stroke-linejoin:round"
       id="path31"
       d="M 59.870514,72.65354 99.555557,18.5748" />
    <path
       style="fill:#000000;fill-opacity:0;fill-rule:nonzero"
       id="path33"
       d="M 82.17454,72.65354 121.85958,18.5748" />
    <path
       style="fill-rule:nonzero;stroke:#000000;stroke-width:2;stroke-linecap:butt;stroke-linejoin:round"
       id="path35"
       d="M 82.17454,72.65354 121.85958,18.5748" />
    <path
       style="fill:#ffffff;fill-rule:nonzero"
       id="path37"
       d="M 32.97638,83.031494 H 315.02362 V 325.3937 H 32.97638 Z" />
    <path
       style="fill-rule:nonzero;stroke:#000000;stroke-width:2;stroke-linecap:butt;stroke-linejoin:round"
       id="path39"
       d="M 32.97638,83.031494 H 315.02362 V 325.3937 H 32.97638 Z" />
    <path
       style="fill:#ffffff;fill-rule:nonzero"
       id="path41"
       d="m 216.86351,16.633858 h 109.88975 v 54.83465 H 216.86351 Z" />
    <path
       style="fill-rule:nonzero;stroke:#000000;stroke-width:2;stroke-linecap:butt;stroke-linejoin:round"
       id="path43"
       d="m 216.86351,16.633858 h 109.88975 v 54.83465 H 216.86351 Z" />
    <path
       style="fill:#000000;fill-opacity:0;fill-rule:nonzero"
       id="path45"
       d="M 216.86351,71.58137 256.54855,17.502627" />
    <path
       style="fill-rule:nonzero;stroke:#000000;stroke-width:2;stroke-linecap:butt;stroke-linejoin:round"
       id="path47"
       d="M 216.86351,71.58137 256.54855,17.502627" />
    <path
       style="fill:#000000;fill-opacity:0;fill-rule:nonzero"
       id="path49"
       d="M 239.16754,71.58137 278.85257,17.502627" />
    <path
       style="fill-rule:nonzero;stroke:#000000;stroke-width:2;stroke-linecap:butt;stroke-linejoin:round"
       id="path51"
       d="M 239.16754,71.58137 278.85257,17.502627" />
    <path
       style="fill:#000000;fill-opacity:0;fill-rule:nonzero"
       id="path53"
       d="M 261.47156,71.58137 301.15662,17.502627" />
    <path
       style="fill-rule:nonzero;stroke:#000000;stroke-width:2;stroke-linecap:butt;stroke-linejoin:round"
       id="path55"
       d="M 261.47156,71.58137 301.15662,17.502627" />
    <path
       style="fill:#000000;fill-opacity:0;fill-rule:nonzero"
       id="path57"
       d="M 283.7756,71.58137 323.46063,17.502627" />
    <path
       style="fill-rule:nonzero;stroke:#000000;stroke-width:2;stroke-linecap:butt;stroke-linejoin:round"
       id="path59"
       d="M 283.7756,71.58137 323.46063,17.502627" />
    <path
       style="fill:#000000;fill-rule:nonzero"
       id="path61"
       d="M 44.490814,88.11811 H 303.48294 V 252.05512 H 44.490814 Z" />
    <path
       style="fill-rule:nonzero;stroke:#000000;stroke-width:1;stroke-linecap:butt;stroke-linejoin:round"
       id="path63"
       d="m 113.77165,267.51697 h 49.25984 v 45.48032 h -49.25984 z" />
    <path
       style="fill:#000000;fill-opacity:0;fill-rule:nonzero"
       id="path65"
       d="m 182.79527,267.51697 h 49.25984 v 45.48032 h -49.25984 z" />
    <path
       style="fill-rule:nonzero;stroke:#000000;stroke-width:1;stroke-linecap:butt;stroke-linejoin:round"
       id="path67"
       d="m 182.79527,267.51697 h 49.25984 v 45.48032 h -49.25984 z" />
    <path
       style="fill:#ffffff;fill-rule:nonzero"
       id="path69"
       d="m 260.08136,270.74014 h 36.72443 v 25.63782 h -36.72443 z" />
    <path
       style="fill-rule:nonzero;stroke:#000000;stroke-width:2;stroke-linecap:butt;stroke-linejoin:round"
       id="path71"
       d="m 260.08136,270.74014 h 36.72443 v 25.63782 h -36.72443 z" />
    <path
       style="fill:#ffffff;fill-rule:nonzero"
       id="path73"
       d="m 265.46457,305.50656 v 0 c 0,-2.35699 1.91071,-4.26773 4.2677,-4.26773 v 0 c 1.1319,0 2.21741,0.44965 3.01773,1.25 0.80035,0.80035 1.25,1.88586 1.25,3.01773 v 0 c 0,2.35699 -1.91074,4.26773 -4.26773,4.26773 v 0 c -2.35699,0 -4.2677,-1.91074 -4.2677,-4.26773 z" />
    <path
       style="fill-rule:nonzero;stroke:#000000;stroke-width:2;stroke-linecap:butt;stroke-linejoin:round"
       id="path75"
       d="m 265.46457,305.50656 v 0 c 0,-2.35699 1.91071,-4.26773 4.2677,-4.26773 v 0 c 1.1319,0 2.21741,0.44965 3.01773,1.25 0.80035,0.80035 1.25,1.88586 1.25,3.01773 v 0 c 0,2.35699 -1.91074,4.26773 -4.26773,4.26773 v 0 c -2.35699,0 -4.2677,-1.91074 -4.2677,-4.26773 z" />
    <path
       style="fill:#ffffff;fill-rule:nonzero"
       id="path77"
       d="m 282.8084,305.50656 v 0 c 0,-2.35699 1.91071,-4.26773 4.2677,-4.26773 v 0 c 1.13187,0 2.21738,0.44965 3.01773,1.25 0.80035,0.80035 1.25,1.88586 1.25,3.01773 v 0 c 0,2.35699 -1.91074,4.26773 -4.26773,4.26773 v 0 c -2.35699,0 -4.2677,-1.91074 -4.2677,-4.26773 z" />
    <path
       style="fill-rule:nonzero;stroke:#000000;stroke-width:2;stroke-linecap:butt;stroke-linejoin:round"
       id="path79"
       d="m 282.8084,305.50656 v 0 c 0,-2.35699 1.91071,-4.26773 4.2677,-4.26773 v 0 c 1.13187,0 2.21738,0.44965 3.01773,1.25 0.80035,0.80035 1.25,1.88586 1.25,3.01773 v 0 c 0,2.35699 -1.91074,4.26773 -4.26773,4.26773 v 0 c -2.35699,0 -4.2677,-1.91074 -4.2677,-4.26773 z" />
  </g>
  <g
     id="text85"
     style="font-size:10.76923084px;font-family:sans-serif;text-anchor:middle;fill:#ffffff"
     aria-label="[MISSING: Manual/needygas.moduleicontext]">
    <path
       id="path103"
       style="fill:#ff0000"
       d="m 53.045973,114.20252 h 2.229567 v 0.75195 h -1.262019 v 8.09796 h 1.262019 v 0.75195 h -2.229567 z" />
    <path
       id="path105"
       style="fill:#ff0000"
       d="m 57.384164,114.5338 h 1.582782 l 2.003456,5.34255 2.013972,-5.34255 h 1.582783 v 7.85081 h -1.035908 v -6.89378 l -2.024489,5.38462 h -1.067458 l -2.024489,-5.38462 v 6.89378 h -1.030649 z" />
    <path
       id="path107"
       style="fill:#ff0000"
       d="m 66.681039,114.5338 h 1.062199 v 7.85081 h -1.062199 z" />
    <path
       id="path109"
       style="fill:#ff0000"
       d="m 74.563401,114.79146 v 1.03591 q -0.604718,-0.28921 -1.141076,-0.43119 -0.536358,-0.14198 -1.035908,-0.14198 -0.867638,0 -1.340895,0.33654 -0.467999,0.33654 -0.467999,0.95703 0,0.52059 0.310247,0.78877 0.315504,0.26292 1.188401,0.42593 l 0.641527,0.13146 q 1.188401,0.22611 1.751051,0.79928 0.567909,0.56791 0.567909,1.52494 0,1.14107 -0.767729,1.73001 -0.762469,0.58895 -2.240084,0.58895 -0.557391,0 -1.188401,-0.1262 -0.625751,-0.12621 -1.298828,-0.37335 v -1.09375 q 0.646785,0.36283 1.267277,0.54687 0.620493,0.18405 1.219952,0.18405 0.909706,0 1.403997,-0.35757 0.494291,-0.35758 0.494291,-1.02014 0,-0.57842 -0.357572,-0.90444 -0.352314,-0.32603 -1.16211,-0.48904 l -0.646785,-0.1262 q -1.188401,-0.23663 -1.719501,-0.74143 -0.5311,-0.50481 -0.5311,-1.404 0,-1.04117 0.73092,-1.64063 0.736178,-0.59946 2.024489,-0.59946 0.552133,0 1.1253,0.0999 0.573168,0.0999 1.172627,0.29973 z" />
    <path
       id="path111"
       style="fill:#ff0000"
       d="m 81.399338,114.79146 v 1.03591 q -0.604717,-0.28921 -1.141076,-0.43119 -0.536358,-0.14198 -1.035907,-0.14198 -0.867638,0 -1.340895,0.33654 -0.467999,0.33654 -0.467999,0.95703 0,0.52059 0.310246,0.78877 0.315505,0.26292 1.188402,0.42593 l 0.641526,0.13146 q 1.188401,0.22611 1.751052,0.79928 0.567908,0.56791 0.567908,1.52494 0,1.14107 -0.767728,1.73001 -0.76247,0.58895 -2.240084,0.58895 -0.557392,0 -1.188402,-0.1262 -0.625751,-0.12621 -1.298828,-0.37335 v -1.09375 q 0.646785,0.36283 1.267278,0.54687 0.620493,0.18405 1.219952,0.18405 0.909705,0 1.403996,-0.35757 0.494291,-0.35758 0.494291,-1.02014 0,-0.57842 -0.357572,-0.90444 -0.352314,-0.32603 -1.162109,-0.48904 l -0.646785,-0.1262 q -1.188402,-0.23663 -1.719501,-0.74143 -0.5311,-0.50481 -0.5311,-1.404 0,-1.04117 0.730919,-1.64063 0.736178,-0.59946 2.024489,-0.59946 0.552134,0 1.125301,0.0999 0.573167,0.0999 1.172626,0.29973 z" />
    <path
       id="path113"
       style="fill:#ff0000"
       d="m 83.528996,114.5338 h 1.062199 v 7.85081 h -1.062199 z" />
    <path
       id="path115"
       style="fill:#ff0000"
       d="m 86.705078,114.5338 h 1.430289 l 3.481069,6.56776 v -6.56776 h 1.030649 v 7.85081 h -1.430288 l -3.48107,-6.56776 v 6.56776 h -1.030649 z" />
    <path
       id="path117"
       style="fill:#ff0000"
       d="m 100.11403,121.26457 v -2.10862 h -1.735274 v -0.8729 h 2.786954 v 3.37064 q -0.61523,0.43645 -1.356666,0.66256 -0.741436,0.22086 -1.582782,0.22086 -1.840445,0 -2.881611,-1.07272 -1.035907,-1.07797 -1.035907,-2.9973 0,-1.92457 1.035907,-2.99729 1.041166,-1.07798 2.881611,-1.07798 0.767728,0 1.45658,0.18931 0.694108,0.1893 1.277798,0.55739 v 1.13056 q -0.58895,-0.49955 -1.251506,-0.75195 -0.66256,-0.25241 -1.393479,-0.25241 -1.440805,0 -2.166467,0.80454 -0.720402,0.80454 -0.720402,2.39783 0,1.58805 0.720402,2.39258 0.725662,0.80454 2.166467,0.80454 0.56265,0 1.004357,-0.0947 0.441707,-0.0999 0.794018,-0.30499 z" />
    <path
       id="path119"
       style="fill:#ff0000"
       d="m 103.31641,121.04898 h 1.10952 v 1.33563 h -1.10952 z m 0,-4.23303 h 1.10952 v 1.33564 h -1.10952 z" />
    <path
       id="path121"
       style="fill:#ff0000"
       d="m 110.17863,114.5338 h 1.58279 l 2.00345,5.34255 2.01398,-5.34255 h 1.58278 v 7.85081 h -1.03591 v -6.89378 l -2.02449,5.38462 h -1.06746 l -2.02449,-5.38462 v 6.89378 h -1.03065 z" />
    <path
       id="path123"
       style="fill:#ff0000"
       d="m 122.10998,119.42413 q -1.17263,0 -1.62485,0.26818 -0.45222,0.26817 -0.45222,0.91496 0,0.51532 0.33653,0.82031 0.3418,0.29973 0.92548,0.29973 0.80454,0 1.28832,-0.56791 0.48903,-0.57316 0.48903,-1.51968 v -0.21559 z m 1.92984,-0.39964 v 3.36012 h -0.96755 v -0.89393 q -0.33128,0.53636 -0.82557,0.79402 -0.49429,0.25241 -1.20944,0.25241 -0.90444,0 -1.4408,-0.50481 -0.5311,-0.51007 -0.5311,-1.36193 0,-0.99384 0.66256,-1.49865 0.66782,-0.50481 1.98768,-0.50481 h 1.35667 v -0.0947 q 0,-0.66782 -0.44171,-1.03065 -0.43645,-0.36808 -1.23047,-0.36808 -0.5048,0 -0.98332,0.12094 -0.47852,0.12094 -0.92022,0.36283 v -0.89393 q 0.5311,-0.20508 1.03065,-0.30499 0.49955,-0.10517 0.9728,-0.10517 1.2778,0 1.90881,0.66256 0.63101,0.66256 0.63101,2.00872 z" />
    <path
       id="path125"
       style="fill:#ff0000"
       d="m 130.93359,118.82993 v 3.55468 h -0.96755 v -3.52313 q 0,-0.83609 -0.32602,-1.25151 -0.32602,-0.41541 -0.97806,-0.41541 -0.78351,0 -1.23573,0.49955 -0.45223,0.49955 -0.45223,1.36193 v 3.32857 h -0.9728 v -5.88942 h 0.9728 v 0.91496 q 0.34706,-0.5311 0.81506,-0.79402 0.47326,-0.26292 1.08849,-0.26292 1.01487,0 1.53546,0.63101 0.52058,0.62575 0.52058,1.84571 z" />
    <path
       id="path127"
       style="fill:#ff0000"
       d="m 132.77403,120.06039 v -3.5652 h 0.96755 v 3.5284 q 0,0.83608 0.32602,1.25676 0.32603,0.41541 0.97807,0.41541 0.7835,0 1.23573,-0.49955 0.45748,-0.49955 0.45748,-1.36193 v -3.33909 h 0.96755 v 5.88942 h -0.96755 v -0.90444 q -0.35232,0.53635 -0.82031,0.79927 -0.46274,0.25767 -1.07798,0.25767 -1.01487,0 -1.54071,-0.63101 -0.52585,-0.63101 -0.52585,-1.84571 z m 2.43465,-3.70718 z" />
    <path
       id="path129"
       style="fill:#ff0000"
       d="m 142.38641,119.42413 q -1.17262,0 -1.62485,0.26818 -0.45222,0.26817 -0.45222,0.91496 0,0.51532 0.33654,0.82031 0.3418,0.29973 0.92548,0.29973 0.80454,0 1.28831,-0.56791 0.48903,-0.57316 0.48903,-1.51968 v -0.21559 z m 1.92984,-0.39964 v 3.36012 h -0.96755 v -0.89393 q -0.33128,0.53636 -0.82557,0.79402 -0.49429,0.25241 -1.20943,0.25241 -0.90445,0 -1.44081,-0.50481 -0.5311,-0.51007 -0.5311,-1.36193 0,-0.99384 0.66256,-1.49865 0.66782,-0.50481 1.98768,-0.50481 h 1.35667 v -0.0947 q 0,-0.66782 -0.4417,-1.03065 -0.43645,-0.36808 -1.23047,-0.36808 -0.50481,0 -0.98332,0.12094 -0.47852,0.12094 -0.92023,0.36283 v -0.89393 q 0.5311,-0.20508 1.03065,-0.30499 0.49955,-0.10517 0.97281,-0.10517 1.27779,0 1.9088,0.66256 0.63101,0.66256 0.63101,2.00872 z" />
    <path
       id="path131"
       style="fill:#ff0000"
       d="m 146.31445,114.20252 h 0.96755 v 8.18209 h -0.96755 z" />
    <path
       id="path133"
       style="fill:#ff0000"
       d="m 151.02073,114.5338 h 0.89393 l -2.73437,8.84991 h -0.89394 z" />
    <path
       id="path135"
       style="fill:#ff0000"
       d="m 157.83564,118.82993 v 3.55468 h -0.96755 v -3.52313 q 0,-0.83609 -0.32602,-1.25151 -0.32603,-0.41541 -0.97807,-0.41541 -0.7835,0 -1.23573,0.49955 -0.45222,0.49955 -0.45222,1.36193 v 3.32857 h -0.97281 v -5.88942 h 0.97281 v 0.91496 q 0.34706,-0.5311 0.81505,-0.79402 0.47326,-0.26292 1.0885,-0.26292 1.01487,0 1.53545,0.63101 0.52059,0.62575 0.52059,1.84571 z" />
    <path
       id="path137"
       style="fill:#ff0000"
       d="m 164.81355,119.19801 v 0.47326 h -4.44862 q 0.0631,0.9991 0.59946,1.52494 0.54162,0.52058 1.50391,0.52058 0.55739,0 1.07797,-0.13671 0.52584,-0.13672 1.04117,-0.41016 v 0.91496 q -0.52058,0.22086 -1.06746,0.33654 -0.54687,0.11569 -1.10952,0.11569 -1.40926,0 -2.23483,-0.82032 -0.82031,-0.82031 -0.82031,-2.21905 0,-1.44606 0.77824,-2.29266 0.78351,-0.85187 2.10863,-0.85187 1.1884,0 1.87725,0.76773 0.69411,0.76247 0.69411,2.07707 z m -0.96755,-0.28395 q -0.0105,-0.79402 -0.44696,-1.26728 -0.43119,-0.47325 -1.14634,-0.47325 -0.80979,0 -1.29882,0.45748 -0.48378,0.45748 -0.5574,1.28831 z" />
    <path
       id="path139"
       style="fill:#ff0000"
       d="m 171.43915,119.19801 v 0.47326 h -4.44861 q 0.0631,0.9991 0.59945,1.52494 0.54162,0.52058 1.50391,0.52058 0.55739,0 1.07798,-0.13671 0.52584,-0.13672 1.04116,-0.41016 v 0.91496 q -0.52058,0.22086 -1.06746,0.33654 -0.54687,0.11569 -1.10952,0.11569 -1.40926,0 -2.23483,-0.82032 -0.82031,-0.82031 -0.82031,-2.21905 0,-1.44606 0.77825,-2.29266 0.7835,-0.85187 2.10862,-0.85187 1.1884,0 1.87725,0.76773 0.69411,0.76247 0.69411,2.07707 z m -0.96754,-0.28395 q -0.0105,-0.79402 -0.44697,-1.26728 -0.43119,-0.47325 -1.14633,-0.47325 -0.8098,0 -1.29883,0.45748 -0.48378,0.45748 -0.55739,1.28831 z" />
    <path
       id="path141"
       style="fill:#ff0000"
       d="m 176.90265,117.38912 v -3.1866 h 0.96755 v 8.18209 h -0.96755 v -0.88341 q -0.30499,0.52584 -0.77299,0.7835 -0.46274,0.25241 -1.11478,0.25241 -1.06746,0 -1.74054,-0.85187 -0.66782,-0.85186 -0.66782,-2.24008 0,-1.38822 0.66782,-2.24008 0.67308,-0.85187 1.74054,-0.85187 0.65204,0 1.11478,0.25767 0.468,0.2524 0.77299,0.77824 z m -3.29703,2.05604 q 0,1.06746 0.43645,1.67743 0.44171,0.60472 1.20944,0.60472 0.76772,0 1.20943,-0.60472 0.44171,-0.60997 0.44171,-1.67743 0,-1.06746 -0.44171,-1.67218 -0.44171,-0.60997 -1.20943,-0.60997 -0.76773,0 -1.20944,0.60997 -0.43645,0.60472 -0.43645,1.67218 z" />
    <path
       id="path143"
       style="fill:#ff0000"
       d="m 182.31355,122.93149 q -0.41015,1.05168 -0.79927,1.37244 -0.38913,0.32077 -1.04117,0.32077 h -0.77299 v -0.8098 h 0.56791 q 0.39964,0 0.62049,-0.1893 0.22086,-0.1893 0.48904,-0.89393 l 0.17352,-0.44171 -2.38206,-5.79477 h 1.02539 l 1.84045,4.60637 1.84044,-4.60637 h 1.02539 z" />
    <path
       id="path145"
       style="fill:#ff0000"
       d="m 190.11178,119.37154 q 0,-1.05168 -0.43644,-1.63011 -0.43119,-0.57842 -1.2147,-0.57842 -0.77824,0 -1.21469,0.57842 -0.43119,0.57843 -0.43119,1.63011 0,1.04643 0.43119,1.62485 0.43645,0.57843 1.21469,0.57843 0.78351,0 1.2147,-0.57843 0.43644,-0.57842 0.43644,-1.62485 z m 0.96755,2.28215 q 0,1.50391 -0.66782,2.23483 -0.66782,0.73618 -2.04552,0.73618 -0.51007,0 -0.96229,-0.0789 -0.45222,-0.0736 -0.87815,-0.23137 v -0.94126 q 0.42593,0.23137 0.84134,0.3418 0.41542,0.11043 0.84661,0.11043 0.95177,0 1.42503,-0.49955 0.47325,-0.49429 0.47325,-1.49865 v -0.47851 q -0.29973,0.52058 -0.76772,0.77824 -0.468,0.25766 -1.12005,0.25766 -1.08323,0 -1.74579,-0.82557 -0.66256,-0.82557 -0.66256,-2.1875 0,-1.36719 0.66256,-2.19276 0.66256,-0.82557 1.74579,-0.82557 0.65205,0 1.12005,0.25767 0.46799,0.25766 0.76772,0.77824 v -0.89393 h 0.96755 z" />
    <path
       id="path147"
       style="fill:#ff0000"
       d="m 195.7488,119.42413 q -1.17262,0 -1.62485,0.26818 -0.45222,0.26817 -0.45222,0.91496 0,0.51532 0.33654,0.82031 0.3418,0.29973 0.92548,0.29973 0.80454,0 1.28831,-0.56791 0.48903,-0.57316 0.48903,-1.51968 v -0.21559 z m 1.92984,-0.39964 v 3.36012 h -0.96755 v -0.89393 q -0.33128,0.53636 -0.82557,0.79402 -0.49429,0.25241 -1.20943,0.25241 -0.90445,0 -1.44081,-0.50481 -0.5311,-0.51007 -0.5311,-1.36193 0,-0.99384 0.66256,-1.49865 0.66782,-0.50481 1.98768,-0.50481 h 1.35667 v -0.0947 q 0,-0.66782 -0.4417,-1.03065 -0.43645,-0.36808 -1.23047,-0.36808 -0.50481,0 -0.98333,0.12094 -0.47851,0.12094 -0.92022,0.36283 v -0.89393 q 0.5311,-0.20508 1.03065,-0.30499 0.49955,-0.10517 0.97281,-0.10517 1.27779,0 1.9088,0.66256 0.63101,0.66256 0.63101,2.00872 z" />
    <path
       id="path149"
       style="fill:#ff0000"
       d="m 203.43135,116.66872 v 0.91496 q -0.41016,-0.21034 -0.85187,-0.3155 -0.4417,-0.10517 -0.91496,-0.10517 -0.7204,0 -1.08323,0.22085 -0.35758,0.22086 -0.35758,0.66256 0,0.33654 0.25767,0.5311 0.25766,0.1893 1.0359,0.36283 l 0.33128,0.0736 q 1.03065,0.22085 1.46184,0.62575 0.43645,0.39964 0.43645,1.12004 0,0.82032 -0.65204,1.29883 -0.64679,0.47852 -1.7826,0.47852 -0.47326,0 -0.98859,-0.0947 -0.51006,-0.0894 -1.07797,-0.27344 v -0.9991 q 0.53636,0.2787 1.05694,0.42067 0.52058,0.13672 1.03065,0.13672 0.68359,0 1.05168,-0.23137 0.36809,-0.23663 0.36809,-0.66256 0,-0.39438 -0.26818,-0.60472 -0.26292,-0.21033 -1.16211,-0.40489 l -0.33654,-0.0789 q -0.89918,-0.1893 -1.29882,-0.57843 -0.39964,-0.39438 -0.39964,-1.07797 0,-0.83083 0.58894,-1.28305 0.58894,-0.45223 1.67217,-0.45223 0.53636,0 1.00962,0.0789 0.47326,0.0789 0.8729,0.23663 z" />
    <path
       id="path151"
       style="fill:#ff0000"
       d="m 205.42954,121.04898 h 1.10953 v 1.33563 h -1.10953 z" />
    <path
       id="path153"
       style="fill:#ff0000"
       d="m 213.30664,117.62575 q 0.36283,-0.65204 0.86764,-0.96229 0.50481,-0.31025 1.1884,-0.31025 0.92022,0 1.41977,0.64679 0.49955,0.64152 0.49955,1.82993 v 3.55468 h -0.97281 v -3.52313 q 0,-0.84661 -0.29973,-1.25676 -0.29973,-0.41016 -0.91496,-0.41016 -0.75195,0 -1.1884,0.49955 -0.43645,0.49955 -0.43645,1.36193 v 3.32857 h -0.97281 v -3.52313 q 0,-0.85187 -0.29973,-1.25676 -0.29972,-0.41016 -0.92548,-0.41016 -0.74143,0 -1.17788,0.50481 -0.43645,0.49955 -0.43645,1.35667 v 3.32857 h -0.97281 v -5.88942 h 0.97281 v 0.91496 q 0.33128,-0.54161 0.79402,-0.79927 0.46274,-0.25767 1.09901,-0.25767 0.64153,0 1.08849,0.32602 0.45222,0.32603 0.66782,0.94652 z" />
    <path
       id="path155"
       style="fill:#ff0000"
       d="m 221.49924,117.17353 q -0.77824,0 -1.23047,0.60997 -0.45222,0.60472 -0.45222,1.66166 0,1.05694 0.44697,1.66692 0.45222,0.60471 1.23572,0.60471 0.77299,0 1.22521,-0.60997 0.45223,-0.60998 0.45223,-1.66166 0,-1.04642 -0.45223,-1.6564 -0.45222,-0.61523 -1.22521,-0.61523 z m 0,-0.82032 q 1.26202,0 1.98243,0.82032 0.7204,0.82031 0.7204,2.27163 0,1.44606 -0.7204,2.27163 -0.72041,0.82032 -1.98243,0.82032 -1.26727,0 -1.98768,-0.82032 -0.71514,-0.82557 -0.71514,-2.27163 0,-1.45132 0.71514,-2.27163 0.72041,-0.82032 1.98768,-0.82032 z" />
    <path
       id="path157"
       style="fill:#ff0000"
       d="m 229.67608,117.38912 v -3.1866 h 0.96755 v 8.18209 h -0.96755 v -0.88341 q -0.30498,0.52584 -0.77298,0.7835 -0.46274,0.25241 -1.11479,0.25241 -1.06745,0 -1.74053,-0.85187 -0.66782,-0.85186 -0.66782,-2.24008 0,-1.38822 0.66782,-2.24008 0.67308,-0.85187 1.74053,-0.85187 0.65205,0 1.11479,0.25767 0.468,0.2524 0.77298,0.77824 z m -3.29702,2.05604 q 0,1.06746 0.43645,1.67743 0.4417,0.60472 1.20943,0.60472 0.76773,0 1.20944,-0.60472 0.4417,-0.60997 0.4417,-1.67743 0,-1.06746 -0.4417,-1.67218 -0.44171,-0.60997 -1.20944,-0.60997 -0.76773,0 -1.20943,0.60997 -0.43645,0.60472 -0.43645,1.67218 z" />
    <path
       id="path159"
       style="fill:#ff0000"
       d="m 232.53666,120.06039 v -3.5652 h 0.96755 v 3.5284 q 0,0.83608 0.32602,1.25676 0.32602,0.41541 0.97807,0.41541 0.7835,0 1.23572,-0.49955 0.45749,-0.49955 0.45749,-1.36193 v -3.33909 h 0.96754 v 5.88942 h -0.96754 v -0.90444 q -0.35232,0.53635 -0.82032,0.79927 -0.46274,0.25767 -1.07797,0.25767 -1.01488,0 -1.54072,-0.63101 -0.52584,-0.63101 -0.52584,-1.84571 z m 2.43465,-3.70718 z" />
    <path
       id="path161"
       style="fill:#ff0000"
       d="m 239.47251,114.20252 h 0.96755 v 8.18209 h -0.96755 z" />
    <path
       id="path163"
       style="fill:#ff0000"
       d="m 247.49684,119.19801 v 0.47326 h -4.44862 q 0.0631,0.9991 0.59946,1.52494 0.54162,0.52058 1.50391,0.52058 0.55739,0 1.07797,-0.13671 0.52584,-0.13672 1.04117,-0.41016 v 0.91496 q -0.52059,0.22086 -1.06746,0.33654 -0.54688,0.11569 -1.10953,0.11569 -1.40925,0 -2.23482,-0.82032 -0.82031,-0.82031 -0.82031,-2.21905 0,-1.44606 0.77824,-2.29266 0.78351,-0.85187 2.10863,-0.85187 1.1884,0 1.87725,0.76773 0.69411,0.76247 0.69411,2.07707 z m -0.96755,-0.28395 q -0.0105,-0.79402 -0.44696,-1.26728 -0.43119,-0.47325 -1.14634,-0.47325 -0.80979,0 -1.29883,0.45748 -0.48377,0.45748 -0.55739,1.28831 z" />
    <path
       id="path165"
       style="fill:#ff0000"
       d="m 249.08489,116.49519 h 0.96755 v 5.88942 h -0.96755 z m 0,-2.29267 h 0.96755 v 1.22521 h -0.96755 z" />
    <path
       id="path167"
       style="fill:#ff0000"
       d="m 256.30994,116.7213 v 0.90445 q -0.41015,-0.22611 -0.82557,-0.33654 -0.41016,-0.11568 -0.83083,-0.11568 -0.94125,0 -1.46184,0.59945 -0.52058,0.59421 -0.52058,1.67218 0,1.07797 0.52058,1.67743 0.52059,0.5942 1.46184,0.5942 0.42067,0 0.83083,-0.11042 0.41542,-0.11569 0.82557,-0.3418 v 0.89393 q -0.4049,0.1893 -0.84134,0.28396 -0.43119,0.0947 -0.92023,0.0947 -1.33038,0 -2.11388,-0.83609 -0.7835,-0.83609 -0.7835,-2.25586 0,-1.44081 0.78876,-2.26638 0.79402,-0.82557 2.17172,-0.82557 0.44697,0 0.8729,0.0947 0.42593,0.0894 0.82557,0.27344 z" />
    <path
       id="path169"
       style="fill:#ff0000"
       d="m 260.2853,117.17353 q -0.77825,0 -1.23047,0.60997 -0.45222,0.60472 -0.45222,1.66166 0,1.05694 0.44696,1.66692 0.45223,0.60471 1.23573,0.60471 0.77299,0 1.22521,-0.60997 0.45222,-0.60998 0.45222,-1.66166 0,-1.04642 -0.45222,-1.6564 -0.45222,-0.61523 -1.22521,-0.61523 z m 0,-0.82032 q 1.26202,0 1.98242,0.82032 0.7204,0.82031 0.7204,2.27163 0,1.44606 -0.7204,2.27163 -0.7204,0.82032 -1.98242,0.82032 -1.26728,0 -1.98768,-0.82032 -0.71514,-0.82557 -0.71514,-2.27163 0,-1.45132 0.71514,-2.27163 0.7204,-0.82032 1.98768,-0.82032 z" />
    <path
       id="path171"
       style="fill:#ff0000"
       d="m 269.48227,118.82993 v 3.55468 h -0.96754 v -3.52313 q 0,-0.83609 -0.32603,-1.25151 -0.32602,-0.41541 -0.97806,-0.41541 -0.78351,0 -1.23573,0.49955 -0.45222,0.49955 -0.45222,1.36193 v 3.32857 h -0.97281 v -5.88942 h 0.97281 v 0.91496 q 0.34705,-0.5311 0.81505,-0.79402 0.47326,-0.26292 1.08849,-0.26292 1.01488,0 1.53546,0.63101 0.52058,0.62575 0.52058,1.84571 z" />
    <path
       id="path173"
       style="fill:#ff0000"
       d="m 272.37966,114.82301 v 1.67218 h 1.99294 v 0.75195 h -1.99294 v 3.19712 q 0,0.7204 0.19456,0.92548 0.19982,0.20508 0.80454,0.20508 h 0.99384 v 0.80979 h -0.99384 q -1.12004,0 -1.54598,-0.41541 -0.42593,-0.42067 -0.42593,-1.52494 v -3.19712 h -0.70988 v -0.75195 h 0.70988 v -1.67218 z" />
    <path
       id="path175"
       style="fill:#ff0000"
       d="m 280.68796,119.19801 v 0.47326 h -4.44862 q 0.0631,0.9991 0.59946,1.52494 0.54161,0.52058 1.5039,0.52058 0.5574,0 1.07798,-0.13671 0.52584,-0.13672 1.04116,-0.41016 v 0.91496 q -0.52058,0.22086 -1.06745,0.33654 -0.54688,0.11569 -1.10953,0.11569 -1.40925,0 -2.23482,-0.82032 -0.82032,-0.82031 -0.82032,-2.21905 0,-1.44606 0.77825,-2.29266 0.7835,-0.85187 2.10862,-0.85187 1.1884,0 1.87726,0.76773 0.69411,0.76247 0.69411,2.07707 z m -0.96755,-0.28395 q -0.0105,-0.79402 -0.44697,-1.26728 -0.43119,-0.47325 -1.14633,-0.47325 -0.8098,0 -1.29883,0.45748 -0.48377,0.45748 -0.55739,1.28831 z" />
    <path
       id="path177"
       style="fill:#ff0000"
       d="m 286.98227,116.49519 -2.12965,2.86584 2.24008,3.02358 h -1.14108 l -1.71424,-2.3137 -1.71424,2.3137 h -1.14108 l 2.28741,-3.08143 -2.09285,-2.80799 h 1.14108 l 1.56175,2.09811 1.56175,-2.09811 z" />
    <path
       id="path179"
       style="fill:#ff0000"
       d="m 289.41692,114.82301 v 1.67218 h 1.99294 v 0.75195 h -1.99294 v 3.19712 q 0,0.7204 0.19456,0.92548 0.19982,0.20508 0.80454,0.20508 h 0.99384 v 0.80979 h -0.99384 q -1.12004,0 -1.54597,-0.41541 -0.42594,-0.42067 -0.42594,-1.52494 v -3.19712 h -0.70988 v -0.75195 h 0.70988 v -1.67218 z" />
    <path
       id="path181"
       style="fill:#ff0000"
       d="m 294.94878,114.20252 v 9.60186 h -2.22957 v -0.75195 h 1.25676 v -8.09796 h -1.25676 v -0.75195 z" />
  </g>
  <g
     id="text89"
     style="font-size:24px;font-family:sans-serif;text-anchor:middle;fill:#000000"
     aria-label="[MISSING: NeedyVentComponent/button_y]">
    <path
       id="path184"
       style="fill:#ff0000"
       d="m -120.04687,278.76563 h 4.96875 v 1.67578 h -2.8125 v 18.04687 h 2.8125 v 1.67578 h -4.96875 z" />
    <path
       id="path186"
       style="fill:#ff0000"
       d="m -110.37891,279.50391 h 3.52735 l 4.46484,11.90625 4.488282,-11.90625 h 3.527344 V 297 h -2.308594 v -15.36328 l -4.511722,12 h -2.3789 l -4.51172,-12 V 297 h -2.29688 z" />
    <path
       id="path188"
       style="fill:#ff0000"
       d="m -89.660156,279.50391 h 2.367187 V 297 h -2.367187 z" />
    <path
       id="path190"
       style="fill:#ff0000"
       d="m -72.09375,280.07813 v 2.30859 q -1.347656,-0.64453 -2.542969,-0.96094 -1.195312,-0.3164 -2.308594,-0.3164 -1.933593,0 -2.988281,0.75 -1.042969,0.75 -1.042969,2.13281 0,1.16015 0.691407,1.75781 0.703125,0.58594 2.648437,0.94922 l 1.429688,0.29297 q 2.648437,0.5039 3.902343,1.78125 1.265625,1.26562 1.265625,3.39844 0,2.54296 -1.710937,3.85546 -1.699219,1.3125 -4.992188,1.3125 -1.242187,0 -2.648437,-0.28125 -1.394531,-0.28125 -2.894531,-0.83203 v -2.4375 q 1.441406,0.8086 2.824218,1.21875 1.382813,0.41016 2.71875,0.41016 2.027344,0 3.128907,-0.79688 1.101562,-0.79687 1.101562,-2.27343 0,-1.28907 -0.796875,-2.01563 -0.785156,-0.72656 -2.589844,-1.08984 l -1.441406,-0.28125 q -2.648437,-0.52735 -3.832031,-1.65235 -1.183594,-1.125 -1.183594,-3.1289 0,-2.32031 1.628906,-3.65625 1.640625,-1.33594 4.511719,-1.33594 1.230469,0 2.507813,0.22266 1.277343,0.22265 2.613281,0.66797 z" />
    <path
       id="path192"
       style="fill:#ff0000"
       d="m -56.859375,280.07813 v 2.30859 q -1.347656,-0.64453 -2.542969,-0.96094 -1.195312,-0.3164 -2.308594,-0.3164 -1.933593,0 -2.988281,0.75 -1.042969,0.75 -1.042969,2.13281 0,1.16015 0.691407,1.75781 0.703125,0.58594 2.648437,0.94922 l 1.429688,0.29297 q 2.648437,0.5039 3.902343,1.78125 1.265625,1.26562 1.265625,3.39844 0,2.54296 -1.710937,3.85546 -1.699219,1.3125 -4.992188,1.3125 -1.242187,0 -2.648437,-0.28125 -1.394531,-0.28125 -2.894531,-0.83203 v -2.4375 q 1.441406,0.8086 2.824218,1.21875 1.382813,0.41016 2.71875,0.41016 2.027344,0 3.128907,-0.79688 1.101562,-0.79687 1.101562,-2.27343 0,-1.28907 -0.796875,-2.01563 -0.785156,-0.72656 -2.589844,-1.08984 l -1.441406,-0.28125 q -2.648437,-0.52735 -3.832031,-1.65235 -1.183594,-1.125 -1.183594,-3.1289 0,-2.32031 1.628906,-3.65625 1.640625,-1.33594 4.511719,-1.33594 1.230469,0 2.507813,0.22266 1.277343,0.22265 2.613281,0.66797 z" />
    <path
       id="path194"
       style="fill:#ff0000"
       d="m -52.113281,279.50391 h 2.367187 V 297 h -2.367187 z" />
    <path
       id="path196"
       style="fill:#ff0000"
       d="m -45.035156,279.50391 h 3.1875 l 7.757812,14.63672 v -14.63672 h 2.296875 V 297 h -3.1875 l -7.757812,-14.63672 V 297 h -2.296875 z" />
    <path
       id="path198"
       style="fill:#ff0000"
       d="m -15.152344,294.50391 v -4.69922 h -3.867187 v -1.94531 h 6.210937 v 7.51171 q -1.371093,0.97266 -3.023437,1.47657 -1.652344,0.49218 -3.527344,0.49218 -4.101563,0 -6.421875,-2.39062 -2.308594,-2.40234 -2.308594,-6.67969 0,-4.28906 2.308594,-6.67969 2.320312,-2.40234 6.421875,-2.40234 1.710937,0 3.246094,0.42188 1.546875,0.42187 2.847656,1.24218 v 2.51953 q -1.3125,-1.11328 -2.789063,-1.67578 -1.476562,-0.5625 -3.105468,-0.5625 -3.210938,0 -4.828125,1.79297 -1.605469,1.79297 -1.605469,5.34375 0,3.53906 1.605469,5.33203 1.617187,1.79297 4.828125,1.79297 1.253906,0 2.238281,-0.21094 0.984375,-0.22265 1.769531,-0.67968 z" />
    <path
       id="path200"
       style="fill:#ff0000"
       d="m -8.015625,294.02344 h 2.4726562 V 297 H -8.015625 Z m 0,-9.4336 h 2.4726562 v 2.97657 H -8.015625 Z" />
    <path
       id="path202"
       style="fill:#ff0000"
       d="m 7.2773438,279.50391 h 3.1875002 l 7.757812,14.63672 v -14.63672 h 2.296875 V 297 h -3.1875 L 9.5742187,282.36328 V 297 H 7.2773438 Z" />
    <path
       id="path204"
       style="fill:#ff0000"
       d="m 36.363281,289.89844 v 1.05469 h -9.914062 q 0.140625,2.22656 1.335937,3.39843 1.207032,1.16016 3.351563,1.16016 1.242187,0 2.402344,-0.30469 1.171875,-0.30469 2.320312,-0.91406 v 2.03906 q -1.160156,0.49219 -2.378906,0.75 -1.21875,0.25781 -2.472656,0.25781 -3.140625,0 -4.980469,-1.82812 -1.828125,-1.82813 -1.828125,-4.94531 0,-3.22266 1.734375,-5.10938 1.746094,-1.89844 4.699219,-1.89844 2.648437,0 4.183593,1.71094 1.546875,1.69922 1.546875,4.62891 z m -2.15625,-0.63281 q -0.02344,-1.76954 -0.996093,-2.82422 -0.960938,-1.05469 -2.554688,-1.05469 -1.804687,0 -2.894531,1.01953 -1.078125,1.01953 -1.242188,2.87109 z" />
    <path
       id="path206"
       style="fill:#ff0000"
       d="m 51.128906,289.89844 v 1.05469 h -9.914062 q 0.140625,2.22656 1.335937,3.39843 1.207032,1.16016 3.351563,1.16016 1.242187,0 2.402344,-0.30469 1.171875,-0.30469 2.320312,-0.91406 v 2.03906 q -1.160156,0.49219 -2.378906,0.75 -1.21875,0.25781 -2.472656,0.25781 -3.140625,0 -4.980469,-1.82812 -1.828125,-1.82813 -1.828125,-4.94531 0,-3.22266 1.734375,-5.10938 1.746094,-1.89844 4.699219,-1.89844 2.648437,0 4.183593,1.71094 1.546875,1.69922 1.546875,4.62891 z m -2.15625,-0.63281 q -0.02344,-1.76954 -0.996093,-2.82422 -0.960938,-1.05469 -2.554688,-1.05469 -1.804687,0 -2.894531,1.01953 -1.078125,1.01953 -1.242188,2.87109 z" />
    <path
       id="path208"
       style="fill:#ff0000"
       d="m 63.304688,285.86719 v -7.10156 h 2.15625 V 297 h -2.15625 v -1.96875 q -0.679688,1.17188 -1.722657,1.74609 -1.03125,0.5625 -2.484375,0.5625 -2.378906,0 -3.878906,-1.89843 -1.488281,-1.89844 -1.488281,-4.99219 0,-3.09375 1.488281,-4.99219 1.5,-1.89844 3.878906,-1.89844 1.453125,0 2.484375,0.57422 1.042969,0.5625 1.722657,1.73438 z m -7.347657,4.58203 q 0,2.37891 0.972657,3.73828 0.984375,1.34766 2.695312,1.34766 1.710938,0 2.695313,-1.34766 0.984375,-1.35937 0.984375,-3.73828 0,-2.37891 -0.984375,-3.72656 -0.984375,-1.35938 -2.695313,-1.35938 -1.710937,0 -2.695312,1.35938 -0.972657,1.34765 -0.972657,3.72656 z" />
    <path
       id="path210"
       style="fill:#ff0000"
       d="m 75.363281,298.21875 q -0.914062,2.34375 -1.78125,3.05859 -0.867187,0.71485 -2.320312,0.71485 h -1.722656 v -1.80469 h 1.265625 q 0.890625,0 1.382812,-0.42187 0.492188,-0.42188 1.089844,-1.99219 l 0.386719,-0.98438 -5.308594,-12.91406 h 2.285156 l 4.101563,10.26563 4.101562,-10.26563 h 2.285156 z" />
    <path
       id="path212"
       style="fill:#ff0000"
       d="M 88.710938,297 82.03125,279.50391 h 2.472656 l 5.542969,14.73047 5.554688,-14.73047 H 98.0625 L 91.394531,297 Z" />
    <path
       id="path214"
       style="fill:#ff0000"
       d="m 109.86328,289.89844 v 1.05469 h -9.914061 q 0.140621,2.22656 1.335941,3.39843 1.20703,1.16016 3.35156,1.16016 1.24219,0 2.40234,-0.30469 1.17188,-0.30469 2.32031,-0.91406 v 2.03906 q -1.16015,0.49219 -2.3789,0.75 -1.21875,0.25781 -2.47266,0.25781 -3.14062,0 -4.980466,-1.82812 -1.828125,-1.82813 -1.828125,-4.94531 0,-3.22266 1.734375,-5.10938 1.746096,-1.89844 4.699216,-1.89844 2.64844,0 4.1836,1.71094 1.54687,1.69922 1.54687,4.62891 z m -2.15625,-0.63281 q -0.0234,-1.76954 -0.99609,-2.82422 -0.96094,-1.05469 -2.55469,-1.05469 -1.80469,0 -2.89453,1.01953 -1.07813,1.01953 -1.24219,2.87109 z" />
    <path
       id="path216"
       style="fill:#ff0000"
       d="M 124.3125,289.07813 V 297 h -2.15625 v -7.85156 q 0,-1.86328 -0.72656,-2.78906 -0.72657,-0.92579 -2.17969,-0.92579 -1.74609,0 -2.75391,1.11329 -1.00781,1.11328 -1.00781,3.03515 V 297 h -2.16797 v -13.125 h 2.16797 v 2.03906 q 0.77344,-1.18359 1.81641,-1.76953 1.05468,-0.58594 2.42578,-0.58594 2.26172,0 3.42187,1.40625 1.16016,1.39454 1.16016,4.11329 z" />
    <path
       id="path218"
       style="fill:#ff0000"
       d="m 130.76953,280.14844 v 3.72656 h 4.44141 v 1.67578 h -4.44141 v 7.125 q 0,1.60547 0.4336,2.0625 0.44531,0.45703 1.79296,0.45703 h 2.21485 V 297 h -2.21485 q -2.49609,0 -3.44531,-0.92578 -0.94922,-0.9375 -0.94922,-3.39844 v -7.125 h -1.58203 V 283.875 h 1.58203 v -3.72656 z" />
    <path
       id="path220"
       style="fill:#ff0000"
       d="m 151.25391,280.85156 v 2.4961 q -1.19532,-1.11328 -2.55469,-1.66407 -1.34766,-0.55078 -2.87109,-0.55078 -3,0 -4.59375,1.83985 -1.59375,1.82812 -1.59375,5.29687 0,3.45703 1.59375,5.29688 1.59375,1.82812 4.59375,1.82812 1.52343,0 2.87109,-0.55078 1.35937,-0.55078 2.55469,-1.66406 v 2.47265 q -1.24219,0.84375 -2.63672,1.26563 -1.38281,0.42187 -2.92969,0.42187 -3.97266,0 -6.25781,-2.42578 -2.28516,-2.4375 -2.28516,-6.64453 0,-4.21875 2.28516,-6.64453 2.28515,-2.4375 6.25781,-2.4375 1.57031,0 2.95313,0.42188 1.39453,0.41015 2.61328,1.24218 z" />
    <path
       id="path222"
       style="fill:#ff0000"
       d="m 159.92578,285.38672 q -1.73437,0 -2.74219,1.35937 -1.00781,1.34766 -1.00781,3.70313 0,2.35547 0.9961,3.71484 1.00781,1.34766 2.7539,1.34766 1.72266,0 2.73047,-1.35938 1.00781,-1.35937 1.00781,-3.70312 0,-2.33203 -1.00781,-3.69141 -1.00781,-1.37109 -2.73047,-1.37109 z m 0,-1.82813 q 2.8125,0 4.41797,1.82813 1.60547,1.82812 1.60547,5.0625 0,3.22266 -1.60547,5.0625 -1.60547,1.82812 -4.41797,1.82812 -2.82422,0 -4.42969,-1.82812 -1.59375,-1.83984 -1.59375,-5.0625 0,-3.23438 1.59375,-5.0625 1.60547,-1.82813 4.42969,-1.82813 z" />
    <path
       id="path224"
       style="fill:#ff0000"
       d="m 179.73047,286.39453 q 0.80859,-1.45312 1.93359,-2.14453 1.125,-0.69141 2.64844,-0.69141 2.05078,0 3.16406,1.44141 1.11328,1.42969 1.11328,4.07813 V 297 h -2.16796 v -7.85156 q 0,-1.88672 -0.66797,-2.80078 -0.66797,-0.91407 -2.03907,-0.91407 -1.67578,0 -2.64843,1.11329 -0.97266,1.11328 -0.97266,3.03515 V 297 h -2.16797 v -7.85156 q 0,-1.89844 -0.66797,-2.80078 -0.66797,-0.91407 -2.0625,-0.91407 -1.65234,0 -2.625,1.125 -0.97265,1.11329 -0.97265,3.02344 V 297 h -2.16797 v -13.125 h 2.16797 v 2.03906 q 0.73828,-1.20703 1.76953,-1.78125 1.03125,-0.57422 2.44922,-0.57422 1.42968,0 2.42578,0.72657 1.00781,0.72656 1.48828,2.10937 z" />
    <path
       id="path226"
       style="fill:#ff0000"
       d="m 194.98828,295.03125 v 6.96094 h -2.16797 V 283.875 h 2.16797 v 1.99219 q 0.67969,-1.17188 1.71094,-1.73438 1.04297,-0.57422 2.48437,-0.57422 2.39063,0 3.87891,1.89844 1.5,1.89844 1.5,4.99219 0,3.09375 -1.5,4.99219 -1.48828,1.89843 -3.87891,1.89843 -1.4414,0 -2.48437,-0.5625 -1.03125,-0.57421 -1.71094,-1.74609 z m 7.33594,-4.58203 q 0,-2.37891 -0.98438,-3.72656 -0.97265,-1.35938 -2.68359,-1.35938 -1.71094,0 -2.69531,1.35938 -0.97266,1.34765 -0.97266,3.72656 0,2.37891 0.97266,3.73828 0.98437,1.34766 2.69531,1.34766 1.71094,0 2.68359,-1.34766 0.98438,-1.35937 0.98438,-3.73828 z" />
    <path
       id="path228"
       style="fill:#ff0000"
       d="m 213.22266,285.38672 q -1.73438,0 -2.74219,1.35937 -1.00781,1.34766 -1.00781,3.70313 0,2.35547 0.99609,3.71484 1.00781,1.34766 2.75391,1.34766 1.72265,0 2.73047,-1.35938 1.00781,-1.35937 1.00781,-3.70312 0,-2.33203 -1.00781,-3.69141 -1.00782,-1.37109 -2.73047,-1.37109 z m 0,-1.82813 q 2.8125,0 4.41797,1.82813 1.60546,1.82812 1.60546,5.0625 0,3.22266 -1.60546,5.0625 -1.60547,1.82812 -4.41797,1.82812 -2.82422,0 -4.42969,-1.82812 -1.59375,-1.83984 -1.59375,-5.0625 0,-3.23438 1.59375,-5.0625 1.60547,-1.82813 4.42969,-1.82813 z" />
    <path
       id="path230"
       style="fill:#ff0000"
       d="M 233.71875,289.07813 V 297 h -2.15625 v -7.85156 q 0,-1.86328 -0.72656,-2.78906 -0.72656,-0.92579 -2.17969,-0.92579 -1.74609,0 -2.75391,1.11329 -1.00781,1.11328 -1.00781,3.03515 V 297 h -2.16797 v -13.125 h 2.16797 v 2.03906 q 0.77344,-1.18359 1.81641,-1.76953 1.05469,-0.58594 2.42578,-0.58594 2.26172,0 3.42187,1.40625 1.16016,1.39454 1.16016,4.11329 z" />
    <path
       id="path232"
       style="fill:#ff0000"
       d="m 249.26953,289.89844 v 1.05469 h -9.91406 q 0.14062,2.22656 1.33594,3.39843 1.20703,1.16016 3.35156,1.16016 1.24219,0 2.40234,-0.30469 1.17188,-0.30469 2.32032,-0.91406 v 2.03906 q -1.16016,0.49219 -2.37891,0.75 -1.21875,0.25781 -2.47266,0.25781 -3.14062,0 -4.98047,-1.82812 -1.82812,-1.82813 -1.82812,-4.94531 0,-3.22266 1.73437,-5.10938 1.7461,-1.89844 4.69922,-1.89844 2.64844,0 4.1836,1.71094 1.54687,1.69922 1.54687,4.62891 z m -2.15625,-0.63281 q -0.0234,-1.76954 -0.99609,-2.82422 -0.96094,-1.05469 -2.55469,-1.05469 -1.80469,0 -2.89453,1.01953 -1.07813,1.01953 -1.24219,2.87109 z" />
    <path
       id="path234"
       style="fill:#ff0000"
       d="M 263.71875,289.07813 V 297 h -2.15625 v -7.85156 q 0,-1.86328 -0.72656,-2.78906 -0.72656,-0.92579 -2.17969,-0.92579 -1.74609,0 -2.75391,1.11329 -1.00781,1.11328 -1.00781,3.03515 V 297 h -2.16797 v -13.125 h 2.16797 v 2.03906 q 0.77344,-1.18359 1.81641,-1.76953 1.05469,-0.58594 2.42578,-0.58594 2.26172,0 3.42187,1.40625 1.16016,1.39454 1.16016,4.11329 z" />
    <path
       id="path236"
       style="fill:#ff0000"
       d="m 270.17578,280.14844 v 3.72656 h 4.44141 v 1.67578 h -4.44141 v 7.125 q 0,1.60547 0.4336,2.0625 0.44531,0.45703 1.79296,0.45703 h 2.21485 V 297 h -2.21485 q -2.49609,0 -3.44531,-0.92578 -0.94922,-0.9375 -0.94922,-3.39844 v -7.125 h -1.58203 V 283.875 h 1.58203 v -3.72656 z" />
    <path
       id="path238"
       style="fill:#ff0000"
       d="m 281.29688,279.50391 h 1.99218 l -6.09375,19.72265 h -1.99218 z" />
    <path
       id="path240"
       style="fill:#ff0000"
       d="m 294.99609,290.44922 q 0,-2.37891 -0.98437,-3.72656 -0.97266,-1.35938 -2.68359,-1.35938 -1.71094,0 -2.69532,1.35938 -0.97265,1.34765 -0.97265,3.72656 0,2.37891 0.97265,3.73828 0.98438,1.34766 2.69532,1.34766 1.71093,0 2.68359,-1.34766 0.98437,-1.35937 0.98437,-3.73828 z m -7.33593,-4.58203 q 0.67968,-1.17188 1.71093,-1.73438 1.04297,-0.57422 2.48438,-0.57422 2.39062,0 3.87891,1.89844 1.5,1.89844 1.5,4.99219 0,3.09375 -1.5,4.99219 -1.48829,1.89843 -3.87891,1.89843 -1.44141,0 -2.48438,-0.5625 -1.03125,-0.57421 -1.71093,-1.74609 V 297 h -2.16797 v -18.23437 h 2.16797 z" />
    <path
       id="path242"
       style="fill:#ff0000"
       d="M 300.58594,291.82031 V 283.875 h 2.15625 v 7.86328 q 0,1.86328 0.72656,2.80078 0.72656,0.92578 2.17969,0.92578 1.74609,0 2.7539,-1.11328 1.01954,-1.11328 1.01954,-3.03515 V 283.875 h 2.15625 V 297 h -2.15625 v -2.01562 q -0.78516,1.19531 -1.82813,1.78125 -1.03125,0.57421 -2.40234,0.57421 -2.26172,0 -3.4336,-1.40625 -1.17187,-1.40625 -1.17187,-4.11328 z m 5.42578,-8.26172 z" />
    <path
       id="path244"
       style="fill:#ff0000"
       d="m 318.17578,280.14844 v 3.72656 h 4.44141 v 1.67578 h -4.44141 v 7.125 q 0,1.60547 0.4336,2.0625 0.44531,0.45703 1.79296,0.45703 h 2.21485 V 297 h -2.21485 q -2.49609,0 -3.44531,-0.92578 -0.94922,-0.9375 -0.94922,-3.39844 v -7.125 h -1.58203 V 283.875 h 1.58203 v -3.72656 z" />
    <path
       id="path246"
       style="fill:#ff0000"
       d="m 327.59766,280.14844 v 3.72656 h 4.4414 v 1.67578 h -4.4414 v 7.125 q 0,1.60547 0.43359,2.0625 0.44531,0.45703 1.79297,0.45703 h 2.21484 V 297 h -2.21484 q -2.49609,0 -3.44531,-0.92578 -0.94922,-0.9375 -0.94922,-3.39844 v -7.125 h -1.58203 V 283.875 h 1.58203 v -3.72656 z" />
    <path
       id="path248"
       style="fill:#ff0000"
       d="m 339.97266,285.38672 q -1.73438,0 -2.74219,1.35937 -1.00781,1.34766 -1.00781,3.70313 0,2.35547 0.99609,3.71484 1.00781,1.34766 2.75391,1.34766 1.72265,0 2.73047,-1.35938 1.00781,-1.35937 1.00781,-3.70312 0,-2.33203 -1.00781,-3.69141 -1.00782,-1.37109 -2.73047,-1.37109 z m 0,-1.82813 q 2.8125,0 4.41797,1.82813 1.60546,1.82812 1.60546,5.0625 0,3.22266 -1.60546,5.0625 -1.60547,1.82812 -4.41797,1.82812 -2.82422,0 -4.42969,-1.82812 -1.59375,-1.83984 -1.59375,-5.0625 0,-3.23438 1.59375,-5.0625 1.60547,-1.82813 4.42969,-1.82813 z" />
    <path
       id="path250"
       style="fill:#ff0000"
       d="M 360.46875,289.07813 V 297 h -2.15625 v -7.85156 q 0,-1.86328 -0.72656,-2.78906 -0.72656,-0.92579 -2.17969,-0.92579 -1.74609,0 -2.75391,1.11329 -1.00781,1.11328 -1.00781,3.03515 V 297 h -2.16797 v -13.125 h 2.16797 v 2.03906 q 0.77344,-1.18359 1.81641,-1.76953 1.05469,-0.58594 2.42578,-0.58594 2.26172,0 3.42187,1.40625 1.16016,1.39454 1.16016,4.11329 z" />
    <path
       id="path252"
       style="fill:#ff0000"
       d="m 374.76563,300.98438 v 1.67578 h -12.46875 v -1.67578 z" />
    <path
       id="path254"
       style="fill:#ff0000"
       d="m 382.25391,298.21875 q -0.91407,2.34375 -1.78125,3.05859 -0.86719,0.71485 -2.32032,0.71485 h -1.72265 v -1.80469 h 1.26562 q 0.89063,0 1.38282,-0.42187 0.49218,-0.42188 1.08984,-1.99219 l 0.38672,-0.98438 -5.3086,-12.91406 h 2.28516 l 4.10156,10.26563 4.10157,-10.26563 h 2.28515 z" />
    <path
       id="path256"
       style="fill:#ff0000"
       d="m 396.03516,278.76563 v 21.39843 h -4.96875 v -1.67578 h 2.80078 v -18.04687 h -2.80078 v -1.67578 z" />
  </g>
  <g
     id="text93"
     style="font-size:24px;font-family:sans-serif;text-anchor:middle;fill:#000000"
     aria-label="[MISSING: NeedyVentComponent/button_n]">
    <path
       id="path259"
       style="fill:#ff0000"
       d="m -50.5625,278.76563 h 4.96875 v 1.67578 h -2.8125 v 18.04687 h 2.8125 v 1.67578 h -4.96875 z" />
    <path
       id="path261"
       style="fill:#ff0000"
       d="m -40.894531,279.50391 h 3.527343 l 4.464844,11.90625 4.488281,-11.90625 h 3.527344 V 297 h -2.308594 v -15.36328 l -4.511718,12 h -2.378907 l -4.511718,-12 V 297 h -2.296875 z" />
    <path
       id="path263"
       style="fill:#ff0000"
       d="m -20.175781,279.50391 h 2.367187 V 297 h -2.367187 z" />
    <path
       id="path265"
       style="fill:#ff0000"
       d="m -2.609375,280.07813 v 2.30859 q -1.3476562,-0.64453 -2.5429688,-0.96094 -1.1953125,-0.3164 -2.3085937,-0.3164 -1.9335937,0 -2.9882815,0.75 -1.042968,0.75 -1.042968,2.13281 0,1.16015 0.691406,1.75781 0.703125,0.58594 2.6484373,0.94922 l 1.4296874,0.29297 q 2.6484375,0.5039 3.9023438,1.78125 1.265625,1.26562 1.265625,3.39844 0,2.54296 -1.7109375,3.85546 -1.6992188,1.3125 -4.9921875,1.3125 -1.2421875,0 -2.6484375,-0.28125 -1.394531,-0.28125 -2.894531,-0.83203 v -2.4375 q 1.441406,0.8086 2.824219,1.21875 1.382812,0.41016 2.7187495,0.41016 2.0273437,0 3.1289062,-0.79688 1.1015625,-0.79687 1.1015625,-2.27343 0,-1.28907 -0.796875,-2.01563 -0.7851562,-0.72656 -2.5898437,-1.08984 l -1.4414062,-0.28125 q -2.6484373,-0.52735 -3.8320313,-1.65235 -1.183594,-1.125 -1.183594,-3.1289 0,-2.32031 1.628907,-3.65625 1.640625,-1.33594 4.5117182,-1.33594 1.2304688,0 2.5078125,0.22266 1.2773438,0.22265 2.6132813,0.66797 z" />
    <path
       id="path267"
       style="fill:#ff0000"
       d="m 12.625,280.07813 v 2.30859 q -1.347656,-0.64453 -2.542969,-0.96094 -1.1953123,-0.3164 -2.3085935,-0.3164 -1.9335937,0 -2.9882812,0.75 -1.0429688,0.75 -1.0429688,2.13281 0,1.16015 0.6914063,1.75781 0.703125,0.58594 2.6484375,0.94922 l 1.4296874,0.29297 q 2.6484373,0.5039 3.9023433,1.78125 1.265625,1.26562 1.265625,3.39844 0,2.54296 -1.710937,3.85546 -1.699219,1.3125 -4.9921875,1.3125 -1.2421875,0 -2.6484375,-0.28125 -1.3945313,-0.28125 -2.8945312,-0.83203 v -2.4375 q 1.4414062,0.8086 2.8242187,1.21875 1.3828125,0.41016 2.71875,0.41016 2.0273437,0 3.1289065,-0.79688 1.101562,-0.79687 1.101562,-2.27343 0,-1.28907 -0.796875,-2.01563 Q 9.625,289.60547 7.8203125,289.24219 l -1.4414062,-0.28125 q -2.6484376,-0.52735 -3.8320313,-1.65235 -1.1835937,-1.125 -1.1835937,-3.1289 0,-2.32031 1.6289062,-3.65625 1.640625,-1.33594 4.5117188,-1.33594 1.2304687,0 2.5078127,0.22266 1.277343,0.22265 2.613281,0.66797 z" />
    <path
       id="path269"
       style="fill:#ff0000"
       d="m 17.371094,279.50391 h 2.367187 V 297 h -2.367187 z" />
    <path
       id="path271"
       style="fill:#ff0000"
       d="m 24.449219,279.50391 h 3.1875 l 7.757812,14.63672 v -14.63672 h 2.296875 V 297 h -3.1875 L 26.746094,282.36328 V 297 h -2.296875 z" />
    <path
       id="path273"
       style="fill:#ff0000"
       d="m 54.332031,294.50391 v -4.69922 h -3.867187 v -1.94531 h 6.210937 v 7.51171 q -1.371093,0.97266 -3.023437,1.47657 Q 52,297.33984 50.125,297.33984 q -4.101562,0 -6.421875,-2.39062 -2.308594,-2.40234 -2.308594,-6.67969 0,-4.28906 2.308594,-6.67969 2.320313,-2.40234 6.421875,-2.40234 1.710938,0 3.246094,0.42188 1.546875,0.42187 2.847656,1.24218 v 2.51953 q -1.3125,-1.11328 -2.789062,-1.67578 -1.476563,-0.5625 -3.105469,-0.5625 -3.210938,0 -4.828125,1.79297 -1.605469,1.79297 -1.605469,5.34375 0,3.53906 1.605469,5.33203 1.617187,1.79297 4.828125,1.79297 1.253906,0 2.238281,-0.21094 0.984375,-0.22265 1.769531,-0.67968 z" />
    <path
       id="path275"
       style="fill:#ff0000"
       d="m 61.46875,294.02344 h 2.472656 V 297 H 61.46875 Z m 0,-9.4336 h 2.472656 v 2.97657 H 61.46875 Z" />
    <path
       id="path277"
       style="fill:#ff0000"
       d="m 76.761719,279.50391 h 3.1875 l 7.757812,14.63672 v -14.63672 h 2.296875 V 297 h -3.1875 L 79.058594,282.36328 V 297 h -2.296875 z" />
    <path
       id="path279"
       style="fill:#ff0000"
       d="m 105.84766,289.89844 v 1.05469 h -9.914066 q 0.140625,2.22656 1.335937,3.39843 1.207032,1.16016 3.351559,1.16016 1.24219,0 2.40235,-0.30469 1.17187,-0.30469 2.32031,-0.91406 v 2.03906 q -1.16016,0.49219 -2.37891,0.75 -1.21875,0.25781 -2.47265,0.25781 -3.140627,0 -4.980471,-1.82812 -1.828125,-1.82813 -1.828125,-4.94531 0,-3.22266 1.734375,-5.10938 1.746094,-1.89844 4.699221,-1.89844 2.64843,0 4.18359,1.71094 1.54688,1.69922 1.54688,4.62891 z m -2.15625,-0.63281 q -0.0234,-1.76954 -0.9961,-2.82422 -0.96094,-1.05469 -2.55469,-1.05469 -1.804682,0 -2.894526,1.01953 -1.078125,1.01953 -1.242188,2.87109 z" />
    <path
       id="path281"
       style="fill:#ff0000"
       d="m 120.61328,289.89844 v 1.05469 h -9.91406 q 0.14062,2.22656 1.33594,3.39843 1.20703,1.16016 3.35156,1.16016 1.24219,0 2.40234,-0.30469 1.17188,-0.30469 2.32031,-0.91406 v 2.03906 q -1.16015,0.49219 -2.3789,0.75 -1.21875,0.25781 -2.47266,0.25781 -3.14062,0 -4.98047,-1.82812 -1.82812,-1.82813 -1.82812,-4.94531 0,-3.22266 1.73437,-5.10938 1.7461,-1.89844 4.69922,-1.89844 2.64844,0 4.1836,1.71094 1.54687,1.69922 1.54687,4.62891 z m -2.15625,-0.63281 q -0.0234,-1.76954 -0.99609,-2.82422 -0.96094,-1.05469 -2.55469,-1.05469 -1.80469,0 -2.89453,1.01953 -1.07813,1.01953 -1.24219,2.87109 z" />
    <path
       id="path283"
       style="fill:#ff0000"
       d="m 132.78906,285.86719 v -7.10156 h 2.15625 V 297 h -2.15625 v -1.96875 q -0.67968,1.17188 -1.72265,1.74609 -1.03125,0.5625 -2.48438,0.5625 -2.37891,0 -3.87891,-1.89843 -1.48828,-1.89844 -1.48828,-4.99219 0,-3.09375 1.48828,-4.99219 1.5,-1.89844 3.87891,-1.89844 1.45313,0 2.48438,0.57422 1.04297,0.5625 1.72265,1.73438 z m -7.34765,4.58203 q 0,2.37891 0.97265,3.73828 0.98438,1.34766 2.69532,1.34766 1.71093,0 2.69531,-1.34766 0.98437,-1.35937 0.98437,-3.73828 0,-2.37891 -0.98437,-3.72656 -0.98438,-1.35938 -2.69531,-1.35938 -1.71094,0 -2.69532,1.35938 -0.97265,1.34765 -0.97265,3.72656 z" />
    <path
       id="path285"
       style="fill:#ff0000"
       d="m 144.84766,298.21875 q -0.91407,2.34375 -1.78125,3.05859 -0.86719,0.71485 -2.32032,0.71485 h -1.72265 v -1.80469 h 1.26562 q 0.89063,0 1.38282,-0.42187 0.49218,-0.42188 1.08984,-1.99219 l 0.38672,-0.98438 -5.3086,-12.91406 h 2.28516 l 4.10156,10.26563 4.10157,-10.26563 h 2.28515 z" />
    <path
       id="path287"
       style="fill:#ff0000"
       d="m 158.19531,297 -6.67968,-17.49609 h 2.47265 l 5.54297,14.73047 5.55469,-14.73047 h 2.46094 L 160.87891,297 Z" />
    <path
       id="path289"
       style="fill:#ff0000"
       d="m 179.34766,289.89844 v 1.05469 h -9.91407 q 0.14063,2.22656 1.33594,3.39843 1.20703,1.16016 3.35156,1.16016 1.24219,0 2.40235,-0.30469 1.17187,-0.30469 2.32031,-0.91406 v 2.03906 q -1.16016,0.49219 -2.37891,0.75 -1.21875,0.25781 -2.47265,0.25781 -3.14063,0 -4.98047,-1.82812 -1.82813,-1.82813 -1.82813,-4.94531 0,-3.22266 1.73438,-5.10938 1.74609,-1.89844 4.69922,-1.89844 2.64844,0 4.18359,1.71094 1.54688,1.69922 1.54688,4.62891 z m -2.15625,-0.63281 q -0.0234,-1.76954 -0.9961,-2.82422 -0.96093,-1.05469 -2.55468,-1.05469 -1.80469,0 -2.89454,1.01953 -1.07812,1.01953 -1.24218,2.87109 z" />
    <path
       id="path291"
       style="fill:#ff0000"
       d="M 193.79688,289.07813 V 297 h -2.15625 v -7.85156 q 0,-1.86328 -0.72657,-2.78906 -0.72656,-0.92579 -2.17968,-0.92579 -1.7461,0 -2.75391,1.11329 -1.00781,1.11328 -1.00781,3.03515 V 297 h -2.16797 v -13.125 h 2.16797 v 2.03906 q 0.77343,-1.18359 1.8164,-1.76953 1.05469,-0.58594 2.42578,-0.58594 2.26172,0 3.42188,1.40625 1.16016,1.39454 1.16016,4.11329 z" />
    <path
       id="path293"
       style="fill:#ff0000"
       d="m 200.25391,280.14844 v 3.72656 h 4.4414 v 1.67578 h -4.4414 v 7.125 q 0,1.60547 0.43359,2.0625 0.44531,0.45703 1.79297,0.45703 h 2.21484 V 297 h -2.21484 q -2.49609,0 -3.44531,-0.92578 -0.94922,-0.9375 -0.94922,-3.39844 v -7.125 h -1.58203 V 283.875 h 1.58203 v -3.72656 z" />
    <path
       id="path295"
       style="fill:#ff0000"
       d="m 220.73828,280.85156 v 2.4961 q -1.19531,-1.11328 -2.55469,-1.66407 -1.34765,-0.55078 -2.87109,-0.55078 -3,0 -4.59375,1.83985 -1.59375,1.82812 -1.59375,5.29687 0,3.45703 1.59375,5.29688 1.59375,1.82812 4.59375,1.82812 1.52344,0 2.87109,-0.55078 1.35938,-0.55078 2.55469,-1.66406 v 2.47265 q -1.24219,0.84375 -2.63672,1.26563 -1.38281,0.42187 -2.92968,0.42187 -3.97266,0 -6.25782,-2.42578 -2.28515,-2.4375 -2.28515,-6.64453 0,-4.21875 2.28515,-6.64453 2.28516,-2.4375 6.25782,-2.4375 1.57031,0 2.95312,0.42188 1.39453,0.41015 2.61328,1.24218 z" />
    <path
       id="path297"
       style="fill:#ff0000"
       d="m 229.41016,285.38672 q -1.73438,0 -2.74219,1.35937 -1.00781,1.34766 -1.00781,3.70313 0,2.35547 0.99609,3.71484 1.00781,1.34766 2.75391,1.34766 1.72265,0 2.73047,-1.35938 1.00781,-1.35937 1.00781,-3.70312 0,-2.33203 -1.00781,-3.69141 -1.00782,-1.37109 -2.73047,-1.37109 z m 0,-1.82813 q 2.8125,0 4.41797,1.82813 1.60546,1.82812 1.60546,5.0625 0,3.22266 -1.60546,5.0625 -1.60547,1.82812 -4.41797,1.82812 -2.82422,0 -4.42969,-1.82812 -1.59375,-1.83984 -1.59375,-5.0625 0,-3.23438 1.59375,-5.0625 1.60547,-1.82813 4.42969,-1.82813 z" />
    <path
       id="path299"
       style="fill:#ff0000"
       d="m 249.21484,286.39453 q 0.8086,-1.45312 1.9336,-2.14453 1.125,-0.69141 2.64844,-0.69141 2.05078,0 3.16406,1.44141 1.11328,1.42969 1.11328,4.07813 V 297 h -2.16797 v -7.85156 q 0,-1.88672 -0.66797,-2.80078 -0.66797,-0.91407 -2.03906,-0.91407 -1.67578,0 -2.64844,1.11329 -0.97265,1.11328 -0.97265,3.03515 V 297 h -2.16797 v -7.85156 q 0,-1.89844 -0.66797,-2.80078 -0.66797,-0.91407 -2.0625,-0.91407 -1.65235,0 -2.625,1.125 -0.97266,1.11329 -0.97266,3.02344 V 297 h -2.16797 v -13.125 h 2.16797 v 2.03906 q 0.73828,-1.20703 1.76953,-1.78125 1.03125,-0.57422 2.44922,-0.57422 1.42969,0 2.42578,0.72657 1.00782,0.72656 1.48828,2.10937 z" />
    <path
       id="path301"
       style="fill:#ff0000"
       d="m 264.47266,295.03125 v 6.96094 h -2.16797 V 283.875 h 2.16797 v 1.99219 q 0.67968,-1.17188 1.71093,-1.73438 1.04297,-0.57422 2.48438,-0.57422 2.39062,0 3.87891,1.89844 1.5,1.89844 1.5,4.99219 0,3.09375 -1.5,4.99219 -1.48829,1.89843 -3.87891,1.89843 -1.44141,0 -2.48438,-0.5625 -1.03125,-0.57421 -1.71093,-1.74609 z m 7.33593,-4.58203 q 0,-2.37891 -0.98437,-3.72656 -0.97266,-1.35938 -2.68359,-1.35938 -1.71094,0 -2.69532,1.35938 -0.97265,1.34765 -0.97265,3.72656 0,2.37891 0.97265,3.73828 0.98438,1.34766 2.69532,1.34766 1.71093,0 2.68359,-1.34766 0.98437,-1.35937 0.98437,-3.73828 z" />
    <path
       id="path303"
       style="fill:#ff0000"
       d="m 282.70703,285.38672 q -1.73437,0 -2.74219,1.35937 -1.00781,1.34766 -1.00781,3.70313 0,2.35547 0.9961,3.71484 1.00781,1.34766 2.7539,1.34766 1.72266,0 2.73047,-1.35938 1.00781,-1.35937 1.00781,-3.70312 0,-2.33203 -1.00781,-3.69141 -1.00781,-1.37109 -2.73047,-1.37109 z m 0,-1.82813 q 2.8125,0 4.41797,1.82813 1.60547,1.82812 1.60547,5.0625 0,3.22266 -1.60547,5.0625 -1.60547,1.82812 -4.41797,1.82812 -2.82422,0 -4.42969,-1.82812 -1.59375,-1.83984 -1.59375,-5.0625 0,-3.23438 1.59375,-5.0625 1.60547,-1.82813 4.42969,-1.82813 z" />
    <path
       id="path305"
       style="fill:#ff0000"
       d="M 303.20313,289.07813 V 297 h -2.15625 v -7.85156 q 0,-1.86328 -0.72657,-2.78906 -0.72656,-0.92579 -2.17968,-0.92579 -1.7461,0 -2.75391,1.11329 -1.00781,1.11328 -1.00781,3.03515 V 297 h -2.16797 v -13.125 h 2.16797 v 2.03906 q 0.77343,-1.18359 1.8164,-1.76953 1.05469,-0.58594 2.42578,-0.58594 2.26172,0 3.42188,1.40625 1.16016,1.39454 1.16016,4.11329 z" />
    <path
       id="path307"
       style="fill:#ff0000"
       d="m 318.75391,289.89844 v 1.05469 h -9.91407 q 0.14063,2.22656 1.33594,3.39843 1.20703,1.16016 3.35156,1.16016 1.24219,0 2.40235,-0.30469 1.17187,-0.30469 2.32031,-0.91406 v 2.03906 q -1.16016,0.49219 -2.37891,0.75 -1.21875,0.25781 -2.47265,0.25781 -3.14063,0 -4.98047,-1.82812 -1.82813,-1.82813 -1.82813,-4.94531 0,-3.22266 1.73438,-5.10938 1.74609,-1.89844 4.69922,-1.89844 2.64844,0 4.18359,1.71094 1.54688,1.69922 1.54688,4.62891 z m -2.15625,-0.63281 q -0.0234,-1.76954 -0.9961,-2.82422 -0.96093,-1.05469 -2.55468,-1.05469 -1.80469,0 -2.89454,1.01953 -1.07812,1.01953 -1.24218,2.87109 z" />
    <path
       id="path309"
       style="fill:#ff0000"
       d="M 333.20313,289.07813 V 297 h -2.15625 v -7.85156 q 0,-1.86328 -0.72657,-2.78906 -0.72656,-0.92579 -2.17968,-0.92579 -1.7461,0 -2.75391,1.11329 -1.00781,1.11328 -1.00781,3.03515 V 297 h -2.16797 v -13.125 h 2.16797 v 2.03906 q 0.77343,-1.18359 1.8164,-1.76953 1.05469,-0.58594 2.42578,-0.58594 2.26172,0 3.42188,1.40625 1.16016,1.39454 1.16016,4.11329 z" />
    <path
       id="path311"
       style="fill:#ff0000"
       d="m 339.66016,280.14844 v 3.72656 h 4.4414 v 1.67578 h -4.4414 v 7.125 q 0,1.60547 0.43359,2.0625 0.44531,0.45703 1.79297,0.45703 h 2.21484 V 297 h -2.21484 q -2.49609,0 -3.44531,-0.92578 -0.94922,-0.9375 -0.94922,-3.39844 v -7.125 h -1.58203 V 283.875 h 1.58203 v -3.72656 z" />
    <path
       id="path313"
       style="fill:#ff0000"
       d="m 350.78125,279.50391 h 1.99219 l -6.09375,19.72265 h -1.99219 z" />
    <path
       id="path315"
       style="fill:#ff0000"
       d="m 364.48047,290.44922 q 0,-2.37891 -0.98438,-3.72656 -0.97265,-1.35938 -2.68359,-1.35938 -1.71094,0 -2.69531,1.35938 -0.97266,1.34765 -0.97266,3.72656 0,2.37891 0.97266,3.73828 0.98437,1.34766 2.69531,1.34766 1.71094,0 2.68359,-1.34766 0.98438,-1.35937 0.98438,-3.73828 z m -7.33594,-4.58203 q 0.67969,-1.17188 1.71094,-1.73438 1.04297,-0.57422 2.48437,-0.57422 2.39063,0 3.87891,1.89844 1.5,1.89844 1.5,4.99219 0,3.09375 -1.5,4.99219 -1.48828,1.89843 -3.87891,1.89843 -1.4414,0 -2.48437,-0.5625 -1.03125,-0.57421 -1.71094,-1.74609 V 297 h -2.16797 v -18.23437 h 2.16797 z" />
    <path
       id="path317"
       style="fill:#ff0000"
       d="M 370.07031,291.82031 V 283.875 h 2.15625 v 7.86328 q 0,1.86328 0.72657,2.80078 0.72656,0.92578 2.17968,0.92578 1.7461,0 2.75391,-1.11328 1.01953,-1.11328 1.01953,-3.03515 V 283.875 h 2.15625 V 297 h -2.15625 v -2.01562 q -0.78516,1.19531 -1.82812,1.78125 -1.03125,0.57421 -2.40235,0.57421 -2.26172,0 -3.43359,-1.40625 -1.17188,-1.40625 -1.17188,-4.11328 z m 5.42578,-8.26172 z" />
    <path
       id="path319"
       style="fill:#ff0000"
       d="m 387.66016,280.14844 v 3.72656 h 4.4414 v 1.67578 h -4.4414 v 7.125 q 0,1.60547 0.43359,2.0625 0.44531,0.45703 1.79297,0.45703 h 2.21484 V 297 h -2.21484 q -2.49609,0 -3.44531,-0.92578 -0.94922,-0.9375 -0.94922,-3.39844 v -7.125 h -1.58203 V 283.875 h 1.58203 v -3.72656 z" />
    <path
       id="path321"
       style="fill:#ff0000"
       d="m 397.08203,280.14844 v 3.72656 h 4.44141 v 1.67578 h -4.44141 v 7.125 q 0,1.60547 0.4336,2.0625 0.44531,0.45703 1.79296,0.45703 h 2.21485 V 297 h -2.21485 q -2.49609,0 -3.44531,-0.92578 -0.94922,-0.9375 -0.94922,-3.39844 v -7.125 h -1.58203 V 283.875 h 1.58203 v -3.72656 z" />
    <path
       id="path323"
       style="fill:#ff0000"
       d="m 409.45703,285.38672 q -1.73437,0 -2.74219,1.35937 -1.00781,1.34766 -1.00781,3.70313 0,2.35547 0.9961,3.71484 1.00781,1.34766 2.7539,1.34766 1.72266,0 2.73047,-1.35938 1.00781,-1.35937 1.00781,-3.70312 0,-2.33203 -1.00781,-3.69141 -1.00781,-1.37109 -2.73047,-1.37109 z m 0,-1.82813 q 2.8125,0 4.41797,1.82813 1.60547,1.82812 1.60547,5.0625 0,3.22266 -1.60547,5.0625 -1.60547,1.82812 -4.41797,1.82812 -2.82422,0 -4.42969,-1.82812 -1.59375,-1.83984 -1.59375,-5.0625 0,-3.23438 1.59375,-5.0625 1.60547,-1.82813 4.42969,-1.82813 z" />
    <path
       id="path325"
       style="fill:#ff0000"
       d="M 429.95313,289.07813 V 297 h -2.15625 v -7.85156 q 0,-1.86328 -0.72657,-2.78906 -0.72656,-0.92579 -2.17968,-0.92579 -1.7461,0 -2.75391,1.11329 -1.00781,1.11328 -1.00781,3.03515 V 297 h -2.16797 v -13.125 h 2.16797 v 2.03906 q 0.77343,-1.18359 1.8164,-1.76953 1.05469,-0.58594 2.42578,-0.58594 2.26172,0 3.42188,1.40625 1.16016,1.39454 1.16016,4.11329 z" />
    <path
       id="path327"
       style="fill:#ff0000"
       d="m 444.25,300.98438 v 1.67578 h -12.46875 v -1.67578 z" />
    <path
       id="path329"
       style="fill:#ff0000"
       d="M 457.1875,289.07813 V 297 h -2.15625 v -7.85156 q 0,-1.86328 -0.72656,-2.78906 -0.72656,-0.92579 -2.17969,-0.92579 -1.74609,0 -2.75391,1.11329 -1.00781,1.11328 -1.00781,3.03515 V 297 h -2.16797 v -13.125 h 2.16797 v 2.03906 q 0.77344,-1.18359 1.81641,-1.76953 1.05469,-0.58594 2.42578,-0.58594 2.26172,0 3.42187,1.40625 1.16016,1.39454 1.16016,4.11329 z" />
    <path
       id="path331"
       style="fill:#ff0000"
       d="m 466.55078,278.76563 v 21.39843 h -4.96875 v -1.67578 h 2.80078 v -18.04687 h -2.80078 v -1.67578 z" />
  </g>
</svg>
