<?xml version="1.0" encoding="UTF-8" standalone="no"?>
<svg
   xmlns:dc="http://purl.org/dc/elements/1.1/"
   xmlns:cc="http://creativecommons.org/ns#"
   xmlns:rdf="http://www.w3.org/1999/02/22-rdf-syntax-ns#"
   xmlns:svg="http://www.w3.org/2000/svg"
   xmlns="http://www.w3.org/2000/svg"
   id="svg125"
   stroke-miterlimit="10"
   stroke-linecap="square"
   stroke="none"
   fill="none"
   viewBox="0.0 0.0 348.0 348.0"
   version="1.1">
  <metadata
     id="metadata131">
    <rdf:RDF>
      <cc:Work
         rdf:about="">
        <dc:format>image/svg+xml</dc:format>
        <dc:type
           rdf:resource="http://purl.org/dc/dcmitype/StillImage" />
      </cc:Work>
    </rdf:RDF>
  </metadata>
  <defs
     id="defs129" />
  <clipPath
     id="p.0">
    <path
       id="path2"
       clip-rule="nonzero"
       d="m0 0l348.0 0l0 348.0l-348.0 0l0 -348.0z" />
  </clipPath>
  <g
     id="g119"
     clip-path="url(#p.0)">
    <path
       style="fill:#000000;fill-opacity:0;fill-rule:nonzero"
       id="path5"
       d="M 0,0 H 348 V 348 H 0 Z" />
    <path
       style="fill:#ffffff;fill-rule:nonzero"
       id="path7"
       d="M -6,0 H 348.01575 V 347.9685 H -6 Z" />
    <path
       style="fill:#000000;fill-opacity:0;fill-rule:nonzero"
       id="path9"
       d="m 5.07874,5.7758217 h 336.9134 V 343.44512 H 5.07874 Z" />
    <path
       style="fill-rule:nonzero;stroke:#000000;stroke-width:2;stroke-linecap:butt;stroke-linejoin:round"
       id="path11"
       d="m 5.07874,5.7758217 h 336.9134 V 343.44512 H 5.07874 Z" />
    <path
       style="fill:#000000;fill-rule:nonzero"
       id="path13"
       d="m 133.84251,15.666667 h 74.33072 v 56.881886 h -74.33072 z" />
    <path
       style="fill:#ffffff;fill-rule:nonzero"
       id="path15"
       d="m 154.53912,44.089794 q 0,-4.0625 0.82812,-6.53125 0.84375,-2.484375 2.48438,-3.828125 1.65625,-1.34375 4.15625,-1.34375 1.84375,0 3.23437,0.75 1.39063,0.734375 2.29688,2.140625 0.90625,1.390625 1.42187,3.40625 0.51563,2 0.51563,5.40625 0,4.03125 -0.82813,6.515625 -0.82812,2.46875 -2.48437,3.828125 -1.64063,1.34375 -4.15625,1.34375 -3.3125,0 -5.20313,-2.375 -2.26562,-2.859375 -2.26562,-9.3125 z m 2.89062,0 q 0,5.640625 1.3125,7.515625 1.32813,1.859375 3.26563,1.859375 1.9375,0 3.25,-1.875 1.32812,-1.875 1.32812,-7.5 0,-5.65625 -1.32812,-7.515625 -1.3125,-1.859375 -3.28125,-1.859375 -1.9375,0 -3.09375,1.640625 -1.45313,2.09375 -1.45313,7.734375 z m 14.90625,0 q 0,-4.0625 0.82813,-6.53125 0.84375,-2.484375 2.48437,-3.828125 1.65625,-1.34375 4.15625,-1.34375 1.84375,0 3.23438,0.75 1.39062,0.734375 2.29687,2.140625 0.90625,1.390625 1.42188,3.40625 0.51562,2 0.51562,5.40625 0,4.03125 -0.82812,6.515625 -0.82813,2.46875 -2.48438,3.828125 -1.64062,1.34375 -4.15625,1.34375 -3.3125,0 -5.20312,-2.375 -2.26563,-2.859375 -2.26563,-9.3125 z m 2.89063,0 q 0,5.640625 1.3125,7.515625 1.32812,1.859375 3.26562,1.859375 1.9375,0 3.25,-1.875 1.32813,-1.875 1.32813,-7.5 0,-5.65625 -1.32813,-7.515625 -1.3125,-1.859375 -3.28125,-1.859375 -1.9375,0 -3.09375,1.640625 -1.45312,2.09375 -1.45312,7.734375 z" />
    <path
       style="fill:#ffffff;fill-rule:nonzero"
       id="path17"
       d="m 145.80315,164.96063 v 0 c 0,-15.7075 12.41617,-28.44095 27.73228,-28.44095 v 0 c 7.35506,0 14.40888,2.99645 19.6097,8.33016 5.20081,5.33372 8.12259,12.56778 8.12259,20.11079 v 0 c 0,15.7075 -12.41617,28.44095 -27.73229,28.44095 v 0 c -15.31611,0 -27.73228,-12.73345 -27.73228,-28.44095 z" />
    <path
       style="fill-rule:nonzero;stroke:#000000;stroke-width:2;stroke-linecap:butt;stroke-linejoin:round"
       id="path19"
       d="m 145.80315,164.96063 v 0 c 0,-15.7075 12.41617,-28.44095 27.73228,-28.44095 v 0 c 7.35506,0 14.40888,2.99645 19.6097,8.33016 5.20081,5.33372 8.12259,12.56778 8.12259,20.11079 v 0 c 0,15.7075 -12.41617,28.44095 -27.73229,28.44095 v 0 c -15.31611,0 -27.73228,-12.73345 -27.73228,-28.44095 z" />
    <path
       style="fill:#000000;fill-opacity:0;fill-rule:nonzero"
       id="path21"
       d="m 148.85039,82.88714 h 52.40945 v 48.00001 h -52.40945 z" />
    <path
       style="fill:#ffffff;fill-rule:nonzero"
       id="path23"
       d="m 39.766403,202.43307 v 0 c 0,-8.019 6.789761,-14.51968 15.165356,-14.51968 v 0 c 4.022102,0 7.879467,1.52974 10.723522,4.25271 2.844055,2.72296 4.441834,6.41611 4.441834,10.26697 v 0 c 0,8.019 -6.789761,14.51968 -15.165356,14.51968 v 0 c -8.375596,0 -15.165357,-6.50068 -15.165356,-14.51968 z" />
    <path
       style="fill-rule:nonzero;stroke:#000000;stroke-width:2;stroke-linecap:butt;stroke-linejoin:round"
       id="path25"
       d="m 39.766403,202.43307 v 0 c 0,-8.019 6.789761,-14.51968 15.165356,-14.51968 v 0 c 4.022102,0 7.879467,1.52974 10.723522,4.25271 2.844055,2.72296 4.441834,6.41611 4.441834,10.26697 v 0 c 0,8.019 -6.789761,14.51968 -15.165356,14.51968 v 0 c -8.375596,0 -15.165357,-6.50068 -15.165356,-14.51968 z" />
    <path
       style="fill:#ffffff;fill-rule:nonzero"
       id="path27"
       d="m 85.020996,242.1378 v 0 c 0,-8.01901 6.789764,-14.5197 15.165354,-14.5197 v 0 c 4.0221,0 7.87947,1.52976 10.72352,4.25273 2.84406,2.72296 4.44184,6.41611 4.44184,10.26697 v 0 c 0,8.019 -6.78977,14.51967 -15.16536,14.51967 v 0 c -8.375589,0 -15.165354,-6.50067 -15.165354,-14.51967 z" />
    <path
       style="fill-rule:nonzero;stroke:#000000;stroke-width:2;stroke-linecap:butt;stroke-linejoin:round"
       id="path29"
       d="m 85.020996,242.1378 v 0 c 0,-8.01901 6.789764,-14.5197 15.165354,-14.5197 v 0 c 4.0221,0 7.87947,1.52976 10.72352,4.25273 2.84406,2.72296 4.44184,6.41611 4.44184,10.26697 v 0 c 0,8.019 -6.78977,14.51967 -15.16536,14.51967 v 0 c -8.375589,0 -15.165354,-6.50067 -15.165354,-14.51967 z" />
    <path
       style="fill:#ffffff;fill-rule:nonzero"
       id="path31"
       d="m 132.69423,280.22964 v 0 c 0,-8.01898 6.78976,-14.51968 15.16534,-14.51968 v 0 c 4.02211,0 7.87948,1.52975 10.72353,4.25271 2.84406,2.72299 4.44183,6.41611 4.44183,10.26697 v 0 c 0,8.01901 -6.78976,14.51971 -15.16536,14.51971 v 0 c -8.37558,0 -15.16534,-6.5007 -15.16534,-14.51971 z" />
    <path
       style="fill-rule:nonzero;stroke:#000000;stroke-width:2;stroke-linecap:butt;stroke-linejoin:round"
       id="path33"
       d="m 132.69423,280.22964 v 0 c 0,-8.01898 6.78976,-14.51968 15.16534,-14.51968 v 0 c 4.02211,0 7.87948,1.52975 10.72353,4.25271 2.84406,2.72299 4.44183,6.41611 4.44183,10.26697 v 0 c 0,8.01901 -6.78976,14.51971 -15.16536,14.51971 v 0 c -8.37558,0 -15.16534,-6.5007 -15.16534,-14.51971 z" />
    <path
       style="fill:#ffffff;fill-rule:nonzero"
       id="path35"
       d="m 41.597115,247.71391 v 0 c 0,-8.019 6.789757,-14.51968 15.165352,-14.51968 v 0 c 4.022102,0 7.879471,1.52974 10.723526,4.25271 2.844055,2.72296 4.441826,6.41611 4.441826,10.26697 v 0 c 0,8.019 -6.789757,14.5197 -15.165352,14.5197 v 0 c -8.375595,0 -15.165352,-6.5007 -15.165352,-14.5197 z" />
    <path
       style="fill-rule:nonzero;stroke:#000000;stroke-width:2;stroke-linecap:butt;stroke-linejoin:round"
       id="path37"
       d="m 41.597115,247.71391 v 0 c 0,-8.019 6.789757,-14.51968 15.165352,-14.51968 v 0 c 4.022102,0 7.879471,1.52974 10.723526,4.25271 2.844055,2.72296 4.441826,6.41611 4.441826,10.26697 v 0 c 0,8.019 -6.789757,14.5197 -15.165352,14.5197 v 0 c -8.375595,0 -15.165352,-6.5007 -15.165352,-14.5197 z" />
    <path
       style="fill:#ffffff;fill-rule:nonzero"
       id="path39"
       d="m 86.85171,287.41864 v 0 c 0,-8.01901 6.789757,-14.51968 15.16535,-14.51968 v 0 c 4.0221,0 7.87947,1.52975 10.72353,4.25271 2.84405,2.72296 4.44182,6.41611 4.44182,10.26697 v 0 c 0,8.01898 -6.78975,14.51968 -15.16535,14.51968 v 0 c -8.375593,0 -15.16535,-6.5007 -15.16535,-14.51968 z" />
    <path
       style="fill-rule:nonzero;stroke:#000000;stroke-width:2;stroke-linecap:butt;stroke-linejoin:round"
       id="path41"
       d="m 86.85171,287.41864 v 0 c 0,-8.01901 6.789757,-14.51968 15.16535,-14.51968 v 0 c 4.0221,0 7.87947,1.52975 10.72353,4.25271 2.84405,2.72296 4.44182,6.41611 4.44182,10.26697 v 0 c 0,8.01898 -6.78975,14.51968 -15.16535,14.51968 v 0 c -8.375593,0 -15.16535,-6.5007 -15.16535,-14.51968 z" />
    <path
       style="fill:#ffffff;fill-rule:nonzero"
       id="path43"
       d="m 134.52493,325.5105 v 0 c 0,-8.01901 6.78976,-14.51968 15.16536,-14.51968 v 0 c 4.02209,0 7.87947,1.52975 10.72353,4.25271 2.84405,2.72296 4.44181,6.41611 4.44181,10.26697 v 0 c 0,8.01901 -6.78975,14.51968 -15.16534,14.51968 v 0 c -8.3756,0 -15.16536,-6.50067 -15.16536,-14.51968 z" />
    <path
       style="fill-rule:nonzero;stroke:#000000;stroke-width:2;stroke-linecap:butt;stroke-linejoin:round"
       id="path45"
       d="m 134.52493,325.5105 v 0 c 0,-8.01901 6.78976,-14.51968 15.16536,-14.51968 v 0 c 4.02209,0 7.87947,1.52975 10.72353,4.25271 2.84405,2.72296 4.44181,6.41611 4.44181,10.26697 v 0 c 0,8.01901 -6.78975,14.51968 -15.16534,14.51968 v 0 c -8.3756,0 -15.16536,-6.50067 -15.16536,-14.51968 z" />
    <path
       style="fill:#ffffff;fill-rule:nonzero"
       id="path47"
       d="m 182.21391,280.22964 v 0 c 0,-8.01898 6.78976,-14.51968 15.16536,-14.51968 v 0 c 4.02209,0 7.87946,1.52975 10.72351,4.25271 2.84406,2.72299 4.44183,6.41611 4.44183,10.26697 v 0 c 0,8.01901 -6.78976,14.51971 -15.16534,14.51971 v 0 c -8.3756,0 -15.16536,-6.5007 -15.16536,-14.51971 z" />
    <path
       style="fill-rule:nonzero;stroke:#000000;stroke-width:2;stroke-linecap:butt;stroke-linejoin:round"
       id="path49"
       d="m 182.21391,280.22964 v 0 c 0,-8.01898 6.78976,-14.51968 15.16536,-14.51968 v 0 c 4.02209,0 7.87946,1.52975 10.72351,4.25271 2.84406,2.72299 4.44183,6.41611 4.44183,10.26697 v 0 c 0,8.01901 -6.78976,14.51971 -15.16534,14.51971 v 0 c -8.3756,0 -15.16536,-6.5007 -15.16536,-14.51971 z" />
    <path
       style="fill:#ffffff;fill-rule:nonzero"
       id="path51"
       d="m 184.04462,325.5105 v 0 c 0,-8.01901 6.78976,-14.51968 15.16536,-14.51968 v 0 c 4.02209,0 7.87947,1.52975 10.72353,4.25271 2.84405,2.72296 4.44181,6.41611 4.44181,10.26697 v 0 c 0,8.01901 -6.78975,14.51968 -15.16534,14.51968 v 0 c -8.3756,0 -15.16536,-6.50067 -15.16536,-14.51968 z" />
    <path
       style="fill-rule:nonzero;stroke:#000000;stroke-width:2;stroke-linecap:butt;stroke-linejoin:round"
       id="path53"
       d="m 184.04462,325.5105 v 0 c 0,-8.01901 6.78976,-14.51968 15.16536,-14.51968 v 0 c 4.02209,0 7.87947,1.52975 10.72353,4.25271 2.84405,2.72296 4.44181,6.41611 4.44181,10.26697 v 0 c 0,8.01901 -6.78975,14.51968 -15.16534,14.51968 v 0 c -8.3756,0 -15.16536,-6.50067 -15.16536,-14.51968 z" />
    <path
       style="fill:#ffffff;fill-rule:nonzero"
       id="path55"
       d="m 226.04199,242.1378 v 0 c 0,-8.01901 6.78976,-14.5197 15.16536,-14.5197 v 0 c 4.02209,0 7.87947,1.52976 10.72353,4.25273 2.84405,2.72296 4.44183,6.41611 4.44183,10.26697 v 0 c 0,8.019 -6.78977,14.51967 -15.16536,14.51967 v 0 c -8.3756,0 -15.16536,-6.50067 -15.16536,-14.51967 z" />
    <path
       style="fill-rule:nonzero;stroke:#000000;stroke-width:2;stroke-linecap:butt;stroke-linejoin:round"
       id="path57"
       d="m 226.04199,242.1378 v 0 c 0,-8.01901 6.78976,-14.5197 15.16536,-14.5197 v 0 c 4.02209,0 7.87947,1.52976 10.72353,4.25273 2.84405,2.72296 4.44183,6.41611 4.44183,10.26697 v 0 c 0,8.019 -6.78977,14.51967 -15.16536,14.51967 v 0 c -8.3756,0 -15.16536,-6.50067 -15.16536,-14.51967 z" />
    <path
       style="fill:#ffffff;fill-rule:nonzero"
       id="path59"
       d="m 227.8727,287.41864 v 0 c 0,-8.01901 6.78976,-14.51968 15.16536,-14.51968 v 0 c 4.02211,0 7.87947,1.52975 10.72353,4.25271 2.84407,2.72296 4.44181,6.41611 4.44181,10.26697 v 0 c 0,8.01898 -6.78975,14.51968 -15.16534,14.51968 v 0 c -8.3756,0 -15.16536,-6.5007 -15.16536,-14.51968 z" />
    <path
       style="fill-rule:nonzero;stroke:#000000;stroke-width:2;stroke-linecap:butt;stroke-linejoin:round"
       id="path61"
       d="m 227.8727,287.41864 v 0 c 0,-8.01901 6.78976,-14.51968 15.16536,-14.51968 v 0 c 4.02211,0 7.87947,1.52975 10.72353,4.25271 2.84407,2.72296 4.44181,6.41611 4.44181,10.26697 v 0 c 0,8.01898 -6.78975,14.51968 -15.16534,14.51968 v 0 c -8.3756,0 -15.16536,-6.5007 -15.16536,-14.51968 z" />
    <path
       style="fill:#ffffff;fill-rule:nonzero"
       id="path63"
       d="m 272.41733,202.43307 v 0 c 0,-8.019 6.78976,-14.51968 15.16534,-14.51968 v 0 c 4.0221,0 7.87949,1.52974 10.72355,4.25271 2.84405,2.72296 4.4418,6.41611 4.4418,10.26697 v 0 c 0,8.019 -6.78974,14.51968 -15.16535,14.51968 v 0 c -8.37558,0 -15.16534,-6.50068 -15.16534,-14.51968 z" />
    <path
       style="fill-rule:nonzero;stroke:#000000;stroke-width:2;stroke-linecap:butt;stroke-linejoin:round"
       id="path65"
       d="m 272.41733,202.43307 v 0 c 0,-8.019 6.78976,-14.51968 15.16534,-14.51968 v 0 c 4.0221,0 7.87949,1.52974 10.72355,4.25271 2.84405,2.72296 4.4418,6.41611 4.4418,10.26697 v 0 c 0,8.019 -6.78974,14.51968 -15.16535,14.51968 v 0 c -8.37558,0 -15.16534,-6.50068 -15.16534,-14.51968 z" />
    <path
       style="fill:#ffffff;fill-rule:nonzero"
       id="path67"
       d="m 274.24802,247.71391 v 0 c 0,-8.019 6.78976,-14.51968 15.16537,-14.51968 v 0 c 4.0221,0 7.87946,1.52974 10.72352,4.25271 2.84405,2.72296 4.44183,6.41611 4.44183,10.26697 v 0 c 0,8.019 -6.78976,14.5197 -15.16534,14.5197 v 0 c -8.37561,0 -15.16538,-6.5007 -15.16538,-14.5197 z" />
    <path
       style="fill-rule:nonzero;stroke:#000000;stroke-width:2;stroke-linecap:butt;stroke-linejoin:round"
       id="path69"
       d="m 274.24802,247.71391 v 0 c 0,-8.019 6.78976,-14.51968 15.16537,-14.51968 v 0 c 4.0221,0 7.87946,1.52974 10.72352,4.25271 2.84405,2.72296 4.44183,6.41611 4.44183,10.26697 v 0 c 0,8.019 -6.78976,14.5197 -15.16534,14.5197 v 0 c -8.37561,0 -15.16538,-6.5007 -15.16538,-14.5197 z" />
    <path
       style="fill:#ffffff;fill-rule:nonzero"
       id="path71"
       d="m 195.9685,149.79527 31.9055,15.16536 -31.9055,15.16534 z" />
    <path
       style="fill-rule:nonzero;stroke:#000000;stroke-width:2;stroke-linecap:butt;stroke-linejoin:round"
       id="path73"
       d="m 195.9685,149.79527 31.9055,15.16536 -31.9055,15.16534 z" />
    <path
       style="fill:#000000;fill-opacity:0;fill-rule:nonzero"
       id="path75"
       d="m 101.35433,159.3832 v 0 c 0,-40.76469 32.99697,-73.81101 73.70078,-73.81101 v 0 c 19.54666,0 38.29276,7.776489 52.11433,21.61874 13.82158,13.84226 21.58646,32.61637 21.58646,52.19227 v 0 c 0,40.76471 -32.99696,73.81104 -73.70079,73.81104 v 0 c -40.70381,0 -73.70078,-33.04633 -73.70078,-73.81104 z" />
    <path
       style="fill-rule:nonzero;stroke:#000000;stroke-width:2;stroke-linecap:butt;stroke-linejoin:round"
       id="path77"
       d="m 101.35433,159.3832 v 0 c 0,-40.76469 32.99697,-73.81101 73.70078,-73.81101 v 0 c 19.54666,0 38.29276,7.776489 52.11433,21.61874 13.82158,13.84226 21.58646,32.61637 21.58646,52.19227 v 0 c 0,40.76471 -32.99696,73.81104 -73.70079,73.81104 v 0 c -40.70381,0 -73.70078,-33.04633 -73.70078,-73.81104 z" />
    <path
       style="fill:#ffffff;fill-rule:nonzero"
       id="path79"
       d="M 15.262467,17.706038 H 125.15223 v 54.83464 H 15.262467 Z" />
    <path
       style="fill-rule:nonzero;stroke:#000000;stroke-width:2;stroke-linecap:butt;stroke-linejoin:round"
       id="path81"
       d="M 15.262467,17.706038 H 125.15223 v 54.83464 H 15.262467 Z" />
    <path
       style="fill:#000000;fill-opacity:0;fill-rule:nonzero"
       id="path83"
       d="M 15.262467,72.65354 54.947507,18.5748" />
    <path
       style="fill-rule:nonzero;stroke:#000000;stroke-width:2;stroke-linecap:butt;stroke-linejoin:round"
       id="path85"
       d="M 15.262467,72.65354 54.947507,18.5748" />
    <path
       style="fill:#000000;fill-opacity:0;fill-rule:nonzero"
       id="path87"
       d="M 37.56649,72.65354 77.251533,18.5748" />
    <path
       style="fill-rule:nonzero;stroke:#000000;stroke-width:2;stroke-linecap:butt;stroke-linejoin:round"
       id="path89"
       d="M 37.56649,72.65354 77.251533,18.5748" />
    <path
       style="fill:#000000;fill-opacity:0;fill-rule:nonzero"
       id="path91"
       d="M 59.870514,72.65354 99.555557,18.5748" />
    <path
       style="fill-rule:nonzero;stroke:#000000;stroke-width:2;stroke-linecap:butt;stroke-linejoin:round"
       id="path93"
       d="M 59.870514,72.65354 99.555557,18.5748" />
    <path
       style="fill:#000000;fill-opacity:0;fill-rule:nonzero"
       id="path95"
       d="M 82.17454,72.65354 121.85958,18.5748" />
    <path
       style="fill-rule:nonzero;stroke:#000000;stroke-width:2;stroke-linecap:butt;stroke-linejoin:round"
       id="path97"
       d="M 82.17454,72.65354 121.85958,18.5748" />
    <path
       style="fill:#ffffff;fill-rule:nonzero"
       id="path99"
       d="m 216.86351,16.633858 h 109.88975 v 54.83465 H 216.86351 Z" />
    <path
       style="fill-rule:nonzero;stroke:#000000;stroke-width:2;stroke-linecap:butt;stroke-linejoin:round"
       id="path101"
       d="m 216.86351,16.633858 h 109.88975 v 54.83465 H 216.86351 Z" />
    <path
       style="fill:#000000;fill-opacity:0;fill-rule:nonzero"
       id="path103"
       d="M 216.86351,71.58137 256.54855,17.502627" />
    <path
       style="fill-rule:nonzero;stroke:#000000;stroke-width:2;stroke-linecap:butt;stroke-linejoin:round"
       id="path105"
       d="M 216.86351,71.58137 256.54855,17.502627" />
    <path
       style="fill:#000000;fill-opacity:0;fill-rule:nonzero"
       id="path107"
       d="M 239.16754,71.58137 278.85257,17.502627" />
    <path
       style="fill-rule:nonzero;stroke:#000000;stroke-width:2;stroke-linecap:butt;stroke-linejoin:round"
       id="path109"
       d="M 239.16754,71.58137 278.85257,17.502627" />
    <path
       style="fill:#000000;fill-opacity:0;fill-rule:nonzero"
       id="path111"
       d="M 261.47156,71.58137 301.15662,17.502627" />
    <path
       style="fill-rule:nonzero;stroke:#000000;stroke-width:2;stroke-linecap:butt;stroke-linejoin:round"
       id="path113"
       d="M 261.47156,71.58137 301.15662,17.502627" />
    <path
       style="fill:#000000;fill-opacity:0;fill-rule:nonzero"
       id="path115"
       d="M 283.7756,71.58137 323.46063,17.502627" />
    <path
       style="fill-rule:nonzero;stroke:#000000;stroke-width:2;stroke-linecap:butt;stroke-linejoin:round"
       id="path117"
       d="M 283.7756,71.58137 323.46063,17.502627" />
  </g>
  <g
     id="text123"
     style="font-size:2.22222233px;font-family:sans-serif;text-anchor:middle;fill:#000000"
     aria-label="[MISSING: NeedyKnobComponent/label_up]">
    <path
       id="path133"
       style="fill:#ff0000"
       d="m 150.01345,99.422739 h 0.46007 v 0.155165 h -0.26041 v 1.671006 h 0.26041 v 0.15517 h -0.46007 z" />
    <path
       id="path135"
       style="fill:#ff0000"
       d="m 150.90864,99.491098 h 0.3266 l 0.41341,1.102432 0.41559,-1.102432 h 0.3266 v 1.620012 h -0.21376 v -1.422529 l -0.41775,1.111109 h -0.22027 l -0.41775,-1.111109 v 1.422529 h -0.21267 z" />
    <path
       id="path137"
       style="fill:#ff0000"
       d="m 152.82704,99.491098 h 0.21918 v 1.620012 h -0.21918 z" />
    <path
       id="path139"
       style="fill:#ff0000"
       d="m 154.45356,99.544267 v 0.213758 q -0.12478,-0.05968 -0.23546,-0.08898 -0.11068,-0.0293 -0.21376,-0.0293 -0.17904,0 -0.27669,0.06944 -0.0966,0.06945 -0.0966,0.197483 0,0.10742 0.064,0.16276 0.0651,0.0542 0.24523,0.0879 l 0.13238,0.0271 q 0.24522,0.0467 0.36133,0.16493 0.11718,0.11719 0.11718,0.31467 0,0.23546 -0.15842,0.35699 -0.15733,0.12152 -0.46224,0.12152 -0.11501,0 -0.24522,-0.026 -0.12912,-0.026 -0.26801,-0.077 v -0.22569 q 0.13346,0.0749 0.2615,0.11285 0.12804,0.038 0.25173,0.038 0.18772,0 0.28972,-0.0738 0.10199,-0.0738 0.10199,-0.21051 0,-0.11935 -0.0738,-0.18663 -0.0727,-0.0673 -0.2398,-0.10091 l -0.13346,-0.026 q -0.24523,-0.0488 -0.35482,-0.153 -0.10959,-0.10416 -0.10959,-0.289709 0,-0.214844 0.15082,-0.338542 0.15191,-0.123698 0.41775,-0.123698 0.11393,0 0.23221,0.02062 0.11827,0.02062 0.24197,0.06185 z" />
    <path
       id="path141"
       style="fill:#ff0000"
       d="m 155.86415,99.544267 v 0.213758 q -0.12478,-0.05968 -0.23546,-0.08898 -0.11068,-0.0293 -0.21376,-0.0293 -0.17904,0 -0.27669,0.06944 -0.0966,0.06945 -0.0966,0.197483 0,0.10742 0.064,0.16276 0.0651,0.0542 0.24523,0.0879 l 0.13238,0.0271 q 0.24522,0.0467 0.36133,0.16493 0.11718,0.11719 0.11718,0.31467 0,0.23546 -0.15842,0.35699 -0.15733,0.12152 -0.46224,0.12152 -0.11501,0 -0.24522,-0.026 -0.12912,-0.026 -0.26801,-0.077 v -0.22569 q 0.13346,0.0749 0.2615,0.11285 0.12804,0.038 0.25173,0.038 0.18772,0 0.28972,-0.0738 0.102,-0.0738 0.102,-0.21051 0,-0.11935 -0.0738,-0.18663 -0.0727,-0.0673 -0.2398,-0.10091 l -0.13346,-0.026 q -0.24523,-0.0488 -0.35482,-0.153 -0.10959,-0.10416 -0.10959,-0.289709 0,-0.214844 0.15082,-0.338542 0.15191,-0.123698 0.41775,-0.123698 0.11394,0 0.23221,0.02062 0.11827,0.02062 0.24197,0.06185 z" />
    <path
       id="path143"
       style="fill:#ff0000"
       d="m 156.3036,99.491098 h 0.21919 v 1.620012 h -0.21919 z" />
    <path
       id="path145"
       style="fill:#ff0000"
       d="m 156.95898,99.491098 h 0.29514 l 0.71832,1.355252 v -1.355252 h 0.21267 v 1.620012 h -0.29514 l -0.71831,-1.355255 v 1.355255 h -0.21268 z" />
    <path
       id="path147"
       style="fill:#ff0000"
       d="m 159.72591,100.87999 v -0.43512 h -0.35807 v -0.18012 h 0.57508 v 0.69553 q -0.12695,0.0901 -0.27994,0.13672 -0.153,0.0456 -0.32661,0.0456 -0.37977,0 -0.59462,-0.22135 -0.21376,-0.22244 -0.21376,-0.61849 0,-0.397135 0.21376,-0.61849 0.21485,-0.222439 0.59462,-0.222439 0.15842,0 0.30056,0.03906 0.14323,0.03906 0.26368,0.115017 v 0.23329 q -0.12153,-0.103082 -0.25825,-0.155165 -0.13672,-0.05208 -0.28754,-0.05208 -0.29731,0 -0.44705,0.166015 -0.14866,0.166016 -0.14866,0.494792 0,0.32769 0.14866,0.49371 0.14974,0.16601 0.44705,0.16601 0.1161,0 0.20725,-0.0195 0.0911,-0.0206 0.16384,-0.0629 z" />
    <path
       id="path149"
       style="fill:#ff0000"
       d="m 160.38672,100.8355 h 0.22895 v 0.27561 h -0.22895 z m 0,-0.873482 h 0.22895 v 0.275612 h -0.22895 z" />
    <path
       id="path151"
       style="fill:#ff0000"
       d="m 161.80273,99.491098 h 0.29514 l 0.71832,1.355252 v -1.355252 h 0.21267 v 1.620012 h -0.29514 l -0.71831,-1.355255 v 1.355255 h -0.21268 z" />
    <path
       id="path153"
       style="fill:#ff0000"
       d="m 164.49588,100.45355 v 0.0977 h -0.91797 q 0.013,0.20616 0.1237,0.31467 0.11176,0.10742 0.31032,0.10742 0.11502,0 0.22244,-0.0282 0.10851,-0.0282 0.21485,-0.0846 v 0.1888 q -0.10742,0.0456 -0.22027,0.0694 -0.11285,0.0239 -0.22895,0.0239 -0.2908,0 -0.46116,-0.16927 -0.16927,-0.16927 -0.16927,-0.4579 0,-0.29839 0.16059,-0.47309 0.16168,-0.175778 0.43512,-0.175778 0.24522,0 0.38737,0.158418 0.14323,0.15734 0.14323,0.4286 z m -0.19966,-0.0586 q -0.002,-0.16384 -0.0922,-0.2615 -0.089,-0.0977 -0.23654,-0.0977 -0.1671,0 -0.26802,0.0944 -0.0998,0.0944 -0.11501,0.26585 z" />
    <path
       id="path155"
       style="fill:#ff0000"
       d="m 165.86306,100.45355 v 0.0977 h -0.91797 q 0.013,0.20616 0.1237,0.31467 0.11176,0.10742 0.31033,0.10742 0.11502,0 0.22244,-0.0282 0.10851,-0.0282 0.21485,-0.0846 v 0.1888 q -0.10743,0.0456 -0.22027,0.0694 -0.11285,0.0239 -0.22895,0.0239 -0.2908,0 -0.46116,-0.16927 -0.16927,-0.16927 -0.16927,-0.4579 0,-0.29839 0.16059,-0.47309 0.16168,-0.175778 0.43511,-0.175778 0.24523,0 0.38737,0.158418 0.14323,0.15734 0.14323,0.4286 z m -0.19965,-0.0586 q -0.002,-0.16384 -0.0922,-0.2615 -0.089,-0.0977 -0.23655,-0.0977 -0.1671,0 -0.26801,0.0944 -0.0998,0.0944 -0.11501,0.26585 z" />
    <path
       id="path157"
       style="fill:#ff0000"
       d="m 166.99045,100.08029 v -0.657551 h 0.19965 v 1.688371 h -0.19965 v -0.18229 q -0.0629,0.1085 -0.1595,0.16167 -0.0955,0.0521 -0.23004,0.0521 -0.22027,0 -0.35916,-0.17578 -0.1378,-0.17578 -0.1378,-0.46224 0,-0.28646 0.1378,-0.46224 0.13889,-0.175778 0.35916,-0.175778 0.13455,0 0.23004,0.05317 0.0966,0.05208 0.1595,0.160589 z m -0.68034,0.42426 q 0,0.22027 0.0901,0.34614 0.0911,0.12478 0.24957,0.12478 0.15842,0 0.24957,-0.12478 0.0911,-0.12587 0.0911,-0.34614 0,-0.22027 -0.0911,-0.34505 -0.0912,-0.12587 -0.24957,-0.12587 -0.15842,0 -0.24957,0.12587 -0.0901,0.12478 -0.0901,0.34505 z" />
    <path
       id="path159"
       style="fill:#ff0000"
       d="m 168.10699,101.22395 q -0.0846,0.21702 -0.16493,0.28321 -0.0803,0.0662 -0.21485,0.0662 h -0.1595 v -0.1671 h 0.11718 q 0.0825,0 0.12804,-0.0391 0.0456,-0.0391 0.10091,-0.18446 l 0.0358,-0.0911 -0.49153,-1.195751 h 0.21158 l 0.37978,0.950521 0.37977,-0.950521 h 0.21159 z" />
    <path
       id="path161"
       style="fill:#ff0000"
       d="m 168.92513,99.491098 h 0.21918 v 0.684682 l 0.727,-0.684682 h 0.28212 l -0.80404,0.755212 0.86155,0.8648 h -0.28863 l -0.778,-0.78017 v 0.78017 h -0.21918 z" />
    <path
       id="path163"
       style="fill:#ff0000"
       d="m 171.38498,100.3776 v 0.73351 h -0.19965 v -0.727 q 0,-0.17253 -0.0673,-0.25825 -0.0673,-0.0857 -0.20182,-0.0857 -0.16167,0 -0.25499,0.10308 -0.0933,0.10309 -0.0933,0.28104 v 0.68685 h -0.20073 v -1.215281 h 0.20073 v 0.188801 q 0.0716,-0.109591 0.16819,-0.163844 0.0977,-0.05425 0.22461,-0.05425 0.20942,0 0.31684,0.130208 0.10742,0.12912 0.10742,0.38086 z" />
    <path
       id="path165"
       style="fill:#ff0000"
       d="m 172.25629,100.0358 q -0.16059,0 -0.2539,0.12587 -0.0933,0.12478 -0.0933,0.34288 0,0.2181 0.0922,0.34397 0.0933,0.12478 0.25499,0.12478 0.15951,0 0.25282,-0.12587 0.0933,-0.12586 0.0933,-0.34288 0,-0.21593 -0.0933,-0.34179 -0.0933,-0.12696 -0.25282,-0.12696 z m 0,-0.169268 q 0.26042,0 0.40907,0.169268 0.14866,0.16927 0.14866,0.46875 0,0.2984 -0.14866,0.46875 -0.14865,0.16927 -0.40907,0.16927 -0.2615,0 -0.41015,-0.16927 -0.14757,-0.17035 -0.14757,-0.46875 0,-0.29948 0.14757,-0.46875 0.14865,-0.169268 0.41015,-0.169268 z" />
    <path
       id="path167"
       style="fill:#ff0000"
       d="m 174.01628,100.50455 q 0,-0.22027 -0.0911,-0.34505 -0.0901,-0.12587 -0.24848,-0.12587 -0.15842,0 -0.24957,0.12587 -0.0901,0.12478 -0.0901,0.34505 0,0.22027 0.0901,0.34614 0.0911,0.12478 0.24957,0.12478 0.15842,0 0.24848,-0.12478 0.0911,-0.12587 0.0911,-0.34614 z m -0.67926,-0.42426 q 0.0629,-0.108506 0.15842,-0.160589 0.0966,-0.05317 0.23004,-0.05317 0.22135,0 0.35916,0.175778 0.13888,0.17578 0.13888,0.46224 0,0.28646 -0.13888,0.46224 -0.13781,0.17578 -0.35916,0.17578 -0.13347,0 -0.23004,-0.0521 -0.0955,-0.0532 -0.15842,-0.16167 v 0.18229 h -0.20074 v -1.688371 h 0.20074 z" />
    <path
       id="path169"
       style="fill:#ff0000"
       d="m 175.77626,99.615881 v 0.23112 q -0.11068,-0.103082 -0.23655,-0.15408 -0.12478,-0.051 -0.26584,-0.051 -0.27778,0 -0.42535,0.170356 -0.14757,0.169271 -0.14757,0.490451 0,0.3201 0.14757,0.49045 0.14757,0.16927 0.42535,0.16927 0.14106,0 0.26584,-0.051 0.12587,-0.051 0.23655,-0.15408 v 0.22895 q -0.11502,0.0781 -0.24414,0.11719 -0.12804,0.0391 -0.27127,0.0391 -0.36784,0 -0.57943,-0.22461 -0.21159,-0.22569 -0.21159,-0.61523 0,-0.390625 0.21159,-0.615234 0.21159,-0.225695 0.57943,-0.225695 0.1454,0 0.27344,0.03906 0.12912,0.03798 0.24197,0.115017 z" />
    <path
       id="path171"
       style="fill:#ff0000"
       d="m 176.57921,100.0358 q -0.16059,0 -0.25391,0.12587 -0.0933,0.12478 -0.0933,0.34288 0,0.2181 0.0922,0.34397 0.0933,0.12478 0.25499,0.12478 0.1595,0 0.25282,-0.12587 0.0933,-0.12586 0.0933,-0.34288 0,-0.21593 -0.0933,-0.34179 -0.0933,-0.12696 -0.25282,-0.12696 z m 0,-0.169268 q 0.26042,0 0.40907,0.169268 0.14866,0.16927 0.14866,0.46875 0,0.2984 -0.14866,0.46875 -0.14865,0.16927 -0.40907,0.16927 -0.2615,0 -0.41016,-0.16927 -0.14757,-0.17035 -0.14757,-0.46875 0,-0.29948 0.14757,-0.46875 0.14866,-0.169268 0.41016,-0.169268 z" />
    <path
       id="path173"
       style="fill:#ff0000"
       d="m 178.41298,100.12912 q 0.0749,-0.13455 0.17903,-0.198569 0.10417,-0.06402 0.24523,-0.06402 0.18989,0 0.29297,0.133464 0.10308,0.132374 0.10308,0.377604 v 0.73351 h -0.20074 v -0.727 q 0,-0.1747 -0.0618,-0.25933 -0.0618,-0.0846 -0.1888,-0.0846 -0.15516,0 -0.24523,0.10308 -0.0901,0.10309 -0.0901,0.28104 v 0.68685 h -0.20073 v -0.727 q 0,-0.17578 -0.0618,-0.25933 -0.0619,-0.0846 -0.19097,-0.0846 -0.153,0 -0.24306,0.10417 -0.0901,0.10308 -0.0901,0.27995 v 0.68685 h -0.20074 v -1.215281 h 0.20074 v 0.188801 q 0.0684,-0.111761 0.16384,-0.164929 0.0955,-0.05317 0.22678,-0.05317 0.13238,0 0.22461,0.06727 0.0933,0.06727 0.13781,0.195314 z" />
    <path
       id="path175"
       style="fill:#ff0000"
       d="m 179.82574,100.92882 v 0.64453 H 179.625 v -1.677521 h 0.20074 v 0.184461 q 0.0629,-0.108506 0.15842,-0.160589 0.0966,-0.05317 0.23003,-0.05317 0.22136,0 0.35916,0.175778 0.13889,0.17578 0.13889,0.46224 0,0.28646 -0.13889,0.46224 -0.1378,0.17578 -0.35916,0.17578 -0.13346,0 -0.23003,-0.0521 -0.0955,-0.0532 -0.15842,-0.16167 z m 0.67925,-0.42427 q 0,-0.22027 -0.0911,-0.34505 -0.0901,-0.12587 -0.24848,-0.12587 -0.15842,0 -0.24957,0.12587 -0.0901,0.12478 -0.0901,0.34505 0,0.22027 0.0901,0.34614 0.0911,0.12478 0.24957,0.12478 0.15842,0 0.24848,-0.12478 0.0911,-0.12587 0.0911,-0.34614 z" />
    <path
       id="path177"
       style="fill:#ff0000"
       d="m 181.51411,100.0358 q -0.16059,0 -0.25391,0.12587 -0.0933,0.12478 -0.0933,0.34288 0,0.2181 0.0922,0.34397 0.0933,0.12478 0.255,0.12478 0.1595,0 0.25282,-0.12587 0.0933,-0.12586 0.0933,-0.34288 0,-0.21593 -0.0933,-0.34179 -0.0933,-0.12696 -0.25282,-0.12696 z m 0,-0.169268 q 0.26041,0 0.40907,0.169268 0.14865,0.16927 0.14865,0.46875 0,0.2984 -0.14865,0.46875 -0.14866,0.16927 -0.40907,0.16927 -0.26151,0 -0.41016,-0.16927 -0.14757,-0.17035 -0.14757,-0.46875 0,-0.29948 0.14757,-0.46875 0.14865,-0.169268 0.41016,-0.169268 z" />
    <path
       id="path179"
       style="fill:#ff0000"
       d="m 183.41189,100.3776 v 0.73351 h -0.19965 v -0.727 q 0,-0.17253 -0.0673,-0.25825 -0.0673,-0.0857 -0.20183,-0.0857 -0.16167,0 -0.25499,0.10308 -0.0933,0.10309 -0.0933,0.28104 v 0.68685 h -0.20074 v -1.215281 h 0.20074 v 0.188801 q 0.0716,-0.109591 0.16818,-0.163844 0.0977,-0.05425 0.22461,-0.05425 0.20942,0 0.31684,0.130208 0.10742,0.12912 0.10742,0.38086 z" />
    <path
       id="path181"
       style="fill:#ff0000"
       d="m 184.85178,100.45355 v 0.0977 h -0.91797 q 0.013,0.20616 0.1237,0.31467 0.11176,0.10742 0.31033,0.10742 0.11502,0 0.22244,-0.0282 0.10851,-0.0282 0.21484,-0.0846 v 0.1888 q -0.10742,0.0456 -0.22027,0.0694 -0.11284,0.0239 -0.22895,0.0239 -0.29079,0 -0.46115,-0.16927 -0.16927,-0.16927 -0.16927,-0.4579 0,-0.29839 0.16059,-0.47309 0.16167,-0.175778 0.43511,-0.175778 0.24523,0 0.38737,0.158418 0.14323,0.15734 0.14323,0.4286 z m -0.19965,-0.0586 q -0.002,-0.16384 -0.0922,-0.2615 -0.089,-0.0977 -0.23655,-0.0977 -0.1671,0 -0.26801,0.0944 -0.0998,0.0944 -0.11502,0.26585 z" />
    <path
       id="path183"
       style="fill:#ff0000"
       d="m 186.18967,100.3776 v 0.73351 h -0.19965 v -0.727 q 0,-0.17253 -0.0673,-0.25825 -0.0673,-0.0857 -0.20182,-0.0857 -0.16167,0 -0.25499,0.10308 -0.0933,0.10309 -0.0933,0.28104 v 0.68685 h -0.20073 v -1.215281 h 0.20073 v 0.188801 q 0.0716,-0.109591 0.16819,-0.163844 0.0977,-0.05425 0.22461,-0.05425 0.20942,0 0.31684,0.130208 0.10742,0.12912 0.10742,0.38086 z" />
    <path
       id="path185"
       style="fill:#ff0000"
       d="m 186.78755,99.550777 v 0.345052 h 0.41124 v 0.155161 h -0.41124 v 0.65973 q 0,0.14865 0.0401,0.19097 0.0412,0.0423 0.16602,0.0423 h 0.20508 v 0.1671 h -0.20508 q -0.23112,0 -0.31901,-0.0857 -0.0879,-0.0868 -0.0879,-0.31467 v -0.65973 h -0.14649 v -0.155161 h 0.14649 v -0.345052 z" />
    <path
       id="path187"
       style="fill:#ff0000"
       d="m 187.81727,99.491098 h 0.18447 l -0.56424,1.826172 h -0.18446 z" />
    <path
       id="path189"
       style="fill:#ff0000"
       d="m 188.21333,99.422739 h 0.19965 v 1.688371 h -0.19965 z" />
    <path
       id="path191"
       style="fill:#ff0000"
       d="m 189.38195,100.50021 q -0.24198,0 -0.33529,0.0553 -0.0933,0.0553 -0.0933,0.1888 0,0.10634 0.0694,0.16927 0.0705,0.0619 0.19097,0.0619 0.16601,0 0.26584,-0.11718 0.10091,-0.11828 0.10091,-0.31359 v -0.0445 z m 0.39822,-0.0825 v 0.69336 h -0.19966 v -0.18446 q -0.0684,0.11067 -0.17035,0.16384 -0.102,0.0521 -0.24957,0.0521 -0.18663,0 -0.29731,-0.10416 -0.10959,-0.10525 -0.10959,-0.28104 0,-0.20507 0.13672,-0.30924 0.1378,-0.10417 0.41015,-0.10417 h 0.27995 v -0.0195 q 0,-0.1378 -0.0911,-0.21267 -0.0901,-0.076 -0.25391,-0.076 -0.10417,0 -0.20291,0.025 -0.0987,0.025 -0.18988,0.0749 v -0.184462 q 0.10959,-0.04232 0.21267,-0.06293 0.10308,-0.0217 0.20074,-0.0217 0.26367,0 0.39388,0.136718 0.13021,0.13672 0.13021,0.4145 z" />
    <path
       id="path193"
       style="fill:#ff0000"
       d="m 191.06489,100.50455 q 0,-0.22027 -0.0911,-0.34505 -0.0901,-0.12587 -0.24848,-0.12587 -0.15842,0 -0.24957,0.12587 -0.0901,0.12478 -0.0901,0.34505 0,0.22027 0.0901,0.34614 0.0912,0.12478 0.24957,0.12478 0.15842,0 0.24848,-0.12478 0.0911,-0.12587 0.0911,-0.34614 z m -0.67926,-0.42426 q 0.0629,-0.108506 0.15842,-0.160589 0.0966,-0.05317 0.23004,-0.05317 0.22135,0 0.35916,0.175778 0.13889,0.17578 0.13889,0.46224 0,0.28646 -0.13889,0.46224 -0.13781,0.17578 -0.35916,0.17578 -0.13347,0 -0.23004,-0.0521 -0.0955,-0.0532 -0.15842,-0.16167 v 0.18229 h -0.20073 v -1.688371 h 0.20073 z" />
    <path
       id="path195"
       style="fill:#ff0000"
       d="m 192.64258,100.45355 v 0.0977 h -0.91797 q 0.013,0.20616 0.1237,0.31467 0.11176,0.10742 0.31033,0.10742 0.11502,0 0.22244,-0.0282 0.1085,-0.0282 0.21484,-0.0846 v 0.1888 q -0.10742,0.0456 -0.22027,0.0694 -0.11285,0.0239 -0.22895,0.0239 -0.2908,0 -0.46115,-0.16927 -0.16927,-0.16927 -0.16927,-0.4579 0,-0.29839 0.16059,-0.47309 0.16167,-0.175778 0.43511,-0.175778 0.24523,0 0.38737,0.158418 0.14323,0.15734 0.14323,0.4286 z m -0.19965,-0.0586 q -0.002,-0.16384 -0.0922,-0.2615 -0.089,-0.0977 -0.23655,-0.0977 -0.1671,0 -0.26801,0.0944 -0.0998,0.0944 -0.11502,0.26585 z" />
    <path
       id="path197"
       style="fill:#ff0000"
       d="m 192.97027,99.422739 h 0.19965 v 1.688371 h -0.19965 z" />
    <path
       id="path199"
       style="fill:#ff0000"
       d="m 194.50998,101.48003 v 0.15517 h -1.15451 v -0.15517 z" />
    <path
       id="path201"
       style="fill:#ff0000"
       d="m 194.67709,100.63151 v -0.735681 h 0.19965 v 0.728081 q 0,0.17253 0.0673,0.25933 0.0673,0.0857 0.20183,0.0857 0.16167,0 0.25499,-0.10308 0.0944,-0.10308 0.0944,-0.28103 v -0.689021 h 0.19965 v 1.215281 h -0.19965 v -0.18664 q -0.0727,0.11068 -0.16927,0.16494 -0.0955,0.0532 -0.22244,0.0532 -0.20942,0 -0.31793,-0.1302 -0.1085,-0.13021 -0.1085,-0.38086 z m 0.50238,-0.764978 z" />
    <path
       id="path203"
       style="fill:#ff0000"
       d="m 196.30143,100.92882 v 0.64453 h -0.20074 v -1.677521 h 0.20074 v 0.184461 q 0.0629,-0.108506 0.15842,-0.160589 0.0966,-0.05317 0.23004,-0.05317 0.22135,0 0.35915,0.175778 0.13889,0.17578 0.13889,0.46224 0,0.28646 -0.13889,0.46224 -0.1378,0.17578 -0.35915,0.17578 -0.13347,0 -0.23004,-0.0521 -0.0955,-0.0532 -0.15842,-0.16167 z m 0.67926,-0.42427 q 0,-0.22027 -0.0911,-0.34505 -0.0901,-0.12587 -0.24848,-0.12587 -0.15842,0 -0.24957,0.12587 -0.0901,0.12478 -0.0901,0.34505 0,0.22027 0.0901,0.34614 0.0911,0.12478 0.24957,0.12478 0.15842,0 0.24848,-0.12478 0.0911,-0.12587 0.0911,-0.34614 z" />
    <path
       id="path205"
       style="fill:#ff0000"
       d="m 197.98546,99.422739 v 1.981341 h -0.46007 v -0.15517 h 0.25933 v -1.671006 h -0.25933 v -0.155165 z" />
  </g>
</svg>
