<?xml version="1.0" encoding="UTF-8" standalone="no"?>
<svg
   xmlns:dc="http://purl.org/dc/elements/1.1/"
   xmlns:cc="http://creativecommons.org/ns#"
   xmlns:rdf="http://www.w3.org/1999/02/22-rdf-syntax-ns#"
   xmlns:svg="http://www.w3.org/2000/svg"
   xmlns="http://www.w3.org/2000/svg"
   id="svg111"
   stroke-miterlimit="10"
   stroke-linecap="square"
   stroke="none"
   fill="none"
   viewBox="0.0 0.0 348.0 348.0"
   version="1.1">
  <metadata
     id="metadata117">
    <rdf:RDF>
      <cc:Work
         rdf:about="">
        <dc:format>image/svg+xml</dc:format>
        <dc:type
           rdf:resource="http://purl.org/dc/dcmitype/StillImage" />
      </cc:Work>
    </rdf:RDF>
  </metadata>
  <defs
     id="defs115" />
  <clipPath
     id="p.0">
    <path
       id="path2"
       clip-rule="nonzero"
       d="m0 0l348.0 0l0 348.0l-348.0 0l0 -348.0z" />
  </clipPath>
  <g
     id="g85"
     clip-path="url(#p.0)">
    <path
       style="fill:#000000;fill-opacity:0;fill-rule:evenodd"
       id="path5"
       d="M 0,0 H 348 V 348 H 0 Z" />
    <path
       style="fill:#ffffff;fill-rule:evenodd"
       id="path7"
       d="M -6,0 H 348.01575 V 347.9685 H -6 Z" />
    <path
       style="fill:#000000;fill-opacity:0;fill-rule:evenodd"
       id="path9"
       d="m 5.07874,5.7758217 h 336.9134 V 343.4451 H 5.07874 Z" />
    <path
       style="fill-rule:evenodd;stroke:#000000;stroke-width:2;stroke-linecap:butt;stroke-linejoin:round"
       id="path11"
       d="m 5.07874,5.7758217 h 336.9134 V 343.4451 H 5.07874 Z" />
    <path
       style="fill:#ffffff;fill-rule:evenodd"
       id="path13"
       d="m 282.73444,40.553925 v 0 c 0,-8.375591 6.96603,-15.165352 15.55905,-15.165352 v 0 c 4.12653,0 8.08402,1.597773 11.00192,4.441828 2.91788,2.844057 4.55713,6.701422 4.55713,10.723524 v 0 c 0,8.375595 -6.966,15.165356 -15.55905,15.165356 v 0 c -8.59302,0 -15.55905,-6.789761 -15.55905,-15.165356 z" />
    <path
       style="fill-rule:evenodd;stroke:#000000;stroke-width:2;stroke-linecap:butt;stroke-linejoin:round"
       id="path15"
       d="m 282.73444,40.553925 v 0 c 0,-8.375591 6.96603,-15.165352 15.55905,-15.165352 v 0 c 4.12653,0 8.08402,1.597773 11.00192,4.441828 2.91788,2.844057 4.55713,6.701422 4.55713,10.723524 v 0 c 0,8.375595 -6.966,15.165356 -15.55905,15.165356 v 0 c -8.59302,0 -15.55905,-6.789761 -15.55905,-15.165356 z" />
    <path
       style="fill:#000000;fill-rule:evenodd"
       id="path17"
       d="M 50.949955,90.04964 60.41452,72.726802 69.879089,90.04964 Z" />
    <path
       style="fill-rule:evenodd;stroke:#000000;stroke-width:2;stroke-linecap:butt;stroke-linejoin:round"
       id="path19"
       d="M 50.949955,90.04964 60.41452,72.726802 69.879089,90.04964 Z" />
    <path
       style="fill:#000000;fill-opacity:0;fill-rule:evenodd"
       id="path21"
       d="m 122.04724,268.00525 h 97.92126 v 41.88977 h -97.92126 z" />
    <path
       style="fill-rule:evenodd;stroke:#000000;stroke-width:2;stroke-linecap:butt;stroke-linejoin:round"
       id="path23"
       d="m 122.04724,268.00525 h 97.92126 v 41.88977 h -97.92126 z" />
    <path
       style="fill:#000000;fill-rule:evenodd"
       id="path25"
       d="M 29.517061,106.30446 H 289.61154 v 96.81889 H 29.517061 Z" />
    <path
       style="fill-rule:evenodd;stroke:#000000;stroke-width:2;stroke-linecap:butt;stroke-linejoin:round"
       id="path27"
       d="M 29.517061,106.30446 H 289.61154 v 96.81889 H 29.517061 Z" />
    <path
       style="fill:#ffffff;fill-rule:evenodd"
       id="path29"
       d="m 35.627296,113.07874 h 49.574806 v 82.14173 H 35.627296 Z" />
    <path
       style="fill-rule:evenodd;stroke:#000000;stroke-width:1;stroke-linecap:butt;stroke-linejoin:round"
       id="path31"
       d="m 35.627296,113.07874 h 49.574806 v 82.14173 H 35.627296 Z" />
    <path
       style="fill:#ffffff;fill-rule:evenodd"
       id="path33"
       d="m 85.2021,113.07874 h 49.5748 v 82.14173 H 85.2021 Z" />
    <path
       style="fill-rule:evenodd;stroke:#000000;stroke-width:1;stroke-linecap:butt;stroke-linejoin:round"
       id="path35"
       d="m 85.2021,113.07874 h 49.5748 v 82.14173 H 85.2021 Z" />
    <path
       style="fill:#ffffff;fill-rule:evenodd"
       id="path37"
       d="m 134.77843,113.07874 h 49.5748 v 82.14173 h -49.5748 z" />
    <path
       style="fill-rule:evenodd;stroke:#000000;stroke-width:1;stroke-linecap:butt;stroke-linejoin:round"
       id="path39"
       d="m 134.77843,113.07874 h 49.5748 v 82.14173 h -49.5748 z" />
    <path
       style="fill:#ffffff;fill-rule:evenodd"
       id="path41"
       d="m 184.35214,113.07874 h 49.5748 v 82.14173 h -49.5748 z" />
    <path
       style="fill-rule:evenodd;stroke:#000000;stroke-width:1;stroke-linecap:butt;stroke-linejoin:round"
       id="path43"
       d="m 184.35214,113.07874 h 49.5748 v 82.14173 h -49.5748 z" />
    <path
       style="fill:#ffffff;fill-rule:evenodd"
       id="path45"
       d="m 233.9265,113.07874 h 49.57481 v 82.14173 H 233.9265 Z" />
    <path
       style="fill-rule:evenodd;stroke:#000000;stroke-width:1;stroke-linecap:butt;stroke-linejoin:round"
       id="path47"
       d="m 233.9265,113.07874 h 49.57481 v 82.14173 H 233.9265 Z" />
    <path
       style="fill:#000000;fill-rule:evenodd"
       id="path49"
       d="m 100.52476,90.04964 9.46457,-17.322838 9.46457,17.322838 z" />
    <path
       style="fill-rule:evenodd;stroke:#000000;stroke-width:2;stroke-linecap:butt;stroke-linejoin:round"
       id="path51"
       d="m 100.52476,90.04964 9.46457,-17.322838 9.46457,17.322838 z" />
    <path
       style="fill:#000000;fill-rule:evenodd"
       id="path53"
       d="m 150.09956,90.04964 9.46457,-17.322838 9.46457,17.322838 z" />
    <path
       style="fill-rule:evenodd;stroke:#000000;stroke-width:2;stroke-linecap:butt;stroke-linejoin:round"
       id="path55"
       d="m 150.09956,90.04964 9.46457,-17.322838 9.46457,17.322838 z" />
    <path
       style="fill:#000000;fill-rule:evenodd"
       id="path57"
       d="m 199.67436,90.04964 9.46457,-17.322838 9.46457,17.322838 z" />
    <path
       style="fill-rule:evenodd;stroke:#000000;stroke-width:2;stroke-linecap:butt;stroke-linejoin:round"
       id="path59"
       d="m 199.67436,90.04964 9.46457,-17.322838 9.46457,17.322838 z" />
    <path
       style="fill:#000000;fill-rule:evenodd"
       id="path61"
       d="m 249.24916,90.04964 9.46458,-17.322838 9.46457,17.322838 z" />
    <path
       style="fill-rule:evenodd;stroke:#000000;stroke-width:2;stroke-linecap:butt;stroke-linejoin:round"
       id="path63"
       d="m 249.24916,90.04964 9.46458,-17.322838 9.46457,17.322838 z" />
    <path
       style="fill:#000000;fill-rule:evenodd"
       id="path65"
       d="m 268.1783,219.37772 -9.46457,17.32285 -9.46458,-17.32285 z" />
    <path
       style="fill-rule:evenodd;stroke:#000000;stroke-width:2;stroke-linecap:butt;stroke-linejoin:round"
       id="path67"
       d="m 268.1783,219.37772 -9.46457,17.32285 -9.46458,-17.32285 z" />
    <path
       style="fill:#000000;fill-rule:evenodd"
       id="path69"
       d="m 218.6035,219.37772 -9.46457,17.32285 -9.46457,-17.32285 z" />
    <path
       style="fill-rule:evenodd;stroke:#000000;stroke-width:2;stroke-linecap:butt;stroke-linejoin:round"
       id="path71"
       d="m 218.6035,219.37772 -9.46457,17.32285 -9.46457,-17.32285 z" />
    <path
       style="fill:#000000;fill-rule:evenodd"
       id="path73"
       d="m 169.0287,219.37772 -9.46457,17.32285 -9.46457,-17.32285 z" />
    <path
       style="fill-rule:evenodd;stroke:#000000;stroke-width:2;stroke-linecap:butt;stroke-linejoin:round"
       id="path75"
       d="m 169.0287,219.37772 -9.46457,17.32285 -9.46457,-17.32285 z" />
    <path
       style="fill:#000000;fill-rule:evenodd"
       id="path77"
       d="m 119.4539,219.37772 -9.46457,17.32285 -9.46457,-17.32285 z" />
    <path
       style="fill-rule:evenodd;stroke:#000000;stroke-width:2;stroke-linecap:butt;stroke-linejoin:round"
       id="path79"
       d="m 119.4539,219.37772 -9.46457,17.32285 -9.46457,-17.32285 z" />
    <path
       style="fill:#000000;fill-rule:evenodd"
       id="path81"
       d="m 69.87909,219.37772 -9.464569,17.32285 -9.464565,-17.32285 z" />
    <path
       style="fill-rule:evenodd;stroke:#000000;stroke-width:2;stroke-linecap:butt;stroke-linejoin:round"
       id="path83"
       d="m 69.87909,219.37772 -9.464569,17.32285 -9.464565,-17.32285 z" />
  </g>
  <g
     id="text89"
     style="font-size:20px;font-family:'DejaVu Sans', sans-serif;text-anchor:middle;fill:#000000"
     aria-label="提交">
    <path
       id="path119"
       style=""
       d="m 161.23438,293.34375 q 0.54687,0.9375 2.1875,1.875 v -5.3125 H 158.5 v -1.48437 h 11.32813 v 1.48437 h -4.84375 v 1.71875 h 3.67187 v 1.48438 h -3.67187 v 2.65625 q 0.70312,0.15625 1.79687,0.15625 h 3.20313 l -0.23438,1.48437 h -3.125 q -3.82812,0 -5.9375,-2.57812 -1.40625,2.1875 -2.73437,2.89062 l -1.01563,-1.25 q 2.89063,-2.1875 3.28125,-5.70312 l 1.64063,0.39062 q 0.54687,0.3125 -0.15625,0.46875 z m -5.15625,-4.53125 1.5625,-0.54687 0.3125,1.32812 -1.875,0.78125 v 5.9375 q 0,1.25 -1.25,1.25 h -1.5625 l -0.23438,-1.48437 h 1.17188 q 0.3125,0 0.3125,-0.3125 v -4.84375 l -1.79688,0.70312 q -0.15625,0.54688 -0.3125,0.23438 l -0.46875,-1.79688 2.57813,-0.78125 v -4.60937 h -2.1875 v -1.48438 h 2.1875 v -3.35937 H 156 q 0.625,0.0781 0.0781,0.46875 v 2.89062 h 2.26562 v 1.48438 h -2.26562 z m 3.59375,-8.28125 h 8.67187 v 6.5625 h -8.67187 z m 1.32812,1.25 v 1.40625 h 6.01563 v -1.40625 z m 0,2.65625 v 1.40625 h 6.01563 v -1.40625 z" />
    <path
       id="path121"
       style=""
       d="m 188.5,297.48438 q -4.53125,-1.01563 -7.34375,-3.4375 -2.96875,2.57812 -8.125,3.35937 l -0.70312,-1.79687 q 5.15625,-0.85938 7.5,-2.73438 -1.95313,-2.1875 -2.96875,-4.29687 L 178.5,287.875 q 1.17188,2.34375 2.5,3.67188 1.25,-1.5625 2.10938,-3.90625 L 184.75,288.5 q 0.46875,0.3125 -0.23437,0.46875 -1.01563,2.26563 -2.1875,3.75 2.10937,1.79688 6.875,2.8125 z m -6.71875,-17.42188 q 0.78125,0.15625 0.0781,0.625 v 1.71875 h 7.34375 v 1.48438 h -16.40625 v -1.48438 h 7.26562 v -2.34375 z m -2.57812,5.46875 q 0.23437,0.15625 -0.39063,0.3125 -1.71875,2.34375 -4.84375,3.67188 l -0.9375,-1.64063 q 2.89063,-1.25 4.6875,-3.51562 z m 4.92187,-1.01562 q 1.875,2.03125 4.6875,3.35937 l -1.25,1.64063 q -2.73437,-1.48438 -4.60937,-3.75 z" />
  </g>
  <g
     id="text93"
     style="font-size:42px;font-family:'DejaVu Sans', sans-serif;text-anchor:middle;fill:#000000"
     aria-label="A">
    <path
       id="path124"
       style=""
       d="m 60,143.46289 -5.619141,15.23731 h 11.258789 z m -2.337891,-4.08105 h 4.696289 L 74.027344,170 h -4.306641 l -2.789062,-7.85449 H 53.129883 L 50.34082,170 h -4.368164 z" />
  </g>
  <g
     id="text97"
     style="font-size:42px;font-family:'DejaVu Sans', sans-serif;text-anchor:middle;fill:#000000"
     aria-label="A">
    <path
       id="path127"
       style=""
       d="m 110,143.46289 -5.61914,15.23731 h 11.25879 z m -2.33789,-4.08105 h 4.69629 L 124.02734,170 h -4.30664 l -2.78906,-7.85449 H 103.12988 L 100.34082,170 h -4.368164 z" />
  </g>
  <g
     id="text101"
     style="font-size:42px;font-family:'DejaVu Sans', sans-serif;text-anchor:middle;fill:#000000"
     aria-label="A">
    <path
       id="path130"
       style=""
       d="m 160,143.46289 -5.61914,15.23731 h 11.25879 z m -2.33789,-4.08105 h 4.69629 L 174.02734,170 h -4.30664 l -2.78906,-7.85449 H 153.12988 L 150.34082,170 h -4.36816 z" />
  </g>
  <g
     id="text105"
     style="font-size:42px;font-family:'DejaVu Sans', sans-serif;text-anchor:middle;fill:#000000"
     aria-label="A">
    <path
       id="path133"
       style=""
       d="m 210,143.46289 -5.61914,15.23731 h 11.25879 z m -2.33789,-4.08105 h 4.69629 L 224.02734,170 h -4.30664 l -2.78906,-7.85449 H 203.12988 L 200.34082,170 h -4.36816 z" />
  </g>
  <g
     id="text109"
     style="font-size:42px;font-family:'DejaVu Sans', sans-serif;text-anchor:middle;fill:#000000"
     aria-label="A">
    <path
       id="path136"
       style=""
       d="m 260,143.46289 -5.61914,15.23731 h 11.25879 z m -2.33789,-4.08105 h 4.69629 L 274.02734,170 h -4.30664 l -2.78906,-7.85449 H 253.12988 L 250.34082,170 h -4.36816 z" />
  </g>
</svg>
