<svg version="1.1" viewBox="0.0 0.0 348.0 348.0" fill="none" stroke="none" stroke-linecap="square" stroke-miterlimit="10" xmlns:xlink="http://www.w3.org/1999/xlink" xmlns="http://www.w3.org/2000/svg">
	<clipPath id="p.0">
		<path d="m0 0l348.0 0l0 348.0l-348.0 0l0 -348.0z" clip-rule="nonzero"/>
	</clipPath><g clip-path="url(#p.0)">
		<path fill="#000000" fill-opacity="0.0" d="m0 0l348.0 0l0 348.0l-348.0 0z" fill-rule="evenodd"/>
		<path fill="#ffffff" d="m-6.0 0l348.0 0l0 347.9685l-348.0 0z" fill-rule="evenodd"/>
		<path fill="#000000" fill-opacity="0.0" d="m5.07874 5.7758217l336.9134 0l0 337.6693l-336.9134 0z" fill-rule="evenodd"/>
		<path stroke="#000000" stroke-width="2.0" stroke-linejoin="round" stroke-linecap="butt" d="m5.07874 5.7758217l336.9134 0l0 337.6693l-336.9134 0z" fill-rule="evenodd"/>
		<path fill="#ffffff" d="m282.73444 40.553925l0 0c0 -8.375591 6.966034 -15.165352 15.5590515 -15.165352l0 0c4.126526 0 8.084015 1.5977726 11.001923 4.441828c2.9178772 2.844057 4.557129 6.7014217 4.557129 10.723524l0 0c0 8.375595 -6.9660034 15.165356 -15.5590515 15.165356l0 0c-8.593018 0 -15.5590515 -6.7897606 -15.5590515 -15.165356z" fill-rule="evenodd"/>
		<path stroke="#000000" stroke-width="2.0" stroke-linejoin="round" stroke-linecap="butt" d="m282.73444 40.553925l0 0c0 -8.375591 6.966034 -15.165352 15.5590515 -15.165352l0 0c4.126526 0 8.084015 1.5977726 11.001923 4.441828c2.9178772 2.844057 4.557129 6.7014217 4.557129 10.723524l0 0c0 8.375595 -6.9660034 15.165356 -15.5590515 15.165356l0 0c-8.593018 0 -15.5590515 -6.7897606 -15.5590515 -15.165356z" fill-rule="evenodd"/>
		<path fill="#ffffff" d="m117.83202 290.61154l87.90551 0l0 34.80316l-87.90551 0z" fill-rule="evenodd"/>
		<path stroke="#000000" stroke-width="2.0" stroke-linejoin="round" stroke-linecap="butt" d="m117.83202 290.61154l87.90551 0l0 34.80316l-87.90551 0z" fill-rule="evenodd"/>
		<path fill="#ffffff" d="m16.482939 118.44095l302.83466 0l0 157.5433l-302.83466 0z" fill-rule="evenodd"/>
		<path stroke="#000000" stroke-width="2.0" stroke-linejoin="round" stroke-linecap="butt" d="m16.482939 118.44095l302.83466 0l0 157.5433l-302.83466 0z" fill-rule="evenodd"/>
		<path fill="#000000" d="m58.66142 187.43045l218.67717 0l0 72.031494l-218.67717 0z" fill-rule="evenodd"/>
		<path fill="#000000" d="m48.307087 196.76903l-22.866142 26.67717l22.866142 26.67717z" fill-rule="evenodd"/>
		<path stroke="#000000" stroke-width="2.0" stroke-linejoin="round" stroke-linecap="butt" d="m48.307087 196.76903l-22.866142 26.67717l22.866142 26.67717z" fill-rule="evenodd"/>
		<path fill="#000000" d="m287.6929 196.76903l22.86615 26.67717l-22.86615 26.67717z" fill-rule="evenodd"/>
		<path stroke="#000000" stroke-width="2.0" stroke-linejoin="round" stroke-linecap="butt" d="m287.6929 196.76903l22.86615 26.67717l-22.86615 26.67717z" fill-rule="evenodd"/>
		<path fill="#000000" fill-opacity="0.0" d="m161.49081 49.87664l113.82678 0.56692886" fill-rule="evenodd"/>
		<path stroke="#000000" stroke-width="2.0" stroke-linejoin="round" stroke-linecap="butt" d="m161.49081 49.87664l113.82678 0.56692886" fill-rule="evenodd"/>
		<path fill="#000000" fill-opacity="0.0" d="m29.713911 49.87664l-24.598425 -43.90551" fill-rule="evenodd"/>
		<path stroke="#000000" stroke-width="2.0" stroke-linejoin="round" stroke-linecap="butt" d="m29.713911 49.87664l-24.598425 -43.90551" fill-rule="evenodd"/>
		<path fill="#000000" d="m45.790028 23.199474l12.881889 0l0 53.354336l-12.881889 0z" fill-rule="evenodd"/>
		<path stroke="#000000" stroke-width="2.0" stroke-linejoin="round" stroke-linecap="butt" d="m45.790028 23.199474l12.881889 0l0 53.354336l-12.881889 0z" fill-rule="evenodd"/>
		<path fill="#000000" d="m132.35695 23.199474l12.881897 0l0 53.354336l-12.881897 0z" fill-rule="evenodd"/>
		<path stroke="#000000" stroke-width="2.0" stroke-linejoin="round" stroke-linecap="butt" d="m132.35695 23.199474l12.881897 0l0 53.354336l-12.881897 0z" fill-rule="evenodd"/>
		<path fill="#ffffff" d="m43.34646 139.81102l252.75589 0l0 30.330719l-252.75589 0z" fill-rule="evenodd"/>
		<path stroke="#000000" stroke-width="2.0" stroke-linejoin="round" stroke-linecap="butt" d="m43.34646 139.81102l252.75589 0l0 30.330719l-252.75589 0z" fill-rule="evenodd"/>
		<path fill="#000000" fill-opacity="0.0" d="m59.220474 170.94751l0 -9.763779" fill-rule="evenodd"/>
		<path stroke="#000000" stroke-width="2.0" stroke-linejoin="round" stroke-linecap="butt" d="m59.220474 170.94751l0 -9.763779" fill-rule="evenodd"/>
		<path fill="#000000" fill-opacity="0.0" d="m84.05541 139.81102l0 12.818909" fill-rule="evenodd"/>
		<path stroke="#000000" stroke-width="2.0" stroke-linejoin="round" stroke-linecap="butt" d="m84.05541 139.81102l0 12.818909" fill-rule="evenodd"/>
		<path fill="#000000" fill-opacity="0.0" d="m133.72528 139.40814l0 12.818893" fill-rule="evenodd"/>
		<path stroke="#000000" stroke-width="2.0" stroke-linejoin="round" stroke-linecap="butt" d="m133.72528 139.40814l0 12.818893" fill-rule="evenodd"/>
		<path fill="#000000" fill-opacity="0.0" d="m108.89035 170.54462l0 -9.763779" fill-rule="evenodd"/>
		<path stroke="#000000" stroke-width="2.0" stroke-linejoin="round" stroke-linecap="butt" d="m108.89035 170.54462l0 -9.763779" fill-rule="evenodd"/>
		<path fill="#000000" fill-opacity="0.0" d="m233.06505 139.40683l0 12.818893" fill-rule="evenodd"/>
		<path stroke="#000000" stroke-width="2.0" stroke-linejoin="round" stroke-linecap="butt" d="m233.06505 139.40683l0 12.818893" fill-rule="evenodd"/>
		<path fill="#000000" fill-opacity="0.0" d="m208.23009 170.5433l0 -9.763779" fill-rule="evenodd"/>
		<path stroke="#000000" stroke-width="2.0" stroke-linejoin="round" stroke-linecap="butt" d="m208.23009 170.5433l0 -9.763779" fill-rule="evenodd"/>
		<path fill="#000000" fill-opacity="0.0" d="m282.7349 139.40683l0 12.818893" fill-rule="evenodd"/>
		<path stroke="#000000" stroke-width="2.0" stroke-linejoin="round" stroke-linecap="butt" d="m282.7349 139.40683l0 12.818893" fill-rule="evenodd"/>
		<path fill="#000000" fill-opacity="0.0" d="m257.89996 170.5433l0 -9.763779" fill-rule="evenodd"/>
		<path stroke="#000000" stroke-width="2.0" stroke-linejoin="round" stroke-linecap="butt" d="m257.89996 170.5433l0 -9.763779" fill-rule="evenodd"/>
		<path fill="#000000" fill-opacity="0.0" d="m158.56023 170.54462l0 -9.763779" fill-rule="evenodd"/>
		<path stroke="#000000" stroke-width="2.0" stroke-linejoin="round" stroke-linecap="butt" d="m158.56023 170.54462l0 -9.763779" fill-rule="evenodd"/>
		<path fill="#000000" fill-opacity="0.0" d="m183.39516 139.40814l0 12.818893" fill-rule="evenodd"/>
		<path stroke="#000000" stroke-width="2.0" stroke-linejoin="round" stroke-linecap="butt" d="m183.39516 139.40814l0 12.818893" fill-rule="evenodd"/>
		<path fill="#000000" d="m64.10499 136.14699l8.535431 0l0 40.283463l-8.535431 0z" fill-rule="evenodd"/>
		<path stroke="#000000" stroke-width="2.0" stroke-linejoin="round" stroke-linecap="butt" d="m64.10499 136.14699l8.535431 0l0 40.283463l-8.535431 0z" fill-rule="evenodd"/>
		<path fill="#000000" fill-opacity="0.0" d="m56.43307 30.55643l75.937 0l0 40.283466l-75.937 0z" fill-rule="evenodd"/>
		<path stroke="#000000" stroke-width="2.0" stroke-linejoin="round" stroke-linecap="butt" d="m56.43307 30.55643l75.937 0l0 40.283466l-75.937 0z" fill-rule="evenodd"/>
		<path fill="#000000" d="m145.23885 34.711285l8.125977 0l0 0c4.4878693 0 8.125992 6.7897606 8.125992 15.165356c0 8.375595 -3.6381226 15.165352 -8.125992 15.165352l-8.125977 0z" fill-rule="evenodd"/>
		<path stroke="#000000" stroke-width="2.0" stroke-linejoin="round" stroke-linecap="butt" d="m145.23885 34.711285l8.125977 0l0 0c4.4878693 0 8.125992 6.7897606 8.125992 15.165356c0 8.375595 -3.6381226 15.165352 -8.125992 15.165352l-8.125977 0z" fill-rule="evenodd"/>
		<path fill="#000000" d="m45.0 65.04199l-8.125984 0l0 0c-4.487858 0 -8.125984 -6.789757 -8.125984 -15.165352c0 -8.375595 3.6381264 -15.165356 8.125984 -15.165356l8.125984 0z" fill-rule="evenodd"/>
		<path stroke="#000000" stroke-width="2.0" stroke-linejoin="round" stroke-linecap="butt" d="m45.0 65.04199l-8.125984 0l0 0c-4.487858 0 -8.125984 -6.789757 -8.125984 -15.165352c0 -8.375595 3.6381264 -15.165356 8.125984 -15.165356l8.125984 0z" fill-rule="evenodd"/>
	</g>
	<text fill="#ffffff" font-family="DejaVu Sans, sans-serif" text-anchor="middle" x="167" y="237" font-size="36px">
		<tspan data-localize="morse.frequency" data-args="frequency=3.500">3.500 MHz</tspan>
	</text>
	<text fill="#000000" font-family="DejaVu Sans, sans-serif" text-anchor="middle" x="162" y="315" font-size="20px">
		<tspan data-localize="MorseComponent/button_transmit" data-autosize="6">TX</tspan>
	</text>
</svg>