<?xml version="1.0" standalone="yes"?>

<svg version="1.1" viewBox="0.0 0.0 348.0 348.0" fill="none" stroke="none" stroke-linecap="square" stroke-miterlimit="10" xmlns="http://www.w3.org/2000/svg" xmlns:xlink="http://www.w3.org/1999/xlink">
	<clipPath id="p.0">
		<path d="m0 0l348.0 0l0 348.0l-348.0 0l0 -348.0z" clip-rule="nonzero"/>
	</clipPath><g clip-path="url(#p.0)">
		<path fill="#000000" fill-opacity="0.0" d="m0 0l348.0 0l0 348.0l-348.0 0z" fill-rule="nonzero"/>
		<path fill="#ffffff" d="m-6.0 0l354.01575 0l0 347.9685l-354.01575 0z" fill-rule="nonzero"/>
		<path fill="#000000" fill-opacity="0.0" d="m5.07874 5.7758217l336.9134 0l0 337.6693l-336.9134 0z" fill-rule="nonzero"/>
		<path stroke="#000000" stroke-width="2.0" stroke-linejoin="round" stroke-linecap="butt" d="m5.07874 5.7758217l336.9134 0l0 337.6693l-336.9134 0z" fill-rule="nonzero"/>
		<path fill="#000000" d="m133.84251 15.666667l74.33072 0l0 56.881886l-74.33072 0z" fill-rule="nonzero"/>
		<path fill="#ffffff" d="m154.53912 44.089794q0 -4.0625 0.828125 -6.53125q0.84375 -2.484375 2.484375 -3.828125q1.65625 -1.34375 4.15625 -1.34375q1.84375 0 3.234375 0.75q1.390625 0.734375 2.296875 2.140625q0.90625 1.390625 1.421875 3.40625q0.515625 2.0 0.515625 5.40625q0 4.03125 -0.828125 6.515625q-0.828125 2.46875 -2.484375 3.828125q-1.640625 1.34375 -4.15625 1.34375q-3.3125 0 -5.203125 -2.375q-2.265625 -2.859375 -2.265625 -9.3125zm2.890625 0q0 5.640625 1.3125 7.515625q1.328125 1.859375 3.265625 1.859375q1.9375 0 3.25 -1.875q1.328125 -1.875 1.328125 -7.5q0 -5.65625 -1.328125 -7.515625q-1.3125 -1.859375 -3.28125 -1.859375q-1.9375 0 -3.09375 1.640625q-1.453125 2.09375 -1.453125 7.734375zm14.90625 0q0 -4.0625 0.828125 -6.53125q0.84375 -2.484375 2.484375 -3.828125q1.65625 -1.34375 4.15625 -1.34375q1.84375 0 3.234375 0.75q1.390625 0.734375 2.296875 2.140625q0.90625 1.390625 1.421875 3.40625q0.515625 2.0 0.515625 5.40625q0 4.03125 -0.828125 6.515625q-0.828125 2.46875 -2.484375 3.828125q-1.640625 1.34375 -4.15625 1.34375q-3.3125 0 -5.203125 -2.375q-2.265625 -2.859375 -2.265625 -9.3125zm2.890625 0q0 5.640625 1.3125 7.515625q1.328125 1.859375 3.265625 1.859375q1.9375 0 3.25 -1.875q1.328125 -1.875 1.328125 -7.5q0 -5.65625 -1.328125 -7.515625q-1.3125 -1.859375 -3.28125 -1.859375q-1.9375 0 -3.09375 1.640625q-1.453125 2.09375 -1.453125 7.734375z" fill-rule="nonzero"/>
		<path fill="#ffffff" d="m15.262467 17.706038l109.88976 0l0 54.83464l-109.88976 0z" fill-rule="nonzero"/>
		<path stroke="#000000" stroke-width="2.0" stroke-linejoin="round" stroke-linecap="butt" d="m15.262467 17.706038l109.88976 0l0 54.83464l-109.88976 0z" fill-rule="nonzero"/>
		<path fill="#000000" fill-opacity="0.0" d="m15.262467 72.65354l39.68504 -54.07874" fill-rule="nonzero"/>
		<path stroke="#000000" stroke-width="2.0" stroke-linejoin="round" stroke-linecap="butt" d="m15.262467 72.65354l39.68504 -54.07874" fill-rule="nonzero"/>
		<path fill="#000000" fill-opacity="0.0" d="m37.56649 72.65354l39.685043 -54.07874" fill-rule="nonzero"/>
		<path stroke="#000000" stroke-width="2.0" stroke-linejoin="round" stroke-linecap="butt" d="m37.56649 72.65354l39.685043 -54.07874" fill-rule="nonzero"/>
		<path fill="#000000" fill-opacity="0.0" d="m59.870514 72.65354l39.685043 -54.07874" fill-rule="nonzero"/>
		<path stroke="#000000" stroke-width="2.0" stroke-linejoin="round" stroke-linecap="butt" d="m59.870514 72.65354l39.685043 -54.07874" fill-rule="nonzero"/>
		<path fill="#000000" fill-opacity="0.0" d="m82.17454 72.65354l39.685043 -54.07874" fill-rule="nonzero"/>
		<path stroke="#000000" stroke-width="2.0" stroke-linejoin="round" stroke-linecap="butt" d="m82.17454 72.65354l39.685043 -54.07874" fill-rule="nonzero"/>
		<path fill="#ffffff" d="m32.97638 83.031494l282.04724 0l0 242.36221l-282.04724 0z" fill-rule="nonzero"/>
		<path stroke="#000000" stroke-width="2.0" stroke-linejoin="round" stroke-linecap="butt" d="m32.97638 83.031494l282.04724 0l0 242.36221l-282.04724 0z" fill-rule="nonzero"/>
		<path fill="#ffffff" d="m216.86351 16.633858l109.889755 0l0 54.83465l-109.889755 0z" fill-rule="nonzero"/>
		<path stroke="#000000" stroke-width="2.0" stroke-linejoin="round" stroke-linecap="butt" d="m216.86351 16.633858l109.889755 0l0 54.83465l-109.889755 0z" fill-rule="nonzero"/>
		<path fill="#000000" fill-opacity="0.0" d="m216.86351 71.58137l39.685043 -54.078743" fill-rule="nonzero"/>
		<path stroke="#000000" stroke-width="2.0" stroke-linejoin="round" stroke-linecap="butt" d="m216.86351 71.58137l39.685043 -54.078743" fill-rule="nonzero"/>
		<path fill="#000000" fill-opacity="0.0" d="m239.16754 71.58137l39.685028 -54.078743" fill-rule="nonzero"/>
		<path stroke="#000000" stroke-width="2.0" stroke-linejoin="round" stroke-linecap="butt" d="m239.16754 71.58137l39.685028 -54.078743" fill-rule="nonzero"/>
		<path fill="#000000" fill-opacity="0.0" d="m261.47156 71.58137l39.68506 -54.078743" fill-rule="nonzero"/>
		<path stroke="#000000" stroke-width="2.0" stroke-linejoin="round" stroke-linecap="butt" d="m261.47156 71.58137l39.68506 -54.078743" fill-rule="nonzero"/>
		<path fill="#000000" fill-opacity="0.0" d="m283.7756 71.58137l39.685028 -54.078743" fill-rule="nonzero"/>
		<path stroke="#000000" stroke-width="2.0" stroke-linejoin="round" stroke-linecap="butt" d="m283.7756 71.58137l39.685028 -54.078743" fill-rule="nonzero"/>
		<path fill="#000000" d="m44.490814 88.11811l258.99213 0l0 163.93701l-258.99213 0z" fill-rule="nonzero"/>
		<path stroke="#000000" stroke-width="1.0" stroke-linejoin="round" stroke-linecap="butt" d="m113.77165 267.51697l49.259842 0l0 45.480316l-49.259842 0z" fill-rule="nonzero"/>
		<path fill="#000000" fill-opacity="0.0" d="m182.79527 267.51697l49.259842 0l0 45.480316l-49.259842 0z" fill-rule="nonzero"/>
		<path stroke="#000000" stroke-width="1.0" stroke-linejoin="round" stroke-linecap="butt" d="m182.79527 267.51697l49.259842 0l0 45.480316l-49.259842 0z" fill-rule="nonzero"/>
		<path fill="#ffffff" d="m260.08136 270.74014l36.724426 0l0 25.637817l-36.724426 0z" fill-rule="nonzero"/>
		<path stroke="#000000" stroke-width="2.0" stroke-linejoin="round" stroke-linecap="butt" d="m260.08136 270.74014l36.724426 0l0 25.637817l-36.724426 0z" fill-rule="nonzero"/>
		<path fill="#ffffff" d="m265.46457 305.50656l0 0c0 -2.3569946 1.9107056 -4.2677307 4.2677 -4.2677307l0 0c1.131897 0 2.2174072 0.449646 3.0177307 1.25c0.800354 0.800354 1.25 1.8858643 1.25 3.0177307l0 0c0 2.3569946 -1.9107361 4.2677307 -4.2677307 4.2677307l0 0c-2.3569946 0 -4.2677 -1.9107361 -4.2677 -4.2677307z" fill-rule="nonzero"/>
		<path stroke="#000000" stroke-width="2.0" stroke-linejoin="round" stroke-linecap="butt" d="m265.46457 305.50656l0 0c0 -2.3569946 1.9107056 -4.2677307 4.2677 -4.2677307l0 0c1.131897 0 2.2174072 0.449646 3.0177307 1.25c0.800354 0.800354 1.25 1.8858643 1.25 3.0177307l0 0c0 2.3569946 -1.9107361 4.2677307 -4.2677307 4.2677307l0 0c-2.3569946 0 -4.2677 -1.9107361 -4.2677 -4.2677307z" fill-rule="nonzero"/>
		<path fill="#ffffff" d="m282.8084 305.50656l0 0c0 -2.3569946 1.9107056 -4.2677307 4.2677 -4.2677307l0 0c1.1318665 0 2.2173767 0.449646 3.0177307 1.25c0.800354 0.800354 1.25 1.8858643 1.25 3.0177307l0 0c0 2.3569946 -1.9107361 4.2677307 -4.2677307 4.2677307l0 0c-2.3569946 0 -4.2677 -1.9107361 -4.2677 -4.2677307z" fill-rule="nonzero"/>
		<path stroke="#000000" stroke-width="2.0" stroke-linejoin="round" stroke-linecap="butt" d="m282.8084 305.50656l0 0c0 -2.3569946 1.9107056 -4.2677307 4.2677 -4.2677307l0 0c1.1318665 0 2.2173767 0.449646 3.0177307 1.25c0.800354 0.800354 1.25 1.8858643 1.25 3.0177307l0 0c0 2.3569946 -1.9107361 4.2677307 -4.2677307 4.2677307l0 0c-2.3569946 0 -4.2677 -1.9107361 -4.2677 -4.2677307z" fill-rule="nonzero"/>
	</g>
	<text fill="#ffffff" font-family="DejaVu Sans, sans-serif" text-anchor="middle" x="174" y="138" font-size="42px">
		<tspan data-localize="needygas.moduleicontext" data-autosize="10">[ TEXT ]</tspan>
	</text>
	<text fill="#000000" font-family="DejaVu Sans, sans-serif" text-anchor="middle" x="138" y="297" font-size="24px">
		<tspan data-localize="NeedyVentComponent/button_y">Y</tspan>
	</text>
	<text fill="#000000" font-family="DejaVu Sans, sans-serif" text-anchor="middle" x="208" y="297" font-size="24px">
		<tspan data-localize="NeedyVentComponent/button_n">N</tspan>
	</text>
</svg>

