<?xml version="1.0" standalone="yes"?>

<svg version="1.1" viewBox="0.0 0.0 348.0 348.0" fill="none" stroke="none" stroke-linecap="square" stroke-miterlimit="10" xmlns="http://www.w3.org/2000/svg" xmlns:xlink="http://www.w3.org/1999/xlink">
	<clipPath id="p.0">
		<path d="m0 0l348.0 0l0 348.0l-348.0 0l0 -348.0z" clip-rule="nonzero"/>
	</clipPath><g clip-path="url(#p.0)">
		<path fill="#000000" fill-opacity="0.0" d="m0 0l348.0 0l0 348.0l-348.0 0z" fill-rule="nonzero"/>
		<path fill="#ffffff" d="m-6.0 0l354.01575 0l0 347.9685l-354.01575 0z" fill-rule="nonzero"/>
		<path fill="#000000" fill-opacity="0.0" d="m5.07874 5.7758217l336.9134 0l0 337.6693l-336.9134 0z" fill-rule="nonzero"/>
		<path stroke="#000000" stroke-width="2.0" stroke-linejoin="round" stroke-linecap="butt" d="m5.07874 5.7758217l336.9134 0l0 337.6693l-336.9134 0z" fill-rule="nonzero"/>
		<path fill="#ffffff" d="m282.73444 40.553925l0 0c0 -8.375591 6.966034 -15.165352 15.5590515 -15.165352l0 0c4.126526 0 8.084015 1.5977726 11.001923 4.441828c2.9178772 2.844057 4.557129 6.7014217 4.557129 10.723524l0 0c0 8.375595 -6.9660034 15.165356 -15.5590515 15.165356l0 0c-8.593018 0 -15.5590515 -6.7897606 -15.5590515 -15.165356z" fill-rule="nonzero"/>
		<path stroke="#000000" stroke-width="2.0" stroke-linejoin="round" stroke-linecap="butt" d="m282.73444 40.553925l0 0c0 -8.375591 6.966034 -15.165352 15.5590515 -15.165352l0 0c4.126526 0 8.084015 1.5977726 11.001923 4.441828c2.9178772 2.844057 4.557129 6.7014217 4.557129 10.723524l0 0c0 8.375595 -6.9660034 15.165356 -15.5590515 15.165356l0 0c-8.593018 0 -15.5590515 -6.7897606 -15.5590515 -15.165356z" fill-rule="nonzero"/>
		<path fill="#000000" fill-opacity="0.0" d="m110.603676 279.34647l97.92126 0l0 41.88974l-97.92126 0z" fill-rule="nonzero"/>
		<path stroke="#000000" stroke-width="2.0" stroke-linejoin="round" stroke-linecap="butt" d="m110.603676 279.34647l97.92126 0l0 41.88974l-97.92126 0z" fill-rule="nonzero"/>
		<path stroke="#000000" stroke-width="2.0" stroke-linejoin="round" stroke-linecap="butt" d="m50.50525 84.80578l0 0c0 -5.5663376 4.5124054 -10.078743 10.078739 -10.078743l0 0c2.67305 0 5.236614 1.0618591 7.126751 2.9519958c1.8901291 1.8901291 2.9519882 4.453697 2.9519882 7.126747l0 0c0 5.56633 -4.5124054 10.078735 -10.078739 10.078735l0 0c-5.566334 0 -10.078739 -4.5124054 -10.078739 -10.078735z" fill-rule="nonzero"/>
		<path fill="#000000" d="m56.537144 88.511055l4.047245 -7.401573l4.047241 7.401573z" fill-rule="nonzero"/>
		<path stroke="#000000" stroke-width="2.0" stroke-linejoin="round" stroke-linecap="butt" d="m56.537144 88.511055l4.047245 -7.401573l4.047241 7.401573z" fill-rule="nonzero"/>
		<path fill="#ffffff" d="m99.99606 84.80578l0 0c0 -5.5663376 4.5124054 -10.078743 10.078743 -10.078743l0 0c2.6730423 0 5.2366104 1.0618591 7.1267395 2.9519958c1.8901367 1.8901291 2.9519958 4.453697 2.9519958 7.126747l0 0c0 5.56633 -4.5124054 10.078735 -10.078735 10.078735l0 0c-5.5663376 0 -10.078743 -4.5124054 -10.078743 -10.078735z" fill-rule="nonzero"/>
		<path stroke="#000000" stroke-width="2.0" stroke-linejoin="round" stroke-linecap="butt" d="m99.99606 84.80578l0 0c0 -5.5663376 4.5124054 -10.078743 10.078743 -10.078743l0 0c2.6730423 0 5.2366104 1.0618591 7.1267395 2.9519958c1.8901367 1.8901291 2.9519958 4.453697 2.9519958 7.126747l0 0c0 5.56633 -4.5124054 10.078735 -10.078735 10.078735l0 0c-5.5663376 0 -10.078743 -4.5124054 -10.078743 -10.078735z" fill-rule="nonzero"/>
		<path fill="#000000" d="m106.02796 88.511055l4.047241 -7.401573l4.047241 7.401573z" fill-rule="nonzero"/>
		<path stroke="#000000" stroke-width="2.0" stroke-linejoin="round" stroke-linecap="butt" d="m106.02796 88.511055l4.047241 -7.401573l4.047241 7.401573z" fill-rule="nonzero"/>
		<path fill="#ffffff" d="m149.48557 84.80578l0 0c0 -5.5663376 4.5124054 -10.078743 10.078735 -10.078743l0 0c2.67305 0 5.236618 1.0618591 7.1267548 2.9519958c1.8901215 1.8901291 2.9519958 4.453697 2.9519958 7.126747l0 0c0 5.56633 -4.5124054 10.078735 -10.078751 10.078735l0 0c-5.56633 0 -10.078735 -4.5124054 -10.078735 -10.078735z" fill-rule="nonzero"/>
		<path stroke="#000000" stroke-width="2.0" stroke-linejoin="round" stroke-linecap="butt" d="m149.48557 84.80578l0 0c0 -5.5663376 4.5124054 -10.078743 10.078735 -10.078743l0 0c2.67305 0 5.236618 1.0618591 7.1267548 2.9519958c1.8901215 1.8901291 2.9519958 4.453697 2.9519958 7.126747l0 0c0 5.56633 -4.5124054 10.078735 -10.078751 10.078735l0 0c-5.56633 0 -10.078735 -4.5124054 -10.078735 -10.078735z" fill-rule="nonzero"/>
		<path fill="#000000" d="m155.51746 88.511055l4.047241 -7.401573l4.0472565 7.401573z" fill-rule="nonzero"/>
		<path stroke="#000000" stroke-width="2.0" stroke-linejoin="round" stroke-linecap="butt" d="m155.51746 88.511055l4.047241 -7.401573l4.0472565 7.401573z" fill-rule="nonzero"/>
		<path fill="#ffffff" d="m198.89108 84.80578l0 0c0 -5.5663376 4.5124054 -10.078743 10.078735 -10.078743l0 0c2.67305 0 5.236618 1.0618591 7.1267395 2.9519958c1.8901367 1.8901291 2.9519958 4.453697 2.9519958 7.126747l0 0c0 5.56633 -4.5124054 10.078735 -10.078735 10.078735l0 0c-5.56633 0 -10.078735 -4.5124054 -10.078735 -10.078735z" fill-rule="nonzero"/>
		<path stroke="#000000" stroke-width="2.0" stroke-linejoin="round" stroke-linecap="butt" d="m198.89108 84.80578l0 0c0 -5.5663376 4.5124054 -10.078743 10.078735 -10.078743l0 0c2.67305 0 5.236618 1.0618591 7.1267395 2.9519958c1.8901367 1.8901291 2.9519958 4.453697 2.9519958 7.126747l0 0c0 5.56633 -4.5124054 10.078735 -10.078735 10.078735l0 0c-5.56633 0 -10.078735 -4.5124054 -10.078735 -10.078735z" fill-rule="nonzero"/>
		<path fill="#000000" d="m204.92297 88.511055l4.047241 -7.401573l4.047241 7.401573z" fill-rule="nonzero"/>
		<path stroke="#000000" stroke-width="2.0" stroke-linejoin="round" stroke-linecap="butt" d="m204.92297 88.511055l4.047241 -7.401573l4.047241 7.401573z" fill-rule="nonzero"/>
		<path fill="#ffffff" d="m248.46588 84.80578l0 0c0 -5.5663376 4.5124054 -10.078743 10.078735 -10.078743l0 0c2.6730652 0 5.2366333 1.0618591 7.1267395 2.9519958c1.8901367 1.8901291 2.9519958 4.453697 2.9519958 7.126747l0 0c0 5.56633 -4.51239 10.078735 -10.078735 10.078735l0 0c-5.56633 0 -10.078735 -4.5124054 -10.078735 -10.078735z" fill-rule="nonzero"/>
		<path stroke="#000000" stroke-width="2.0" stroke-linejoin="round" stroke-linecap="butt" d="m248.46588 84.80578l0 0c0 -5.5663376 4.5124054 -10.078743 10.078735 -10.078743l0 0c2.6730652 0 5.2366333 1.0618591 7.1267395 2.9519958c1.8901367 1.8901291 2.9519958 4.453697 2.9519958 7.126747l0 0c0 5.56633 -4.51239 10.078735 -10.078735 10.078735l0 0c-5.56633 0 -10.078735 -4.5124054 -10.078735 -10.078735z" fill-rule="nonzero"/>
		<path fill="#000000" d="m254.49777 88.511055l4.047241 -7.401573l4.047241 7.401573z" fill-rule="nonzero"/>
		<path stroke="#000000" stroke-width="2.0" stroke-linejoin="round" stroke-linecap="butt" d="m254.49777 88.511055l4.047241 -7.401573l4.047241 7.401573z" fill-rule="nonzero"/>
		<path fill="#ffffff" d="m50.503937 259.30185l0 0c0 5.5663147 4.5124054 10.078735 10.078739 10.078735l0 0c2.67305 0 5.236614 -1.0618591 7.126751 -2.9519958c1.8901291 -1.8901367 2.9519882 -4.453705 2.9519882 -7.1267395l0 0c0 -5.566345 -4.5124054 -10.078751 -10.078739 -10.078751l0 0c-5.566334 0 -10.078739 4.5124054 -10.078739 10.078751z" fill-rule="nonzero"/>
		<path stroke="#000000" stroke-width="2.0" stroke-linejoin="round" stroke-linecap="butt" d="m50.503937 259.30185l0 0c0 5.5663147 4.5124054 10.078735 10.078739 10.078735l0 0c2.67305 0 5.236614 -1.0618591 7.126751 -2.9519958c1.8901291 -1.8901367 2.9519882 -4.453705 2.9519882 -7.1267395l0 0c0 -5.566345 -4.5124054 -10.078751 -10.078739 -10.078751l0 0c-5.566334 0 -10.078739 4.5124054 -10.078739 10.078751z" fill-rule="nonzero"/>
		<path fill="#000000" d="m56.53583 255.59656l4.047245 7.401581l4.047241 -7.401581z" fill-rule="nonzero"/>
		<path stroke="#000000" stroke-width="2.0" stroke-linejoin="round" stroke-linecap="butt" d="m56.53583 255.59656l4.047245 7.401581l4.047241 -7.401581z" fill-rule="nonzero"/>
		<path fill="#ffffff" d="m99.99475 259.30185l0 0c0 5.5663147 4.5124054 10.078735 10.078743 10.078735l0 0c2.6730423 0 5.2366104 -1.0618591 7.1267395 -2.9519958c1.8901367 -1.8901367 2.9519958 -4.453705 2.9519958 -7.1267395l0 0c0 -5.566345 -4.5124054 -10.078751 -10.078735 -10.078751l0 0c-5.5663376 0 -10.078743 4.5124054 -10.078743 10.078751z" fill-rule="nonzero"/>
		<path stroke="#000000" stroke-width="2.0" stroke-linejoin="round" stroke-linecap="butt" d="m99.99475 259.30185l0 0c0 5.5663147 4.5124054 10.078735 10.078743 10.078735l0 0c2.6730423 0 5.2366104 -1.0618591 7.1267395 -2.9519958c1.8901367 -1.8901367 2.9519958 -4.453705 2.9519958 -7.1267395l0 0c0 -5.566345 -4.5124054 -10.078751 -10.078735 -10.078751l0 0c-5.5663376 0 -10.078743 4.5124054 -10.078743 10.078751z" fill-rule="nonzero"/>
		<path fill="#000000" d="m106.02665 255.59656l4.047241 7.401581l4.047241 -7.401581z" fill-rule="nonzero"/>
		<path stroke="#000000" stroke-width="2.0" stroke-linejoin="round" stroke-linecap="butt" d="m106.02665 255.59656l4.047241 7.401581l4.047241 -7.401581z" fill-rule="nonzero"/>
		<path fill="#ffffff" d="m149.48425 259.30185l0 0c0 5.5663147 4.5124054 10.078735 10.078735 10.078735l0 0c2.67305 0 5.236618 -1.0618591 7.1267548 -2.9519958c1.8901215 -1.8901367 2.9519958 -4.453705 2.9519958 -7.1267395l0 0c0 -5.566345 -4.5124054 -10.078751 -10.078751 -10.078751l0 0c-5.56633 0 -10.078735 4.5124054 -10.078735 10.078751z" fill-rule="nonzero"/>
		<path stroke="#000000" stroke-width="2.0" stroke-linejoin="round" stroke-linecap="butt" d="m149.48425 259.30185l0 0c0 5.5663147 4.5124054 10.078735 10.078735 10.078735l0 0c2.67305 0 5.236618 -1.0618591 7.1267548 -2.9519958c1.8901215 -1.8901367 2.9519958 -4.453705 2.9519958 -7.1267395l0 0c0 -5.566345 -4.5124054 -10.078751 -10.078751 -10.078751l0 0c-5.56633 0 -10.078735 4.5124054 -10.078735 10.078751z" fill-rule="nonzero"/>
		<path fill="#000000" d="m155.51614 255.59656l4.047241 7.401581l4.0472565 -7.401581z" fill-rule="nonzero"/>
		<path stroke="#000000" stroke-width="2.0" stroke-linejoin="round" stroke-linecap="butt" d="m155.51614 255.59656l4.047241 7.401581l4.0472565 -7.401581z" fill-rule="nonzero"/>
		<path fill="#000000" d="m29.517061 98.30446l260.09448 0l0 146.99213l-260.09448 0z" fill-rule="nonzero"/>
		<path stroke="#000000" stroke-width="2.0" stroke-linejoin="round" stroke-linecap="butt" d="m29.517061 98.30446l260.09448 0l0 146.99213l-260.09448 0z" fill-rule="nonzero"/>
		<path fill="#ffffff" d="m198.88977 259.30185l0 0c0 5.5663147 4.5124054 10.078735 10.078735 10.078735l0 0c2.67305 0 5.236618 -1.0618591 7.1267395 -2.9519958c1.8901367 -1.8901367 2.9519958 -4.453705 2.9519958 -7.1267395l0 0c0 -5.566345 -4.5124054 -10.078751 -10.078735 -10.078751l0 0c-5.56633 0 -10.078735 4.5124054 -10.078735 10.078751z" fill-rule="nonzero"/>
		<path stroke="#000000" stroke-width="2.0" stroke-linejoin="round" stroke-linecap="butt" d="m198.88977 259.30185l0 0c0 5.5663147 4.5124054 10.078735 10.078735 10.078735l0 0c2.67305 0 5.236618 -1.0618591 7.1267395 -2.9519958c1.8901367 -1.8901367 2.9519958 -4.453705 2.9519958 -7.1267395l0 0c0 -5.566345 -4.5124054 -10.078751 -10.078735 -10.078751l0 0c-5.56633 0 -10.078735 4.5124054 -10.078735 10.078751z" fill-rule="nonzero"/>
		<path fill="#000000" d="m204.92166 255.59656l4.047241 7.401581l4.047241 -7.401581z" fill-rule="nonzero"/>
		<path stroke="#000000" stroke-width="2.0" stroke-linejoin="round" stroke-linecap="butt" d="m204.92166 255.59656l4.047241 7.401581l4.047241 -7.401581z" fill-rule="nonzero"/>
		<path fill="#ffffff" d="m248.46457 259.30185l0 0c0 5.5663147 4.5124054 10.078735 10.078735 10.078735l0 0c2.6730652 0 5.2366333 -1.0618591 7.1267395 -2.9519958c1.8901367 -1.8901367 2.9519958 -4.453705 2.9519958 -7.1267395l0 0c0 -5.566345 -4.51239 -10.078751 -10.078735 -10.078751l0 0c-5.56633 0 -10.078735 4.5124054 -10.078735 10.078751z" fill-rule="nonzero"/>
		<path stroke="#000000" stroke-width="2.0" stroke-linejoin="round" stroke-linecap="butt" d="m248.46457 259.30185l0 0c0 5.5663147 4.5124054 10.078735 10.078735 10.078735l0 0c2.6730652 0 5.2366333 -1.0618591 7.1267395 -2.9519958c1.8901367 -1.8901367 2.9519958 -4.453705 2.9519958 -7.1267395l0 0c0 -5.566345 -4.51239 -10.078751 -10.078735 -10.078751l0 0c-5.56633 0 -10.078735 4.5124054 -10.078735 10.078751z" fill-rule="nonzero"/>		
		<path fill="#000000" d="m254.49646 255.59656l4.047241 7.401581l4.047241 -7.401581z" fill-rule="nonzero"/>
		<path stroke="#000000" stroke-width="2.0" stroke-linejoin="round" stroke-linecap="butt" d="m254.49646 255.59656l4.047241 7.401581l4.047241 -7.401581z" fill-rule="nonzero"/>
		<path fill="#ffffff" d="m35.627296 105.07874l49.5748 0l0 132.56693l-49.5748 0z" fill-rule="nonzero"/>
		<path stroke="#000000" stroke-width="1.0" stroke-linejoin="round" stroke-linecap="butt" d="m35.627296 105.07874l49.5748 0l0 132.56693l-49.5748 0z" fill-rule="nonzero"/>
		<path fill="#ffffff" d="m85.20143 105.07874l49.5748 0l0 132.56693l-49.5748 0z" fill-rule="nonzero"/>
		<path stroke="#000000" stroke-width="1.0" stroke-linejoin="round" stroke-linecap="butt" d="m85.20143 105.07874l49.5748 0l0 132.56693l-49.5748 0z" fill-rule="nonzero"/>
		<path fill="#ffffff" d="m134.77818 105.07874l49.5748 0l0 132.56693l-49.5748 0z" fill-rule="nonzero"/>
		<path stroke="#000000" stroke-width="1.0" stroke-linejoin="round" stroke-linecap="butt" d="m134.77818 105.07874l49.5748 0l0 132.56693l-49.5748 0z" fill-rule="nonzero"/>
		<path fill="#ffffff" d="m184.35233 105.07874l49.5748 0l0 132.56693l-49.5748 0z" fill-rule="nonzero"/>
		<path stroke="#000000" stroke-width="1.0" stroke-linejoin="round" stroke-linecap="butt" d="m184.35233 105.07874l49.5748 0l0 132.56693l-49.5748 0z" fill-rule="nonzero"/>
		<path fill="#ffffff" d="m233.92645 105.07874l49.5748 0l0 132.56693l-49.5748 0z" fill-rule="nonzero"/>
		<path stroke="#000000" stroke-width="1.0" stroke-linejoin="round" stroke-linecap="butt" d="m233.92645 105.07874l49.5748 0l0 132.56693l-49.5748 0z" fill-rule="nonzero"/>
	</g>
	<text fill="#000000" font-family="DejaVu Sans, sans-serif" text-anchor="middle" x="159" y="307" font-size="20px">
		<tspan data-localize="PasswordComponent/button_submit">SUBMIT</tspan>
	</text>
	<text fill="#000000" font-family="DejaVu Sans, sans-serif" text-anchor="middle" x="60" y="186" font-size="42px">
		<tspan data-localize="password.moduleiconletter">A</tspan>
	</text>
	<text fill="#000000" font-family="DejaVu Sans, sans-serif" text-anchor="middle" x="110" y="186" font-size="42px">
		<tspan data-localize="password.moduleiconletter">A</tspan>
	</text>
	<text fill="#000000" font-family="DejaVu Sans, sans-serif" text-anchor="middle" x="159" y="186" font-size="42px">
		<tspan data-localize="password.moduleiconletter">A</tspan>
	</text>
	<text fill="#000000" font-family="DejaVu Sans, sans-serif" text-anchor="middle" x="209" y="186" font-size="42px">
		<tspan data-localize="password.moduleiconletter">A</tspan>
	</text>
	<text fill="#000000" font-family="DejaVu Sans, sans-serif" text-anchor="middle" x="258" y="186" font-size="42px">
		<tspan data-localize="password.moduleiconletter">A</tspan>
	</text>
</svg>

