<?xml version="1.0" standalone="yes"?>

<svg version="1.1" viewBox="0.0 0.0 348.0 348.0" fill="none" stroke="none" stroke-linecap="square" stroke-miterlimit="10" xmlns="http://www.w3.org/2000/svg" xmlns:xlink="http://www.w3.org/1999/xlink">
	<clipPath id="p.0">
		<path d="m0 0l348.0 0l0 348.0l-348.0 0l0 -348.0z" clip-rule="nonzero"/>
	</clipPath><g clip-path="url(#p.0)">
		<path fill="#000000" fill-opacity="0.0" d="m0 0l348.0 0l0 348.0l-348.0 0z" fill-rule="evenodd"/>
		<path fill="#ffffff" d="m-6.0 0l354.01575 0l0 347.9685l-354.01575 0z" fill-rule="evenodd"/>
		<path fill="#000000" fill-opacity="0.0" d="m5.07874 5.7758217l336.9134 0l0 337.66928l-336.9134 0z" fill-rule="evenodd"/>
		<path stroke="#000000" stroke-width="2.0" stroke-linejoin="round" stroke-linecap="butt" d="m5.07874 5.7758217l336.9134 0l0 337.66928l-336.9134 0z" fill-rule="evenodd"/>
		<path fill="#ffffff" d="m282.73444 40.553925l0 0c0 -8.375591 6.966034 -15.165352 15.5590515 -15.165352l0 0c4.126526 0 8.084015 1.5977726 11.001923 4.441828c2.9178772 2.844057 4.557129 6.7014217 4.557129 10.723524l0 0c0 8.375595 -6.9660034 15.165356 -15.5590515 15.165356l0 0c-8.593018 0 -15.5590515 -6.7897606 -15.5590515 -15.165356z" fill-rule="evenodd"/>
		<path stroke="#000000" stroke-width="2.0" stroke-linejoin="round" stroke-linecap="butt" d="m282.73444 40.553925l0 0c0 -8.375591 6.966034 -15.165352 15.5590515 -15.165352l0 0c4.126526 0 8.084015 1.5977726 11.001923 4.441828c2.9178772 2.844057 4.557129 6.7014217 4.557129 10.723524l0 0c0 8.375595 -6.9660034 15.165356 -15.5590515 15.165356l0 0c-8.593018 0 -15.5590515 -6.7897606 -15.5590515 -15.165356z" fill-rule="evenodd"/>
		<path fill="#000000" d="m50.949955 90.04964l9.464565 -17.322838l9.464569 17.322838z" fill-rule="evenodd"/>
		<path stroke="#000000" stroke-width="2.0" stroke-linejoin="round" stroke-linecap="butt" d="m50.949955 90.04964l9.464565 -17.322838l9.464569 17.322838z" fill-rule="evenodd"/>
		<path fill="#000000" fill-opacity="0.0" d="m122.04724 268.00525l97.921265 0l0 41.88977l-97.921265 0z" fill-rule="evenodd"/>
		<path stroke="#000000" stroke-width="2.0" stroke-linejoin="round" stroke-linecap="butt" d="m122.04724 268.00525l97.921265 0l0 41.88977l-97.921265 0z" fill-rule="evenodd"/>
		<path fill="#000000" d="m29.517061 106.30446l260.09448 0l0 96.81889l-260.09448 0z" fill-rule="evenodd"/>
		<path stroke="#000000" stroke-width="2.0" stroke-linejoin="round" stroke-linecap="butt" d="m29.517061 106.30446l260.09448 0l0 96.81889l-260.09448 0z" fill-rule="evenodd"/>
		<path fill="#ffffff" d="m35.627296 113.07874l49.574806 0l0 82.14173l-49.574806 0z" fill-rule="evenodd"/>
		<path stroke="#000000" stroke-width="1.0" stroke-linejoin="round" stroke-linecap="butt" d="m35.627296 113.07874l49.574806 0l0 82.14173l-49.574806 0z" fill-rule="evenodd"/>
		<path fill="#ffffff" d="m85.2021 113.07874l49.5748 0l0 82.14173l-49.5748 0z" fill-rule="evenodd"/>
		<path stroke="#000000" stroke-width="1.0" stroke-linejoin="round" stroke-linecap="butt" d="m85.2021 113.07874l49.5748 0l0 82.14173l-49.5748 0z" fill-rule="evenodd"/>
		<path fill="#ffffff" d="m134.77843 113.07874l49.5748 0l0 82.14173l-49.5748 0z" fill-rule="evenodd"/>
		<path stroke="#000000" stroke-width="1.0" stroke-linejoin="round" stroke-linecap="butt" d="m134.77843 113.07874l49.5748 0l0 82.14173l-49.5748 0z" fill-rule="evenodd"/>
		<path fill="#ffffff" d="m184.35214 113.07874l49.5748 0l0 82.14173l-49.5748 0z" fill-rule="evenodd"/>
		<path stroke="#000000" stroke-width="1.0" stroke-linejoin="round" stroke-linecap="butt" d="m184.35214 113.07874l49.5748 0l0 82.14173l-49.5748 0z" fill-rule="evenodd"/>
		<path fill="#ffffff" d="m233.9265 113.07874l49.574814 0l0 82.14173l-49.574814 0z" fill-rule="evenodd"/>
		<path stroke="#000000" stroke-width="1.0" stroke-linejoin="round" stroke-linecap="butt" d="m233.9265 113.07874l49.574814 0l0 82.14173l-49.574814 0z" fill-rule="evenodd"/>
		<path fill="#000000" d="m100.52476 90.04964l9.464569 -17.322838l9.464569 17.322838z" fill-rule="evenodd"/>
		<path stroke="#000000" stroke-width="2.0" stroke-linejoin="round" stroke-linecap="butt" d="m100.52476 90.04964l9.464569 -17.322838l9.464569 17.322838z" fill-rule="evenodd"/>
		<path fill="#000000" d="m150.09956 90.04964l9.464569 -17.322838l9.464569 17.322838z" fill-rule="evenodd"/>
		<path stroke="#000000" stroke-width="2.0" stroke-linejoin="round" stroke-linecap="butt" d="m150.09956 90.04964l9.464569 -17.322838l9.464569 17.322838z" fill-rule="evenodd"/>
		<path fill="#000000" d="m199.67436 90.04964l9.464569 -17.322838l9.464569 17.322838z" fill-rule="evenodd"/>
		<path stroke="#000000" stroke-width="2.0" stroke-linejoin="round" stroke-linecap="butt" d="m199.67436 90.04964l9.464569 -17.322838l9.464569 17.322838z" fill-rule="evenodd"/>
		<path fill="#000000" d="m249.24916 90.04964l9.464584 -17.322838l9.464569 17.322838z" fill-rule="evenodd"/>
		<path stroke="#000000" stroke-width="2.0" stroke-linejoin="round" stroke-linecap="butt" d="m249.24916 90.04964l9.464584 -17.322838l9.464569 17.322838z" fill-rule="evenodd"/>
		<path fill="#000000" d="m268.1783 219.37772l-9.464569 17.322845l-9.464584 -17.322845z" fill-rule="evenodd"/>
		<path stroke="#000000" stroke-width="2.0" stroke-linejoin="round" stroke-linecap="butt" d="m268.1783 219.37772l-9.464569 17.322845l-9.464584 -17.322845z" fill-rule="evenodd"/>
		<path fill="#000000" d="m218.6035 219.37772l-9.464569 17.322845l-9.464569 -17.322845z" fill-rule="evenodd"/>
		<path stroke="#000000" stroke-width="2.0" stroke-linejoin="round" stroke-linecap="butt" d="m218.6035 219.37772l-9.464569 17.322845l-9.464569 -17.322845z" fill-rule="evenodd"/>
		<path fill="#000000" d="m169.0287 219.37772l-9.464569 17.322845l-9.464569 -17.322845z" fill-rule="evenodd"/>
		<path stroke="#000000" stroke-width="2.0" stroke-linejoin="round" stroke-linecap="butt" d="m169.0287 219.37772l-9.464569 17.322845l-9.464569 -17.322845z" fill-rule="evenodd"/>
		<path fill="#000000" d="m119.453896 219.37772l-9.464569 17.322845l-9.464569 -17.322845z" fill-rule="evenodd"/>
		<path stroke="#000000" stroke-width="2.0" stroke-linejoin="round" stroke-linecap="butt" d="m119.453896 219.37772l-9.464569 17.322845l-9.464569 -17.322845z" fill-rule="evenodd"/>
		<path fill="#000000" d="m69.87909 219.37772l-9.464569 17.322845l-9.464565 -17.322845z" fill-rule="evenodd"/>
		<path stroke="#000000" stroke-width="2.0" stroke-linejoin="round" stroke-linecap="butt" d="m69.87909 219.37772l-9.464569 17.322845l-9.464565 -17.322845z" fill-rule="evenodd"/>
	</g>
	<text fill="#000000" font-family="DejaVu Sans, sans-serif" text-anchor="middle" x="171" y="296" font-size="20px">
		<tspan data-localize="PasswordComponent/button_submit" data-autosize="6">SUBMIT</tspan>
	</text>
	<text fill="#000000" font-family="DejaVu Sans, sans-serif" text-anchor="middle" x="60" y="170" font-size="42px">
		<tspan data-localize="password.moduleiconletter">A</tspan>
	</text>
	<text fill="#000000" font-family="DejaVu Sans, sans-serif" text-anchor="middle" x="110" y="170" font-size="42px">
		<tspan data-localize="password.moduleiconletter">A</tspan>
	</text>
	<text fill="#000000" font-family="DejaVu Sans, sans-serif" text-anchor="middle" x="160" y="170" font-size="42px">
		<tspan data-localize="password.moduleiconletter">A</tspan>
	</text>
	<text fill="#000000" font-family="DejaVu Sans, sans-serif" text-anchor="middle" x="210" y="170" font-size="42px">
		<tspan data-localize="password.moduleiconletter">A</tspan>
	</text>
	<text fill="#000000" font-family="DejaVu Sans, sans-serif" text-anchor="middle" x="260" y="170" font-size="42px">
		<tspan data-localize="password.moduleiconletter">A</tspan>
	</text>
</svg>

