<?xml version="1.0" standalone="yes"?>

<svg version="1.1" viewBox="0.0 0.0 348.0 348.0" fill="none" stroke="none" stroke-linecap="square" stroke-miterlimit="10" xmlns="http://www.w3.org/2000/svg" xmlns:xlink="http://www.w3.org/1999/xlink">
	<clipPath id="p.0">
		<path d="m0 0l348.0 0l0 348.0l-348.0 0l0 -348.0z" clip-rule="nonzero"/>
	</clipPath><g clip-path="url(#p.0)">
		<path fill="#000000" fill-opacity="0.0" d="m0 0l348.0 0l0 348.0l-348.0 0z" fill-rule="nonzero"/>
		<path fill="#ffffff" d="m-6.0 0l348.0 0l0 347.9685l-348.0 0z" fill-rule="nonzero"/>
		<path fill="#000000" fill-opacity="0.0" d="m5.07874 5.7758217l336.9134 0l0 337.6693l-336.9134 0z" fill-rule="nonzero"/>
		<path stroke="#000000" stroke-width="2.0" stroke-linejoin="round" stroke-linecap="butt" d="m5.07874 5.7758217l336.9134 0l0 337.6693l-336.9134 0z" fill-rule="nonzero"/>
		<path fill="#ffffff" d="m282.73444 40.553925l0 0c0 -8.375591 6.966034 -15.165352 15.5590515 -15.165352l0 0c4.126526 0 8.084015 1.5977726 11.001923 4.441828c2.9178772 2.844057 4.557129 6.7014217 4.557129 10.723524l0 0c0 8.375595 -6.9660034 15.165356 -15.5590515 15.165356l0 0c-8.593018 0 -15.5590515 -6.7897606 -15.5590515 -15.165356z" fill-rule="nonzero"/>
		<path stroke="#000000" stroke-width="2.0" stroke-linejoin="round" stroke-linecap="butt" d="m282.73444 40.553925l0 0c0 -8.375591 6.966034 -15.165352 15.5590515 -15.165352l0 0c4.126526 0 8.084015 1.5977726 11.001923 4.441828c2.9178772 2.844057 4.557129 6.7014217 4.557129 10.723524l0 0c0 8.375595 -6.9660034 15.165356 -15.5590515 15.165356l0 0c-8.593018 0 -15.5590515 -6.7897606 -15.5590515 -15.165356z" fill-rule="nonzero"/>
		<path fill="#000000" d="m34.771652 25.389738l232.40947 0l0 67.55905l-232.40947 0z" fill-rule="nonzero"/>
		<path stroke="#000000" stroke-width="2.0" stroke-linejoin="round" stroke-linecap="butt" d="m34.771652 25.389738l232.40947 0l0 67.55905l-232.40947 0z" fill-rule="nonzero"/>
		<path stroke="#000000" stroke-width="1.0" stroke-linejoin="round" stroke-linecap="butt" d="m34.771652 202.31795l106.645676 0l0 44.81891l-106.645676 0z" fill-rule="nonzero"/>
		<path fill="#000000" fill-opacity="0.0" d="m34.771652 125.22639l106.645676 0l0 44.8189l-106.645676 0z" fill-rule="nonzero"/>
		<path stroke="#000000" stroke-width="1.0" stroke-linejoin="round" stroke-linecap="butt" d="m34.771652 125.22639l106.645676 0l0 44.8189l-106.645676 0z" fill-rule="nonzero"/>
		<path fill="#000000" fill-opacity="0.0" d="m34.771652 270.60397l106.645676 0l0 44.81891l-106.645676 0z" fill-rule="nonzero"/>
		<path stroke="#000000" stroke-width="1.0" stroke-linejoin="round" stroke-linecap="butt" d="m34.771652 270.60397l106.645676 0l0 44.81891l-106.645676 0z" fill-rule="nonzero"/>
		<path fill="#000000" fill-opacity="0.0" d="m157.40683 202.31795l106.64566 0l0 44.81891l-106.64566 0z" fill-rule="nonzero"/>
		<path stroke="#000000" stroke-width="1.0" stroke-linejoin="round" stroke-linecap="butt" d="m157.40683 202.31795l106.64566 0l0 44.81891l-106.64566 0z" fill-rule="nonzero"/>
		<path fill="#000000" fill-opacity="0.0" d="m157.40683 125.22639l106.64566 0l0 44.8189l-106.64566 0z" fill-rule="nonzero"/>
		<path stroke="#000000" stroke-width="1.0" stroke-linejoin="round" stroke-linecap="butt" d="m157.40683 125.22639l106.64566 0l0 44.8189l-106.64566 0z" fill-rule="nonzero"/>
		<path fill="#000000" fill-opacity="0.0" d="m157.40683 270.60397l106.64566 0l0 44.81891l-106.64566 0z" fill-rule="nonzero"/>
		<path stroke="#000000" stroke-width="1.0" stroke-linejoin="round" stroke-linecap="butt" d="m157.40683 270.60397l106.64566 0l0 44.81891l-106.64566 0z" fill-rule="nonzero"/>
		<path fill="#000000" d="m277.46194 106.3832l52.661407 0l0 209.03937l-52.661407 0z" fill-rule="nonzero"/>
		<path stroke="#000000" stroke-width="2.0" stroke-linejoin="round" stroke-linecap="butt" d="m277.46194 106.3832l52.661407 0l0 209.03937l-52.661407 0z" fill-rule="nonzero"/>
		<path fill="#ffffff" d="m290.06036 245.11285l27.46457 0l0 16.472443l-27.46457 0z" fill-rule="nonzero"/>
		<path stroke="#000000" stroke-width="2.0" stroke-linejoin="round" stroke-linecap="butt" d="m290.06036 245.11285l27.46457 0l0 16.472443l-27.46457 0z" fill-rule="nonzero"/>
		<path fill="#ffffff" d="m290.06036 208.9029l27.46457 0l0 16.472427l-27.46457 0z" fill-rule="nonzero"/>
		<path stroke="#000000" stroke-width="2.0" stroke-linejoin="round" stroke-linecap="butt" d="m290.06036 208.9029l27.46457 0l0 16.472427l-27.46457 0z" fill-rule="nonzero"/>
		<path fill="#ffffff" d="m290.06036 281.32285l27.46457 0l0 16.472443l-27.46457 0z" fill-rule="nonzero"/>
		<path stroke="#000000" stroke-width="2.0" stroke-linejoin="round" stroke-linecap="butt" d="m290.06036 281.32285l27.46457 0l0 16.472443l-27.46457 0z" fill-rule="nonzero"/>
	</g>
	<text fill="#ffffff" font-family="DejaVu Sans, sans-serif" text-anchor="middle" x="150" y="70" font-size="32px">
		<tspan data-localize="whosonfirst.moduleicondisplay">[ DISPLAY ]</tspan>
	</text>
	<text fill="#000000" font-family="DejaVu Sans, sans-serif" text-anchor="middle" x="87" y="154" font-size="20px">
		<tspan data-localize="whosonfirst.moduleicontext">[ TEXT ]</tspan>
	</text>
	<text fill="#000000" font-family="DejaVu Sans, sans-serif" text-anchor="middle" x="87" y="231" font-size="20px">
		<tspan data-localize="whosonfirst.moduleicontext">[ TEXT ]</tspan>
	</text>
	<text fill="#000000" font-family="DejaVu Sans, sans-serif" text-anchor="middle" x="87" y="299" font-size="20px">
		<tspan data-localize="whosonfirst.moduleicontext">[ TEXT ]</tspan>
	</text>
	<text fill="#000000" font-family="DejaVu Sans, sans-serif" text-anchor="middle" x="210" y="154" font-size="20px">
		<tspan data-localize="whosonfirst.moduleicontext">[ TEXT ]</tspan>
	</text>
	<text fill="#000000" font-family="DejaVu Sans, sans-serif" text-anchor="middle" x="210" y="231" font-size="20px">
		<tspan data-localize="whosonfirst.moduleicontext">[ TEXT ]</tspan>
	</text>
	<text fill="#000000" font-family="DejaVu Sans, sans-serif" text-anchor="middle" x="210" y="299" font-size="20px">
		<tspan data-localize="whosonfirst.moduleicontext">[ TEXT ]</tspan>
	</text>
</svg>

