<?xml version="1.0" standalone="yes"?>
<svg xmlns="http://www.w3.org/2000/svg" xmlns:xlink="http://www.w3.org/1999/xlink" version="1.1" viewBox="0.0 0.0 1004.0 348.0" fill="none" stroke="none" stroke-linecap="square" stroke-miterlimit="10">
	<clipPath id="p.0">
		<path d="m0 0l604.0 0l0 348.0l-604.0 0l0 -348.0z" clip-rule="nonzero"/>
	</clipPath><g transform="translate(200, 0)" clip-path="url(#p.0)">
		<path fill="#000000" fill-opacity="0.0" d="m0 0l604.0 0l0 348.0l-604.0 0z" fill-rule="nonzero"/>
		<path fill="#ffffff" d="m114.35958 0l357.29132 0l0 347.9685l-357.29132 0z" fill-rule="nonzero"/>
		<path fill="#000000" fill-opacity="0.0" d="m125.438324 5.7758217l336.9134 0l0 337.66928l-336.9134 0z" fill-rule="nonzero"/>
		<path stroke="#000000" stroke-width="2.0" stroke-linejoin="round" stroke-linecap="butt" d="m125.438324 5.7758217l336.9134 0l0 337.66928l-336.9134 0z" fill-rule="nonzero"/>
		<path fill="#ffffff" d="m403.09402 40.553925l0 0c0 -8.375591 6.9660034 -15.165352 15.5590515 -15.165352l0 0c4.126526 0 8.084015 1.5977726 11.001923 4.441828c2.9178772 2.844057 4.557129 6.7014256 4.557129 10.723524l0 0c0 8.375595 -6.966034 15.165356 -15.5590515 15.165356l0 0c-8.593048 0 -15.5590515 -6.7897606 -15.5590515 -15.165356z" fill-rule="nonzero"/>
		<path stroke="#000000" stroke-width="2.0" stroke-linejoin="round" stroke-linecap="butt" d="m403.09402 40.553925l0 0c0 -8.375591 6.9660034 -15.165352 15.5590515 -15.165352l0 0c4.126526 0 8.084015 1.5977726 11.001923 4.441828c2.9178772 2.844057 4.557129 6.7014256 4.557129 10.723524l0 0c0 8.375595 -6.966034 15.165356 -15.5590515 15.165356l0 0c-8.593048 0 -15.5590515 -6.7897606 -15.5590515 -15.165356z" fill-rule="nonzero"/>
		<path fill="#000000" fill-opacity="0.0" d="m241.62204 122.04462l52.566925 -52.566925l52.566956 52.566925l-52.566956 52.566925z" fill-rule="nonzero"/>
		<path stroke="#000000" stroke-width="2.0" stroke-linejoin="round" stroke-linecap="butt" d="m241.62204 122.04462l52.566925 -52.566925l52.566956 52.566925l-52.566956 52.566925z" fill-rule="nonzero"/>
		<path fill="#000000" fill-opacity="0.0" d="m188.76115 175.06561l52.566925 -52.566925l52.56694 52.566925l-52.56694 52.56694z" fill-rule="nonzero"/>
		<path stroke="#000000" stroke-width="2.0" stroke-linejoin="round" stroke-linecap="butt" d="m188.76115 175.06561l52.566925 -52.566925l52.56694 52.566925l-52.56694 52.56694z" fill-rule="nonzero"/>
		<path fill="#000000" fill-opacity="0.0" d="m241.62204 227.17848l52.566925 -52.56694l52.566956 52.56694l-52.566956 52.56691z" fill-rule="nonzero"/>
		<path stroke="#000000" stroke-width="2.0" stroke-linejoin="round" stroke-linecap="butt" d="m241.62204 227.17848l52.566925 -52.56694l52.566956 52.56694l-52.566956 52.56691z" fill-rule="nonzero"/>
		<path fill="#000000" fill-opacity="0.0" d="m293.89502 175.06561l52.566925 -52.566925l52.566925 52.566925l-52.566925 52.56694z" fill-rule="nonzero"/>
		<path stroke="#000000" stroke-width="2.0" stroke-linejoin="round" stroke-linecap="butt" d="m293.89502 175.06561l52.566925 -52.566925l52.566925 52.566925l-52.566925 52.56694z" fill-rule="nonzero"/>
		<path fill="#000000" fill-opacity="0.0" d="m478.6509 60.892387l95.874054 0l0 61.6063l-95.874054 0z" fill-rule="nonzero"/>
		<path fill="#000000" fill-opacity="0.0" d="m478.6509 143.8084l140.34647 0l0 61.606308l-140.34647 0z" fill-rule="nonzero"/>
		<path fill="#000000" fill-opacity="0.0" d="m2.2257218 142.3727l105.13386 0l0 65.38583l-105.13386 0z" fill-rule="nonzero"/>
		<path fill="#000000" fill-opacity="0.0" d="m-5.0 223.63255l113.35433 0l0 65.38582l-113.35433 0z" fill-rule="nonzero"/>
		<path fill="#000000" fill-opacity="0.0" d="m108.35433 256.32547l154.64566 0" fill-rule="nonzero"/>
		<path stroke="#000000" stroke-width="2.0" stroke-linejoin="round" stroke-linecap="butt" d="m108.35433 256.32547l142.64566 0" fill-rule="evenodd"/>
		<path fill="#000000" stroke="#000000" stroke-width="2.0" stroke-linecap="butt" d="m251.0 259.62894l9.076202 -3.3034668l-9.076202 -3.303482z" fill-rule="evenodd"/>
		<path fill="#000000" fill-opacity="0.0" d="m478.6509 91.69554l-146.4252 0" fill-rule="nonzero"/>
		<path stroke="#000000" stroke-width="2.0" stroke-linejoin="round" stroke-linecap="butt" d="m478.6509 91.69554l-134.4252 0" fill-rule="evenodd"/>
		<path fill="#000000" stroke="#000000" stroke-width="2.0" stroke-linecap="butt" d="m344.2257 88.392075l-9.076172 3.3034668l9.076172 3.3034592z" fill-rule="evenodd"/>
		<path fill="#000000" fill-opacity="0.0" d="m478.6509 174.61154l-68.47244 0" fill-rule="nonzero"/>
		<path stroke="#000000" stroke-width="2.0" stroke-linejoin="round" stroke-linecap="butt" d="m478.6509 174.61154l-56.472443 0" fill-rule="evenodd"/>
		<path fill="#000000" stroke="#000000" stroke-width="2.0" stroke-linecap="butt" d="m422.17847 171.30809l-9.076172 3.3034515l9.076172 3.3034668z" fill-rule="evenodd"/>
		<path fill="#000000" fill-opacity="0.0" d="m107.35958 175.06561l72.18897 0" fill-rule="nonzero"/>
		<path stroke="#000000" stroke-width="2.0" stroke-linejoin="round" stroke-linecap="butt" d="m107.35958 175.06561l60.188972 0" fill-rule="evenodd"/>
		<path fill="#000000" stroke="#000000" stroke-width="2.0" stroke-linecap="butt" d="m167.54855 178.36908l9.076202 -3.3034668l-9.076202 -3.3034668z" fill-rule="evenodd"/>
	</g>
	<text fill="#000000" font-family="sans-serif" text-anchor="start" x="688" y="103" font-size="42px">
		<tspan fill="#ff0000">[MISSING: Manual/simon.blue]</tspan>
	</text>
	<text fill="#000000" font-family="sans-serif" text-anchor="start" x="688" y="186" font-size="42px">
		<tspan fill="#ff0000">[MISSING: Manual/simon.yellow]</tspan>
	</text>
	<text fill="#000000" font-family="sans-serif" text-anchor="end" x="299" y="185" font-size="42px">
		<tspan fill="#ff0000">[MISSING: Manual/simon.red]</tspan>
	</text>
	<text fill="#000000" font-family="sans-serif" text-anchor="end" x="299" y="266" font-size="42px">
		<tspan fill="#ff0000">[MISSING: Manual/simon.green]</tspan>
	</text>
</svg>
