<?xml version="1.0" encoding="UTF-8" standalone="no"?>
<svg
   xmlns:dc="http://purl.org/dc/elements/1.1/"
   xmlns:cc="http://creativecommons.org/ns#"
   xmlns:rdf="http://www.w3.org/1999/02/22-rdf-syntax-ns#"
   xmlns:svg="http://www.w3.org/2000/svg"
   xmlns="http://www.w3.org/2000/svg"
   id="svg69"
   stroke-miterlimit="10"
   stroke-linecap="square"
   stroke="none"
   fill="none"
   viewBox="0.0 0.0 348.0 348.0"
   version="1.1">
  <metadata
     id="metadata75">
    <rdf:RDF>
      <cc:Work
         rdf:about="">
        <dc:format>image/svg+xml</dc:format>
        <dc:type
           rdf:resource="http://purl.org/dc/dcmitype/StillImage" />
      </cc:Work>
    </rdf:RDF>
  </metadata>
  <defs
     id="defs73" />
  <clipPath
     id="p.0">
    <path
       id="path2"
       clip-rule="nonzero"
       d="m0 0l348.0 0l0 348.0l-348.0 0l0 -348.0z" />
  </clipPath>
  <g
     id="g63"
     clip-path="url(#p.0)">
    <path
       id="path5"
       fill-rule="nonzero"
       d="M 0,0 H 348 V 348 H 0 Z"
       fill-opacity="0"
       fill="#000000" />
    <path
       id="path7"
       fill-rule="nonzero"
       d="M -6,0 H 342 V 347.9685 H -6 Z"
       fill="#ffffff" />
    <path
       id="path9"
       fill-rule="nonzero"
       d="m 5.07874,5.7758217 h 336.9134 V 343.44512 H 5.07874 Z"
       fill-opacity="0"
       fill="#000000" />
    <path
       id="path11"
       fill-rule="nonzero"
       d="m 5.07874,5.7758217 h 336.9134 V 343.44512 H 5.07874 Z"
       stroke-linecap="butt"
       stroke-linejoin="round"
       stroke-width="2"
       stroke="#000000" />
    <path
       id="path13"
       fill-rule="nonzero"
       d="M 17.036913,71.17821 H 242.42274 V 306.51679 H 17.036913 Z"
       fill="#ffffff" />
    <path
       id="path15"
       fill-rule="nonzero"
       d="M 17.036913,71.17821 H 242.42274 V 306.51679 H 17.036913 Z"
       stroke-linecap="butt"
       stroke-linejoin="round"
       stroke-width="2"
       stroke="#000000" />
    <path
       id="path17"
       fill-rule="nonzero"
       d="m 273.45645,109.96049 h 46.2677 v 196.56694 h -46.2677 z"
       fill="#000000" />
    <path
       id="path19"
       fill-rule="nonzero"
       d="m 273.45645,109.96049 h 46.2677 v 196.56694 h -46.2677 z"
       stroke-linecap="butt"
       stroke-linejoin="round"
       stroke-width="2"
       stroke="#000000" />
    <path
       id="path21"
       fill-rule="nonzero"
       d="m 282.73444,40.553925 v 0 c 0,-8.375591 6.96603,-15.165352 15.55905,-15.165352 v 0 c 4.12653,0 8.08402,1.597773 11.00192,4.441828 2.91788,2.844057 4.55713,6.701422 4.55713,10.723524 v 0 c 0,8.375595 -6.966,15.165356 -15.55905,15.165356 v 0 c -8.59302,0 -15.55905,-6.789761 -15.55905,-15.165356 z"
       fill="#ffffff" />
    <path
       id="path23"
       fill-rule="nonzero"
       d="m 282.73444,40.553925 v 0 c 0,-8.375591 6.96603,-15.165352 15.55905,-15.165352 v 0 c 4.12653,0 8.08402,1.597773 11.00192,4.441828 2.91788,2.844057 4.55713,6.701422 4.55713,10.723524 v 0 c 0,8.375595 -6.966,15.165356 -15.55905,15.165356 v 0 c -8.59302,0 -15.55905,-6.789761 -15.55905,-15.165356 z"
       stroke-linecap="butt"
       stroke-linejoin="round"
       stroke-width="2"
       stroke="#000000" />
    <path
       id="path25"
       fill-rule="nonzero"
       d="m 31.55643,188.84772 v 0 c 0,-54.95017 43.953648,-99.49606 98.17323,-99.49606 v 0 c 26.03715,0 51.00789,10.48259 69.41894,29.14172 18.41106,18.65914 28.75428,43.96634 28.75428,70.35434 v 0 c 0,54.95017 -43.95365,99.49606 -98.17322,99.49606 v 0 c -54.219583,0 -98.173233,-44.5459 -98.173233,-99.49606 z"
       fill="#ffffff" />
    <path
       id="path27"
       fill-rule="nonzero"
       d="m 31.55643,188.84772 v 0 c 0,-54.95017 43.953648,-99.49606 98.17323,-99.49606 v 0 c 26.03715,0 51.00789,10.48259 69.41894,29.14172 18.41106,18.65914 28.75428,43.96634 28.75428,70.35434 v 0 c 0,54.95017 -43.95365,99.49606 -98.17322,99.49606 v 0 c -54.219583,0 -98.173233,-44.5459 -98.173233,-99.49606 z"
       stroke-linecap="butt"
       stroke-linejoin="round"
       stroke-width="2"
       stroke="#000000" />
    <path
       id="path29"
       fill-rule="nonzero"
       d="m 45.42257,153.48425 h 202.51968 v 70.67717 H 45.42257 Z"
       fill-opacity="0"
       fill="#000000" />
    <path
       id="path31"
       fill-rule="nonzero"
       d="M 40.969852,95.99732 H 218.89111 v 185.7008 H 40.969852 Z"
       fill-opacity="0"
       fill="#000000" />
    <path
       id="path33"
       fill-rule="nonzero"
       d="M 40.969852,95.99732 H 218.89111 v 185.7008 H 40.969852 Z"
       stroke-linecap="butt"
       stroke-linejoin="round"
       stroke-width="1"
       stroke="#000000" />
    <path
       id="path35"
       fill-rule="nonzero"
       d="M 17.708662,72.89501 41.173229,95.950132"
       fill-opacity="0"
       fill="#000000" />
    <path
       id="path37"
       fill-rule="nonzero"
       d="M 17.708662,72.89501 41.173229,95.950132"
       stroke-linecap="butt"
       stroke-linejoin="round"
       stroke-width="1"
       stroke="#000000" />
    <path
       id="path39"
       fill-rule="nonzero"
       d="m 219.0971,281.69553 23.08662,24.28348"
       fill-opacity="0"
       fill="#000000" />
    <path
       id="path41"
       fill-rule="nonzero"
       d="m 219.0971,281.69553 23.08662,24.28348"
       stroke-linecap="butt"
       stroke-linejoin="round"
       stroke-width="1"
       stroke="#000000" />
    <path
       id="path43"
       fill-rule="nonzero"
       d="M 242.15749,72.89501 219.51181,95.950132"
       fill-opacity="0"
       fill="#000000" />
    <path
       id="path45"
       fill-rule="nonzero"
       d="M 242.15749,72.89501 219.51181,95.950132"
       stroke-linecap="butt"
       stroke-linejoin="round"
       stroke-width="1"
       stroke="#000000" />
    <path
       id="path47"
       fill-rule="nonzero"
       d="M 40.76378,281.70078 18.11811,304.75592"
       fill-opacity="0"
       fill="#000000" />
    <path
       id="path49"
       fill-rule="nonzero"
       d="M 40.76378,281.70078 18.11811,304.75592"
       stroke-linecap="butt"
       stroke-linejoin="round"
       stroke-width="1"
       stroke="#000000" />
    <path
       id="path51"
       fill-rule="nonzero"
       d="M 55.18635,58.892387 H 81.139105 V 71.17585 H 55.18635 Z"
       fill-opacity="0"
       fill="#000000" />
    <path
       id="path53"
       fill-rule="nonzero"
       d="M 55.18635,58.892387 H 81.139105 V 71.17585 H 55.18635 Z"
       stroke-linecap="butt"
       stroke-linejoin="round"
       stroke-width="2"
       stroke="#000000" />
    <path
       id="path55"
       fill-rule="nonzero"
       d="m 180.33595,58.892387 h 25.95276 V 71.17585 h -25.95276 z"
       fill-opacity="0"
       fill="#000000" />
    <path
       id="path57"
       fill-rule="nonzero"
       d="m 180.33595,58.892387 h 25.95276 V 71.17585 h -25.95276 z"
       stroke-linecap="butt"
       stroke-linejoin="round"
       stroke-width="2"
       stroke="#000000" />
    <path
       id="path59"
       fill-rule="nonzero"
       d="m 84.14173,63.422573 h 92.25196 v 7.748028 H 84.14173 Z"
       fill-opacity="0"
       fill="#000000" />
    <path
       id="path61"
       fill-rule="nonzero"
       d="m 84.14173,63.422573 h 92.25196 v 7.748028 H 84.14173 Z"
       stroke-linecap="butt"
       stroke-linejoin="round"
       stroke-width="2"
       stroke="#000000" />
  </g>
  <g
     style="font-size:37.3333px;font-family:'DejaVu Sans', sans-serif;text-anchor:middle;fill:#000000"
     id="text67"
     aria-label="[ ข้อความ ]">
    <path
       id="path77"
       d="m 44.520836,172.30209 h 7.729167 v 2.60677 h -4.375 v 28.07292 h 4.375 v 2.60677 h -7.729167 z" />
    <path
       id="path79"
       d="M 87.559898,200.66667 H 72.557295 v -3.24479 h 2.315104 v -4.66667 q 0,-1.38541 0.364583,-2.29687 0.382812,-0.92969 1.111979,-2.02344 0.820313,-1.23958 1.020833,-1.93229 0.200521,-0.69271 0.200521,-1.33073 0,-2.98958 -2.515625,-2.98958 -0.473958,0 -0.747396,0.18229 1.494792,1.13021 1.494792,2.80729 0,1.42188 -1.020833,2.42448 -1.020833,1.0026 -2.442708,1.0026 -1.421875,0 -2.442709,-1.0026 -1.002604,-1.02083 -1.002604,-2.46094 0,-2.42448 1.695313,-3.91927 1.713541,-1.49479 4.466145,-1.49479 2.625,0 4.229167,1.49479 1.604166,1.47656 1.604166,3.91927 0,0.80209 -0.255208,1.71354 -0.236979,0.91146 -1.148437,2.51563 -1.166667,2.00521 -1.166667,3.24479 v 4.8125 h 5.815104 v -17.13542 h 3.427083 z M 72.338545,186.5573 q 0.565104,0 0.966145,-0.40104 0.419271,-0.41928 0.419271,-1.02084 0,-0.54687 -0.419271,-0.94791 -0.401041,-0.40105 -0.966145,-0.40105 -0.565105,0 -0.984375,0.40105 -0.401042,0.40104 -0.401042,0.94791 0,0.60156 0.401042,1.02084 0.41927,0.40104 0.984375,0.40104 z" />
    <path
       id="path81"
       d="m 93.757813,172.53907 q -2.388021,4.92187 -9.679687,5.99739 l 0.893229,-1.96875 q -0.802083,-0.10937 -1.3125,-0.71093 -0.510417,-0.61979 -0.510417,-1.42188 0,-0.875 0.601563,-1.49479 0.583333,-0.63802 1.458333,-0.63802 0.838542,0 1.440104,0.63802 0.601563,0.61979 0.601563,1.49479 0,1.27604 -0.747396,2.13281 3.026042,-0.78385 4.940104,-4.02864 z m -8.549479,2.53385 q 0.236979,0 0.4375,-0.18229 0.182292,-0.20052 0.182292,-0.45573 0,-0.25521 -0.182292,-0.4375 -0.200521,-0.20052 -0.4375,-0.20052 -0.255208,0 -0.4375,0.20052 -0.200521,0.18229 -0.200521,0.4375 0,0.25521 0.200521,0.45573 0.182292,0.18229 0.4375,0.18229 z" />
    <path
       id="path83"
       d="M 109.83594,200.66667 H 93.739585 v -7.94791 q 0,-2.27865 1.294271,-3.59115 1.294271,-1.3125 3.445312,-1.3125 1.421875,0 2.442712,1.03906 1.02083,1.02084 1.02083,2.44271 0,1.42188 -1.02083,2.42448 -1.020837,1.0026 -2.442712,1.0026 -0.747396,0 -1.3125,-0.21875 v 2.91667 h 9.223962 v -9.40625 q 0,-2.4974 -1.42188,-3.90104 -1.40364,-1.40365 -3.80989,-1.40365 -3.736983,0 -7.346358,2.42448 h -0.21875 v -3.84635 q 3.9375,-1.56771 7.492188,-1.56771 4.22917,0 6.48958,2.20573 2.26042,2.1875 2.26042,6.08854 z m -11.356772,-8.02083 q 0.565104,0 0.966146,-0.40104 0.419271,-0.40104 0.419271,-0.94792 0,-0.60156 -0.419271,-1.0026 -0.401042,-0.41927 -0.966146,-0.41927 -0.565104,0 -0.984375,0.41927 -0.401041,0.40104 -0.401041,1.0026 0,0.54688 0.401041,0.94792 0.419271,0.40104 0.984375,0.40104 z" />
    <path
       id="path85"
       d="m 132.82292,200.66667 h -3.44532 v -11.75781 q 0,-5.94271 -5.3776,-5.94271 -2.57031,0 -3.97396,1.53125 -1.40364,1.51302 -1.40364,4.02865 0,2.29687 0.82031,5.12239 0.60156,-2.80729 1.67708,-4.61198 1.07552,-1.80468 2.98959,-1.80468 1.42187,0 2.4427,1.02083 1.03907,1.02083 1.03907,2.44271 0,1.42187 -1.02084,2.44271 -1.02083,1.0026 -2.46093,1.0026 -0.94792,0 -1.67709,-0.45573 -2.27864,2.29688 -2.27864,6.98177 h -3.42709 v -1.56771 q 0,-1.51302 -0.69271,-4.8125 -0.80208,-3.7552 -0.80208,-5.72395 0,-3.95573 2.26042,-6.39844 2.27864,-2.44271 6.50781,-2.44271 8.82292,0 8.82292,9.1875 z m -8.67709,-8.62239 q 0.56511,0 0.96615,-0.40105 0.41927,-0.40104 0.41927,-0.94791 0,-0.60156 -0.40104,-1.00261 -0.40104,-0.41927 -0.98438,-0.41927 -0.5651,0 -0.96614,0.41927 -0.40104,0.40105 -0.40104,1.00261 0,0.54687 0.40104,0.94791 0.41927,0.40105 0.96614,0.40105 z" />
    <path
       id="path87"
       d="m 150.92448,196.07292 q 0,2.26042 -1.29427,3.57292 -1.27604,1.3125 -3.44531,1.3125 -1.42188,0 -2.44271,-1.02083 -1.02084,-1.02084 -1.02084,-2.44271 0,-1.42188 1.02084,-2.42448 1.02083,-1.00261 2.44271,-1.00261 0.74739,0 1.3125,0.21875 v -6.6901 q 0,-2.35156 -1.13021,-3.59115 -1.11198,-1.25781 -3.08073,-1.25781 -3.00781,0 -6.16146,1.85938 h -0.23698 v -3.60938 q 3.22656,-1.23958 6.39844,-1.23958 7.63802,0 7.63802,7.61979 z m -4.73958,2.84375 q 0.58333,0 0.98437,-0.40104 0.40104,-0.41927 0.40104,-1.02083 0,-0.54688 -0.41927,-0.94792 -0.40104,-0.40104 -0.96614,-0.40104 -0.56511,0 -0.98438,0.40104 -0.40104,0.40104 -0.40104,0.94792 0,0.60156 0.40104,1.02083 0.41927,0.40104 0.98438,0.40104 z" />
    <path
       id="path89"
       d="m 169.00781,200.66667 h -3.42709 v -13.07031 q 0,-2.35156 -1.1302,-3.59115 -1.11198,-1.25781 -3.08073,-1.25781 -3.00782,0 -6.16146,1.85938 h -0.23698 v -3.60938 q 3.22656,-1.23958 6.39844,-1.23958 7.63802,0 7.63802,7.61979 z" />
    <path
       id="path91"
       d="m 191.35677,200.66667 h -3.20834 q -3.48177,-3.33594 -6.76302,-4.24739 v 0.51041 q 0,1.98698 -1.14843,3.00782 -1.13021,1.02083 -2.84375,1.02083 -1.60417,0 -2.60677,-0.875 -0.98438,-0.875 -0.98438,-2.33333 0,-1.38542 1.09375,-2.44271 1.11198,-1.07552 3.0625,-1.29427 v -7.60157 q -0.5651,0.21875 -1.3125,0.21875 -1.42187,0 -2.46094,-1.0026 -1.02083,-1.02083 -1.02083,-2.42448 0,-1.4401 1.02083,-2.46094 1.03907,-1.02083 2.46094,-1.02083 2.15104,0 3.44531,1.33073 1.29427,1.3125 1.29427,3.55469 v 9.57031 q 3.28125,0.78385 6.52605,3.17187 v -17.0625 h 3.44531 z m -14.71094,-16.13281 q 0.56511,0 0.96615,-0.38281 0.41927,-0.40104 0.41927,-0.94792 0,-0.61979 -0.41927,-1.02083 -0.40104,-0.40104 -0.96615,-0.40104 -0.5651,0 -0.98437,0.41927 -0.40105,0.40104 -0.40105,1.0026 0,0.54688 0.40105,0.94792 0.41927,0.38281 0.98437,0.38281 z m 1.3125,12.96094 v -1.42188 q -0.92969,0.12761 -1.47656,0.61979 -0.54688,0.49219 -0.54688,1.0573 0,0.52864 0.27344,0.85677 0.27344,0.30989 0.69271,0.30989 1.05729,0 1.05729,-1.42187 z" />
    <path
       id="path93"
       d="m 217.46093,172.30209 v 33.28646 h -7.72917 v -2.60677 h 4.35677 v -28.07292 h -4.35677 v -2.60677 z" />
  </g>
</svg>
