<?xml version="1.0" encoding="UTF-8" standalone="no"?>
<svg
   xmlns:dc="http://purl.org/dc/elements/1.1/"
   xmlns:cc="http://creativecommons.org/ns#"
   xmlns:rdf="http://www.w3.org/1999/02/22-rdf-syntax-ns#"
   xmlns:svg="http://www.w3.org/2000/svg"
   xmlns="http://www.w3.org/2000/svg"
   id="svg69"
   stroke-miterlimit="10"
   stroke-linecap="square"
   stroke="none"
   fill="none"
   viewBox="0.0 0.0 348.0 348.0"
   version="1.1">
  <metadata
     id="metadata75">
    <rdf:RDF>
      <cc:Work
         rdf:about="">
        <dc:format>image/svg+xml</dc:format>
        <dc:type
           rdf:resource="http://purl.org/dc/dcmitype/StillImage" />
      </cc:Work>
    </rdf:RDF>
  </metadata>
  <defs
     id="defs73" />
  <clipPath
     id="p.0">
    <path
       id="path2"
       clip-rule="nonzero"
       d="m0 0l348.0 0l0 348.0l-348.0 0l0 -348.0z" />
  </clipPath>
  <g
     id="g63"
     clip-path="url(#p.0)">
    <path
       id="path5"
       fill-rule="nonzero"
       d="M 0,0 H 348 V 348 H 0 Z"
       fill-opacity="0"
       fill="#000000" />
    <path
       id="path7"
       fill-rule="nonzero"
       d="M -6,0 H 342 V 347.9685 H -6 Z"
       fill="#ffffff" />
    <path
       id="path9"
       fill-rule="nonzero"
       d="m 5.07874,5.7758217 h 336.9134 V 343.44512 H 5.07874 Z"
       fill-opacity="0"
       fill="#000000" />
    <path
       id="path11"
       fill-rule="nonzero"
       d="m 5.07874,5.7758217 h 336.9134 V 343.44512 H 5.07874 Z"
       stroke-linecap="butt"
       stroke-linejoin="round"
       stroke-width="2"
       stroke="#000000" />
    <path
       id="path13"
       fill-rule="nonzero"
       d="M 17.036913,71.17821 H 242.42274 V 306.51679 H 17.036913 Z"
       fill="#ffffff" />
    <path
       id="path15"
       fill-rule="nonzero"
       d="M 17.036913,71.17821 H 242.42274 V 306.51679 H 17.036913 Z"
       stroke-linecap="butt"
       stroke-linejoin="round"
       stroke-width="2"
       stroke="#000000" />
    <path
       id="path17"
       fill-rule="nonzero"
       d="m 273.45645,109.96049 h 46.2677 v 196.56694 h -46.2677 z"
       fill="#000000" />
    <path
       id="path19"
       fill-rule="nonzero"
       d="m 273.45645,109.96049 h 46.2677 v 196.56694 h -46.2677 z"
       stroke-linecap="butt"
       stroke-linejoin="round"
       stroke-width="2"
       stroke="#000000" />
    <path
       id="path21"
       fill-rule="nonzero"
       d="m 282.73444,40.553925 v 0 c 0,-8.375591 6.96603,-15.165352 15.55905,-15.165352 v 0 c 4.12653,0 8.08402,1.597773 11.00192,4.441828 2.91788,2.844057 4.55713,6.701422 4.55713,10.723524 v 0 c 0,8.375595 -6.966,15.165356 -15.55905,15.165356 v 0 c -8.59302,0 -15.55905,-6.789761 -15.55905,-15.165356 z"
       fill="#ffffff" />
    <path
       id="path23"
       fill-rule="nonzero"
       d="m 282.73444,40.553925 v 0 c 0,-8.375591 6.96603,-15.165352 15.55905,-15.165352 v 0 c 4.12653,0 8.08402,1.597773 11.00192,4.441828 2.91788,2.844057 4.55713,6.701422 4.55713,10.723524 v 0 c 0,8.375595 -6.966,15.165356 -15.55905,15.165356 v 0 c -8.59302,0 -15.55905,-6.789761 -15.55905,-15.165356 z"
       stroke-linecap="butt"
       stroke-linejoin="round"
       stroke-width="2"
       stroke="#000000" />
    <path
       id="path25"
       fill-rule="nonzero"
       d="m 31.55643,188.84772 v 0 c 0,-54.95017 43.953648,-99.49606 98.17323,-99.49606 v 0 c 26.03715,0 51.00789,10.48259 69.41894,29.14172 18.41106,18.65914 28.75428,43.96634 28.75428,70.35434 v 0 c 0,54.95017 -43.95365,99.49606 -98.17322,99.49606 v 0 c -54.219583,0 -98.173233,-44.5459 -98.173233,-99.49606 z"
       fill="#ffffff" />
    <path
       id="path27"
       fill-rule="nonzero"
       d="m 31.55643,188.84772 v 0 c 0,-54.95017 43.953648,-99.49606 98.17323,-99.49606 v 0 c 26.03715,0 51.00789,10.48259 69.41894,29.14172 18.41106,18.65914 28.75428,43.96634 28.75428,70.35434 v 0 c 0,54.95017 -43.95365,99.49606 -98.17322,99.49606 v 0 c -54.219583,0 -98.173233,-44.5459 -98.173233,-99.49606 z"
       stroke-linecap="butt"
       stroke-linejoin="round"
       stroke-width="2"
       stroke="#000000" />
    <path
       id="path29"
       fill-rule="nonzero"
       d="m 45.42257,153.48425 h 202.51968 v 70.67717 H 45.42257 Z"
       fill-opacity="0"
       fill="#000000" />
    <path
       id="path31"
       fill-rule="nonzero"
       d="M 40.969852,95.99732 H 218.89111 v 185.7008 H 40.969852 Z"
       fill-opacity="0"
       fill="#000000" />
    <path
       id="path33"
       fill-rule="nonzero"
       d="M 40.969852,95.99732 H 218.89111 v 185.7008 H 40.969852 Z"
       stroke-linecap="butt"
       stroke-linejoin="round"
       stroke-width="1"
       stroke="#000000" />
    <path
       id="path35"
       fill-rule="nonzero"
       d="M 17.708662,72.89501 41.173229,95.950132"
       fill-opacity="0"
       fill="#000000" />
    <path
       id="path37"
       fill-rule="nonzero"
       d="M 17.708662,72.89501 41.173229,95.950132"
       stroke-linecap="butt"
       stroke-linejoin="round"
       stroke-width="1"
       stroke="#000000" />
    <path
       id="path39"
       fill-rule="nonzero"
       d="m 219.0971,281.69553 23.08662,24.28348"
       fill-opacity="0"
       fill="#000000" />
    <path
       id="path41"
       fill-rule="nonzero"
       d="m 219.0971,281.69553 23.08662,24.28348"
       stroke-linecap="butt"
       stroke-linejoin="round"
       stroke-width="1"
       stroke="#000000" />
    <path
       id="path43"
       fill-rule="nonzero"
       d="M 242.15749,72.89501 219.51181,95.950132"
       fill-opacity="0"
       fill="#000000" />
    <path
       id="path45"
       fill-rule="nonzero"
       d="M 242.15749,72.89501 219.51181,95.950132"
       stroke-linecap="butt"
       stroke-linejoin="round"
       stroke-width="1"
       stroke="#000000" />
    <path
       id="path47"
       fill-rule="nonzero"
       d="M 40.76378,281.70078 18.11811,304.75592"
       fill-opacity="0"
       fill="#000000" />
    <path
       id="path49"
       fill-rule="nonzero"
       d="M 40.76378,281.70078 18.11811,304.75592"
       stroke-linecap="butt"
       stroke-linejoin="round"
       stroke-width="1"
       stroke="#000000" />
    <path
       id="path51"
       fill-rule="nonzero"
       d="M 55.18635,58.892387 H 81.139105 V 71.17585 H 55.18635 Z"
       fill-opacity="0"
       fill="#000000" />
    <path
       id="path53"
       fill-rule="nonzero"
       d="M 55.18635,58.892387 H 81.139105 V 71.17585 H 55.18635 Z"
       stroke-linecap="butt"
       stroke-linejoin="round"
       stroke-width="2"
       stroke="#000000" />
    <path
       id="path55"
       fill-rule="nonzero"
       d="m 180.33595,58.892387 h 25.95276 V 71.17585 h -25.95276 z"
       fill-opacity="0"
       fill="#000000" />
    <path
       id="path57"
       fill-rule="nonzero"
       d="m 180.33595,58.892387 h 25.95276 V 71.17585 h -25.95276 z"
       stroke-linecap="butt"
       stroke-linejoin="round"
       stroke-width="2"
       stroke="#000000" />
    <path
       id="path59"
       fill-rule="nonzero"
       d="m 84.14173,63.422573 h 92.25196 v 7.748028 H 84.14173 Z"
       fill-opacity="0"
       fill="#000000" />
    <path
       id="path61"
       fill-rule="nonzero"
       d="m 84.14173,63.422573 h 92.25196 v 7.748028 H 84.14173 Z"
       stroke-linecap="butt"
       stroke-linejoin="round"
       stroke-width="2"
       stroke="#000000" />
  </g>
  <g
     style="font-size:42px;font-family:'DejaVu Sans', sans-serif;text-anchor:middle;fill:#000000"
     id="text67"
     aria-label="[ คำ ]">
    <path
       id="path77"
       d="m 81.863281,171.08984 h 8.695313 v 2.93262 h -4.921875 v 31.58203 h 4.921875 v 2.93262 h -8.695313 z" />
    <path
       id="path79"
       d="m 130.42578,203 h -3.87598 v -13.22754 q 0,-6.68555 -6.0498,-6.68555 -2.8916,0 -4.4707,1.72266 -1.5791,1.70215 -1.5791,4.53223 0,2.58398 0.92285,5.76269 0.67675,-3.1582 1.88672,-5.18847 1.20996,-2.03028 3.36328,-2.03028 1.59961,0 2.74804,1.14844 1.16895,1.14844 1.16895,2.74805 0,1.59961 -1.14844,2.74804 -1.14844,1.12793 -2.76855,1.12793 -1.06641,0 -1.88672,-0.51269 -2.56348,2.58398 -2.56348,7.85449 h -3.85547 v -1.76367 q 0,-1.70215 -0.77929,-5.41406 -0.90235,-4.22461 -0.90235,-6.43946 0,-4.45019 2.54297,-7.19824 2.56348,-2.74805 7.32129,-2.74805 9.92578,0 9.92578,10.33594 z m -9.76172,-9.7002 q 0.63574,0 1.08692,-0.45117 0.47168,-0.45117 0.47168,-1.0664 0,-0.67676 -0.45118,-1.12793 -0.45117,-0.47168 -1.10742,-0.47168 -0.63574,0 -1.08691,0.47168 -0.45117,0.45117 -0.45117,1.12793 0,0.61523 0.45117,1.0664 0.47168,0.45117 1.08691,0.45117 z" />
    <path
       id="path81"
       d="m 128.08789,171.95117 q 1.27148,0 2.17383,0.92285 0.88183,0.90235 0.88183,2.19434 0,1.25098 -0.88183,2.15332 -0.90235,0.90234 -2.17383,0.90234 -1.25098,0 -2.15332,-0.90234 -0.92285,-0.90234 -0.92285,-2.15332 0,-1.29199 0.90234,-2.19434 0.90235,-0.92285 2.17383,-0.92285 z m 0,4.40918 q 0.5332,0 0.92285,-0.36914 0.36914,-0.38965 0.36914,-0.92285 0,-0.5332 -0.36914,-0.92285 -0.38965,-0.38965 -0.92285,-0.38965 -0.5332,0 -0.92285,0.38965 -0.38965,0.38965 -0.38965,0.92285 0,0.5332 0.38965,0.92285 0.38965,0.36914 0.92285,0.36914 z" />
    <path
       id="path83"
       d="m 150.79004,203 h -3.85547 v -14.7041 q 0,-2.64551 -1.27148,-4.04004 -1.25098,-1.41504 -3.46582,-1.41504 -3.38379,0 -6.93165,2.0918 h -0.2666 v -4.06055 q 3.62989,-1.39453 7.19825,-1.39453 8.59277,0 8.59277,8.57226 z" />
    <path
       id="path85"
       d="m 180.11621,171.08984 v 37.44727 h -8.69531 v -2.93262 h 4.90137 v -31.58203 h -4.90137 v -2.93262 z" />
  </g>
</svg>
