<?xml version="1.0" encoding="UTF-8" standalone="no"?>
<svg
   xmlns:dc="http://purl.org/dc/elements/1.1/"
   xmlns:cc="http://creativecommons.org/ns#"
   xmlns:rdf="http://www.w3.org/1999/02/22-rdf-syntax-ns#"
   xmlns:svg="http://www.w3.org/2000/svg"
   xmlns="http://www.w3.org/2000/svg"
   id="svg95"
   stroke-miterlimit="10"
   stroke-linecap="square"
   stroke="none"
   fill="none"
   viewBox="0.0 0.0 348.0 348.0"
   version="1.1">
  <metadata
     id="metadata101">
    <rdf:RDF>
      <cc:Work
         rdf:about="">
        <dc:format>image/svg+xml</dc:format>
        <dc:type
           rdf:resource="http://purl.org/dc/dcmitype/StillImage" />
      </cc:Work>
    </rdf:RDF>
  </metadata>
  <defs
     id="defs99" />
  <clipPath
     id="p.0">
    <path
       id="path2"
       clip-rule="nonzero"
       d="m0 0l348.0 0l0 348.0l-348.0 0l0 -348.0z" />
  </clipPath>
  <g
     id="g81"
     clip-path="url(#p.0)">
    <path
       id="path5"
       fill-rule="nonzero"
       d="M 0,0 H 348 V 348 H 0 Z"
       fill-opacity="0"
       fill="#000000" />
    <path
       id="path7"
       fill-rule="nonzero"
       d="M -6,0 H 348.01575 V 347.9685 H -6 Z"
       fill="#ffffff" />
    <path
       id="path9"
       fill-rule="nonzero"
       d="m 5.07874,5.7758217 h 336.9134 V 343.44512 H 5.07874 Z"
       fill-opacity="0"
       fill="#000000" />
    <path
       id="path11"
       fill-rule="nonzero"
       d="m 5.07874,5.7758217 h 336.9134 V 343.44512 H 5.07874 Z"
       stroke-linecap="butt"
       stroke-linejoin="round"
       stroke-width="2"
       stroke="#000000" />
    <path
       id="path13"
       fill-rule="nonzero"
       d="m 133.84251,15.666667 h 74.33072 v 56.881886 h -74.33072 z"
       fill="#000000" />
    <path
       id="path15"
       fill-rule="nonzero"
       d="m 154.53912,44.089794 q 0,-4.0625 0.82812,-6.53125 0.84375,-2.484375 2.48438,-3.828125 1.65625,-1.34375 4.15625,-1.34375 1.84375,0 3.23437,0.75 1.39063,0.734375 2.29688,2.140625 0.90625,1.390625 1.42187,3.40625 0.51563,2 0.51563,5.40625 0,4.03125 -0.82813,6.515625 -0.82812,2.46875 -2.48437,3.828125 -1.64063,1.34375 -4.15625,1.34375 -3.3125,0 -5.20313,-2.375 -2.26562,-2.859375 -2.26562,-9.3125 z m 2.89062,0 q 0,5.640625 1.3125,7.515625 1.32813,1.859375 3.26563,1.859375 1.9375,0 3.25,-1.875 1.32812,-1.875 1.32812,-7.5 0,-5.65625 -1.32812,-7.515625 -1.3125,-1.859375 -3.28125,-1.859375 -1.9375,0 -3.09375,1.640625 -1.45313,2.09375 -1.45313,7.734375 z m 14.90625,0 q 0,-4.0625 0.82813,-6.53125 0.84375,-2.484375 2.48437,-3.828125 1.65625,-1.34375 4.15625,-1.34375 1.84375,0 3.23438,0.75 1.39062,0.734375 2.29687,2.140625 0.90625,1.390625 1.42188,3.40625 0.51562,2 0.51562,5.40625 0,4.03125 -0.82812,6.515625 -0.82813,2.46875 -2.48438,3.828125 -1.64062,1.34375 -4.15625,1.34375 -3.3125,0 -5.20312,-2.375 -2.26563,-2.859375 -2.26563,-9.3125 z m 2.89063,0 q 0,5.640625 1.3125,7.515625 1.32812,1.859375 3.26562,1.859375 1.9375,0 3.25,-1.875 1.32813,-1.875 1.32813,-7.5 0,-5.65625 -1.32813,-7.515625 -1.3125,-1.859375 -3.28125,-1.859375 -1.9375,0 -3.09375,1.640625 -1.45312,2.09375 -1.45312,7.734375 z"
       fill="#ffffff" />
    <path
       id="path17"
       fill-rule="nonzero"
       d="M 15.262467,17.706038 H 125.15223 v 54.83464 H 15.262467 Z"
       fill="#ffffff" />
    <path
       id="path19"
       fill-rule="nonzero"
       d="M 15.262467,17.706038 H 125.15223 v 54.83464 H 15.262467 Z"
       stroke-linecap="butt"
       stroke-linejoin="round"
       stroke-width="2"
       stroke="#000000" />
    <path
       id="path21"
       fill-rule="nonzero"
       d="M 15.262467,72.65354 54.947507,18.5748"
       fill-opacity="0"
       fill="#000000" />
    <path
       id="path23"
       fill-rule="nonzero"
       d="M 15.262467,72.65354 54.947507,18.5748"
       stroke-linecap="butt"
       stroke-linejoin="round"
       stroke-width="2"
       stroke="#000000" />
    <path
       id="path25"
       fill-rule="nonzero"
       d="M 37.56649,72.65354 77.251533,18.5748"
       fill-opacity="0"
       fill="#000000" />
    <path
       id="path27"
       fill-rule="nonzero"
       d="M 37.56649,72.65354 77.251533,18.5748"
       stroke-linecap="butt"
       stroke-linejoin="round"
       stroke-width="2"
       stroke="#000000" />
    <path
       id="path29"
       fill-rule="nonzero"
       d="M 59.870514,72.65354 99.555557,18.5748"
       fill-opacity="0"
       fill="#000000" />
    <path
       id="path31"
       fill-rule="nonzero"
       d="M 59.870514,72.65354 99.555557,18.5748"
       stroke-linecap="butt"
       stroke-linejoin="round"
       stroke-width="2"
       stroke="#000000" />
    <path
       id="path33"
       fill-rule="nonzero"
       d="M 82.17454,72.65354 121.85958,18.5748"
       fill-opacity="0"
       fill="#000000" />
    <path
       id="path35"
       fill-rule="nonzero"
       d="M 82.17454,72.65354 121.85958,18.5748"
       stroke-linecap="butt"
       stroke-linejoin="round"
       stroke-width="2"
       stroke="#000000" />
    <path
       id="path37"
       fill-rule="nonzero"
       d="M 32.97638,83.031494 H 315.02362 V 325.3937 H 32.97638 Z"
       fill="#ffffff" />
    <path
       id="path39"
       fill-rule="nonzero"
       d="M 32.97638,83.031494 H 315.02362 V 325.3937 H 32.97638 Z"
       stroke-linecap="butt"
       stroke-linejoin="round"
       stroke-width="2"
       stroke="#000000" />
    <path
       id="path41"
       fill-rule="nonzero"
       d="m 216.86351,16.633858 h 109.88975 v 54.83465 H 216.86351 Z"
       fill="#ffffff" />
    <path
       id="path43"
       fill-rule="nonzero"
       d="m 216.86351,16.633858 h 109.88975 v 54.83465 H 216.86351 Z"
       stroke-linecap="butt"
       stroke-linejoin="round"
       stroke-width="2"
       stroke="#000000" />
    <path
       id="path45"
       fill-rule="nonzero"
       d="M 216.86351,71.58137 256.54855,17.502627"
       fill-opacity="0"
       fill="#000000" />
    <path
       id="path47"
       fill-rule="nonzero"
       d="M 216.86351,71.58137 256.54855,17.502627"
       stroke-linecap="butt"
       stroke-linejoin="round"
       stroke-width="2"
       stroke="#000000" />
    <path
       id="path49"
       fill-rule="nonzero"
       d="M 239.16754,71.58137 278.85257,17.502627"
       fill-opacity="0"
       fill="#000000" />
    <path
       id="path51"
       fill-rule="nonzero"
       d="M 239.16754,71.58137 278.85257,17.502627"
       stroke-linecap="butt"
       stroke-linejoin="round"
       stroke-width="2"
       stroke="#000000" />
    <path
       id="path53"
       fill-rule="nonzero"
       d="M 261.47156,71.58137 301.15662,17.502627"
       fill-opacity="0"
       fill="#000000" />
    <path
       id="path55"
       fill-rule="nonzero"
       d="M 261.47156,71.58137 301.15662,17.502627"
       stroke-linecap="butt"
       stroke-linejoin="round"
       stroke-width="2"
       stroke="#000000" />
    <path
       id="path57"
       fill-rule="nonzero"
       d="M 283.7756,71.58137 323.46063,17.502627"
       fill-opacity="0"
       fill="#000000" />
    <path
       id="path59"
       fill-rule="nonzero"
       d="M 283.7756,71.58137 323.46063,17.502627"
       stroke-linecap="butt"
       stroke-linejoin="round"
       stroke-width="2"
       stroke="#000000" />
    <path
       id="path61"
       fill-rule="nonzero"
       d="M 44.490814,88.11811 H 303.48294 V 252.05512 H 44.490814 Z"
       fill="#000000" />
    <path
       id="path63"
       fill-rule="nonzero"
       d="m 113.77165,267.51697 h 49.25984 v 45.48032 h -49.25984 z"
       stroke-linecap="butt"
       stroke-linejoin="round"
       stroke-width="1"
       stroke="#000000" />
    <path
       id="path65"
       fill-rule="nonzero"
       d="m 182.79527,267.51697 h 49.25984 v 45.48032 h -49.25984 z"
       fill-opacity="0"
       fill="#000000" />
    <path
       id="path67"
       fill-rule="nonzero"
       d="m 182.79527,267.51697 h 49.25984 v 45.48032 h -49.25984 z"
       stroke-linecap="butt"
       stroke-linejoin="round"
       stroke-width="1"
       stroke="#000000" />
    <path
       id="path69"
       fill-rule="nonzero"
       d="m 260.08136,270.74014 h 36.72443 v 25.63782 h -36.72443 z"
       fill="#ffffff" />
    <path
       id="path71"
       fill-rule="nonzero"
       d="m 260.08136,270.74014 h 36.72443 v 25.63782 h -36.72443 z"
       stroke-linecap="butt"
       stroke-linejoin="round"
       stroke-width="2"
       stroke="#000000" />
    <path
       id="path73"
       fill-rule="nonzero"
       d="m 265.46457,305.50656 v 0 c 0,-2.35699 1.91071,-4.26773 4.2677,-4.26773 v 0 c 1.1319,0 2.21741,0.44965 3.01773,1.25 0.80035,0.80035 1.25,1.88586 1.25,3.01773 v 0 c 0,2.35699 -1.91074,4.26773 -4.26773,4.26773 v 0 c -2.35699,0 -4.2677,-1.91074 -4.2677,-4.26773 z"
       fill="#ffffff" />
    <path
       id="path75"
       fill-rule="nonzero"
       d="m 265.46457,305.50656 v 0 c 0,-2.35699 1.91071,-4.26773 4.2677,-4.26773 v 0 c 1.1319,0 2.21741,0.44965 3.01773,1.25 0.80035,0.80035 1.25,1.88586 1.25,3.01773 v 0 c 0,2.35699 -1.91074,4.26773 -4.26773,4.26773 v 0 c -2.35699,0 -4.2677,-1.91074 -4.2677,-4.26773 z"
       stroke-linecap="butt"
       stroke-linejoin="round"
       stroke-width="2"
       stroke="#000000" />
    <path
       id="path77"
       fill-rule="nonzero"
       d="m 282.8084,305.50656 v 0 c 0,-2.35699 1.91071,-4.26773 4.2677,-4.26773 v 0 c 1.13187,0 2.21738,0.44965 3.01773,1.25 0.80035,0.80035 1.25,1.88586 1.25,3.01773 v 0 c 0,2.35699 -1.91074,4.26773 -4.26773,4.26773 v 0 c -2.35699,0 -4.2677,-1.91074 -4.2677,-4.26773 z"
       fill="#ffffff" />
    <path
       id="path79"
       fill-rule="nonzero"
       d="m 282.8084,305.50656 v 0 c 0,-2.35699 1.91071,-4.26773 4.2677,-4.26773 v 0 c 1.13187,0 2.21738,0.44965 3.01773,1.25 0.80035,0.80035 1.25,1.88586 1.25,3.01773 v 0 c 0,2.35699 -1.91074,4.26773 -4.26773,4.26773 v 0 c -2.35699,0 -4.2677,-1.91074 -4.2677,-4.26773 z"
       stroke-linecap="butt"
       stroke-linejoin="round"
       stroke-width="2"
       stroke="#000000" />
  </g>
  <g
     style="font-size:42px;font-family:'DejaVu Sans', sans-serif;text-anchor:middle;fill:#ffffff"
     id="text85"
     aria-label="[ข้อความ]">
    <path
       id="path103"
       d="m 89.958984,106.08984 h 8.695313 v 2.93262 h -4.921875 v 31.58203 h 4.921875 v 2.93262 h -8.695313 z" />
    <path
       id="path105"
       d="m 125.00684,138 h -16.87793 v -3.65039 h 2.60449 v -5.25 q 0,-1.55859 0.41015,-2.58398 0.43067,-1.0459 1.25098,-2.27637 0.92285,-1.39453 1.14844,-2.17383 0.22558,-0.7793 0.22558,-1.49707 0,-3.36328 -2.83007,-3.36328 -0.53321,0 -0.84082,0.20508 1.68164,1.27148 1.68164,3.1582 0,1.59961 -1.14844,2.72754 -1.14844,1.12793 -2.74805,1.12793 -1.59961,0 -2.74804,-1.12793 -1.12793,-1.14844 -1.12793,-2.76856 0,-2.72754 1.90722,-4.40918 1.92774,-1.68164 5.02442,-1.68164 2.95312,0 4.75781,1.68164 1.80469,1.66114 1.80469,4.40918 0,0.90235 -0.28711,1.92774 -0.2666,1.02539 -1.29199,2.83008 -1.3125,2.25586 -1.3125,3.65039 v 5.41406 h 6.54199 v -19.27734 h 3.85547 z m -17.12403,-15.87305 q 0.63574,0 1.08692,-0.45117 0.47168,-0.47168 0.47168,-1.14844 0,-0.61523 -0.47168,-1.0664 -0.45118,-0.45117 -1.08692,-0.45117 -0.63574,0 -1.10742,0.45117 -0.45117,0.45117 -0.45117,1.0664 0,0.67676 0.45117,1.14844 0.47168,0.45117 1.10742,0.45117 z" />
    <path
       id="path107"
       d="m 131.97949,106.35645 q -2.68652,5.5371 -10.88965,6.74707 l 1.00489,-2.21485 q -0.90235,-0.12304 -1.47657,-0.7998 -0.57421,-0.69727 -0.57421,-1.59961 0,-0.98438 0.67675,-1.68164 0.65625,-0.71778 1.64063,-0.71778 0.94336,0 1.62012,0.71778 0.67675,0.69726 0.67675,1.68164 0,1.43554 -0.84082,2.39941 3.4043,-0.88183 5.55762,-4.53222 z m -9.61816,2.85058 q 0.2666,0 0.49219,-0.20508 0.20507,-0.22558 0.20507,-0.51269 0,-0.28711 -0.20507,-0.49219 -0.22559,-0.22559 -0.49219,-0.22559 -0.28711,0 -0.49219,0.22559 -0.22559,0.20508 -0.22559,0.49219 0,0.28711 0.22559,0.51269 0.20508,0.20508 0.49219,0.20508 z" />
    <path
       id="path109"
       d="m 150.06738,138 h -18.1084 v -8.94141 q 0,-2.56347 1.45606,-4.04004 1.45605,-1.47656 3.87598,-1.47656 1.5996,0 2.74804,1.16895 1.14844,1.14844 1.14844,2.74804 0,1.59961 -1.14844,2.72754 -1.14844,1.12793 -2.74804,1.12793 -0.84082,0 -1.47657,-0.24609 v 3.28125 h 10.37696 v -10.58203 q 0,-2.80957 -1.59961,-4.38867 -1.5791,-1.57911 -4.28614,-1.57911 -4.2041,0 -8.26464,2.72754 h -0.2461 v -4.32714 q 4.42969,-1.76368 8.42871,-1.76368 4.75782,0 7.30078,2.48145 2.54297,2.46094 2.54297,6.84961 z m -12.77636,-9.02344 q 0.63574,0 1.08691,-0.45117 0.47168,-0.45117 0.47168,-1.06641 0,-0.67675 -0.47168,-1.12793 -0.45117,-0.47167 -1.08691,-0.47167 -0.63575,0 -1.10743,0.47167 -0.45117,0.45118 -0.45117,1.12793 0,0.61524 0.45117,1.06641 0.47168,0.45117 1.10743,0.45117 z" />
    <path
       id="path111"
       d="m 175.92773,138 h -3.87597 v -13.22754 q 0,-6.68555 -6.04981,-6.68555 -2.8916,0 -4.4707,1.72266 -1.5791,1.70215 -1.5791,4.53223 0,2.58398 0.92285,5.76269 0.67676,-3.1582 1.88672,-5.18847 1.20996,-2.03028 3.36328,-2.03028 1.59961,0 2.74805,1.14844 1.16894,1.14844 1.16894,2.74805 0,1.59961 -1.14844,2.74804 -1.14843,1.12793 -2.76855,1.12793 -1.06641,0 -1.88672,-0.51269 -2.56348,2.58398 -2.56348,7.85449 h -3.85546 v -1.76367 q 0,-1.70215 -0.7793,-5.41406 -0.90234,-4.22461 -0.90234,-6.43946 0,-4.45019 2.54296,-7.19824 2.56348,-2.74805 7.32129,-2.74805 9.92578,0 9.92578,10.33594 z m -9.76171,-9.7002 q 0.63574,0 1.08691,-0.45117 0.47168,-0.45117 0.47168,-1.0664 0,-0.67676 -0.45117,-1.12793 -0.45117,-0.47168 -1.10742,-0.47168 -0.63575,0 -1.08692,0.47168 -0.45117,0.45117 -0.45117,1.12793 0,0.61523 0.45117,1.0664 0.47168,0.45117 1.08692,0.45117 z" />
    <path
       id="path113"
       d="m 196.29199,132.83203 q 0,2.54297 -1.45605,4.01953 -1.43555,1.47656 -3.87598,1.47656 -1.59961,0 -2.74805,-1.14843 -1.14843,-1.14844 -1.14843,-2.74805 0,-1.59961 1.14843,-2.72754 1.14844,-1.12793 2.74805,-1.12793 0.84082,0 1.47656,0.2461 v -7.52637 q 0,-2.64551 -1.27148,-4.04004 -1.25098,-1.41504 -3.46582,-1.41504 -3.38379,0 -6.93164,2.0918 h -0.2666 v -4.06055 q 3.62988,-1.39453 7.19824,-1.39453 8.59277,0 8.59277,8.57226 z m -5.33203,3.19922 q 0.65625,0 1.10742,-0.45117 0.45117,-0.47168 0.45117,-1.14844 0,-0.61523 -0.47168,-1.06641 -0.45117,-0.45117 -1.08691,-0.45117 -0.63574,0 -1.10742,0.45117 -0.45117,0.45118 -0.45117,1.06641 0,0.67676 0.45117,1.14844 0.47168,0.45117 1.10742,0.45117 z" />
    <path
       id="path115"
       d="m 216.63574,138 h -3.85547 v -14.7041 q 0,-2.64551 -1.27148,-4.04004 -1.25098,-1.41504 -3.46582,-1.41504 -3.38379,0 -6.93164,2.0918 h -0.2666 v -4.06055 q 3.62988,-1.39453 7.19824,-1.39453 8.59277,0 8.59277,8.57226 z" />
    <path
       id="path117"
       d="m 241.77832,138 h -3.60937 q -3.917,-3.75293 -7.6084,-4.77832 v 0.57422 q 0,2.23535 -1.292,3.38379 -1.27148,1.14843 -3.19921,1.14843 -1.80469,0 -2.93262,-0.98437 -1.10742,-0.98438 -1.10742,-2.625 0,-1.55859 1.23047,-2.74805 1.25097,-1.20996 3.44531,-1.45605 v -8.55176 q -0.63574,0.24609 -1.47656,0.24609 -1.59961,0 -2.76856,-1.12793 -1.14844,-1.14843 -1.14844,-2.72753 0,-1.62012 1.14844,-2.76856 1.16895,-1.14844 2.76856,-1.14844 2.41992,0 3.87597,1.49707 1.45606,1.47657 1.45606,3.99903 v 10.7666 q 3.6914,0.88183 7.34179,3.56836 v -19.19531 h 3.87598 z m -16.5498,-18.14941 q 0.63574,0 1.08691,-0.43067 0.47168,-0.45117 0.47168,-1.0664 0,-0.69727 -0.47168,-1.14844 -0.45117,-0.45117 -1.08691,-0.45117 -0.63575,0 -1.10743,0.47168 -0.45117,0.45117 -0.45117,1.12793 0,0.61523 0.45117,1.0664 0.47168,0.43067 1.10743,0.43067 z m 1.47656,14.58105 v -1.59961 q -1.0459,0.14356 -1.66113,0.69727 -0.61524,0.55371 -0.61524,1.18945 0,0.59473 0.30762,0.96387 0.30762,0.34863 0.77929,0.34863 1.18946,0 1.18946,-1.59961 z" />
    <path
       id="path119"
       d="m 258.02051,106.08984 v 37.44727 h -8.69531 v -2.93262 h 4.90136 v -31.58203 h -4.90136 v -2.93262 z" />
  </g>
  <g
     style="font-size:24px;font-family:'DejaVu Sans', sans-serif;text-anchor:middle;fill:#000000"
     id="text89"
     aria-label="ช">
    <path
       id="path122"
       d="m 144.99609,282.07031 q 0,1.30078 -0.77343,2.34375 -0.77344,1.03125 -2.0625,1.38281 0.80859,0.29297 1.2539,0.91407 0.45703,0.62109 0.45703,1.40625 V 297 h -10.07812 v -2.08594 h 1.48828 v -3 q 0,-0.89062 0.23437,-1.47656 0.2461,-0.59766 0.70313,-1.30078 0.52734,-0.79688 0.65625,-1.24219 0.12891,-0.44531 0.12891,-0.85547 0,-1.92187 -1.60547,-1.92187 -0.31641,0 -0.48047,0.11718 0.96094,0.72657 0.96094,1.80469 0,0.91406 -0.65625,1.5586 -0.65625,0.64453 -1.58204,0.64453 -0.91406,0 -1.55859,-0.64453 -0.64453,-0.65625 -0.64453,-1.58204 0,-1.55859 1.08984,-2.51953 1.08985,-0.96093 2.8711,-0.96093 1.67578,0 2.70703,0.96093 1.03125,0.94922 1.03125,2.51953 0,0.51563 -0.15235,1.10157 -0.15234,0.58593 -0.75,1.61718 -0.75,1.28907 -0.75,2.08594 v 3.09375 h 4.17188 v -6.41015 q 0,-1.6875 -1.17188,-2.01563 v -1.03125 q 1.10157,-0.36328 1.67579,-1.25391 0.58593,-0.90234 0.58593,-2.13281 z m -11.35547,5.85938 q 0.375,0 0.63282,-0.25782 0.25781,-0.26953 0.25781,-0.65625 0,-0.35156 -0.26953,-0.60937 -0.25781,-0.25781 -0.6211,-0.25781 -0.36328,0 -0.62109,0.25781 -0.25781,0.25781 -0.25781,0.60937 0,0.38672 0.25781,0.65625 0.25781,0.25782 0.62109,0.25782 z" />
  </g>
  <g
     style="font-size:24px;font-family:'DejaVu Sans', sans-serif;text-anchor:middle;fill:#000000"
     id="text93"
     aria-label="ม">
    <path
       id="path125"
       d="m 213.21484,297 h -2.0625 q -2.23828,-2.14453 -4.34765,-2.73047 v 0.32813 q 0,1.27734 -0.73828,1.93359 -0.72657,0.65625 -1.82813,0.65625 -1.03125,0 -1.67578,-0.5625 -0.63281,-0.5625 -0.63281,-1.5 0,-0.89063 0.70312,-1.57031 0.71485,-0.69141 1.96875,-0.83203 v -4.88672 q -0.36328,0.14062 -0.84375,0.14062 -0.91406,0 -1.58203,-0.64453 -0.65625,-0.65625 -0.65625,-1.55859 0,-0.92578 0.65625,-1.58203 0.66797,-0.65625 1.58203,-0.65625 1.38281,0 2.21485,0.85546 0.83203,0.84375 0.83203,2.28516 v 6.15234 q 2.10937,0.50391 4.19531,2.03907 v -10.96875 h 2.21484 z m -9.45703,-10.37109 q 0.36328,0 0.6211,-0.2461 0.26953,-0.25781 0.26953,-0.60937 0,-0.39844 -0.26953,-0.65625 -0.25782,-0.25782 -0.6211,-0.25782 -0.36328,0 -0.63281,0.26954 -0.25781,0.25781 -0.25781,0.64453 0,0.35156 0.25781,0.60937 0.26953,0.2461 0.63281,0.2461 z m 0.84375,8.33203 v -0.91407 q -0.59765,0.082 -0.94922,0.39844 -0.35156,0.31641 -0.35156,0.67969 0,0.33984 0.17578,0.55078 0.17578,0.19922 0.44531,0.19922 0.67969,0 0.67969,-0.91406 z" />
  </g>
</svg>
