<?xml version="1.0" encoding="UTF-8" standalone="no"?>
<svg
   xmlns:dc="http://purl.org/dc/elements/1.1/"
   xmlns:cc="http://creativecommons.org/ns#"
   xmlns:rdf="http://www.w3.org/1999/02/22-rdf-syntax-ns#"
   xmlns:svg="http://www.w3.org/2000/svg"
   xmlns="http://www.w3.org/2000/svg"
   id="svg95"
   stroke-miterlimit="10"
   stroke-linecap="square"
   stroke="none"
   fill="none"
   viewBox="0.0 0.0 348.0 348.0"
   version="1.1">
  <metadata
     id="metadata101">
    <rdf:RDF>
      <cc:Work
         rdf:about="">
        <dc:format>image/svg+xml</dc:format>
        <dc:type
           rdf:resource="http://purl.org/dc/dcmitype/StillImage" />
      </cc:Work>
    </rdf:RDF>
  </metadata>
  <defs
     id="defs99" />
  <clipPath
     id="p.0">
    <path
       id="path2"
       clip-rule="nonzero"
       d="m0 0l348.0 0l0 348.0l-348.0 0l0 -348.0z" />
  </clipPath>
  <g
     id="g81"
     clip-path="url(#p.0)">
    <path
       style="fill:#000000;fill-opacity:0;fill-rule:nonzero"
       id="path5"
       d="M 0,0 H 348 V 348 H 0 Z" />
    <path
       style="fill:#ffffff;fill-rule:nonzero"
       id="path7"
       d="M -6,0 H 348.01575 V 347.9685 H -6 Z" />
    <path
       style="fill:#000000;fill-opacity:0;fill-rule:nonzero"
       id="path9"
       d="m 5.07874,5.7758217 h 336.9134 V 343.44512 H 5.07874 Z" />
    <path
       style="fill-rule:nonzero;stroke:#000000;stroke-width:2;stroke-linecap:butt;stroke-linejoin:round"
       id="path11"
       d="m 5.07874,5.7758217 h 336.9134 V 343.44512 H 5.07874 Z" />
    <path
       style="fill:#000000;fill-rule:nonzero"
       id="path13"
       d="m 133.84251,15.666667 h 74.33072 v 56.881886 h -74.33072 z" />
    <path
       style="fill:#ffffff;fill-rule:nonzero"
       id="path15"
       d="m 154.53912,44.089794 q 0,-4.0625 0.82812,-6.53125 0.84375,-2.484375 2.48438,-3.828125 1.65625,-1.34375 4.15625,-1.34375 1.84375,0 3.23437,0.75 1.39063,0.734375 2.29688,2.140625 0.90625,1.390625 1.42187,3.40625 0.51563,2 0.51563,5.40625 0,4.03125 -0.82813,6.515625 -0.82812,2.46875 -2.48437,3.828125 -1.64063,1.34375 -4.15625,1.34375 -3.3125,0 -5.20313,-2.375 -2.26562,-2.859375 -2.26562,-9.3125 z m 2.89062,0 q 0,5.640625 1.3125,7.515625 1.32813,1.859375 3.26563,1.859375 1.9375,0 3.25,-1.875 1.32812,-1.875 1.32812,-7.5 0,-5.65625 -1.32812,-7.515625 -1.3125,-1.859375 -3.28125,-1.859375 -1.9375,0 -3.09375,1.640625 -1.45313,2.09375 -1.45313,7.734375 z m 14.90625,0 q 0,-4.0625 0.82813,-6.53125 0.84375,-2.484375 2.48437,-3.828125 1.65625,-1.34375 4.15625,-1.34375 1.84375,0 3.23438,0.75 1.39062,0.734375 2.29687,2.140625 0.90625,1.390625 1.42188,3.40625 0.51562,2 0.51562,5.40625 0,4.03125 -0.82812,6.515625 -0.82813,2.46875 -2.48438,3.828125 -1.64062,1.34375 -4.15625,1.34375 -3.3125,0 -5.20312,-2.375 -2.26563,-2.859375 -2.26563,-9.3125 z m 2.89063,0 q 0,5.640625 1.3125,7.515625 1.32812,1.859375 3.26562,1.859375 1.9375,0 3.25,-1.875 1.32813,-1.875 1.32813,-7.5 0,-5.65625 -1.32813,-7.515625 -1.3125,-1.859375 -3.28125,-1.859375 -1.9375,0 -3.09375,1.640625 -1.45312,2.09375 -1.45312,7.734375 z" />
    <path
       style="fill:#ffffff;fill-rule:nonzero"
       id="path17"
       d="M 15.262467,17.706038 H 125.15223 v 54.83464 H 15.262467 Z" />
    <path
       style="fill-rule:nonzero;stroke:#000000;stroke-width:2;stroke-linecap:butt;stroke-linejoin:round"
       id="path19"
       d="M 15.262467,17.706038 H 125.15223 v 54.83464 H 15.262467 Z" />
    <path
       style="fill:#000000;fill-opacity:0;fill-rule:nonzero"
       id="path21"
       d="M 15.262467,72.65354 54.947507,18.5748" />
    <path
       style="fill-rule:nonzero;stroke:#000000;stroke-width:2;stroke-linecap:butt;stroke-linejoin:round"
       id="path23"
       d="M 15.262467,72.65354 54.947507,18.5748" />
    <path
       style="fill:#000000;fill-opacity:0;fill-rule:nonzero"
       id="path25"
       d="M 37.56649,72.65354 77.251533,18.5748" />
    <path
       style="fill-rule:nonzero;stroke:#000000;stroke-width:2;stroke-linecap:butt;stroke-linejoin:round"
       id="path27"
       d="M 37.56649,72.65354 77.251533,18.5748" />
    <path
       style="fill:#000000;fill-opacity:0;fill-rule:nonzero"
       id="path29"
       d="M 59.870514,72.65354 99.555557,18.5748" />
    <path
       style="fill-rule:nonzero;stroke:#000000;stroke-width:2;stroke-linecap:butt;stroke-linejoin:round"
       id="path31"
       d="M 59.870514,72.65354 99.555557,18.5748" />
    <path
       style="fill:#000000;fill-opacity:0;fill-rule:nonzero"
       id="path33"
       d="M 82.17454,72.65354 121.85958,18.5748" />
    <path
       style="fill-rule:nonzero;stroke:#000000;stroke-width:2;stroke-linecap:butt;stroke-linejoin:round"
       id="path35"
       d="M 82.17454,72.65354 121.85958,18.5748" />
    <path
       style="fill:#ffffff;fill-rule:nonzero"
       id="path37"
       d="M 32.97638,83.031494 H 315.02362 V 325.3937 H 32.97638 Z" />
    <path
       style="fill-rule:nonzero;stroke:#000000;stroke-width:2;stroke-linecap:butt;stroke-linejoin:round"
       id="path39"
       d="M 32.97638,83.031494 H 315.02362 V 325.3937 H 32.97638 Z" />
    <path
       style="fill:#ffffff;fill-rule:nonzero"
       id="path41"
       d="m 216.86351,16.633858 h 109.88975 v 54.83465 H 216.86351 Z" />
    <path
       style="fill-rule:nonzero;stroke:#000000;stroke-width:2;stroke-linecap:butt;stroke-linejoin:round"
       id="path43"
       d="m 216.86351,16.633858 h 109.88975 v 54.83465 H 216.86351 Z" />
    <path
       style="fill:#000000;fill-opacity:0;fill-rule:nonzero"
       id="path45"
       d="M 216.86351,71.58137 256.54855,17.502627" />
    <path
       style="fill-rule:nonzero;stroke:#000000;stroke-width:2;stroke-linecap:butt;stroke-linejoin:round"
       id="path47"
       d="M 216.86351,71.58137 256.54855,17.502627" />
    <path
       style="fill:#000000;fill-opacity:0;fill-rule:nonzero"
       id="path49"
       d="M 239.16754,71.58137 278.85257,17.502627" />
    <path
       style="fill-rule:nonzero;stroke:#000000;stroke-width:2;stroke-linecap:butt;stroke-linejoin:round"
       id="path51"
       d="M 239.16754,71.58137 278.85257,17.502627" />
    <path
       style="fill:#000000;fill-opacity:0;fill-rule:nonzero"
       id="path53"
       d="M 261.47156,71.58137 301.15662,17.502627" />
    <path
       style="fill-rule:nonzero;stroke:#000000;stroke-width:2;stroke-linecap:butt;stroke-linejoin:round"
       id="path55"
       d="M 261.47156,71.58137 301.15662,17.502627" />
    <path
       style="fill:#000000;fill-opacity:0;fill-rule:nonzero"
       id="path57"
       d="M 283.7756,71.58137 323.46063,17.502627" />
    <path
       style="fill-rule:nonzero;stroke:#000000;stroke-width:2;stroke-linecap:butt;stroke-linejoin:round"
       id="path59"
       d="M 283.7756,71.58137 323.46063,17.502627" />
    <path
       style="fill:#000000;fill-rule:nonzero"
       id="path61"
       d="M 44.490814,88.11811 H 303.48294 V 252.05512 H 44.490814 Z" />
    <path
       style="fill-rule:nonzero;stroke:#000000;stroke-width:1;stroke-linecap:butt;stroke-linejoin:round"
       id="path63"
       d="m 113.77165,267.51697 h 49.25984 v 45.48032 h -49.25984 z" />
    <path
       style="fill:#000000;fill-opacity:0;fill-rule:nonzero"
       id="path65"
       d="m 182.79527,267.51697 h 49.25984 v 45.48032 h -49.25984 z" />
    <path
       style="fill-rule:nonzero;stroke:#000000;stroke-width:1;stroke-linecap:butt;stroke-linejoin:round"
       id="path67"
       d="m 182.79527,267.51697 h 49.25984 v 45.48032 h -49.25984 z" />
    <path
       style="fill:#ffffff;fill-rule:nonzero"
       id="path69"
       d="m 260.08136,270.74014 h 36.72443 v 25.63782 h -36.72443 z" />
    <path
       style="fill-rule:nonzero;stroke:#000000;stroke-width:2;stroke-linecap:butt;stroke-linejoin:round"
       id="path71"
       d="m 260.08136,270.74014 h 36.72443 v 25.63782 h -36.72443 z" />
    <path
       style="fill:#ffffff;fill-rule:nonzero"
       id="path73"
       d="m 265.46457,305.50656 v 0 c 0,-2.35699 1.91071,-4.26773 4.2677,-4.26773 v 0 c 1.1319,0 2.21741,0.44965 3.01773,1.25 0.80035,0.80035 1.25,1.88586 1.25,3.01773 v 0 c 0,2.35699 -1.91074,4.26773 -4.26773,4.26773 v 0 c -2.35699,0 -4.2677,-1.91074 -4.2677,-4.26773 z" />
    <path
       style="fill-rule:nonzero;stroke:#000000;stroke-width:2;stroke-linecap:butt;stroke-linejoin:round"
       id="path75"
       d="m 265.46457,305.50656 v 0 c 0,-2.35699 1.91071,-4.26773 4.2677,-4.26773 v 0 c 1.1319,0 2.21741,0.44965 3.01773,1.25 0.80035,0.80035 1.25,1.88586 1.25,3.01773 v 0 c 0,2.35699 -1.91074,4.26773 -4.26773,4.26773 v 0 c -2.35699,0 -4.2677,-1.91074 -4.2677,-4.26773 z" />
    <path
       style="fill:#ffffff;fill-rule:nonzero"
       id="path77"
       d="m 282.8084,305.50656 v 0 c 0,-2.35699 1.91071,-4.26773 4.2677,-4.26773 v 0 c 1.13187,0 2.21738,0.44965 3.01773,1.25 0.80035,0.80035 1.25,1.88586 1.25,3.01773 v 0 c 0,2.35699 -1.91074,4.26773 -4.26773,4.26773 v 0 c -2.35699,0 -4.2677,-1.91074 -4.2677,-4.26773 z" />
    <path
       style="fill-rule:nonzero;stroke:#000000;stroke-width:2;stroke-linecap:butt;stroke-linejoin:round"
       id="path79"
       d="m 282.8084,305.50656 v 0 c 0,-2.35699 1.91071,-4.26773 4.2677,-4.26773 v 0 c 1.13187,0 2.21738,0.44965 3.01773,1.25 0.80035,0.80035 1.25,1.88586 1.25,3.01773 v 0 c 0,2.35699 -1.91074,4.26773 -4.26773,4.26773 v 0 c -2.35699,0 -4.2677,-1.91074 -4.2677,-4.26773 z" />
  </g>
  <g
     id="text85"
     style="font-size:42px;font-family:'DejaVu Sans', sans-serif;text-anchor:middle;fill:#ffffff"
     aria-label="[ข้อความ]">
    <path
       id="path103"
       style=""
       d="m 89.958984,106.08984 h 8.695313 v 2.93262 h -4.921875 v 31.58203 h 4.921875 v 2.93262 h -8.695313 z" />
    <path
       id="path105"
       style=""
       d="m 125.00684,138 h -16.87793 v -3.65039 h 2.60449 v -5.25 q 0,-1.55859 0.41015,-2.58399 0.43067,-1.04589 1.25098,-2.27636 0.92285,-1.39453 1.14844,-2.17383 0.22558,-0.7793 0.22558,-1.49707 0,-3.36328 -2.83007,-3.36328 -0.53321,0 -0.84082,0.20508 1.68164,1.27148 1.68164,3.1582 0,1.59961 -1.14844,2.72754 -1.14844,1.12793 -2.74805,1.12793 -1.59961,0 -2.74804,-1.12793 -1.12793,-1.14844 -1.12793,-2.76856 0,-2.72754 1.90722,-4.40918 1.92774,-1.68164 5.02442,-1.68164 2.95312,0 4.75781,1.68164 1.80469,1.66114 1.80469,4.40918 0,0.90235 -0.28711,1.92774 -0.2666,1.02539 -1.292,2.83008 -1.3125,2.25586 -1.3125,3.65039 v 5.41406 h 6.542 v -19.27734 h 3.85547 z m -17.12403,-15.87305 q 0.63574,0 1.08692,-0.45117 0.47168,-0.47168 0.47168,-1.14844 0,-0.61523 -0.47168,-1.0664 -0.45118,-0.45117 -1.08692,-0.45117 -0.63574,0 -1.10742,0.45117 -0.45117,0.45117 -0.45117,1.0664 0,0.67676 0.45117,1.14844 0.47168,0.45117 1.10742,0.45117 z" />
    <path
       id="path107"
       style=""
       d="m 131.97949,106.35645 q -2.68652,5.5371 -10.88965,6.74707 l 1.00489,-2.21485 q -0.90235,-0.12305 -1.47657,-0.7998 -0.57421,-0.69727 -0.57421,-1.59961 0,-0.98438 0.67675,-1.68164 0.65625,-0.71778 1.64063,-0.71778 0.94336,0 1.62012,0.71778 0.67675,0.69726 0.67675,1.68164 0,1.43554 -0.84082,2.39941 3.4043,-0.88183 5.55762,-4.53222 z m -9.61816,2.85058 q 0.2666,0 0.49219,-0.20508 0.20507,-0.22558 0.20507,-0.51269 0,-0.28711 -0.20507,-0.49219 -0.22559,-0.22559 -0.49219,-0.22559 -0.28711,0 -0.49219,0.22559 -0.22559,0.20508 -0.22559,0.49219 0,0.28711 0.22559,0.51269 0.20508,0.20508 0.49219,0.20508 z" />
    <path
       id="path109"
       style=""
       d="m 150.06738,138 h -18.1084 v -8.94141 q 0,-2.56347 1.45606,-4.04004 1.45605,-1.47656 3.87598,-1.47656 1.59961,0 2.74804,1.16895 1.14844,1.14843 1.14844,2.74804 0,1.59961 -1.14844,2.72754 -1.14843,1.12793 -2.74804,1.12793 -0.84082,0 -1.47657,-0.24609 v 3.28125 h 10.37696 v -10.58203 q 0,-2.80957 -1.59961,-4.38867 -1.5791,-1.57911 -4.28614,-1.57911 -4.2041,0 -8.26464,2.72754 h -0.2461 v -4.32714 q 4.42969,-1.76368 8.42871,-1.76368 4.75782,0 7.30078,2.48145 2.54297,2.46094 2.54297,6.84961 z m -12.77636,-9.02344 q 0.63574,0 1.08691,-0.45117 0.47168,-0.45117 0.47168,-1.06641 0,-0.67675 -0.47168,-1.12793 -0.45117,-0.47168 -1.08691,-0.47168 -0.63575,0 -1.10743,0.47168 -0.45117,0.45118 -0.45117,1.12793 0,0.61524 0.45117,1.06641 0.47168,0.45117 1.10743,0.45117 z" />
    <path
       id="path111"
       style=""
       d="m 175.92773,138 h -3.87597 v -13.22754 q 0,-6.68555 -6.04981,-6.68555 -2.8916,0 -4.4707,1.72266 -1.5791,1.70215 -1.5791,4.53223 0,2.58398 0.92285,5.76269 0.67676,-3.1582 1.88672,-5.18847 1.20996,-2.03028 3.36328,-2.03028 1.59961,0 2.74805,1.14844 1.16894,1.14844 1.16894,2.74805 0,1.59961 -1.14844,2.74804 -1.14843,1.12793 -2.76855,1.12793 -1.06641,0 -1.88672,-0.51269 -2.56348,2.58398 -2.56348,7.85449 h -3.85546 v -1.76367 q 0,-1.70215 -0.7793,-5.41406 -0.90234,-4.22461 -0.90234,-6.43946 0,-4.45019 2.54296,-7.19824 2.56348,-2.74805 7.32129,-2.74805 9.92578,0 9.92578,10.33594 z m -9.76171,-9.7002 q 0.63574,0 1.08691,-0.45117 0.47168,-0.45117 0.47168,-1.0664 0,-0.67676 -0.45117,-1.12793 -0.45117,-0.47168 -1.10742,-0.47168 -0.63575,0 -1.08692,0.47168 -0.45117,0.45117 -0.45117,1.12793 0,0.61523 0.45117,1.0664 0.47168,0.45117 1.08692,0.45117 z" />
    <path
       id="path113"
       style=""
       d="m 196.29199,132.83203 q 0,2.54297 -1.45605,4.01953 -1.43555,1.47657 -3.87598,1.47657 -1.59961,0 -2.74805,-1.14844 -1.14843,-1.14844 -1.14843,-2.74805 0,-1.59961 1.14843,-2.72754 1.14844,-1.12793 2.74805,-1.12793 0.84082,0 1.47656,0.2461 v -7.52637 q 0,-2.64551 -1.27148,-4.04004 -1.25098,-1.41504 -3.46582,-1.41504 -3.38379,0 -6.93164,2.0918 h -0.2666 v -4.06055 q 3.62988,-1.39453 7.19824,-1.39453 8.59277,0 8.59277,8.57226 z m -5.33203,3.19922 q 0.65625,0 1.10742,-0.45117 0.45117,-0.47168 0.45117,-1.14844 0,-0.61523 -0.47167,-1.06641 -0.45118,-0.45117 -1.08692,-0.45117 -0.63574,0 -1.10742,0.45117 -0.45117,0.45118 -0.45117,1.06641 0,0.67676 0.45117,1.14844 0.47168,0.45117 1.10742,0.45117 z" />
    <path
       id="path115"
       style=""
       d="m 216.63574,138 h -3.85547 v -14.7041 q 0,-2.64551 -1.27148,-4.04004 -1.25098,-1.41504 -3.46582,-1.41504 -3.38379,0 -6.93164,2.0918 h -0.2666 v -4.06055 q 3.62988,-1.39453 7.19824,-1.39453 8.59277,0 8.59277,8.57226 z" />
    <path
       id="path117"
       style=""
       d="m 241.77832,138 h -3.60937 q -3.917,-3.75293 -7.6084,-4.77832 v 0.57422 q 0,2.23535 -1.292,3.38379 -1.27148,1.14844 -3.19921,1.14844 -1.80469,0 -2.93262,-0.98438 -1.10742,-0.98437 -1.10742,-2.625 0,-1.55859 1.23047,-2.74805 1.25097,-1.20996 3.44531,-1.45605 v -8.55176 q -0.63574,0.24609 -1.47656,0.24609 -1.59961,0 -2.76856,-1.12793 -1.14844,-1.14843 -1.14844,-2.72753 0,-1.62012 1.14844,-2.76856 1.16895,-1.14844 2.76856,-1.14844 2.41992,0 3.87597,1.49707 1.45606,1.47657 1.45606,3.99903 v 10.7666 q 3.6914,0.88183 7.34179,3.56836 v -19.19531 h 3.87598 z m -16.5498,-18.14941 q 0.63574,0 1.08691,-0.43067 0.47168,-0.45117 0.47168,-1.0664 0,-0.69727 -0.47168,-1.14844 -0.45117,-0.45117 -1.08691,-0.45117 -0.63575,0 -1.10743,0.47168 -0.45117,0.45117 -0.45117,1.12793 0,0.61523 0.45117,1.0664 0.47168,0.43067 1.10743,0.43067 z m 1.47656,14.58105 v -1.59961 q -1.0459,0.14356 -1.66113,0.69727 -0.61524,0.55371 -0.61524,1.18945 0,0.59473 0.30762,0.96387 0.30762,0.34863 0.7793,0.34863 1.18945,0 1.18945,-1.59961 z" />
    <path
       id="path119"
       style=""
       d="m 258.02051,106.08984 v 37.44727 h -8.69531 v -2.93262 h 4.90136 v -31.58203 h -4.90136 v -2.93262 z" />
  </g>
  <g
     id="text89"
     style="font-size:24px;font-family:sans-serif;text-anchor:middle;fill:#000000"
     aria-label="[MISSING: NeedyVentComponent/button_y]">
    <path
       id="path122"
       style="fill:#ff0000"
       d="m -120.04687,278.76563 h 4.96875 v 1.67578 h -2.8125 v 18.04687 h 2.8125 v 1.67578 h -4.96875 z" />
    <path
       id="path124"
       style="fill:#ff0000"
       d="m -110.37891,279.50391 h 3.52735 l 4.46484,11.90625 4.488282,-11.90625 h 3.527344 V 297 h -2.308594 v -15.36328 l -4.511722,12 h -2.3789 l -4.51172,-12 V 297 h -2.29688 z" />
    <path
       id="path126"
       style="fill:#ff0000"
       d="m -89.660156,279.50391 h 2.367187 V 297 h -2.367187 z" />
    <path
       id="path128"
       style="fill:#ff0000"
       d="m -72.09375,280.07813 v 2.30859 q -1.347656,-0.64453 -2.542969,-0.96094 -1.195312,-0.3164 -2.308594,-0.3164 -1.933593,0 -2.988281,0.75 -1.042969,0.75 -1.042969,2.13281 0,1.16015 0.691407,1.75781 0.703125,0.58594 2.648437,0.94922 l 1.429688,0.29297 q 2.648437,0.5039 3.902343,1.78125 1.265625,1.26562 1.265625,3.39844 0,2.54296 -1.710937,3.85546 -1.699219,1.3125 -4.992188,1.3125 -1.242187,0 -2.648437,-0.28125 -1.394531,-0.28125 -2.894531,-0.83203 v -2.4375 q 1.441406,0.8086 2.824218,1.21875 1.382813,0.41016 2.71875,0.41016 2.027344,0 3.128907,-0.79688 1.101562,-0.79687 1.101562,-2.27343 0,-1.28907 -0.796875,-2.01563 -0.785156,-0.72656 -2.589844,-1.08984 l -1.441406,-0.28125 q -2.648437,-0.52735 -3.832031,-1.65235 -1.183594,-1.125 -1.183594,-3.1289 0,-2.32031 1.628906,-3.65625 1.640625,-1.33594 4.511719,-1.33594 1.230469,0 2.507813,0.22266 1.277343,0.22265 2.613281,0.66797 z" />
    <path
       id="path130"
       style="fill:#ff0000"
       d="m -56.859375,280.07813 v 2.30859 q -1.347656,-0.64453 -2.542969,-0.96094 -1.195312,-0.3164 -2.308594,-0.3164 -1.933593,0 -2.988281,0.75 -1.042969,0.75 -1.042969,2.13281 0,1.16015 0.691407,1.75781 0.703125,0.58594 2.648437,0.94922 l 1.429688,0.29297 q 2.648437,0.5039 3.902343,1.78125 1.265625,1.26562 1.265625,3.39844 0,2.54296 -1.710937,3.85546 -1.699219,1.3125 -4.992188,1.3125 -1.242187,0 -2.648437,-0.28125 -1.394531,-0.28125 -2.894531,-0.83203 v -2.4375 q 1.441406,0.8086 2.824218,1.21875 1.382813,0.41016 2.71875,0.41016 2.027344,0 3.128907,-0.79688 1.101562,-0.79687 1.101562,-2.27343 0,-1.28907 -0.796875,-2.01563 -0.785156,-0.72656 -2.589844,-1.08984 l -1.441406,-0.28125 q -2.648437,-0.52735 -3.832031,-1.65235 -1.183594,-1.125 -1.183594,-3.1289 0,-2.32031 1.628906,-3.65625 1.640625,-1.33594 4.511719,-1.33594 1.230469,0 2.507813,0.22266 1.277343,0.22265 2.613281,0.66797 z" />
    <path
       id="path132"
       style="fill:#ff0000"
       d="m -52.113281,279.50391 h 2.367187 V 297 h -2.367187 z" />
    <path
       id="path134"
       style="fill:#ff0000"
       d="m -45.035156,279.50391 h 3.1875 l 7.757812,14.63672 v -14.63672 h 2.296875 V 297 h -3.1875 l -7.757812,-14.63672 V 297 h -2.296875 z" />
    <path
       id="path136"
       style="fill:#ff0000"
       d="m -15.152344,294.50391 v -4.69922 h -3.867187 v -1.94531 h 6.210937 v 7.51171 q -1.371093,0.97266 -3.023437,1.47657 -1.652344,0.49218 -3.527344,0.49218 -4.101563,0 -6.421875,-2.39062 -2.308594,-2.40234 -2.308594,-6.67969 0,-4.28906 2.308594,-6.67969 2.320312,-2.40234 6.421875,-2.40234 1.710937,0 3.246094,0.42188 1.546875,0.42187 2.847656,1.24218 v 2.51953 q -1.3125,-1.11328 -2.789063,-1.67578 -1.476562,-0.5625 -3.105468,-0.5625 -3.210938,0 -4.828125,1.79297 -1.605469,1.79297 -1.605469,5.34375 0,3.53906 1.605469,5.33203 1.617187,1.79297 4.828125,1.79297 1.253906,0 2.238281,-0.21094 0.984375,-0.22265 1.769531,-0.67968 z" />
    <path
       id="path138"
       style="fill:#ff0000"
       d="m -8.015625,294.02344 h 2.4726562 V 297 H -8.015625 Z m 0,-9.4336 h 2.4726562 v 2.97657 H -8.015625 Z" />
    <path
       id="path140"
       style="fill:#ff0000"
       d="m 7.2773438,279.50391 h 3.1875002 l 7.757812,14.63672 v -14.63672 h 2.296875 V 297 h -3.1875 L 9.5742187,282.36328 V 297 H 7.2773438 Z" />
    <path
       id="path142"
       style="fill:#ff0000"
       d="m 36.363281,289.89844 v 1.05469 h -9.914062 q 0.140625,2.22656 1.335937,3.39843 1.207032,1.16016 3.351563,1.16016 1.242187,0 2.402344,-0.30469 1.171875,-0.30469 2.320312,-0.91406 v 2.03906 q -1.160156,0.49219 -2.378906,0.75 -1.21875,0.25781 -2.472656,0.25781 -3.140625,0 -4.980469,-1.82812 -1.828125,-1.82813 -1.828125,-4.94531 0,-3.22266 1.734375,-5.10938 1.746094,-1.89844 4.699219,-1.89844 2.648437,0 4.183593,1.71094 1.546875,1.69922 1.546875,4.62891 z m -2.15625,-0.63281 q -0.02344,-1.76954 -0.996093,-2.82422 -0.960938,-1.05469 -2.554688,-1.05469 -1.804687,0 -2.894531,1.01953 -1.078125,1.01953 -1.242188,2.87109 z" />
    <path
       id="path144"
       style="fill:#ff0000"
       d="m 51.128906,289.89844 v 1.05469 h -9.914062 q 0.140625,2.22656 1.335937,3.39843 1.207032,1.16016 3.351563,1.16016 1.242187,0 2.402344,-0.30469 1.171875,-0.30469 2.320312,-0.91406 v 2.03906 q -1.160156,0.49219 -2.378906,0.75 -1.21875,0.25781 -2.472656,0.25781 -3.140625,0 -4.980469,-1.82812 -1.828125,-1.82813 -1.828125,-4.94531 0,-3.22266 1.734375,-5.10938 1.746094,-1.89844 4.699219,-1.89844 2.648437,0 4.183593,1.71094 1.546875,1.69922 1.546875,4.62891 z m -2.15625,-0.63281 q -0.02344,-1.76954 -0.996093,-2.82422 -0.960938,-1.05469 -2.554688,-1.05469 -1.804687,0 -2.894531,1.01953 -1.078125,1.01953 -1.242188,2.87109 z" />
    <path
       id="path146"
       style="fill:#ff0000"
       d="m 63.304688,285.86719 v -7.10156 h 2.15625 V 297 h -2.15625 v -1.96875 q -0.679688,1.17188 -1.722657,1.74609 -1.03125,0.5625 -2.484375,0.5625 -2.378906,0 -3.878906,-1.89843 -1.488281,-1.89844 -1.488281,-4.99219 0,-3.09375 1.488281,-4.99219 1.5,-1.89844 3.878906,-1.89844 1.453125,0 2.484375,0.57422 1.042969,0.5625 1.722657,1.73438 z m -7.347657,4.58203 q 0,2.37891 0.972657,3.73828 0.984375,1.34766 2.695312,1.34766 1.710938,0 2.695313,-1.34766 0.984375,-1.35937 0.984375,-3.73828 0,-2.37891 -0.984375,-3.72656 -0.984375,-1.35938 -2.695313,-1.35938 -1.710937,0 -2.695312,1.35938 -0.972657,1.34765 -0.972657,3.72656 z" />
    <path
       id="path148"
       style="fill:#ff0000"
       d="m 75.363281,298.21875 q -0.914062,2.34375 -1.78125,3.05859 -0.867187,0.71485 -2.320312,0.71485 h -1.722656 v -1.80469 h 1.265625 q 0.890625,0 1.382812,-0.42187 0.492188,-0.42188 1.089844,-1.99219 l 0.386719,-0.98438 -5.308594,-12.91406 h 2.285156 l 4.101563,10.26563 4.101562,-10.26563 h 2.285156 z" />
    <path
       id="path150"
       style="fill:#ff0000"
       d="M 88.710938,297 82.03125,279.50391 h 2.472656 l 5.542969,14.73047 5.554688,-14.73047 H 98.0625 L 91.394531,297 Z" />
    <path
       id="path152"
       style="fill:#ff0000"
       d="m 109.86328,289.89844 v 1.05469 h -9.914061 q 0.140621,2.22656 1.335941,3.39843 1.20703,1.16016 3.35156,1.16016 1.24219,0 2.40234,-0.30469 1.17188,-0.30469 2.32031,-0.91406 v 2.03906 q -1.16015,0.49219 -2.3789,0.75 -1.21875,0.25781 -2.47266,0.25781 -3.14062,0 -4.980466,-1.82812 -1.828125,-1.82813 -1.828125,-4.94531 0,-3.22266 1.734375,-5.10938 1.746096,-1.89844 4.699216,-1.89844 2.64844,0 4.1836,1.71094 1.54687,1.69922 1.54687,4.62891 z m -2.15625,-0.63281 q -0.0234,-1.76954 -0.99609,-2.82422 -0.96094,-1.05469 -2.55469,-1.05469 -1.80469,0 -2.89453,1.01953 -1.07813,1.01953 -1.24219,2.87109 z" />
    <path
       id="path154"
       style="fill:#ff0000"
       d="M 124.3125,289.07813 V 297 h -2.15625 v -7.85156 q 0,-1.86328 -0.72656,-2.78906 -0.72657,-0.92579 -2.17969,-0.92579 -1.74609,0 -2.75391,1.11329 -1.00781,1.11328 -1.00781,3.03515 V 297 h -2.16797 v -13.125 h 2.16797 v 2.03906 q 0.77344,-1.18359 1.81641,-1.76953 1.05468,-0.58594 2.42578,-0.58594 2.26172,0 3.42187,1.40625 1.16016,1.39454 1.16016,4.11329 z" />
    <path
       id="path156"
       style="fill:#ff0000"
       d="m 130.76953,280.14844 v 3.72656 h 4.44141 v 1.67578 h -4.44141 v 7.125 q 0,1.60547 0.4336,2.0625 0.44531,0.45703 1.79296,0.45703 h 2.21485 V 297 h -2.21485 q -2.49609,0 -3.44531,-0.92578 -0.94922,-0.9375 -0.94922,-3.39844 v -7.125 h -1.58203 V 283.875 h 1.58203 v -3.72656 z" />
    <path
       id="path158"
       style="fill:#ff0000"
       d="m 151.25391,280.85156 v 2.4961 q -1.19532,-1.11328 -2.55469,-1.66407 -1.34766,-0.55078 -2.87109,-0.55078 -3,0 -4.59375,1.83985 -1.59375,1.82812 -1.59375,5.29687 0,3.45703 1.59375,5.29688 1.59375,1.82812 4.59375,1.82812 1.52343,0 2.87109,-0.55078 1.35937,-0.55078 2.55469,-1.66406 v 2.47265 q -1.24219,0.84375 -2.63672,1.26563 -1.38281,0.42187 -2.92969,0.42187 -3.97266,0 -6.25781,-2.42578 -2.28516,-2.4375 -2.28516,-6.64453 0,-4.21875 2.28516,-6.64453 2.28515,-2.4375 6.25781,-2.4375 1.57031,0 2.95313,0.42188 1.39453,0.41015 2.61328,1.24218 z" />
    <path
       id="path160"
       style="fill:#ff0000"
       d="m 159.92578,285.38672 q -1.73437,0 -2.74219,1.35937 -1.00781,1.34766 -1.00781,3.70313 0,2.35547 0.9961,3.71484 1.00781,1.34766 2.7539,1.34766 1.72266,0 2.73047,-1.35938 1.00781,-1.35937 1.00781,-3.70312 0,-2.33203 -1.00781,-3.69141 -1.00781,-1.37109 -2.73047,-1.37109 z m 0,-1.82813 q 2.8125,0 4.41797,1.82813 1.60547,1.82812 1.60547,5.0625 0,3.22266 -1.60547,5.0625 -1.60547,1.82812 -4.41797,1.82812 -2.82422,0 -4.42969,-1.82812 -1.59375,-1.83984 -1.59375,-5.0625 0,-3.23438 1.59375,-5.0625 1.60547,-1.82813 4.42969,-1.82813 z" />
    <path
       id="path162"
       style="fill:#ff0000"
       d="m 179.73047,286.39453 q 0.80859,-1.45312 1.93359,-2.14453 1.125,-0.69141 2.64844,-0.69141 2.05078,0 3.16406,1.44141 1.11328,1.42969 1.11328,4.07813 V 297 h -2.16796 v -7.85156 q 0,-1.88672 -0.66797,-2.80078 -0.66797,-0.91407 -2.03907,-0.91407 -1.67578,0 -2.64843,1.11329 -0.97266,1.11328 -0.97266,3.03515 V 297 h -2.16797 v -7.85156 q 0,-1.89844 -0.66797,-2.80078 -0.66797,-0.91407 -2.0625,-0.91407 -1.65234,0 -2.625,1.125 -0.97265,1.11329 -0.97265,3.02344 V 297 h -2.16797 v -13.125 h 2.16797 v 2.03906 q 0.73828,-1.20703 1.76953,-1.78125 1.03125,-0.57422 2.44922,-0.57422 1.42968,0 2.42578,0.72657 1.00781,0.72656 1.48828,2.10937 z" />
    <path
       id="path164"
       style="fill:#ff0000"
       d="m 194.98828,295.03125 v 6.96094 h -2.16797 V 283.875 h 2.16797 v 1.99219 q 0.67969,-1.17188 1.71094,-1.73438 1.04297,-0.57422 2.48437,-0.57422 2.39063,0 3.87891,1.89844 1.5,1.89844 1.5,4.99219 0,3.09375 -1.5,4.99219 -1.48828,1.89843 -3.87891,1.89843 -1.4414,0 -2.48437,-0.5625 -1.03125,-0.57421 -1.71094,-1.74609 z m 7.33594,-4.58203 q 0,-2.37891 -0.98438,-3.72656 -0.97265,-1.35938 -2.68359,-1.35938 -1.71094,0 -2.69531,1.35938 -0.97266,1.34765 -0.97266,3.72656 0,2.37891 0.97266,3.73828 0.98437,1.34766 2.69531,1.34766 1.71094,0 2.68359,-1.34766 0.98438,-1.35937 0.98438,-3.73828 z" />
    <path
       id="path166"
       style="fill:#ff0000"
       d="m 213.22266,285.38672 q -1.73438,0 -2.74219,1.35937 -1.00781,1.34766 -1.00781,3.70313 0,2.35547 0.99609,3.71484 1.00781,1.34766 2.75391,1.34766 1.72265,0 2.73047,-1.35938 1.00781,-1.35937 1.00781,-3.70312 0,-2.33203 -1.00781,-3.69141 -1.00782,-1.37109 -2.73047,-1.37109 z m 0,-1.82813 q 2.8125,0 4.41797,1.82813 1.60546,1.82812 1.60546,5.0625 0,3.22266 -1.60546,5.0625 -1.60547,1.82812 -4.41797,1.82812 -2.82422,0 -4.42969,-1.82812 -1.59375,-1.83984 -1.59375,-5.0625 0,-3.23438 1.59375,-5.0625 1.60547,-1.82813 4.42969,-1.82813 z" />
    <path
       id="path168"
       style="fill:#ff0000"
       d="M 233.71875,289.07813 V 297 h -2.15625 v -7.85156 q 0,-1.86328 -0.72656,-2.78906 -0.72656,-0.92579 -2.17969,-0.92579 -1.74609,0 -2.75391,1.11329 -1.00781,1.11328 -1.00781,3.03515 V 297 h -2.16797 v -13.125 h 2.16797 v 2.03906 q 0.77344,-1.18359 1.81641,-1.76953 1.05469,-0.58594 2.42578,-0.58594 2.26172,0 3.42187,1.40625 1.16016,1.39454 1.16016,4.11329 z" />
    <path
       id="path170"
       style="fill:#ff0000"
       d="m 249.26953,289.89844 v 1.05469 h -9.91406 q 0.14062,2.22656 1.33594,3.39843 1.20703,1.16016 3.35156,1.16016 1.24219,0 2.40234,-0.30469 1.17188,-0.30469 2.32032,-0.91406 v 2.03906 q -1.16016,0.49219 -2.37891,0.75 -1.21875,0.25781 -2.47266,0.25781 -3.14062,0 -4.98047,-1.82812 -1.82812,-1.82813 -1.82812,-4.94531 0,-3.22266 1.73437,-5.10938 1.7461,-1.89844 4.69922,-1.89844 2.64844,0 4.1836,1.71094 1.54687,1.69922 1.54687,4.62891 z m -2.15625,-0.63281 q -0.0234,-1.76954 -0.99609,-2.82422 -0.96094,-1.05469 -2.55469,-1.05469 -1.80469,0 -2.89453,1.01953 -1.07813,1.01953 -1.24219,2.87109 z" />
    <path
       id="path172"
       style="fill:#ff0000"
       d="M 263.71875,289.07813 V 297 h -2.15625 v -7.85156 q 0,-1.86328 -0.72656,-2.78906 -0.72656,-0.92579 -2.17969,-0.92579 -1.74609,0 -2.75391,1.11329 -1.00781,1.11328 -1.00781,3.03515 V 297 h -2.16797 v -13.125 h 2.16797 v 2.03906 q 0.77344,-1.18359 1.81641,-1.76953 1.05469,-0.58594 2.42578,-0.58594 2.26172,0 3.42187,1.40625 1.16016,1.39454 1.16016,4.11329 z" />
    <path
       id="path174"
       style="fill:#ff0000"
       d="m 270.17578,280.14844 v 3.72656 h 4.44141 v 1.67578 h -4.44141 v 7.125 q 0,1.60547 0.4336,2.0625 0.44531,0.45703 1.79296,0.45703 h 2.21485 V 297 h -2.21485 q -2.49609,0 -3.44531,-0.92578 -0.94922,-0.9375 -0.94922,-3.39844 v -7.125 h -1.58203 V 283.875 h 1.58203 v -3.72656 z" />
    <path
       id="path176"
       style="fill:#ff0000"
       d="m 281.29688,279.50391 h 1.99218 l -6.09375,19.72265 h -1.99218 z" />
    <path
       id="path178"
       style="fill:#ff0000"
       d="m 294.99609,290.44922 q 0,-2.37891 -0.98437,-3.72656 -0.97266,-1.35938 -2.68359,-1.35938 -1.71094,0 -2.69532,1.35938 -0.97265,1.34765 -0.97265,3.72656 0,2.37891 0.97265,3.73828 0.98438,1.34766 2.69532,1.34766 1.71093,0 2.68359,-1.34766 0.98437,-1.35937 0.98437,-3.73828 z m -7.33593,-4.58203 q 0.67968,-1.17188 1.71093,-1.73438 1.04297,-0.57422 2.48438,-0.57422 2.39062,0 3.87891,1.89844 1.5,1.89844 1.5,4.99219 0,3.09375 -1.5,4.99219 -1.48829,1.89843 -3.87891,1.89843 -1.44141,0 -2.48438,-0.5625 -1.03125,-0.57421 -1.71093,-1.74609 V 297 h -2.16797 v -18.23437 h 2.16797 z" />
    <path
       id="path180"
       style="fill:#ff0000"
       d="M 300.58594,291.82031 V 283.875 h 2.15625 v 7.86328 q 0,1.86328 0.72656,2.80078 0.72656,0.92578 2.17969,0.92578 1.74609,0 2.7539,-1.11328 1.01954,-1.11328 1.01954,-3.03515 V 283.875 h 2.15625 V 297 h -2.15625 v -2.01562 q -0.78516,1.19531 -1.82813,1.78125 -1.03125,0.57421 -2.40234,0.57421 -2.26172,0 -3.4336,-1.40625 -1.17187,-1.40625 -1.17187,-4.11328 z m 5.42578,-8.26172 z" />
    <path
       id="path182"
       style="fill:#ff0000"
       d="m 318.17578,280.14844 v 3.72656 h 4.44141 v 1.67578 h -4.44141 v 7.125 q 0,1.60547 0.4336,2.0625 0.44531,0.45703 1.79296,0.45703 h 2.21485 V 297 h -2.21485 q -2.49609,0 -3.44531,-0.92578 -0.94922,-0.9375 -0.94922,-3.39844 v -7.125 h -1.58203 V 283.875 h 1.58203 v -3.72656 z" />
    <path
       id="path184"
       style="fill:#ff0000"
       d="m 327.59766,280.14844 v 3.72656 h 4.4414 v 1.67578 h -4.4414 v 7.125 q 0,1.60547 0.43359,2.0625 0.44531,0.45703 1.79297,0.45703 h 2.21484 V 297 h -2.21484 q -2.49609,0 -3.44531,-0.92578 -0.94922,-0.9375 -0.94922,-3.39844 v -7.125 h -1.58203 V 283.875 h 1.58203 v -3.72656 z" />
    <path
       id="path186"
       style="fill:#ff0000"
       d="m 339.97266,285.38672 q -1.73438,0 -2.74219,1.35937 -1.00781,1.34766 -1.00781,3.70313 0,2.35547 0.99609,3.71484 1.00781,1.34766 2.75391,1.34766 1.72265,0 2.73047,-1.35938 1.00781,-1.35937 1.00781,-3.70312 0,-2.33203 -1.00781,-3.69141 -1.00782,-1.37109 -2.73047,-1.37109 z m 0,-1.82813 q 2.8125,0 4.41797,1.82813 1.60546,1.82812 1.60546,5.0625 0,3.22266 -1.60546,5.0625 -1.60547,1.82812 -4.41797,1.82812 -2.82422,0 -4.42969,-1.82812 -1.59375,-1.83984 -1.59375,-5.0625 0,-3.23438 1.59375,-5.0625 1.60547,-1.82813 4.42969,-1.82813 z" />
    <path
       id="path188"
       style="fill:#ff0000"
       d="M 360.46875,289.07813 V 297 h -2.15625 v -7.85156 q 0,-1.86328 -0.72656,-2.78906 -0.72656,-0.92579 -2.17969,-0.92579 -1.74609,0 -2.75391,1.11329 -1.00781,1.11328 -1.00781,3.03515 V 297 h -2.16797 v -13.125 h 2.16797 v 2.03906 q 0.77344,-1.18359 1.81641,-1.76953 1.05469,-0.58594 2.42578,-0.58594 2.26172,0 3.42187,1.40625 1.16016,1.39454 1.16016,4.11329 z" />
    <path
       id="path190"
       style="fill:#ff0000"
       d="m 374.76563,300.98438 v 1.67578 h -12.46875 v -1.67578 z" />
    <path
       id="path192"
       style="fill:#ff0000"
       d="m 382.25391,298.21875 q -0.91407,2.34375 -1.78125,3.05859 -0.86719,0.71485 -2.32032,0.71485 h -1.72265 v -1.80469 h 1.26562 q 0.89063,0 1.38282,-0.42187 0.49218,-0.42188 1.08984,-1.99219 l 0.38672,-0.98438 -5.3086,-12.91406 h 2.28516 l 4.10156,10.26563 4.10157,-10.26563 h 2.28515 z" />
    <path
       id="path194"
       style="fill:#ff0000"
       d="m 396.03516,278.76563 v 21.39843 h -4.96875 v -1.67578 h 2.80078 v -18.04687 h -2.80078 v -1.67578 z" />
  </g>
  <g
     id="text93"
     style="font-size:24px;font-family:sans-serif;text-anchor:middle;fill:#000000"
     aria-label="[MISSING: NeedyVentComponent/button_n]">
    <path
       id="path197"
       style="fill:#ff0000"
       d="m -50.5625,278.76563 h 4.96875 v 1.67578 h -2.8125 v 18.04687 h 2.8125 v 1.67578 h -4.96875 z" />
    <path
       id="path199"
       style="fill:#ff0000"
       d="m -40.894531,279.50391 h 3.527343 l 4.464844,11.90625 4.488281,-11.90625 h 3.527344 V 297 h -2.308594 v -15.36328 l -4.511718,12 h -2.378907 l -4.511718,-12 V 297 h -2.296875 z" />
    <path
       id="path201"
       style="fill:#ff0000"
       d="m -20.175781,279.50391 h 2.367187 V 297 h -2.367187 z" />
    <path
       id="path203"
       style="fill:#ff0000"
       d="m -2.609375,280.07813 v 2.30859 q -1.3476562,-0.64453 -2.5429688,-0.96094 -1.1953125,-0.3164 -2.3085937,-0.3164 -1.9335937,0 -2.9882815,0.75 -1.042968,0.75 -1.042968,2.13281 0,1.16015 0.691406,1.75781 0.703125,0.58594 2.6484373,0.94922 l 1.4296874,0.29297 q 2.6484375,0.5039 3.9023438,1.78125 1.265625,1.26562 1.265625,3.39844 0,2.54296 -1.7109375,3.85546 -1.6992188,1.3125 -4.9921875,1.3125 -1.2421875,0 -2.6484375,-0.28125 -1.394531,-0.28125 -2.894531,-0.83203 v -2.4375 q 1.441406,0.8086 2.824219,1.21875 1.382812,0.41016 2.7187495,0.41016 2.0273437,0 3.1289062,-0.79688 1.1015625,-0.79687 1.1015625,-2.27343 0,-1.28907 -0.796875,-2.01563 -0.7851562,-0.72656 -2.5898437,-1.08984 l -1.4414062,-0.28125 q -2.6484373,-0.52735 -3.8320313,-1.65235 -1.183594,-1.125 -1.183594,-3.1289 0,-2.32031 1.628907,-3.65625 1.640625,-1.33594 4.5117182,-1.33594 1.2304688,0 2.5078125,0.22266 1.2773438,0.22265 2.6132813,0.66797 z" />
    <path
       id="path205"
       style="fill:#ff0000"
       d="m 12.625,280.07813 v 2.30859 q -1.347656,-0.64453 -2.542969,-0.96094 -1.1953123,-0.3164 -2.3085935,-0.3164 -1.9335937,0 -2.9882812,0.75 -1.0429688,0.75 -1.0429688,2.13281 0,1.16015 0.6914063,1.75781 0.703125,0.58594 2.6484375,0.94922 l 1.4296874,0.29297 q 2.6484373,0.5039 3.9023433,1.78125 1.265625,1.26562 1.265625,3.39844 0,2.54296 -1.710937,3.85546 -1.699219,1.3125 -4.9921875,1.3125 -1.2421875,0 -2.6484375,-0.28125 -1.3945313,-0.28125 -2.8945312,-0.83203 v -2.4375 q 1.4414062,0.8086 2.8242187,1.21875 1.3828125,0.41016 2.71875,0.41016 2.0273437,0 3.1289065,-0.79688 1.101562,-0.79687 1.101562,-2.27343 0,-1.28907 -0.796875,-2.01563 Q 9.625,289.60547 7.8203125,289.24219 l -1.4414062,-0.28125 q -2.6484376,-0.52735 -3.8320313,-1.65235 -1.1835937,-1.125 -1.1835937,-3.1289 0,-2.32031 1.6289062,-3.65625 1.640625,-1.33594 4.5117188,-1.33594 1.2304687,0 2.5078127,0.22266 1.277343,0.22265 2.613281,0.66797 z" />
    <path
       id="path207"
       style="fill:#ff0000"
       d="m 17.371094,279.50391 h 2.367187 V 297 h -2.367187 z" />
    <path
       id="path209"
       style="fill:#ff0000"
       d="m 24.449219,279.50391 h 3.1875 l 7.757812,14.63672 v -14.63672 h 2.296875 V 297 h -3.1875 L 26.746094,282.36328 V 297 h -2.296875 z" />
    <path
       id="path211"
       style="fill:#ff0000"
       d="m 54.332031,294.50391 v -4.69922 h -3.867187 v -1.94531 h 6.210937 v 7.51171 q -1.371093,0.97266 -3.023437,1.47657 Q 52,297.33984 50.125,297.33984 q -4.101562,0 -6.421875,-2.39062 -2.308594,-2.40234 -2.308594,-6.67969 0,-4.28906 2.308594,-6.67969 2.320313,-2.40234 6.421875,-2.40234 1.710938,0 3.246094,0.42188 1.546875,0.42187 2.847656,1.24218 v 2.51953 q -1.3125,-1.11328 -2.789062,-1.67578 -1.476563,-0.5625 -3.105469,-0.5625 -3.210938,0 -4.828125,1.79297 -1.605469,1.79297 -1.605469,5.34375 0,3.53906 1.605469,5.33203 1.617187,1.79297 4.828125,1.79297 1.253906,0 2.238281,-0.21094 0.984375,-0.22265 1.769531,-0.67968 z" />
    <path
       id="path213"
       style="fill:#ff0000"
       d="m 61.46875,294.02344 h 2.472656 V 297 H 61.46875 Z m 0,-9.4336 h 2.472656 v 2.97657 H 61.46875 Z" />
    <path
       id="path215"
       style="fill:#ff0000"
       d="m 76.761719,279.50391 h 3.1875 l 7.757812,14.63672 v -14.63672 h 2.296875 V 297 h -3.1875 L 79.058594,282.36328 V 297 h -2.296875 z" />
    <path
       id="path217"
       style="fill:#ff0000"
       d="m 105.84766,289.89844 v 1.05469 h -9.914066 q 0.140625,2.22656 1.335937,3.39843 1.207032,1.16016 3.351559,1.16016 1.24219,0 2.40235,-0.30469 1.17187,-0.30469 2.32031,-0.91406 v 2.03906 q -1.16016,0.49219 -2.37891,0.75 -1.21875,0.25781 -2.47265,0.25781 -3.140627,0 -4.980471,-1.82812 -1.828125,-1.82813 -1.828125,-4.94531 0,-3.22266 1.734375,-5.10938 1.746094,-1.89844 4.699221,-1.89844 2.64843,0 4.18359,1.71094 1.54688,1.69922 1.54688,4.62891 z m -2.15625,-0.63281 q -0.0234,-1.76954 -0.9961,-2.82422 -0.96094,-1.05469 -2.55469,-1.05469 -1.804682,0 -2.894526,1.01953 -1.078125,1.01953 -1.242188,2.87109 z" />
    <path
       id="path219"
       style="fill:#ff0000"
       d="m 120.61328,289.89844 v 1.05469 h -9.91406 q 0.14062,2.22656 1.33594,3.39843 1.20703,1.16016 3.35156,1.16016 1.24219,0 2.40234,-0.30469 1.17188,-0.30469 2.32031,-0.91406 v 2.03906 q -1.16015,0.49219 -2.3789,0.75 -1.21875,0.25781 -2.47266,0.25781 -3.14062,0 -4.98047,-1.82812 -1.82812,-1.82813 -1.82812,-4.94531 0,-3.22266 1.73437,-5.10938 1.7461,-1.89844 4.69922,-1.89844 2.64844,0 4.1836,1.71094 1.54687,1.69922 1.54687,4.62891 z m -2.15625,-0.63281 q -0.0234,-1.76954 -0.99609,-2.82422 -0.96094,-1.05469 -2.55469,-1.05469 -1.80469,0 -2.89453,1.01953 -1.07813,1.01953 -1.24219,2.87109 z" />
    <path
       id="path221"
       style="fill:#ff0000"
       d="m 132.78906,285.86719 v -7.10156 h 2.15625 V 297 h -2.15625 v -1.96875 q -0.67968,1.17188 -1.72265,1.74609 -1.03125,0.5625 -2.48438,0.5625 -2.37891,0 -3.87891,-1.89843 -1.48828,-1.89844 -1.48828,-4.99219 0,-3.09375 1.48828,-4.99219 1.5,-1.89844 3.87891,-1.89844 1.45313,0 2.48438,0.57422 1.04297,0.5625 1.72265,1.73438 z m -7.34765,4.58203 q 0,2.37891 0.97265,3.73828 0.98438,1.34766 2.69532,1.34766 1.71093,0 2.69531,-1.34766 0.98437,-1.35937 0.98437,-3.73828 0,-2.37891 -0.98437,-3.72656 -0.98438,-1.35938 -2.69531,-1.35938 -1.71094,0 -2.69532,1.35938 -0.97265,1.34765 -0.97265,3.72656 z" />
    <path
       id="path223"
       style="fill:#ff0000"
       d="m 144.84766,298.21875 q -0.91407,2.34375 -1.78125,3.05859 -0.86719,0.71485 -2.32032,0.71485 h -1.72265 v -1.80469 h 1.26562 q 0.89063,0 1.38282,-0.42187 0.49218,-0.42188 1.08984,-1.99219 l 0.38672,-0.98438 -5.3086,-12.91406 h 2.28516 l 4.10156,10.26563 4.10157,-10.26563 h 2.28515 z" />
    <path
       id="path225"
       style="fill:#ff0000"
       d="m 158.19531,297 -6.67968,-17.49609 h 2.47265 l 5.54297,14.73047 5.55469,-14.73047 h 2.46094 L 160.87891,297 Z" />
    <path
       id="path227"
       style="fill:#ff0000"
       d="m 179.34766,289.89844 v 1.05469 h -9.91407 q 0.14063,2.22656 1.33594,3.39843 1.20703,1.16016 3.35156,1.16016 1.24219,0 2.40235,-0.30469 1.17187,-0.30469 2.32031,-0.91406 v 2.03906 q -1.16016,0.49219 -2.37891,0.75 -1.21875,0.25781 -2.47265,0.25781 -3.14063,0 -4.98047,-1.82812 -1.82813,-1.82813 -1.82813,-4.94531 0,-3.22266 1.73438,-5.10938 1.74609,-1.89844 4.69922,-1.89844 2.64844,0 4.18359,1.71094 1.54688,1.69922 1.54688,4.62891 z m -2.15625,-0.63281 q -0.0234,-1.76954 -0.9961,-2.82422 -0.96093,-1.05469 -2.55468,-1.05469 -1.80469,0 -2.89454,1.01953 -1.07812,1.01953 -1.24218,2.87109 z" />
    <path
       id="path229"
       style="fill:#ff0000"
       d="M 193.79688,289.07813 V 297 h -2.15625 v -7.85156 q 0,-1.86328 -0.72657,-2.78906 -0.72656,-0.92579 -2.17968,-0.92579 -1.7461,0 -2.75391,1.11329 -1.00781,1.11328 -1.00781,3.03515 V 297 h -2.16797 v -13.125 h 2.16797 v 2.03906 q 0.77343,-1.18359 1.8164,-1.76953 1.05469,-0.58594 2.42578,-0.58594 2.26172,0 3.42188,1.40625 1.16016,1.39454 1.16016,4.11329 z" />
    <path
       id="path231"
       style="fill:#ff0000"
       d="m 200.25391,280.14844 v 3.72656 h 4.4414 v 1.67578 h -4.4414 v 7.125 q 0,1.60547 0.43359,2.0625 0.44531,0.45703 1.79297,0.45703 h 2.21484 V 297 h -2.21484 q -2.49609,0 -3.44531,-0.92578 -0.94922,-0.9375 -0.94922,-3.39844 v -7.125 h -1.58203 V 283.875 h 1.58203 v -3.72656 z" />
    <path
       id="path233"
       style="fill:#ff0000"
       d="m 220.73828,280.85156 v 2.4961 q -1.19531,-1.11328 -2.55469,-1.66407 -1.34765,-0.55078 -2.87109,-0.55078 -3,0 -4.59375,1.83985 -1.59375,1.82812 -1.59375,5.29687 0,3.45703 1.59375,5.29688 1.59375,1.82812 4.59375,1.82812 1.52344,0 2.87109,-0.55078 1.35938,-0.55078 2.55469,-1.66406 v 2.47265 q -1.24219,0.84375 -2.63672,1.26563 -1.38281,0.42187 -2.92968,0.42187 -3.97266,0 -6.25782,-2.42578 -2.28515,-2.4375 -2.28515,-6.64453 0,-4.21875 2.28515,-6.64453 2.28516,-2.4375 6.25782,-2.4375 1.57031,0 2.95312,0.42188 1.39453,0.41015 2.61328,1.24218 z" />
    <path
       id="path235"
       style="fill:#ff0000"
       d="m 229.41016,285.38672 q -1.73438,0 -2.74219,1.35937 -1.00781,1.34766 -1.00781,3.70313 0,2.35547 0.99609,3.71484 1.00781,1.34766 2.75391,1.34766 1.72265,0 2.73047,-1.35938 1.00781,-1.35937 1.00781,-3.70312 0,-2.33203 -1.00781,-3.69141 -1.00782,-1.37109 -2.73047,-1.37109 z m 0,-1.82813 q 2.8125,0 4.41797,1.82813 1.60546,1.82812 1.60546,5.0625 0,3.22266 -1.60546,5.0625 -1.60547,1.82812 -4.41797,1.82812 -2.82422,0 -4.42969,-1.82812 -1.59375,-1.83984 -1.59375,-5.0625 0,-3.23438 1.59375,-5.0625 1.60547,-1.82813 4.42969,-1.82813 z" />
    <path
       id="path237"
       style="fill:#ff0000"
       d="m 249.21484,286.39453 q 0.8086,-1.45312 1.9336,-2.14453 1.125,-0.69141 2.64844,-0.69141 2.05078,0 3.16406,1.44141 1.11328,1.42969 1.11328,4.07813 V 297 h -2.16797 v -7.85156 q 0,-1.88672 -0.66797,-2.80078 -0.66797,-0.91407 -2.03906,-0.91407 -1.67578,0 -2.64844,1.11329 -0.97265,1.11328 -0.97265,3.03515 V 297 h -2.16797 v -7.85156 q 0,-1.89844 -0.66797,-2.80078 -0.66797,-0.91407 -2.0625,-0.91407 -1.65235,0 -2.625,1.125 -0.97266,1.11329 -0.97266,3.02344 V 297 h -2.16797 v -13.125 h 2.16797 v 2.03906 q 0.73828,-1.20703 1.76953,-1.78125 1.03125,-0.57422 2.44922,-0.57422 1.42969,0 2.42578,0.72657 1.00782,0.72656 1.48828,2.10937 z" />
    <path
       id="path239"
       style="fill:#ff0000"
       d="m 264.47266,295.03125 v 6.96094 h -2.16797 V 283.875 h 2.16797 v 1.99219 q 0.67968,-1.17188 1.71093,-1.73438 1.04297,-0.57422 2.48438,-0.57422 2.39062,0 3.87891,1.89844 1.5,1.89844 1.5,4.99219 0,3.09375 -1.5,4.99219 -1.48829,1.89843 -3.87891,1.89843 -1.44141,0 -2.48438,-0.5625 -1.03125,-0.57421 -1.71093,-1.74609 z m 7.33593,-4.58203 q 0,-2.37891 -0.98437,-3.72656 -0.97266,-1.35938 -2.68359,-1.35938 -1.71094,0 -2.69532,1.35938 -0.97265,1.34765 -0.97265,3.72656 0,2.37891 0.97265,3.73828 0.98438,1.34766 2.69532,1.34766 1.71093,0 2.68359,-1.34766 0.98437,-1.35937 0.98437,-3.73828 z" />
    <path
       id="path241"
       style="fill:#ff0000"
       d="m 282.70703,285.38672 q -1.73437,0 -2.74219,1.35937 -1.00781,1.34766 -1.00781,3.70313 0,2.35547 0.9961,3.71484 1.00781,1.34766 2.7539,1.34766 1.72266,0 2.73047,-1.35938 1.00781,-1.35937 1.00781,-3.70312 0,-2.33203 -1.00781,-3.69141 -1.00781,-1.37109 -2.73047,-1.37109 z m 0,-1.82813 q 2.8125,0 4.41797,1.82813 1.60547,1.82812 1.60547,5.0625 0,3.22266 -1.60547,5.0625 -1.60547,1.82812 -4.41797,1.82812 -2.82422,0 -4.42969,-1.82812 -1.59375,-1.83984 -1.59375,-5.0625 0,-3.23438 1.59375,-5.0625 1.60547,-1.82813 4.42969,-1.82813 z" />
    <path
       id="path243"
       style="fill:#ff0000"
       d="M 303.20313,289.07813 V 297 h -2.15625 v -7.85156 q 0,-1.86328 -0.72657,-2.78906 -0.72656,-0.92579 -2.17968,-0.92579 -1.7461,0 -2.75391,1.11329 -1.00781,1.11328 -1.00781,3.03515 V 297 h -2.16797 v -13.125 h 2.16797 v 2.03906 q 0.77343,-1.18359 1.8164,-1.76953 1.05469,-0.58594 2.42578,-0.58594 2.26172,0 3.42188,1.40625 1.16016,1.39454 1.16016,4.11329 z" />
    <path
       id="path245"
       style="fill:#ff0000"
       d="m 318.75391,289.89844 v 1.05469 h -9.91407 q 0.14063,2.22656 1.33594,3.39843 1.20703,1.16016 3.35156,1.16016 1.24219,0 2.40235,-0.30469 1.17187,-0.30469 2.32031,-0.91406 v 2.03906 q -1.16016,0.49219 -2.37891,0.75 -1.21875,0.25781 -2.47265,0.25781 -3.14063,0 -4.98047,-1.82812 -1.82813,-1.82813 -1.82813,-4.94531 0,-3.22266 1.73438,-5.10938 1.74609,-1.89844 4.69922,-1.89844 2.64844,0 4.18359,1.71094 1.54688,1.69922 1.54688,4.62891 z m -2.15625,-0.63281 q -0.0234,-1.76954 -0.9961,-2.82422 -0.96093,-1.05469 -2.55468,-1.05469 -1.80469,0 -2.89454,1.01953 -1.07812,1.01953 -1.24218,2.87109 z" />
    <path
       id="path247"
       style="fill:#ff0000"
       d="M 333.20313,289.07813 V 297 h -2.15625 v -7.85156 q 0,-1.86328 -0.72657,-2.78906 -0.72656,-0.92579 -2.17968,-0.92579 -1.7461,0 -2.75391,1.11329 -1.00781,1.11328 -1.00781,3.03515 V 297 h -2.16797 v -13.125 h 2.16797 v 2.03906 q 0.77343,-1.18359 1.8164,-1.76953 1.05469,-0.58594 2.42578,-0.58594 2.26172,0 3.42188,1.40625 1.16016,1.39454 1.16016,4.11329 z" />
    <path
       id="path249"
       style="fill:#ff0000"
       d="m 339.66016,280.14844 v 3.72656 h 4.4414 v 1.67578 h -4.4414 v 7.125 q 0,1.60547 0.43359,2.0625 0.44531,0.45703 1.79297,0.45703 h 2.21484 V 297 h -2.21484 q -2.49609,0 -3.44531,-0.92578 -0.94922,-0.9375 -0.94922,-3.39844 v -7.125 h -1.58203 V 283.875 h 1.58203 v -3.72656 z" />
    <path
       id="path251"
       style="fill:#ff0000"
       d="m 350.78125,279.50391 h 1.99219 l -6.09375,19.72265 h -1.99219 z" />
    <path
       id="path253"
       style="fill:#ff0000"
       d="m 364.48047,290.44922 q 0,-2.37891 -0.98438,-3.72656 -0.97265,-1.35938 -2.68359,-1.35938 -1.71094,0 -2.69531,1.35938 -0.97266,1.34765 -0.97266,3.72656 0,2.37891 0.97266,3.73828 0.98437,1.34766 2.69531,1.34766 1.71094,0 2.68359,-1.34766 0.98438,-1.35937 0.98438,-3.73828 z m -7.33594,-4.58203 q 0.67969,-1.17188 1.71094,-1.73438 1.04297,-0.57422 2.48437,-0.57422 2.39063,0 3.87891,1.89844 1.5,1.89844 1.5,4.99219 0,3.09375 -1.5,4.99219 -1.48828,1.89843 -3.87891,1.89843 -1.4414,0 -2.48437,-0.5625 -1.03125,-0.57421 -1.71094,-1.74609 V 297 h -2.16797 v -18.23437 h 2.16797 z" />
    <path
       id="path255"
       style="fill:#ff0000"
       d="M 370.07031,291.82031 V 283.875 h 2.15625 v 7.86328 q 0,1.86328 0.72657,2.80078 0.72656,0.92578 2.17968,0.92578 1.7461,0 2.75391,-1.11328 1.01953,-1.11328 1.01953,-3.03515 V 283.875 h 2.15625 V 297 h -2.15625 v -2.01562 q -0.78516,1.19531 -1.82812,1.78125 -1.03125,0.57421 -2.40235,0.57421 -2.26172,0 -3.43359,-1.40625 -1.17188,-1.40625 -1.17188,-4.11328 z m 5.42578,-8.26172 z" />
    <path
       id="path257"
       style="fill:#ff0000"
       d="m 387.66016,280.14844 v 3.72656 h 4.4414 v 1.67578 h -4.4414 v 7.125 q 0,1.60547 0.43359,2.0625 0.44531,0.45703 1.79297,0.45703 h 2.21484 V 297 h -2.21484 q -2.49609,0 -3.44531,-0.92578 -0.94922,-0.9375 -0.94922,-3.39844 v -7.125 h -1.58203 V 283.875 h 1.58203 v -3.72656 z" />
    <path
       id="path259"
       style="fill:#ff0000"
       d="m 397.08203,280.14844 v 3.72656 h 4.44141 v 1.67578 h -4.44141 v 7.125 q 0,1.60547 0.4336,2.0625 0.44531,0.45703 1.79296,0.45703 h 2.21485 V 297 h -2.21485 q -2.49609,0 -3.44531,-0.92578 -0.94922,-0.9375 -0.94922,-3.39844 v -7.125 h -1.58203 V 283.875 h 1.58203 v -3.72656 z" />
    <path
       id="path261"
       style="fill:#ff0000"
       d="m 409.45703,285.38672 q -1.73437,0 -2.74219,1.35937 -1.00781,1.34766 -1.00781,3.70313 0,2.35547 0.9961,3.71484 1.00781,1.34766 2.7539,1.34766 1.72266,0 2.73047,-1.35938 1.00781,-1.35937 1.00781,-3.70312 0,-2.33203 -1.00781,-3.69141 -1.00781,-1.37109 -2.73047,-1.37109 z m 0,-1.82813 q 2.8125,0 4.41797,1.82813 1.60547,1.82812 1.60547,5.0625 0,3.22266 -1.60547,5.0625 -1.60547,1.82812 -4.41797,1.82812 -2.82422,0 -4.42969,-1.82812 -1.59375,-1.83984 -1.59375,-5.0625 0,-3.23438 1.59375,-5.0625 1.60547,-1.82813 4.42969,-1.82813 z" />
    <path
       id="path263"
       style="fill:#ff0000"
       d="M 429.95313,289.07813 V 297 h -2.15625 v -7.85156 q 0,-1.86328 -0.72657,-2.78906 -0.72656,-0.92579 -2.17968,-0.92579 -1.7461,0 -2.75391,1.11329 -1.00781,1.11328 -1.00781,3.03515 V 297 h -2.16797 v -13.125 h 2.16797 v 2.03906 q 0.77343,-1.18359 1.8164,-1.76953 1.05469,-0.58594 2.42578,-0.58594 2.26172,0 3.42188,1.40625 1.16016,1.39454 1.16016,4.11329 z" />
    <path
       id="path265"
       style="fill:#ff0000"
       d="m 444.25,300.98438 v 1.67578 h -12.46875 v -1.67578 z" />
    <path
       id="path267"
       style="fill:#ff0000"
       d="M 457.1875,289.07813 V 297 h -2.15625 v -7.85156 q 0,-1.86328 -0.72656,-2.78906 -0.72656,-0.92579 -2.17969,-0.92579 -1.74609,0 -2.75391,1.11329 -1.00781,1.11328 -1.00781,3.03515 V 297 h -2.16797 v -13.125 h 2.16797 v 2.03906 q 0.77344,-1.18359 1.81641,-1.76953 1.05469,-0.58594 2.42578,-0.58594 2.26172,0 3.42187,1.40625 1.16016,1.39454 1.16016,4.11329 z" />
    <path
       id="path269"
       style="fill:#ff0000"
       d="m 466.55078,278.76563 v 21.39843 h -4.96875 v -1.67578 h 2.80078 v -18.04687 h -2.80078 v -1.67578 z" />
  </g>
</svg>
