<?xml version="1.0" encoding="UTF-8" standalone="no"?>
<svg
   xmlns:dc="http://purl.org/dc/elements/1.1/"
   xmlns:cc="http://creativecommons.org/ns#"
   xmlns:rdf="http://www.w3.org/1999/02/22-rdf-syntax-ns#"
   xmlns:svg="http://www.w3.org/2000/svg"
   xmlns="http://www.w3.org/2000/svg"
   id="svg111"
   stroke-miterlimit="10"
   stroke-linecap="square"
   stroke="none"
   fill="none"
   viewBox="0.0 0.0 348.0 348.0"
   version="1.1">
  <metadata
     id="metadata117">
    <rdf:RDF>
      <cc:Work
         rdf:about="">
        <dc:format>image/svg+xml</dc:format>
        <dc:type
           rdf:resource="http://purl.org/dc/dcmitype/StillImage" />
      </cc:Work>
    </rdf:RDF>
  </metadata>
  <defs
     id="defs115" />
  <clipPath
     id="p.0">
    <path
       id="path2"
       clip-rule="nonzero"
       d="m0 0l348.0 0l0 348.0l-348.0 0l0 -348.0z" />
  </clipPath>
  <g
     id="g85"
     clip-path="url(#p.0)">
    <path
       id="path5"
       fill-rule="evenodd"
       d="M 0,0 H 348 V 348 H 0 Z"
       fill-opacity="0"
       fill="#000000" />
    <path
       id="path7"
       fill-rule="evenodd"
       d="M -6,0 H 348.01575 V 347.9685 H -6 Z"
       fill="#ffffff" />
    <path
       id="path9"
       fill-rule="evenodd"
       d="m 5.07874,5.7758217 h 336.9134 V 343.4451 H 5.07874 Z"
       fill-opacity="0"
       fill="#000000" />
    <path
       id="path11"
       fill-rule="evenodd"
       d="m 5.07874,5.7758217 h 336.9134 V 343.4451 H 5.07874 Z"
       stroke-linecap="butt"
       stroke-linejoin="round"
       stroke-width="2"
       stroke="#000000" />
    <path
       id="path13"
       fill-rule="evenodd"
       d="m 282.73444,40.553925 v 0 c 0,-8.375591 6.96603,-15.165352 15.55905,-15.165352 v 0 c 4.12653,0 8.08402,1.597773 11.00192,4.441828 2.91788,2.844057 4.55713,6.701422 4.55713,10.723524 v 0 c 0,8.375595 -6.966,15.165356 -15.55905,15.165356 v 0 c -8.59302,0 -15.55905,-6.789761 -15.55905,-15.165356 z"
       fill="#ffffff" />
    <path
       id="path15"
       fill-rule="evenodd"
       d="m 282.73444,40.553925 v 0 c 0,-8.375591 6.96603,-15.165352 15.55905,-15.165352 v 0 c 4.12653,0 8.08402,1.597773 11.00192,4.441828 2.91788,2.844057 4.55713,6.701422 4.55713,10.723524 v 0 c 0,8.375595 -6.966,15.165356 -15.55905,15.165356 v 0 c -8.59302,0 -15.55905,-6.789761 -15.55905,-15.165356 z"
       stroke-linecap="butt"
       stroke-linejoin="round"
       stroke-width="2"
       stroke="#000000" />
    <path
       id="path17"
       fill-rule="evenodd"
       d="M 50.949955,90.04964 60.41452,72.726802 69.879089,90.04964 Z"
       fill="#000000" />
    <path
       id="path19"
       fill-rule="evenodd"
       d="M 50.949955,90.04964 60.41452,72.726802 69.879089,90.04964 Z"
       stroke-linecap="butt"
       stroke-linejoin="round"
       stroke-width="2"
       stroke="#000000" />
    <path
       id="path21"
       fill-rule="evenodd"
       d="m 122.04724,268.00525 h 97.92126 v 41.88977 h -97.92126 z"
       fill-opacity="0"
       fill="#000000" />
    <path
       id="path23"
       fill-rule="evenodd"
       d="m 122.04724,268.00525 h 97.92126 v 41.88977 h -97.92126 z"
       stroke-linecap="butt"
       stroke-linejoin="round"
       stroke-width="2"
       stroke="#000000" />
    <path
       id="path25"
       fill-rule="evenodd"
       d="M 29.517061,106.30446 H 289.61154 v 96.81889 H 29.517061 Z"
       fill="#000000" />
    <path
       id="path27"
       fill-rule="evenodd"
       d="M 29.517061,106.30446 H 289.61154 v 96.81889 H 29.517061 Z"
       stroke-linecap="butt"
       stroke-linejoin="round"
       stroke-width="2"
       stroke="#000000" />
    <path
       id="path29"
       fill-rule="evenodd"
       d="m 35.627296,113.07874 h 49.574806 v 82.14173 H 35.627296 Z"
       fill="#ffffff" />
    <path
       id="path31"
       fill-rule="evenodd"
       d="m 35.627296,113.07874 h 49.574806 v 82.14173 H 35.627296 Z"
       stroke-linecap="butt"
       stroke-linejoin="round"
       stroke-width="1"
       stroke="#000000" />
    <path
       id="path33"
       fill-rule="evenodd"
       d="m 85.2021,113.07874 h 49.5748 v 82.14173 H 85.2021 Z"
       fill="#ffffff" />
    <path
       id="path35"
       fill-rule="evenodd"
       d="m 85.2021,113.07874 h 49.5748 v 82.14173 H 85.2021 Z"
       stroke-linecap="butt"
       stroke-linejoin="round"
       stroke-width="1"
       stroke="#000000" />
    <path
       id="path37"
       fill-rule="evenodd"
       d="m 134.77843,113.07874 h 49.5748 v 82.14173 h -49.5748 z"
       fill="#ffffff" />
    <path
       id="path39"
       fill-rule="evenodd"
       d="m 134.77843,113.07874 h 49.5748 v 82.14173 h -49.5748 z"
       stroke-linecap="butt"
       stroke-linejoin="round"
       stroke-width="1"
       stroke="#000000" />
    <path
       id="path41"
       fill-rule="evenodd"
       d="m 184.35214,113.07874 h 49.5748 v 82.14173 h -49.5748 z"
       fill="#ffffff" />
    <path
       id="path43"
       fill-rule="evenodd"
       d="m 184.35214,113.07874 h 49.5748 v 82.14173 h -49.5748 z"
       stroke-linecap="butt"
       stroke-linejoin="round"
       stroke-width="1"
       stroke="#000000" />
    <path
       id="path45"
       fill-rule="evenodd"
       d="m 233.9265,113.07874 h 49.57481 v 82.14173 H 233.9265 Z"
       fill="#ffffff" />
    <path
       id="path47"
       fill-rule="evenodd"
       d="m 233.9265,113.07874 h 49.57481 v 82.14173 H 233.9265 Z"
       stroke-linecap="butt"
       stroke-linejoin="round"
       stroke-width="1"
       stroke="#000000" />
    <path
       id="path49"
       fill-rule="evenodd"
       d="m 100.52476,90.04964 9.46457,-17.322838 9.46457,17.322838 z"
       fill="#000000" />
    <path
       id="path51"
       fill-rule="evenodd"
       d="m 100.52476,90.04964 9.46457,-17.322838 9.46457,17.322838 z"
       stroke-linecap="butt"
       stroke-linejoin="round"
       stroke-width="2"
       stroke="#000000" />
    <path
       id="path53"
       fill-rule="evenodd"
       d="m 150.09956,90.04964 9.46457,-17.322838 9.46457,17.322838 z"
       fill="#000000" />
    <path
       id="path55"
       fill-rule="evenodd"
       d="m 150.09956,90.04964 9.46457,-17.322838 9.46457,17.322838 z"
       stroke-linecap="butt"
       stroke-linejoin="round"
       stroke-width="2"
       stroke="#000000" />
    <path
       id="path57"
       fill-rule="evenodd"
       d="m 199.67436,90.04964 9.46457,-17.322838 9.46457,17.322838 z"
       fill="#000000" />
    <path
       id="path59"
       fill-rule="evenodd"
       d="m 199.67436,90.04964 9.46457,-17.322838 9.46457,17.322838 z"
       stroke-linecap="butt"
       stroke-linejoin="round"
       stroke-width="2"
       stroke="#000000" />
    <path
       id="path61"
       fill-rule="evenodd"
       d="m 249.24916,90.04964 9.46458,-17.322838 9.46457,17.322838 z"
       fill="#000000" />
    <path
       id="path63"
       fill-rule="evenodd"
       d="m 249.24916,90.04964 9.46458,-17.322838 9.46457,17.322838 z"
       stroke-linecap="butt"
       stroke-linejoin="round"
       stroke-width="2"
       stroke="#000000" />
    <path
       id="path65"
       fill-rule="evenodd"
       d="m 268.1783,219.37772 -9.46457,17.32284 -9.46458,-17.32284 z"
       fill="#000000" />
    <path
       id="path67"
       fill-rule="evenodd"
       d="m 268.1783,219.37772 -9.46457,17.32284 -9.46458,-17.32284 z"
       stroke-linecap="butt"
       stroke-linejoin="round"
       stroke-width="2"
       stroke="#000000" />
    <path
       id="path69"
       fill-rule="evenodd"
       d="m 218.6035,219.37772 -9.46457,17.32284 -9.46457,-17.32284 z"
       fill="#000000" />
    <path
       id="path71"
       fill-rule="evenodd"
       d="m 218.6035,219.37772 -9.46457,17.32284 -9.46457,-17.32284 z"
       stroke-linecap="butt"
       stroke-linejoin="round"
       stroke-width="2"
       stroke="#000000" />
    <path
       id="path73"
       fill-rule="evenodd"
       d="m 169.0287,219.37772 -9.46457,17.32284 -9.46457,-17.32284 z"
       fill="#000000" />
    <path
       id="path75"
       fill-rule="evenodd"
       d="m 169.0287,219.37772 -9.46457,17.32284 -9.46457,-17.32284 z"
       stroke-linecap="butt"
       stroke-linejoin="round"
       stroke-width="2"
       stroke="#000000" />
    <path
       id="path77"
       fill-rule="evenodd"
       d="m 119.4539,219.37772 -9.46457,17.32284 -9.46457,-17.32284 z"
       fill="#000000" />
    <path
       id="path79"
       fill-rule="evenodd"
       d="m 119.4539,219.37772 -9.46457,17.32284 -9.46457,-17.32284 z"
       stroke-linecap="butt"
       stroke-linejoin="round"
       stroke-width="2"
       stroke="#000000" />
    <path
       id="path81"
       fill-rule="evenodd"
       d="m 69.87909,219.37772 -9.464569,17.32284 -9.464565,-17.32284 z"
       fill="#000000" />
    <path
       id="path83"
       fill-rule="evenodd"
       d="m 69.87909,219.37772 -9.464569,17.32284 -9.464565,-17.32284 z"
       stroke-linecap="butt"
       stroke-linejoin="round"
       stroke-width="2"
       stroke="#000000" />
  </g>
  <g
     style="font-size:20px;font-family:'DejaVu Sans', sans-serif;text-anchor:middle;fill:#000000"
     id="text89"
     aria-label="ส่ง">
    <path
       id="path119"
       d="m 171.48828,283.67578 q -0.3125,1.34766 -1.67969,2.64649 0.87891,1.14257 0.87891,2.90039 V 296 h -1.8457 q -1.73828,-3.30078 -2.26563,-4.15039 -0.52734,-0.85938 -1.09375,-1.31836 -0.5664,-0.46875 -1.09375,-0.46875 -0.50781,0 -0.83008,0.3418 -0.3125,0.34179 -0.3125,0.8789 v 1.29883 q 0.30274,-0.11719 0.69336,-0.11719 0.77149,0 1.31836,0.53711 0.54688,0.53711 0.54688,1.29883 0,0.76172 -0.55664,1.30859 -0.54688,0.54688 -1.3086,0.54688 -1.15234,0 -1.8457,-0.70313 -0.69336,-0.70312 -0.69336,-1.91406 v -2.21679 q 0,-1.42579 0.75195,-2.17774 0.76172,-0.76172 2.10938,-0.76172 0.92773,0 1.70898,0.59571 0.78125,0.5957 1.24024,1.32812 0.46875,0.73242 1.63086,2.99805 v -4.08203 q 0,-1.04493 -0.45899,-1.71875 -0.5957,0.42968 -1.64062,0.91796 l -0.45899,-0.64453 q 0.64453,-0.33203 1.33789,-0.99609 -0.68359,-0.40039 -1.60156,-0.40039 -2.01172,0 -3.95508,1.29883 h -0.0976 v -2.06055 q 2.10937,-0.83984 4.0332,-0.83984 1.71875,0 2.80273,0.68359 0.80079,-1.08398 0.80079,-1.78711 z m -7.54883,11.38672 q 0.3125,0 0.52735,-0.21484 0.21484,-0.22461 0.21484,-0.54688 0,-0.29297 -0.22461,-0.50781 -0.21484,-0.21485 -0.51758,-0.21485 -0.29297,0 -0.51758,0.21485 -0.21484,0.21484 -0.21484,0.50781 0,0.32227 0.21484,0.54688 0.21485,0.21484 0.51758,0.21484 z" />
    <path
       id="path121"
       d="m 170.69727,283.12891 h -1.09375 v -3.28125 h 1.09375 z" />
    <path
       id="path123"
       d="m 180.35547,292.81641 q 0,1.70898 -0.77149,2.60742 -0.76171,0.89844 -2.07031,0.89844 -0.83984,0 -1.55273,-0.49805 -0.70313,-0.50781 -1.25977,-1.68945 l -2.26562,-4.73633 h 1.91406 q 1.76758,3.70117 1.95312,4.07226 0.18555,0.3711 0.49805,0.74219 0.32227,0.37109 0.71289,0.37109 0.9961,0 0.9961,-1.76757 v -4.4336 q -0.30274,0.11719 -0.69336,0.11719 -0.77149,0 -1.31836,-0.53711 -0.54688,-0.54687 -0.54688,-1.29883 0,-0.76172 0.54688,-1.30859 0.55664,-0.55664 1.31836,-0.55664 1.15234,0 1.8457,0.71289 0.69336,0.70312 0.69336,1.9043 z m -2.5586,-5.43946 q 0.29297,0 0.50782,-0.20508 0.22461,-0.21484 0.22461,-0.50781 0,-0.32226 -0.21485,-0.53711 -0.21484,-0.22461 -0.51758,-0.22461 -0.3125,0 -0.52734,0.22461 -0.21484,0.21485 -0.21484,0.53711 0,0.29297 0.21484,0.50781 0.22461,0.20508 0.52734,0.20508 z" />
  </g>
  <g
     style="font-size:42px;font-family:'DejaVu Sans', sans-serif;text-anchor:middle;fill:#000000"
     id="text93"
     aria-label="ก">
    <path
       id="path126"
       d="m 69.043945,170 h -3.875976 v -13.22754 q 0,-3.73242 -1.3125,-5.20898 -1.3125,-1.47657 -4.101563,-1.47657 -4.327148,0 -5.208984,3.52735 h 3.916992 v 2.72754 q -3.670898,1.37402 -3.670898,6.0498 V 170 h -3.855469 v -6.93164 q 0,-5.35254 3.609375,-6.54199 h -4.040039 v -0.14356 q 0,-4.49121 2.399414,-7.21875 2.399414,-2.72754 6.849609,-2.72754 4.839844,0 7.054688,2.46094 2.235351,2.44043 2.235351,7.875 z" />
  </g>
  <g
     style="font-size:42px;font-family:'DejaVu Sans', sans-serif;text-anchor:middle;fill:#000000"
     id="text97"
     aria-label="ก">
    <path
       id="path129"
       d="m 119.04395,170 h -3.87598 v -13.22754 q 0,-3.73242 -1.3125,-5.20898 -1.3125,-1.47657 -4.10156,-1.47657 -4.32715,0 -5.20899,3.52735 h 3.91699 v 2.72754 q -3.67089,1.37402 -3.67089,6.0498 V 170 h -3.85547 v -6.93164 q 0,-5.35254 3.60937,-6.54199 h -4.04004 v -0.14356 q 0,-4.49121 2.39942,-7.21875 2.39941,-2.72754 6.84961,-2.72754 4.83984,0 7.05468,2.46094 2.23536,2.44043 2.23536,7.875 z" />
  </g>
  <g
     style="font-size:42px;font-family:'DejaVu Sans', sans-serif;text-anchor:middle;fill:#000000"
     id="text101"
     aria-label="ก">
    <path
       id="path132"
       d="m 169.04395,170 h -3.87598 v -13.22754 q 0,-3.73242 -1.3125,-5.20898 -1.3125,-1.47657 -4.10156,-1.47657 -4.32715,0 -5.20899,3.52735 h 3.91699 v 2.72754 q -3.67089,1.37402 -3.67089,6.0498 V 170 h -3.85547 v -6.93164 q 0,-5.35254 3.60937,-6.54199 h -4.04004 v -0.14356 q 0,-4.49121 2.39942,-7.21875 2.39941,-2.72754 6.84961,-2.72754 4.83984,0 7.05468,2.46094 2.23536,2.44043 2.23536,7.875 z" />
  </g>
  <g
     style="font-size:42px;font-family:'DejaVu Sans', sans-serif;text-anchor:middle;fill:#000000"
     id="text105"
     aria-label="ก">
    <path
       id="path135"
       d="m 219.04395,170 h -3.87598 v -13.22754 q 0,-3.73242 -1.3125,-5.20898 -1.3125,-1.47657 -4.10156,-1.47657 -4.32715,0 -5.20899,3.52735 h 3.91699 v 2.72754 q -3.67089,1.37402 -3.67089,6.0498 V 170 h -3.85547 v -6.93164 q 0,-5.35254 3.60937,-6.54199 h -4.04004 v -0.14356 q 0,-4.49121 2.39942,-7.21875 2.39941,-2.72754 6.84961,-2.72754 4.83984,0 7.05468,2.46094 2.23536,2.44043 2.23536,7.875 z" />
  </g>
  <g
     style="font-size:42px;font-family:'DejaVu Sans', sans-serif;text-anchor:middle;fill:#000000"
     id="text109"
     aria-label="ก">
    <path
       id="path138"
       d="m 269.04395,170 h -3.87598 v -13.22754 q 0,-3.73242 -1.3125,-5.20898 -1.3125,-1.47657 -4.10156,-1.47657 -4.32715,0 -5.20899,3.52735 h 3.91699 v 2.72754 q -3.67089,1.37402 -3.67089,6.0498 V 170 h -3.85547 v -6.93164 q 0,-5.35254 3.60937,-6.54199 h -4.04004 v -0.14356 q 0,-4.49121 2.39942,-7.21875 2.39941,-2.72754 6.84961,-2.72754 4.83984,0 7.05468,2.46094 2.23536,2.44043 2.23536,7.875 z" />
  </g>
</svg>
