<?xml version="1.0" encoding="UTF-8" standalone="no"?>
<svg
   xmlns:dc="http://purl.org/dc/elements/1.1/"
   xmlns:cc="http://creativecommons.org/ns#"
   xmlns:rdf="http://www.w3.org/1999/02/22-rdf-syntax-ns#"
   xmlns:svg="http://www.w3.org/2000/svg"
   xmlns="http://www.w3.org/2000/svg"
   id="svg89"
   stroke-miterlimit="10"
   stroke-linecap="square"
   stroke="none"
   fill="none"
   viewBox="0.0 0.0 348.0 348.0"
   version="1.1">
  <metadata
     id="metadata95">
    <rdf:RDF>
      <cc:Work
         rdf:about="">
        <dc:format>image/svg+xml</dc:format>
        <dc:type
           rdf:resource="http://purl.org/dc/dcmitype/StillImage" />
      </cc:Work>
    </rdf:RDF>
  </metadata>
  <defs
     id="defs93" />
  <clipPath
     id="p.0">
    <path
       id="path2"
       clip-rule="nonzero"
       d="m0 0l348.0 0l0 348.0l-348.0 0l0 -348.0z" />
  </clipPath>
  <g
     id="g59"
     clip-path="url(#p.0)">
    <path
       id="path5"
       fill-rule="nonzero"
       d="M 0,0 H 348 V 348 H 0 Z"
       fill-opacity="0"
       fill="#000000" />
    <path
       id="path7"
       fill-rule="nonzero"
       d="M -6,0 H 342 V 347.9685 H -6 Z"
       fill="#ffffff" />
    <path
       id="path9"
       fill-rule="nonzero"
       d="m 5.07874,5.7758217 h 336.9134 V 343.44512 H 5.07874 Z"
       fill-opacity="0"
       fill="#000000" />
    <path
       id="path11"
       fill-rule="nonzero"
       d="m 5.07874,5.7758217 h 336.9134 V 343.44512 H 5.07874 Z"
       stroke-linecap="butt"
       stroke-linejoin="round"
       stroke-width="2"
       stroke="#000000" />
    <path
       id="path13"
       fill-rule="nonzero"
       d="m 282.73444,40.553925 v 0 c 0,-8.375591 6.96603,-15.165352 15.55905,-15.165352 v 0 c 4.12653,0 8.08402,1.597773 11.00192,4.441828 2.91788,2.844057 4.55713,6.701422 4.55713,10.723524 v 0 c 0,8.375595 -6.966,15.165356 -15.55905,15.165356 v 0 c -8.59302,0 -15.55905,-6.789761 -15.55905,-15.165356 z"
       fill="#ffffff" />
    <path
       id="path15"
       fill-rule="nonzero"
       d="m 282.73444,40.553925 v 0 c 0,-8.375591 6.96603,-15.165352 15.55905,-15.165352 v 0 c 4.12653,0 8.08402,1.597773 11.00192,4.441828 2.91788,2.844057 4.55713,6.701422 4.55713,10.723524 v 0 c 0,8.375595 -6.966,15.165356 -15.55905,15.165356 v 0 c -8.59302,0 -15.55905,-6.789761 -15.55905,-15.165356 z"
       stroke-linecap="butt"
       stroke-linejoin="round"
       stroke-width="2"
       stroke="#000000" />
    <path
       id="path17"
       fill-rule="nonzero"
       d="M 34.771652,25.389738 H 267.18112 v 67.55905 H 34.771652 Z"
       fill="#000000" />
    <path
       id="path19"
       fill-rule="nonzero"
       d="M 34.771652,25.389738 H 267.18112 v 67.55905 H 34.771652 Z"
       stroke-linecap="butt"
       stroke-linejoin="round"
       stroke-width="2"
       stroke="#000000" />
    <path
       id="path21"
       fill-rule="nonzero"
       d="M 34.771652,202.31795 H 141.41733 v 44.81891 H 34.771652 Z"
       stroke-linecap="butt"
       stroke-linejoin="round"
       stroke-width="1"
       stroke="#000000" />
    <path
       id="path23"
       fill-rule="nonzero"
       d="M 34.771652,125.22639 H 141.41733 v 44.8189 H 34.771652 Z"
       fill-opacity="0"
       fill="#000000" />
    <path
       id="path25"
       fill-rule="nonzero"
       d="M 34.771652,125.22639 H 141.41733 v 44.8189 H 34.771652 Z"
       stroke-linecap="butt"
       stroke-linejoin="round"
       stroke-width="1"
       stroke="#000000" />
    <path
       id="path27"
       fill-rule="nonzero"
       d="M 34.771652,270.60397 H 141.41733 v 44.81891 H 34.771652 Z"
       fill-opacity="0"
       fill="#000000" />
    <path
       id="path29"
       fill-rule="nonzero"
       d="M 34.771652,270.60397 H 141.41733 v 44.81891 H 34.771652 Z"
       stroke-linecap="butt"
       stroke-linejoin="round"
       stroke-width="1"
       stroke="#000000" />
    <path
       id="path31"
       fill-rule="nonzero"
       d="m 157.40683,202.31795 h 106.64566 v 44.81891 H 157.40683 Z"
       fill-opacity="0"
       fill="#000000" />
    <path
       id="path33"
       fill-rule="nonzero"
       d="m 157.40683,202.31795 h 106.64566 v 44.81891 H 157.40683 Z"
       stroke-linecap="butt"
       stroke-linejoin="round"
       stroke-width="1"
       stroke="#000000" />
    <path
       id="path35"
       fill-rule="nonzero"
       d="m 157.40683,125.22639 h 106.64566 v 44.8189 H 157.40683 Z"
       fill-opacity="0"
       fill="#000000" />
    <path
       id="path37"
       fill-rule="nonzero"
       d="m 157.40683,125.22639 h 106.64566 v 44.8189 H 157.40683 Z"
       stroke-linecap="butt"
       stroke-linejoin="round"
       stroke-width="1"
       stroke="#000000" />
    <path
       id="path39"
       fill-rule="nonzero"
       d="m 157.40683,270.60397 h 106.64566 v 44.81891 H 157.40683 Z"
       fill-opacity="0"
       fill="#000000" />
    <path
       id="path41"
       fill-rule="nonzero"
       d="m 157.40683,270.60397 h 106.64566 v 44.81891 H 157.40683 Z"
       stroke-linecap="butt"
       stroke-linejoin="round"
       stroke-width="1"
       stroke="#000000" />
    <path
       id="path43"
       fill-rule="nonzero"
       d="m 277.46194,106.3832 h 52.66141 v 209.03937 h -52.66141 z"
       fill="#000000" />
    <path
       id="path45"
       fill-rule="nonzero"
       d="m 277.46194,106.3832 h 52.66141 v 209.03937 h -52.66141 z"
       stroke-linecap="butt"
       stroke-linejoin="round"
       stroke-width="2"
       stroke="#000000" />
    <path
       id="path47"
       fill-rule="nonzero"
       d="m 290.06036,245.11285 h 27.46457 v 16.47244 h -27.46457 z"
       fill="#ffffff" />
    <path
       id="path49"
       fill-rule="nonzero"
       d="m 290.06036,245.11285 h 27.46457 v 16.47244 h -27.46457 z"
       stroke-linecap="butt"
       stroke-linejoin="round"
       stroke-width="2"
       stroke="#000000" />
    <path
       id="path51"
       fill-rule="nonzero"
       d="m 290.06036,208.9029 h 27.46457 v 16.47243 h -27.46457 z"
       fill="#ffffff" />
    <path
       id="path53"
       fill-rule="nonzero"
       d="m 290.06036,208.9029 h 27.46457 v 16.47243 h -27.46457 z"
       stroke-linecap="butt"
       stroke-linejoin="round"
       stroke-width="2"
       stroke="#000000" />
    <path
       id="path55"
       fill-rule="nonzero"
       d="m 290.06036,281.32285 h 27.46457 v 16.47244 h -27.46457 z"
       fill="#ffffff" />
    <path
       id="path57"
       fill-rule="nonzero"
       d="m 290.06036,281.32285 h 27.46457 v 16.47244 h -27.46457 z"
       stroke-linecap="butt"
       stroke-linejoin="round"
       stroke-width="2"
       stroke="#000000" />
  </g>
  <g
     style="font-size:32px;font-family:'DejaVu Sans', sans-serif;text-anchor:middle;fill:#ffffff"
     id="text63"
     aria-label="[ จอแสดง ]">
    <path
       id="path97"
       d="m 74.8125,45.6875 h 6.625 v 2.234375 h -3.75 v 24.0625 h 3.75 v 2.234375 h -6.625 z" />
    <path
       id="path99"
       d="m 109.92188,70 h -3.10938 q -0.5625,-1.78125 -1.28125,-3.3125 -0.71875,-1.546875 -1.59375,-2.859375 -1.01562,1.4375 -2.53125,1.4375 -1.21875,0 -2.09375,-0.859375 -0.875,-0.875 -0.875,-2.09375 0,-1.203125 0.875,-2.078125 0.875,-0.890625 2.09375,-0.890625 1.78125,0 3.07813,1.375 1.3125,1.359375 2.51562,4.328125 V 59.15625 q 0,-2.1875 -1.09375,-3.359375 -1.09375,-1.1875 -3.09375,-1.1875 -3.21875,0 -6.296875,2.078125 H 96.3125 v -3.296875 q 3.375,-1.34375 6.4375,-1.34375 3.53125,0 5.34375,1.84375 1.82813,1.828125 1.82813,5.265625 z m -8.51563,-6.53125 q 0.48438,0 0.82813,-0.328125 0.35937,-0.34375 0.35937,-0.828125 0,-0.5 -0.35937,-0.84375 -0.34375,-0.359375 -0.82813,-0.359375 -0.48437,0 -0.84375,0.359375 -0.34375,0.34375 -0.34375,0.84375 0,0.484375 0.34375,0.828125 0.35938,0.328125 0.84375,0.328125 z" />
    <path
       id="path101"
       d="M 128.98437,70 H 115.1875 v -6.8125 q 0,-1.953125 1.10938,-3.078125 1.10937,-1.125 2.95312,-1.125 1.21875,0 2.09375,0.890625 0.875,0.875 0.875,2.09375 0,1.21875 -0.875,2.078125 -0.875,0.859375 -2.09375,0.859375 -0.64062,0 -1.125,-0.1875 v 2.5 h 7.90625 v -8.0625 q 0,-2.140625 -1.21875,-3.34375 -1.20312,-1.203125 -3.26562,-1.203125 -3.20313,0 -6.29688,2.078125 h -0.1875 v -3.296875 q 3.375,-1.34375 6.42188,-1.34375 3.625,0 5.5625,1.890625 1.93749,1.875 1.93749,5.21875 z M 119.25,63.125 q 0.48438,0 0.82813,-0.34375 0.35937,-0.34375 0.35937,-0.8125 0,-0.515625 -0.35937,-0.859375 Q 119.73438,60.75 119.25,60.75 q -0.48437,0 -0.84375,0.359375 -0.34375,0.34375 -0.34375,0.859375 0,0.46875 0.34375,0.8125 0.35938,0.34375 0.84375,0.34375 z" />
    <path
       id="path103"
       d="m 137.1875,64.53125 q 0.48437,-0.1875 1.125,-0.1875 1.21875,0 2.09375,0.859375 0.875,0.859375 0.875,2.078125 0,1.21875 -0.875,2.09375 -0.875,0.875 -2.09375,0.875 -1.84375,0 -2.95313,-1.125 Q 134.25,68 134.25,66.0625 V 52.53125 h 2.9375 z m 1.125,3.96875 q 0.48437,0 0.82812,-0.34375 0.35938,-0.359375 0.35938,-0.875 0,-0.46875 -0.35938,-0.8125 -0.34375,-0.34375 -0.82812,-0.34375 -0.48438,0 -0.84375,0.34375 -0.34375,0.34375 -0.34375,0.8125 0,0.515625 0.34375,0.875 Q 137.82812,68.5 138.3125,68.5 Z M 145.5,64.53125 q 0.48437,-0.1875 1.125,-0.1875 1.21875,0 2.09375,0.859375 0.875,0.859375 0.875,2.078125 0,1.21875 -0.875,2.09375 -0.875,0.875 -2.09375,0.875 -1.84375,0 -2.95313,-1.125 Q 142.5625,68 142.5625,66.0625 V 52.53125 H 145.5 Z M 146.625,68.5 q 0.48437,0 0.82812,-0.34375 0.35938,-0.359375 0.35938,-0.875 0,-0.46875 -0.35938,-0.8125 -0.34375,-0.34375 -0.82812,-0.34375 -0.48438,0 -0.84375,0.34375 -0.34375,0.34375 -0.34375,0.8125 0,0.515625 0.34375,0.875 Q 146.14062,68.5 146.625,68.5 Z" />
    <path
       id="path105"
       d="m 168.9375,50.28125 q -0.5,2.15625 -2.6875,4.234375 1.40625,1.828125 1.40625,4.640625 V 70 h -2.95313 q -2.78125,-5.28125 -3.625,-6.640625 -0.84375,-1.375 -1.75,-2.109375 -0.90625,-0.75 -1.75,-0.75 -0.8125,0 -1.32812,0.546875 -0.5,0.546875 -0.5,1.40625 v 2.078125 q 0.48437,-0.1875 1.10937,-0.1875 1.23438,0 2.10938,0.859375 0.875,0.859375 0.875,2.078125 0,1.21875 -0.89063,2.09375 -0.875,0.875 -2.09375,0.875 -1.84375,0 -2.95312,-1.125 -1.10938,-1.125 -1.10938,-3.0625 v -3.546875 q 0,-2.28125 1.20313,-3.484375 1.21875,-1.21875 3.375,-1.21875 1.48437,0 2.73437,0.953125 1.25,0.953125 1.98438,2.125 0.75,1.171875 2.60937,4.796875 v -6.53125 q 0,-1.671875 -0.73437,-2.75 -0.95313,0.6875 -2.625,1.46875 l -0.73438,-1.03125 Q 161.64062,56.3125 162.75,55.25 q -1.09375,-0.640625 -2.5625,-0.640625 -3.21875,0 -6.32813,2.078125 h -0.15625 v -3.296875 q 3.375,-1.34375 6.45313,-1.34375 2.75,0 4.48437,1.09375 1.28125,-1.734375 1.28125,-2.859375 z M 156.85937,68.5 q 0.5,0 0.84375,-0.34375 0.34375,-0.359375 0.34375,-0.875 0,-0.46875 -0.35937,-0.8125 -0.34375,-0.34375 -0.82813,-0.34375 -0.46875,0 -0.82812,0.34375 -0.34375,0.34375 -0.34375,0.8125 0,0.515625 0.34375,0.875 Q 156.375,68.5 156.85937,68.5 Z" />
    <path
       id="path107"
       d="m 187.0625,70 h -2.95313 V 59.921875 q 0,-5.09375 -4.60937,-5.09375 -2.20313,0 -3.40625,1.3125 -1.20313,1.296875 -1.20313,3.453125 0,1.890625 0.70313,4.390625 0.1875,0.625 0.54687,3.203125 l 1.65625,-1.59375 q 0.82813,-0.8125 1.09375,-1.453125 -1.09375,-0.28125 -1.71875,-1.0625 -0.60937,-0.796875 -0.60937,-1.84375 0,-1.21875 0.85937,-2.078125 0.85938,-0.875 2.07813,-0.875 1.26562,0 2.10937,0.90625 0.84375,0.890625 0.84375,2.234375 0,1.46875 -0.98437,3.140625 -0.96875,1.65625 -3.84375,4.125 -0.84375,0.71875 -1.42188,1.3125 h -2.9375 v -1.34375 q 0,-1.296875 -0.59375,-4.125 -0.6875,-3.21875 -0.6875,-4.90625 0,-3.390625 1.9375,-5.484375 1.95313,-2.09375 5.57813,-2.09375 7.5625,0 7.5625,7.875 z m -7.5,-7.578125 q 0.48437,0 0.82812,-0.34375 0.35938,-0.34375 0.35938,-0.8125 0,-0.515625 -0.34375,-0.859375 -0.34375,-0.359375 -0.84375,-0.359375 -0.48438,0 -0.82813,0.359375 -0.34375,0.34375 -0.34375,0.859375 0,0.46875 0.34375,0.8125 0.34375,0.34375 0.82813,0.34375 z" />
    <path
       id="path109"
       d="m 202.8125,64.90625 q 0,2.734375 -1.23438,4.171875 -1.21875,1.4375 -3.3125,1.4375 -1.34375,0 -2.48437,-0.796875 -1.125,-0.8125 -2.01563,-2.703125 l -3.625,-7.578125 h 3.0625 q 2.82813,5.921875 3.125,6.515625 0.29688,0.59375 0.79688,1.1875 0.51562,0.59375 1.14062,0.59375 1.59375,0 1.59375,-2.828125 V 57.8125 Q 199.375,58 198.75,58 q -1.23438,0 -2.10938,-0.859375 -0.875,-0.875 -0.875,-2.078125 0,-1.21875 0.875,-2.09375 0.89063,-0.890625 2.10938,-0.890625 1.84375,0 2.95312,1.140625 1.10938,1.125 1.10938,3.046875 z m -4.09375,-8.703125 q 0.46875,0 0.8125,-0.328125 0.35937,-0.34375 0.35937,-0.8125 0,-0.515625 -0.34375,-0.859375 -0.34375,-0.359375 -0.82812,-0.359375 -0.5,0 -0.84375,0.359375 -0.34375,0.34375 -0.34375,0.859375 0,0.46875 0.34375,0.8125 0.35937,0.328125 0.84375,0.328125 z" />
    <path
       id="path111"
       d="m 225.17187,45.6875 v 28.53125 h -6.625 v -2.234375 h 3.73438 v -24.0625 h -3.73438 V 45.6875 Z" />
  </g>
  <g
     style="font-size:17.7778px;font-family:'DejaVu Sans', sans-serif;text-anchor:middle;fill:#000000"
     id="text67"
     aria-label="[ ข้อความ ]">
    <path
       id="path114"
       d="m 45.819442,139.38194 h 3.680556 v 1.24132 h -2.083333 v 13.36806 h 2.083333 v 1.24132 h -3.680556 z" />
    <path
       id="path116"
       d="m 66.314235,152.88889 h -7.144098 v -1.54514 h 1.102431 v -2.22223 q 0,-0.65972 0.173611,-1.09375 0.182292,-0.4427 0.529514,-0.96354 0.390625,-0.59028 0.486111,-0.92014 0.09549,-0.32986 0.09549,-0.63368 0,-1.42361 -1.197917,-1.42361 -0.225694,0 -0.355902,0.0868 0.711805,0.53819 0.711805,1.3368 0,0.67709 -0.486111,1.15452 -0.486111,0.47743 -1.163194,0.47743 -0.677084,0 -1.163195,-0.47743 -0.47743,-0.48611 -0.47743,-1.17188 0,-1.15451 0.807291,-1.86632 0.815972,-0.7118 2.126736,-0.7118 1.250001,0 2.013889,0.7118 0.763889,0.70313 0.763889,1.86632 0,0.38195 -0.121527,0.81597 -0.112848,0.43403 -0.546875,1.19792 -0.555556,0.95486 -0.555556,1.54514 v 2.29167 h 2.769097 v -8.15973 h 1.631945 z m -7.248264,-6.71875 q 0.269097,0 0.460069,-0.19098 0.199653,-0.19965 0.199653,-0.48611 0,-0.26041 -0.199653,-0.45139 -0.190972,-0.19097 -0.460069,-0.19097 -0.269098,0 -0.46875,0.19097 -0.190973,0.19098 -0.190973,0.45139 0,0.28646 0.190973,0.48611 0.199652,0.19098 0.46875,0.19098 z" />
    <path
       id="path118"
       d="m 69.265625,139.49479 q -1.137153,2.34375 -4.609376,2.8559 l 0.425348,-0.9375 q -0.381945,-0.0521 -0.625,-0.33854 -0.243056,-0.29514 -0.243056,-0.67708 0,-0.41667 0.286458,-0.71181 0.277778,-0.30382 0.694445,-0.30382 0.399305,0 0.685764,0.30382 0.286458,0.29514 0.286458,0.71181 0,0.60763 -0.355903,1.01562 1.440973,-0.37326 2.352431,-1.9184 z m -4.071181,1.20659 q 0.112847,0 0.208333,-0.0868 0.08681,-0.0955 0.08681,-0.21701 0,-0.12153 -0.08681,-0.20834 -0.09549,-0.0955 -0.208333,-0.0955 -0.121528,0 -0.208334,0.0955 -0.09549,0.0868 -0.09549,0.20834 0,0.12152 0.09549,0.21701 0.08681,0.0868 0.208334,0.0868 z" />
    <path
       id="path120"
       d="m 76.921876,152.88889 h -7.664931 v -3.78473 q 0,-1.08507 0.616319,-1.71007 0.61632,-0.625 1.640625,-0.625 0.677084,0 1.163195,0.4948 0.486111,0.48611 0.486111,1.16319 0,0.67708 -0.486111,1.15451 -0.486111,0.47743 -1.163195,0.47743 -0.355903,0 -0.625,-0.10416 v 1.38889 h 4.392361 v -4.47917 q 0,-1.18924 -0.677083,-1.85764 -0.668403,-0.6684 -1.814236,-0.6684 -1.779514,0 -3.498264,1.15451 H 69.1875 v -1.8316 q 1.875,-0.74652 3.567709,-0.74652 2.013889,0 3.090278,1.05034 1.076389,1.04167 1.076389,2.89931 z m -5.407987,-3.81945 q 0.269097,0 0.46007,-0.19097 0.199652,-0.19097 0.199652,-0.45139 0,-0.28646 -0.199652,-0.47743 -0.190973,-0.19965 -0.46007,-0.19965 -0.269097,0 -0.46875,0.19965 -0.190972,0.19097 -0.190972,0.47743 0,0.26042 0.190972,0.45139 0.199653,0.19097 0.46875,0.19097 z" />
    <path
       id="path122"
       d="m 87.868057,152.88889 h -1.640625 v -5.59896 q 0,-2.82986 -2.560764,-2.82986 -1.223959,0 -1.892361,0.72916 -0.668403,0.72049 -0.668403,1.91841 0,1.09375 0.390625,2.43923 0.286458,-1.3368 0.798611,-2.19618 0.512153,-0.85937 1.423611,-0.85937 0.677084,0 1.163195,0.48611 0.494791,0.48611 0.494791,1.16319 0,0.67708 -0.486111,1.1632 -0.486111,0.47743 -1.171875,0.47743 -0.451389,0 -0.798611,-0.21702 -1.085069,1.09375 -1.085069,3.32466 h -1.631945 v -0.74653 q 0,-0.72049 -0.329861,-2.29167 -0.381945,-1.78819 -0.381945,-2.72569 0,-1.88368 1.076389,-3.04688 1.08507,-1.16319 3.098959,-1.16319 4.201389,0 4.201389,4.375 z m -4.131945,-4.10591 q 0.269098,0 0.46007,-0.19097 0.199653,-0.19097 0.199653,-0.45139 0,-0.28646 -0.190973,-0.47743 -0.190972,-0.19965 -0.46875,-0.19965 -0.269097,0 -0.460069,0.19965 -0.190972,0.19097 -0.190972,0.47743 0,0.26042 0.190972,0.45139 0.199653,0.19097 0.460069,0.19097 z" />
    <path
       id="path124"
       d="m 96.487848,150.70139 q 0,1.07638 -0.616319,1.70138 -0.607639,0.625 -1.640625,0.625 -0.677083,0 -1.163195,-0.48611 -0.486111,-0.48611 -0.486111,-1.16319 0,-0.67708 0.486111,-1.15452 0.486112,-0.47743 1.163195,-0.47743 0.355903,0 0.625,0.10417 v -3.18576 q 0,-1.11979 -0.538194,-1.71007 -0.529514,-0.59896 -1.467014,-0.59896 -1.432292,0 -2.934028,0.88542 H 89.80382 v -1.71875 q 1.536459,-0.59028 3.046876,-0.59028 3.637152,0 3.637152,3.62847 z m -2.256944,1.35416 q 0.277778,0 0.46875,-0.19097 0.190972,-0.19965 0.190972,-0.48611 0,-0.26042 -0.199653,-0.45139 -0.190972,-0.19097 -0.460069,-0.19097 -0.269097,0 -0.46875,0.19097 -0.190972,0.19097 -0.190972,0.45139 0,0.28646 0.190972,0.48611 0.199653,0.19097 0.46875,0.19097 z" />
    <path
       id="path126"
       d="m 105.09896,152.88889 h -1.63195 v -6.22396 q 0,-1.11979 -0.53819,-1.71007 -0.52951,-0.59896 -1.46701,-0.59896 -1.4323,0 -2.934032,0.88542 h -0.112847 v -1.71875 q 1.536458,-0.59028 3.046879,-0.59028 3.63715,0 3.63715,3.62847 z" />
    <path
       id="path128"
       d="m 115.74132,152.88889 h -1.52777 q -1.65799,-1.58855 -3.22049,-2.02257 v 0.24305 q 0,0.94618 -0.54688,1.43229 -0.53819,0.48611 -1.35416,0.48611 -0.76389,0 -1.24132,-0.41666 -0.46875,-0.41667 -0.46875,-1.11111 0,-0.65973 0.52083,-1.1632 0.52952,-0.51215 1.45834,-0.61632 v -3.61979 q -0.2691,0.10417 -0.625,0.10417 -0.67709,0 -1.17188,-0.47743 -0.48611,-0.48611 -0.48611,-1.15452 0,-0.68576 0.48611,-1.17187 0.49479,-0.48611 1.17188,-0.48611 1.0243,0 1.64062,0.63368 0.61632,0.625 0.61632,1.69271 v 4.55729 q 1.5625,0.37326 3.10764,1.51041 v -8.125 h 1.64062 z m -7.0052,-7.6823 q 0.26909,0 0.46006,-0.18229 0.19966,-0.19097 0.19966,-0.45139 0,-0.29514 -0.19966,-0.48611 -0.19097,-0.19097 -0.46006,-0.19097 -0.2691,0 -0.46875,0.19965 -0.19098,0.19097 -0.19098,0.47743 0,0.26042 0.19098,0.45139 0.19965,0.18229 0.46875,0.18229 z m 0.625,6.17188 v -0.67708 q -0.44271,0.0608 -0.70313,0.29513 -0.26042,0.23438 -0.26042,0.50348 0,0.25173 0.13021,0.40798 0.13021,0.14757 0.32986,0.14757 0.50348,0 0.50348,-0.67708 z" />
    <path
       id="path130"
       d="m 128.17188,139.38194 v 15.8507 h -3.68056 v -1.24132 h 2.07466 v -13.36806 h -2.07466 v -1.24132 z" />
  </g>
  <g
     style="font-size:17.7778px;font-family:'DejaVu Sans', sans-serif;text-anchor:middle;fill:#000000"
     id="text71"
     aria-label="[ ข้อความ ]">
    <path
       id="path133"
       d="m 45.819442,216.38194 h 3.680556 v 1.24132 h -2.083333 v 13.36806 h 2.083333 v 1.24132 h -3.680556 z" />
    <path
       id="path135"
       d="m 66.314235,229.88889 h -7.144098 v -1.54514 h 1.102431 v -2.22223 q 0,-0.65972 0.173611,-1.09375 0.182292,-0.4427 0.529514,-0.96354 0.390625,-0.59028 0.486111,-0.92014 0.09549,-0.32986 0.09549,-0.63368 0,-1.42361 -1.197917,-1.42361 -0.225694,0 -0.355902,0.0868 0.711805,0.53819 0.711805,1.3368 0,0.67709 -0.486111,1.15452 -0.486111,0.47743 -1.163194,0.47743 -0.677084,0 -1.163195,-0.47743 -0.47743,-0.48611 -0.47743,-1.17188 0,-1.15451 0.807291,-1.86632 0.815972,-0.7118 2.126736,-0.7118 1.250001,0 2.013889,0.7118 0.763889,0.70313 0.763889,1.86632 0,0.38195 -0.121527,0.81597 -0.112848,0.43403 -0.546875,1.19792 -0.555556,0.95486 -0.555556,1.54514 v 2.29167 h 2.769097 v -8.15973 h 1.631945 z m -7.248264,-6.71875 q 0.269097,0 0.460069,-0.19098 0.199653,-0.19965 0.199653,-0.48611 0,-0.26041 -0.199653,-0.45139 -0.190972,-0.19097 -0.460069,-0.19097 -0.269098,0 -0.46875,0.19097 -0.190973,0.19098 -0.190973,0.45139 0,0.28646 0.190973,0.48611 0.199652,0.19098 0.46875,0.19098 z" />
    <path
       id="path137"
       d="m 69.265625,216.49479 q -1.137153,2.34375 -4.609376,2.8559 l 0.425348,-0.9375 q -0.381945,-0.0521 -0.625,-0.33854 -0.243056,-0.29514 -0.243056,-0.67708 0,-0.41667 0.286458,-0.71181 0.277778,-0.30382 0.694445,-0.30382 0.399305,0 0.685764,0.30382 0.286458,0.29514 0.286458,0.71181 0,0.60763 -0.355903,1.01562 1.440973,-0.37326 2.352431,-1.9184 z m -4.071181,1.20659 q 0.112847,0 0.208333,-0.0868 0.08681,-0.0955 0.08681,-0.21701 0,-0.12153 -0.08681,-0.20834 -0.09549,-0.0955 -0.208333,-0.0955 -0.121528,0 -0.208334,0.0955 -0.09549,0.0868 -0.09549,0.20834 0,0.12152 0.09549,0.21701 0.08681,0.0868 0.208334,0.0868 z" />
    <path
       id="path139"
       d="m 76.921876,229.88889 h -7.664931 v -3.78473 q 0,-1.08507 0.616319,-1.71007 0.61632,-0.625 1.640625,-0.625 0.677084,0 1.163195,0.4948 0.486111,0.48611 0.486111,1.16319 0,0.67708 -0.486111,1.15451 -0.486111,0.47743 -1.163195,0.47743 -0.355903,0 -0.625,-0.10416 v 1.38889 h 4.392361 v -4.47917 q 0,-1.18924 -0.677083,-1.85764 -0.668403,-0.6684 -1.814236,-0.6684 -1.779514,0 -3.498264,1.15451 H 69.1875 v -1.8316 q 1.875,-0.74652 3.567709,-0.74652 2.013889,0 3.090278,1.05034 1.076389,1.04167 1.076389,2.89931 z m -5.407987,-3.81945 q 0.269097,0 0.46007,-0.19097 0.199652,-0.19097 0.199652,-0.45139 0,-0.28646 -0.199652,-0.47743 -0.190973,-0.19965 -0.46007,-0.19965 -0.269097,0 -0.46875,0.19965 -0.190972,0.19097 -0.190972,0.47743 0,0.26042 0.190972,0.45139 0.199653,0.19097 0.46875,0.19097 z" />
    <path
       id="path141"
       d="m 87.868057,229.88889 h -1.640625 v -5.59896 q 0,-2.82986 -2.560764,-2.82986 -1.223959,0 -1.892361,0.72916 -0.668403,0.72049 -0.668403,1.91841 0,1.09375 0.390625,2.43923 0.286458,-1.3368 0.798611,-2.19618 0.512153,-0.85937 1.423611,-0.85937 0.677084,0 1.163195,0.48611 0.494791,0.48611 0.494791,1.16319 0,0.67708 -0.486111,1.1632 -0.486111,0.47743 -1.171875,0.47743 -0.451389,0 -0.798611,-0.21702 -1.085069,1.09375 -1.085069,3.32466 h -1.631945 v -0.74653 q 0,-0.72049 -0.329861,-2.29167 -0.381945,-1.78819 -0.381945,-2.72569 0,-1.88368 1.076389,-3.04688 1.08507,-1.16319 3.098959,-1.16319 4.201389,0 4.201389,4.375 z m -4.131945,-4.10591 q 0.269098,0 0.46007,-0.19097 0.199653,-0.19097 0.199653,-0.45139 0,-0.28646 -0.190973,-0.47743 -0.190972,-0.19965 -0.46875,-0.19965 -0.269097,0 -0.460069,0.19965 -0.190972,0.19097 -0.190972,0.47743 0,0.26042 0.190972,0.45139 0.199653,0.19097 0.460069,0.19097 z" />
    <path
       id="path143"
       d="m 96.487848,227.70139 q 0,1.07638 -0.616319,1.70138 -0.607639,0.625 -1.640625,0.625 -0.677083,0 -1.163195,-0.48611 -0.486111,-0.48611 -0.486111,-1.16319 0,-0.67708 0.486111,-1.15452 0.486112,-0.47743 1.163195,-0.47743 0.355903,0 0.625,0.10417 v -3.18576 q 0,-1.11979 -0.538194,-1.71007 -0.529514,-0.59896 -1.467014,-0.59896 -1.432292,0 -2.934028,0.88542 H 89.80382 v -1.71875 q 1.536459,-0.59028 3.046876,-0.59028 3.637152,0 3.637152,3.62847 z m -2.256944,1.35416 q 0.277778,0 0.46875,-0.19097 0.190972,-0.19965 0.190972,-0.48611 0,-0.26042 -0.199653,-0.45139 -0.190972,-0.19097 -0.460069,-0.19097 -0.269097,0 -0.46875,0.19097 -0.190972,0.19097 -0.190972,0.45139 0,0.28646 0.190972,0.48611 0.199653,0.19097 0.46875,0.19097 z" />
    <path
       id="path145"
       d="m 105.09896,229.88889 h -1.63195 v -6.22396 q 0,-1.11979 -0.53819,-1.71007 -0.52951,-0.59896 -1.46701,-0.59896 -1.4323,0 -2.934032,0.88542 h -0.112847 v -1.71875 q 1.536458,-0.59028 3.046879,-0.59028 3.63715,0 3.63715,3.62847 z" />
    <path
       id="path147"
       d="m 115.74132,229.88889 h -1.52777 q -1.65799,-1.58855 -3.22049,-2.02257 v 0.24305 q 0,0.94618 -0.54688,1.43229 -0.53819,0.48611 -1.35416,0.48611 -0.76389,0 -1.24132,-0.41666 -0.46875,-0.41667 -0.46875,-1.11111 0,-0.65973 0.52083,-1.1632 0.52952,-0.51215 1.45834,-0.61632 v -3.61979 q -0.2691,0.10417 -0.625,0.10417 -0.67709,0 -1.17188,-0.47743 -0.48611,-0.48611 -0.48611,-1.15452 0,-0.68576 0.48611,-1.17187 0.49479,-0.48611 1.17188,-0.48611 1.0243,0 1.64062,0.63368 0.61632,0.625 0.61632,1.69271 v 4.55729 q 1.5625,0.37326 3.10764,1.51041 v -8.125 h 1.64062 z m -7.0052,-7.6823 q 0.26909,0 0.46006,-0.18229 0.19966,-0.19097 0.19966,-0.45139 0,-0.29514 -0.19966,-0.48611 -0.19097,-0.19097 -0.46006,-0.19097 -0.2691,0 -0.46875,0.19965 -0.19098,0.19097 -0.19098,0.47743 0,0.26042 0.19098,0.45139 0.19965,0.18229 0.46875,0.18229 z m 0.625,6.17188 v -0.67708 q -0.44271,0.0608 -0.70313,0.29513 -0.26042,0.23438 -0.26042,0.50348 0,0.25173 0.13021,0.40798 0.13021,0.14757 0.32986,0.14757 0.50348,0 0.50348,-0.67708 z" />
    <path
       id="path149"
       d="m 128.17188,216.38194 v 15.8507 h -3.68056 v -1.24132 h 2.07466 v -13.36806 h -2.07466 v -1.24132 z" />
  </g>
  <g
     style="font-size:17.7778px;font-family:'DejaVu Sans', sans-serif;text-anchor:middle;fill:#000000"
     id="text75"
     aria-label="[ ข้อความ ]">
    <path
       id="path152"
       d="m 45.819442,284.38194 h 3.680556 v 1.24132 h -2.083333 v 13.36806 h 2.083333 v 1.24132 h -3.680556 z" />
    <path
       id="path154"
       d="m 66.314235,297.88889 h -7.144098 v -1.54514 h 1.102431 v -2.22223 q 0,-0.65972 0.173611,-1.09375 0.182292,-0.4427 0.529514,-0.96354 0.390625,-0.59028 0.486111,-0.92014 0.09549,-0.32986 0.09549,-0.63368 0,-1.42361 -1.197917,-1.42361 -0.225694,0 -0.355902,0.0868 0.711805,0.53819 0.711805,1.3368 0,0.67709 -0.486111,1.15452 -0.486111,0.47743 -1.163194,0.47743 -0.677084,0 -1.163195,-0.47743 -0.47743,-0.48611 -0.47743,-1.17188 0,-1.15451 0.807291,-1.86632 0.815972,-0.7118 2.126736,-0.7118 1.250001,0 2.013889,0.7118 0.763889,0.70313 0.763889,1.86632 0,0.38195 -0.121527,0.81597 -0.112848,0.43403 -0.546875,1.19792 -0.555556,0.95486 -0.555556,1.54514 v 2.29167 h 2.769097 v -8.15973 h 1.631945 z m -7.248264,-6.71875 q 0.269097,0 0.460069,-0.19098 0.199653,-0.19965 0.199653,-0.48611 0,-0.26041 -0.199653,-0.45139 -0.190972,-0.19097 -0.460069,-0.19097 -0.269098,0 -0.46875,0.19097 -0.190973,0.19098 -0.190973,0.45139 0,0.28646 0.190973,0.48611 0.199652,0.19098 0.46875,0.19098 z" />
    <path
       id="path156"
       d="m 69.265625,284.49479 q -1.137153,2.34375 -4.609376,2.8559 l 0.425348,-0.9375 q -0.381945,-0.0521 -0.625,-0.33854 -0.243056,-0.29514 -0.243056,-0.67708 0,-0.41667 0.286458,-0.71181 0.277778,-0.30382 0.694445,-0.30382 0.399305,0 0.685764,0.30382 0.286458,0.29514 0.286458,0.71181 0,0.60763 -0.355903,1.01562 1.440973,-0.37326 2.352431,-1.9184 z m -4.071181,1.20659 q 0.112847,0 0.208333,-0.0868 0.08681,-0.0955 0.08681,-0.21701 0,-0.12153 -0.08681,-0.20834 -0.09549,-0.0955 -0.208333,-0.0955 -0.121528,0 -0.208334,0.0955 -0.09549,0.0868 -0.09549,0.20834 0,0.12152 0.09549,0.21701 0.08681,0.0868 0.208334,0.0868 z" />
    <path
       id="path158"
       d="m 76.921876,297.88889 h -7.664931 v -3.78473 q 0,-1.08507 0.616319,-1.71007 0.61632,-0.625 1.640625,-0.625 0.677084,0 1.163195,0.4948 0.486111,0.48611 0.486111,1.16319 0,0.67708 -0.486111,1.15451 -0.486111,0.47743 -1.163195,0.47743 -0.355903,0 -0.625,-0.10416 v 1.38889 h 4.392361 v -4.47917 q 0,-1.18924 -0.677083,-1.85764 -0.668403,-0.6684 -1.814236,-0.6684 -1.779514,0 -3.498264,1.15451 H 69.1875 v -1.8316 q 1.875,-0.74652 3.567709,-0.74652 2.013889,0 3.090278,1.05034 1.076389,1.04167 1.076389,2.89931 z m -5.407987,-3.81945 q 0.269097,0 0.46007,-0.19097 0.199652,-0.19097 0.199652,-0.45139 0,-0.28646 -0.199652,-0.47743 -0.190973,-0.19965 -0.46007,-0.19965 -0.269097,0 -0.46875,0.19965 -0.190972,0.19097 -0.190972,0.47743 0,0.26042 0.190972,0.45139 0.199653,0.19097 0.46875,0.19097 z" />
    <path
       id="path160"
       d="m 87.868057,297.88889 h -1.640625 v -5.59896 q 0,-2.82986 -2.560764,-2.82986 -1.223959,0 -1.892361,0.72916 -0.668403,0.72049 -0.668403,1.91841 0,1.09375 0.390625,2.43923 0.286458,-1.3368 0.798611,-2.19618 0.512153,-0.85937 1.423611,-0.85937 0.677084,0 1.163195,0.48611 0.494791,0.48611 0.494791,1.16319 0,0.67708 -0.486111,1.1632 -0.486111,0.47743 -1.171875,0.47743 -0.451389,0 -0.798611,-0.21702 -1.085069,1.09375 -1.085069,3.32466 h -1.631945 v -0.74653 q 0,-0.72049 -0.329861,-2.29167 -0.381945,-1.78819 -0.381945,-2.72569 0,-1.88368 1.076389,-3.04688 1.08507,-1.16319 3.098959,-1.16319 4.201389,0 4.201389,4.375 z m -4.131945,-4.10591 q 0.269098,0 0.46007,-0.19097 0.199653,-0.19097 0.199653,-0.45139 0,-0.28646 -0.190973,-0.47743 -0.190972,-0.19965 -0.46875,-0.19965 -0.269097,0 -0.460069,0.19965 -0.190972,0.19097 -0.190972,0.47743 0,0.26042 0.190972,0.45139 0.199653,0.19097 0.460069,0.19097 z" />
    <path
       id="path162"
       d="m 96.487848,295.70139 q 0,1.07638 -0.616319,1.70138 -0.607639,0.625 -1.640625,0.625 -0.677083,0 -1.163195,-0.48611 -0.486111,-0.48611 -0.486111,-1.16319 0,-0.67708 0.486111,-1.15452 0.486112,-0.47743 1.163195,-0.47743 0.355903,0 0.625,0.10417 v -3.18576 q 0,-1.11979 -0.538194,-1.71007 -0.529514,-0.59896 -1.467014,-0.59896 -1.432292,0 -2.934028,0.88542 H 89.80382 v -1.71875 q 1.536459,-0.59028 3.046876,-0.59028 3.637152,0 3.637152,3.62847 z m -2.256944,1.35416 q 0.277778,0 0.46875,-0.19097 0.190972,-0.19965 0.190972,-0.48611 0,-0.26042 -0.199653,-0.45139 -0.190972,-0.19097 -0.460069,-0.19097 -0.269097,0 -0.46875,0.19097 -0.190972,0.19097 -0.190972,0.45139 0,0.28646 0.190972,0.48611 0.199653,0.19097 0.46875,0.19097 z" />
    <path
       id="path164"
       d="m 105.09896,297.88889 h -1.63195 v -6.22396 q 0,-1.11979 -0.53819,-1.71007 -0.52951,-0.59896 -1.46701,-0.59896 -1.4323,0 -2.934032,0.88542 h -0.112847 v -1.71875 q 1.536458,-0.59028 3.046879,-0.59028 3.63715,0 3.63715,3.62847 z" />
    <path
       id="path166"
       d="m 115.74132,297.88889 h -1.52777 q -1.65799,-1.58855 -3.22049,-2.02257 v 0.24305 q 0,0.94618 -0.54688,1.43229 -0.53819,0.48611 -1.35416,0.48611 -0.76389,0 -1.24132,-0.41666 -0.46875,-0.41667 -0.46875,-1.11111 0,-0.65973 0.52083,-1.1632 0.52952,-0.51215 1.45834,-0.61632 v -3.61979 q -0.2691,0.10417 -0.625,0.10417 -0.67709,0 -1.17188,-0.47743 -0.48611,-0.48611 -0.48611,-1.15452 0,-0.68576 0.48611,-1.17187 0.49479,-0.48611 1.17188,-0.48611 1.0243,0 1.64062,0.63368 0.61632,0.625 0.61632,1.69271 v 4.55729 q 1.5625,0.37326 3.10764,1.51041 v -8.125 h 1.64062 z m -7.0052,-7.6823 q 0.26909,0 0.46006,-0.18229 0.19966,-0.19097 0.19966,-0.45139 0,-0.29514 -0.19966,-0.48611 -0.19097,-0.19097 -0.46006,-0.19097 -0.2691,0 -0.46875,0.19965 -0.19098,0.19097 -0.19098,0.47743 0,0.26042 0.19098,0.45139 0.19965,0.18229 0.46875,0.18229 z m 0.625,6.17188 v -0.67708 q -0.44271,0.0608 -0.70313,0.29513 -0.26042,0.23438 -0.26042,0.50348 0,0.25173 0.13021,0.40798 0.13021,0.14757 0.32986,0.14757 0.50348,0 0.50348,-0.67708 z" />
    <path
       id="path168"
       d="m 128.17188,284.38194 v 15.8507 h -3.68056 v -1.24132 h 2.07466 v -13.36806 h -2.07466 v -1.24132 z" />
  </g>
  <g
     style="font-size:17.7778px;font-family:'DejaVu Sans', sans-serif;text-anchor:middle;fill:#000000"
     id="text79"
     aria-label="[ ข้อความ ]">
    <path
       id="path171"
       d="M 168.81944,139.38194 H 172.5 v 1.24132 h -2.08334 v 13.36806 H 172.5 v 1.24132 h -3.68056 z" />
    <path
       id="path173"
       d="m 189.31423,152.88889 h -7.14409 v -1.54514 h 1.10243 v -2.22223 q 0,-0.65972 0.17361,-1.09375 0.18229,-0.4427 0.52951,-0.96354 0.39063,-0.59028 0.48611,-0.92014 0.0955,-0.32986 0.0955,-0.63368 0,-1.42361 -1.19792,-1.42361 -0.22569,0 -0.3559,0.0868 0.71181,0.53819 0.71181,1.3368 0,0.67709 -0.48611,1.15452 -0.48612,0.47743 -1.1632,0.47743 -0.67708,0 -1.16319,-0.47743 -0.47743,-0.48611 -0.47743,-1.17188 0,-1.15451 0.80729,-1.86632 0.81597,-0.7118 2.12673,-0.7118 1.25,0 2.01389,0.7118 0.76389,0.70313 0.76389,1.86632 0,0.38195 -0.12153,0.81597 -0.11284,0.43403 -0.54687,1.19792 -0.55556,0.95486 -0.55556,1.54514 v 2.29167 h 2.7691 v -8.15973 h 1.63194 z m -7.24826,-6.71875 q 0.2691,0 0.46007,-0.19098 0.19965,-0.19965 0.19965,-0.48611 0,-0.26041 -0.19965,-0.45139 -0.19097,-0.19097 -0.46007,-0.19097 -0.2691,0 -0.46875,0.19097 -0.19097,0.19098 -0.19097,0.45139 0,0.28646 0.19097,0.48611 0.19965,0.19098 0.46875,0.19098 z" />
    <path
       id="path175"
       d="m 192.26562,139.49479 q -1.13715,2.34375 -4.60937,2.8559 l 0.42535,-0.9375 q -0.38195,-0.0521 -0.625,-0.33854 -0.24306,-0.29514 -0.24306,-0.67708 0,-0.41667 0.28646,-0.71181 0.27778,-0.30382 0.69444,-0.30382 0.39931,0 0.68577,0.30382 0.28646,0.29514 0.28646,0.71181 0,0.60763 -0.35591,1.01562 1.44098,-0.37326 2.35243,-1.9184 z m -4.07118,1.20659 q 0.11285,0 0.20834,-0.0868 0.0868,-0.0955 0.0868,-0.21701 0,-0.12153 -0.0868,-0.20834 -0.0955,-0.0955 -0.20834,-0.0955 -0.12152,0 -0.20833,0.0955 -0.0955,0.0868 -0.0955,0.20834 0,0.12152 0.0955,0.21701 0.0868,0.0868 0.20833,0.0868 z" />
    <path
       id="path177"
       d="m 199.92188,152.88889 h -7.66494 v -3.78473 q 0,-1.08507 0.61632,-1.71007 0.61632,-0.625 1.64063,-0.625 0.67708,0 1.16319,0.4948 0.48611,0.48611 0.48611,1.16319 0,0.67708 -0.48611,1.15451 -0.48611,0.47743 -1.16319,0.47743 -0.3559,0 -0.625,-0.10416 v 1.38889 h 4.39236 v -4.47917 q 0,-1.18924 -0.67708,-1.85764 -0.66841,-0.6684 -1.81424,-0.6684 -1.77951,0 -3.49826,1.15451 h -0.10417 v -1.8316 q 1.875,-0.74652 3.56771,-0.74652 2.01389,0 3.09028,1.05034 1.07639,1.04167 1.07639,2.89931 z m -5.40799,-3.81945 q 0.2691,0 0.46007,-0.19097 0.19965,-0.19097 0.19965,-0.45139 0,-0.28646 -0.19965,-0.47743 -0.19097,-0.19965 -0.46007,-0.19965 -0.2691,0 -0.46875,0.19965 -0.19097,0.19097 -0.19097,0.47743 0,0.26042 0.19097,0.45139 0.19965,0.19097 0.46875,0.19097 z" />
    <path
       id="path179"
       d="m 210.86806,152.88889 h -1.64063 v -5.59896 q 0,-2.82986 -2.56076,-2.82986 -1.22396,0 -1.89236,0.72916 -0.66841,0.72049 -0.66841,1.91841 0,1.09375 0.39063,2.43923 0.28646,-1.3368 0.79861,-2.19618 0.51215,-0.85937 1.42361,-0.85937 0.67708,0 1.1632,0.48611 0.49479,0.48611 0.49479,1.16319 0,0.67708 -0.48611,1.1632 -0.48611,0.47743 -1.17188,0.47743 -0.45139,0 -0.79861,-0.21702 -1.08507,1.09375 -1.08507,3.32466 h -1.63194 v -0.74653 q 0,-0.72049 -0.32987,-2.29167 -0.38194,-1.78819 -0.38194,-2.72569 0,-1.88368 1.07639,-3.04688 1.08507,-1.16319 3.09896,-1.16319 4.20139,0 4.20139,4.375 z m -4.13195,-4.10591 q 0.2691,0 0.46007,-0.19097 0.19965,-0.19097 0.19965,-0.45139 0,-0.28646 -0.19097,-0.47743 -0.19097,-0.19965 -0.46875,-0.19965 -0.26909,0 -0.46007,0.19965 -0.19097,0.19097 -0.19097,0.47743 0,0.26042 0.19097,0.45139 0.19966,0.19097 0.46007,0.19097 z" />
    <path
       id="path181"
       d="m 219.48785,150.70139 q 0,1.07638 -0.61632,1.70138 -0.60764,0.625 -1.64063,0.625 -0.67708,0 -1.16319,-0.48611 -0.48611,-0.48611 -0.48611,-1.16319 0,-0.67708 0.48611,-1.15452 0.48611,-0.47743 1.16319,-0.47743 0.35591,0 0.625,0.10417 v -3.18576 q 0,-1.11979 -0.53819,-1.71007 -0.52951,-0.59896 -1.46701,-0.59896 -1.4323,0 -2.93403,0.88542 h -0.11285 v -1.71875 q 1.53646,-0.59028 3.04688,-0.59028 3.63715,0 3.63715,3.62847 z m -2.25695,1.35416 q 0.27778,0 0.46875,-0.19097 0.19098,-0.19965 0.19098,-0.48611 0,-0.26042 -0.19966,-0.45139 -0.19097,-0.19097 -0.46007,-0.19097 -0.26909,0 -0.46875,0.19097 -0.19097,0.19097 -0.19097,0.45139 0,0.28646 0.19097,0.48611 0.19966,0.19097 0.46875,0.19097 z" />
    <path
       id="path183"
       d="m 228.09896,152.88889 h -1.63195 v -6.22396 q 0,-1.11979 -0.53819,-1.71007 -0.52951,-0.59896 -1.46701,-0.59896 -1.4323,0 -2.93403,0.88542 h -0.11285 v -1.71875 q 1.53646,-0.59028 3.04688,-0.59028 3.63715,0 3.63715,3.62847 z" />
    <path
       id="path185"
       d="m 238.74132,152.88889 h -1.52777 q -1.65799,-1.58855 -3.22049,-2.02257 v 0.24305 q 0,0.94618 -0.54688,1.43229 -0.53819,0.48611 -1.35416,0.48611 -0.76389,0 -1.24132,-0.41666 -0.46875,-0.41667 -0.46875,-1.11111 0,-0.65973 0.52083,-1.1632 0.52952,-0.51215 1.45834,-0.61632 v -3.61979 q -0.2691,0.10417 -0.625,0.10417 -0.67709,0 -1.17188,-0.47743 -0.48611,-0.48611 -0.48611,-1.15452 0,-0.68576 0.48611,-1.17187 0.49479,-0.48611 1.17188,-0.48611 1.0243,0 1.64062,0.63368 0.61632,0.625 0.61632,1.69271 v 4.55729 q 1.5625,0.37326 3.10764,1.51041 v -8.125 h 1.64062 z m -7.0052,-7.6823 q 0.26909,0 0.46006,-0.18229 0.19966,-0.19097 0.19966,-0.45139 0,-0.29514 -0.19966,-0.48611 -0.19097,-0.19097 -0.46006,-0.19097 -0.2691,0 -0.46875,0.19965 -0.19098,0.19097 -0.19098,0.47743 0,0.26042 0.19098,0.45139 0.19965,0.18229 0.46875,0.18229 z m 0.625,6.17188 v -0.67708 q -0.44271,0.0608 -0.70313,0.29513 -0.26042,0.23438 -0.26042,0.50348 0,0.25173 0.13021,0.40798 0.13021,0.14757 0.32986,0.14757 0.50348,0 0.50348,-0.67708 z" />
    <path
       id="path187"
       d="m 251.17188,139.38194 v 15.8507 h -3.68056 v -1.24132 h 2.07466 v -13.36806 h -2.07466 v -1.24132 z" />
  </g>
  <g
     style="font-size:17.7778px;font-family:'DejaVu Sans', sans-serif;text-anchor:middle;fill:#000000"
     id="text83"
     aria-label="[ ข้อความ ]">
    <path
       id="path190"
       d="M 168.81944,216.38194 H 172.5 v 1.24132 h -2.08334 v 13.36806 H 172.5 v 1.24132 h -3.68056 z" />
    <path
       id="path192"
       d="m 189.31423,229.88889 h -7.14409 v -1.54514 h 1.10243 v -2.22223 q 0,-0.65972 0.17361,-1.09375 0.18229,-0.4427 0.52951,-0.96354 0.39063,-0.59028 0.48611,-0.92014 0.0955,-0.32986 0.0955,-0.63368 0,-1.42361 -1.19792,-1.42361 -0.22569,0 -0.3559,0.0868 0.71181,0.53819 0.71181,1.3368 0,0.67709 -0.48611,1.15452 -0.48612,0.47743 -1.1632,0.47743 -0.67708,0 -1.16319,-0.47743 -0.47743,-0.48611 -0.47743,-1.17188 0,-1.15451 0.80729,-1.86632 0.81597,-0.7118 2.12673,-0.7118 1.25,0 2.01389,0.7118 0.76389,0.70313 0.76389,1.86632 0,0.38195 -0.12153,0.81597 -0.11284,0.43403 -0.54687,1.19792 -0.55556,0.95486 -0.55556,1.54514 v 2.29167 h 2.7691 v -8.15973 h 1.63194 z m -7.24826,-6.71875 q 0.2691,0 0.46007,-0.19098 0.19965,-0.19965 0.19965,-0.48611 0,-0.26041 -0.19965,-0.45139 -0.19097,-0.19097 -0.46007,-0.19097 -0.2691,0 -0.46875,0.19097 -0.19097,0.19098 -0.19097,0.45139 0,0.28646 0.19097,0.48611 0.19965,0.19098 0.46875,0.19098 z" />
    <path
       id="path194"
       d="m 192.26562,216.49479 q -1.13715,2.34375 -4.60937,2.8559 l 0.42535,-0.9375 q -0.38195,-0.0521 -0.625,-0.33854 -0.24306,-0.29514 -0.24306,-0.67708 0,-0.41667 0.28646,-0.71181 0.27778,-0.30382 0.69444,-0.30382 0.39931,0 0.68577,0.30382 0.28646,0.29514 0.28646,0.71181 0,0.60763 -0.35591,1.01562 1.44098,-0.37326 2.35243,-1.9184 z m -4.07118,1.20659 q 0.11285,0 0.20834,-0.0868 0.0868,-0.0955 0.0868,-0.21701 0,-0.12153 -0.0868,-0.20834 -0.0955,-0.0955 -0.20834,-0.0955 -0.12152,0 -0.20833,0.0955 -0.0955,0.0868 -0.0955,0.20834 0,0.12152 0.0955,0.21701 0.0868,0.0868 0.20833,0.0868 z" />
    <path
       id="path196"
       d="m 199.92188,229.88889 h -7.66494 v -3.78473 q 0,-1.08507 0.61632,-1.71007 0.61632,-0.625 1.64063,-0.625 0.67708,0 1.16319,0.4948 0.48611,0.48611 0.48611,1.16319 0,0.67708 -0.48611,1.15451 -0.48611,0.47743 -1.16319,0.47743 -0.3559,0 -0.625,-0.10416 v 1.38889 h 4.39236 v -4.47917 q 0,-1.18924 -0.67708,-1.85764 -0.66841,-0.6684 -1.81424,-0.6684 -1.77951,0 -3.49826,1.15451 h -0.10417 v -1.8316 q 1.875,-0.74652 3.56771,-0.74652 2.01389,0 3.09028,1.05034 1.07639,1.04167 1.07639,2.89931 z m -5.40799,-3.81945 q 0.2691,0 0.46007,-0.19097 0.19965,-0.19097 0.19965,-0.45139 0,-0.28646 -0.19965,-0.47743 -0.19097,-0.19965 -0.46007,-0.19965 -0.2691,0 -0.46875,0.19965 -0.19097,0.19097 -0.19097,0.47743 0,0.26042 0.19097,0.45139 0.19965,0.19097 0.46875,0.19097 z" />
    <path
       id="path198"
       d="m 210.86806,229.88889 h -1.64063 v -5.59896 q 0,-2.82986 -2.56076,-2.82986 -1.22396,0 -1.89236,0.72916 -0.66841,0.72049 -0.66841,1.91841 0,1.09375 0.39063,2.43923 0.28646,-1.3368 0.79861,-2.19618 0.51215,-0.85937 1.42361,-0.85937 0.67708,0 1.1632,0.48611 0.49479,0.48611 0.49479,1.16319 0,0.67708 -0.48611,1.1632 -0.48611,0.47743 -1.17188,0.47743 -0.45139,0 -0.79861,-0.21702 -1.08507,1.09375 -1.08507,3.32466 h -1.63194 v -0.74653 q 0,-0.72049 -0.32987,-2.29167 -0.38194,-1.78819 -0.38194,-2.72569 0,-1.88368 1.07639,-3.04688 1.08507,-1.16319 3.09896,-1.16319 4.20139,0 4.20139,4.375 z m -4.13195,-4.10591 q 0.2691,0 0.46007,-0.19097 0.19965,-0.19097 0.19965,-0.45139 0,-0.28646 -0.19097,-0.47743 -0.19097,-0.19965 -0.46875,-0.19965 -0.26909,0 -0.46007,0.19965 -0.19097,0.19097 -0.19097,0.47743 0,0.26042 0.19097,0.45139 0.19966,0.19097 0.46007,0.19097 z" />
    <path
       id="path200"
       d="m 219.48785,227.70139 q 0,1.07638 -0.61632,1.70138 -0.60764,0.625 -1.64063,0.625 -0.67708,0 -1.16319,-0.48611 -0.48611,-0.48611 -0.48611,-1.16319 0,-0.67708 0.48611,-1.15452 0.48611,-0.47743 1.16319,-0.47743 0.35591,0 0.625,0.10417 v -3.18576 q 0,-1.11979 -0.53819,-1.71007 -0.52951,-0.59896 -1.46701,-0.59896 -1.4323,0 -2.93403,0.88542 h -0.11285 v -1.71875 q 1.53646,-0.59028 3.04688,-0.59028 3.63715,0 3.63715,3.62847 z m -2.25695,1.35416 q 0.27778,0 0.46875,-0.19097 0.19098,-0.19965 0.19098,-0.48611 0,-0.26042 -0.19966,-0.45139 -0.19097,-0.19097 -0.46007,-0.19097 -0.26909,0 -0.46875,0.19097 -0.19097,0.19097 -0.19097,0.45139 0,0.28646 0.19097,0.48611 0.19966,0.19097 0.46875,0.19097 z" />
    <path
       id="path202"
       d="m 228.09896,229.88889 h -1.63195 v -6.22396 q 0,-1.11979 -0.53819,-1.71007 -0.52951,-0.59896 -1.46701,-0.59896 -1.4323,0 -2.93403,0.88542 h -0.11285 v -1.71875 q 1.53646,-0.59028 3.04688,-0.59028 3.63715,0 3.63715,3.62847 z" />
    <path
       id="path204"
       d="m 238.74132,229.88889 h -1.52777 q -1.65799,-1.58855 -3.22049,-2.02257 v 0.24305 q 0,0.94618 -0.54688,1.43229 -0.53819,0.48611 -1.35416,0.48611 -0.76389,0 -1.24132,-0.41666 -0.46875,-0.41667 -0.46875,-1.11111 0,-0.65973 0.52083,-1.1632 0.52952,-0.51215 1.45834,-0.61632 v -3.61979 q -0.2691,0.10417 -0.625,0.10417 -0.67709,0 -1.17188,-0.47743 -0.48611,-0.48611 -0.48611,-1.15452 0,-0.68576 0.48611,-1.17187 0.49479,-0.48611 1.17188,-0.48611 1.0243,0 1.64062,0.63368 0.61632,0.625 0.61632,1.69271 v 4.55729 q 1.5625,0.37326 3.10764,1.51041 v -8.125 h 1.64062 z m -7.0052,-7.6823 q 0.26909,0 0.46006,-0.18229 0.19966,-0.19097 0.19966,-0.45139 0,-0.29514 -0.19966,-0.48611 -0.19097,-0.19097 -0.46006,-0.19097 -0.2691,0 -0.46875,0.19965 -0.19098,0.19097 -0.19098,0.47743 0,0.26042 0.19098,0.45139 0.19965,0.18229 0.46875,0.18229 z m 0.625,6.17188 v -0.67708 q -0.44271,0.0608 -0.70313,0.29513 -0.26042,0.23438 -0.26042,0.50348 0,0.25173 0.13021,0.40798 0.13021,0.14757 0.32986,0.14757 0.50348,0 0.50348,-0.67708 z" />
    <path
       id="path206"
       d="m 251.17188,216.38194 v 15.8507 h -3.68056 v -1.24132 h 2.07466 v -13.36806 h -2.07466 v -1.24132 z" />
  </g>
  <g
     style="font-size:17.7778px;font-family:'DejaVu Sans', sans-serif;text-anchor:middle;fill:#000000"
     id="text87"
     aria-label="[ ข้อความ ]">
    <path
       id="path209"
       d="M 168.81944,284.38194 H 172.5 v 1.24132 h -2.08334 v 13.36806 H 172.5 v 1.24132 h -3.68056 z" />
    <path
       id="path211"
       d="m 189.31423,297.88889 h -7.14409 v -1.54514 h 1.10243 v -2.22223 q 0,-0.65972 0.17361,-1.09375 0.18229,-0.4427 0.52951,-0.96354 0.39063,-0.59028 0.48611,-0.92014 0.0955,-0.32986 0.0955,-0.63368 0,-1.42361 -1.19792,-1.42361 -0.22569,0 -0.3559,0.0868 0.71181,0.53819 0.71181,1.3368 0,0.67709 -0.48611,1.15452 -0.48612,0.47743 -1.1632,0.47743 -0.67708,0 -1.16319,-0.47743 -0.47743,-0.48611 -0.47743,-1.17188 0,-1.15451 0.80729,-1.86632 0.81597,-0.7118 2.12673,-0.7118 1.25,0 2.01389,0.7118 0.76389,0.70313 0.76389,1.86632 0,0.38195 -0.12153,0.81597 -0.11284,0.43403 -0.54687,1.19792 -0.55556,0.95486 -0.55556,1.54514 v 2.29167 h 2.7691 v -8.15973 h 1.63194 z m -7.24826,-6.71875 q 0.2691,0 0.46007,-0.19098 0.19965,-0.19965 0.19965,-0.48611 0,-0.26041 -0.19965,-0.45139 -0.19097,-0.19097 -0.46007,-0.19097 -0.2691,0 -0.46875,0.19097 -0.19097,0.19098 -0.19097,0.45139 0,0.28646 0.19097,0.48611 0.19965,0.19098 0.46875,0.19098 z" />
    <path
       id="path213"
       d="m 192.26562,284.49479 q -1.13715,2.34375 -4.60937,2.8559 l 0.42535,-0.9375 q -0.38195,-0.0521 -0.625,-0.33854 -0.24306,-0.29514 -0.24306,-0.67708 0,-0.41667 0.28646,-0.71181 0.27778,-0.30382 0.69444,-0.30382 0.39931,0 0.68577,0.30382 0.28646,0.29514 0.28646,0.71181 0,0.60763 -0.35591,1.01562 1.44098,-0.37326 2.35243,-1.9184 z m -4.07118,1.20659 q 0.11285,0 0.20834,-0.0868 0.0868,-0.0955 0.0868,-0.21701 0,-0.12153 -0.0868,-0.20834 -0.0955,-0.0955 -0.20834,-0.0955 -0.12152,0 -0.20833,0.0955 -0.0955,0.0868 -0.0955,0.20834 0,0.12152 0.0955,0.21701 0.0868,0.0868 0.20833,0.0868 z" />
    <path
       id="path215"
       d="m 199.92188,297.88889 h -7.66494 v -3.78473 q 0,-1.08507 0.61632,-1.71007 0.61632,-0.625 1.64063,-0.625 0.67708,0 1.16319,0.4948 0.48611,0.48611 0.48611,1.16319 0,0.67708 -0.48611,1.15451 -0.48611,0.47743 -1.16319,0.47743 -0.3559,0 -0.625,-0.10416 v 1.38889 h 4.39236 v -4.47917 q 0,-1.18924 -0.67708,-1.85764 -0.66841,-0.6684 -1.81424,-0.6684 -1.77951,0 -3.49826,1.15451 h -0.10417 v -1.8316 q 1.875,-0.74652 3.56771,-0.74652 2.01389,0 3.09028,1.05034 1.07639,1.04167 1.07639,2.89931 z m -5.40799,-3.81945 q 0.2691,0 0.46007,-0.19097 0.19965,-0.19097 0.19965,-0.45139 0,-0.28646 -0.19965,-0.47743 -0.19097,-0.19965 -0.46007,-0.19965 -0.2691,0 -0.46875,0.19965 -0.19097,0.19097 -0.19097,0.47743 0,0.26042 0.19097,0.45139 0.19965,0.19097 0.46875,0.19097 z" />
    <path
       id="path217"
       d="m 210.86806,297.88889 h -1.64063 v -5.59896 q 0,-2.82986 -2.56076,-2.82986 -1.22396,0 -1.89236,0.72916 -0.66841,0.72049 -0.66841,1.91841 0,1.09375 0.39063,2.43923 0.28646,-1.3368 0.79861,-2.19618 0.51215,-0.85937 1.42361,-0.85937 0.67708,0 1.1632,0.48611 0.49479,0.48611 0.49479,1.16319 0,0.67708 -0.48611,1.1632 -0.48611,0.47743 -1.17188,0.47743 -0.45139,0 -0.79861,-0.21702 -1.08507,1.09375 -1.08507,3.32466 h -1.63194 v -0.74653 q 0,-0.72049 -0.32987,-2.29167 -0.38194,-1.78819 -0.38194,-2.72569 0,-1.88368 1.07639,-3.04688 1.08507,-1.16319 3.09896,-1.16319 4.20139,0 4.20139,4.375 z m -4.13195,-4.10591 q 0.2691,0 0.46007,-0.19097 0.19965,-0.19097 0.19965,-0.45139 0,-0.28646 -0.19097,-0.47743 -0.19097,-0.19965 -0.46875,-0.19965 -0.26909,0 -0.46007,0.19965 -0.19097,0.19097 -0.19097,0.47743 0,0.26042 0.19097,0.45139 0.19966,0.19097 0.46007,0.19097 z" />
    <path
       id="path219"
       d="m 219.48785,295.70139 q 0,1.07638 -0.61632,1.70138 -0.60764,0.625 -1.64063,0.625 -0.67708,0 -1.16319,-0.48611 -0.48611,-0.48611 -0.48611,-1.16319 0,-0.67708 0.48611,-1.15452 0.48611,-0.47743 1.16319,-0.47743 0.35591,0 0.625,0.10417 v -3.18576 q 0,-1.11979 -0.53819,-1.71007 -0.52951,-0.59896 -1.46701,-0.59896 -1.4323,0 -2.93403,0.88542 h -0.11285 v -1.71875 q 1.53646,-0.59028 3.04688,-0.59028 3.63715,0 3.63715,3.62847 z m -2.25695,1.35416 q 0.27778,0 0.46875,-0.19097 0.19098,-0.19965 0.19098,-0.48611 0,-0.26042 -0.19966,-0.45139 -0.19097,-0.19097 -0.46007,-0.19097 -0.26909,0 -0.46875,0.19097 -0.19097,0.19097 -0.19097,0.45139 0,0.28646 0.19097,0.48611 0.19966,0.19097 0.46875,0.19097 z" />
    <path
       id="path221"
       d="m 228.09896,297.88889 h -1.63195 v -6.22396 q 0,-1.11979 -0.53819,-1.71007 -0.52951,-0.59896 -1.46701,-0.59896 -1.4323,0 -2.93403,0.88542 h -0.11285 v -1.71875 q 1.53646,-0.59028 3.04688,-0.59028 3.63715,0 3.63715,3.62847 z" />
    <path
       id="path223"
       d="m 238.74132,297.88889 h -1.52777 q -1.65799,-1.58855 -3.22049,-2.02257 v 0.24305 q 0,0.94618 -0.54688,1.43229 -0.53819,0.48611 -1.35416,0.48611 -0.76389,0 -1.24132,-0.41666 -0.46875,-0.41667 -0.46875,-1.11111 0,-0.65973 0.52083,-1.1632 0.52952,-0.51215 1.45834,-0.61632 v -3.61979 q -0.2691,0.10417 -0.625,0.10417 -0.67709,0 -1.17188,-0.47743 -0.48611,-0.48611 -0.48611,-1.15452 0,-0.68576 0.48611,-1.17187 0.49479,-0.48611 1.17188,-0.48611 1.0243,0 1.64062,0.63368 0.61632,0.625 0.61632,1.69271 v 4.55729 q 1.5625,0.37326 3.10764,1.51041 v -8.125 h 1.64062 z m -7.0052,-7.6823 q 0.26909,0 0.46006,-0.18229 0.19966,-0.19097 0.19966,-0.45139 0,-0.29514 -0.19966,-0.48611 -0.19097,-0.19097 -0.46006,-0.19097 -0.2691,0 -0.46875,0.19965 -0.19098,0.19097 -0.19098,0.47743 0,0.26042 0.19098,0.45139 0.19965,0.18229 0.46875,0.18229 z m 0.625,6.17188 v -0.67708 q -0.44271,0.0608 -0.70313,0.29513 -0.26042,0.23438 -0.26042,0.50348 0,0.25173 0.13021,0.40798 0.13021,0.14757 0.32986,0.14757 0.50348,0 0.50348,-0.67708 z" />
    <path
       id="path225"
       d="m 251.17188,284.38194 v 15.8507 h -3.68056 v -1.24132 h 2.07466 v -13.36806 h -2.07466 v -1.24132 z" />
  </g>
</svg>
