<?xml version="1.0" encoding="UTF-8" standalone="no"?>
<svg
   xmlns:dc="http://purl.org/dc/elements/1.1/"
   xmlns:cc="http://creativecommons.org/ns#"
   xmlns:rdf="http://www.w3.org/1999/02/22-rdf-syntax-ns#"
   xmlns:svg="http://www.w3.org/2000/svg"
   xmlns="http://www.w3.org/2000/svg"
   id="svg89"
   stroke-miterlimit="10"
   stroke-linecap="square"
   stroke="none"
   fill="none"
   viewBox="0.0 0.0 348.0 348.0"
   version="1.1">
  <metadata
     id="metadata95">
    <rdf:RDF>
      <cc:Work
         rdf:about="">
        <dc:format>image/svg+xml</dc:format>
        <dc:type
           rdf:resource="http://purl.org/dc/dcmitype/StillImage" />
      </cc:Work>
    </rdf:RDF>
  </metadata>
  <defs
     id="defs93" />
  <clipPath
     id="p.0">
    <path
       id="path2"
       clip-rule="nonzero"
       d="m0 0l348.0 0l0 348.0l-348.0 0l0 -348.0z" />
  </clipPath>
  <g
     id="g59"
     clip-path="url(#p.0)">
    <path
       style="fill:#000000;fill-opacity:0;fill-rule:nonzero"
       id="path5"
       d="M 0,0 H 348 V 348 H 0 Z" />
    <path
       style="fill:#ffffff;fill-rule:nonzero"
       id="path7"
       d="M -6,0 H 342 V 347.9685 H -6 Z" />
    <path
       style="fill:#000000;fill-opacity:0;fill-rule:nonzero"
       id="path9"
       d="m 5.07874,5.7758217 h 336.9134 V 343.44512 H 5.07874 Z" />
    <path
       style="fill-rule:nonzero;stroke:#000000;stroke-width:2;stroke-linecap:butt;stroke-linejoin:round"
       id="path11"
       d="m 5.07874,5.7758217 h 336.9134 V 343.44512 H 5.07874 Z" />
    <path
       style="fill:#ffffff;fill-rule:nonzero"
       id="path13"
       d="m 282.73444,40.553925 v 0 c 0,-8.375591 6.96603,-15.165352 15.55905,-15.165352 v 0 c 4.12653,0 8.08402,1.597773 11.00192,4.441828 2.91788,2.844057 4.55713,6.701422 4.55713,10.723524 v 0 c 0,8.375595 -6.966,15.165356 -15.55905,15.165356 v 0 c -8.59302,0 -15.55905,-6.789761 -15.55905,-15.165356 z" />
    <path
       style="fill-rule:nonzero;stroke:#000000;stroke-width:2;stroke-linecap:butt;stroke-linejoin:round"
       id="path15"
       d="m 282.73444,40.553925 v 0 c 0,-8.375591 6.96603,-15.165352 15.55905,-15.165352 v 0 c 4.12653,0 8.08402,1.597773 11.00192,4.441828 2.91788,2.844057 4.55713,6.701422 4.55713,10.723524 v 0 c 0,8.375595 -6.966,15.165356 -15.55905,15.165356 v 0 c -8.59302,0 -15.55905,-6.789761 -15.55905,-15.165356 z" />
    <path
       style="fill:#000000;fill-rule:nonzero"
       id="path17"
       d="M 34.771652,25.389738 H 267.18112 v 67.55905 H 34.771652 Z" />
    <path
       style="fill-rule:nonzero;stroke:#000000;stroke-width:2;stroke-linecap:butt;stroke-linejoin:round"
       id="path19"
       d="M 34.771652,25.389738 H 267.18112 v 67.55905 H 34.771652 Z" />
    <path
       style="fill-rule:nonzero;stroke:#000000;stroke-width:1;stroke-linecap:butt;stroke-linejoin:round"
       id="path21"
       d="M 34.771652,202.31795 H 141.41733 v 44.81891 H 34.771652 Z" />
    <path
       style="fill:#000000;fill-opacity:0;fill-rule:nonzero"
       id="path23"
       d="M 34.771652,125.22639 H 141.41733 v 44.8189 H 34.771652 Z" />
    <path
       style="fill-rule:nonzero;stroke:#000000;stroke-width:1;stroke-linecap:butt;stroke-linejoin:round"
       id="path25"
       d="M 34.771652,125.22639 H 141.41733 v 44.8189 H 34.771652 Z" />
    <path
       style="fill:#000000;fill-opacity:0;fill-rule:nonzero"
       id="path27"
       d="M 34.771652,270.60397 H 141.41733 v 44.81891 H 34.771652 Z" />
    <path
       style="fill-rule:nonzero;stroke:#000000;stroke-width:1;stroke-linecap:butt;stroke-linejoin:round"
       id="path29"
       d="M 34.771652,270.60397 H 141.41733 v 44.81891 H 34.771652 Z" />
    <path
       style="fill:#000000;fill-opacity:0;fill-rule:nonzero"
       id="path31"
       d="m 157.40683,202.31795 h 106.64566 v 44.81891 H 157.40683 Z" />
    <path
       style="fill-rule:nonzero;stroke:#000000;stroke-width:1;stroke-linecap:butt;stroke-linejoin:round"
       id="path33"
       d="m 157.40683,202.31795 h 106.64566 v 44.81891 H 157.40683 Z" />
    <path
       style="fill:#000000;fill-opacity:0;fill-rule:nonzero"
       id="path35"
       d="m 157.40683,125.22639 h 106.64566 v 44.8189 H 157.40683 Z" />
    <path
       style="fill-rule:nonzero;stroke:#000000;stroke-width:1;stroke-linecap:butt;stroke-linejoin:round"
       id="path37"
       d="m 157.40683,125.22639 h 106.64566 v 44.8189 H 157.40683 Z" />
    <path
       style="fill:#000000;fill-opacity:0;fill-rule:nonzero"
       id="path39"
       d="m 157.40683,270.60397 h 106.64566 v 44.81891 H 157.40683 Z" />
    <path
       style="fill-rule:nonzero;stroke:#000000;stroke-width:1;stroke-linecap:butt;stroke-linejoin:round"
       id="path41"
       d="m 157.40683,270.60397 h 106.64566 v 44.81891 H 157.40683 Z" />
    <path
       style="fill:#000000;fill-rule:nonzero"
       id="path43"
       d="m 277.46194,106.3832 h 52.66141 v 209.03937 h -52.66141 z" />
    <path
       style="fill-rule:nonzero;stroke:#000000;stroke-width:2;stroke-linecap:butt;stroke-linejoin:round"
       id="path45"
       d="m 277.46194,106.3832 h 52.66141 v 209.03937 h -52.66141 z" />
    <path
       style="fill:#ffffff;fill-rule:nonzero"
       id="path47"
       d="m 290.06036,245.11285 h 27.46457 v 16.47244 h -27.46457 z" />
    <path
       style="fill-rule:nonzero;stroke:#000000;stroke-width:2;stroke-linecap:butt;stroke-linejoin:round"
       id="path49"
       d="m 290.06036,245.11285 h 27.46457 v 16.47244 h -27.46457 z" />
    <path
       style="fill:#ffffff;fill-rule:nonzero"
       id="path51"
       d="m 290.06036,208.9029 h 27.46457 v 16.47243 h -27.46457 z" />
    <path
       style="fill-rule:nonzero;stroke:#000000;stroke-width:2;stroke-linecap:butt;stroke-linejoin:round"
       id="path53"
       d="m 290.06036,208.9029 h 27.46457 v 16.47243 h -27.46457 z" />
    <path
       style="fill:#ffffff;fill-rule:nonzero"
       id="path55"
       d="m 290.06036,281.32285 h 27.46457 v 16.47244 h -27.46457 z" />
    <path
       style="fill-rule:nonzero;stroke:#000000;stroke-width:2;stroke-linecap:butt;stroke-linejoin:round"
       id="path57"
       d="m 290.06036,281.32285 h 27.46457 v 16.47244 h -27.46457 z" />
  </g>
  <g
     id="text63"
     style="font-size:32px;font-family:'DejaVu Sans', sans-serif;text-anchor:middle;fill:#ffffff"
     aria-label="[ จอแสดง ]">
    <path
       id="path97"
       style=""
       d="m 74.8125,45.6875 h 6.625 v 2.234375 h -3.75 v 24.0625 h 3.75 v 2.234375 h -6.625 z" />
    <path
       id="path99"
       style=""
       d="m 109.92187,70 h -3.10937 q -0.5625,-1.78125 -1.28125,-3.3125 -0.71875,-1.546875 -1.59375,-2.859375 -1.01563,1.4375 -2.53125,1.4375 -1.21875,0 -2.09375,-0.859375 -0.875,-0.875 -0.875,-2.09375 0,-1.203125 0.875,-2.078125 0.875,-0.890625 2.09375,-0.890625 1.78125,0 3.07812,1.375 1.3125,1.359375 2.51563,4.328125 V 59.15625 q 0,-2.1875 -1.09375,-3.359375 -1.09375,-1.1875 -3.09375,-1.1875 -3.21875,0 -6.296875,2.078125 H 96.3125 v -3.296875 q 3.375,-1.34375 6.4375,-1.34375 3.53125,0 5.34375,1.84375 1.82812,1.828125 1.82812,5.265625 z m -8.51562,-6.53125 q 0.48437,0 0.82812,-0.328125 0.35938,-0.34375 0.35938,-0.828125 0,-0.5 -0.35938,-0.84375 -0.34375,-0.359375 -0.82812,-0.359375 -0.48438,0 -0.84375,0.359375 -0.34375,0.34375 -0.34375,0.84375 0,0.484375 0.34375,0.828125 0.35937,0.328125 0.84375,0.328125 z" />
    <path
       id="path101"
       style=""
       d="M 128.98438,70 H 115.1875 v -6.8125 q 0,-1.953125 1.10937,-3.078125 1.10938,-1.125 2.95313,-1.125 1.21875,0 2.09375,0.890625 0.875,0.875 0.875,2.09375 0,1.21875 -0.875,2.078125 -0.875,0.859375 -2.09375,0.859375 -0.64063,0 -1.125,-0.1875 v 2.5 h 7.90625 v -8.0625 q 0,-2.140625 -1.21875,-3.34375 -1.20313,-1.203125 -3.26563,-1.203125 -3.20312,0 -6.29687,2.078125 h -0.1875 v -3.296875 q 3.375,-1.34375 6.42187,-1.34375 3.625,0 5.5625,1.890625 1.93751,1.875 1.93751,5.21875 z M 119.25,63.125 q 0.48437,0 0.82812,-0.34375 0.35938,-0.34375 0.35938,-0.8125 0,-0.515625 -0.35938,-0.859375 Q 119.73437,60.75 119.25,60.75 q -0.48438,0 -0.84375,0.359375 -0.34375,0.34375 -0.34375,0.859375 0,0.46875 0.34375,0.8125 0.35937,0.34375 0.84375,0.34375 z" />
    <path
       id="path103"
       style=""
       d="m 137.1875,64.53125 q 0.48438,-0.1875 1.125,-0.1875 1.21875,0 2.09375,0.859375 0.875,0.859375 0.875,2.078125 0,1.21875 -0.875,2.09375 -0.875,0.875 -2.09375,0.875 -1.84375,0 -2.95312,-1.125 Q 134.25,68 134.25,66.0625 V 52.53125 h 2.9375 z m 1.125,3.96875 q 0.48438,0 0.82813,-0.34375 0.35937,-0.359375 0.35937,-0.875 0,-0.46875 -0.35937,-0.8125 -0.34375,-0.34375 -0.82813,-0.34375 -0.48437,0 -0.84375,0.34375 -0.34375,0.34375 -0.34375,0.8125 0,0.515625 0.34375,0.875 Q 137.82813,68.5 138.3125,68.5 Z M 145.5,64.53125 q 0.48438,-0.1875 1.125,-0.1875 1.21875,0 2.09375,0.859375 0.875,0.859375 0.875,2.078125 0,1.21875 -0.875,2.09375 -0.875,0.875 -2.09375,0.875 -1.84375,0 -2.95312,-1.125 Q 142.5625,68 142.5625,66.0625 V 52.53125 H 145.5 Z M 146.625,68.5 q 0.48438,0 0.82813,-0.34375 0.35937,-0.359375 0.35937,-0.875 0,-0.46875 -0.35937,-0.8125 -0.34375,-0.34375 -0.82813,-0.34375 -0.48437,0 -0.84375,0.34375 -0.34375,0.34375 -0.34375,0.8125 0,0.515625 0.34375,0.875 Q 146.14063,68.5 146.625,68.5 Z" />
    <path
       id="path105"
       style=""
       d="m 168.9375,50.28125 q -0.5,2.15625 -2.6875,4.234375 1.40625,1.828125 1.40625,4.640625 V 70 h -2.95312 q -2.78125,-5.28125 -3.625,-6.640625 -0.84375,-1.375 -1.75,-2.109375 -0.90625,-0.75 -1.75,-0.75 -0.8125,0 -1.32813,0.546875 -0.5,0.546875 -0.5,1.40625 v 2.078125 q 0.48438,-0.1875 1.10938,-0.1875 1.23437,0 2.10937,0.859375 0.875,0.859375 0.875,2.078125 0,1.21875 -0.89062,2.09375 -0.875,0.875 -2.09375,0.875 -1.84375,0 -2.95313,-1.125 -1.10937,-1.125 -1.10937,-3.0625 v -3.546875 q 0,-2.28125 1.20312,-3.484375 1.21875,-1.21875 3.375,-1.21875 1.48438,0 2.73438,0.953125 1.25,0.953125 1.98437,2.125 0.75,1.171875 2.60938,4.796875 v -6.53125 q 0,-1.671875 -0.73438,-2.75 -0.95312,0.6875 -2.625,1.46875 l -0.73437,-1.03125 Q 161.64063,56.3125 162.75,55.25 q -1.09375,-0.640625 -2.5625,-0.640625 -3.21875,0 -6.32812,2.078125 h -0.15625 v -3.296875 q 3.375,-1.34375 6.45312,-1.34375 2.75,0 4.48438,1.09375 1.28125,-1.734375 1.28125,-2.859375 z M 156.85938,68.5 q 0.5,0 0.84375,-0.34375 0.34375,-0.359375 0.34375,-0.875 0,-0.46875 -0.35938,-0.8125 -0.34375,-0.34375 -0.82812,-0.34375 -0.46875,0 -0.82813,0.34375 -0.34375,0.34375 -0.34375,0.8125 0,0.515625 0.34375,0.875 Q 156.375,68.5 156.85938,68.5 Z" />
    <path
       id="path107"
       style=""
       d="m 187.0625,70 h -2.95312 V 59.921875 q 0,-5.09375 -4.60938,-5.09375 -2.20312,0 -3.40625,1.3125 -1.20312,1.296875 -1.20312,3.453125 0,1.890625 0.70312,4.390625 0.1875,0.625 0.54688,3.203125 l 1.65625,-1.59375 q 0.82812,-0.8125 1.09375,-1.453125 -1.09375,-0.28125 -1.71875,-1.0625 -0.60938,-0.796875 -0.60938,-1.84375 0,-1.21875 0.85938,-2.078125 0.85937,-0.875 2.07812,-0.875 1.26563,0 2.10938,0.90625 0.84375,0.890625 0.84375,2.234375 0,1.46875 -0.98438,3.140625 -0.96875,1.65625 -3.84375,4.125 -0.84375,0.71875 -1.42187,1.3125 h -2.9375 v -1.34375 q 0,-1.296875 -0.59375,-4.125 -0.6875,-3.21875 -0.6875,-4.90625 0,-3.390625 1.9375,-5.484375 1.95312,-2.09375 5.57812,-2.09375 7.5625,0 7.5625,7.875 z m -7.5,-7.578125 q 0.48438,0 0.82813,-0.34375 0.35937,-0.34375 0.35937,-0.8125 0,-0.515625 -0.34375,-0.859375 -0.34375,-0.359375 -0.84375,-0.359375 -0.48437,0 -0.82812,0.359375 -0.34375,0.34375 -0.34375,0.859375 0,0.46875 0.34375,0.8125 0.34375,0.34375 0.82812,0.34375 z" />
    <path
       id="path109"
       style=""
       d="m 202.8125,64.90625 q 0,2.734375 -1.23437,4.171875 -1.21875,1.4375 -3.3125,1.4375 -1.34375,0 -2.48438,-0.796875 -1.125,-0.8125 -2.01562,-2.703125 l -3.625,-7.578125 h 3.0625 q 2.82812,5.921875 3.125,6.515625 0.29687,0.59375 0.79687,1.1875 0.51563,0.59375 1.14063,0.59375 1.59375,0 1.59375,-2.828125 V 57.8125 Q 199.375,58 198.75,58 q -1.23437,0 -2.10937,-0.859375 -0.875,-0.875 -0.875,-2.078125 0,-1.21875 0.875,-2.09375 0.89062,-0.890625 2.10937,-0.890625 1.84375,0 2.95313,1.140625 1.10937,1.125 1.10937,3.046875 z m -4.09375,-8.703125 q 0.46875,0 0.8125,-0.328125 0.35938,-0.34375 0.35938,-0.8125 0,-0.515625 -0.34375,-0.859375 -0.34375,-0.359375 -0.82813,-0.359375 -0.5,0 -0.84375,0.359375 -0.34375,0.34375 -0.34375,0.859375 0,0.46875 0.34375,0.8125 0.35938,0.328125 0.84375,0.328125 z" />
    <path
       id="path111"
       style=""
       d="m 225.17188,45.6875 v 28.53125 h -6.625 v -2.234375 h 3.73437 v -24.0625 h -3.73437 V 45.6875 Z" />
  </g>
  <g
     id="text67"
     style="font-size:20px;font-family:'DejaVu Sans', sans-serif;text-anchor:middle;fill:#000000"
     aria-label="[ ข้อความ ]">
    <path
       id="path114"
       style=""
       d="M 40.671875,138.80469 H 44.8125 v 1.39648 h -2.34375 v 15.03906 h 2.34375 v 1.39649 h -4.140625 z" />
    <path
       id="path116"
       style=""
       d="m 63.728516,154 h -8.03711 v -1.73828 h 1.240235 v -2.5 q 0,-0.74219 0.195312,-1.23047 0.205078,-0.49805 0.595703,-1.08398 0.439453,-0.66407 0.546875,-1.03516 0.107422,-0.37109 0.107422,-0.71289 0,-1.60156 -1.347656,-1.60156 -0.253906,0 -0.400391,0.0977 0.800782,0.60547 0.800782,1.50391 0,0.76172 -0.546875,1.29883 -0.546875,0.53711 -1.308594,0.53711 -0.761719,0 -1.308594,-0.53711 -0.537109,-0.54688 -0.537109,-1.31836 0,-1.29883 0.908203,-2.09961 0.917969,-0.80078 2.392578,-0.80078 1.40625,0 2.265625,0.80078 0.859375,0.79101 0.859375,2.09961 0,0.42969 -0.136719,0.91797 -0.126953,0.48828 -0.615234,1.34765 -0.625,1.07422 -0.625,1.73828 v 2.57813 h 3.115234 v -9.17969 h 1.835938 z m -8.154297,-7.55859 q 0.302734,0 0.517578,-0.21485 0.224609,-0.22461 0.224609,-0.54687 0,-0.29297 -0.224609,-0.50781 -0.214844,-0.21485 -0.517578,-0.21485 -0.302735,0 -0.527344,0.21485 -0.214844,0.21484 -0.214844,0.50781 0,0.32226 0.214844,0.54687 0.224609,0.21485 0.527344,0.21485 z" />
    <path
       id="path118"
       style=""
       d="m 67.048828,138.93164 q -1.279297,2.63672 -5.185547,3.21289 l 0.478516,-1.05469 q -0.429688,-0.0586 -0.703125,-0.38086 -0.273438,-0.33203 -0.273438,-0.76171 0,-0.46875 0.322266,-0.80079 0.3125,-0.34179 0.78125,-0.34179 0.449219,0 0.771484,0.34179 0.322266,0.33204 0.322266,0.80079 0,0.68359 -0.400391,1.14257 1.621094,-0.41992 2.646485,-2.1582 z m -4.580078,1.35742 q 0.126953,0 0.234375,-0.0977 0.09766,-0.10743 0.09766,-0.24414 0,-0.13672 -0.09766,-0.23438 -0.107422,-0.10742 -0.234375,-0.10742 -0.136719,0 -0.234375,0.10742 -0.107422,0.0977 -0.107422,0.23438 0,0.13671 0.107422,0.24414 0.09766,0.0977 0.234375,0.0977 z" />
    <path
       id="path120"
       style=""
       d="m 75.662109,154 h -8.623046 v -4.25781 q 0,-1.22071 0.693359,-1.92383 0.693359,-0.70313 1.845703,-0.70313 0.761719,0 1.308594,0.55665 0.546875,0.54687 0.546875,1.30859 0,0.76172 -0.546875,1.29883 -0.546875,0.53711 -1.308594,0.53711 -0.400391,0 -0.703125,-0.11719 v 1.5625 h 4.941406 v -5.03906 q 0,-1.33789 -0.761718,-2.08985 -0.751954,-0.75195 -2.041016,-0.75195 -2.001953,0 -3.935547,1.29883 h -0.117187 v -2.06055 q 2.109375,-0.83984 4.013671,-0.83984 2.265625,0 3.476563,1.18164 1.210937,1.17187 1.210937,3.26172 z m -6.083984,-4.29687 q 0.302734,0 0.517578,-0.21485 0.22461,-0.21484 0.22461,-0.50781 0,-0.32227 -0.22461,-0.53711 -0.214844,-0.22461 -0.517578,-0.22461 -0.302734,0 -0.527344,0.22461 -0.214843,0.21484 -0.214843,0.53711 0,0.29297 0.214843,0.50781 0.22461,0.21485 0.527344,0.21485 z" />
    <path
       id="path122"
       style=""
       d="m 87.976563,154 h -1.845704 v -6.29883 q 0,-3.18359 -2.880859,-3.18359 -1.376953,0 -2.128906,0.82031 -0.751953,0.81055 -0.751953,2.1582 0,1.23047 0.439453,2.74414 0.322265,-1.5039 0.898437,-2.4707 0.576172,-0.9668 1.601563,-0.9668 0.761719,0 1.308594,0.54688 0.55664,0.54687 0.55664,1.30859 0,0.76172 -0.546875,1.3086 -0.546875,0.53711 -1.318359,0.53711 -0.507813,0 -0.898438,-0.24414 -1.220703,1.23046 -1.220703,3.74023 h -1.835937 v -0.83984 q 0,-0.81055 -0.371094,-2.57813 -0.429688,-2.01172 -0.429688,-3.0664 0,-2.11915 1.210938,-3.42774 1.220703,-1.30859 3.486328,-1.30859 4.726563,0 4.726563,4.92187 z m -4.648438,-4.61914 q 0.302734,0 0.517578,-0.21484 0.22461,-0.21485 0.22461,-0.50782 0,-0.32226 -0.214844,-0.53711 -0.214844,-0.22461 -0.527344,-0.22461 -0.302734,0 -0.517578,0.22461 -0.214844,0.21485 -0.214844,0.53711 0,0.29297 0.214844,0.50782 0.224609,0.21484 0.517578,0.21484 z" />
    <path
       id="path124"
       style=""
       d="m 97.673828,151.53906 q 0,1.21094 -0.693359,1.91407 -0.683594,0.70312 -1.845703,0.70312 -0.761719,0 -1.308594,-0.54687 -0.546875,-0.54688 -0.546875,-1.3086 0,-0.76172 0.546875,-1.29883 0.546875,-0.53711 1.308594,-0.53711 0.40039,0 0.703125,0.11719 v -3.58398 q 0,-1.25977 -0.605469,-1.92383 -0.595703,-0.67383 -1.650391,-0.67383 -1.611328,0 -3.300781,0.99609 h -0.126953 v -1.93359 q 1.728516,-0.66406 3.427734,-0.66406 4.091797,0 4.091797,4.08203 z m -2.539062,1.52344 q 0.3125,0 0.527343,-0.21484 0.214844,-0.22461 0.214844,-0.54688 0,-0.29297 -0.224609,-0.50781 -0.214844,-0.21484 -0.517578,-0.21484 -0.302735,0 -0.527344,0.21484 -0.214844,0.21484 -0.214844,0.50781 0,0.32227 0.214844,0.54688 0.224609,0.21484 0.527344,0.21484 z" />
    <path
       id="path126"
       style=""
       d="m 107.36133,154 h -1.83594 v -7.00195 q 0,-1.25977 -0.60547,-1.92383 -0.5957,-0.67383 -1.65039,-0.67383 -1.61133,0 -3.30078,0.99609 h -0.126953 v -1.93359 q 1.728513,-0.66406 3.427733,-0.66406 4.0918,0 4.0918,4.08203 z" />
    <path
       id="path128"
       style=""
       d="m 119.33398,154 h -1.71875 q -1.86523,-1.78711 -3.62304,-2.27539 v 0.27344 q 0,1.06445 -0.61524,1.61133 -0.60547,0.54687 -1.52343,0.54687 -0.85938,0 -1.39649,-0.46875 -0.52734,-0.46875 -0.52734,-1.25 0,-0.74219 0.58593,-1.30859 0.59571,-0.57618 1.64063,-0.69336 v -4.07227 q -0.30273,0.11719 -0.70313,0.11719 -0.76171,0 -1.31835,-0.53711 -0.54688,-0.54688 -0.54688,-1.29883 0,-0.77148 0.54688,-1.31836 0.55664,-0.54687 1.31835,-0.54687 1.15235,0 1.84571,0.71289 0.69336,0.70312 0.69336,1.90429 v 5.12696 q 1.75781,0.41992 3.49609,1.69922 v -9.14063 h 1.8457 z m -7.88086,-8.64258 q 0.30274,0 0.51758,-0.20508 0.22461,-0.21484 0.22461,-0.50781 0,-0.33203 -0.22461,-0.54687 -0.21484,-0.21485 -0.51758,-0.21485 -0.30273,0 -0.52734,0.22461 -0.21484,0.21485 -0.21484,0.53711 0,0.29297 0.21484,0.50781 0.22461,0.20508 0.52734,0.20508 z m 0.70313,6.94336 v -0.76172 q -0.49805,0.0684 -0.79102,0.33203 -0.29296,0.26368 -0.29296,0.56641 0,0.2832 0.14648,0.45898 0.14648,0.16602 0.37109,0.16602 0.56641,0 0.56641,-0.76172 z" />
    <path
       id="path130"
       style=""
       d="m 133.31836,138.80469 v 17.83203 h -4.14063 v -1.39649 h 2.33399 v -15.03906 h -2.33399 v -1.39648 z" />
  </g>
  <g
     id="text71"
     style="font-size:20px;font-family:'DejaVu Sans', sans-serif;text-anchor:middle;fill:#000000"
     aria-label="[ ข้อความ ]">
    <path
       id="path133"
       style=""
       d="M 40.671875,215.80469 H 44.8125 v 1.39648 h -2.34375 v 15.03906 h 2.34375 v 1.39649 h -4.140625 z" />
    <path
       id="path135"
       style=""
       d="m 63.728516,231 h -8.03711 v -1.73828 h 1.240235 v -2.5 q 0,-0.74219 0.195312,-1.23047 0.205078,-0.49805 0.595703,-1.08398 0.439453,-0.66407 0.546875,-1.03516 0.107422,-0.37109 0.107422,-0.71289 0,-1.60156 -1.347656,-1.60156 -0.253906,0 -0.400391,0.0977 0.800782,0.60547 0.800782,1.50391 0,0.76172 -0.546875,1.29883 -0.546875,0.53711 -1.308594,0.53711 -0.761719,0 -1.308594,-0.53711 -0.537109,-0.54688 -0.537109,-1.31836 0,-1.29883 0.908203,-2.09961 0.917969,-0.80078 2.392578,-0.80078 1.40625,0 2.265625,0.80078 0.859375,0.79101 0.859375,2.09961 0,0.42969 -0.136719,0.91797 -0.126953,0.48828 -0.615234,1.34765 -0.625,1.07422 -0.625,1.73828 v 2.57813 h 3.115234 v -9.17969 h 1.835938 z m -8.154297,-7.55859 q 0.302734,0 0.517578,-0.21485 0.224609,-0.22461 0.224609,-0.54687 0,-0.29297 -0.224609,-0.50781 -0.214844,-0.21485 -0.517578,-0.21485 -0.302735,0 -0.527344,0.21485 -0.214844,0.21484 -0.214844,0.50781 0,0.32226 0.214844,0.54687 0.224609,0.21485 0.527344,0.21485 z" />
    <path
       id="path137"
       style=""
       d="m 67.048828,215.93164 q -1.279297,2.63672 -5.185547,3.21289 l 0.478516,-1.05469 q -0.429688,-0.0586 -0.703125,-0.38086 -0.273438,-0.33203 -0.273438,-0.76171 0,-0.46875 0.322266,-0.80079 0.3125,-0.34179 0.78125,-0.34179 0.449219,0 0.771484,0.34179 0.322266,0.33204 0.322266,0.80079 0,0.68359 -0.400391,1.14257 1.621094,-0.41992 2.646485,-2.1582 z m -4.580078,1.35742 q 0.126953,0 0.234375,-0.0977 0.09766,-0.10743 0.09766,-0.24414 0,-0.13672 -0.09766,-0.23438 -0.107422,-0.10742 -0.234375,-0.10742 -0.136719,0 -0.234375,0.10742 -0.107422,0.0977 -0.107422,0.23438 0,0.13671 0.107422,0.24414 0.09766,0.0977 0.234375,0.0977 z" />
    <path
       id="path139"
       style=""
       d="m 75.662109,231 h -8.623046 v -4.25781 q 0,-1.22071 0.693359,-1.92383 0.693359,-0.70313 1.845703,-0.70313 0.761719,0 1.308594,0.55665 0.546875,0.54687 0.546875,1.30859 0,0.76172 -0.546875,1.29883 -0.546875,0.53711 -1.308594,0.53711 -0.400391,0 -0.703125,-0.11719 v 1.5625 h 4.941406 v -5.03906 q 0,-1.33789 -0.761718,-2.08985 -0.751954,-0.75195 -2.041016,-0.75195 -2.001953,0 -3.935547,1.29883 h -0.117187 v -2.06055 q 2.109375,-0.83984 4.013671,-0.83984 2.265625,0 3.476563,1.18164 1.210937,1.17187 1.210937,3.26172 z m -6.083984,-4.29687 q 0.302734,0 0.517578,-0.21485 0.22461,-0.21484 0.22461,-0.50781 0,-0.32227 -0.22461,-0.53711 -0.214844,-0.22461 -0.517578,-0.22461 -0.302734,0 -0.527344,0.22461 -0.214843,0.21484 -0.214843,0.53711 0,0.29297 0.214843,0.50781 0.22461,0.21485 0.527344,0.21485 z" />
    <path
       id="path141"
       style=""
       d="m 87.976563,231 h -1.845704 v -6.29883 q 0,-3.18359 -2.880859,-3.18359 -1.376953,0 -2.128906,0.82031 -0.751953,0.81055 -0.751953,2.1582 0,1.23047 0.439453,2.74414 0.322265,-1.5039 0.898437,-2.4707 0.576172,-0.9668 1.601563,-0.9668 0.761719,0 1.308594,0.54688 0.55664,0.54687 0.55664,1.30859 0,0.76172 -0.546875,1.3086 -0.546875,0.53711 -1.318359,0.53711 -0.507813,0 -0.898438,-0.24414 -1.220703,1.23046 -1.220703,3.74023 h -1.835937 v -0.83984 q 0,-0.81055 -0.371094,-2.57813 -0.429688,-2.01172 -0.429688,-3.0664 0,-2.11915 1.210938,-3.42774 1.220703,-1.30859 3.486328,-1.30859 4.726563,0 4.726563,4.92187 z m -4.648438,-4.61914 q 0.302734,0 0.517578,-0.21484 0.22461,-0.21485 0.22461,-0.50782 0,-0.32226 -0.214844,-0.53711 -0.214844,-0.22461 -0.527344,-0.22461 -0.302734,0 -0.517578,0.22461 -0.214844,0.21485 -0.214844,0.53711 0,0.29297 0.214844,0.50782 0.224609,0.21484 0.517578,0.21484 z" />
    <path
       id="path143"
       style=""
       d="m 97.673828,228.53906 q 0,1.21094 -0.693359,1.91407 -0.683594,0.70312 -1.845703,0.70312 -0.761719,0 -1.308594,-0.54687 -0.546875,-0.54688 -0.546875,-1.3086 0,-0.76172 0.546875,-1.29883 0.546875,-0.53711 1.308594,-0.53711 0.40039,0 0.703125,0.11719 v -3.58398 q 0,-1.25977 -0.605469,-1.92383 -0.595703,-0.67383 -1.650391,-0.67383 -1.611328,0 -3.300781,0.99609 h -0.126953 v -1.93359 q 1.728516,-0.66406 3.427734,-0.66406 4.091797,0 4.091797,4.08203 z m -2.539062,1.52344 q 0.3125,0 0.527343,-0.21484 0.214844,-0.22461 0.214844,-0.54688 0,-0.29297 -0.224609,-0.50781 -0.214844,-0.21484 -0.517578,-0.21484 -0.302735,0 -0.527344,0.21484 -0.214844,0.21484 -0.214844,0.50781 0,0.32227 0.214844,0.54688 0.224609,0.21484 0.527344,0.21484 z" />
    <path
       id="path145"
       style=""
       d="m 107.36133,231 h -1.83594 v -7.00195 q 0,-1.25977 -0.60547,-1.92383 -0.5957,-0.67383 -1.65039,-0.67383 -1.61133,0 -3.30078,0.99609 h -0.126953 v -1.93359 q 1.728513,-0.66406 3.427733,-0.66406 4.0918,0 4.0918,4.08203 z" />
    <path
       id="path147"
       style=""
       d="m 119.33398,231 h -1.71875 q -1.86523,-1.78711 -3.62304,-2.27539 v 0.27344 q 0,1.06445 -0.61524,1.61133 -0.60547,0.54687 -1.52343,0.54687 -0.85938,0 -1.39649,-0.46875 -0.52734,-0.46875 -0.52734,-1.25 0,-0.74219 0.58593,-1.30859 0.59571,-0.57618 1.64063,-0.69336 v -4.07227 q -0.30273,0.11719 -0.70313,0.11719 -0.76171,0 -1.31835,-0.53711 -0.54688,-0.54688 -0.54688,-1.29883 0,-0.77148 0.54688,-1.31836 0.55664,-0.54687 1.31835,-0.54687 1.15235,0 1.84571,0.71289 0.69336,0.70312 0.69336,1.90429 v 5.12696 q 1.75781,0.41992 3.49609,1.69922 v -9.14063 h 1.8457 z m -7.88086,-8.64258 q 0.30274,0 0.51758,-0.20508 0.22461,-0.21484 0.22461,-0.50781 0,-0.33203 -0.22461,-0.54687 -0.21484,-0.21485 -0.51758,-0.21485 -0.30273,0 -0.52734,0.22461 -0.21484,0.21485 -0.21484,0.53711 0,0.29297 0.21484,0.50781 0.22461,0.20508 0.52734,0.20508 z m 0.70313,6.94336 v -0.76172 q -0.49805,0.0684 -0.79102,0.33203 -0.29296,0.26368 -0.29296,0.56641 0,0.2832 0.14648,0.45898 0.14648,0.16602 0.37109,0.16602 0.56641,0 0.56641,-0.76172 z" />
    <path
       id="path149"
       style=""
       d="m 133.31836,215.80469 v 17.83203 h -4.14063 v -1.39649 h 2.33399 v -15.03906 h -2.33399 v -1.39648 z" />
  </g>
  <g
     id="text75"
     style="font-size:20px;font-family:'DejaVu Sans', sans-serif;text-anchor:middle;fill:#000000"
     aria-label="[ ข้อความ ]">
    <path
       id="path152"
       style=""
       d="M 40.671875,283.80469 H 44.8125 v 1.39648 h -2.34375 v 15.03906 h 2.34375 v 1.39649 h -4.140625 z" />
    <path
       id="path154"
       style=""
       d="m 63.728516,299 h -8.03711 v -1.73828 h 1.240235 v -2.5 q 0,-0.74219 0.195312,-1.23047 0.205078,-0.49805 0.595703,-1.08398 0.439453,-0.66407 0.546875,-1.03516 0.107422,-0.37109 0.107422,-0.71289 0,-1.60156 -1.347656,-1.60156 -0.253906,0 -0.400391,0.0976 0.800782,0.60547 0.800782,1.50391 0,0.76172 -0.546875,1.29883 -0.546875,0.53711 -1.308594,0.53711 -0.761719,0 -1.308594,-0.53711 -0.537109,-0.54688 -0.537109,-1.31836 0,-1.29883 0.908203,-2.09961 0.917969,-0.80078 2.392578,-0.80078 1.40625,0 2.265625,0.80078 0.859375,0.79101 0.859375,2.09961 0,0.42969 -0.136719,0.91797 -0.126953,0.48828 -0.615234,1.34765 -0.625,1.07422 -0.625,1.73828 v 2.57813 h 3.115234 v -9.17969 h 1.835938 z m -8.154297,-7.55859 q 0.302734,0 0.517578,-0.21485 0.224609,-0.22461 0.224609,-0.54687 0,-0.29297 -0.224609,-0.50781 -0.214844,-0.21485 -0.517578,-0.21485 -0.302735,0 -0.527344,0.21485 -0.214844,0.21484 -0.214844,0.50781 0,0.32226 0.214844,0.54687 0.224609,0.21485 0.527344,0.21485 z" />
    <path
       id="path156"
       style=""
       d="m 67.048828,283.93164 q -1.279297,2.63672 -5.185547,3.21289 l 0.478516,-1.05469 q -0.429688,-0.0586 -0.703125,-0.38086 -0.273438,-0.33203 -0.273438,-0.76171 0,-0.46875 0.322266,-0.80079 0.3125,-0.34179 0.78125,-0.34179 0.449219,0 0.771484,0.34179 0.322266,0.33204 0.322266,0.80079 0,0.68359 -0.400391,1.14257 1.621094,-0.41992 2.646485,-2.1582 z m -4.580078,1.35742 q 0.126953,0 0.234375,-0.0976 0.09766,-0.10743 0.09766,-0.24414 0,-0.13672 -0.09766,-0.23438 -0.107422,-0.10742 -0.234375,-0.10742 -0.136719,0 -0.234375,0.10742 -0.107422,0.0977 -0.107422,0.23438 0,0.13671 0.107422,0.24414 0.09766,0.0976 0.234375,0.0976 z" />
    <path
       id="path158"
       style=""
       d="m 75.662109,299 h -8.623046 v -4.25781 q 0,-1.22071 0.693359,-1.92383 0.693359,-0.70313 1.845703,-0.70313 0.761719,0 1.308594,0.55665 0.546875,0.54687 0.546875,1.30859 0,0.76172 -0.546875,1.29883 -0.546875,0.53711 -1.308594,0.53711 -0.400391,0 -0.703125,-0.11719 v 1.5625 h 4.941406 v -5.03906 q 0,-1.33789 -0.761718,-2.08985 -0.751954,-0.75195 -2.041016,-0.75195 -2.001953,0 -3.935547,1.29883 h -0.117187 v -2.06055 q 2.109375,-0.83984 4.013671,-0.83984 2.265625,0 3.476563,1.18164 1.210937,1.17187 1.210937,3.26172 z m -6.083984,-4.29687 q 0.302734,0 0.517578,-0.21485 0.22461,-0.21484 0.22461,-0.50781 0,-0.32227 -0.22461,-0.53711 -0.214844,-0.22461 -0.517578,-0.22461 -0.302734,0 -0.527344,0.22461 -0.214843,0.21484 -0.214843,0.53711 0,0.29297 0.214843,0.50781 0.22461,0.21485 0.527344,0.21485 z" />
    <path
       id="path160"
       style=""
       d="m 87.976563,299 h -1.845704 v -6.29883 q 0,-3.18359 -2.880859,-3.18359 -1.376953,0 -2.128906,0.82031 -0.751953,0.81055 -0.751953,2.1582 0,1.23047 0.439453,2.74414 0.322265,-1.5039 0.898437,-2.4707 0.576172,-0.9668 1.601563,-0.9668 0.761719,0 1.308594,0.54688 0.55664,0.54687 0.55664,1.30859 0,0.76172 -0.546875,1.3086 -0.546875,0.53711 -1.318359,0.53711 -0.507813,0 -0.898438,-0.24414 -1.220703,1.23046 -1.220703,3.74023 h -1.835937 v -0.83984 q 0,-0.81055 -0.371094,-2.57813 -0.429688,-2.01172 -0.429688,-3.0664 0,-2.11915 1.210938,-3.42774 1.220703,-1.30859 3.486328,-1.30859 4.726563,0 4.726563,4.92187 z m -4.648438,-4.61914 q 0.302734,0 0.517578,-0.21484 0.22461,-0.21485 0.22461,-0.50782 0,-0.32226 -0.214844,-0.53711 -0.214844,-0.22461 -0.527344,-0.22461 -0.302734,0 -0.517578,0.22461 -0.214844,0.21485 -0.214844,0.53711 0,0.29297 0.214844,0.50782 0.224609,0.21484 0.517578,0.21484 z" />
    <path
       id="path162"
       style=""
       d="m 97.673828,296.53906 q 0,1.21094 -0.693359,1.91407 -0.683594,0.70312 -1.845703,0.70312 -0.761719,0 -1.308594,-0.54687 -0.546875,-0.54688 -0.546875,-1.3086 0,-0.76172 0.546875,-1.29883 0.546875,-0.53711 1.308594,-0.53711 0.40039,0 0.703125,0.11719 v -3.58398 q 0,-1.25977 -0.605469,-1.92383 -0.595703,-0.67383 -1.650391,-0.67383 -1.611328,0 -3.300781,0.99609 h -0.126953 v -1.93359 q 1.728516,-0.66406 3.427734,-0.66406 4.091797,0 4.091797,4.08203 z m -2.539062,1.52344 q 0.3125,0 0.527343,-0.21484 0.214844,-0.22461 0.214844,-0.54688 0,-0.29297 -0.224609,-0.50781 -0.214844,-0.21484 -0.517578,-0.21484 -0.302735,0 -0.527344,0.21484 -0.214844,0.21484 -0.214844,0.50781 0,0.32227 0.214844,0.54688 0.224609,0.21484 0.527344,0.21484 z" />
    <path
       id="path164"
       style=""
       d="m 107.36133,299 h -1.83594 v -7.00195 q 0,-1.25977 -0.60547,-1.92383 -0.5957,-0.67383 -1.65039,-0.67383 -1.61133,0 -3.30078,0.99609 h -0.126953 v -1.93359 q 1.728513,-0.66406 3.427733,-0.66406 4.0918,0 4.0918,4.08203 z" />
    <path
       id="path166"
       style=""
       d="m 119.33398,299 h -1.71875 q -1.86523,-1.78711 -3.62304,-2.27539 v 0.27344 q 0,1.06445 -0.61524,1.61133 -0.60547,0.54687 -1.52343,0.54687 -0.85938,0 -1.39649,-0.46875 -0.52734,-0.46875 -0.52734,-1.25 0,-0.74219 0.58593,-1.30859 0.59571,-0.57618 1.64063,-0.69336 v -4.07227 q -0.30273,0.11719 -0.70313,0.11719 -0.76171,0 -1.31835,-0.53711 -0.54688,-0.54688 -0.54688,-1.29883 0,-0.77148 0.54688,-1.31836 0.55664,-0.54687 1.31835,-0.54687 1.15235,0 1.84571,0.71289 0.69336,0.70312 0.69336,1.90429 v 5.12696 q 1.75781,0.41992 3.49609,1.69922 v -9.14063 h 1.8457 z m -7.88086,-8.64258 q 0.30274,0 0.51758,-0.20508 0.22461,-0.21484 0.22461,-0.50781 0,-0.33203 -0.22461,-0.54687 -0.21484,-0.21485 -0.51758,-0.21485 -0.30273,0 -0.52734,0.22461 -0.21484,0.21485 -0.21484,0.53711 0,0.29297 0.21484,0.50781 0.22461,0.20508 0.52734,0.20508 z m 0.70313,6.94336 v -0.76172 q -0.49805,0.0684 -0.79102,0.33203 -0.29296,0.26368 -0.29296,0.56641 0,0.2832 0.14648,0.45898 0.14648,0.16602 0.37109,0.16602 0.56641,0 0.56641,-0.76172 z" />
    <path
       id="path168"
       style=""
       d="m 133.31836,283.80469 v 17.83203 h -4.14063 v -1.39649 h 2.33399 v -15.03906 h -2.33399 v -1.39648 z" />
  </g>
  <g
     id="text79"
     style="font-size:20px;font-family:'DejaVu Sans', sans-serif;text-anchor:middle;fill:#000000"
     aria-label="[ ข้อความ ]">
    <path
       id="path171"
       style=""
       d="m 163.67188,138.80469 h 4.14062 v 1.39648 h -2.34375 v 15.03906 h 2.34375 v 1.39649 h -4.14062 z" />
    <path
       id="path173"
       style=""
       d="m 186.72852,154 h -8.03711 v -1.73828 h 1.24023 v -2.5 q 0,-0.74219 0.19531,-1.23047 0.20508,-0.49805 0.59571,-1.08398 0.43945,-0.66407 0.54687,-1.03516 0.10742,-0.37109 0.10742,-0.71289 0,-1.60156 -1.34765,-1.60156 -0.25391,0 -0.40039,0.0977 0.80078,0.60547 0.80078,1.50391 0,0.76172 -0.54688,1.29883 -0.54687,0.53711 -1.30859,0.53711 -0.76172,0 -1.30859,-0.53711 -0.53711,-0.54688 -0.53711,-1.31836 0,-1.29883 0.9082,-2.09961 0.91797,-0.80078 2.39258,-0.80078 1.40625,0 2.26562,0.80078 0.85938,0.79101 0.85938,2.09961 0,0.42969 -0.13672,0.91797 -0.12695,0.48828 -0.61524,1.34765 -0.625,1.07422 -0.625,1.73828 v 2.57813 h 3.11524 v -9.17969 h 1.83594 z m -8.1543,-7.55859 q 0.30273,0 0.51758,-0.21485 0.22461,-0.22461 0.22461,-0.54687 0,-0.29297 -0.22461,-0.50781 -0.21485,-0.21485 -0.51758,-0.21485 -0.30274,0 -0.52734,0.21485 -0.21485,0.21484 -0.21485,0.50781 0,0.32226 0.21485,0.54687 0.2246,0.21485 0.52734,0.21485 z" />
    <path
       id="path175"
       style=""
       d="m 190.04883,138.93164 q -1.2793,2.63672 -5.18555,3.21289 l 0.47852,-1.05469 q -0.42969,-0.0586 -0.70313,-0.38086 -0.27344,-0.33203 -0.27344,-0.76171 0,-0.46875 0.32227,-0.80079 0.3125,-0.34179 0.78125,-0.34179 0.44922,0 0.77148,0.34179 0.32227,0.33204 0.32227,0.80079 0,0.68359 -0.40039,1.14257 1.62109,-0.41992 2.64648,-2.1582 z m -4.58008,1.35742 q 0.12695,0 0.23438,-0.0977 0.0977,-0.10743 0.0977,-0.24414 0,-0.13672 -0.0977,-0.23438 -0.10743,-0.10742 -0.23438,-0.10742 -0.13672,0 -0.23437,0.10742 -0.10743,0.0977 -0.10743,0.23438 0,0.13671 0.10743,0.24414 0.0977,0.0977 0.23437,0.0977 z" />
    <path
       id="path177"
       style=""
       d="m 198.66211,154 h -8.62305 v -4.25781 q 0,-1.22071 0.69336,-1.92383 0.69336,-0.70313 1.84571,-0.70313 0.76171,0 1.30859,0.55665 0.54687,0.54687 0.54687,1.30859 0,0.76172 -0.54687,1.29883 -0.54688,0.53711 -1.30859,0.53711 -0.4004,0 -0.70313,-0.11719 v 1.5625 h 4.94141 v -5.03906 q 0,-1.33789 -0.76172,-2.08985 -0.75196,-0.75195 -2.04102,-0.75195 -2.00195,0 -3.93554,1.29883 h -0.11719 v -2.06055 q 2.10937,-0.83984 4.01367,-0.83984 2.26562,0 3.47656,1.18164 1.21094,1.17187 1.21094,3.26172 z m -6.08398,-4.29687 q 0.30273,0 0.51757,-0.21485 0.22461,-0.21484 0.22461,-0.50781 0,-0.32227 -0.22461,-0.53711 -0.21484,-0.22461 -0.51757,-0.22461 -0.30274,0 -0.52735,0.22461 -0.21484,0.21484 -0.21484,0.53711 0,0.29297 0.21484,0.50781 0.22461,0.21485 0.52735,0.21485 z" />
    <path
       id="path179"
       style=""
       d="m 210.97656,154 h -1.8457 v -6.29883 q 0,-3.18359 -2.88086,-3.18359 -1.37695,0 -2.12891,0.82031 -0.75195,0.81055 -0.75195,2.1582 0,1.23047 0.43945,2.74414 0.32227,-1.5039 0.89844,-2.4707 0.57617,-0.9668 1.60156,-0.9668 0.76172,0 1.3086,0.54688 0.55664,0.54687 0.55664,1.30859 0,0.76172 -0.54688,1.3086 -0.54687,0.53711 -1.31836,0.53711 -0.50781,0 -0.89843,-0.24414 -1.22071,1.23046 -1.22071,3.74023 h -1.83593 v -0.83984 q 0,-0.81055 -0.3711,-2.57813 -0.42969,-2.01172 -0.42969,-3.0664 0,-2.11915 1.21094,-3.42774 1.22071,-1.30859 3.48633,-1.30859 4.72656,0 4.72656,4.92187 z m -4.64843,-4.61914 q 0.30273,0 0.51757,-0.21484 0.22461,-0.21485 0.22461,-0.50782 0,-0.32226 -0.21484,-0.53711 -0.21484,-0.22461 -0.52734,-0.22461 -0.30274,0 -0.51758,0.22461 -0.21485,0.21485 -0.21485,0.53711 0,0.29297 0.21485,0.50782 0.22461,0.21484 0.51758,0.21484 z" />
    <path
       id="path181"
       style=""
       d="m 220.67383,151.53906 q 0,1.21094 -0.69336,1.91407 -0.68359,0.70312 -1.8457,0.70312 -0.76172,0 -1.3086,-0.54687 -0.54687,-0.54688 -0.54687,-1.3086 0,-0.76172 0.54687,-1.29883 0.54688,-0.53711 1.3086,-0.53711 0.40039,0 0.70312,0.11719 v -3.58398 q 0,-1.25977 -0.60547,-1.92383 -0.5957,-0.67383 -1.65039,-0.67383 -1.61133,0 -3.30078,0.99609 h -0.12695 v -1.93359 q 1.72851,-0.66406 3.42773,-0.66406 4.0918,0 4.0918,4.08203 z m -2.53906,1.52344 q 0.3125,0 0.52734,-0.21484 0.21484,-0.22461 0.21484,-0.54688 0,-0.29297 -0.22461,-0.50781 -0.21484,-0.21484 -0.51757,-0.21484 -0.30274,0 -0.52735,0.21484 -0.21484,0.21484 -0.21484,0.50781 0,0.32227 0.21484,0.54688 0.22461,0.21484 0.52735,0.21484 z" />
    <path
       id="path183"
       style=""
       d="m 230.36133,154 h -1.83594 v -7.00195 q 0,-1.25977 -0.60547,-1.92383 -0.5957,-0.67383 -1.65039,-0.67383 -1.61133,0 -3.30078,0.99609 h -0.12695 v -1.93359 q 1.72851,-0.66406 3.42773,-0.66406 4.0918,0 4.0918,4.08203 z" />
    <path
       id="path185"
       style=""
       d="m 242.33398,154 h -1.71875 q -1.86523,-1.78711 -3.62304,-2.27539 v 0.27344 q 0,1.06445 -0.61524,1.61133 -0.60547,0.54687 -1.52343,0.54687 -0.85938,0 -1.39649,-0.46875 -0.52734,-0.46875 -0.52734,-1.25 0,-0.74219 0.58594,-1.30859 0.5957,-0.57618 1.64062,-0.69336 v -4.07227 q -0.30273,0.11719 -0.70312,0.11719 -0.76172,0 -1.31836,-0.53711 -0.54688,-0.54688 -0.54688,-1.29883 0,-0.77148 0.54688,-1.31836 0.55664,-0.54687 1.31836,-0.54687 1.15234,0 1.8457,0.71289 0.69336,0.70312 0.69336,1.90429 v 5.12696 q 1.75781,0.41992 3.49609,1.69922 v -9.14063 h 1.8457 z m -7.88085,-8.64258 q 0.30273,0 0.51757,-0.20508 0.22461,-0.21484 0.22461,-0.50781 0,-0.33203 -0.22461,-0.54687 -0.21484,-0.21485 -0.51757,-0.21485 -0.30274,0 -0.52735,0.22461 -0.21484,0.21485 -0.21484,0.53711 0,0.29297 0.21484,0.50781 0.22461,0.20508 0.52735,0.20508 z m 0.70312,6.94336 v -0.76172 q -0.49805,0.0684 -0.79102,0.33203 -0.29296,0.26368 -0.29296,0.56641 0,0.2832 0.14648,0.45898 0.14648,0.16602 0.37109,0.16602 0.56641,0 0.56641,-0.76172 z" />
    <path
       id="path187"
       style=""
       d="m 256.31836,138.80469 v 17.83203 h -4.14063 v -1.39649 h 2.33399 v -15.03906 h -2.33399 v -1.39648 z" />
  </g>
  <g
     id="text83"
     style="font-size:20px;font-family:'DejaVu Sans', sans-serif;text-anchor:middle;fill:#000000"
     aria-label="[ ข้อความ ]">
    <path
       id="path190"
       style=""
       d="m 163.67188,215.80469 h 4.14062 v 1.39648 h -2.34375 v 15.03906 h 2.34375 v 1.39649 h -4.14062 z" />
    <path
       id="path192"
       style=""
       d="m 186.72852,231 h -8.03711 v -1.73828 h 1.24023 v -2.5 q 0,-0.74219 0.19531,-1.23047 0.20508,-0.49805 0.59571,-1.08398 0.43945,-0.66407 0.54687,-1.03516 0.10742,-0.37109 0.10742,-0.71289 0,-1.60156 -1.34765,-1.60156 -0.25391,0 -0.40039,0.0977 0.80078,0.60547 0.80078,1.50391 0,0.76172 -0.54688,1.29883 -0.54687,0.53711 -1.30859,0.53711 -0.76172,0 -1.30859,-0.53711 -0.53711,-0.54688 -0.53711,-1.31836 0,-1.29883 0.9082,-2.09961 0.91797,-0.80078 2.39258,-0.80078 1.40625,0 2.26562,0.80078 0.85938,0.79101 0.85938,2.09961 0,0.42969 -0.13672,0.91797 -0.12695,0.48828 -0.61524,1.34765 -0.625,1.07422 -0.625,1.73828 v 2.57813 h 3.11524 v -9.17969 h 1.83594 z m -8.1543,-7.55859 q 0.30273,0 0.51758,-0.21485 0.22461,-0.22461 0.22461,-0.54687 0,-0.29297 -0.22461,-0.50781 -0.21485,-0.21485 -0.51758,-0.21485 -0.30274,0 -0.52734,0.21485 -0.21485,0.21484 -0.21485,0.50781 0,0.32226 0.21485,0.54687 0.2246,0.21485 0.52734,0.21485 z" />
    <path
       id="path194"
       style=""
       d="m 190.04883,215.93164 q -1.2793,2.63672 -5.18555,3.21289 l 0.47852,-1.05469 q -0.42969,-0.0586 -0.70313,-0.38086 -0.27344,-0.33203 -0.27344,-0.76171 0,-0.46875 0.32227,-0.80079 0.3125,-0.34179 0.78125,-0.34179 0.44922,0 0.77148,0.34179 0.32227,0.33204 0.32227,0.80079 0,0.68359 -0.40039,1.14257 1.62109,-0.41992 2.64648,-2.1582 z m -4.58008,1.35742 q 0.12695,0 0.23438,-0.0977 0.0977,-0.10743 0.0977,-0.24414 0,-0.13672 -0.0977,-0.23438 -0.10743,-0.10742 -0.23438,-0.10742 -0.13672,0 -0.23437,0.10742 -0.10743,0.0977 -0.10743,0.23438 0,0.13671 0.10743,0.24414 0.0977,0.0977 0.23437,0.0977 z" />
    <path
       id="path196"
       style=""
       d="m 198.66211,231 h -8.62305 v -4.25781 q 0,-1.22071 0.69336,-1.92383 0.69336,-0.70313 1.84571,-0.70313 0.76171,0 1.30859,0.55665 0.54687,0.54687 0.54687,1.30859 0,0.76172 -0.54687,1.29883 -0.54688,0.53711 -1.30859,0.53711 -0.4004,0 -0.70313,-0.11719 v 1.5625 h 4.94141 v -5.03906 q 0,-1.33789 -0.76172,-2.08985 -0.75196,-0.75195 -2.04102,-0.75195 -2.00195,0 -3.93554,1.29883 h -0.11719 v -2.06055 q 2.10937,-0.83984 4.01367,-0.83984 2.26562,0 3.47656,1.18164 1.21094,1.17187 1.21094,3.26172 z m -6.08398,-4.29687 q 0.30273,0 0.51757,-0.21485 0.22461,-0.21484 0.22461,-0.50781 0,-0.32227 -0.22461,-0.53711 -0.21484,-0.22461 -0.51757,-0.22461 -0.30274,0 -0.52735,0.22461 -0.21484,0.21484 -0.21484,0.53711 0,0.29297 0.21484,0.50781 0.22461,0.21485 0.52735,0.21485 z" />
    <path
       id="path198"
       style=""
       d="m 210.97656,231 h -1.8457 v -6.29883 q 0,-3.18359 -2.88086,-3.18359 -1.37695,0 -2.12891,0.82031 -0.75195,0.81055 -0.75195,2.1582 0,1.23047 0.43945,2.74414 0.32227,-1.5039 0.89844,-2.4707 0.57617,-0.9668 1.60156,-0.9668 0.76172,0 1.3086,0.54688 0.55664,0.54687 0.55664,1.30859 0,0.76172 -0.54688,1.3086 -0.54687,0.53711 -1.31836,0.53711 -0.50781,0 -0.89843,-0.24414 -1.22071,1.23046 -1.22071,3.74023 h -1.83593 v -0.83984 q 0,-0.81055 -0.3711,-2.57813 -0.42969,-2.01172 -0.42969,-3.0664 0,-2.11915 1.21094,-3.42774 1.22071,-1.30859 3.48633,-1.30859 4.72656,0 4.72656,4.92187 z m -4.64843,-4.61914 q 0.30273,0 0.51757,-0.21484 0.22461,-0.21485 0.22461,-0.50782 0,-0.32226 -0.21484,-0.53711 -0.21484,-0.22461 -0.52734,-0.22461 -0.30274,0 -0.51758,0.22461 -0.21485,0.21485 -0.21485,0.53711 0,0.29297 0.21485,0.50782 0.22461,0.21484 0.51758,0.21484 z" />
    <path
       id="path200"
       style=""
       d="m 220.67383,228.53906 q 0,1.21094 -0.69336,1.91407 -0.68359,0.70312 -1.8457,0.70312 -0.76172,0 -1.3086,-0.54687 -0.54687,-0.54688 -0.54687,-1.3086 0,-0.76172 0.54687,-1.29883 0.54688,-0.53711 1.3086,-0.53711 0.40039,0 0.70312,0.11719 v -3.58398 q 0,-1.25977 -0.60547,-1.92383 -0.5957,-0.67383 -1.65039,-0.67383 -1.61133,0 -3.30078,0.99609 h -0.12695 v -1.93359 q 1.72851,-0.66406 3.42773,-0.66406 4.0918,0 4.0918,4.08203 z m -2.53906,1.52344 q 0.3125,0 0.52734,-0.21484 0.21484,-0.22461 0.21484,-0.54688 0,-0.29297 -0.22461,-0.50781 -0.21484,-0.21484 -0.51757,-0.21484 -0.30274,0 -0.52735,0.21484 -0.21484,0.21484 -0.21484,0.50781 0,0.32227 0.21484,0.54688 0.22461,0.21484 0.52735,0.21484 z" />
    <path
       id="path202"
       style=""
       d="m 230.36133,231 h -1.83594 v -7.00195 q 0,-1.25977 -0.60547,-1.92383 -0.5957,-0.67383 -1.65039,-0.67383 -1.61133,0 -3.30078,0.99609 h -0.12695 v -1.93359 q 1.72851,-0.66406 3.42773,-0.66406 4.0918,0 4.0918,4.08203 z" />
    <path
       id="path204"
       style=""
       d="m 242.33398,231 h -1.71875 q -1.86523,-1.78711 -3.62304,-2.27539 v 0.27344 q 0,1.06445 -0.61524,1.61133 -0.60547,0.54687 -1.52343,0.54687 -0.85938,0 -1.39649,-0.46875 -0.52734,-0.46875 -0.52734,-1.25 0,-0.74219 0.58594,-1.30859 0.5957,-0.57618 1.64062,-0.69336 v -4.07227 q -0.30273,0.11719 -0.70312,0.11719 -0.76172,0 -1.31836,-0.53711 -0.54688,-0.54688 -0.54688,-1.29883 0,-0.77148 0.54688,-1.31836 0.55664,-0.54687 1.31836,-0.54687 1.15234,0 1.8457,0.71289 0.69336,0.70312 0.69336,1.90429 v 5.12696 q 1.75781,0.41992 3.49609,1.69922 v -9.14063 h 1.8457 z m -7.88085,-8.64258 q 0.30273,0 0.51757,-0.20508 0.22461,-0.21484 0.22461,-0.50781 0,-0.33203 -0.22461,-0.54687 -0.21484,-0.21485 -0.51757,-0.21485 -0.30274,0 -0.52735,0.22461 -0.21484,0.21485 -0.21484,0.53711 0,0.29297 0.21484,0.50781 0.22461,0.20508 0.52735,0.20508 z m 0.70312,6.94336 v -0.76172 q -0.49805,0.0684 -0.79102,0.33203 -0.29296,0.26368 -0.29296,0.56641 0,0.2832 0.14648,0.45898 0.14648,0.16602 0.37109,0.16602 0.56641,0 0.56641,-0.76172 z" />
    <path
       id="path206"
       style=""
       d="m 256.31836,215.80469 v 17.83203 h -4.14063 v -1.39649 h 2.33399 v -15.03906 h -2.33399 v -1.39648 z" />
  </g>
  <g
     id="text87"
     style="font-size:20px;font-family:'DejaVu Sans', sans-serif;text-anchor:middle;fill:#000000"
     aria-label="[ ข้อความ ]">
    <path
       id="path209"
       style=""
       d="m 163.67188,283.80469 h 4.14062 v 1.39648 h -2.34375 v 15.03906 h 2.34375 v 1.39649 h -4.14062 z" />
    <path
       id="path211"
       style=""
       d="m 186.72852,299 h -8.03711 v -1.73828 h 1.24023 v -2.5 q 0,-0.74219 0.19531,-1.23047 0.20508,-0.49805 0.59571,-1.08398 0.43945,-0.66407 0.54687,-1.03516 0.10742,-0.37109 0.10742,-0.71289 0,-1.60156 -1.34765,-1.60156 -0.25391,0 -0.40039,0.0976 0.80078,0.60547 0.80078,1.50391 0,0.76172 -0.54688,1.29883 -0.54687,0.53711 -1.30859,0.53711 -0.76172,0 -1.30859,-0.53711 -0.53711,-0.54688 -0.53711,-1.31836 0,-1.29883 0.9082,-2.09961 0.91797,-0.80078 2.39258,-0.80078 1.40625,0 2.26562,0.80078 0.85938,0.79101 0.85938,2.09961 0,0.42969 -0.13672,0.91797 -0.12695,0.48828 -0.61524,1.34765 -0.625,1.07422 -0.625,1.73828 v 2.57813 h 3.11524 v -9.17969 h 1.83594 z m -8.1543,-7.55859 q 0.30273,0 0.51758,-0.21485 0.22461,-0.22461 0.22461,-0.54687 0,-0.29297 -0.22461,-0.50781 -0.21485,-0.21485 -0.51758,-0.21485 -0.30274,0 -0.52734,0.21485 -0.21485,0.21484 -0.21485,0.50781 0,0.32226 0.21485,0.54687 0.2246,0.21485 0.52734,0.21485 z" />
    <path
       id="path213"
       style=""
       d="m 190.04883,283.93164 q -1.2793,2.63672 -5.18555,3.21289 l 0.47852,-1.05469 q -0.42969,-0.0586 -0.70313,-0.38086 -0.27344,-0.33203 -0.27344,-0.76171 0,-0.46875 0.32227,-0.80079 0.3125,-0.34179 0.78125,-0.34179 0.44922,0 0.77148,0.34179 0.32227,0.33204 0.32227,0.80079 0,0.68359 -0.40039,1.14257 1.62109,-0.41992 2.64648,-2.1582 z m -4.58008,1.35742 q 0.12695,0 0.23438,-0.0976 0.0977,-0.10743 0.0977,-0.24414 0,-0.13672 -0.0977,-0.23438 -0.10743,-0.10742 -0.23438,-0.10742 -0.13672,0 -0.23437,0.10742 -0.10743,0.0977 -0.10743,0.23438 0,0.13671 0.10743,0.24414 0.0977,0.0976 0.23437,0.0976 z" />
    <path
       id="path215"
       style=""
       d="m 198.66211,299 h -8.62305 v -4.25781 q 0,-1.22071 0.69336,-1.92383 0.69336,-0.70313 1.84571,-0.70313 0.76171,0 1.30859,0.55665 0.54687,0.54687 0.54687,1.30859 0,0.76172 -0.54687,1.29883 -0.54688,0.53711 -1.30859,0.53711 -0.4004,0 -0.70313,-0.11719 v 1.5625 h 4.94141 v -5.03906 q 0,-1.33789 -0.76172,-2.08985 -0.75196,-0.75195 -2.04102,-0.75195 -2.00195,0 -3.93554,1.29883 h -0.11719 v -2.06055 q 2.10937,-0.83984 4.01367,-0.83984 2.26562,0 3.47656,1.18164 1.21094,1.17187 1.21094,3.26172 z m -6.08398,-4.29687 q 0.30273,0 0.51757,-0.21485 0.22461,-0.21484 0.22461,-0.50781 0,-0.32227 -0.22461,-0.53711 -0.21484,-0.22461 -0.51757,-0.22461 -0.30274,0 -0.52735,0.22461 -0.21484,0.21484 -0.21484,0.53711 0,0.29297 0.21484,0.50781 0.22461,0.21485 0.52735,0.21485 z" />
    <path
       id="path217"
       style=""
       d="m 210.97656,299 h -1.8457 v -6.29883 q 0,-3.18359 -2.88086,-3.18359 -1.37695,0 -2.12891,0.82031 -0.75195,0.81055 -0.75195,2.1582 0,1.23047 0.43945,2.74414 0.32227,-1.5039 0.89844,-2.4707 0.57617,-0.9668 1.60156,-0.9668 0.76172,0 1.3086,0.54688 0.55664,0.54687 0.55664,1.30859 0,0.76172 -0.54688,1.3086 -0.54687,0.53711 -1.31836,0.53711 -0.50781,0 -0.89843,-0.24414 -1.22071,1.23046 -1.22071,3.74023 h -1.83593 v -0.83984 q 0,-0.81055 -0.3711,-2.57813 -0.42969,-2.01172 -0.42969,-3.0664 0,-2.11915 1.21094,-3.42774 1.22071,-1.30859 3.48633,-1.30859 4.72656,0 4.72656,4.92187 z m -4.64843,-4.61914 q 0.30273,0 0.51757,-0.21484 0.22461,-0.21485 0.22461,-0.50782 0,-0.32226 -0.21484,-0.53711 -0.21484,-0.22461 -0.52734,-0.22461 -0.30274,0 -0.51758,0.22461 -0.21485,0.21485 -0.21485,0.53711 0,0.29297 0.21485,0.50782 0.22461,0.21484 0.51758,0.21484 z" />
    <path
       id="path219"
       style=""
       d="m 220.67383,296.53906 q 0,1.21094 -0.69336,1.91407 -0.68359,0.70312 -1.8457,0.70312 -0.76172,0 -1.3086,-0.54687 -0.54687,-0.54688 -0.54687,-1.3086 0,-0.76172 0.54687,-1.29883 0.54688,-0.53711 1.3086,-0.53711 0.40039,0 0.70312,0.11719 v -3.58398 q 0,-1.25977 -0.60547,-1.92383 -0.5957,-0.67383 -1.65039,-0.67383 -1.61133,0 -3.30078,0.99609 h -0.12695 v -1.93359 q 1.72851,-0.66406 3.42773,-0.66406 4.0918,0 4.0918,4.08203 z m -2.53906,1.52344 q 0.3125,0 0.52734,-0.21484 0.21484,-0.22461 0.21484,-0.54688 0,-0.29297 -0.22461,-0.50781 -0.21484,-0.21484 -0.51757,-0.21484 -0.30274,0 -0.52735,0.21484 -0.21484,0.21484 -0.21484,0.50781 0,0.32227 0.21484,0.54688 0.22461,0.21484 0.52735,0.21484 z" />
    <path
       id="path221"
       style=""
       d="m 230.36133,299 h -1.83594 v -7.00195 q 0,-1.25977 -0.60547,-1.92383 -0.5957,-0.67383 -1.65039,-0.67383 -1.61133,0 -3.30078,0.99609 h -0.12695 v -1.93359 q 1.72851,-0.66406 3.42773,-0.66406 4.0918,0 4.0918,4.08203 z" />
    <path
       id="path223"
       style=""
       d="m 242.33398,299 h -1.71875 q -1.86523,-1.78711 -3.62304,-2.27539 v 0.27344 q 0,1.06445 -0.61524,1.61133 -0.60547,0.54687 -1.52343,0.54687 -0.85938,0 -1.39649,-0.46875 -0.52734,-0.46875 -0.52734,-1.25 0,-0.74219 0.58594,-1.30859 0.5957,-0.57618 1.64062,-0.69336 v -4.07227 q -0.30273,0.11719 -0.70312,0.11719 -0.76172,0 -1.31836,-0.53711 -0.54688,-0.54688 -0.54688,-1.29883 0,-0.77148 0.54688,-1.31836 0.55664,-0.54687 1.31836,-0.54687 1.15234,0 1.8457,0.71289 0.69336,0.70312 0.69336,1.90429 v 5.12696 q 1.75781,0.41992 3.49609,1.69922 v -9.14063 h 1.8457 z m -7.88085,-8.64258 q 0.30273,0 0.51757,-0.20508 0.22461,-0.21484 0.22461,-0.50781 0,-0.33203 -0.22461,-0.54687 -0.21484,-0.21485 -0.51757,-0.21485 -0.30274,0 -0.52735,0.22461 -0.21484,0.21485 -0.21484,0.53711 0,0.29297 0.21484,0.50781 0.22461,0.20508 0.52735,0.20508 z m 0.70312,6.94336 v -0.76172 q -0.49805,0.0684 -0.79102,0.33203 -0.29296,0.26368 -0.29296,0.56641 0,0.2832 0.14648,0.45898 0.14648,0.16602 0.37109,0.16602 0.56641,0 0.56641,-0.76172 z" />
    <path
       id="path225"
       style=""
       d="m 256.31836,283.80469 v 17.83203 h -4.14063 v -1.39649 h 2.33399 v -15.03906 h -2.33399 v -1.39648 z" />
  </g>
</svg>
