<?xml version="1.0" encoding="UTF-8" standalone="no"?>
<svg
   xmlns:dc="http://purl.org/dc/elements/1.1/"
   xmlns:cc="http://creativecommons.org/ns#"
   xmlns:rdf="http://www.w3.org/1999/02/22-rdf-syntax-ns#"
   xmlns:svg="http://www.w3.org/2000/svg"
   xmlns="http://www.w3.org/2000/svg"
   id="svg95"
   stroke-miterlimit="10"
   stroke-linecap="square"
   stroke="none"
   fill="none"
   viewBox="0.0 0.0 348.0 348.0"
   version="1.1">
  <metadata
     id="metadata101">
    <rdf:RDF>
      <cc:Work
         rdf:about="">
        <dc:format>image/svg+xml</dc:format>
        <dc:type
           rdf:resource="http://purl.org/dc/dcmitype/StillImage" />
      </cc:Work>
    </rdf:RDF>
  </metadata>
  <defs
     id="defs99" />
  <clipPath
     id="p.0">
    <path
       id="path2"
       clip-rule="nonzero"
       d="m0 0l348.0 0l0 348.0l-348.0 0l0 -348.0z" />
  </clipPath>
  <g
     id="g81"
     clip-path="url(#p.0)">
    <path
       style="fill:#000000;fill-opacity:0;fill-rule:nonzero"
       id="path5"
       d="M 0,0 H 348 V 348 H 0 Z" />
    <path
       style="fill:#ffffff;fill-rule:nonzero"
       id="path7"
       d="M -6,0 H 348.01575 V 347.9685 H -6 Z" />
    <path
       style="fill:#000000;fill-opacity:0;fill-rule:nonzero"
       id="path9"
       d="m 5.07874,5.7758217 h 336.9134 V 343.44512 H 5.07874 Z" />
    <path
       style="fill-rule:nonzero;stroke:#000000;stroke-width:2;stroke-linecap:butt;stroke-linejoin:round"
       id="path11"
       d="m 5.07874,5.7758217 h 336.9134 V 343.44512 H 5.07874 Z" />
    <path
       style="fill:#000000;fill-rule:nonzero"
       id="path13"
       d="m 133.84251,15.666667 h 74.33072 v 56.881886 h -74.33072 z" />
    <path
       style="fill:#ffffff;fill-rule:nonzero"
       id="path15"
       d="m 154.53912,44.089794 q 0,-4.0625 0.82812,-6.53125 0.84375,-2.484375 2.48438,-3.828125 1.65625,-1.34375 4.15625,-1.34375 1.84375,0 3.23437,0.75 1.39063,0.734375 2.29688,2.140625 0.90625,1.390625 1.42187,3.40625 0.51563,2 0.51563,5.40625 0,4.03125 -0.82813,6.515625 -0.82812,2.46875 -2.48437,3.828125 -1.64063,1.34375 -4.15625,1.34375 -3.3125,0 -5.20313,-2.375 -2.26562,-2.859375 -2.26562,-9.3125 z m 2.89062,0 q 0,5.640625 1.3125,7.515625 1.32813,1.859375 3.26563,1.859375 1.9375,0 3.25,-1.875 1.32812,-1.875 1.32812,-7.5 0,-5.65625 -1.32812,-7.515625 -1.3125,-1.859375 -3.28125,-1.859375 -1.9375,0 -3.09375,1.640625 -1.45313,2.09375 -1.45313,7.734375 z m 14.90625,0 q 0,-4.0625 0.82813,-6.53125 0.84375,-2.484375 2.48437,-3.828125 1.65625,-1.34375 4.15625,-1.34375 1.84375,0 3.23438,0.75 1.39062,0.734375 2.29687,2.140625 0.90625,1.390625 1.42188,3.40625 0.51562,2 0.51562,5.40625 0,4.03125 -0.82812,6.515625 -0.82813,2.46875 -2.48438,3.828125 -1.64062,1.34375 -4.15625,1.34375 -3.3125,0 -5.20312,-2.375 -2.26563,-2.859375 -2.26563,-9.3125 z m 2.89063,0 q 0,5.640625 1.3125,7.515625 1.32812,1.859375 3.26562,1.859375 1.9375,0 3.25,-1.875 1.32813,-1.875 1.32813,-7.5 0,-5.65625 -1.32813,-7.515625 -1.3125,-1.859375 -3.28125,-1.859375 -1.9375,0 -3.09375,1.640625 -1.45312,2.09375 -1.45312,7.734375 z" />
    <path
       style="fill:#ffffff;fill-rule:nonzero"
       id="path17"
       d="M 15.262467,17.706038 H 125.15223 v 54.83464 H 15.262467 Z" />
    <path
       style="fill-rule:nonzero;stroke:#000000;stroke-width:2;stroke-linecap:butt;stroke-linejoin:round"
       id="path19"
       d="M 15.262467,17.706038 H 125.15223 v 54.83464 H 15.262467 Z" />
    <path
       style="fill:#000000;fill-opacity:0;fill-rule:nonzero"
       id="path21"
       d="M 15.262467,72.65354 54.947507,18.5748" />
    <path
       style="fill-rule:nonzero;stroke:#000000;stroke-width:2;stroke-linecap:butt;stroke-linejoin:round"
       id="path23"
       d="M 15.262467,72.65354 54.947507,18.5748" />
    <path
       style="fill:#000000;fill-opacity:0;fill-rule:nonzero"
       id="path25"
       d="M 37.56649,72.65354 77.251533,18.5748" />
    <path
       style="fill-rule:nonzero;stroke:#000000;stroke-width:2;stroke-linecap:butt;stroke-linejoin:round"
       id="path27"
       d="M 37.56649,72.65354 77.251533,18.5748" />
    <path
       style="fill:#000000;fill-opacity:0;fill-rule:nonzero"
       id="path29"
       d="M 59.870514,72.65354 99.555557,18.5748" />
    <path
       style="fill-rule:nonzero;stroke:#000000;stroke-width:2;stroke-linecap:butt;stroke-linejoin:round"
       id="path31"
       d="M 59.870514,72.65354 99.555557,18.5748" />
    <path
       style="fill:#000000;fill-opacity:0;fill-rule:nonzero"
       id="path33"
       d="M 82.17454,72.65354 121.85958,18.5748" />
    <path
       style="fill-rule:nonzero;stroke:#000000;stroke-width:2;stroke-linecap:butt;stroke-linejoin:round"
       id="path35"
       d="M 82.17454,72.65354 121.85958,18.5748" />
    <path
       style="fill:#ffffff;fill-rule:nonzero"
       id="path37"
       d="M 32.97638,83.031494 H 315.02362 V 325.3937 H 32.97638 Z" />
    <path
       style="fill-rule:nonzero;stroke:#000000;stroke-width:2;stroke-linecap:butt;stroke-linejoin:round"
       id="path39"
       d="M 32.97638,83.031494 H 315.02362 V 325.3937 H 32.97638 Z" />
    <path
       style="fill:#ffffff;fill-rule:nonzero"
       id="path41"
       d="m 216.86351,16.633858 h 109.88975 v 54.83465 H 216.86351 Z" />
    <path
       style="fill-rule:nonzero;stroke:#000000;stroke-width:2;stroke-linecap:butt;stroke-linejoin:round"
       id="path43"
       d="m 216.86351,16.633858 h 109.88975 v 54.83465 H 216.86351 Z" />
    <path
       style="fill:#000000;fill-opacity:0;fill-rule:nonzero"
       id="path45"
       d="M 216.86351,71.58137 256.54855,17.502627" />
    <path
       style="fill-rule:nonzero;stroke:#000000;stroke-width:2;stroke-linecap:butt;stroke-linejoin:round"
       id="path47"
       d="M 216.86351,71.58137 256.54855,17.502627" />
    <path
       style="fill:#000000;fill-opacity:0;fill-rule:nonzero"
       id="path49"
       d="M 239.16754,71.58137 278.85257,17.502627" />
    <path
       style="fill-rule:nonzero;stroke:#000000;stroke-width:2;stroke-linecap:butt;stroke-linejoin:round"
       id="path51"
       d="M 239.16754,71.58137 278.85257,17.502627" />
    <path
       style="fill:#000000;fill-opacity:0;fill-rule:nonzero"
       id="path53"
       d="M 261.47156,71.58137 301.15662,17.502627" />
    <path
       style="fill-rule:nonzero;stroke:#000000;stroke-width:2;stroke-linecap:butt;stroke-linejoin:round"
       id="path55"
       d="M 261.47156,71.58137 301.15662,17.502627" />
    <path
       style="fill:#000000;fill-opacity:0;fill-rule:nonzero"
       id="path57"
       d="M 283.7756,71.58137 323.46063,17.502627" />
    <path
       style="fill-rule:nonzero;stroke:#000000;stroke-width:2;stroke-linecap:butt;stroke-linejoin:round"
       id="path59"
       d="M 283.7756,71.58137 323.46063,17.502627" />
    <path
       style="fill:#000000;fill-rule:nonzero"
       id="path61"
       d="M 44.490814,88.11811 H 303.48294 V 252.05512 H 44.490814 Z" />
    <path
       style="fill-rule:nonzero;stroke:#000000;stroke-width:1;stroke-linecap:butt;stroke-linejoin:round"
       id="path63"
       d="m 113.77165,267.51697 h 49.25984 v 45.48032 h -49.25984 z" />
    <path
       style="fill:#000000;fill-opacity:0;fill-rule:nonzero"
       id="path65"
       d="m 182.79527,267.51697 h 49.25984 v 45.48032 h -49.25984 z" />
    <path
       style="fill-rule:nonzero;stroke:#000000;stroke-width:1;stroke-linecap:butt;stroke-linejoin:round"
       id="path67"
       d="m 182.79527,267.51697 h 49.25984 v 45.48032 h -49.25984 z" />
    <path
       style="fill:#ffffff;fill-rule:nonzero"
       id="path69"
       d="m 260.08136,270.74014 h 36.72443 v 25.63782 h -36.72443 z" />
    <path
       style="fill-rule:nonzero;stroke:#000000;stroke-width:2;stroke-linecap:butt;stroke-linejoin:round"
       id="path71"
       d="m 260.08136,270.74014 h 36.72443 v 25.63782 h -36.72443 z" />
    <path
       style="fill:#ffffff;fill-rule:nonzero"
       id="path73"
       d="m 265.46457,305.50656 v 0 c 0,-2.35699 1.91071,-4.26773 4.2677,-4.26773 v 0 c 1.1319,0 2.21741,0.44965 3.01773,1.25 0.80035,0.80035 1.25,1.88586 1.25,3.01773 v 0 c 0,2.35699 -1.91074,4.26773 -4.26773,4.26773 v 0 c -2.35699,0 -4.2677,-1.91074 -4.2677,-4.26773 z" />
    <path
       style="fill-rule:nonzero;stroke:#000000;stroke-width:2;stroke-linecap:butt;stroke-linejoin:round"
       id="path75"
       d="m 265.46457,305.50656 v 0 c 0,-2.35699 1.91071,-4.26773 4.2677,-4.26773 v 0 c 1.1319,0 2.21741,0.44965 3.01773,1.25 0.80035,0.80035 1.25,1.88586 1.25,3.01773 v 0 c 0,2.35699 -1.91074,4.26773 -4.26773,4.26773 v 0 c -2.35699,0 -4.2677,-1.91074 -4.2677,-4.26773 z" />
    <path
       style="fill:#ffffff;fill-rule:nonzero"
       id="path77"
       d="m 282.8084,305.50656 v 0 c 0,-2.35699 1.91071,-4.26773 4.2677,-4.26773 v 0 c 1.13187,0 2.21738,0.44965 3.01773,1.25 0.80035,0.80035 1.25,1.88586 1.25,3.01773 v 0 c 0,2.35699 -1.91074,4.26773 -4.26773,4.26773 v 0 c -2.35699,0 -4.2677,-1.91074 -4.2677,-4.26773 z" />
    <path
       style="fill-rule:nonzero;stroke:#000000;stroke-width:2;stroke-linecap:butt;stroke-linejoin:round"
       id="path79"
       d="m 282.8084,305.50656 v 0 c 0,-2.35699 1.91071,-4.26773 4.2677,-4.26773 v 0 c 1.13187,0 2.21738,0.44965 3.01773,1.25 0.80035,0.80035 1.25,1.88586 1.25,3.01773 v 0 c 0,2.35699 -1.91074,4.26773 -4.26773,4.26773 v 0 c -2.35699,0 -4.2677,-1.91074 -4.2677,-4.26773 z" />
  </g>
  <g
     id="text85"
     style="font-size:42px;font-family:sans-serif;text-anchor:middle;fill:#ffffff"
     aria-label="[MISSING: Manual/needygas.moduleicontext]">
    <path
       id="path103"
       style="fill:#ff0000"
       d="m -297.7207,106.08984 h 8.69531 v 2.93262 h -4.92188 v 31.58203 h 4.92188 v 2.93262 h -8.69531 z" />
    <path
       id="path105"
       style="fill:#ff0000"
       d="m -280.80176,107.38184 h 6.17285 l 7.81348,20.83593 7.85449,-20.83593 h 6.17285 V 138 h -4.04004 v -26.88574 l -7.8955,21 h -4.16309 l -7.89551,-21 V 138 h -4.01953 z" />
    <path
       id="path107"
       style="fill:#ff0000"
       d="m -244.54395,107.38184 h 4.14258 V 138 h -4.14258 z" />
    <path
       id="path109"
       style="fill:#ff0000"
       d="m -213.80273,108.38672 v 4.04004 q -2.3584,-1.12793 -4.4502,-1.68164 -2.0918,-0.55371 -4.04004,-0.55371 -3.38379,0 -5.22949,1.3125 -1.8252,1.3125 -1.8252,3.73242 0,2.03027 1.20996,3.07617 1.23047,1.02539 4.63477,1.66113 l 2.50195,0.5127 q 4.63477,0.88183 6.8291,3.11719 2.21485,2.21484 2.21485,5.94726 0,4.4502 -2.99414,6.74707 -2.97363,2.29688 -8.73633,2.29688 -2.17383,0 -4.63477,-0.49219 -2.44043,-0.49219 -5.06543,-1.45606 v -4.26562 q 2.52247,1.41504 4.94239,2.13281 2.41992,0.71778 4.75781,0.71778 3.54785,0 5.47559,-1.39454 1.92773,-1.39453 1.92773,-3.97851 0,-2.25586 -1.39453,-3.52735 -1.37402,-1.27148 -4.53223,-1.90722 l -2.52246,-0.49219 q -4.63476,-0.92285 -6.70605,-2.8916 -2.07129,-1.96875 -2.07129,-5.47559 0,-4.06054 2.85058,-6.39843 2.8711,-2.3379 7.89551,-2.3379 2.15332,0 4.38867,0.38965 2.23535,0.38965 4.57325,1.16895 z" />
    <path
       id="path111"
       style="fill:#ff0000"
       d="m -187.14258,108.38672 v 4.04004 q -2.3584,-1.12793 -4.45019,-1.68164 -2.0918,-0.55371 -4.04004,-0.55371 -3.38379,0 -5.22949,1.3125 -1.8252,1.3125 -1.8252,3.73242 0,2.03027 1.20996,3.07617 1.23047,1.02539 4.63477,1.66113 l 2.50195,0.5127 q 4.63477,0.88183 6.8291,3.11719 2.21484,2.21484 2.21484,5.94726 0,4.4502 -2.99414,6.74707 -2.97363,2.29688 -8.73632,2.29688 -2.17383,0 -4.63477,-0.49219 -2.44043,-0.49219 -5.06543,-1.45606 v -4.26562 q 2.52246,1.41504 4.94238,2.13281 2.41993,0.71778 4.75782,0.71778 3.54785,0 5.47558,-1.39454 1.92774,-1.39453 1.92774,-3.97851 0,-2.25586 -1.39453,-3.52735 -1.37403,-1.27148 -4.53223,-1.90722 l -2.52246,-0.49219 q -4.63477,-0.92285 -6.70606,-2.8916 -2.07129,-1.96875 -2.07129,-5.47559 0,-4.06054 2.85059,-6.39843 2.87109,-2.3379 7.89551,-2.3379 2.15332,0 4.38867,0.38965 2.23535,0.38965 4.57324,1.16895 z" />
    <path
       id="path113"
       style="fill:#ff0000"
       d="m -178.83691,107.38184 h 4.14257 V 138 h -4.14257 z" />
    <path
       id="path115"
       style="fill:#ff0000"
       d="m -166.4502,107.38184 h 5.57813 l 13.57617,25.61425 v -25.61425 h 4.01953 V 138 h -5.57812 l -13.57617,-25.61426 V 138 h -4.01954 z" />
    <path
       id="path117"
       style="fill:#ff0000"
       d="m -114.15527,133.63184 v -8.22364 h -6.76758 v -3.40429 h 10.86914 v 13.1455 q -2.39941,1.70215 -5.29102,2.58399 -2.8916,0.86133 -6.17285,0.86133 -7.17773,0 -11.23828,-4.1836 -4.04004,-4.2041 -4.04004,-11.68945 0,-7.50586 4.04004,-11.68945 4.06055,-4.20411 11.23828,-4.20411 2.99414,0 5.68067,0.73829 2.70703,0.73828 4.98339,2.17382 v 4.40918 q -2.29687,-1.94824 -4.88085,-2.93261 -2.58399,-0.98438 -5.43458,-0.98438 -5.61914,0 -8.44921,3.1377 -2.80957,3.13769 -2.80957,9.35156 0,6.19336 2.80957,9.33105 2.83007,3.1377 8.44921,3.1377 2.19434,0 3.917,-0.36914 1.72265,-0.38965 3.09668,-1.18945 z" />
    <path
       id="path119"
       style="fill:#ff0000"
       d="m -101.66602,132.79102 h 4.327153 V 138 h -4.327153 z m 0,-16.50879 h 4.327153 v 5.20898 h -4.327153 z" />
    <path
       id="path121"
       style="fill:#ff0000"
       d="m -74.90332,107.38184 h 6.172851 l 7.813477,20.83593 7.854492,-20.83593 h 6.172852 V 138 h -4.04004 v -26.88574 l -7.895507,21 h -4.163086 l -7.895508,-21 V 138 h -4.019531 z" />
    <path
       id="path123"
       style="fill:#ff0000"
       d="m -28.371094,126.4541 q -4.573242,0 -6.336914,1.0459 -1.763672,1.0459 -1.763672,3.56836 0,2.00977 1.3125,3.19922 1.333008,1.16894 3.609375,1.16894 3.137696,0 5.024414,-2.21484 1.907227,-2.23535 1.907227,-5.92676 v -0.84082 z m 7.526367,-1.55859 V 138 h -3.773437 v -3.48633 q -1.291992,2.0918 -3.219727,3.09668 -1.927734,0.98438 -4.716797,0.98438 -3.527343,0 -5.61914,-1.96875 -2.071289,-1.98926 -2.071289,-5.31153 0,-3.87597 2.583984,-5.84472 2.604492,-1.96875 7.751953,-1.96875 h 5.291016 v -0.36914 q 0,-2.6045 -1.722656,-4.01954 -1.702149,-1.43554 -4.798828,-1.43554 -1.96875,0 -3.834961,0.47168 -1.866211,0.47168 -3.588868,1.41504 v -3.48633 q 2.071289,-0.79981 4.019532,-1.18945 1.948242,-0.41016 3.793945,-0.41016 4.983398,0 7.444336,2.58398 2.460937,2.58399 2.460937,7.83399 z" />
    <path
       id="path125"
       style="fill:#ff0000"
       d="M 6.0410156,124.13672 V 138 H 2.2675781 v -13.74023 q 0,-3.26075 -1.27148435,-4.88086 -1.27148437,-1.62012 -3.81445315,-1.62012 -3.055664,0 -4.8193359,1.94824 -1.7636719,1.94824 -1.7636719,5.31152 V 138 h -3.7939448 v -22.96875 h 3.7939448 v 3.56836 q 1.3535156,-2.07129 3.1787109,-3.09668 1.8457032,-1.02539 4.2451172,-1.02539 3.9580079,0 5.9882813,2.46094 2.0302734,2.44043 2.0302734,7.19824 z" />
    <path
       id="path127"
       style="fill:#ff0000"
       d="m 13.21875,128.93555 v -13.9043 h 3.773438 v 13.76074 q 0,3.26074 1.271484,4.90137 1.271484,1.62012 3.814453,1.62012 3.055664,0 4.819336,-1.94825 1.78418,-1.94824 1.78418,-5.31152 v -13.02246 h 3.773437 V 138 h -3.773437 v -3.52734 q -1.374024,2.09179 -3.199219,3.11718 -1.804688,1.00489 -4.204102,1.00489 -3.958007,0 -6.008789,-2.46094 -2.050781,-2.46094 -2.050781,-7.19824 z m 9.495117,-14.45801 z" />
    <path
       id="path129"
       style="fill:#ff0000"
       d="m 50.707031,126.4541 q -4.573242,0 -6.336914,1.0459 -1.763672,1.0459 -1.763672,3.56836 0,2.00977 1.3125,3.19922 1.333008,1.16894 3.609375,1.16894 3.137696,0 5.024414,-2.21484 1.907227,-2.23535 1.907227,-5.92676 v -0.84082 z m 7.526367,-1.55859 V 138 h -3.773437 v -3.48633 q -1.291992,2.0918 -3.219727,3.09668 -1.927734,0.98438 -4.716796,0.98438 -3.527344,0 -5.619141,-1.96875 -2.071289,-1.98926 -2.071289,-5.31153 0,-3.87597 2.583984,-5.84472 2.604492,-1.96875 7.751953,-1.96875 h 5.291016 v -0.36914 q 0,-2.6045 -1.722656,-4.01954 -1.702149,-1.43554 -4.798828,-1.43554 -1.96875,0 -3.834961,0.47168 -1.866211,0.47168 -3.588868,1.41504 v -3.48633 q 2.07129,-0.79981 4.019532,-1.18945 1.948242,-0.41016 3.793945,-0.41016 4.983398,0 7.444336,2.58398 2.460937,2.58399 2.460937,7.83399 z" />
    <path
       id="path131"
       style="fill:#ff0000"
       d="m 66.026367,106.08984 h 3.773438 V 138 h -3.773438 z" />
    <path
       id="path133"
       style="fill:#ff0000"
       d="m 84.380859,107.38184 h 3.486329 l -10.664063,34.51464 h -3.486328 z" />
    <path
       id="path135"
       style="fill:#ff0000"
       d="M 110.95898,124.13672 V 138 h -3.77343 v -13.74023 q 0,-3.26075 -1.27149,-4.88086 -1.27148,-1.62012 -3.81445,-1.62012 -3.055665,0 -4.819337,1.94824 -1.763671,1.94824 -1.763671,5.31152 V 138 h -3.793946 v -22.96875 h 3.793946 v 3.56836 q 1.353515,-2.07129 3.178711,-3.09668 1.845707,-1.02539 4.245117,-1.02539 3.95801,0 5.98828,2.46094 2.03027,2.44043 2.03027,7.19824 z" />
    <path
       id="path137"
       style="fill:#ff0000"
       d="m 138.17285,125.57227 v 1.8457 h -17.34961 q 0.2461,3.89648 2.33789,5.94726 2.11231,2.03028 5.86524,2.03028 2.17383,0 4.2041,-0.53321 2.05078,-0.5332 4.06055,-1.5996 v 3.56835 q -2.03028,0.86133 -4.16309,1.3125 -2.13281,0.45118 -4.32715,0.45118 -5.49609,0 -8.71582,-3.19922 -3.19922,-3.19922 -3.19922,-8.6543 0,-5.63965 3.03516,-8.94141 3.05566,-3.32226 8.22363,-3.32226 4.63477,0 7.32129,2.99414 2.70703,2.97363 2.70703,8.10059 z m -3.77344,-1.10743 q -0.041,-3.09668 -1.74316,-4.94238 -1.68164,-1.8457 -4.4707,-1.8457 -3.15821,0 -5.06543,1.78418 -1.88672,1.78418 -2.17383,5.02441 z" />
    <path
       id="path139"
       style="fill:#ff0000"
       d="m 164.0127,125.57227 v 1.8457 h -17.34961 q 0.24609,3.89648 2.33789,5.94726 2.1123,2.03028 5.86523,2.03028 2.17383,0 4.2041,-0.53321 2.05078,-0.5332 4.06055,-1.5996 v 3.56835 q -2.03027,0.86133 -4.16309,1.3125 -2.13281,0.45118 -4.32714,0.45118 -5.4961,0 -8.71583,-3.19922 -3.19921,-3.19922 -3.19921,-8.6543 0,-5.63965 3.03515,-8.94141 3.05567,-3.32226 8.22364,-3.32226 4.63476,0 7.32128,2.99414 2.70704,2.97363 2.70704,8.10059 z m -3.77344,-1.10743 q -0.041,-3.09668 -1.74317,-4.94238 -1.68164,-1.8457 -4.4707,-1.8457 -3.1582,0 -5.06543,1.78418 -1.88672,1.78418 -2.17383,5.02441 z" />
    <path
       id="path141"
       style="fill:#ff0000"
       d="m 185.32031,118.51758 v -12.42774 h 3.77344 V 138 h -3.77344 v -3.44531 q -1.18945,2.05078 -3.01465,3.05566 -1.80468,0.98438 -4.34765,0.98438 -4.16309,0 -6.78809,-3.32227 -2.60449,-3.32226 -2.60449,-8.73633 0,-5.41406 2.60449,-8.73633 2.625,-3.32226 6.78809,-3.32226 2.54297,0 4.34765,1.00488 1.8252,0.98438 3.01465,3.03516 z m -12.8584,8.01855 q 0,4.16309 1.70215,6.542 1.72266,2.35839 4.7168,2.35839 2.99414,0 4.7168,-2.35839 1.72265,-2.37891 1.72265,-6.542 0,-4.16308 -1.72265,-6.52148 -1.72266,-2.37891 -4.7168,-2.37891 -2.99414,0 -4.7168,2.37891 -1.70215,2.3584 -1.70215,6.52148 z" />
    <path
       id="path143"
       style="fill:#ff0000"
       d="m 206.42285,140.13281 q -1.59961,4.10157 -3.11719,5.35254 -1.51757,1.25098 -4.06054,1.25098 h -3.01465 v -3.1582 h 2.21484 q 1.5586,0 2.41992,-0.73829 0.86133,-0.73828 1.90723,-3.48632 l 0.67676,-1.72266 -9.29004,-22.59961 h 3.99902 l 7.17774,17.96484 7.17773,-17.96484 h 3.99903 z" />
    <path
       id="path145"
       style="fill:#ff0000"
       d="m 236.83594,126.24902 q 0,-4.10156 -1.70215,-6.35742 -1.68164,-2.25586 -4.73731,-2.25586 -3.03515,0 -4.7373,2.25586 -1.68164,2.25586 -1.68164,6.35742 0,4.08106 1.68164,6.33692 1.70215,2.25586 4.7373,2.25586 3.05567,0 4.73731,-2.25586 1.70215,-2.25586 1.70215,-6.33692 z m 3.77344,8.90039 q 0,5.86524 -2.6045,8.71582 -2.60449,2.8711 -7.97754,2.8711 -1.98925,0 -3.75293,-0.30762 -1.76367,-0.28711 -3.4248,-0.90234 v -3.6709 q 1.66113,0.90234 3.28125,1.33301 1.62012,0.43066 3.30176,0.43066 3.71191,0 5.55761,-1.94824 1.84571,-1.92774 1.84571,-5.84473 v -1.86621 q -1.16895,2.03027 -2.99414,3.03516 Q 232.0166,138 229.47363,138 q -4.22461,0 -6.80859,-3.21973 -2.58399,-3.21972 -2.58399,-8.53125 0,-5.33203 2.58399,-8.55175 2.58398,-3.21973 6.80859,-3.21973 2.54297,0 4.36817,1.00488 1.82519,1.00488 2.99414,3.03516 v -3.48633 h 3.77344 z" />
    <path
       id="path147"
       style="fill:#ff0000"
       d="m 258.82031,126.4541 q -4.57324,0 -6.33691,1.0459 -1.76367,1.0459 -1.76367,3.56836 0,2.00977 1.3125,3.19922 1.333,1.16894 3.60937,1.16894 3.1377,0 5.02442,-2.21484 1.90722,-2.23535 1.90722,-5.92676 v -0.84082 z m 7.52637,-1.55859 V 138 h -3.77344 v -3.48633 q -1.29199,2.0918 -3.21972,3.09668 -1.92774,0.98438 -4.7168,0.98438 -3.52734,0 -5.61914,-1.96875 -2.07129,-1.98926 -2.07129,-5.31153 0,-3.87597 2.58398,-5.84472 2.6045,-1.96875 7.75196,-1.96875 h 5.29101 v -0.36914 q 0,-2.6045 -1.72265,-4.01954 -1.70215,-1.43554 -4.79883,-1.43554 -1.96875,0 -3.83496,0.47168 -1.86621,0.47168 -3.58887,1.41504 v -3.48633 q 2.07129,-0.79981 4.01953,-1.18945 1.94824,-0.41016 3.79395,-0.41016 4.98339,0 7.44433,2.58398 2.46094,2.58399 2.46094,7.83399 z" />
    <path
       id="path149"
       style="fill:#ff0000"
       d="m 288.78223,115.70801 v 3.56836 q -1.59961,-0.82032 -3.32227,-1.23047 -1.72266,-0.41016 -3.56836,-0.41016 -2.80957,0 -4.22461,0.86133 -1.39453,0.86133 -1.39453,2.58398 0,1.3125 1.00488,2.07129 1.00489,0.73828 4.04004,1.41504 l 1.292,0.28711 q 4.01953,0.86133 5.70117,2.44043 1.70215,1.5586 1.70215,4.36817 0,3.19921 -2.54297,5.06543 -2.52246,1.86621 -6.95215,1.86621 -1.8457,0 -3.85547,-0.36914 -1.98926,-0.34864 -4.2041,-1.06641 v -3.89648 q 2.09179,1.08691 4.12207,1.64062 2.03027,0.5332 4.01953,0.5332 2.66602,0 4.10156,-0.90234 1.43555,-0.92285 1.43555,-2.58398 0,-1.53809 -1.0459,-2.3584 -1.02539,-0.82032 -4.53223,-1.5791 l -1.3125,-0.30762 q -3.50683,-0.73828 -5.06543,-2.25586 -1.55859,-1.53809 -1.55859,-4.2041 0,-3.24024 2.29688,-5.00391 2.29687,-1.76367 6.52148,-1.76367 2.0918,0 3.9375,0.30762 1.8457,0.30761 3.4043,0.92285 z" />
    <path
       id="path151"
       style="fill:#ff0000"
       d="m 296.5752,132.79102 h 4.32714 V 138 h -4.32714 z" />
    <path
       id="path153"
       style="fill:#ff0000"
       d="m 327.2959,119.44043 q 1.41504,-2.54297 3.38379,-3.75293 1.96875,-1.20996 4.63476,-1.20996 3.58887,0 5.53711,2.52246 1.94824,2.50195 1.94824,7.13672 V 138 h -3.79394 v -13.74023 q 0,-3.30176 -1.16895,-4.90137 -1.16894,-1.59961 -3.56836,-1.59961 -2.93261,0 -4.63476,1.94824 -1.70215,1.94824 -1.70215,5.31152 V 138 h -3.79394 v -13.74023 q 0,-3.32227 -1.16895,-4.90137 -1.16895,-1.59961 -3.60937,-1.59961 -2.89161,0 -4.59375,1.96875 -1.70215,1.94824 -1.70215,5.29101 V 138 h -3.79395 v -22.96875 h 3.79395 v 3.56836 q 1.29199,-2.11231 3.09668,-3.11719 1.80468,-1.00488 4.28613,-1.00488 2.50195,0 4.24512,1.27148 1.76367,1.27149 2.60449,3.69141 z" />
    <path
       id="path155"
       style="fill:#ff0000"
       d="m 359.24707,117.67676 q -3.03516,0 -4.79883,2.3789 -1.76367,2.3584 -1.76367,6.48047 0,4.12207 1.74316,6.50098 1.76368,2.3584 4.81934,2.3584 3.01465,0 4.77832,-2.37891 1.76367,-2.3789 1.76367,-6.48047 0,-4.08105 -1.76367,-6.45996 -1.76367,-2.39941 -4.77832,-2.39941 z m 0,-3.19922 q 4.92188,0 7.73145,3.19922 2.80957,3.19922 2.80957,8.85937 0,5.63965 -2.80957,8.85938 -2.80957,3.19922 -7.73145,3.19922 -4.94238,0 -7.75195,-3.19922 -2.78907,-3.21973 -2.78907,-8.85938 0,-5.66015 2.78907,-8.85937 2.80957,-3.19922 7.75195,-3.19922 z" />
    <path
       id="path157"
       style="fill:#ff0000"
       d="m 391.13672,118.51758 v -12.42774 h 3.77344 V 138 h -3.77344 v -3.44531 q -1.18945,2.05078 -3.01465,3.05566 -1.80469,0.98438 -4.34766,0.98438 -4.16308,0 -6.78808,-3.32227 -2.60449,-3.32226 -2.60449,-8.73633 0,-5.41406 2.60449,-8.73633 2.625,-3.32226 6.78808,-3.32226 2.54297,0 4.34766,1.00488 1.8252,0.98438 3.01465,3.03516 z m -12.8584,8.01855 q 0,4.16309 1.70215,6.542 1.72266,2.35839 4.7168,2.35839 2.99414,0 4.71679,-2.35839 1.72266,-2.37891 1.72266,-6.542 0,-4.16308 -1.72266,-6.52148 -1.72265,-2.37891 -4.71679,-2.37891 -2.99414,0 -4.7168,2.37891 -1.70215,2.3584 -1.70215,6.52148 z" />
    <path
       id="path159"
       style="fill:#ff0000"
       d="m 402.29297,128.93555 v -13.9043 h 3.77344 v 13.76074 q 0,3.26074 1.27148,4.90137 1.27149,1.62012 3.81445,1.62012 3.05567,0 4.81934,-1.94825 1.78418,-1.94824 1.78418,-5.31152 v -13.02246 h 3.77344 V 138 h -3.77344 v -3.52734 q -1.37402,2.09179 -3.19922,3.11718 -1.80469,1.00489 -4.2041,1.00489 -3.95801,0 -6.00879,-2.46094 -2.05078,-2.46094 -2.05078,-7.19824 z m 9.49512,-14.45801 z" />
    <path
       id="path161"
       style="fill:#ff0000"
       d="m 429.34277,106.08984 h 3.77344 V 138 h -3.77344 z" />
    <path
       id="path163"
       style="fill:#ff0000"
       d="m 460.6377,125.57227 v 1.8457 h -17.34961 q 0.24609,3.89648 2.33789,5.94726 2.1123,2.03028 5.86523,2.03028 2.17383,0 4.2041,-0.53321 2.05078,-0.5332 4.06055,-1.5996 v 3.56835 q -2.03027,0.86133 -4.16309,1.3125 -2.13281,0.45118 -4.32714,0.45118 -5.4961,0 -8.71583,-3.19922 -3.19921,-3.19922 -3.19921,-8.6543 0,-5.63965 3.03515,-8.94141 3.05567,-3.32226 8.22364,-3.32226 4.63476,0 7.32128,2.99414 2.70704,2.97363 2.70704,8.10059 z m -3.77344,-1.10743 q -0.041,-3.09668 -1.74317,-4.94238 -1.68164,-1.8457 -4.4707,-1.8457 -3.1582,0 -5.06543,1.78418 -1.88672,1.78418 -2.17383,5.02441 z" />
    <path
       id="path165"
       style="fill:#ff0000"
       d="m 466.83105,115.03125 h 3.77344 V 138 h -3.77344 z m 0,-8.94141 h 3.77344 v 4.77832 h -3.77344 z" />
    <path
       id="path167"
       style="fill:#ff0000"
       d="m 495.00879,115.91309 v 3.52734 q -1.59961,-0.88184 -3.21973,-1.3125 -1.59961,-0.45117 -3.24023,-0.45117 -3.6709,0 -5.70117,2.33789 -2.03028,2.31738 -2.03028,6.52148 0,4.2041 2.03028,6.542 2.03027,2.31738 5.70117,2.31738 1.64062,0 3.24023,-0.43067 1.62012,-0.45117 3.21973,-1.333 v 3.48632 q -1.5791,0.73829 -3.28125,1.10743 -1.68164,0.36914 -3.58887,0.36914 -5.18847,0 -8.24414,-3.26075 -3.05566,-3.26074 -3.05566,-8.79785 0,-5.61914 3.07617,-8.83886 3.09668,-3.21973 8.46973,-3.21973 1.74316,0 3.40429,0.36914 1.66114,0.34863 3.21973,1.06641 z" />
    <path
       id="path169"
       style="fill:#ff0000"
       d="m 510.5127,117.67676 q -3.03516,0 -4.79883,2.3789 -1.76367,2.3584 -1.76367,6.48047 0,4.12207 1.74316,6.50098 1.76367,2.3584 4.81934,2.3584 3.01464,0 4.77832,-2.37891 1.76367,-2.3789 1.76367,-6.48047 0,-4.08105 -1.76367,-6.45996 -1.76368,-2.39941 -4.77832,-2.39941 z m 0,-3.19922 q 4.92187,0 7.73144,3.19922 2.80957,3.19922 2.80957,8.85937 0,5.63965 -2.80957,8.85938 -2.80957,3.19922 -7.73144,3.19922 -4.94239,0 -7.75196,-3.19922 -2.78906,-3.21973 -2.78906,-8.85938 0,-5.66015 2.78906,-8.85937 2.80957,-3.19922 7.75196,-3.19922 z" />
    <path
       id="path171"
       style="fill:#ff0000"
       d="M 546.38086,124.13672 V 138 h -3.77344 v -13.74023 q 0,-3.26075 -1.27148,-4.88086 -1.27149,-1.62012 -3.81446,-1.62012 -3.05566,0 -4.81933,1.94824 -1.76367,1.94824 -1.76367,5.31152 V 138 h -3.79395 v -22.96875 h 3.79395 v 3.56836 q 1.35351,-2.07129 3.17871,-3.09668 1.8457,-1.02539 4.24511,-1.02539 3.95801,0 5.98829,2.46094 2.03027,2.44043 2.03027,7.19824 z" />
    <path
       id="path173"
       style="fill:#ff0000"
       d="m 557.68066,108.50977 v 6.52148 h 7.77246 v 2.93262 h -7.77246 v 12.46875 q 0,2.80957 0.75879,3.60937 0.7793,0.79981 3.1377,0.79981 h 3.87597 V 138 h -3.87597 q -4.36817,0 -6.0293,-1.62012 -1.66113,-1.64062 -1.66113,-5.94726 v -12.46875 h -2.76856 v -2.93262 h 2.76856 v -6.52148 z" />
    <path
       id="path175"
       style="fill:#ff0000"
       d="m 590.08301,125.57227 v 1.8457 H 572.7334 q 0.24609,3.89648 2.33789,5.94726 2.1123,2.03028 5.86523,2.03028 2.17383,0 4.2041,-0.53321 2.05079,-0.5332 4.06055,-1.5996 v 3.56835 q -2.03027,0.86133 -4.16308,1.3125 -2.13282,0.45118 -4.32715,0.45118 -5.4961,0 -8.71582,-3.19922 -3.19922,-3.19922 -3.19922,-8.6543 0,-5.63965 3.03515,-8.94141 3.05567,-3.32226 8.22364,-3.32226 4.63476,0 7.32129,2.99414 2.70703,2.97363 2.70703,8.10059 z m -3.77344,-1.10743 q -0.041,-3.09668 -1.74316,-4.94238 -1.68164,-1.8457 -4.47071,-1.8457 -3.1582,0 -5.06543,1.78418 -1.88672,1.78418 -2.17382,5.02441 z" />
    <path
       id="path177"
       style="fill:#ff0000"
       d="M 614.63086,115.03125 606.3252,126.20801 615.06152,138 h -4.45019 L 603.92578,128.97656 597.24023,138 h -4.45019 l 8.9209,-12.01758 -8.16211,-10.95117 h 4.45019 l 6.09082,8.18262 6.09082,-8.18262 z" />
    <path
       id="path179"
       style="fill:#ff0000"
       d="m 624.12598,108.50977 v 6.52148 h 7.77246 v 2.93262 h -7.77246 v 12.46875 q 0,2.80957 0.75879,3.60937 0.77929,0.79981 3.13769,0.79981 h 3.87598 V 138 h -3.87598 q -4.36816,0 -6.0293,-1.62012 -1.66113,-1.64062 -1.66113,-5.94726 v -12.46875 h -2.76855 v -2.93262 h 2.76855 v -6.52148 z" />
    <path
       id="path181"
       style="fill:#ff0000"
       d="m 645.7002,106.08984 v 37.44727 h -8.69532 v -2.93262 h 4.90137 v -31.58203 h -4.90137 v -2.93262 z" />
  </g>
  <g
     id="text89"
     style="font-size:24px;font-family:sans-serif;text-anchor:middle;fill:#000000"
     aria-label="[MISSING: NeedyVentComponent/button_y]">
    <path
       id="path184"
       style="fill:#ff0000"
       d="m -120.04687,278.76563 h 4.96875 v 1.67578 h -2.8125 v 18.04687 h 2.8125 v 1.67578 h -4.96875 z" />
    <path
       id="path186"
       style="fill:#ff0000"
       d="m -110.37891,279.50391 h 3.52735 l 4.46484,11.90625 4.488282,-11.90625 h 3.527344 V 297 h -2.308594 v -15.36328 l -4.511722,12 h -2.3789 l -4.51172,-12 V 297 h -2.29688 z" />
    <path
       id="path188"
       style="fill:#ff0000"
       d="m -89.660156,279.50391 h 2.367187 V 297 h -2.367187 z" />
    <path
       id="path190"
       style="fill:#ff0000"
       d="m -72.09375,280.07813 v 2.30859 q -1.347656,-0.64453 -2.542969,-0.96094 -1.195312,-0.3164 -2.308594,-0.3164 -1.933593,0 -2.988281,0.75 -1.042969,0.75 -1.042969,2.13281 0,1.16015 0.691407,1.75781 0.703125,0.58594 2.648437,0.94922 l 1.429688,0.29297 q 2.648437,0.5039 3.902343,1.78125 1.265625,1.26562 1.265625,3.39844 0,2.54296 -1.710937,3.85546 -1.699219,1.3125 -4.992188,1.3125 -1.242187,0 -2.648437,-0.28125 -1.394531,-0.28125 -2.894531,-0.83203 v -2.4375 q 1.441406,0.8086 2.824218,1.21875 1.382813,0.41016 2.71875,0.41016 2.027344,0 3.128907,-0.79688 1.101562,-0.79687 1.101562,-2.27343 0,-1.28907 -0.796875,-2.01563 -0.785156,-0.72656 -2.589844,-1.08984 l -1.441406,-0.28125 q -2.648437,-0.52735 -3.832031,-1.65235 -1.183594,-1.125 -1.183594,-3.1289 0,-2.32031 1.628906,-3.65625 1.640625,-1.33594 4.511719,-1.33594 1.230469,0 2.507813,0.22266 1.277343,0.22265 2.613281,0.66797 z" />
    <path
       id="path192"
       style="fill:#ff0000"
       d="m -56.859375,280.07813 v 2.30859 q -1.347656,-0.64453 -2.542969,-0.96094 -1.195312,-0.3164 -2.308594,-0.3164 -1.933593,0 -2.988281,0.75 -1.042969,0.75 -1.042969,2.13281 0,1.16015 0.691407,1.75781 0.703125,0.58594 2.648437,0.94922 l 1.429688,0.29297 q 2.648437,0.5039 3.902343,1.78125 1.265625,1.26562 1.265625,3.39844 0,2.54296 -1.710937,3.85546 -1.699219,1.3125 -4.992188,1.3125 -1.242187,0 -2.648437,-0.28125 -1.394531,-0.28125 -2.894531,-0.83203 v -2.4375 q 1.441406,0.8086 2.824218,1.21875 1.382813,0.41016 2.71875,0.41016 2.027344,0 3.128907,-0.79688 1.101562,-0.79687 1.101562,-2.27343 0,-1.28907 -0.796875,-2.01563 -0.785156,-0.72656 -2.589844,-1.08984 l -1.441406,-0.28125 q -2.648437,-0.52735 -3.832031,-1.65235 -1.183594,-1.125 -1.183594,-3.1289 0,-2.32031 1.628906,-3.65625 1.640625,-1.33594 4.511719,-1.33594 1.230469,0 2.507813,0.22266 1.277343,0.22265 2.613281,0.66797 z" />
    <path
       id="path194"
       style="fill:#ff0000"
       d="m -52.113281,279.50391 h 2.367187 V 297 h -2.367187 z" />
    <path
       id="path196"
       style="fill:#ff0000"
       d="m -45.035156,279.50391 h 3.1875 l 7.757812,14.63672 v -14.63672 h 2.296875 V 297 h -3.1875 l -7.757812,-14.63672 V 297 h -2.296875 z" />
    <path
       id="path198"
       style="fill:#ff0000"
       d="m -15.152344,294.50391 v -4.69922 h -3.867187 v -1.94531 h 6.210937 v 7.51171 q -1.371093,0.97266 -3.023437,1.47657 -1.652344,0.49218 -3.527344,0.49218 -4.101563,0 -6.421875,-2.39062 -2.308594,-2.40234 -2.308594,-6.67969 0,-4.28906 2.308594,-6.67969 2.320312,-2.40234 6.421875,-2.40234 1.710937,0 3.246094,0.42188 1.546875,0.42187 2.847656,1.24218 v 2.51953 q -1.3125,-1.11328 -2.789063,-1.67578 -1.476562,-0.5625 -3.105468,-0.5625 -3.210938,0 -4.828125,1.79297 -1.605469,1.79297 -1.605469,5.34375 0,3.53906 1.605469,5.33203 1.617187,1.79297 4.828125,1.79297 1.253906,0 2.238281,-0.21094 0.984375,-0.22265 1.769531,-0.67968 z" />
    <path
       id="path200"
       style="fill:#ff0000"
       d="m -8.015625,294.02344 h 2.4726562 V 297 H -8.015625 Z m 0,-9.4336 h 2.4726562 v 2.97657 H -8.015625 Z" />
    <path
       id="path202"
       style="fill:#ff0000"
       d="m 7.2773438,279.50391 h 3.1875002 l 7.757812,14.63672 v -14.63672 h 2.296875 V 297 h -3.1875 L 9.5742187,282.36328 V 297 H 7.2773438 Z" />
    <path
       id="path204"
       style="fill:#ff0000"
       d="m 36.363281,289.89844 v 1.05469 h -9.914062 q 0.140625,2.22656 1.335937,3.39843 1.207032,1.16016 3.351563,1.16016 1.242187,0 2.402344,-0.30469 1.171875,-0.30469 2.320312,-0.91406 v 2.03906 q -1.160156,0.49219 -2.378906,0.75 -1.21875,0.25781 -2.472656,0.25781 -3.140625,0 -4.980469,-1.82812 -1.828125,-1.82813 -1.828125,-4.94531 0,-3.22266 1.734375,-5.10938 1.746094,-1.89844 4.699219,-1.89844 2.648437,0 4.183593,1.71094 1.546875,1.69922 1.546875,4.62891 z m -2.15625,-0.63281 q -0.02344,-1.76954 -0.996093,-2.82422 -0.960938,-1.05469 -2.554688,-1.05469 -1.804687,0 -2.894531,1.01953 -1.078125,1.01953 -1.242188,2.87109 z" />
    <path
       id="path206"
       style="fill:#ff0000"
       d="m 51.128906,289.89844 v 1.05469 h -9.914062 q 0.140625,2.22656 1.335937,3.39843 1.207032,1.16016 3.351563,1.16016 1.242187,0 2.402344,-0.30469 1.171875,-0.30469 2.320312,-0.91406 v 2.03906 q -1.160156,0.49219 -2.378906,0.75 -1.21875,0.25781 -2.472656,0.25781 -3.140625,0 -4.980469,-1.82812 -1.828125,-1.82813 -1.828125,-4.94531 0,-3.22266 1.734375,-5.10938 1.746094,-1.89844 4.699219,-1.89844 2.648437,0 4.183593,1.71094 1.546875,1.69922 1.546875,4.62891 z m -2.15625,-0.63281 q -0.02344,-1.76954 -0.996093,-2.82422 -0.960938,-1.05469 -2.554688,-1.05469 -1.804687,0 -2.894531,1.01953 -1.078125,1.01953 -1.242188,2.87109 z" />
    <path
       id="path208"
       style="fill:#ff0000"
       d="m 63.304688,285.86719 v -7.10156 h 2.15625 V 297 h -2.15625 v -1.96875 q -0.679688,1.17188 -1.722657,1.74609 -1.03125,0.5625 -2.484375,0.5625 -2.378906,0 -3.878906,-1.89843 -1.488281,-1.89844 -1.488281,-4.99219 0,-3.09375 1.488281,-4.99219 1.5,-1.89844 3.878906,-1.89844 1.453125,0 2.484375,0.57422 1.042969,0.5625 1.722657,1.73438 z m -7.347657,4.58203 q 0,2.37891 0.972657,3.73828 0.984375,1.34766 2.695312,1.34766 1.710938,0 2.695313,-1.34766 0.984375,-1.35937 0.984375,-3.73828 0,-2.37891 -0.984375,-3.72656 -0.984375,-1.35938 -2.695313,-1.35938 -1.710937,0 -2.695312,1.35938 -0.972657,1.34765 -0.972657,3.72656 z" />
    <path
       id="path210"
       style="fill:#ff0000"
       d="m 75.363281,298.21875 q -0.914062,2.34375 -1.78125,3.05859 -0.867187,0.71485 -2.320312,0.71485 h -1.722656 v -1.80469 h 1.265625 q 0.890625,0 1.382812,-0.42187 0.492188,-0.42188 1.089844,-1.99219 l 0.386719,-0.98438 -5.308594,-12.91406 h 2.285156 l 4.101563,10.26563 4.101562,-10.26563 h 2.285156 z" />
    <path
       id="path212"
       style="fill:#ff0000"
       d="M 88.710938,297 82.03125,279.50391 h 2.472656 l 5.542969,14.73047 5.554688,-14.73047 H 98.0625 L 91.394531,297 Z" />
    <path
       id="path214"
       style="fill:#ff0000"
       d="m 109.86328,289.89844 v 1.05469 h -9.914061 q 0.140621,2.22656 1.335941,3.39843 1.20703,1.16016 3.35156,1.16016 1.24219,0 2.40234,-0.30469 1.17188,-0.30469 2.32031,-0.91406 v 2.03906 q -1.16015,0.49219 -2.3789,0.75 -1.21875,0.25781 -2.47266,0.25781 -3.14062,0 -4.980466,-1.82812 -1.828125,-1.82813 -1.828125,-4.94531 0,-3.22266 1.734375,-5.10938 1.746096,-1.89844 4.699216,-1.89844 2.64844,0 4.1836,1.71094 1.54687,1.69922 1.54687,4.62891 z m -2.15625,-0.63281 q -0.0234,-1.76954 -0.99609,-2.82422 -0.96094,-1.05469 -2.55469,-1.05469 -1.80469,0 -2.89453,1.01953 -1.07813,1.01953 -1.24219,2.87109 z" />
    <path
       id="path216"
       style="fill:#ff0000"
       d="M 124.3125,289.07813 V 297 h -2.15625 v -7.85156 q 0,-1.86328 -0.72656,-2.78906 -0.72657,-0.92579 -2.17969,-0.92579 -1.74609,0 -2.75391,1.11329 -1.00781,1.11328 -1.00781,3.03515 V 297 h -2.16797 v -13.125 h 2.16797 v 2.03906 q 0.77344,-1.18359 1.81641,-1.76953 1.05468,-0.58594 2.42578,-0.58594 2.26172,0 3.42187,1.40625 1.16016,1.39454 1.16016,4.11329 z" />
    <path
       id="path218"
       style="fill:#ff0000"
       d="m 130.76953,280.14844 v 3.72656 h 4.44141 v 1.67578 h -4.44141 v 7.125 q 0,1.60547 0.4336,2.0625 0.44531,0.45703 1.79296,0.45703 h 2.21485 V 297 h -2.21485 q -2.49609,0 -3.44531,-0.92578 -0.94922,-0.9375 -0.94922,-3.39844 v -7.125 h -1.58203 V 283.875 h 1.58203 v -3.72656 z" />
    <path
       id="path220"
       style="fill:#ff0000"
       d="m 151.25391,280.85156 v 2.4961 q -1.19532,-1.11328 -2.55469,-1.66407 -1.34766,-0.55078 -2.87109,-0.55078 -3,0 -4.59375,1.83985 -1.59375,1.82812 -1.59375,5.29687 0,3.45703 1.59375,5.29688 1.59375,1.82812 4.59375,1.82812 1.52343,0 2.87109,-0.55078 1.35937,-0.55078 2.55469,-1.66406 v 2.47265 q -1.24219,0.84375 -2.63672,1.26563 -1.38281,0.42187 -2.92969,0.42187 -3.97266,0 -6.25781,-2.42578 -2.28516,-2.4375 -2.28516,-6.64453 0,-4.21875 2.28516,-6.64453 2.28515,-2.4375 6.25781,-2.4375 1.57031,0 2.95313,0.42188 1.39453,0.41015 2.61328,1.24218 z" />
    <path
       id="path222"
       style="fill:#ff0000"
       d="m 159.92578,285.38672 q -1.73437,0 -2.74219,1.35937 -1.00781,1.34766 -1.00781,3.70313 0,2.35547 0.9961,3.71484 1.00781,1.34766 2.7539,1.34766 1.72266,0 2.73047,-1.35938 1.00781,-1.35937 1.00781,-3.70312 0,-2.33203 -1.00781,-3.69141 -1.00781,-1.37109 -2.73047,-1.37109 z m 0,-1.82813 q 2.8125,0 4.41797,1.82813 1.60547,1.82812 1.60547,5.0625 0,3.22266 -1.60547,5.0625 -1.60547,1.82812 -4.41797,1.82812 -2.82422,0 -4.42969,-1.82812 -1.59375,-1.83984 -1.59375,-5.0625 0,-3.23438 1.59375,-5.0625 1.60547,-1.82813 4.42969,-1.82813 z" />
    <path
       id="path224"
       style="fill:#ff0000"
       d="m 179.73047,286.39453 q 0.80859,-1.45312 1.93359,-2.14453 1.125,-0.69141 2.64844,-0.69141 2.05078,0 3.16406,1.44141 1.11328,1.42969 1.11328,4.07813 V 297 h -2.16796 v -7.85156 q 0,-1.88672 -0.66797,-2.80078 -0.66797,-0.91407 -2.03907,-0.91407 -1.67578,0 -2.64843,1.11329 -0.97266,1.11328 -0.97266,3.03515 V 297 h -2.16797 v -7.85156 q 0,-1.89844 -0.66797,-2.80078 -0.66797,-0.91407 -2.0625,-0.91407 -1.65234,0 -2.625,1.125 -0.97265,1.11329 -0.97265,3.02344 V 297 h -2.16797 v -13.125 h 2.16797 v 2.03906 q 0.73828,-1.20703 1.76953,-1.78125 1.03125,-0.57422 2.44922,-0.57422 1.42968,0 2.42578,0.72657 1.00781,0.72656 1.48828,2.10937 z" />
    <path
       id="path226"
       style="fill:#ff0000"
       d="m 194.98828,295.03125 v 6.96094 h -2.16797 V 283.875 h 2.16797 v 1.99219 q 0.67969,-1.17188 1.71094,-1.73438 1.04297,-0.57422 2.48437,-0.57422 2.39063,0 3.87891,1.89844 1.5,1.89844 1.5,4.99219 0,3.09375 -1.5,4.99219 -1.48828,1.89843 -3.87891,1.89843 -1.4414,0 -2.48437,-0.5625 -1.03125,-0.57421 -1.71094,-1.74609 z m 7.33594,-4.58203 q 0,-2.37891 -0.98438,-3.72656 -0.97265,-1.35938 -2.68359,-1.35938 -1.71094,0 -2.69531,1.35938 -0.97266,1.34765 -0.97266,3.72656 0,2.37891 0.97266,3.73828 0.98437,1.34766 2.69531,1.34766 1.71094,0 2.68359,-1.34766 0.98438,-1.35937 0.98438,-3.73828 z" />
    <path
       id="path228"
       style="fill:#ff0000"
       d="m 213.22266,285.38672 q -1.73438,0 -2.74219,1.35937 -1.00781,1.34766 -1.00781,3.70313 0,2.35547 0.99609,3.71484 1.00781,1.34766 2.75391,1.34766 1.72265,0 2.73047,-1.35938 1.00781,-1.35937 1.00781,-3.70312 0,-2.33203 -1.00781,-3.69141 -1.00782,-1.37109 -2.73047,-1.37109 z m 0,-1.82813 q 2.8125,0 4.41797,1.82813 1.60546,1.82812 1.60546,5.0625 0,3.22266 -1.60546,5.0625 -1.60547,1.82812 -4.41797,1.82812 -2.82422,0 -4.42969,-1.82812 -1.59375,-1.83984 -1.59375,-5.0625 0,-3.23438 1.59375,-5.0625 1.60547,-1.82813 4.42969,-1.82813 z" />
    <path
       id="path230"
       style="fill:#ff0000"
       d="M 233.71875,289.07813 V 297 h -2.15625 v -7.85156 q 0,-1.86328 -0.72656,-2.78906 -0.72656,-0.92579 -2.17969,-0.92579 -1.74609,0 -2.75391,1.11329 -1.00781,1.11328 -1.00781,3.03515 V 297 h -2.16797 v -13.125 h 2.16797 v 2.03906 q 0.77344,-1.18359 1.81641,-1.76953 1.05469,-0.58594 2.42578,-0.58594 2.26172,0 3.42187,1.40625 1.16016,1.39454 1.16016,4.11329 z" />
    <path
       id="path232"
       style="fill:#ff0000"
       d="m 249.26953,289.89844 v 1.05469 h -9.91406 q 0.14062,2.22656 1.33594,3.39843 1.20703,1.16016 3.35156,1.16016 1.24219,0 2.40234,-0.30469 1.17188,-0.30469 2.32032,-0.91406 v 2.03906 q -1.16016,0.49219 -2.37891,0.75 -1.21875,0.25781 -2.47266,0.25781 -3.14062,0 -4.98047,-1.82812 -1.82812,-1.82813 -1.82812,-4.94531 0,-3.22266 1.73437,-5.10938 1.7461,-1.89844 4.69922,-1.89844 2.64844,0 4.1836,1.71094 1.54687,1.69922 1.54687,4.62891 z m -2.15625,-0.63281 q -0.0234,-1.76954 -0.99609,-2.82422 -0.96094,-1.05469 -2.55469,-1.05469 -1.80469,0 -2.89453,1.01953 -1.07813,1.01953 -1.24219,2.87109 z" />
    <path
       id="path234"
       style="fill:#ff0000"
       d="M 263.71875,289.07813 V 297 h -2.15625 v -7.85156 q 0,-1.86328 -0.72656,-2.78906 -0.72656,-0.92579 -2.17969,-0.92579 -1.74609,0 -2.75391,1.11329 -1.00781,1.11328 -1.00781,3.03515 V 297 h -2.16797 v -13.125 h 2.16797 v 2.03906 q 0.77344,-1.18359 1.81641,-1.76953 1.05469,-0.58594 2.42578,-0.58594 2.26172,0 3.42187,1.40625 1.16016,1.39454 1.16016,4.11329 z" />
    <path
       id="path236"
       style="fill:#ff0000"
       d="m 270.17578,280.14844 v 3.72656 h 4.44141 v 1.67578 h -4.44141 v 7.125 q 0,1.60547 0.4336,2.0625 0.44531,0.45703 1.79296,0.45703 h 2.21485 V 297 h -2.21485 q -2.49609,0 -3.44531,-0.92578 -0.94922,-0.9375 -0.94922,-3.39844 v -7.125 h -1.58203 V 283.875 h 1.58203 v -3.72656 z" />
    <path
       id="path238"
       style="fill:#ff0000"
       d="m 281.29688,279.50391 h 1.99218 l -6.09375,19.72265 h -1.99218 z" />
    <path
       id="path240"
       style="fill:#ff0000"
       d="m 294.99609,290.44922 q 0,-2.37891 -0.98437,-3.72656 -0.97266,-1.35938 -2.68359,-1.35938 -1.71094,0 -2.69532,1.35938 -0.97265,1.34765 -0.97265,3.72656 0,2.37891 0.97265,3.73828 0.98438,1.34766 2.69532,1.34766 1.71093,0 2.68359,-1.34766 0.98437,-1.35937 0.98437,-3.73828 z m -7.33593,-4.58203 q 0.67968,-1.17188 1.71093,-1.73438 1.04297,-0.57422 2.48438,-0.57422 2.39062,0 3.87891,1.89844 1.5,1.89844 1.5,4.99219 0,3.09375 -1.5,4.99219 -1.48829,1.89843 -3.87891,1.89843 -1.44141,0 -2.48438,-0.5625 -1.03125,-0.57421 -1.71093,-1.74609 V 297 h -2.16797 v -18.23437 h 2.16797 z" />
    <path
       id="path242"
       style="fill:#ff0000"
       d="M 300.58594,291.82031 V 283.875 h 2.15625 v 7.86328 q 0,1.86328 0.72656,2.80078 0.72656,0.92578 2.17969,0.92578 1.74609,0 2.7539,-1.11328 1.01954,-1.11328 1.01954,-3.03515 V 283.875 h 2.15625 V 297 h -2.15625 v -2.01562 q -0.78516,1.19531 -1.82813,1.78125 -1.03125,0.57421 -2.40234,0.57421 -2.26172,0 -3.4336,-1.40625 -1.17187,-1.40625 -1.17187,-4.11328 z m 5.42578,-8.26172 z" />
    <path
       id="path244"
       style="fill:#ff0000"
       d="m 318.17578,280.14844 v 3.72656 h 4.44141 v 1.67578 h -4.44141 v 7.125 q 0,1.60547 0.4336,2.0625 0.44531,0.45703 1.79296,0.45703 h 2.21485 V 297 h -2.21485 q -2.49609,0 -3.44531,-0.92578 -0.94922,-0.9375 -0.94922,-3.39844 v -7.125 h -1.58203 V 283.875 h 1.58203 v -3.72656 z" />
    <path
       id="path246"
       style="fill:#ff0000"
       d="m 327.59766,280.14844 v 3.72656 h 4.4414 v 1.67578 h -4.4414 v 7.125 q 0,1.60547 0.43359,2.0625 0.44531,0.45703 1.79297,0.45703 h 2.21484 V 297 h -2.21484 q -2.49609,0 -3.44531,-0.92578 -0.94922,-0.9375 -0.94922,-3.39844 v -7.125 h -1.58203 V 283.875 h 1.58203 v -3.72656 z" />
    <path
       id="path248"
       style="fill:#ff0000"
       d="m 339.97266,285.38672 q -1.73438,0 -2.74219,1.35937 -1.00781,1.34766 -1.00781,3.70313 0,2.35547 0.99609,3.71484 1.00781,1.34766 2.75391,1.34766 1.72265,0 2.73047,-1.35938 1.00781,-1.35937 1.00781,-3.70312 0,-2.33203 -1.00781,-3.69141 -1.00782,-1.37109 -2.73047,-1.37109 z m 0,-1.82813 q 2.8125,0 4.41797,1.82813 1.60546,1.82812 1.60546,5.0625 0,3.22266 -1.60546,5.0625 -1.60547,1.82812 -4.41797,1.82812 -2.82422,0 -4.42969,-1.82812 -1.59375,-1.83984 -1.59375,-5.0625 0,-3.23438 1.59375,-5.0625 1.60547,-1.82813 4.42969,-1.82813 z" />
    <path
       id="path250"
       style="fill:#ff0000"
       d="M 360.46875,289.07813 V 297 h -2.15625 v -7.85156 q 0,-1.86328 -0.72656,-2.78906 -0.72656,-0.92579 -2.17969,-0.92579 -1.74609,0 -2.75391,1.11329 -1.00781,1.11328 -1.00781,3.03515 V 297 h -2.16797 v -13.125 h 2.16797 v 2.03906 q 0.77344,-1.18359 1.81641,-1.76953 1.05469,-0.58594 2.42578,-0.58594 2.26172,0 3.42187,1.40625 1.16016,1.39454 1.16016,4.11329 z" />
    <path
       id="path252"
       style="fill:#ff0000"
       d="m 374.76563,300.98438 v 1.67578 h -12.46875 v -1.67578 z" />
    <path
       id="path254"
       style="fill:#ff0000"
       d="m 382.25391,298.21875 q -0.91407,2.34375 -1.78125,3.05859 -0.86719,0.71485 -2.32032,0.71485 h -1.72265 v -1.80469 h 1.26562 q 0.89063,0 1.38282,-0.42187 0.49218,-0.42188 1.08984,-1.99219 l 0.38672,-0.98438 -5.3086,-12.91406 h 2.28516 l 4.10156,10.26563 4.10157,-10.26563 h 2.28515 z" />
    <path
       id="path256"
       style="fill:#ff0000"
       d="m 396.03516,278.76563 v 21.39843 h -4.96875 v -1.67578 h 2.80078 v -18.04687 h -2.80078 v -1.67578 z" />
  </g>
  <g
     id="text93"
     style="font-size:24px;font-family:sans-serif;text-anchor:middle;fill:#000000"
     aria-label="[MISSING: NeedyVentComponent/button_n]">
    <path
       id="path259"
       style="fill:#ff0000"
       d="m -50.5625,278.76563 h 4.96875 v 1.67578 h -2.8125 v 18.04687 h 2.8125 v 1.67578 h -4.96875 z" />
    <path
       id="path261"
       style="fill:#ff0000"
       d="m -40.894531,279.50391 h 3.527343 l 4.464844,11.90625 4.488281,-11.90625 h 3.527344 V 297 h -2.308594 v -15.36328 l -4.511718,12 h -2.378907 l -4.511718,-12 V 297 h -2.296875 z" />
    <path
       id="path263"
       style="fill:#ff0000"
       d="m -20.175781,279.50391 h 2.367187 V 297 h -2.367187 z" />
    <path
       id="path265"
       style="fill:#ff0000"
       d="m -2.609375,280.07813 v 2.30859 q -1.3476562,-0.64453 -2.5429688,-0.96094 -1.1953125,-0.3164 -2.3085937,-0.3164 -1.9335937,0 -2.9882815,0.75 -1.042968,0.75 -1.042968,2.13281 0,1.16015 0.691406,1.75781 0.703125,0.58594 2.6484373,0.94922 l 1.4296874,0.29297 q 2.6484375,0.5039 3.9023438,1.78125 1.265625,1.26562 1.265625,3.39844 0,2.54296 -1.7109375,3.85546 -1.6992188,1.3125 -4.9921875,1.3125 -1.2421875,0 -2.6484375,-0.28125 -1.394531,-0.28125 -2.894531,-0.83203 v -2.4375 q 1.441406,0.8086 2.824219,1.21875 1.382812,0.41016 2.7187495,0.41016 2.0273437,0 3.1289062,-0.79688 1.1015625,-0.79687 1.1015625,-2.27343 0,-1.28907 -0.796875,-2.01563 -0.7851562,-0.72656 -2.5898437,-1.08984 l -1.4414062,-0.28125 q -2.6484373,-0.52735 -3.8320313,-1.65235 -1.183594,-1.125 -1.183594,-3.1289 0,-2.32031 1.628907,-3.65625 1.640625,-1.33594 4.5117182,-1.33594 1.2304688,0 2.5078125,0.22266 1.2773438,0.22265 2.6132813,0.66797 z" />
    <path
       id="path267"
       style="fill:#ff0000"
       d="m 12.625,280.07813 v 2.30859 q -1.347656,-0.64453 -2.542969,-0.96094 -1.1953123,-0.3164 -2.3085935,-0.3164 -1.9335937,0 -2.9882812,0.75 -1.0429688,0.75 -1.0429688,2.13281 0,1.16015 0.6914063,1.75781 0.703125,0.58594 2.6484375,0.94922 l 1.4296874,0.29297 q 2.6484373,0.5039 3.9023433,1.78125 1.265625,1.26562 1.265625,3.39844 0,2.54296 -1.710937,3.85546 -1.699219,1.3125 -4.9921875,1.3125 -1.2421875,0 -2.6484375,-0.28125 -1.3945313,-0.28125 -2.8945312,-0.83203 v -2.4375 q 1.4414062,0.8086 2.8242187,1.21875 1.3828125,0.41016 2.71875,0.41016 2.0273437,0 3.1289065,-0.79688 1.101562,-0.79687 1.101562,-2.27343 0,-1.28907 -0.796875,-2.01563 Q 9.625,289.60547 7.8203125,289.24219 l -1.4414062,-0.28125 q -2.6484376,-0.52735 -3.8320313,-1.65235 -1.1835937,-1.125 -1.1835937,-3.1289 0,-2.32031 1.6289062,-3.65625 1.640625,-1.33594 4.5117188,-1.33594 1.2304687,0 2.5078127,0.22266 1.277343,0.22265 2.613281,0.66797 z" />
    <path
       id="path269"
       style="fill:#ff0000"
       d="m 17.371094,279.50391 h 2.367187 V 297 h -2.367187 z" />
    <path
       id="path271"
       style="fill:#ff0000"
       d="m 24.449219,279.50391 h 3.1875 l 7.757812,14.63672 v -14.63672 h 2.296875 V 297 h -3.1875 L 26.746094,282.36328 V 297 h -2.296875 z" />
    <path
       id="path273"
       style="fill:#ff0000"
       d="m 54.332031,294.50391 v -4.69922 h -3.867187 v -1.94531 h 6.210937 v 7.51171 q -1.371093,0.97266 -3.023437,1.47657 Q 52,297.33984 50.125,297.33984 q -4.101562,0 -6.421875,-2.39062 -2.308594,-2.40234 -2.308594,-6.67969 0,-4.28906 2.308594,-6.67969 2.320313,-2.40234 6.421875,-2.40234 1.710938,0 3.246094,0.42188 1.546875,0.42187 2.847656,1.24218 v 2.51953 q -1.3125,-1.11328 -2.789062,-1.67578 -1.476563,-0.5625 -3.105469,-0.5625 -3.210938,0 -4.828125,1.79297 -1.605469,1.79297 -1.605469,5.34375 0,3.53906 1.605469,5.33203 1.617187,1.79297 4.828125,1.79297 1.253906,0 2.238281,-0.21094 0.984375,-0.22265 1.769531,-0.67968 z" />
    <path
       id="path275"
       style="fill:#ff0000"
       d="m 61.46875,294.02344 h 2.472656 V 297 H 61.46875 Z m 0,-9.4336 h 2.472656 v 2.97657 H 61.46875 Z" />
    <path
       id="path277"
       style="fill:#ff0000"
       d="m 76.761719,279.50391 h 3.1875 l 7.757812,14.63672 v -14.63672 h 2.296875 V 297 h -3.1875 L 79.058594,282.36328 V 297 h -2.296875 z" />
    <path
       id="path279"
       style="fill:#ff0000"
       d="m 105.84766,289.89844 v 1.05469 h -9.914066 q 0.140625,2.22656 1.335937,3.39843 1.207032,1.16016 3.351559,1.16016 1.24219,0 2.40235,-0.30469 1.17187,-0.30469 2.32031,-0.91406 v 2.03906 q -1.16016,0.49219 -2.37891,0.75 -1.21875,0.25781 -2.47265,0.25781 -3.140627,0 -4.980471,-1.82812 -1.828125,-1.82813 -1.828125,-4.94531 0,-3.22266 1.734375,-5.10938 1.746094,-1.89844 4.699221,-1.89844 2.64843,0 4.18359,1.71094 1.54688,1.69922 1.54688,4.62891 z m -2.15625,-0.63281 q -0.0234,-1.76954 -0.9961,-2.82422 -0.96094,-1.05469 -2.55469,-1.05469 -1.804682,0 -2.894526,1.01953 -1.078125,1.01953 -1.242188,2.87109 z" />
    <path
       id="path281"
       style="fill:#ff0000"
       d="m 120.61328,289.89844 v 1.05469 h -9.91406 q 0.14062,2.22656 1.33594,3.39843 1.20703,1.16016 3.35156,1.16016 1.24219,0 2.40234,-0.30469 1.17188,-0.30469 2.32031,-0.91406 v 2.03906 q -1.16015,0.49219 -2.3789,0.75 -1.21875,0.25781 -2.47266,0.25781 -3.14062,0 -4.98047,-1.82812 -1.82812,-1.82813 -1.82812,-4.94531 0,-3.22266 1.73437,-5.10938 1.7461,-1.89844 4.69922,-1.89844 2.64844,0 4.1836,1.71094 1.54687,1.69922 1.54687,4.62891 z m -2.15625,-0.63281 q -0.0234,-1.76954 -0.99609,-2.82422 -0.96094,-1.05469 -2.55469,-1.05469 -1.80469,0 -2.89453,1.01953 -1.07813,1.01953 -1.24219,2.87109 z" />
    <path
       id="path283"
       style="fill:#ff0000"
       d="m 132.78906,285.86719 v -7.10156 h 2.15625 V 297 h -2.15625 v -1.96875 q -0.67968,1.17188 -1.72265,1.74609 -1.03125,0.5625 -2.48438,0.5625 -2.37891,0 -3.87891,-1.89843 -1.48828,-1.89844 -1.48828,-4.99219 0,-3.09375 1.48828,-4.99219 1.5,-1.89844 3.87891,-1.89844 1.45313,0 2.48438,0.57422 1.04297,0.5625 1.72265,1.73438 z m -7.34765,4.58203 q 0,2.37891 0.97265,3.73828 0.98438,1.34766 2.69532,1.34766 1.71093,0 2.69531,-1.34766 0.98437,-1.35937 0.98437,-3.73828 0,-2.37891 -0.98437,-3.72656 -0.98438,-1.35938 -2.69531,-1.35938 -1.71094,0 -2.69532,1.35938 -0.97265,1.34765 -0.97265,3.72656 z" />
    <path
       id="path285"
       style="fill:#ff0000"
       d="m 144.84766,298.21875 q -0.91407,2.34375 -1.78125,3.05859 -0.86719,0.71485 -2.32032,0.71485 h -1.72265 v -1.80469 h 1.26562 q 0.89063,0 1.38282,-0.42187 0.49218,-0.42188 1.08984,-1.99219 l 0.38672,-0.98438 -5.3086,-12.91406 h 2.28516 l 4.10156,10.26563 4.10157,-10.26563 h 2.28515 z" />
    <path
       id="path287"
       style="fill:#ff0000"
       d="m 158.19531,297 -6.67968,-17.49609 h 2.47265 l 5.54297,14.73047 5.55469,-14.73047 h 2.46094 L 160.87891,297 Z" />
    <path
       id="path289"
       style="fill:#ff0000"
       d="m 179.34766,289.89844 v 1.05469 h -9.91407 q 0.14063,2.22656 1.33594,3.39843 1.20703,1.16016 3.35156,1.16016 1.24219,0 2.40235,-0.30469 1.17187,-0.30469 2.32031,-0.91406 v 2.03906 q -1.16016,0.49219 -2.37891,0.75 -1.21875,0.25781 -2.47265,0.25781 -3.14063,0 -4.98047,-1.82812 -1.82813,-1.82813 -1.82813,-4.94531 0,-3.22266 1.73438,-5.10938 1.74609,-1.89844 4.69922,-1.89844 2.64844,0 4.18359,1.71094 1.54688,1.69922 1.54688,4.62891 z m -2.15625,-0.63281 q -0.0234,-1.76954 -0.9961,-2.82422 -0.96093,-1.05469 -2.55468,-1.05469 -1.80469,0 -2.89454,1.01953 -1.07812,1.01953 -1.24218,2.87109 z" />
    <path
       id="path291"
       style="fill:#ff0000"
       d="M 193.79688,289.07813 V 297 h -2.15625 v -7.85156 q 0,-1.86328 -0.72657,-2.78906 -0.72656,-0.92579 -2.17968,-0.92579 -1.7461,0 -2.75391,1.11329 -1.00781,1.11328 -1.00781,3.03515 V 297 h -2.16797 v -13.125 h 2.16797 v 2.03906 q 0.77343,-1.18359 1.8164,-1.76953 1.05469,-0.58594 2.42578,-0.58594 2.26172,0 3.42188,1.40625 1.16016,1.39454 1.16016,4.11329 z" />
    <path
       id="path293"
       style="fill:#ff0000"
       d="m 200.25391,280.14844 v 3.72656 h 4.4414 v 1.67578 h -4.4414 v 7.125 q 0,1.60547 0.43359,2.0625 0.44531,0.45703 1.79297,0.45703 h 2.21484 V 297 h -2.21484 q -2.49609,0 -3.44531,-0.92578 -0.94922,-0.9375 -0.94922,-3.39844 v -7.125 h -1.58203 V 283.875 h 1.58203 v -3.72656 z" />
    <path
       id="path295"
       style="fill:#ff0000"
       d="m 220.73828,280.85156 v 2.4961 q -1.19531,-1.11328 -2.55469,-1.66407 -1.34765,-0.55078 -2.87109,-0.55078 -3,0 -4.59375,1.83985 -1.59375,1.82812 -1.59375,5.29687 0,3.45703 1.59375,5.29688 1.59375,1.82812 4.59375,1.82812 1.52344,0 2.87109,-0.55078 1.35938,-0.55078 2.55469,-1.66406 v 2.47265 q -1.24219,0.84375 -2.63672,1.26563 -1.38281,0.42187 -2.92968,0.42187 -3.97266,0 -6.25782,-2.42578 -2.28515,-2.4375 -2.28515,-6.64453 0,-4.21875 2.28515,-6.64453 2.28516,-2.4375 6.25782,-2.4375 1.57031,0 2.95312,0.42188 1.39453,0.41015 2.61328,1.24218 z" />
    <path
       id="path297"
       style="fill:#ff0000"
       d="m 229.41016,285.38672 q -1.73438,0 -2.74219,1.35937 -1.00781,1.34766 -1.00781,3.70313 0,2.35547 0.99609,3.71484 1.00781,1.34766 2.75391,1.34766 1.72265,0 2.73047,-1.35938 1.00781,-1.35937 1.00781,-3.70312 0,-2.33203 -1.00781,-3.69141 -1.00782,-1.37109 -2.73047,-1.37109 z m 0,-1.82813 q 2.8125,0 4.41797,1.82813 1.60546,1.82812 1.60546,5.0625 0,3.22266 -1.60546,5.0625 -1.60547,1.82812 -4.41797,1.82812 -2.82422,0 -4.42969,-1.82812 -1.59375,-1.83984 -1.59375,-5.0625 0,-3.23438 1.59375,-5.0625 1.60547,-1.82813 4.42969,-1.82813 z" />
    <path
       id="path299"
       style="fill:#ff0000"
       d="m 249.21484,286.39453 q 0.8086,-1.45312 1.9336,-2.14453 1.125,-0.69141 2.64844,-0.69141 2.05078,0 3.16406,1.44141 1.11328,1.42969 1.11328,4.07813 V 297 h -2.16797 v -7.85156 q 0,-1.88672 -0.66797,-2.80078 -0.66797,-0.91407 -2.03906,-0.91407 -1.67578,0 -2.64844,1.11329 -0.97265,1.11328 -0.97265,3.03515 V 297 h -2.16797 v -7.85156 q 0,-1.89844 -0.66797,-2.80078 -0.66797,-0.91407 -2.0625,-0.91407 -1.65235,0 -2.625,1.125 -0.97266,1.11329 -0.97266,3.02344 V 297 h -2.16797 v -13.125 h 2.16797 v 2.03906 q 0.73828,-1.20703 1.76953,-1.78125 1.03125,-0.57422 2.44922,-0.57422 1.42969,0 2.42578,0.72657 1.00782,0.72656 1.48828,2.10937 z" />
    <path
       id="path301"
       style="fill:#ff0000"
       d="m 264.47266,295.03125 v 6.96094 h -2.16797 V 283.875 h 2.16797 v 1.99219 q 0.67968,-1.17188 1.71093,-1.73438 1.04297,-0.57422 2.48438,-0.57422 2.39062,0 3.87891,1.89844 1.5,1.89844 1.5,4.99219 0,3.09375 -1.5,4.99219 -1.48829,1.89843 -3.87891,1.89843 -1.44141,0 -2.48438,-0.5625 -1.03125,-0.57421 -1.71093,-1.74609 z m 7.33593,-4.58203 q 0,-2.37891 -0.98437,-3.72656 -0.97266,-1.35938 -2.68359,-1.35938 -1.71094,0 -2.69532,1.35938 -0.97265,1.34765 -0.97265,3.72656 0,2.37891 0.97265,3.73828 0.98438,1.34766 2.69532,1.34766 1.71093,0 2.68359,-1.34766 0.98437,-1.35937 0.98437,-3.73828 z" />
    <path
       id="path303"
       style="fill:#ff0000"
       d="m 282.70703,285.38672 q -1.73437,0 -2.74219,1.35937 -1.00781,1.34766 -1.00781,3.70313 0,2.35547 0.9961,3.71484 1.00781,1.34766 2.7539,1.34766 1.72266,0 2.73047,-1.35938 1.00781,-1.35937 1.00781,-3.70312 0,-2.33203 -1.00781,-3.69141 -1.00781,-1.37109 -2.73047,-1.37109 z m 0,-1.82813 q 2.8125,0 4.41797,1.82813 1.60547,1.82812 1.60547,5.0625 0,3.22266 -1.60547,5.0625 -1.60547,1.82812 -4.41797,1.82812 -2.82422,0 -4.42969,-1.82812 -1.59375,-1.83984 -1.59375,-5.0625 0,-3.23438 1.59375,-5.0625 1.60547,-1.82813 4.42969,-1.82813 z" />
    <path
       id="path305"
       style="fill:#ff0000"
       d="M 303.20313,289.07813 V 297 h -2.15625 v -7.85156 q 0,-1.86328 -0.72657,-2.78906 -0.72656,-0.92579 -2.17968,-0.92579 -1.7461,0 -2.75391,1.11329 -1.00781,1.11328 -1.00781,3.03515 V 297 h -2.16797 v -13.125 h 2.16797 v 2.03906 q 0.77343,-1.18359 1.8164,-1.76953 1.05469,-0.58594 2.42578,-0.58594 2.26172,0 3.42188,1.40625 1.16016,1.39454 1.16016,4.11329 z" />
    <path
       id="path307"
       style="fill:#ff0000"
       d="m 318.75391,289.89844 v 1.05469 h -9.91407 q 0.14063,2.22656 1.33594,3.39843 1.20703,1.16016 3.35156,1.16016 1.24219,0 2.40235,-0.30469 1.17187,-0.30469 2.32031,-0.91406 v 2.03906 q -1.16016,0.49219 -2.37891,0.75 -1.21875,0.25781 -2.47265,0.25781 -3.14063,0 -4.98047,-1.82812 -1.82813,-1.82813 -1.82813,-4.94531 0,-3.22266 1.73438,-5.10938 1.74609,-1.89844 4.69922,-1.89844 2.64844,0 4.18359,1.71094 1.54688,1.69922 1.54688,4.62891 z m -2.15625,-0.63281 q -0.0234,-1.76954 -0.9961,-2.82422 -0.96093,-1.05469 -2.55468,-1.05469 -1.80469,0 -2.89454,1.01953 -1.07812,1.01953 -1.24218,2.87109 z" />
    <path
       id="path309"
       style="fill:#ff0000"
       d="M 333.20313,289.07813 V 297 h -2.15625 v -7.85156 q 0,-1.86328 -0.72657,-2.78906 -0.72656,-0.92579 -2.17968,-0.92579 -1.7461,0 -2.75391,1.11329 -1.00781,1.11328 -1.00781,3.03515 V 297 h -2.16797 v -13.125 h 2.16797 v 2.03906 q 0.77343,-1.18359 1.8164,-1.76953 1.05469,-0.58594 2.42578,-0.58594 2.26172,0 3.42188,1.40625 1.16016,1.39454 1.16016,4.11329 z" />
    <path
       id="path311"
       style="fill:#ff0000"
       d="m 339.66016,280.14844 v 3.72656 h 4.4414 v 1.67578 h -4.4414 v 7.125 q 0,1.60547 0.43359,2.0625 0.44531,0.45703 1.79297,0.45703 h 2.21484 V 297 h -2.21484 q -2.49609,0 -3.44531,-0.92578 -0.94922,-0.9375 -0.94922,-3.39844 v -7.125 h -1.58203 V 283.875 h 1.58203 v -3.72656 z" />
    <path
       id="path313"
       style="fill:#ff0000"
       d="m 350.78125,279.50391 h 1.99219 l -6.09375,19.72265 h -1.99219 z" />
    <path
       id="path315"
       style="fill:#ff0000"
       d="m 364.48047,290.44922 q 0,-2.37891 -0.98438,-3.72656 -0.97265,-1.35938 -2.68359,-1.35938 -1.71094,0 -2.69531,1.35938 -0.97266,1.34765 -0.97266,3.72656 0,2.37891 0.97266,3.73828 0.98437,1.34766 2.69531,1.34766 1.71094,0 2.68359,-1.34766 0.98438,-1.35937 0.98438,-3.73828 z m -7.33594,-4.58203 q 0.67969,-1.17188 1.71094,-1.73438 1.04297,-0.57422 2.48437,-0.57422 2.39063,0 3.87891,1.89844 1.5,1.89844 1.5,4.99219 0,3.09375 -1.5,4.99219 -1.48828,1.89843 -3.87891,1.89843 -1.4414,0 -2.48437,-0.5625 -1.03125,-0.57421 -1.71094,-1.74609 V 297 h -2.16797 v -18.23437 h 2.16797 z" />
    <path
       id="path317"
       style="fill:#ff0000"
       d="M 370.07031,291.82031 V 283.875 h 2.15625 v 7.86328 q 0,1.86328 0.72657,2.80078 0.72656,0.92578 2.17968,0.92578 1.7461,0 2.75391,-1.11328 1.01953,-1.11328 1.01953,-3.03515 V 283.875 h 2.15625 V 297 h -2.15625 v -2.01562 q -0.78516,1.19531 -1.82812,1.78125 -1.03125,0.57421 -2.40235,0.57421 -2.26172,0 -3.43359,-1.40625 -1.17188,-1.40625 -1.17188,-4.11328 z m 5.42578,-8.26172 z" />
    <path
       id="path319"
       style="fill:#ff0000"
       d="m 387.66016,280.14844 v 3.72656 h 4.4414 v 1.67578 h -4.4414 v 7.125 q 0,1.60547 0.43359,2.0625 0.44531,0.45703 1.79297,0.45703 h 2.21484 V 297 h -2.21484 q -2.49609,0 -3.44531,-0.92578 -0.94922,-0.9375 -0.94922,-3.39844 v -7.125 h -1.58203 V 283.875 h 1.58203 v -3.72656 z" />
    <path
       id="path321"
       style="fill:#ff0000"
       d="m 397.08203,280.14844 v 3.72656 h 4.44141 v 1.67578 h -4.44141 v 7.125 q 0,1.60547 0.4336,2.0625 0.44531,0.45703 1.79296,0.45703 h 2.21485 V 297 h -2.21485 q -2.49609,0 -3.44531,-0.92578 -0.94922,-0.9375 -0.94922,-3.39844 v -7.125 h -1.58203 V 283.875 h 1.58203 v -3.72656 z" />
    <path
       id="path323"
       style="fill:#ff0000"
       d="m 409.45703,285.38672 q -1.73437,0 -2.74219,1.35937 -1.00781,1.34766 -1.00781,3.70313 0,2.35547 0.9961,3.71484 1.00781,1.34766 2.7539,1.34766 1.72266,0 2.73047,-1.35938 1.00781,-1.35937 1.00781,-3.70312 0,-2.33203 -1.00781,-3.69141 -1.00781,-1.37109 -2.73047,-1.37109 z m 0,-1.82813 q 2.8125,0 4.41797,1.82813 1.60547,1.82812 1.60547,5.0625 0,3.22266 -1.60547,5.0625 -1.60547,1.82812 -4.41797,1.82812 -2.82422,0 -4.42969,-1.82812 -1.59375,-1.83984 -1.59375,-5.0625 0,-3.23438 1.59375,-5.0625 1.60547,-1.82813 4.42969,-1.82813 z" />
    <path
       id="path325"
       style="fill:#ff0000"
       d="M 429.95313,289.07813 V 297 h -2.15625 v -7.85156 q 0,-1.86328 -0.72657,-2.78906 -0.72656,-0.92579 -2.17968,-0.92579 -1.7461,0 -2.75391,1.11329 -1.00781,1.11328 -1.00781,3.03515 V 297 h -2.16797 v -13.125 h 2.16797 v 2.03906 q 0.77343,-1.18359 1.8164,-1.76953 1.05469,-0.58594 2.42578,-0.58594 2.26172,0 3.42188,1.40625 1.16016,1.39454 1.16016,4.11329 z" />
    <path
       id="path327"
       style="fill:#ff0000"
       d="m 444.25,300.98438 v 1.67578 h -12.46875 v -1.67578 z" />
    <path
       id="path329"
       style="fill:#ff0000"
       d="M 457.1875,289.07813 V 297 h -2.15625 v -7.85156 q 0,-1.86328 -0.72656,-2.78906 -0.72656,-0.92579 -2.17969,-0.92579 -1.74609,0 -2.75391,1.11329 -1.00781,1.11328 -1.00781,3.03515 V 297 h -2.16797 v -13.125 h 2.16797 v 2.03906 q 0.77344,-1.18359 1.81641,-1.76953 1.05469,-0.58594 2.42578,-0.58594 2.26172,0 3.42187,1.40625 1.16016,1.39454 1.16016,4.11329 z" />
    <path
       id="path331"
       style="fill:#ff0000"
       d="m 466.55078,278.76563 v 21.39843 h -4.96875 v -1.67578 h 2.80078 v -18.04687 h -2.80078 v -1.67578 z" />
  </g>
</svg>
