<?xml version="1.0" encoding="UTF-8" standalone="no"?>
<svg
   xmlns:dc="http://purl.org/dc/elements/1.1/"
   xmlns:cc="http://creativecommons.org/ns#"
   xmlns:rdf="http://www.w3.org/1999/02/22-rdf-syntax-ns#"
   xmlns:svg="http://www.w3.org/2000/svg"
   xmlns="http://www.w3.org/2000/svg"
   id="svg89"
   stroke-miterlimit="10"
   stroke-linecap="square"
   stroke="none"
   fill="none"
   viewBox="0.0 0.0 348.0 348.0"
   version="1.1">
  <metadata
     id="metadata95">
    <rdf:RDF>
      <cc:Work
         rdf:about="">
        <dc:format>image/svg+xml</dc:format>
        <dc:type
           rdf:resource="http://purl.org/dc/dcmitype/StillImage" />
      </cc:Work>
    </rdf:RDF>
  </metadata>
  <defs
     id="defs93" />
  <clipPath
     id="p.0">
    <path
       id="path2"
       clip-rule="nonzero"
       d="m0 0l348.0 0l0 348.0l-348.0 0l0 -348.0z" />
  </clipPath>
  <g
     id="g59"
     clip-path="url(#p.0)">
    <path
       style="fill:#000000;fill-opacity:0;fill-rule:nonzero"
       id="path5"
       d="M 0,0 H 348 V 348 H 0 Z" />
    <path
       style="fill:#ffffff;fill-rule:nonzero"
       id="path7"
       d="M -6,0 H 342 V 347.9685 H -6 Z" />
    <path
       style="fill:#000000;fill-opacity:0;fill-rule:nonzero"
       id="path9"
       d="m 5.07874,5.7758217 h 336.9134 V 343.44512 H 5.07874 Z" />
    <path
       style="fill-rule:nonzero;stroke:#000000;stroke-width:2;stroke-linecap:butt;stroke-linejoin:round"
       id="path11"
       d="m 5.07874,5.7758217 h 336.9134 V 343.44512 H 5.07874 Z" />
    <path
       style="fill:#ffffff;fill-rule:nonzero"
       id="path13"
       d="m 282.73444,40.553925 v 0 c 0,-8.375591 6.96603,-15.165352 15.55905,-15.165352 v 0 c 4.12653,0 8.08402,1.597773 11.00192,4.441828 2.91788,2.844057 4.55713,6.701422 4.55713,10.723524 v 0 c 0,8.375595 -6.966,15.165356 -15.55905,15.165356 v 0 c -8.59302,0 -15.55905,-6.789761 -15.55905,-15.165356 z" />
    <path
       style="fill-rule:nonzero;stroke:#000000;stroke-width:2;stroke-linecap:butt;stroke-linejoin:round"
       id="path15"
       d="m 282.73444,40.553925 v 0 c 0,-8.375591 6.96603,-15.165352 15.55905,-15.165352 v 0 c 4.12653,0 8.08402,1.597773 11.00192,4.441828 2.91788,2.844057 4.55713,6.701422 4.55713,10.723524 v 0 c 0,8.375595 -6.966,15.165356 -15.55905,15.165356 v 0 c -8.59302,0 -15.55905,-6.789761 -15.55905,-15.165356 z" />
    <path
       style="fill:#000000;fill-rule:nonzero"
       id="path17"
       d="M 34.771652,25.389738 H 267.18112 v 67.55905 H 34.771652 Z" />
    <path
       style="fill-rule:nonzero;stroke:#000000;stroke-width:2;stroke-linecap:butt;stroke-linejoin:round"
       id="path19"
       d="M 34.771652,25.389738 H 267.18112 v 67.55905 H 34.771652 Z" />
    <path
       style="fill-rule:nonzero;stroke:#000000;stroke-width:1;stroke-linecap:butt;stroke-linejoin:round"
       id="path21"
       d="M 34.771652,202.31795 H 141.41733 v 44.81891 H 34.771652 Z" />
    <path
       style="fill:#000000;fill-opacity:0;fill-rule:nonzero"
       id="path23"
       d="M 34.771652,125.22639 H 141.41733 v 44.8189 H 34.771652 Z" />
    <path
       style="fill-rule:nonzero;stroke:#000000;stroke-width:1;stroke-linecap:butt;stroke-linejoin:round"
       id="path25"
       d="M 34.771652,125.22639 H 141.41733 v 44.8189 H 34.771652 Z" />
    <path
       style="fill:#000000;fill-opacity:0;fill-rule:nonzero"
       id="path27"
       d="M 34.771652,270.60397 H 141.41733 v 44.81891 H 34.771652 Z" />
    <path
       style="fill-rule:nonzero;stroke:#000000;stroke-width:1;stroke-linecap:butt;stroke-linejoin:round"
       id="path29"
       d="M 34.771652,270.60397 H 141.41733 v 44.81891 H 34.771652 Z" />
    <path
       style="fill:#000000;fill-opacity:0;fill-rule:nonzero"
       id="path31"
       d="m 157.40683,202.31795 h 106.64566 v 44.81891 H 157.40683 Z" />
    <path
       style="fill-rule:nonzero;stroke:#000000;stroke-width:1;stroke-linecap:butt;stroke-linejoin:round"
       id="path33"
       d="m 157.40683,202.31795 h 106.64566 v 44.81891 H 157.40683 Z" />
    <path
       style="fill:#000000;fill-opacity:0;fill-rule:nonzero"
       id="path35"
       d="m 157.40683,125.22639 h 106.64566 v 44.8189 H 157.40683 Z" />
    <path
       style="fill-rule:nonzero;stroke:#000000;stroke-width:1;stroke-linecap:butt;stroke-linejoin:round"
       id="path37"
       d="m 157.40683,125.22639 h 106.64566 v 44.8189 H 157.40683 Z" />
    <path
       style="fill:#000000;fill-opacity:0;fill-rule:nonzero"
       id="path39"
       d="m 157.40683,270.60397 h 106.64566 v 44.81891 H 157.40683 Z" />
    <path
       style="fill-rule:nonzero;stroke:#000000;stroke-width:1;stroke-linecap:butt;stroke-linejoin:round"
       id="path41"
       d="m 157.40683,270.60397 h 106.64566 v 44.81891 H 157.40683 Z" />
    <path
       style="fill:#000000;fill-rule:nonzero"
       id="path43"
       d="m 277.46194,106.3832 h 52.66141 v 209.03937 h -52.66141 z" />
    <path
       style="fill-rule:nonzero;stroke:#000000;stroke-width:2;stroke-linecap:butt;stroke-linejoin:round"
       id="path45"
       d="m 277.46194,106.3832 h 52.66141 v 209.03937 h -52.66141 z" />
    <path
       style="fill:#ffffff;fill-rule:nonzero"
       id="path47"
       d="m 290.06036,245.11285 h 27.46457 v 16.47244 h -27.46457 z" />
    <path
       style="fill-rule:nonzero;stroke:#000000;stroke-width:2;stroke-linecap:butt;stroke-linejoin:round"
       id="path49"
       d="m 290.06036,245.11285 h 27.46457 v 16.47244 h -27.46457 z" />
    <path
       style="fill:#ffffff;fill-rule:nonzero"
       id="path51"
       d="m 290.06036,208.9029 h 27.46457 v 16.47243 h -27.46457 z" />
    <path
       style="fill-rule:nonzero;stroke:#000000;stroke-width:2;stroke-linecap:butt;stroke-linejoin:round"
       id="path53"
       d="m 290.06036,208.9029 h 27.46457 v 16.47243 h -27.46457 z" />
    <path
       style="fill:#ffffff;fill-rule:nonzero"
       id="path55"
       d="m 290.06036,281.32285 h 27.46457 v 16.47244 h -27.46457 z" />
    <path
       style="fill-rule:nonzero;stroke:#000000;stroke-width:2;stroke-linecap:butt;stroke-linejoin:round"
       id="path57"
       d="m 290.06036,281.32285 h 27.46457 v 16.47244 h -27.46457 z" />
  </g>
  <g
     id="text63"
     style="font-size:32px;font-family:'DejaVu Sans', sans-serif;text-anchor:middle;fill:#ffffff"
     aria-label="[ EKRANO ]">
    <path
       id="path97"
       style=""
       d="m 63.46875,45.6875 h 6.625 v 2.234375 h -3.75 v 24.0625 h 3.75 v 2.234375 h -6.625 z" />
    <path
       id="path99"
       style=""
       d="m 86.546875,46.671875 h 14.749995 v 2.65625 H 89.703125 v 6.90625 H 100.8125 v 2.65625 H 89.703125 V 67.34375 H 101.57812 V 70 H 86.546875 Z" />
    <path
       id="path101"
       style=""
       d="m 106.79687,46.671875 h 3.15625 v 9.859375 l 10.46875,-9.859375 h 4.0625 l -11.57812,10.875 L 125.3125,70 h -4.15625 L 109.95312,58.765625 V 70 h -3.15625 z" />
    <path
       id="path103"
       style=""
       d="m 138.85938,59.0625 q 1.01562,0.34375 1.96875,1.46875 0.96875,1.125 1.9375,3.09375 L 145.96875,70 h -3.39062 l -2.98438,-5.984375 q -1.15625,-2.34375 -2.25,-3.109375 -1.07812,-0.765625 -2.95312,-0.765625 h -3.4375 V 70 h -3.15626 V 46.671875 h 7.12501 q 4,0 5.96875,1.671875 1.96875,1.671875 1.96875,5.046875 0,2.203125 -1.03125,3.65625 Q 140.8125,58.5 138.85938,59.0625 Z m -7.90625,-9.796875 v 8.28125 h 3.96875 q 2.28125,0 3.4375,-1.046875 1.17187,-1.0625 1.17187,-3.109375 0,-2.046875 -1.17187,-3.078125 -1.15625,-1.046875 -3.4375,-1.046875 z" />
    <path
       id="path105"
       style=""
       d="M 156.53125,49.78125 152.25,61.390625 h 8.57813 z M 154.75,46.671875 h 3.57813 L 167.21875,70 h -3.28125 l -2.125,-5.984375 H 151.29688 L 149.17188,70 h -3.32813 z" />
    <path
       id="path107"
       style=""
       d="m 170.60938,46.671875 h 4.25 L 185.20313,66.1875 V 46.671875 h 3.0625 V 70 h -4.25 L 173.67188,50.484375 V 70 h -3.0625 z" />
    <path
       id="path109"
       style=""
       d="m 204.01563,48.8125 q -3.4375,0 -5.46875,2.5625 -2.01563,2.5625 -2.01563,6.984375 0,4.40625 2.01563,6.96875 2.03125,2.5625 5.46875,2.5625 3.4375,0 5.4375,-2.5625 2.01562,-2.5625 2.01562,-6.96875 0,-4.421875 -2.01562,-6.984375 -2,-2.5625 -5.4375,-2.5625 z m 0,-2.5625 q 4.90625,0 7.84375,3.296875 2.9375,3.28125 2.9375,8.8125 0,5.515625 -2.9375,8.8125 -2.9375,3.28125 -7.84375,3.28125 -4.92188,0 -7.875,-3.28125 -2.9375,-3.28125 -2.9375,-8.8125 0,-5.53125 2.9375,-8.8125 2.95312,-3.296875 7.875,-3.296875 z" />
    <path
       id="path111"
       style=""
       d="m 236.51563,45.6875 v 28.53125 h -6.625 v -2.234375 h 3.73437 v -24.0625 h -3.73437 V 45.6875 Z" />
  </g>
  <g
     id="text67"
     style="font-size:20px;font-family:'DejaVu Sans', sans-serif;text-anchor:middle;fill:#000000"
     aria-label="[ AFIŜO ]">
    <path
       id="path114"
       style=""
       d="m 44.773438,138.80469 h 4.140625 v 1.39648 h -2.34375 v 15.03906 h 2.34375 v 1.39649 h -4.140625 z" />
    <path
       id="path116"
       style=""
       d="m 64.070313,141.36328 -2.675782,7.25586 h 5.361328 z m -1.113282,-1.94336 h 2.236328 L 70.75,154 h -2.050781 l -1.328125,-3.74023 H 60.798828 L 59.470703,154 h -2.080078 z" />
    <path
       id="path118"
       style=""
       d="m 72.869141,139.41992 h 8.378906 v 1.66016 h -6.40625 v 4.29687 h 5.78125 v 1.66016 h -5.78125 V 154 h -1.972656 z" />
    <path
       id="path120"
       style=""
       d="m 84.392578,139.41992 h 1.972656 V 154 h -1.972656 z" />
    <path
       id="path122"
       style=""
       d="m 93.845703,135.43555 h 1.835938 l 2.060547,2.59765 h -1.357422 l -1.621094,-1.73828 -1.621094,1.73828 h -1.357422 z m 5.185547,4.46289 v 1.92383 q -1.123047,-0.53711 -2.119141,-0.80079 -0.996093,-0.26367 -1.923828,-0.26367 -1.611328,0 -2.490234,0.625 -0.869141,0.625 -0.869141,1.77735 0,0.96679 0.576172,1.46484 0.585938,0.48828 2.207031,0.79102 l 1.191407,0.24414 q 2.207031,0.41992 3.251953,1.48437 1.054687,1.05469 1.054687,2.83203 0,2.11914 -1.425781,3.21289 -1.416016,1.09375 -4.160156,1.09375 -1.035156,0 -2.207031,-0.23437 -1.16211,-0.23438 -2.41211,-0.69336 v -2.03125 q 1.201172,0.67383 2.353516,1.01562 1.152344,0.3418 2.265625,0.3418 1.689453,0 2.607422,-0.66406 0.917968,-0.66406 0.917968,-1.89453 0,-1.07422 -0.664062,-1.67969 -0.654297,-0.60547 -2.158203,-0.9082 l -1.201172,-0.23438 q -2.207031,-0.43945 -3.193359,-1.37695 -0.986329,-0.9375 -0.986329,-2.60742 0,-1.9336 1.357422,-3.04688 1.367188,-1.11328 3.759766,-1.11328 1.025391,0 2.089844,0.18555 1.064453,0.18554 2.177734,0.55664 z" />
    <path
       id="path124"
       style=""
       d="m 108.9043,140.75781 q -2.14844,0 -3.41797,1.60157 -1.25977,1.60156 -1.25977,4.36523 0,2.75391 1.25977,4.35547 1.26953,1.60156 3.41797,1.60156 2.14843,0 3.39843,-1.60156 1.25977,-1.60156 1.25977,-4.35547 0,-2.76367 -1.25977,-4.36523 -1.25,-1.60157 -3.39843,-1.60157 z m 0,-1.60156 q 3.0664,0 4.90234,2.06055 1.83594,2.05078 1.83594,5.50781 0,3.44727 -1.83594,5.50781 -1.83594,2.05078 -4.90234,2.05078 -3.07618,0 -4.92188,-2.05078 -1.83594,-2.05078 -1.83594,-5.50781 0,-3.45703 1.83594,-5.50781 1.8457,-2.06055 4.92188,-2.06055 z" />
    <path
       id="path126"
       style=""
       d="m 129.2168,138.80469 v 17.83203 h -4.14063 v -1.39649 h 2.33399 v -15.03906 h -2.33399 v -1.39648 z" />
  </g>
  <g
     id="text71"
     style="font-size:20px;font-family:'DejaVu Sans', sans-serif;text-anchor:middle;fill:#000000"
     aria-label="[ AFIŜO ]">
    <path
       id="path129"
       style=""
       d="m 44.773438,215.80469 h 4.140625 v 1.39648 h -2.34375 v 15.03906 h 2.34375 v 1.39649 h -4.140625 z" />
    <path
       id="path131"
       style=""
       d="m 64.070313,218.36328 -2.675782,7.25586 h 5.361328 z m -1.113282,-1.94336 h 2.236328 L 70.75,231 h -2.050781 l -1.328125,-3.74023 H 60.798828 L 59.470703,231 h -2.080078 z" />
    <path
       id="path133"
       style=""
       d="m 72.869141,216.41992 h 8.378906 v 1.66016 h -6.40625 v 4.29687 h 5.78125 v 1.66016 h -5.78125 V 231 h -1.972656 z" />
    <path
       id="path135"
       style=""
       d="m 84.392578,216.41992 h 1.972656 V 231 h -1.972656 z" />
    <path
       id="path137"
       style=""
       d="m 93.845703,212.43555 h 1.835938 l 2.060547,2.59765 h -1.357422 l -1.621094,-1.73828 -1.621094,1.73828 h -1.357422 z m 5.185547,4.46289 v 1.92383 q -1.123047,-0.53711 -2.119141,-0.80079 -0.996093,-0.26367 -1.923828,-0.26367 -1.611328,0 -2.490234,0.625 -0.869141,0.625 -0.869141,1.77735 0,0.96679 0.576172,1.46484 0.585938,0.48828 2.207031,0.79102 l 1.191407,0.24414 q 2.207031,0.41992 3.251953,1.48437 1.054687,1.05469 1.054687,2.83203 0,2.11914 -1.425781,3.21289 -1.416016,1.09375 -4.160156,1.09375 -1.035156,0 -2.207031,-0.23437 -1.16211,-0.23438 -2.41211,-0.69336 v -2.03125 q 1.201172,0.67383 2.353516,1.01562 1.152344,0.3418 2.265625,0.3418 1.689453,0 2.607422,-0.66406 0.917968,-0.66406 0.917968,-1.89453 0,-1.07422 -0.664062,-1.67969 -0.654297,-0.60547 -2.158203,-0.9082 l -1.201172,-0.23438 q -2.207031,-0.43945 -3.193359,-1.37695 -0.986329,-0.9375 -0.986329,-2.60742 0,-1.9336 1.357422,-3.04688 1.367188,-1.11328 3.759766,-1.11328 1.025391,0 2.089844,0.18555 1.064453,0.18554 2.177734,0.55664 z" />
    <path
       id="path139"
       style=""
       d="m 108.9043,217.75781 q -2.14844,0 -3.41797,1.60157 -1.25977,1.60156 -1.25977,4.36523 0,2.75391 1.25977,4.35547 1.26953,1.60156 3.41797,1.60156 2.14843,0 3.39843,-1.60156 1.25977,-1.60156 1.25977,-4.35547 0,-2.76367 -1.25977,-4.36523 -1.25,-1.60157 -3.39843,-1.60157 z m 0,-1.60156 q 3.0664,0 4.90234,2.06055 1.83594,2.05078 1.83594,5.50781 0,3.44727 -1.83594,5.50781 -1.83594,2.05078 -4.90234,2.05078 -3.07618,0 -4.92188,-2.05078 -1.83594,-2.05078 -1.83594,-5.50781 0,-3.45703 1.83594,-5.50781 1.8457,-2.06055 4.92188,-2.06055 z" />
    <path
       id="path141"
       style=""
       d="m 129.2168,215.80469 v 17.83203 h -4.14063 v -1.39649 h 2.33399 v -15.03906 h -2.33399 v -1.39648 z" />
  </g>
  <g
     id="text75"
     style="font-size:20px;font-family:'DejaVu Sans', sans-serif;text-anchor:middle;fill:#000000"
     aria-label="[ AFIŜO ]">
    <path
       id="path144"
       style=""
       d="m 44.773438,283.80469 h 4.140625 v 1.39648 h -2.34375 v 15.03906 h 2.34375 v 1.39649 h -4.140625 z" />
    <path
       id="path146"
       style=""
       d="m 64.070313,286.36328 -2.675782,7.25586 h 5.361328 z m -1.113282,-1.94336 h 2.236328 L 70.75,299 h -2.050781 l -1.328125,-3.74023 H 60.798828 L 59.470703,299 h -2.080078 z" />
    <path
       id="path148"
       style=""
       d="m 72.869141,284.41992 h 8.378906 v 1.66016 h -6.40625 v 4.29687 h 5.78125 v 1.66016 h -5.78125 V 299 h -1.972656 z" />
    <path
       id="path150"
       style=""
       d="m 84.392578,284.41992 h 1.972656 V 299 h -1.972656 z" />
    <path
       id="path152"
       style=""
       d="m 93.845703,280.43555 h 1.835938 l 2.060547,2.59765 h -1.357422 l -1.621094,-1.73828 -1.621094,1.73828 h -1.357422 z m 5.185547,4.46289 v 1.92383 q -1.123047,-0.53711 -2.119141,-0.80079 -0.996093,-0.26367 -1.923828,-0.26367 -1.611328,0 -2.490234,0.625 -0.869141,0.625 -0.869141,1.77735 0,0.96679 0.576172,1.46484 0.585938,0.48828 2.207031,0.79102 l 1.191407,0.24414 q 2.207031,0.41992 3.251953,1.48437 1.054687,1.05469 1.054687,2.83203 0,2.11914 -1.425781,3.21289 -1.416016,1.09375 -4.160156,1.09375 -1.035156,0 -2.207031,-0.23437 -1.16211,-0.23438 -2.41211,-0.69336 v -2.03125 q 1.201172,0.67383 2.353516,1.01562 1.152344,0.3418 2.265625,0.3418 1.689453,0 2.607422,-0.66406 0.917968,-0.66406 0.917968,-1.89453 0,-1.07422 -0.664062,-1.67969 -0.654297,-0.60547 -2.158203,-0.9082 l -1.201172,-0.23438 q -2.207031,-0.43945 -3.193359,-1.37695 -0.986329,-0.9375 -0.986329,-2.60742 0,-1.9336 1.357422,-3.04688 1.367188,-1.11328 3.759766,-1.11328 1.025391,0 2.089844,0.18555 1.064453,0.18554 2.177734,0.55664 z" />
    <path
       id="path154"
       style=""
       d="m 108.9043,285.75781 q -2.14844,0 -3.41797,1.60157 -1.25977,1.60156 -1.25977,4.36523 0,2.75391 1.25977,4.35547 1.26953,1.60156 3.41797,1.60156 2.14843,0 3.39843,-1.60156 1.25977,-1.60156 1.25977,-4.35547 0,-2.76367 -1.25977,-4.36523 -1.25,-1.60157 -3.39843,-1.60157 z m 0,-1.60156 q 3.0664,0 4.90234,2.06055 1.83594,2.05078 1.83594,5.50781 0,3.44727 -1.83594,5.50781 -1.83594,2.05078 -4.90234,2.05078 -3.07618,0 -4.92188,-2.05078 -1.83594,-2.05078 -1.83594,-5.50781 0,-3.45703 1.83594,-5.50781 1.8457,-2.06055 4.92188,-2.06055 z" />
    <path
       id="path156"
       style=""
       d="m 129.2168,283.80469 v 17.83203 h -4.14063 v -1.39649 h 2.33399 v -15.03906 h -2.33399 v -1.39648 z" />
  </g>
  <g
     id="text79"
     style="font-size:20px;font-family:'DejaVu Sans', sans-serif;text-anchor:middle;fill:#000000"
     aria-label="[ AFIŜO ]">
    <path
       id="path159"
       style=""
       d="m 167.77344,138.80469 h 4.14062 v 1.39648 h -2.34375 v 15.03906 h 2.34375 v 1.39649 h -4.14062 z" />
    <path
       id="path161"
       style=""
       d="m 187.07031,141.36328 -2.67578,7.25586 h 5.36133 z m -1.11328,-1.94336 h 2.23633 L 193.75,154 h -2.05078 l -1.32813,-3.74023 h -6.57226 L 182.4707,154 h -2.08007 z" />
    <path
       id="path163"
       style=""
       d="m 195.86914,139.41992 h 8.37891 v 1.66016 h -6.40625 v 4.29687 h 5.78125 v 1.66016 H 197.8418 V 154 h -1.97266 z" />
    <path
       id="path165"
       style=""
       d="m 207.39258,139.41992 h 1.97265 V 154 h -1.97265 z" />
    <path
       id="path167"
       style=""
       d="m 216.8457,135.43555 h 1.83594 l 2.06055,2.59765 h -1.35742 l -1.6211,-1.73828 -1.62109,1.73828 h -1.35742 z m 5.18555,4.46289 v 1.92383 q -1.12305,-0.53711 -2.11914,-0.80079 -0.99609,-0.26367 -1.92383,-0.26367 -1.61133,0 -2.49023,0.625 -0.86914,0.625 -0.86914,1.77735 0,0.96679 0.57617,1.46484 0.58594,0.48828 2.20703,0.79102 l 1.19141,0.24414 q 2.20703,0.41992 3.25195,1.48437 1.05469,1.05469 1.05469,2.83203 0,2.11914 -1.42578,3.21289 -1.41602,1.09375 -4.16016,1.09375 -1.03516,0 -2.20703,-0.23437 -1.16211,-0.23438 -2.41211,-0.69336 v -2.03125 q 1.20117,0.67383 2.35351,1.01562 1.15235,0.3418 2.26563,0.3418 1.68945,0 2.60742,-0.66406 0.91797,-0.66406 0.91797,-1.89453 0,-1.07422 -0.66406,-1.67969 -0.6543,-0.60547 -2.15821,-0.9082 l -1.20117,-0.23438 q -2.20703,-0.43945 -3.19336,-1.37695 -0.98633,-0.9375 -0.98633,-2.60742 0,-1.9336 1.35743,-3.04688 1.36718,-1.11328 3.75976,-1.11328 1.02539,0 2.08985,0.18555 1.06445,0.18554 2.17773,0.55664 z" />
    <path
       id="path169"
       style=""
       d="m 231.9043,140.75781 q -2.14844,0 -3.41797,1.60157 -1.25977,1.60156 -1.25977,4.36523 0,2.75391 1.25977,4.35547 1.26953,1.60156 3.41797,1.60156 2.14843,0 3.39843,-1.60156 1.25977,-1.60156 1.25977,-4.35547 0,-2.76367 -1.25977,-4.36523 -1.25,-1.60157 -3.39843,-1.60157 z m 0,-1.60156 q 3.0664,0 4.90234,2.06055 1.83594,2.05078 1.83594,5.50781 0,3.44727 -1.83594,5.50781 -1.83594,2.05078 -4.90234,2.05078 -3.07617,0 -4.92188,-2.05078 -1.83594,-2.05078 -1.83594,-5.50781 0,-3.45703 1.83594,-5.50781 1.84571,-2.06055 4.92188,-2.06055 z" />
    <path
       id="path171"
       style=""
       d="m 252.2168,138.80469 v 17.83203 h -4.14063 v -1.39649 h 2.33399 v -15.03906 h -2.33399 v -1.39648 z" />
  </g>
  <g
     id="text83"
     style="font-size:20px;font-family:'DejaVu Sans', sans-serif;text-anchor:middle;fill:#000000"
     aria-label="[ AFIŜO ]">
    <path
       id="path174"
       style=""
       d="m 167.77344,215.80469 h 4.14062 v 1.39648 h -2.34375 v 15.03906 h 2.34375 v 1.39649 h -4.14062 z" />
    <path
       id="path176"
       style=""
       d="m 187.07031,218.36328 -2.67578,7.25586 h 5.36133 z m -1.11328,-1.94336 h 2.23633 L 193.75,231 h -2.05078 l -1.32813,-3.74023 h -6.57226 L 182.4707,231 h -2.08007 z" />
    <path
       id="path178"
       style=""
       d="m 195.86914,216.41992 h 8.37891 v 1.66016 h -6.40625 v 4.29687 h 5.78125 v 1.66016 H 197.8418 V 231 h -1.97266 z" />
    <path
       id="path180"
       style=""
       d="m 207.39258,216.41992 h 1.97265 V 231 h -1.97265 z" />
    <path
       id="path182"
       style=""
       d="m 216.8457,212.43555 h 1.83594 l 2.06055,2.59765 h -1.35742 l -1.6211,-1.73828 -1.62109,1.73828 h -1.35742 z m 5.18555,4.46289 v 1.92383 q -1.12305,-0.53711 -2.11914,-0.80079 -0.99609,-0.26367 -1.92383,-0.26367 -1.61133,0 -2.49023,0.625 -0.86914,0.625 -0.86914,1.77735 0,0.96679 0.57617,1.46484 0.58594,0.48828 2.20703,0.79102 l 1.19141,0.24414 q 2.20703,0.41992 3.25195,1.48437 1.05469,1.05469 1.05469,2.83203 0,2.11914 -1.42578,3.21289 -1.41602,1.09375 -4.16016,1.09375 -1.03516,0 -2.20703,-0.23437 -1.16211,-0.23438 -2.41211,-0.69336 v -2.03125 q 1.20117,0.67383 2.35351,1.01562 1.15235,0.3418 2.26563,0.3418 1.68945,0 2.60742,-0.66406 0.91797,-0.66406 0.91797,-1.89453 0,-1.07422 -0.66406,-1.67969 -0.6543,-0.60547 -2.15821,-0.9082 l -1.20117,-0.23438 q -2.20703,-0.43945 -3.19336,-1.37695 -0.98633,-0.9375 -0.98633,-2.60742 0,-1.9336 1.35743,-3.04688 1.36718,-1.11328 3.75976,-1.11328 1.02539,0 2.08985,0.18555 1.06445,0.18554 2.17773,0.55664 z" />
    <path
       id="path184"
       style=""
       d="m 231.9043,217.75781 q -2.14844,0 -3.41797,1.60157 -1.25977,1.60156 -1.25977,4.36523 0,2.75391 1.25977,4.35547 1.26953,1.60156 3.41797,1.60156 2.14843,0 3.39843,-1.60156 1.25977,-1.60156 1.25977,-4.35547 0,-2.76367 -1.25977,-4.36523 -1.25,-1.60157 -3.39843,-1.60157 z m 0,-1.60156 q 3.0664,0 4.90234,2.06055 1.83594,2.05078 1.83594,5.50781 0,3.44727 -1.83594,5.50781 -1.83594,2.05078 -4.90234,2.05078 -3.07617,0 -4.92188,-2.05078 -1.83594,-2.05078 -1.83594,-5.50781 0,-3.45703 1.83594,-5.50781 1.84571,-2.06055 4.92188,-2.06055 z" />
    <path
       id="path186"
       style=""
       d="m 252.2168,215.80469 v 17.83203 h -4.14063 v -1.39649 h 2.33399 v -15.03906 h -2.33399 v -1.39648 z" />
  </g>
  <g
     id="text87"
     style="font-size:20px;font-family:'DejaVu Sans', sans-serif;text-anchor:middle;fill:#000000"
     aria-label="[ AFIŜO ]">
    <path
       id="path189"
       style=""
       d="m 167.77344,283.80469 h 4.14062 v 1.39648 h -2.34375 v 15.03906 h 2.34375 v 1.39649 h -4.14062 z" />
    <path
       id="path191"
       style=""
       d="m 187.07031,286.36328 -2.67578,7.25586 h 5.36133 z m -1.11328,-1.94336 h 2.23633 L 193.75,299 h -2.05078 l -1.32813,-3.74023 h -6.57226 L 182.4707,299 h -2.08007 z" />
    <path
       id="path193"
       style=""
       d="m 195.86914,284.41992 h 8.37891 v 1.66016 h -6.40625 v 4.29687 h 5.78125 v 1.66016 H 197.8418 V 299 h -1.97266 z" />
    <path
       id="path195"
       style=""
       d="m 207.39258,284.41992 h 1.97265 V 299 h -1.97265 z" />
    <path
       id="path197"
       style=""
       d="m 216.8457,280.43555 h 1.83594 l 2.06055,2.59765 h -1.35742 l -1.6211,-1.73828 -1.62109,1.73828 h -1.35742 z m 5.18555,4.46289 v 1.92383 q -1.12305,-0.53711 -2.11914,-0.80079 -0.99609,-0.26367 -1.92383,-0.26367 -1.61133,0 -2.49023,0.625 -0.86914,0.625 -0.86914,1.77735 0,0.96679 0.57617,1.46484 0.58594,0.48828 2.20703,0.79102 l 1.19141,0.24414 q 2.20703,0.41992 3.25195,1.48437 1.05469,1.05469 1.05469,2.83203 0,2.11914 -1.42578,3.21289 -1.41602,1.09375 -4.16016,1.09375 -1.03516,0 -2.20703,-0.23437 -1.16211,-0.23438 -2.41211,-0.69336 v -2.03125 q 1.20117,0.67383 2.35351,1.01562 1.15235,0.3418 2.26563,0.3418 1.68945,0 2.60742,-0.66406 0.91797,-0.66406 0.91797,-1.89453 0,-1.07422 -0.66406,-1.67969 -0.6543,-0.60547 -2.15821,-0.9082 l -1.20117,-0.23438 q -2.20703,-0.43945 -3.19336,-1.37695 -0.98633,-0.9375 -0.98633,-2.60742 0,-1.9336 1.35743,-3.04688 1.36718,-1.11328 3.75976,-1.11328 1.02539,0 2.08985,0.18555 1.06445,0.18554 2.17773,0.55664 z" />
    <path
       id="path199"
       style=""
       d="m 231.9043,285.75781 q -2.14844,0 -3.41797,1.60157 -1.25977,1.60156 -1.25977,4.36523 0,2.75391 1.25977,4.35547 1.26953,1.60156 3.41797,1.60156 2.14843,0 3.39843,-1.60156 1.25977,-1.60156 1.25977,-4.35547 0,-2.76367 -1.25977,-4.36523 -1.25,-1.60157 -3.39843,-1.60157 z m 0,-1.60156 q 3.0664,0 4.90234,2.06055 1.83594,2.05078 1.83594,5.50781 0,3.44727 -1.83594,5.50781 -1.83594,2.05078 -4.90234,2.05078 -3.07617,0 -4.92188,-2.05078 -1.83594,-2.05078 -1.83594,-5.50781 0,-3.45703 1.83594,-5.50781 1.84571,-2.06055 4.92188,-2.06055 z" />
    <path
       id="path201"
       style=""
       d="m 252.2168,283.80469 v 17.83203 h -4.14063 v -1.39649 h 2.33399 v -15.03906 h -2.33399 v -1.39648 z" />
  </g>
</svg>
