<?xml version="1.0" encoding="UTF-8" standalone="no"?>
<svg
   xmlns:dc="http://purl.org/dc/elements/1.1/"
   xmlns:cc="http://creativecommons.org/ns#"
   xmlns:rdf="http://www.w3.org/1999/02/22-rdf-syntax-ns#"
   xmlns:svg="http://www.w3.org/2000/svg"
   xmlns="http://www.w3.org/2000/svg"
   id="svg25"
   stroke-miterlimit="10"
   stroke-linecap="square"
   stroke="none"
   fill="none"
   viewBox="0.0 0.0 288.0 115.0"
   version="1.1">
  <metadata
     id="metadata31">
    <rdf:RDF>
      <cc:Work
         rdf:about="">
        <dc:format>image/svg+xml</dc:format>
        <dc:type
           rdf:resource="http://purl.org/dc/dcmitype/StillImage" />
      </cc:Work>
    </rdf:RDF>
  </metadata>
  <defs
     id="defs29" />
  <clipPath
     id="p.0">
    <path
       id="path2"
       clip-rule="nonzero"
       d="m0 0l288.0 0l0 115.0l-288.0 0l0 -115.0z" />
  </clipPath>
  <g
     id="g19"
     clip-path="url(#p.0)">
    <path
       style="fill:#000000;fill-opacity:0;fill-rule:nonzero"
       id="path5"
       d="M 0,0 H 288 V 115 H 0 Z" />
    <path
       style="fill:#ffffff;fill-rule:nonzero"
       id="path7"
       d="M 12,8.503937 H 276 V 107.49607 H 12 Z" />
    <path
       style="fill-rule:nonzero;stroke:#000000;stroke-width:2;stroke-linecap:butt;stroke-linejoin:round"
       id="path9"
       d="M 12,8.503937 H 276 V 107.49607 H 12 Z" />
    <path
       style="fill:#000000;fill-rule:nonzero"
       id="path11"
       d="M 114,32 H 259.00787 V 85.984253 H 114 Z" />
    <path
       style="fill-rule:nonzero;stroke:#000000;stroke-width:2;stroke-linecap:butt;stroke-linejoin:round"
       id="path13"
       d="M 114,32 H 259.00787 V 85.984253 H 114 Z" />
    <path
       style="fill:#ffffff;fill-rule:nonzero"
       id="path15"
       d="m 36,58 v 0 C 36,43.092659 48.084785,31.007874 62.992126,31.007874 v 0 c 7.15876,0 14.024307,2.843807 19.086311,7.905811 C 87.140449,43.975689 89.984252,50.841244 89.984252,58 v 0 c 0,14.907341 -12.084785,26.992126 -26.992126,26.992126 v 0 C 48.084785,84.992126 36,72.907341 36,58 Z" />
    <path
       style="fill-rule:nonzero;stroke:#000000;stroke-width:2;stroke-linecap:butt;stroke-linejoin:round"
       id="path17"
       d="m 36,58 v 0 C 36,43.092659 48.084785,31.007874 62.992126,31.007874 v 0 c 7.15876,0 14.024307,2.843807 19.086311,7.905811 C 87.140449,43.975689 89.984252,50.841244 89.984252,58 v 0 c 0,14.907341 -12.084785,26.992126 -26.992126,26.992126 v 0 C 48.084785,84.992126 36,72.907341 36,58 Z" />
  </g>
  <g
     id="text23"
     style="font-size:32px;font-family:'DejaVu Sans', sans-serif;text-anchor:middle;fill:#ffffff"
     aria-label="[אבג]">
    <path
       id="path33"
       style=""
       d="m 150.71875,45.6875 h 6.625 v 2.234375 h -3.75 v 24.0625 h 3.75 v 2.234375 h -6.625 z" />
    <path
       id="path35"
       style=""
       d="M 206.15625,63.578125 210.60938,70 h -3.39063 l -6.5,-9.375 q -0.4375,0.21875 -0.71875,0.390625 -0.26562,0.15625 -0.70312,0.578125 -0.4375,0.40625 -0.70313,0.921875 -0.25,0.5 -0.45312,1.359375 -0.20313,0.859375 -0.20313,1.9375 V 70 h -2.875 v -2.890625 q 0,-1.265625 0.15625,-2.34375 0.15625,-1.078125 0.39063,-1.828125 0.25,-0.75 0.64062,-1.375 0.39063,-0.640625 0.73438,-1.03125 0.35937,-0.390625 0.85937,-0.734375 0.51563,-0.34375 0.85938,-0.5 0.34375,-0.171875 0.82812,-0.375 L 195.09375,52.5 h 3.39063 l 6.5,9.375 q 0.42187,-0.203125 0.6875,-0.359375 0.28125,-0.171875 0.71875,-0.59375 Q 206.82813,60.5 207.09375,60 q 0.26563,-0.515625 0.46875,-1.375 0.20313,-0.859375 0.20313,-1.9375 V 52.5 h 2.875 v 2.890625 q 0,1.28125 -0.15625,2.359375 -0.15625,1.0625 -0.40625,1.828125 -0.23438,0.75 -0.625,1.390625 -0.39063,0.625 -0.75,1.015625 -0.35938,0.375 -0.85938,0.71875 -0.5,0.34375 -0.84375,0.515625 -0.34375,0.15625 -0.84375,0.359375 z" />
    <path
       id="path37"
       style=""
       d="M 185.28125,67.765625 V 60.53125 q 0,-1.171875 -0.0938,-1.9375 -0.0781,-0.78125 -0.375,-1.578125 -0.29687,-0.796875 -0.84375,-1.25 -0.53125,-0.453125 -1.48437,-0.734375 -0.9375,-0.296875 -2.29688,-0.296875 h -5.15625 V 52.5 h 5.15625 q 1.92188,0 3.29688,0.359375 1.39062,0.359375 2.29687,1.03125 0.90625,0.65625 1.4375,1.75 0.54688,1.078125 0.75,2.375 0.21875,1.296875 0.21875,3.078125 v 6.671875 h 2.59375 V 70 h -15.75 v -2.234375 z" />
    <path
       id="path39"
       style=""
       d="m 170.45313,60.53125 q 0,2.25 0.53125,4.75 0.54687,2.5 1.75,4.71875 H 169.625 q -0.90625,-2.109375 -1.29687,-3.859375 -0.51563,1.265625 -1.0625,2.078125 -0.54688,0.796875 -1.17188,1.21875 -0.625,0.421875 -1.25,0.5625 -0.625,0.15625 -1.48437,0.15625 -0.71875,0 -1.51563,-0.21875 v -2.640625 q 0.53125,0.15625 1.09375,0.15625 0.6875,0 1.21875,-0.09375 0.54688,-0.109375 1.21875,-0.515625 0.67188,-0.40625 1.10938,-1.109375 0.4375,-0.71875 0.75,-2.046875 0.3125,-1.328125 0.3125,-3.15625 0,-2.359375 -0.40625,-3.609375 -0.39063,-1.265625 -1.1875,-1.71875 -0.78125,-0.46875 -2.21875,-0.46875 h -1.40625 V 52.5 h 1.5 q 3.45312,0 5.03125,1.90625 1.59375,1.90625 1.59375,6.125 z" />
    <path
       id="path41"
       style=""
       d="m 223.26563,45.6875 v 28.53125 h -6.625 v -2.234375 h 3.73437 v -24.0625 h -3.73437 V 45.6875 Z" />
  </g>
</svg>
