<?xml version="1.0" encoding="UTF-8" standalone="no"?>
<svg
   xmlns:dc="http://purl.org/dc/elements/1.1/"
   xmlns:cc="http://creativecommons.org/ns#"
   xmlns:rdf="http://www.w3.org/1999/02/22-rdf-syntax-ns#"
   xmlns:svg="http://www.w3.org/2000/svg"
   xmlns="http://www.w3.org/2000/svg"
   id="svg97"
   stroke-miterlimit="10"
   stroke-linecap="square"
   stroke="none"
   fill="none"
   viewBox="0.0 0.0 369.0 801.0"
   version="1.1">
  <metadata
     id="metadata103">
    <rdf:RDF>
      <cc:Work
         rdf:about="">
        <dc:format>image/svg+xml</dc:format>
        <dc:type
           rdf:resource="http://purl.org/dc/dcmitype/StillImage" />
      </cc:Work>
    </rdf:RDF>
  </metadata>
  <defs
     id="defs101" />
  <clipPath
     id="p.0">
    <path
       id="path2"
       clip-rule="nonzero"
       d="m0 0l369.0 0l0 801.0l-369.0 0l0 -801.0z" />
  </clipPath>
  <g
     id="g91"
     clip-path="url(#p.0)">
    <path
       id="path5"
       fill-rule="nonzero"
       d="M 0,0 H 369.1076 V 801.916 H 0 Z"
       fill-opacity="0"
       fill="#000000" />
    <path
       id="path7"
       fill-rule="nonzero"
       d="m 248.5753,444.2651 h 101.4803 v 67.55905 H 248.5753 Z"
       fill="#000000" />
    <path
       id="path9"
       fill-rule="nonzero"
       d="m 248.5753,444.2651 h 101.4803 v 67.55905 H 248.5753 Z"
       stroke-linecap="butt"
       stroke-linejoin="round"
       stroke-width="2"
       stroke="#000000" />
    <path
       id="path11"
       fill-rule="nonzero"
       d="m 289.4047,109.25535 h 67.3071 v 208.0315 h -67.3071 z"
       fill="#ffffff" />
    <path
       id="path13"
       fill-rule="nonzero"
       d="m 289.4047,109.25535 h 67.3071 v 208.0315 h -67.3071 z"
       stroke-linecap="butt"
       stroke-linejoin="round"
       stroke-width="2"
       stroke="#000000" />
    <path
       id="path15"
       fill-rule="nonzero"
       d="M 5.589649,165.38321 H 53.306183 V 273.09973 H 5.589649 Z"
       fill="#ffffff" />
    <path
       id="path17"
       fill-rule="nonzero"
       d="M 5.589649,165.38321 H 53.306183 V 273.09973 H 5.589649 Z"
       stroke-linecap="butt"
       stroke-linejoin="round"
       stroke-width="2"
       stroke="#000000" />
    <path
       id="path19"
       fill-rule="nonzero"
       d="m 278.36172,66.32809 h 68.82806 v 0 c 9.01667,0 16.32611,7.042313 16.32611,15.729446 0,8.687134 -7.30944,15.729446 -16.32611,15.729446 h -68.82806 v 0 c -9.01666,0 -16.32614,-7.042313 -16.32614,-15.729446 0,-8.687134 7.30948,-15.729446 16.32614,-15.729446 z"
       fill="#ffffff" />
    <path
       id="path21"
       fill-rule="nonzero"
       d="m 278.36172,66.32809 h 68.82806 v 0 c 9.01667,0 16.32611,7.042313 16.32611,15.729446 0,8.687134 -7.30944,15.729446 -16.32611,15.729446 h -68.82806 v 0 c -9.01666,0 -16.32614,-7.042313 -16.32614,-15.729446 0,-8.687134 7.30948,-15.729446 16.32614,-15.729446 z"
       stroke-linecap="butt"
       stroke-linejoin="round"
       stroke-width="2"
       stroke="#000000" />
    <path
       id="path23"
       fill-rule="nonzero"
       d="m 12.574803,486.2047 h 67.30708 v 208.0315 h -67.30708 z"
       fill="#ffffff" />
    <path
       id="path25"
       fill-rule="nonzero"
       d="m 12.574803,486.2047 h 67.30708 v 208.0315 h -67.30708 z"
       stroke-linecap="butt"
       stroke-linejoin="round"
       stroke-width="2"
       stroke="#000000" />
    <path
       id="path27"
       fill-rule="nonzero"
       d="m 243.86876,46.650917 h 92.15749 V 384.32022 h -92.15749 z"
       fill="#ffffff" />
    <path
       id="path29"
       fill-rule="nonzero"
       d="m 243.86876,46.650917 h 92.15749 V 384.32022 h -92.15749 z"
       stroke-linecap="butt"
       stroke-linejoin="round"
       stroke-width="2"
       stroke="#000000" />
    <path
       id="path31"
       fill-rule="nonzero"
       d="M 22.658957,122.89764 H 101.74557 V 304.53543 H 22.658957 Z"
       fill="#000000" />
    <path
       id="path33"
       fill-rule="nonzero"
       d="M 22.658957,122.89764 H 101.74557 V 304.53543 H 22.658957 Z"
       stroke-linecap="butt"
       stroke-linejoin="round"
       stroke-width="2"
       stroke="#000000" />
    <path
       id="path35"
       fill-rule="nonzero"
       d="m 22.689058,66.32809 h 68.82809 v 0 c 9.016662,0 16.326122,7.042313 16.326122,15.729446 0,8.687134 -7.30946,15.729446 -16.326122,15.729446 h -68.82809 v 0 c -9.016665,0 -16.326115,-7.042313 -16.326115,-15.729446 0,-8.687134 7.309451,-15.729446 16.326115,-15.729446 z"
       fill="#ffffff" />
    <path
       id="path37"
       fill-rule="nonzero"
       d="m 22.689058,66.32809 h 68.82809 v 0 c 9.016662,0 16.326122,7.042313 16.326122,15.729446 0,8.687134 -7.30946,15.729446 -16.326122,15.729446 h -68.82809 v 0 c -9.016665,0 -16.326115,-7.042313 -16.326115,-15.729446 0,-8.687134 7.309451,-15.729446 16.326115,-15.729446 z"
       stroke-linecap="butt"
       stroke-linejoin="round"
       stroke-width="2"
       stroke="#000000" />
    <path
       id="path39"
       fill-rule="nonzero"
       d="m 22.689058,443.84253 h 68.82809 v 0 c 9.016662,0 16.326122,7.0423 16.326122,15.72943 0,8.68713 -7.30946,15.72946 -16.326122,15.72946 h -68.82809 v 0 c -9.016665,0 -16.326115,-7.04233 -16.326115,-15.72946 0,-8.68713 7.309451,-15.72943 16.326115,-15.72943 z"
       fill="#ffffff" />
    <path
       id="path41"
       fill-rule="nonzero"
       d="m 22.689058,443.84253 h 68.82809 v 0 c 9.016662,0 16.326122,7.0423 16.326122,15.72943 0,8.68713 -7.30946,15.72946 -16.326122,15.72946 h -68.82809 v 0 c -9.016665,0 -16.326115,-7.04233 -16.326115,-15.72946 0,-8.68713 7.309451,-15.72943 16.326115,-15.72943 z"
       stroke-linecap="butt"
       stroke-linejoin="round"
       stroke-width="2"
       stroke="#000000" />
    <path
       id="path43"
       fill-rule="nonzero"
       d="M 31.853674,46.650917 H 86.814306 V 384.32022 H 31.853674 Z"
       fill="#ffffff" />
    <path
       id="path45"
       fill-rule="nonzero"
       d="M 31.853674,46.650917 H 86.814306 V 384.32022 H 31.853674 Z"
       stroke-linecap="butt"
       stroke-linejoin="round"
       stroke-width="2"
       stroke="#000000" />
    <path
       id="path47"
       fill-rule="nonzero"
       d="m 278.36368,443.84253 h 68.82809 v 0 c 9.01667,0 16.32611,7.0423 16.32611,15.72943 0,8.68713 -7.30944,15.72946 -16.32611,15.72946 h -68.82809 v 0 c -9.01666,0 -16.32611,-7.04233 -16.32611,-15.72946 0,-8.68713 7.30945,-15.72943 16.32611,-15.72943 z"
       fill="#ffffff" />
    <path
       id="path49"
       fill-rule="nonzero"
       d="m 278.36368,443.84253 h 68.82809 v 0 c 9.01667,0 16.32611,7.0423 16.32611,15.72943 0,8.68713 -7.30944,15.72946 -16.32611,15.72946 h -68.82809 v 0 c -9.01666,0 -16.32611,-7.04233 -16.32611,-15.72946 0,-8.68713 7.30945,-15.72943 16.32611,-15.72943 z"
       stroke-linecap="butt"
       stroke-linejoin="round"
       stroke-width="2"
       stroke="#000000" />
    <path
       id="path51"
       fill-rule="nonzero"
       d="M 251.84662,615.33795 H 358.49228 V 660.1568 H 251.84662 Z"
       fill="#ffffff" />
    <path
       id="path53"
       fill-rule="nonzero"
       d="M 251.84662,615.33795 H 358.49228 V 660.1568 H 251.84662 Z"
       stroke-linecap="butt"
       stroke-linejoin="round"
       stroke-width="2"
       stroke="#000000" />
    <path
       id="path55"
       fill-rule="nonzero"
       d="m 251.84662,544.1022 h 106.64566 v 44.81891 H 251.84662 Z"
       fill="#ffffff" />
    <path
       id="path57"
       fill-rule="nonzero"
       d="m 251.84662,544.1022 h 106.64566 v 44.81891 H 251.84662 Z"
       stroke-linecap="butt"
       stroke-linejoin="round"
       stroke-width="2"
       stroke="#000000" />
    <path
       id="path59"
       fill-rule="nonzero"
       d="m 251.84662,689.47974 h 106.64566 v 44.81891 H 251.84662 Z"
       fill="#ffffff" />
    <path
       id="path61"
       fill-rule="nonzero"
       d="m 251.84662,689.47974 h 106.64566 v 44.81891 H 251.84662 Z"
       stroke-linecap="butt"
       stroke-linejoin="round"
       stroke-width="2"
       stroke="#000000" />
    <path
       id="path63"
       fill-rule="nonzero"
       d="m 6.361959,517.22833 h 24.88189"
       fill-opacity="0"
       fill="#000000" />
    <path
       id="path65"
       fill-rule="nonzero"
       d="m 6.361959,517.22833 h 24.88189"
       stroke-linecap="butt"
       stroke-linejoin="round"
       stroke-width="2"
       stroke="#000000" />
    <path
       id="path67"
       fill-rule="nonzero"
       d="m 6.361959,569.0379 h 24.88189"
       fill-opacity="0"
       fill="#000000" />
    <path
       id="path69"
       fill-rule="nonzero"
       d="m 6.361959,569.0379 h 24.88189"
       stroke-linecap="butt"
       stroke-linejoin="round"
       stroke-width="2"
       stroke="#000000" />
    <path
       id="path71"
       fill-rule="nonzero"
       d="m 6.361959,616.8954 h 24.88189"
       fill-opacity="0"
       fill="#000000" />
    <path
       id="path73"
       fill-rule="nonzero"
       d="m 6.361959,616.8954 h 24.88189"
       stroke-linecap="butt"
       stroke-linejoin="round"
       stroke-width="2"
       stroke="#000000" />
    <path
       id="path75"
       fill-rule="nonzero"
       d="M 6.361959,673.9764 H 31.999753"
       fill-opacity="0"
       fill="#000000" />
    <path
       id="path77"
       fill-rule="nonzero"
       d="M 6.361959,673.9764 H 31.999753"
       stroke-linecap="butt"
       stroke-linejoin="round"
       stroke-width="2"
       stroke="#000000" />
    <path
       id="path79"
       fill-rule="nonzero"
       d="m 31.85023,423.8084 h 304.1575 V 761.47765 H 31.85023 Z"
       fill="#ffffff" />
    <path
       id="path81"
       fill-rule="nonzero"
       d="m 31.85023,423.8084 h 304.1575 V 761.47765 H 31.85023 Z"
       stroke-linecap="butt"
       stroke-linejoin="round"
       stroke-width="2"
       stroke="#000000" />
    <path
       id="path83"
       fill-rule="nonzero"
       d="M 56.01132,0.9422572 H 312.60974 V 800.97376 H 56.01132 Z"
       fill="#ffffff" />
    <path
       id="path85"
       fill-rule="nonzero"
       d="M 56.01132,0.9422572 H 312.60974 V 800.97376 H 56.01132 Z"
       stroke-linecap="butt"
       stroke-linejoin="round"
       stroke-width="2"
       stroke="#000000" />
    <path
       id="path87"
       fill-rule="nonzero"
       d="M 289.4042,31.199474 V 346.85303 H 221.84513 V 31.199474 Z"
       fill-opacity="0"
       fill="#000000" />
    <path
       id="path89"
       fill-rule="nonzero"
       d="M 289.4042,31.199474 V 386.85303 H 221.84513 V 31.199474 Z"
       stroke-linecap="butt"
       stroke-linejoin="round"
       stroke-width="2"
       stroke="#000000" />
  </g>
  <g
     style="font-size:30px;font-family:'DejaVu Sans', sans-serif;text-anchor:middle;fill:#000000"
     id="text95"
     transform="rotate(90)"
     aria-label="[СЕРІЙНИЙ НОМЕР]">
    <path
       id="path105"
       d="m 64.105469,-267.79297 h 6.210937 v 2.09473 h -3.515625 v 22.55859 h 3.515625 v 2.09473 h -6.210937 z" />
    <path
       id="path107"
       d="m 92.567383,-265.18555 v 3.12012 q -1.494141,-1.3916 -3.19336,-2.08008 -1.68457,-0.68847 -3.588867,-0.68847 -3.75,0 -5.742187,2.2998 -1.992188,2.28516 -1.992188,6.62109 0,4.32129 1.992188,6.6211 1.992187,2.28515 5.742187,2.28515 1.904297,0 3.588867,-0.68847 1.699219,-0.68848 3.19336,-2.08008 v 3.09082 q -1.552735,1.05469 -3.295899,1.58203 -1.728515,0.52734 -3.662109,0.52734 -4.96582,0 -7.822266,-3.03222 -2.856445,-3.04688 -2.856445,-8.30567 0,-5.27343 2.856445,-8.30566 2.856446,-3.04687 7.822266,-3.04687 1.962891,0 3.691406,0.52734 1.743164,0.51269 3.266602,1.55273 z" />
    <path
       id="path109"
       d="m 97.166992,-266.87012 h 13.828128 v 2.49024 h -10.86914 v 6.47461 h 10.41504 v 2.49023 h -10.41504 v 7.92481 h 11.13281 V -245 H 97.166992 Z" />
    <path
       id="path111"
       d="m 119.11035,-264.43848 v 8.21778 h 3.7207 q 2.06543,0 3.19336,-1.06934 1.12793,-1.06933 1.12793,-3.04687 0,-1.96289 -1.12793,-3.03223 -1.12793,-1.06934 -3.19336,-1.06934 z m -2.95898,-2.43164 h 6.67968 q 3.67676,0 5.55176,1.66992 1.88965,1.65528 1.88965,4.86329 0,3.2373 -1.88965,4.89257 -1.875,1.65528 -5.55176,1.65528 h -3.7207 V -245 h -2.95898 z" />
    <path
       id="path113"
       d="m 134.25684,-266.87012 h 2.95898 V -245 h -2.95898 z" />
    <path
       id="path115"
       d="M 159.65723,-266.87012 V -245 h -2.8711 v -18.2959 L 147.08887,-245 h -3.98438 v -21.87012 h 2.8711 v 18.2959 l 9.69726,-18.2959 z m -12.99317,-5.97656 h 1.72852 q 0.19043,0.79102 0.9082,1.21582 0.73242,0.41016 1.94824,0.41016 1.20118,0 1.9043,-0.39551 0.71777,-0.41016 0.95215,-1.23047 h 1.72851 q -0.14648,1.74316 -1.31836,2.65137 -1.17187,0.89355 -3.2666,0.89355 -2.10937,0 -3.28125,-0.89355 -1.15722,-0.89356 -1.30371,-2.65137 z" />
    <path
       id="path117"
       d="m 165.5459,-266.87012 h 2.95898 v 8.96485 h 10.75196 v -8.96485 h 2.95898 V -245 h -2.95898 v -10.41504 H 168.50488 V -245 h -2.95898 z" />
    <path
       id="path119"
       d="M 204.65723,-266.87012 V -245 h -2.8711 v -18.2959 L 192.08887,-245 h -3.98438 v -21.87012 h 2.8711 v 18.2959 l 9.69726,-18.2959 z" />
    <path
       id="path121"
       d="M 227.09863,-266.87012 V -245 h -2.87109 v -18.2959 L 214.53027,-245 h -3.98437 v -21.87012 h 2.87109 v 18.2959 l 9.69727,-18.2959 z m -12.99316,-5.97656 h 1.72851 q 0.19043,0.79102 0.90821,1.21582 0.73242,0.41016 1.94824,0.41016 1.20117,0 1.9043,-0.39551 0.71777,-0.41016 0.95214,-1.23047 h 1.72852 q -0.14648,1.74316 -1.31836,2.65137 -1.17187,0.89355 -3.2666,0.89355 -2.10938,0 -3.28125,-0.89355 -1.15723,-0.89356 -1.30371,-2.65137 z" />
    <path
       id="path123"
       d="m 242.53809,-266.87012 h 2.95898 v 8.96485 h 10.75195 v -8.96485 h 2.95899 V -245 h -2.95899 v -10.41504 H 245.49707 V -245 h -2.95898 z" />
    <path
       id="path125"
       d="m 273.97363,-264.86328 q -3.22265,0 -5.12695,2.40234 -1.88965,2.40235 -1.88965,6.54785 0,4.13086 1.88965,6.53321 1.9043,2.40234 5.12695,2.40234 3.22266,0 5.09766,-2.40234 1.88965,-2.40235 1.88965,-6.53321 0,-4.1455 -1.88965,-6.54785 -1.875,-2.40234 -5.09766,-2.40234 z m 0,-2.40234 q 4.59961,0 7.35352,3.09082 2.7539,3.07617 2.7539,8.26171 0,5.1709 -2.7539,8.26172 -2.75391,3.07617 -7.35352,3.07617 -4.61426,0 -7.38281,-3.07617 -2.75391,-3.07617 -2.75391,-8.26172 0,-5.18554 2.75391,-8.26171 2.76855,-3.09082 7.38281,-3.09082 z" />
    <path
       id="path127"
       d="m 288.70996,-266.87012 h 4.40918 l 5.58106,14.88282 5.61035,-14.88282 h 4.40918 V -245 h -2.88575 v -19.2041 l -5.63964,15 h -2.97364 l -5.63965,-15 V -245 h -2.87109 z" />
    <path
       id="path129"
       d="m 314.6084,-266.87012 h 13.82812 v 2.49024 h -10.86914 v 6.47461 h 10.41504 v 2.49023 h -10.41504 v 7.92481 H 328.7002 V -245 h -14.0918 z" />
    <path
       id="path131"
       d="m 336.55176,-264.43848 v 8.21778 h 3.7207 q 2.06543,0 3.19336,-1.06934 1.12793,-1.06933 1.12793,-3.04687 0,-1.96289 -1.12793,-3.03223 -1.12793,-1.06934 -3.19336,-1.06934 z m -2.95899,-2.43164 h 6.67969 q 3.67676,0 5.55176,1.66992 1.88965,1.65528 1.88965,4.86329 0,3.2373 -1.88965,4.89257 -1.875,1.65528 -5.55176,1.65528 h -3.7207 V -245 h -2.95899 z" />
    <path
       id="path133"
       d="m 357.87988,-267.79297 v 26.74805 h -6.21093 v -2.09473 h 3.50097 v -22.55859 h -3.50097 v -2.09473 z" />
  </g>
</svg>
