<?xml version="1.0" encoding="UTF-8" standalone="no"?>
<svg
   xmlns:dc="http://purl.org/dc/elements/1.1/"
   xmlns:cc="http://creativecommons.org/ns#"
   xmlns:rdf="http://www.w3.org/1999/02/22-rdf-syntax-ns#"
   xmlns:svg="http://www.w3.org/2000/svg"
   xmlns="http://www.w3.org/2000/svg"
   id="svg111"
   stroke-miterlimit="10"
   stroke-linecap="square"
   stroke="none"
   fill="none"
   viewBox="0.0 0.0 348.0 348.0"
   version="1.1">
  <metadata
     id="metadata117">
    <rdf:RDF>
      <cc:Work
         rdf:about="">
        <dc:format>image/svg+xml</dc:format>
        <dc:type
           rdf:resource="http://purl.org/dc/dcmitype/StillImage" />
      </cc:Work>
    </rdf:RDF>
  </metadata>
  <defs
     id="defs115" />
  <clipPath
     id="p.0">
    <path
       id="path2"
       clip-rule="nonzero"
       d="m0 0l348.0 0l0 348.0l-348.0 0l0 -348.0z" />
  </clipPath>
  <g
     id="g85"
     clip-path="url(#p.0)">
    <path
       style="fill:#000000;fill-opacity:0;fill-rule:evenodd"
       id="path5"
       d="M 0,0 H 348 V 348 H 0 Z" />
    <path
       style="fill:#ffffff;fill-rule:evenodd"
       id="path7"
       d="M -6,0 H 348.01575 V 347.9685 H -6 Z" />
    <path
       style="fill:#000000;fill-opacity:0;fill-rule:evenodd"
       id="path9"
       d="m 5.07874,5.7758217 h 336.9134 V 343.4451 H 5.07874 Z" />
    <path
       style="fill-rule:evenodd;stroke:#000000;stroke-width:2;stroke-linecap:butt;stroke-linejoin:round"
       id="path11"
       d="m 5.07874,5.7758217 h 336.9134 V 343.4451 H 5.07874 Z" />
    <path
       style="fill:#ffffff;fill-rule:evenodd"
       id="path13"
       d="m 282.73444,40.553925 v 0 c 0,-8.375591 6.96603,-15.165352 15.55905,-15.165352 v 0 c 4.12653,0 8.08402,1.597773 11.00192,4.441828 2.91788,2.844057 4.55713,6.701422 4.55713,10.723524 v 0 c 0,8.375595 -6.966,15.165356 -15.55905,15.165356 v 0 c -8.59302,0 -15.55905,-6.789761 -15.55905,-15.165356 z" />
    <path
       style="fill-rule:evenodd;stroke:#000000;stroke-width:2;stroke-linecap:butt;stroke-linejoin:round"
       id="path15"
       d="m 282.73444,40.553925 v 0 c 0,-8.375591 6.96603,-15.165352 15.55905,-15.165352 v 0 c 4.12653,0 8.08402,1.597773 11.00192,4.441828 2.91788,2.844057 4.55713,6.701422 4.55713,10.723524 v 0 c 0,8.375595 -6.966,15.165356 -15.55905,15.165356 v 0 c -8.59302,0 -15.55905,-6.789761 -15.55905,-15.165356 z" />
    <path
       style="fill:#000000;fill-rule:evenodd"
       id="path17"
       d="M 50.949955,90.04964 60.41452,72.726802 69.879089,90.04964 Z" />
    <path
       style="fill-rule:evenodd;stroke:#000000;stroke-width:2;stroke-linecap:butt;stroke-linejoin:round"
       id="path19"
       d="M 50.949955,90.04964 60.41452,72.726802 69.879089,90.04964 Z" />
    <path
       style="fill:#000000;fill-opacity:0;fill-rule:evenodd"
       id="path21"
       d="m 122.04724,268.00525 h 97.92126 v 41.88977 h -97.92126 z" />
    <path
       style="fill-rule:evenodd;stroke:#000000;stroke-width:2;stroke-linecap:butt;stroke-linejoin:round"
       id="path23"
       d="m 122.04724,268.00525 h 97.92126 v 41.88977 h -97.92126 z" />
    <path
       style="fill:#000000;fill-rule:evenodd"
       id="path25"
       d="M 29.517061,106.30446 H 289.61154 v 96.81889 H 29.517061 Z" />
    <path
       style="fill-rule:evenodd;stroke:#000000;stroke-width:2;stroke-linecap:butt;stroke-linejoin:round"
       id="path27"
       d="M 29.517061,106.30446 H 289.61154 v 96.81889 H 29.517061 Z" />
    <path
       style="fill:#ffffff;fill-rule:evenodd"
       id="path29"
       d="m 35.627296,113.07874 h 49.574806 v 82.14173 H 35.627296 Z" />
    <path
       style="fill-rule:evenodd;stroke:#000000;stroke-width:1;stroke-linecap:butt;stroke-linejoin:round"
       id="path31"
       d="m 35.627296,113.07874 h 49.574806 v 82.14173 H 35.627296 Z" />
    <path
       style="fill:#ffffff;fill-rule:evenodd"
       id="path33"
       d="m 85.2021,113.07874 h 49.5748 v 82.14173 H 85.2021 Z" />
    <path
       style="fill-rule:evenodd;stroke:#000000;stroke-width:1;stroke-linecap:butt;stroke-linejoin:round"
       id="path35"
       d="m 85.2021,113.07874 h 49.5748 v 82.14173 H 85.2021 Z" />
    <path
       style="fill:#ffffff;fill-rule:evenodd"
       id="path37"
       d="m 134.77843,113.07874 h 49.5748 v 82.14173 h -49.5748 z" />
    <path
       style="fill-rule:evenodd;stroke:#000000;stroke-width:1;stroke-linecap:butt;stroke-linejoin:round"
       id="path39"
       d="m 134.77843,113.07874 h 49.5748 v 82.14173 h -49.5748 z" />
    <path
       style="fill:#ffffff;fill-rule:evenodd"
       id="path41"
       d="m 184.35214,113.07874 h 49.5748 v 82.14173 h -49.5748 z" />
    <path
       style="fill-rule:evenodd;stroke:#000000;stroke-width:1;stroke-linecap:butt;stroke-linejoin:round"
       id="path43"
       d="m 184.35214,113.07874 h 49.5748 v 82.14173 h -49.5748 z" />
    <path
       style="fill:#ffffff;fill-rule:evenodd"
       id="path45"
       d="m 233.9265,113.07874 h 49.57481 v 82.14173 H 233.9265 Z" />
    <path
       style="fill-rule:evenodd;stroke:#000000;stroke-width:1;stroke-linecap:butt;stroke-linejoin:round"
       id="path47"
       d="m 233.9265,113.07874 h 49.57481 v 82.14173 H 233.9265 Z" />
    <path
       style="fill:#000000;fill-rule:evenodd"
       id="path49"
       d="m 100.52476,90.04964 9.46457,-17.322838 9.46457,17.322838 z" />
    <path
       style="fill-rule:evenodd;stroke:#000000;stroke-width:2;stroke-linecap:butt;stroke-linejoin:round"
       id="path51"
       d="m 100.52476,90.04964 9.46457,-17.322838 9.46457,17.322838 z" />
    <path
       style="fill:#000000;fill-rule:evenodd"
       id="path53"
       d="m 150.09956,90.04964 9.46457,-17.322838 9.46457,17.322838 z" />
    <path
       style="fill-rule:evenodd;stroke:#000000;stroke-width:2;stroke-linecap:butt;stroke-linejoin:round"
       id="path55"
       d="m 150.09956,90.04964 9.46457,-17.322838 9.46457,17.322838 z" />
    <path
       style="fill:#000000;fill-rule:evenodd"
       id="path57"
       d="m 199.67436,90.04964 9.46457,-17.322838 9.46457,17.322838 z" />
    <path
       style="fill-rule:evenodd;stroke:#000000;stroke-width:2;stroke-linecap:butt;stroke-linejoin:round"
       id="path59"
       d="m 199.67436,90.04964 9.46457,-17.322838 9.46457,17.322838 z" />
    <path
       style="fill:#000000;fill-rule:evenodd"
       id="path61"
       d="m 249.24916,90.04964 9.46458,-17.322838 9.46457,17.322838 z" />
    <path
       style="fill-rule:evenodd;stroke:#000000;stroke-width:2;stroke-linecap:butt;stroke-linejoin:round"
       id="path63"
       d="m 249.24916,90.04964 9.46458,-17.322838 9.46457,17.322838 z" />
    <path
       style="fill:#000000;fill-rule:evenodd"
       id="path65"
       d="m 268.1783,219.37772 -9.46457,17.32285 -9.46458,-17.32285 z" />
    <path
       style="fill-rule:evenodd;stroke:#000000;stroke-width:2;stroke-linecap:butt;stroke-linejoin:round"
       id="path67"
       d="m 268.1783,219.37772 -9.46457,17.32285 -9.46458,-17.32285 z" />
    <path
       style="fill:#000000;fill-rule:evenodd"
       id="path69"
       d="m 218.6035,219.37772 -9.46457,17.32285 -9.46457,-17.32285 z" />
    <path
       style="fill-rule:evenodd;stroke:#000000;stroke-width:2;stroke-linecap:butt;stroke-linejoin:round"
       id="path71"
       d="m 218.6035,219.37772 -9.46457,17.32285 -9.46457,-17.32285 z" />
    <path
       style="fill:#000000;fill-rule:evenodd"
       id="path73"
       d="m 169.0287,219.37772 -9.46457,17.32285 -9.46457,-17.32285 z" />
    <path
       style="fill-rule:evenodd;stroke:#000000;stroke-width:2;stroke-linecap:butt;stroke-linejoin:round"
       id="path75"
       d="m 169.0287,219.37772 -9.46457,17.32285 -9.46457,-17.32285 z" />
    <path
       style="fill:#000000;fill-rule:evenodd"
       id="path77"
       d="m 119.4539,219.37772 -9.46457,17.32285 -9.46457,-17.32285 z" />
    <path
       style="fill-rule:evenodd;stroke:#000000;stroke-width:2;stroke-linecap:butt;stroke-linejoin:round"
       id="path79"
       d="m 119.4539,219.37772 -9.46457,17.32285 -9.46457,-17.32285 z" />
    <path
       style="fill:#000000;fill-rule:evenodd"
       id="path81"
       d="m 69.87909,219.37772 -9.464569,17.32285 -9.464565,-17.32285 z" />
    <path
       style="fill-rule:evenodd;stroke:#000000;stroke-width:2;stroke-linecap:butt;stroke-linejoin:round"
       id="path83"
       d="m 69.87909,219.37772 -9.464569,17.32285 -9.464565,-17.32285 z" />
  </g>
  <g
     id="text89"
     style="font-size:20px;font-family:'DejaVu Sans', sans-serif;text-anchor:middle;fill:#000000"
     aria-label="SUBMETER">
    <path
       id="path119"
       style=""
       d="m 126.82031,281.89844 v 1.92383 q -1.12304,-0.53711 -2.11914,-0.80079 -0.99609,-0.26367 -1.92383,-0.26367 -1.61132,0 -2.49023,0.625 -0.86914,0.625 -0.86914,1.77735 0,0.96679 0.57617,1.46484 0.58594,0.48828 2.20703,0.79102 l 1.19141,0.24414 q 2.20703,0.41992 3.25195,1.48437 1.05469,1.05469 1.05469,2.83203 0,2.11914 -1.42578,3.21289 -1.41602,1.09375 -4.16016,1.09375 -1.03516,0 -2.20703,-0.23437 -1.16211,-0.23438 -2.41211,-0.69336 v -2.03125 q 1.20117,0.67383 2.35352,1.01562 1.15234,0.3418 2.26562,0.3418 1.68945,0 2.60742,-0.66406 0.91797,-0.66406 0.91797,-1.89453 0,-1.07422 -0.66406,-1.67969 -0.6543,-0.60547 -2.1582,-0.9082 l -1.20118,-0.23438 q -2.20703,-0.43945 -3.19336,-1.37695 -0.98632,-0.9375 -0.98632,-2.60742 0,-1.9336 1.35742,-3.04688 1.36719,-1.11328 3.75976,-1.11328 1.02539,0 2.08985,0.18555 1.06445,0.18554 2.17773,0.55664 z" />
    <path
       id="path121"
       style=""
       d="m 130.55078,281.41992 h 1.98242 v 8.85742 q 0,2.34375 0.84961,3.37891 0.84961,1.02539 2.75391,1.02539 1.89453,0 2.74414,-1.02539 0.84961,-1.03516 0.84961,-3.37891 v -8.85742 h 1.98242 v 9.10156 q 0,2.85157 -1.41601,4.30665 -1.40625,1.45507 -4.16016,1.45507 -2.76367,0 -4.17969,-1.45507 -1.40625,-1.45508 -1.40625,-4.30665 z" />
    <path
       id="path123"
       style=""
       d="m 147.39648,289.03711 v 5.3418 h 3.16407 q 1.59179,0 2.35351,-0.6543 0.77149,-0.66406 0.77149,-2.02148 0,-1.36719 -0.77149,-2.01172 -0.76172,-0.6543 -2.35351,-0.6543 z m 0,-5.99609 v 4.39453 h 2.91993 q 1.44531,0 2.14843,-0.53711 0.71289,-0.54688 0.71289,-1.66016 0,-1.10351 -0.71289,-1.65039 -0.70312,-0.54687 -2.14843,-0.54687 z m -1.97265,-1.6211 h 5.03906 q 2.25586,0 3.47656,0.9375 1.22071,0.9375 1.22071,2.66602 0,1.33789 -0.625,2.1289 -0.625,0.79102 -1.83594,0.98633 1.45508,0.3125 2.25586,1.3086 0.81055,0.98632 0.81055,2.4707 0,1.95312 -1.32813,3.01758 Q 153.10938,296 150.6582,296 h -5.23437 z" />
    <path
       id="path125"
       style=""
       d="m 159.13477,281.41992 h 2.93945 l 3.7207,9.92188 3.74024,-9.92188 h 2.93945 V 296 h -1.92383 v -12.80273 l -3.75976,10 h -1.98243 l -3.75976,-10 V 296 h -1.91406 z" />
    <path
       id="path127"
       style=""
       d="m 176.40039,281.41992 h 9.21875 v 1.66016 h -7.24609 v 4.3164 h 6.94336 v 1.66016 h -6.94336 v 5.2832 h 7.42187 V 296 h -9.39453 z" />
    <path
       id="path129"
       style=""
       d="m 187.03516,281.41992 h 12.33398 v 1.66016 h -5.17578 V 296 h -1.98242 v -12.91992 h -5.17578 z" />
    <path
       id="path131"
       style=""
       d="m 201.2832,281.41992 h 9.21875 v 1.66016 h -7.24609 v 4.3164 h 6.94336 v 1.66016 h -6.94336 v 5.2832 h 7.42187 V 296 h -9.39453 z" />
    <path
       id="path133"
       style=""
       d="m 220.85352,289.16406 q 0.63476,0.21485 1.23046,0.91797 0.60547,0.70313 1.21094,1.9336 L 225.29688,296 h -2.11915 l -1.86523,-3.74023 q -0.72266,-1.46485 -1.40625,-1.94336 -0.67383,-0.47852 -1.8457,-0.47852 h -2.14844 V 296 h -1.97266 v -14.58008 h 4.45313 q 2.5,0 3.73047,1.04492 1.23047,1.04493 1.23047,3.1543 0,1.37695 -0.64454,2.28516 -0.63476,0.9082 -1.85546,1.25976 z m -4.94141,-6.12304 v 5.17578 h 2.48047 q 1.42578,0 2.14844,-0.6543 0.73242,-0.66406 0.73242,-1.94336 0,-1.2793 -0.73242,-1.92383 -0.72266,-0.65429 -2.14844,-0.65429 z" />
  </g>
  <g
     id="text93"
     style="font-size:42px;font-family:'DejaVu Sans', sans-serif;text-anchor:middle;fill:#000000"
     aria-label="A">
    <path
       id="path136"
       style=""
       d="m 60,143.46289 -5.619141,15.23731 h 11.258789 z m -2.337891,-4.08105 h 4.696289 L 74.027344,170 h -4.306641 l -2.789062,-7.85449 H 53.129883 L 50.34082,170 h -4.368164 z" />
  </g>
  <g
     id="text97"
     style="font-size:42px;font-family:'DejaVu Sans', sans-serif;text-anchor:middle;fill:#000000"
     aria-label="A">
    <path
       id="path139"
       style=""
       d="m 110,143.46289 -5.61914,15.23731 h 11.25879 z m -2.33789,-4.08105 h 4.69629 L 124.02734,170 h -4.30664 l -2.78906,-7.85449 H 103.12988 L 100.34082,170 h -4.368164 z" />
  </g>
  <g
     id="text101"
     style="font-size:42px;font-family:'DejaVu Sans', sans-serif;text-anchor:middle;fill:#000000"
     aria-label="A">
    <path
       id="path142"
       style=""
       d="m 160,143.46289 -5.61914,15.23731 h 11.25879 z m -2.33789,-4.08105 h 4.69629 L 174.02734,170 h -4.30664 l -2.78906,-7.85449 H 153.12988 L 150.34082,170 h -4.36816 z" />
  </g>
  <g
     id="text105"
     style="font-size:42px;font-family:'DejaVu Sans', sans-serif;text-anchor:middle;fill:#000000"
     aria-label="A">
    <path
       id="path145"
       style=""
       d="m 210,143.46289 -5.61914,15.23731 h 11.25879 z m -2.33789,-4.08105 h 4.69629 L 224.02734,170 h -4.30664 l -2.78906,-7.85449 H 203.12988 L 200.34082,170 h -4.36816 z" />
  </g>
  <g
     id="text109"
     style="font-size:42px;font-family:'DejaVu Sans', sans-serif;text-anchor:middle;fill:#000000"
     aria-label="A">
    <path
       id="path148"
       style=""
       d="m 260,143.46289 -5.61914,15.23731 h 11.25879 z m -2.33789,-4.08105 h 4.69629 L 274.02734,170 h -4.30664 l -2.78906,-7.85449 H 253.12988 L 250.34082,170 h -4.36816 z" />
  </g>
</svg>
