<?xml version="1.0" encoding="UTF-8" standalone="no"?>
<svg
   xmlns:dc="http://purl.org/dc/elements/1.1/"
   xmlns:cc="http://creativecommons.org/ns#"
   xmlns:rdf="http://www.w3.org/1999/02/22-rdf-syntax-ns#"
   xmlns:svg="http://www.w3.org/2000/svg"
   xmlns="http://www.w3.org/2000/svg"
   id="svg25"
   stroke-miterlimit="10"
   stroke-linecap="square"
   stroke="none"
   fill="none"
   viewBox="0.0 0.0 288.0 115.0"
   version="1.1">
  <metadata
     id="metadata31">
    <rdf:RDF>
      <cc:Work
         rdf:about="">
        <dc:format>image/svg+xml</dc:format>
        <dc:type
           rdf:resource="http://purl.org/dc/dcmitype/StillImage" />
      </cc:Work>
    </rdf:RDF>
  </metadata>
  <defs
     id="defs29" />
  <clipPath
     id="p.0">
    <path
       id="path2"
       clip-rule="nonzero"
       d="m0 0l288.0 0l0 115.0l-288.0 0l0 -115.0z" />
  </clipPath>
  <g
     id="g19"
     clip-path="url(#p.0)">
    <path
       style="fill:#000000;fill-opacity:0;fill-rule:nonzero"
       id="path5"
       d="M 0,0 H 288 V 115 H 0 Z" />
    <path
       style="fill:#ffffff;fill-rule:nonzero"
       id="path7"
       d="M 12,8.503937 H 276 V 107.49607 H 12 Z" />
    <path
       style="fill-rule:nonzero;stroke:#000000;stroke-width:2;stroke-linecap:butt;stroke-linejoin:round"
       id="path9"
       d="M 12,8.503937 H 276 V 107.49607 H 12 Z" />
    <path
       style="fill:#000000;fill-rule:nonzero"
       id="path11"
       d="M 114,32 H 259.00787 V 85.984253 H 114 Z" />
    <path
       style="fill-rule:nonzero;stroke:#000000;stroke-width:2;stroke-linecap:butt;stroke-linejoin:round"
       id="path13"
       d="M 114,32 H 259.00787 V 85.984253 H 114 Z" />
    <path
       style="fill:#ffffff;fill-rule:nonzero"
       id="path15"
       d="m 36,58 v 0 C 36,43.092659 48.084785,31.007874 62.992126,31.007874 v 0 c 7.15876,0 14.024307,2.843807 19.086311,7.905811 C 87.140449,43.975689 89.984252,50.841244 89.984252,58 v 0 c 0,14.907341 -12.084785,26.992126 -26.992126,26.992126 v 0 C 48.084785,84.992126 36,72.907341 36,58 Z" />
    <path
       style="fill-rule:nonzero;stroke:#000000;stroke-width:2;stroke-linecap:butt;stroke-linejoin:round"
       id="path17"
       d="m 36,58 v 0 C 36,43.092659 48.084785,31.007874 62.992126,31.007874 v 0 c 7.15876,0 14.024307,2.843807 19.086311,7.905811 C 87.140449,43.975689 89.984252,50.841244 89.984252,58 v 0 c 0,14.907341 -12.084785,26.992126 -26.992126,26.992126 v 0 C 48.084785,84.992126 36,72.907341 36,58 Z" />
  </g>
  <g
     id="text23"
     style="font-size:32px;font-family:'DejaVu Sans', sans-serif;text-anchor:middle;fill:#ffffff"
     aria-label="[TEKST]">
    <path
       id="path33"
       style=""
       d="m 126.90625,45.6875 h 6.625 v 2.234375 h -3.75 v 24.0625 h 3.75 v 2.234375 h -6.625 z" />
    <path
       id="path35"
       style=""
       d="m 136.5625,46.671875 h 19.73438 v 2.65625 h -8.28125 V 70 h -3.17188 V 49.328125 h -8.28125 z" />
    <path
       id="path37"
       style=""
       d="m 159.35938,46.671875 h 14.75 v 2.65625 h -11.59375 v 6.90625 H 173.625 v 2.65625 h -11.10937 v 8.453125 h 11.875 V 70 h -15.03125 z" />
    <path
       id="path39"
       style=""
       d="m 179.60938,46.671875 h 3.15625 v 9.859375 l 10.46875,-9.859375 h 4.0625 l -11.57813,10.875 L 198.125,70 h -4.15625 L 182.76563,58.765625 V 70 h -3.15625 z" />
    <path
       id="path41"
       style=""
       d="m 214.59375,47.4375 v 3.078125 q -1.79687,-0.859375 -3.39062,-1.28125 -1.59375,-0.421875 -3.07813,-0.421875 -2.57812,0 -3.98437,1 -1.39063,1 -1.39063,2.84375 0,1.546875 0.92188,2.34375 0.9375,0.78125 3.53125,1.265625 l 1.90625,0.390625 q 3.53125,0.671875 5.20312,2.375 1.6875,1.6875 1.6875,4.53125 0,3.390625 -2.28125,5.140625 -2.26562,1.75 -6.65625,1.75 -1.65625,0 -3.53125,-0.375 -1.85937,-0.375 -3.85937,-1.109375 v -3.25 q 1.92187,1.078125 3.76562,1.625 1.84375,0.546875 3.625,0.546875 2.70313,0 4.17188,-1.0625 1.46875,-1.0625 1.46875,-3.03125 0,-1.71875 -1.0625,-2.6875 -1.04688,-0.96875 -3.45313,-1.453125 l -1.92187,-0.375 q -3.53125,-0.703125 -5.10938,-2.203125 -1.57812,-1.5 -1.57812,-4.171875 0,-3.09375 2.17187,-4.875 2.1875,-1.78125 6.01563,-1.78125 1.64062,0 3.34375,0.296875 1.70312,0.296875 3.48437,0.890625 z" />
    <path
       id="path43"
       style=""
       d="m 217.6875,46.671875 h 19.73438 v 2.65625 h -8.28125 V 70 h -3.17188 V 49.328125 h -8.28125 z" />
    <path
       id="path45"
       style=""
       d="m 247.07813,45.6875 v 28.53125 h -6.625 v -2.234375 h 3.73437 v -24.0625 h -3.73437 V 45.6875 Z" />
  </g>
</svg>
