<?xml version="1.0" encoding="UTF-8" standalone="no"?>
<svg
   xmlns:dc="http://purl.org/dc/elements/1.1/"
   xmlns:cc="http://creativecommons.org/ns#"
   xmlns:rdf="http://www.w3.org/1999/02/22-rdf-syntax-ns#"
   xmlns:svg="http://www.w3.org/2000/svg"
   xmlns="http://www.w3.org/2000/svg"
   id="svg121"
   stroke-miterlimit="10"
   stroke-linecap="square"
   stroke="none"
   fill="none"
   viewBox="0.0 0.0 348.0 348.0"
   version="1.1">
  <metadata
     id="metadata127">
    <rdf:RDF>
      <cc:Work
         rdf:about="">
        <dc:format>image/svg+xml</dc:format>
        <dc:type
           rdf:resource="http://purl.org/dc/dcmitype/StillImage" />
      </cc:Work>
    </rdf:RDF>
  </metadata>
  <defs
     id="defs125" />
  <clipPath
     id="p.0">
    <path
       id="path2"
       clip-rule="nonzero"
       d="m0 0l348.0 0l0 348.0l-348.0 0l0 -348.0z" />
  </clipPath>
  <g
     id="g111"
     clip-path="url(#p.0)">
    <path
       style="fill:#000000;fill-opacity:0;fill-rule:evenodd"
       id="path5"
       d="M 0,0 H 348 V 348 H 0 Z" />
    <path
       style="fill:#ffffff;fill-rule:evenodd"
       id="path7"
       d="M -6,0 H 342 V 347.9685 H -6 Z" />
    <path
       style="fill:#000000;fill-opacity:0;fill-rule:evenodd"
       id="path9"
       d="m 5.07874,5.7758217 h 336.9134 V 343.44512 H 5.07874 Z" />
    <path
       style="fill-rule:evenodd;stroke:#000000;stroke-width:2;stroke-linecap:butt;stroke-linejoin:round"
       id="path11"
       d="m 5.07874,5.7758217 h 336.9134 V 343.44512 H 5.07874 Z" />
    <path
       style="fill:#ffffff;fill-rule:evenodd"
       id="path13"
       d="m 282.73444,40.553925 v 0 c 0,-8.375591 6.96603,-15.165352 15.55905,-15.165352 v 0 c 4.12653,0 8.08402,1.597773 11.00192,4.441828 2.91788,2.844057 4.55713,6.701422 4.55713,10.723524 v 0 c 0,8.375595 -6.966,15.165356 -15.55905,15.165356 v 0 c -8.59302,0 -15.55905,-6.789761 -15.55905,-15.165356 z" />
    <path
       style="fill-rule:evenodd;stroke:#000000;stroke-width:2;stroke-linecap:butt;stroke-linejoin:round"
       id="path15"
       d="m 282.73444,40.553925 v 0 c 0,-8.375591 6.96603,-15.165352 15.55905,-15.165352 v 0 c 4.12653,0 8.08402,1.597773 11.00192,4.441828 2.91788,2.844057 4.55713,6.701422 4.55713,10.723524 v 0 c 0,8.375595 -6.966,15.165356 -15.55905,15.165356 v 0 c -8.59302,0 -15.55905,-6.789761 -15.55905,-15.165356 z" />
    <path
       style="fill:#ffffff;fill-rule:evenodd"
       id="path17"
       d="m 117.83202,290.61154 h 87.90551 v 34.80316 h -87.90551 z" />
    <path
       style="fill-rule:evenodd;stroke:#000000;stroke-width:2;stroke-linecap:butt;stroke-linejoin:round"
       id="path19"
       d="m 117.83202,290.61154 h 87.90551 v 34.80316 h -87.90551 z" />
    <path
       style="fill:#ffffff;fill-rule:evenodd"
       id="path21"
       d="M 16.482939,118.44095 H 319.3176 v 157.5433 H 16.482939 Z" />
    <path
       style="fill-rule:evenodd;stroke:#000000;stroke-width:2;stroke-linecap:butt;stroke-linejoin:round"
       id="path23"
       d="M 16.482939,118.44095 H 319.3176 v 157.5433 H 16.482939 Z" />
    <path
       style="fill:#000000;fill-rule:evenodd"
       id="path25"
       d="m 58.66142,187.43045 h 218.67717 v 72.03149 H 58.66142 Z" />
    <path
       style="fill:#000000;fill-rule:evenodd"
       id="path27"
       d="M 48.307087,196.76903 25.440945,223.4462 48.307087,250.12337 Z" />
    <path
       style="fill-rule:evenodd;stroke:#000000;stroke-width:2;stroke-linecap:butt;stroke-linejoin:round"
       id="path29"
       d="M 48.307087,196.76903 25.440945,223.4462 48.307087,250.12337 Z" />
    <path
       style="fill:#000000;fill-rule:evenodd"
       id="path31"
       d="m 287.6929,196.76903 22.86615,26.67717 -22.86615,26.67717 z" />
    <path
       style="fill-rule:evenodd;stroke:#000000;stroke-width:2;stroke-linecap:butt;stroke-linejoin:round"
       id="path33"
       d="m 287.6929,196.76903 22.86615,26.67717 -22.86615,26.67717 z" />
    <path
       style="fill:#000000;fill-opacity:0;fill-rule:evenodd"
       id="path35"
       d="m 161.49081,49.87664 113.82678,0.566929" />
    <path
       style="fill-rule:evenodd;stroke:#000000;stroke-width:2;stroke-linecap:butt;stroke-linejoin:round"
       id="path37"
       d="m 161.49081,49.87664 113.82678,0.566929" />
    <path
       style="fill:#000000;fill-opacity:0;fill-rule:evenodd"
       id="path39"
       d="M 29.713911,49.87664 5.115486,5.97113" />
    <path
       style="fill-rule:evenodd;stroke:#000000;stroke-width:2;stroke-linecap:butt;stroke-linejoin:round"
       id="path41"
       d="M 29.713911,49.87664 5.115486,5.97113" />
    <path
       style="fill:#000000;fill-rule:evenodd"
       id="path43"
       d="M 45.790028,23.199474 H 58.671917 V 76.55381 H 45.790028 Z" />
    <path
       style="fill-rule:evenodd;stroke:#000000;stroke-width:2;stroke-linecap:butt;stroke-linejoin:round"
       id="path45"
       d="M 45.790028,23.199474 H 58.671917 V 76.55381 H 45.790028 Z" />
    <path
       style="fill:#000000;fill-rule:evenodd"
       id="path47"
       d="m 132.35695,23.199474 h 12.8819 V 76.55381 h -12.8819 z" />
    <path
       style="fill-rule:evenodd;stroke:#000000;stroke-width:2;stroke-linecap:butt;stroke-linejoin:round"
       id="path49"
       d="m 132.35695,23.199474 h 12.8819 V 76.55381 h -12.8819 z" />
    <path
       style="fill:#ffffff;fill-rule:evenodd"
       id="path51"
       d="m 43.34646,139.81102 h 252.75589 v 30.33072 H 43.34646 Z" />
    <path
       style="fill-rule:evenodd;stroke:#000000;stroke-width:2;stroke-linecap:butt;stroke-linejoin:round"
       id="path53"
       d="m 43.34646,139.81102 h 252.75589 v 30.33072 H 43.34646 Z" />
    <path
       style="fill:#000000;fill-opacity:0;fill-rule:evenodd"
       id="path55"
       d="m 59.220474,170.94751 v -9.76378" />
    <path
       style="fill-rule:evenodd;stroke:#000000;stroke-width:2;stroke-linecap:butt;stroke-linejoin:round"
       id="path57"
       d="m 59.220474,170.94751 v -9.76378" />
    <path
       style="fill:#000000;fill-opacity:0;fill-rule:evenodd"
       id="path59"
       d="m 84.05541,139.81102 v 12.81891" />
    <path
       style="fill-rule:evenodd;stroke:#000000;stroke-width:2;stroke-linecap:butt;stroke-linejoin:round"
       id="path61"
       d="m 84.05541,139.81102 v 12.81891" />
    <path
       style="fill:#000000;fill-opacity:0;fill-rule:evenodd"
       id="path63"
       d="m 133.72528,139.40814 v 12.81889" />
    <path
       style="fill-rule:evenodd;stroke:#000000;stroke-width:2;stroke-linecap:butt;stroke-linejoin:round"
       id="path65"
       d="m 133.72528,139.40814 v 12.81889" />
    <path
       style="fill:#000000;fill-opacity:0;fill-rule:evenodd"
       id="path67"
       d="m 108.89035,170.54462 v -9.76378" />
    <path
       style="fill-rule:evenodd;stroke:#000000;stroke-width:2;stroke-linecap:butt;stroke-linejoin:round"
       id="path69"
       d="m 108.89035,170.54462 v -9.76378" />
    <path
       style="fill:#000000;fill-opacity:0;fill-rule:evenodd"
       id="path71"
       d="m 233.06505,139.40683 v 12.81889" />
    <path
       style="fill-rule:evenodd;stroke:#000000;stroke-width:2;stroke-linecap:butt;stroke-linejoin:round"
       id="path73"
       d="m 233.06505,139.40683 v 12.81889" />
    <path
       style="fill:#000000;fill-opacity:0;fill-rule:evenodd"
       id="path75"
       d="m 208.23009,170.5433 v -9.76378" />
    <path
       style="fill-rule:evenodd;stroke:#000000;stroke-width:2;stroke-linecap:butt;stroke-linejoin:round"
       id="path77"
       d="m 208.23009,170.5433 v -9.76378" />
    <path
       style="fill:#000000;fill-opacity:0;fill-rule:evenodd"
       id="path79"
       d="m 282.7349,139.40683 v 12.81889" />
    <path
       style="fill-rule:evenodd;stroke:#000000;stroke-width:2;stroke-linecap:butt;stroke-linejoin:round"
       id="path81"
       d="m 282.7349,139.40683 v 12.81889" />
    <path
       style="fill:#000000;fill-opacity:0;fill-rule:evenodd"
       id="path83"
       d="m 257.89996,170.5433 v -9.76378" />
    <path
       style="fill-rule:evenodd;stroke:#000000;stroke-width:2;stroke-linecap:butt;stroke-linejoin:round"
       id="path85"
       d="m 257.89996,170.5433 v -9.76378" />
    <path
       style="fill:#000000;fill-opacity:0;fill-rule:evenodd"
       id="path87"
       d="m 158.56023,170.54462 v -9.76378" />
    <path
       style="fill-rule:evenodd;stroke:#000000;stroke-width:2;stroke-linecap:butt;stroke-linejoin:round"
       id="path89"
       d="m 158.56023,170.54462 v -9.76378" />
    <path
       style="fill:#000000;fill-opacity:0;fill-rule:evenodd"
       id="path91"
       d="m 183.39516,139.40814 v 12.81889" />
    <path
       style="fill-rule:evenodd;stroke:#000000;stroke-width:2;stroke-linecap:butt;stroke-linejoin:round"
       id="path93"
       d="m 183.39516,139.40814 v 12.81889" />
    <path
       style="fill:#000000;fill-rule:evenodd"
       id="path95"
       d="m 64.10499,136.14699 h 8.535431 v 40.28346 H 64.10499 Z" />
    <path
       style="fill-rule:evenodd;stroke:#000000;stroke-width:2;stroke-linecap:butt;stroke-linejoin:round"
       id="path97"
       d="m 64.10499,136.14699 h 8.535431 v 40.28346 H 64.10499 Z" />
    <path
       style="fill:#000000;fill-opacity:0;fill-rule:evenodd"
       id="path99"
       d="m 56.43307,30.55643 h 75.937 v 40.283466 h -75.937 z" />
    <path
       style="fill-rule:evenodd;stroke:#000000;stroke-width:2;stroke-linecap:butt;stroke-linejoin:round"
       id="path101"
       d="m 56.43307,30.55643 h 75.937 v 40.283466 h -75.937 z" />
    <path
       style="fill:#000000;fill-rule:evenodd"
       id="path103"
       d="m 145.23885,34.711285 h 8.12598 v 0 c 4.48787,0 8.12599,6.789761 8.12599,15.165356 0,8.375595 -3.63812,15.165352 -8.12599,15.165352 h -8.12598 z" />
    <path
       style="fill-rule:evenodd;stroke:#000000;stroke-width:2;stroke-linecap:butt;stroke-linejoin:round"
       id="path105"
       d="m 145.23885,34.711285 h 8.12598 v 0 c 4.48787,0 8.12599,6.789761 8.12599,15.165356 0,8.375595 -3.63812,15.165352 -8.12599,15.165352 h -8.12598 z" />
    <path
       style="fill:#000000;fill-rule:evenodd"
       id="path107"
       d="m 45,65.04199 h -8.125984 v 0 c -4.487858,0 -8.125984,-6.789757 -8.125984,-15.165352 0,-8.375595 3.638126,-15.165356 8.125984,-15.165356 H 45 Z" />
    <path
       style="fill-rule:evenodd;stroke:#000000;stroke-width:2;stroke-linecap:butt;stroke-linejoin:round"
       id="path109"
       d="m 45,65.04199 h -8.125984 v 0 c -4.487858,0 -8.125984,-6.789757 -8.125984,-15.165352 0,-8.375595 3.638126,-15.165356 8.125984,-15.165356 H 45 Z" />
  </g>
  <g
     id="text115"
     style="font-size:36px;font-family:sans-serif;text-anchor:middle;fill:#ffffff"
     aria-label="[MISSING: Manual/morse.frequency]">
    <path
       id="path129"
       style="fill:#ff0000"
       d="m -156.26172,209.64844 h 7.45313 v 2.51367 h -4.21875 v 27.07031 h 4.21875 v 2.51367 h -7.45313 z" />
    <path
       id="path131"
       style="fill:#ff0000"
       d="m -141.75977,210.75586 h 5.29102 l 6.69727,17.85937 6.73242,-17.85937 h 5.29101 V 237 h -3.46289 v -23.04492 l -6.76758,18 h -3.56836 l -6.76757,-18 V 237 h -3.44532 z" />
    <path
       id="path133"
       style="fill:#ff0000"
       d="m -110.68164,210.75586 h 3.55078 V 237 h -3.55078 z" />
    <path
       id="path135"
       style="fill:#ff0000"
       d="m -84.332031,211.61719 v 3.46289 q -2.021485,-0.9668 -3.814453,-1.44141 -1.792969,-0.47461 -3.462891,-0.47461 -2.900391,0 -4.482422,1.125 -1.564453,1.125 -1.564453,3.19922 0,1.74024 1.037109,2.63672 1.054688,0.87891 3.972657,1.42383 l 2.144531,0.43945 q 3.972656,0.75586 5.853515,2.67188 1.898438,1.89843 1.898438,5.09765 0,3.81446 -2.566406,5.78321 -2.548828,1.96875 -7.488282,1.96875 -1.863281,0 -3.972656,-0.42188 -2.091797,-0.42187 -4.341796,-1.24805 v -3.65625 q 2.162109,1.21289 4.236327,1.82813 2.074219,0.61523 4.078125,0.61523 3.041016,0 4.69336,-1.19531 1.652344,-1.19531 1.652344,-3.41016 0,-1.93359 -1.195313,-3.02343 -1.177734,-1.08985 -3.884766,-1.63477 l -2.162109,-0.42187 q -3.972656,-0.79102 -5.748047,-2.47852 -1.775391,-1.6875 -1.775391,-4.69336 0,-3.48047 2.44336,-5.48437 2.460937,-2.00391 6.767578,-2.00391 1.845703,0 3.761719,0.33398 1.916015,0.33399 3.919922,1.00196 z" />
    <path
       id="path137"
       style="fill:#ff0000"
       d="m -61.480469,211.61719 v 3.46289 q -2.021484,-0.9668 -3.814453,-1.44141 -1.792969,-0.47461 -3.462891,-0.47461 -2.90039,0 -4.482421,1.125 -1.564454,1.125 -1.564454,3.19922 0,1.74024 1.03711,2.63672 1.054687,0.87891 3.972656,1.42383 l 2.144531,0.43945 q 3.972657,0.75586 5.853516,2.67188 1.898437,1.89843 1.898437,5.09765 0,3.81446 -2.566406,5.78321 -2.548828,1.96875 -7.488281,1.96875 -1.863281,0 -3.972656,-0.42188 -2.091797,-0.42187 -4.341797,-1.24805 v -3.65625 q 2.162109,1.21289 4.236328,1.82813 2.074219,0.61523 4.078125,0.61523 3.041016,0 4.693359,-1.19531 1.652344,-1.19531 1.652344,-3.41016 0,-1.93359 -1.195312,-3.02343 -1.177735,-1.08985 -3.884766,-1.63477 l -2.162109,-0.42187 q -3.972657,-0.79102 -5.748047,-2.47852 -1.775391,-1.6875 -1.775391,-4.69336 0,-3.48047 2.443359,-5.48437 2.460938,-2.00391 6.767579,-2.00391 1.845703,0 3.761718,0.33398 1.916016,0.33399 3.919922,1.00196 z" />
    <path
       id="path139"
       style="fill:#ff0000"
       d="m -54.361328,210.75586 h 3.550781 V 237 h -3.550781 z" />
    <path
       id="path141"
       style="fill:#ff0000"
       d="m -43.744141,210.75586 h 4.78125 l 11.636719,21.95508 v -21.95508 h 3.445313 V 237 h -4.78125 L -40.298828,215.04492 V 237 h -3.445313 z" />
    <path
       id="path143"
       style="fill:#ff0000"
       d="m 1.0800781,233.25586 v -7.04883 h -5.8007812 v -2.91797 h 9.3164062 v 11.26758 q -2.0566406,1.45899 -4.53515622,2.21484 -2.47851558,0.73829 -5.29101568,0.73829 -6.1523432,0 -9.6328122,-3.58594 -3.462891,-3.60352 -3.462891,-10.01953 0,-6.4336 3.462891,-10.01953 3.480469,-3.60352 9.6328122,-3.60352 2.5664063,0 4.86914068,0.63281 2.32031252,0.63282 4.27148432,1.86328 v 3.7793 q -1.9687499,-1.66992 -4.1835937,-2.51367 -2.2148437,-0.84375 -4.6582031,-0.84375 -4.8164063,0 -7.2421874,2.68945 -2.408203,2.68946 -2.408203,8.01563 0,5.30859 2.408203,7.99804 2.4257811,2.68946 7.2421874,2.68946 1.8808594,0 3.3574218,-0.31641 1.47656255,-0.33398 2.6542969,-1.01953 z" />
    <path
       id="path145"
       style="fill:#ff0000"
       d="m 11.785156,232.53516 h 3.708985 V 237 h -3.708985 z m 0,-14.15039 h 3.708985 v 4.46484 h -3.708985 z" />
    <path
       id="path147"
       style="fill:#ff0000"
       d="m 34.724609,210.75586 h 5.291016 l 6.697266,17.85937 6.732422,-17.85937 h 5.291015 V 237 h -3.46289 v -23.04492 l -6.767579,18 H 44.9375 l -6.767578,-18 V 237 h -3.445313 z" />
    <path
       id="path149"
       style="fill:#ff0000"
       d="m 74.609375,227.10352 q -3.919922,0 -5.431641,0.89648 -1.511718,0.89648 -1.511718,3.05859 0,1.72266 1.125,2.74219 1.142578,1.00195 3.09375,1.00195 2.689453,0 4.30664,-1.89843 1.634766,-1.91602 1.634766,-5.08008 v -0.7207 z m 6.451172,-1.33594 V 237 h -3.234375 v -2.98828 q -1.107422,1.79297 -2.759766,2.6543 -1.652343,0.84375 -4.042968,0.84375 -3.023438,0 -4.816407,-1.6875 -1.77539,-1.70508 -1.77539,-4.55274 0,-3.32226 2.214843,-5.00976 2.232422,-1.6875 6.644532,-1.6875 h 4.535156 v -0.31641 q 0,-2.23242 -1.476563,-3.44531 -1.458984,-1.23047 -4.113281,-1.23047 -1.6875,0 -3.287109,0.4043 -1.59961,0.40429 -3.076172,1.21289 v -2.98829 q 1.775391,-0.68554 3.445312,-1.01953 1.669922,-0.35156 3.251954,-0.35156 4.271484,0 6.380859,2.21484 2.109375,2.21485 2.109375,6.71485 z" />
    <path
       id="path151"
       style="fill:#ff0000"
       d="M 104.10547,225.11719 V 237 h -3.23438 v -11.77734 q 0,-2.79493 -1.08984,-4.1836 -1.089844,-1.38867 -3.269531,-1.38867 -2.619141,0 -4.13086,1.66992 -1.511718,1.66992 -1.511718,4.55274 V 237 h -3.251953 v -19.6875 h 3.251953 v 3.05859 q 1.160156,-1.77539 2.724609,-2.65429 1.582031,-0.87891 3.638672,-0.87891 3.392578,0 5.132808,2.10938 1.74024,2.09179 1.74024,6.16992 z" />
    <path
       id="path153"
       style="fill:#ff0000"
       d="M 110.25781,229.23047 V 217.3125 h 3.23438 v 11.79492 q 0,2.79492 1.08984,4.20117 1.08984,1.38868 3.26953,1.38868 2.61914,0 4.13086,-1.66993 1.5293,-1.66992 1.5293,-4.55273 V 217.3125 h 3.23437 V 237 h -3.23437 v -3.02344 q -1.17774,1.79297 -2.74219,2.67188 -1.54687,0.86133 -3.60351,0.86133 -3.39258,0 -5.1504,-2.10938 -1.75781,-2.10937 -1.75781,-6.16992 z m 8.13867,-12.39258 z" />
    <path
       id="path155"
       style="fill:#ff0000"
       d="m 142.39063,227.10352 q -3.91993,0 -5.43165,0.89648 -1.51171,0.89648 -1.51171,3.05859 0,1.72266 1.125,2.74219 1.14257,1.00195 3.09375,1.00195 2.68945,0 4.30664,-1.89843 1.63476,-1.91602 1.63476,-5.08008 v -0.7207 z m 6.45117,-1.33594 V 237 h -3.23438 v -2.98828 q -1.10742,1.79297 -2.75976,2.6543 -1.65235,0.84375 -4.04297,0.84375 -3.02344,0 -4.81641,-1.6875 -1.77539,-1.70508 -1.77539,-4.55274 0,-3.32226 2.21484,-5.00976 2.23243,-1.6875 6.64454,-1.6875 h 4.53515 v -0.31641 q 0,-2.23242 -1.47656,-3.44531 -1.45898,-1.23047 -4.11328,-1.23047 -1.6875,0 -3.28711,0.4043 -1.59961,0.40429 -3.07617,1.21289 v -2.98829 q 1.77539,-0.68554 3.44531,-1.01953 1.66992,-0.35156 3.25195,-0.35156 4.27149,0 6.38086,2.21484 2.10938,2.21485 2.10938,6.71485 z" />
    <path
       id="path157"
       style="fill:#ff0000"
       d="m 155.52148,209.64844 h 3.23438 V 237 h -3.23438 z" />
    <path
       id="path159"
       style="fill:#ff0000"
       d="m 171.25391,210.75586 h 2.98828 l -9.14063,29.58398 h -2.98828 z" />
    <path
       id="path161"
       style="fill:#ff0000"
       d="m 192.99805,221.0918 q 1.21289,-2.17969 2.90039,-3.2168 1.6875,-1.03711 3.97265,-1.03711 3.07618,0 4.7461,2.16211 1.66992,2.14453 1.66992,6.11719 V 237 h -3.25195 v -11.77734 q 0,-2.83008 -1.00196,-4.20118 -1.00195,-1.37109 -3.05859,-1.37109 -2.51367,0 -3.97266,1.66992 -1.45898,1.66992 -1.45898,4.55274 V 237 h -3.25195 v -11.77734 q 0,-2.84766 -1.00196,-4.20118 -1.00195,-1.37109 -3.09375,-1.37109 -2.47851,0 -3.9375,1.6875 -1.45898,1.66992 -1.45898,4.53516 V 237 h -3.25195 v -19.6875 h 3.25195 v 3.05859 q 1.10742,-1.81054 2.6543,-2.67187 1.54687,-0.86133 3.67382,-0.86133 2.14453,0 3.63868,1.08984 1.51171,1.08985 2.23242,3.16407 z" />
    <path
       id="path163"
       style="fill:#ff0000"
       d="m 220.38477,219.58008 q -2.60157,0 -4.11329,2.03906 -1.51171,2.02149 -1.51171,5.55469 0,3.5332 1.49414,5.57226 1.51172,2.02149 4.13086,2.02149 2.58398,0 4.0957,-2.03906 1.51172,-2.03907 1.51172,-5.55469 0,-3.49805 -1.51172,-5.53711 -1.51172,-2.05664 -4.0957,-2.05664 z m 0,-2.74219 q 4.21875,0 6.62695,2.74219 2.4082,2.74219 2.4082,7.59375 0,4.83398 -2.4082,7.59375 -2.4082,2.74219 -6.62695,2.74219 -4.23633,0 -6.64454,-2.74219 -2.39062,-2.75977 -2.39062,-7.59375 0,-4.85156 2.39062,-7.59375 2.40821,-2.74219 6.64454,-2.74219 z" />
    <path
       id="path165"
       style="fill:#ff0000"
       d="m 246.17188,220.33594 q -0.54493,-0.31641 -1.19532,-0.45703 -0.63281,-0.15821 -1.40625,-0.15821 -2.74218,0 -4.21875,1.79297 -1.45898,1.77539 -1.45898,5.11524 V 237 h -3.25195 v -19.6875 h 3.25195 v 3.05859 q 1.01953,-1.79296 2.6543,-2.65429 1.63476,-0.87891 3.97265,-0.87891 0.33399,0 0.73828,0.0527 0.4043,0.0352 0.89649,0.12304 z" />
    <path
       id="path167"
       style="fill:#ff0000"
       d="m 262.15039,217.89258 v 3.05859 q -1.37109,-0.70312 -2.84766,-1.05469 -1.47656,-0.35156 -3.05859,-0.35156 -2.4082,0 -3.62109,0.73828 -1.19532,0.73828 -1.19532,2.21485 0,1.125 0.86133,1.77539 0.86133,0.63281 3.46289,1.21289 l 1.10743,0.24609 q 3.44531,0.73828 4.88671,2.0918 1.45899,1.33594 1.45899,3.74414 0,2.74219 -2.17969,4.3418 -2.16211,1.59961 -5.95898,1.59961 -1.58203,0 -3.30469,-0.31641 -1.70508,-0.29883 -3.60352,-0.91406 v -3.33985 q 1.79297,0.93164 3.53321,1.40625 1.74023,0.45703 3.44531,0.45703 2.28516,0 3.51562,-0.77343 1.23047,-0.79102 1.23047,-2.21485 0,-1.31836 -0.89648,-2.02148 -0.87891,-0.70313 -3.88477,-1.35352 l -1.125,-0.26367 q -3.00586,-0.63281 -4.34179,-1.93359 -1.33594,-1.31836 -1.33594,-3.60352 0,-2.77734 1.96875,-4.28906 1.96875,-1.51172 5.58984,-1.51172 1.79297,0 3.375,0.26367 1.58203,0.26367 2.91797,0.79102 z" />
    <path
       id="path169"
       style="fill:#ff0000"
       d="m 285.21289,226.34766 v 1.58203 H 270.3418 q 0.21093,3.33984 2.0039,5.09765 1.81055,1.74024 5.02735,1.74024 1.86328,0 3.60351,-0.45703 1.75782,-0.45703 3.48047,-1.3711 v 3.0586 q -1.74023,0.73828 -3.56836,1.125 -1.82812,0.38672 -3.70898,0.38672 -4.71094,0 -7.47071,-2.74219 -2.74218,-2.74219 -2.74218,-7.41797 0,-4.83398 2.60156,-7.66406 2.61914,-2.84766 7.04883,-2.84766 3.97265,0 6.27539,2.56641 2.32031,2.54883 2.32031,6.94336 z m -3.23437,-0.94922 q -0.0352,-2.6543 -1.49414,-4.23633 -1.44141,-1.58203 -3.83204,-1.58203 -2.70703,0 -4.34179,1.5293 -1.61719,1.52929 -1.86328,4.30664 z" />
    <path
       id="path171"
       style="fill:#ff0000"
       d="m 290.97852,232.53516 h 3.70898 V 237 h -3.70898 z" />
    <path
       id="path173"
       style="fill:#ff0000"
       d="m 311.94922,209.64844 v 2.68945 h -3.09375 q -1.74024,0 -2.42578,0.70313 -0.66797,0.70312 -0.66797,2.53125 v 1.74023 h 5.32617 v 2.51367 h -5.32617 V 237 h -3.25195 v -17.17383 h -3.09375 v -2.51367 h 3.09375 v -1.37109 q 0,-3.28711 1.52929,-4.78125 1.5293,-1.51172 4.85157,-1.51172 z" />
    <path
       id="path175"
       style="fill:#ff0000"
       d="m 326.04688,220.33594 q -0.54493,-0.31641 -1.19532,-0.45703 -0.63281,-0.15821 -1.40625,-0.15821 -2.74218,0 -4.21875,1.79297 -1.45898,1.77539 -1.45898,5.11524 V 237 h -3.25195 v -19.6875 h 3.25195 v 3.05859 q 1.01953,-1.79296 2.6543,-2.65429 1.63476,-0.87891 3.97265,-0.87891 0.33399,0 0.73828,0.0527 0.4043,0.0352 0.89649,0.12304 z" />
    <path
       id="path177"
       style="fill:#ff0000"
       d="m 345.54102,226.34766 v 1.58203 h -14.8711 q 0.21094,3.33984 2.00391,5.09765 1.81055,1.74024 5.02734,1.74024 1.86328,0 3.60352,-0.45703 1.75781,-0.45703 3.48047,-1.3711 v 3.0586 q -1.74024,0.73828 -3.56836,1.125 -1.82813,0.38672 -3.70899,0.38672 -4.71093,0 -7.4707,-2.74219 -2.74219,-2.74219 -2.74219,-7.41797 0,-4.83398 2.60156,-7.66406 2.61915,-2.84766 7.04883,-2.84766 3.97266,0 6.27539,2.56641 2.32032,2.54883 2.32032,6.94336 z m -3.23438,-0.94922 q -0.0352,-2.6543 -1.49414,-4.23633 -1.44141,-1.58203 -3.83203,-1.58203 -2.70703,0 -4.3418,1.5293 -1.61719,1.52929 -1.86328,4.30664 z" />
    <path
       id="path179"
       style="fill:#ff0000"
       d="m 352.7832,227.17383 q 0,3.56836 1.45899,5.60742 1.47656,2.02148 4.04297,2.02148 2.5664,0 4.04297,-2.02148 1.47656,-2.03906 1.47656,-5.60742 0,-3.56836 -1.47656,-5.58985 -1.47657,-2.03906 -4.04297,-2.03906 -2.56641,0 -4.04297,2.03906 -1.45899,2.02149 -1.45899,5.58985 z m 11.02149,6.87305 q -1.01953,1.75781 -2.58399,2.61914 -1.54687,0.84375 -3.72656,0.84375 -3.56836,0 -5.81836,-2.84766 -2.23242,-2.84766 -2.23242,-7.48828 0,-4.64063 2.23242,-7.48828 2.25,-2.84766 5.81836,-2.84766 2.17969,0 3.72656,0.86133 1.56446,0.84375 2.58399,2.60156 v -2.98828 h 3.23437 v 27.17578 h -3.23437 z" />
    <path
       id="path181"
       style="fill:#ff0000"
       d="M 373.36719,229.23047 V 217.3125 h 3.23437 v 11.79492 q 0,2.79492 1.08985,4.20117 1.08984,1.38868 3.26953,1.38868 2.61914,0 4.13086,-1.66993 1.52929,-1.66992 1.52929,-4.55273 V 217.3125 h 3.23438 V 237 h -3.23438 v -3.02344 q -1.17773,1.79297 -2.74218,2.67188 -1.54688,0.86133 -3.60352,0.86133 -3.39258,0 -5.15039,-2.10938 -1.75781,-2.10937 -1.75781,-6.16992 z m 8.13867,-12.39258 z" />
    <path
       id="path183"
       style="fill:#ff0000"
       d="m 413.39258,226.34766 v 1.58203 h -14.8711 q 0.21094,3.33984 2.00391,5.09765 1.81055,1.74024 5.02734,1.74024 1.86329,0 3.60352,-0.45703 1.75781,-0.45703 3.48047,-1.3711 v 3.0586 q -1.74024,0.73828 -3.56836,1.125 -1.82813,0.38672 -3.70898,0.38672 -4.71094,0 -7.47071,-2.74219 -2.74219,-2.74219 -2.74219,-7.41797 0,-4.83398 2.60157,-7.66406 2.61914,-2.84766 7.04883,-2.84766 3.97265,0 6.27539,2.56641 2.32031,2.54883 2.32031,6.94336 z m -3.23438,-0.94922 q -0.0352,-2.6543 -1.49414,-4.23633 -1.4414,-1.58203 -3.83203,-1.58203 -2.70703,0 -4.3418,1.5293 -1.61718,1.52929 -1.86328,4.30664 z" />
    <path
       id="path185"
       style="fill:#ff0000"
       d="M 435.06641,225.11719 V 237 h -3.23438 v -11.77734 q 0,-2.79493 -1.08984,-4.1836 -1.08985,-1.38867 -3.26953,-1.38867 -2.61914,0 -4.13086,1.66992 -1.51172,1.66992 -1.51172,4.55274 V 237 h -3.25195 v -19.6875 h 3.25195 v 3.05859 q 1.16015,-1.77539 2.72461,-2.65429 1.58203,-0.87891 3.63867,-0.87891 3.39258,0 5.13281,2.10938 1.74024,2.09179 1.74024,6.16992 z" />
    <path
       id="path187"
       style="fill:#ff0000"
       d="m 455.7207,218.06836 v 3.02344 q -1.37109,-0.75586 -2.75976,-1.125 -1.3711,-0.38672 -2.77735,-0.38672 -3.14648,0 -4.88671,2.0039 -1.74024,1.98633 -1.74024,5.58985 0,3.60351 1.74024,5.60742 1.74023,1.98633 4.88671,1.98633 1.40625,0 2.77735,-0.36914 1.38867,-0.38672 2.75976,-1.14258 v 2.98828 q -1.35351,0.63281 -2.8125,0.94922 -1.4414,0.31641 -3.07617,0.31641 -4.44726,0 -7.0664,-2.79493 -2.61915,-2.79492 -2.61915,-7.54101 0,-4.81641 2.63672,-7.57617 2.6543,-2.75977 7.25977,-2.75977 1.49414,0 2.91797,0.31641 1.42383,0.29883 2.75976,0.91406 z" />
    <path
       id="path189"
       style="fill:#ff0000"
       d="m 469.57227,238.82813 q -1.3711,3.51562 -2.67188,4.58789 -1.30078,1.07226 -3.48047,1.07226 h -2.58398 v -2.70703 h 1.89844 q 1.33593,0 2.07421,-0.63281 0.73829,-0.63281 1.63477,-2.98828 l 0.58008,-1.47657 -7.96289,-19.37109 h 3.42773 l 6.15235,15.39844 6.15234,-15.39844 h 3.42773 z" />
    <path
       id="path191"
       style="fill:#ff0000"
       d="m 490.24414,209.64844 v 32.09765 h -7.45312 v -2.51367 h 4.20117 v -27.07031 h -4.20117 v -2.51367 z" />
  </g>
  <g
     id="text119"
     style="font-size:3.07692313px;font-family:sans-serif;text-anchor:middle;fill:#000000"
     aria-label="[MISSING: MorseComponent/button_transmit]">
    <path
       id="path194"
       style="fill:#ff0000"
       d="m 127.07512,304.20071 h 0.63702 v 0.21485 h -0.36058 v 2.3137 h 0.36058 v 0.21484 h -0.63702 z" />
    <path
       id="path196"
       style="fill:#ff0000"
       d="m 128.3146,304.29536 h 0.45223 l 0.57241,1.52645 0.57542,-1.52645 h 0.45223 v 2.24309 h -0.29598 v -1.96965 l -0.57842,1.53846 h -0.30499 l -0.57843,-1.53846 v 1.96965 h -0.29447 z" />
    <path
       id="path198"
       style="fill:#ff0000"
       d="m 130.97085,304.29536 h 0.30349 v 2.24309 h -0.30349 z" />
    <path
       id="path200"
       style="fill:#ff0000"
       d="m 133.22296,304.36898 v 0.29597 q -0.17278,-0.0826 -0.32603,-0.12319 -0.15324,-0.0406 -0.29597,-0.0406 -0.2479,0 -0.38311,0.0962 -0.13372,0.0961 -0.13372,0.27343 0,0.14874 0.0887,0.22536 0.0901,0.0751 0.33954,0.1217 l 0.18329,0.0376 q 0.33955,0.0646 0.5003,0.22836 0.16226,0.16226 0.16226,0.4357 0,0.32602 -0.21935,0.49429 -0.21785,0.16827 -0.64002,0.16827 -0.15926,0 -0.33955,-0.0361 -0.17878,-0.036 -0.37109,-0.10667 v -0.3125 q 0.1848,0.10367 0.36208,0.15625 0.17728,0.0526 0.34856,0.0526 0.25991,0 0.40114,-0.10217 0.14123,-0.10216 0.14123,-0.29146 0,-0.16527 -0.10217,-0.25842 -0.10066,-0.0931 -0.33203,-0.13972 l -0.1848,-0.0361 q -0.33954,-0.0676 -0.49128,-0.21184 -0.15174,-0.14423 -0.15174,-0.40114 0,-0.29747 0.20883,-0.46875 0.21034,-0.17127 0.57843,-0.17127 0.15775,0 0.32151,0.0285 0.16376,0.0285 0.33504,0.0856 z" />
    <path
       id="path202"
       style="fill:#ff0000"
       d="m 135.17608,304.36898 v 0.29597 q -0.17278,-0.0826 -0.32602,-0.12319 -0.15325,-0.0406 -0.29597,-0.0406 -0.2479,0 -0.38312,0.0962 -0.13371,0.0961 -0.13371,0.27343 0,0.14874 0.0886,0.22536 0.0901,0.0751 0.33954,0.1217 l 0.1833,0.0376 q 0.33954,0.0646 0.5003,0.22836 0.16226,0.16226 0.16226,0.4357 0,0.32602 -0.21935,0.49429 -0.21785,0.16827 -0.64003,0.16827 -0.15925,0 -0.33954,-0.0361 -0.17879,-0.036 -0.37109,-0.10667 v -0.3125 q 0.18479,0.10367 0.36207,0.15625 0.17729,0.0526 0.34856,0.0526 0.25992,0 0.40114,-0.10217 0.14123,-0.10216 0.14123,-0.29146 0,-0.16527 -0.10216,-0.25842 -0.10066,-0.0931 -0.33203,-0.13972 l -0.1848,-0.0361 q -0.33954,-0.0676 -0.49129,-0.21184 -0.15174,-0.14423 -0.15174,-0.40114 0,-0.29747 0.20884,-0.46875 0.21033,-0.17127 0.57842,-0.17127 0.15775,0 0.32152,0.0285 0.16376,0.0285 0.33503,0.0856 z" />
    <path
       id="path204"
       style="fill:#ff0000"
       d="m 135.78455,304.29536 h 0.30349 v 2.24309 h -0.30349 z" />
    <path
       id="path206"
       style="fill:#ff0000"
       d="m 136.69201,304.29536 h 0.40865 l 0.99459,1.87651 v -1.87651 h 0.29447 v 2.24309 h -0.40865 l -0.99459,-1.8765 v 1.8765 h -0.29447 z" />
    <path
       id="path208"
       style="fill:#ff0000"
       d="m 140.52314,306.21844 v -0.60246 h -0.4958 v -0.2494 h 0.79628 v 0.96304 q -0.17578,0.1247 -0.38762,0.1893 -0.21184,0.0631 -0.45223,0.0631 -0.52584,0 -0.82331,-0.30649 -0.29598,-0.30799 -0.29598,-0.85637 0,-0.54988 0.29598,-0.85637 0.29747,-0.30799 0.82331,-0.30799 0.21935,0 0.41617,0.0541 0.19832,0.0541 0.36508,0.15926 v 0.32302 q -0.16827,-0.14273 -0.35757,-0.21485 -0.1893,-0.0721 -0.39814,-0.0721 -0.41165,0 -0.61899,0.22987 -0.20582,0.22986 -0.20582,0.68509 0,0.45373 0.20582,0.6836 0.20734,0.22986 0.61899,0.22986 0.16076,0 0.28696,-0.027 0.12621,-0.0285 0.22687,-0.0871 z" />
    <path
       id="path210"
       style="fill:#ff0000"
       d="m 141.4381,306.15684 h 0.31701 v 0.38161 h -0.31701 z m 0,-1.20943 h 0.31701 v 0.38161 h -0.31701 z" />
    <path
       id="path212"
       style="fill:#ff0000"
       d="m 143.39874,304.29536 h 0.45222 l 0.57242,1.52645 0.57542,-1.52645 h 0.45222 v 2.24309 h -0.29597 v -1.96965 l -0.57843,1.53846 h -0.30499 l -0.57842,-1.53846 v 1.96965 h -0.29447 z" />
    <path
       id="path214"
       style="fill:#ff0000"
       d="m 146.69501,305.04957 q -0.22235,0 -0.35156,0.17428 -0.12921,0.17278 -0.12921,0.47476 0,0.30198 0.12771,0.47626 0.1292,0.17278 0.35306,0.17278 0.22086,0 0.35006,-0.17428 0.12921,-0.17428 0.12921,-0.47476 0,-0.29898 -0.12921,-0.47326 -0.1292,-0.17578 -0.35006,-0.17578 z m 0,-0.23438 q 0.36058,0 0.56641,0.23438 0.20583,0.23437 0.20583,0.64904 0,0.41316 -0.20583,0.64904 -0.20583,0.23437 -0.56641,0.23437 -0.36208,0 -0.56791,-0.23437 -0.20432,-0.23588 -0.20432,-0.64904 0,-0.41467 0.20432,-0.64904 0.20583,-0.23438 0.56791,-0.23438 z" />
    <path
       id="path216"
       style="fill:#ff0000"
       d="m 148.89904,305.11417 q -0.0466,-0.027 -0.10217,-0.0391 -0.0541,-0.0135 -0.12019,-0.0135 -0.23437,0 -0.36058,0.15324 -0.1247,0.15175 -0.1247,0.4372 v 0.88642 h -0.27794 v -1.68269 h 0.27794 v 0.26142 q 0.0871,-0.15325 0.22687,-0.22686 0.13972,-0.0751 0.33954,-0.0751 0.0285,0 0.0631,0.005 0.0346,0.003 0.0766,0.0105 z" />
    <path
       id="path218"
       style="fill:#ff0000"
       d="m 150.26472,304.90534 v 0.26142 q -0.11718,-0.0601 -0.24339,-0.0901 -0.1262,-0.03 -0.26141,-0.03 -0.20583,0 -0.3095,0.0631 -0.10216,0.0631 -0.10216,0.1893 0,0.0962 0.0736,0.15174 0.0736,0.0541 0.29598,0.10367 l 0.0947,0.021 q 0.29447,0.0631 0.41767,0.17879 0.1247,0.11418 0.1247,0.32001 0,0.23437 -0.1863,0.37109 -0.1848,0.13672 -0.50932,0.13672 -0.13521,0 -0.28245,-0.027 -0.14573,-0.0255 -0.30799,-0.0781 v -0.28545 q 0.15325,0.0796 0.30198,0.12019 0.14874,0.0391 0.29447,0.0391 0.19532,0 0.30049,-0.0661 0.10516,-0.0676 0.10516,-0.18931 0,-0.11268 -0.0766,-0.17277 -0.0751,-0.0601 -0.33203,-0.11569 l -0.0961,-0.0225 q -0.25692,-0.0541 -0.3711,-0.16527 -0.11418,-0.11268 -0.11418,-0.30799 0,-0.23738 0.16827,-0.36659 0.16827,-0.12921 0.47776,-0.12921 0.15325,0 0.28846,0.0225 0.13522,0.0225 0.2494,0.0676 z" />
    <path
       id="path220"
       style="fill:#ff0000"
       d="m 152.23588,305.628 v 0.13521 h -1.27104 q 0.018,0.28546 0.17128,0.4357 0.15474,0.14874 0.42968,0.14874 0.15926,0 0.308,-0.0391 0.15024,-0.0391 0.29747,-0.11718 v 0.26142 q -0.14873,0.0631 -0.30498,0.0962 -0.15625,0.0331 -0.31701,0.0331 -0.40265,0 -0.63852,-0.23437 -0.23438,-0.23438 -0.23438,-0.63402 0,-0.41316 0.22236,-0.65505 0.22386,-0.24339 0.60246,-0.24339 0.33954,0 0.53636,0.21936 0.19832,0.21784 0.19832,0.59345 z m -0.27645,-0.0811 q -0.003,-0.22687 -0.1277,-0.36208 -0.1232,-0.13522 -0.32752,-0.13522 -0.23137,0 -0.3711,0.13071 -0.13822,0.13071 -0.15925,0.36809 z" />
    <path
       id="path222"
       style="fill:#ff0000"
       d="m 154.38131,304.46814 v 0.32001 q -0.15325,-0.14273 -0.32753,-0.21334 -0.17277,-0.0706 -0.36808,-0.0706 -0.38462,0 -0.58895,0.23587 -0.20432,0.23438 -0.20432,0.67909 0,0.44321 0.20432,0.67909 0.20433,0.23437 0.58895,0.23437 0.19531,0 0.36808,-0.0706 0.17428,-0.0706 0.32753,-0.21334 v 0.31701 q -0.15926,0.10817 -0.33804,0.16226 -0.17729,0.0541 -0.3756,0.0541 -0.50932,0 -0.80229,-0.311 -0.29297,-0.3125 -0.29297,-0.85186 0,-0.54086 0.29297,-0.85186 0.29297,-0.3125 0.80229,-0.3125 0.20132,0 0.3786,0.0541 0.17879,0.0526 0.33504,0.15926 z" />
    <path
       id="path224"
       style="fill:#ff0000"
       d="m 155.49309,305.04957 q -0.22236,0 -0.35156,0.17428 -0.12921,0.17278 -0.12921,0.47476 0,0.30198 0.1277,0.47626 0.12921,0.17278 0.35307,0.17278 0.22085,0 0.35006,-0.17428 0.12921,-0.17428 0.12921,-0.47476 0,-0.29898 -0.12921,-0.47326 -0.12921,-0.17578 -0.35006,-0.17578 z m 0,-0.23438 q 0.36058,0 0.56641,0.23438 0.20582,0.23437 0.20582,0.64904 0,0.41316 -0.20582,0.64904 -0.20583,0.23437 -0.56641,0.23437 -0.36208,0 -0.56791,-0.23437 -0.20433,-0.23588 -0.20433,-0.64904 0,-0.41467 0.20433,-0.64904 0.20583,-0.23438 0.56791,-0.23438 z" />
    <path
       id="path226"
       style="fill:#ff0000"
       d="m 158.03215,305.17878 q 0.10367,-0.1863 0.2479,-0.27494 0.14423,-0.0887 0.33954,-0.0887 0.26292,0 0.40565,0.1848 0.14273,0.18329 0.14273,0.52284 v 1.01562 h -0.27795 v -1.00661 q 0,-0.24189 -0.0856,-0.35907 -0.0856,-0.11719 -0.26142,-0.11719 -0.21484,0 -0.33954,0.14273 -0.1247,0.14273 -0.1247,0.38912 v 0.95102 h -0.27795 v -1.00661 q 0,-0.24339 -0.0856,-0.35907 -0.0856,-0.11719 -0.26442,-0.11719 -0.21184,0 -0.33654,0.14423 -0.1247,0.14273 -0.1247,0.38762 v 0.95102 h -0.27794 v -1.68269 h 0.27794 v 0.26142 q 0.0947,-0.15475 0.22687,-0.22837 0.13221,-0.0736 0.314,-0.0736 0.18329,0 0.311,0.0932 0.1292,0.0931 0.1908,0.27044 z" />
    <path
       id="path228"
       style="fill:#ff0000"
       d="m 159.98828,306.28605 v 0.89243 h -0.27794 v -2.32272 h 0.27794 v 0.25541 q 0.0871,-0.15024 0.21935,-0.22236 0.13372,-0.0736 0.31851,-0.0736 0.30649,0 0.4973,0.24339 0.19231,0.24339 0.19231,0.64003 0,0.39663 -0.19231,0.64002 -0.19081,0.24339 -0.4973,0.24339 -0.18479,0 -0.31851,-0.0721 -0.13221,-0.0736 -0.21935,-0.22386 z m 0.94051,-0.58744 q 0,-0.30499 -0.12621,-0.47777 -0.12469,-0.17427 -0.34405,-0.17427 -0.21935,0 -0.34555,0.17427 -0.1247,0.17278 -0.1247,0.47777 0,0.30499 0.1247,0.47927 0.1262,0.17277 0.34555,0.17277 0.21936,0 0.34405,-0.17277 0.12621,-0.17428 0.12621,-0.47927 z" />
    <path
       id="path230"
       style="fill:#ff0000"
       d="m 162.32602,305.04957 q -0.22235,0 -0.35156,0.17428 -0.12921,0.17278 -0.12921,0.47476 0,0.30198 0.12771,0.47626 0.1292,0.17278 0.35306,0.17278 0.22086,0 0.35006,-0.17428 0.12921,-0.17428 0.12921,-0.47476 0,-0.29898 -0.12921,-0.47326 -0.1292,-0.17578 -0.35006,-0.17578 z m 0,-0.23438 q 0.36058,0 0.56641,0.23438 0.20583,0.23437 0.20583,0.64904 0,0.41316 -0.20583,0.64904 -0.20583,0.23437 -0.56641,0.23437 -0.36208,0 -0.56791,-0.23437 -0.20432,-0.23588 -0.20432,-0.64904 0,-0.41467 0.20432,-0.64904 0.20583,-0.23438 0.56791,-0.23438 z" />
    <path
       id="path232"
       style="fill:#ff0000"
       d="m 164.95373,305.52283 v 1.01562 h -0.27645 v -1.00661 q 0,-0.23888 -0.0932,-0.35757 -0.0931,-0.11869 -0.27944,-0.11869 -0.22386,0 -0.35307,0.14273 -0.12921,0.14273 -0.12921,0.38912 v 0.95102 h -0.27794 v -1.68269 h 0.27794 v 0.26142 q 0.0992,-0.15174 0.23288,-0.22686 0.13521,-0.0751 0.311,-0.0751 0.28996,0 0.4387,0.18029 0.14874,0.17879 0.14874,0.52735 z" />
    <path
       id="path234"
       style="fill:#ff0000"
       d="m 166.94741,305.628 v 0.13521 h -1.27103 q 0.018,0.28546 0.17128,0.4357 0.15474,0.14874 0.42968,0.14874 0.15926,0 0.308,-0.0391 0.15024,-0.0391 0.29747,-0.11718 v 0.26142 q -0.14874,0.0631 -0.30499,0.0962 -0.15625,0.0331 -0.317,0.0331 -0.40265,0 -0.63853,-0.23437 -0.23437,-0.23438 -0.23437,-0.63402 0,-0.41316 0.22236,-0.65505 0.22385,-0.24339 0.60246,-0.24339 0.33954,0 0.53636,0.21936 0.19831,0.21784 0.19831,0.59345 z m -0.27644,-0.0811 q -0.003,-0.22687 -0.1277,-0.36208 -0.1232,-0.13522 -0.32753,-0.13522 -0.23137,0 -0.37109,0.13071 -0.13822,0.13071 -0.15925,0.36809 z" />
    <path
       id="path236"
       style="fill:#ff0000"
       d="m 168.79988,305.52283 v 1.01562 h -0.27644 v -1.00661 q 0,-0.23888 -0.0931,-0.35757 -0.0932,-0.11869 -0.27945,-0.11869 -0.22386,0 -0.35307,0.14273 -0.1292,0.14273 -0.1292,0.38912 v 0.95102 h -0.27795 v -1.68269 h 0.27795 v 0.26142 q 0.0992,-0.15174 0.23287,-0.22686 0.13522,-0.0751 0.311,-0.0751 0.28996,0 0.4387,0.18029 0.14874,0.17879 0.14874,0.52735 z" />
    <path
       id="path238"
       style="fill:#ff0000"
       d="m 169.6277,304.378 v 0.47776 h 0.56941 v 0.21484 h -0.56941 v 0.91347 q 0,0.20582 0.0556,0.26442 0.0571,0.0586 0.22987,0.0586 h 0.28395 v 0.23137 h -0.28395 q -0.32001,0 -0.44171,-0.11869 -0.12169,-0.12019 -0.12169,-0.43569 v -0.91347 h -0.20283 v -0.21484 h 0.20283 V 304.378 Z" />
    <path
       id="path240"
       style="fill:#ff0000"
       d="m 171.05349,304.29536 h 0.25541 l -0.78125,2.52855 h -0.25541 z" />
    <path
       id="path242"
       style="fill:#ff0000"
       d="m 172.80979,305.69861 q 0,-0.30499 -0.1262,-0.47777 -0.1247,-0.17427 -0.34405,-0.17427 -0.21935,0 -0.34555,0.17427 -0.1247,0.17278 -0.1247,0.47777 0,0.30499 0.1247,0.47927 0.1262,0.17277 0.34555,0.17277 0.21935,0 0.34405,-0.17277 0.1262,-0.17428 0.1262,-0.47927 z m -0.9405,-0.58744 q 0.0871,-0.15024 0.21935,-0.22236 0.13371,-0.0736 0.31851,-0.0736 0.30649,0 0.4973,0.24339 0.1923,0.24339 0.1923,0.64003 0,0.39663 -0.1923,0.64002 -0.19081,0.24339 -0.4973,0.24339 -0.1848,0 -0.31851,-0.0721 -0.13221,-0.0736 -0.21935,-0.22386 v 0.2524 h -0.27794 v -2.33774 h 0.27794 z" />
    <path
       id="path244"
       style="fill:#ff0000"
       d="m 173.52644,305.87439 v -1.01863 h 0.27644 v 1.00811 q 0,0.23889 0.0932,0.35908 0.0932,0.11869 0.27945,0.11869 0.22386,0 0.35306,-0.14273 0.13071,-0.14273 0.13071,-0.38912 v -0.95403 h 0.27645 v 1.68269 h -0.27645 v -0.25841 q -0.10066,0.15324 -0.23437,0.22836 -0.13221,0.0736 -0.30799,0.0736 -0.28997,0 -0.44021,-0.18029 -0.15024,-0.18029 -0.15024,-0.52734 z m 0.69561,-1.0592 z" />
    <path
       id="path246"
       style="fill:#ff0000"
       d="m 175.78155,304.378 v 0.47776 h 0.56941 v 0.21484 h -0.56941 v 0.91347 q 0,0.20582 0.0556,0.26442 0.0571,0.0586 0.22987,0.0586 h 0.28395 v 0.23137 h -0.28395 q -0.32002,0 -0.44171,-0.11869 -0.1217,-0.12019 -0.1217,-0.43569 v -0.91347 h -0.20282 v -0.21484 h 0.20282 V 304.378 Z" />
    <path
       id="path248"
       style="fill:#ff0000"
       d="m 176.98948,304.378 v 0.47776 h 0.56941 v 0.21484 h -0.56941 v 0.91347 q 0,0.20582 0.0556,0.26442 0.0571,0.0586 0.22987,0.0586 h 0.28395 v 0.23137 h -0.28395 q -0.32001,0 -0.44171,-0.11869 -0.12169,-0.12019 -0.12169,-0.43569 v -0.91347 h -0.20283 v -0.21484 h 0.20283 V 304.378 Z" />
    <path
       id="path250"
       style="fill:#ff0000"
       d="m 178.57602,305.04957 q -0.22235,0 -0.35156,0.17428 -0.12921,0.17278 -0.12921,0.47476 0,0.30198 0.12771,0.47626 0.1292,0.17278 0.35306,0.17278 0.22086,0 0.35006,-0.17428 0.12921,-0.17428 0.12921,-0.47476 0,-0.29898 -0.12921,-0.47326 -0.1292,-0.17578 -0.35006,-0.17578 z m 0,-0.23438 q 0.36058,0 0.56641,0.23438 0.20583,0.23437 0.20583,0.64904 0,0.41316 -0.20583,0.64904 -0.20583,0.23437 -0.56641,0.23437 -0.36208,0 -0.56791,-0.23437 -0.20432,-0.23588 -0.20432,-0.64904 0,-0.41467 0.20432,-0.64904 0.20583,-0.23438 0.56791,-0.23438 z" />
    <path
       id="path252"
       style="fill:#ff0000"
       d="m 181.20373,305.52283 v 1.01562 h -0.27645 v -1.00661 q 0,-0.23888 -0.0932,-0.35757 -0.0931,-0.11869 -0.27944,-0.11869 -0.22386,0 -0.35307,0.14273 -0.12921,0.14273 -0.12921,0.38912 v 0.95102 h -0.27794 v -1.68269 h 0.27794 v 0.26142 q 0.0992,-0.15174 0.23288,-0.22686 0.13521,-0.0751 0.311,-0.0751 0.28996,0 0.4387,0.18029 0.14874,0.17879 0.14874,0.52735 z" />
    <path
       id="path254"
       style="fill:#ff0000"
       d="m 183.03666,307.04927 v 0.21484 h -1.59856 v -0.21484 z" />
    <path
       id="path256"
       style="fill:#ff0000"
       d="m 183.57001,304.378 v 0.47776 h 0.56941 v 0.21484 h -0.56941 v 0.91347 q 0,0.20582 0.0556,0.26442 0.0571,0.0586 0.22987,0.0586 h 0.28395 v 0.23137 h -0.28395 q -0.32001,0 -0.44171,-0.11869 -0.12169,-0.12019 -0.12169,-0.43569 v -0.91347 h -0.20283 v -0.21484 h 0.20283 V 304.378 Z" />
    <path
       id="path258"
       style="fill:#ff0000"
       d="m 185.47957,305.11417 q -0.0466,-0.027 -0.10217,-0.0391 -0.0541,-0.0135 -0.12019,-0.0135 -0.23437,0 -0.36058,0.15324 -0.12469,0.15175 -0.12469,0.4372 v 0.88642 h -0.27795 v -1.68269 h 0.27795 v 0.26142 q 0.0871,-0.15325 0.22686,-0.22686 0.13972,-0.0751 0.33954,-0.0751 0.0286,0 0.0631,0.005 0.0346,0.003 0.0766,0.0105 z" />
    <path
       id="path260"
       style="fill:#ff0000"
       d="m 186.53726,305.6926 q -0.33504,0 -0.46424,0.0766 -0.12921,0.0766 -0.12921,0.26142 0,0.14724 0.0961,0.23437 0.0977,0.0856 0.26443,0.0856 0.22986,0 0.36809,-0.16226 0.13972,-0.16376 0.13972,-0.43419 v -0.0616 z m 0.55138,-0.11418 v 0.96003 h -0.27644 v -0.25541 q -0.0947,0.15325 -0.23588,0.22687 -0.14122,0.0721 -0.34555,0.0721 -0.25841,0 -0.41166,-0.14423 -0.15174,-0.14573 -0.15174,-0.38912 0,-0.28396 0.1893,-0.42819 0.19081,-0.14423 0.56791,-0.14423 h 0.38762 v -0.027 q 0,-0.19081 -0.1262,-0.29447 -0.1247,-0.10517 -0.35157,-0.10517 -0.14423,0 -0.28095,0.0346 -0.13671,0.0345 -0.26292,0.10366 v -0.25541 q 0.15175,-0.0586 0.29448,-0.0871 0.14272,-0.0301 0.27794,-0.0301 0.36508,0 0.54537,0.18931 0.18029,0.1893 0.18029,0.57392 z" />
    <path
       id="path262"
       style="fill:#ff0000"
       d="m 189.05829,305.52283 v 1.01562 h -0.27644 v -1.00661 q 0,-0.23888 -0.0931,-0.35757 -0.0932,-0.11869 -0.27944,-0.11869 -0.22386,0 -0.35307,0.14273 -0.12921,0.14273 -0.12921,0.38912 v 0.95102 h -0.27794 v -1.68269 h 0.27794 v 0.26142 q 0.0992,-0.15174 0.23288,-0.22686 0.13521,-0.0751 0.31099,-0.0751 0.28997,0 0.43871,0.18029 0.14873,0.17879 0.14873,0.52735 z" />
    <path
       id="path264"
       style="fill:#ff0000"
       d="m 190.6854,304.90534 v 0.26142 q -0.11719,-0.0601 -0.24339,-0.0901 -0.1262,-0.03 -0.26142,-0.03 -0.20583,0 -0.3095,0.0631 -0.10216,0.0631 -0.10216,0.1893 0,0.0962 0.0736,0.15174 0.0736,0.0541 0.29597,0.10367 l 0.0947,0.021 q 0.29447,0.0631 0.41767,0.17879 0.1247,0.11418 0.1247,0.32001 0,0.23437 -0.1863,0.37109 -0.18479,0.13672 -0.50931,0.13672 -0.13522,0 -0.28245,-0.027 -0.14574,-0.0255 -0.308,-0.0781 v -0.28545 q 0.15325,0.0796 0.30199,0.12019 0.14873,0.0391 0.29447,0.0391 0.19531,0 0.30048,-0.0661 0.10517,-0.0676 0.10517,-0.18931 0,-0.11268 -0.0766,-0.17277 -0.0751,-0.0601 -0.33203,-0.11569 l -0.0961,-0.0225 q -0.25691,-0.0541 -0.37109,-0.16527 -0.11419,-0.11268 -0.11419,-0.30799 0,-0.23738 0.16827,-0.36659 0.16827,-0.12921 0.47777,-0.12921 0.15324,0 0.28846,0.0225 0.13521,0.0225 0.2494,0.0676 z" />
    <path
       id="path266"
       style="fill:#ff0000"
       d="m 192.52734,305.17878 q 0.10367,-0.1863 0.2479,-0.27494 0.14423,-0.0887 0.33954,-0.0887 0.26292,0 0.40565,0.1848 0.14273,0.18329 0.14273,0.52284 v 1.01562 h -0.27795 v -1.00661 q 0,-0.24189 -0.0856,-0.35907 -0.0856,-0.11719 -0.26142,-0.11719 -0.21485,0 -0.33954,0.14273 -0.1247,0.14273 -0.1247,0.38912 v 0.95102 h -0.27795 v -1.00661 q 0,-0.24339 -0.0856,-0.35907 -0.0856,-0.11719 -0.26442,-0.11719 -0.21184,0 -0.33654,0.14423 -0.1247,0.14273 -0.1247,0.38762 v 0.95102 h -0.27794 v -1.68269 h 0.27794 v 0.26142 q 0.0947,-0.15475 0.22687,-0.22837 0.13221,-0.0736 0.314,-0.0736 0.18329,0 0.311,0.0932 0.1292,0.0931 0.1908,0.27044 z" />
    <path
       id="path268"
       style="fill:#ff0000"
       d="m 194.21605,304.85576 h 0.27644 v 1.68269 h -0.27644 z m 0,-0.65505 h 0.27644 v 0.35006 h -0.27644 z" />
    <path
       id="path270"
       style="fill:#ff0000"
       d="m 195.34285,304.378 v 0.47776 h 0.56941 v 0.21484 h -0.56941 v 0.91347 q 0,0.20582 0.0556,0.26442 0.0571,0.0586 0.22986,0.0586 h 0.28396 v 0.23137 h -0.28396 q -0.32001,0 -0.4417,-0.11869 -0.1217,-0.12019 -0.1217,-0.43569 v -0.91347 h -0.20282 v -0.21484 h 0.20282 V 304.378 Z" />
    <path
       id="path272"
       style="fill:#ff0000"
       d="m 196.92338,304.20071 v 2.74339 h -0.63702 v -0.21484 h 0.35907 v -2.3137 h -0.35907 v -0.21485 z" />
  </g>
</svg>
