<?xml version="1.0" encoding="UTF-8" standalone="no"?>
<svg
   xmlns:dc="http://purl.org/dc/elements/1.1/"
   xmlns:cc="http://creativecommons.org/ns#"
   xmlns:rdf="http://www.w3.org/1999/02/22-rdf-syntax-ns#"
   xmlns:svg="http://www.w3.org/2000/svg"
   xmlns="http://www.w3.org/2000/svg"
   id="svg95"
   stroke-miterlimit="10"
   stroke-linecap="square"
   stroke="none"
   fill="none"
   viewBox="0.0 0.0 348.0 348.0"
   version="1.1">
  <metadata
     id="metadata101">
    <rdf:RDF>
      <cc:Work
         rdf:about="">
        <dc:format>image/svg+xml</dc:format>
        <dc:type
           rdf:resource="http://purl.org/dc/dcmitype/StillImage" />
      </cc:Work>
    </rdf:RDF>
  </metadata>
  <defs
     id="defs99" />
  <clipPath
     id="p.0">
    <path
       id="path2"
       clip-rule="nonzero"
       d="m0 0l348.0 0l0 348.0l-348.0 0l0 -348.0z" />
  </clipPath>
  <g
     id="g81"
     clip-path="url(#p.0)">
    <path
       style="fill:#000000;fill-opacity:0;fill-rule:nonzero"
       id="path5"
       d="M 0,0 H 348 V 348 H 0 Z" />
    <path
       style="fill:#ffffff;fill-rule:nonzero"
       id="path7"
       d="M -6,0 H 348.01575 V 347.9685 H -6 Z" />
    <path
       style="fill:#000000;fill-opacity:0;fill-rule:nonzero"
       id="path9"
       d="m 5.07874,5.7758217 h 336.9134 V 343.44512 H 5.07874 Z" />
    <path
       style="fill-rule:nonzero;stroke:#000000;stroke-width:2;stroke-linecap:butt;stroke-linejoin:round"
       id="path11"
       d="m 5.07874,5.7758217 h 336.9134 V 343.44512 H 5.07874 Z" />
    <path
       style="fill:#000000;fill-rule:nonzero"
       id="path13"
       d="m 133.84251,15.666667 h 74.33072 v 56.881886 h -74.33072 z" />
    <path
       style="fill:#ffffff;fill-rule:nonzero"
       id="path15"
       d="m 154.53912,44.089794 q 0,-4.0625 0.82812,-6.53125 0.84375,-2.484375 2.48438,-3.828125 1.65625,-1.34375 4.15625,-1.34375 1.84375,0 3.23437,0.75 1.39063,0.734375 2.29688,2.140625 0.90625,1.390625 1.42187,3.40625 0.51563,2 0.51563,5.40625 0,4.03125 -0.82813,6.515625 -0.82812,2.46875 -2.48437,3.828125 -1.64063,1.34375 -4.15625,1.34375 -3.3125,0 -5.20313,-2.375 -2.26562,-2.859375 -2.26562,-9.3125 z m 2.89062,0 q 0,5.640625 1.3125,7.515625 1.32813,1.859375 3.26563,1.859375 1.9375,0 3.25,-1.875 1.32812,-1.875 1.32812,-7.5 0,-5.65625 -1.32812,-7.515625 -1.3125,-1.859375 -3.28125,-1.859375 -1.9375,0 -3.09375,1.640625 -1.45313,2.09375 -1.45313,7.734375 z m 14.90625,0 q 0,-4.0625 0.82813,-6.53125 0.84375,-2.484375 2.48437,-3.828125 1.65625,-1.34375 4.15625,-1.34375 1.84375,0 3.23438,0.75 1.39062,0.734375 2.29687,2.140625 0.90625,1.390625 1.42188,3.40625 0.51562,2 0.51562,5.40625 0,4.03125 -0.82812,6.515625 -0.82813,2.46875 -2.48438,3.828125 -1.64062,1.34375 -4.15625,1.34375 -3.3125,0 -5.20312,-2.375 -2.26563,-2.859375 -2.26563,-9.3125 z m 2.89063,0 q 0,5.640625 1.3125,7.515625 1.32812,1.859375 3.26562,1.859375 1.9375,0 3.25,-1.875 1.32813,-1.875 1.32813,-7.5 0,-5.65625 -1.32813,-7.515625 -1.3125,-1.859375 -3.28125,-1.859375 -1.9375,0 -3.09375,1.640625 -1.45312,2.09375 -1.45312,7.734375 z" />
    <path
       style="fill:#ffffff;fill-rule:nonzero"
       id="path17"
       d="M 15.262467,17.706038 H 125.15223 v 54.83464 H 15.262467 Z" />
    <path
       style="fill-rule:nonzero;stroke:#000000;stroke-width:2;stroke-linecap:butt;stroke-linejoin:round"
       id="path19"
       d="M 15.262467,17.706038 H 125.15223 v 54.83464 H 15.262467 Z" />
    <path
       style="fill:#000000;fill-opacity:0;fill-rule:nonzero"
       id="path21"
       d="M 15.262467,72.65354 54.947507,18.5748" />
    <path
       style="fill-rule:nonzero;stroke:#000000;stroke-width:2;stroke-linecap:butt;stroke-linejoin:round"
       id="path23"
       d="M 15.262467,72.65354 54.947507,18.5748" />
    <path
       style="fill:#000000;fill-opacity:0;fill-rule:nonzero"
       id="path25"
       d="M 37.56649,72.65354 77.251533,18.5748" />
    <path
       style="fill-rule:nonzero;stroke:#000000;stroke-width:2;stroke-linecap:butt;stroke-linejoin:round"
       id="path27"
       d="M 37.56649,72.65354 77.251533,18.5748" />
    <path
       style="fill:#000000;fill-opacity:0;fill-rule:nonzero"
       id="path29"
       d="M 59.870514,72.65354 99.555557,18.5748" />
    <path
       style="fill-rule:nonzero;stroke:#000000;stroke-width:2;stroke-linecap:butt;stroke-linejoin:round"
       id="path31"
       d="M 59.870514,72.65354 99.555557,18.5748" />
    <path
       style="fill:#000000;fill-opacity:0;fill-rule:nonzero"
       id="path33"
       d="M 82.17454,72.65354 121.85958,18.5748" />
    <path
       style="fill-rule:nonzero;stroke:#000000;stroke-width:2;stroke-linecap:butt;stroke-linejoin:round"
       id="path35"
       d="M 82.17454,72.65354 121.85958,18.5748" />
    <path
       style="fill:#ffffff;fill-rule:nonzero"
       id="path37"
       d="M 32.97638,83.031494 H 315.02362 V 325.3937 H 32.97638 Z" />
    <path
       style="fill-rule:nonzero;stroke:#000000;stroke-width:2;stroke-linecap:butt;stroke-linejoin:round"
       id="path39"
       d="M 32.97638,83.031494 H 315.02362 V 325.3937 H 32.97638 Z" />
    <path
       style="fill:#ffffff;fill-rule:nonzero"
       id="path41"
       d="m 216.86351,16.633858 h 109.88975 v 54.83465 H 216.86351 Z" />
    <path
       style="fill-rule:nonzero;stroke:#000000;stroke-width:2;stroke-linecap:butt;stroke-linejoin:round"
       id="path43"
       d="m 216.86351,16.633858 h 109.88975 v 54.83465 H 216.86351 Z" />
    <path
       style="fill:#000000;fill-opacity:0;fill-rule:nonzero"
       id="path45"
       d="M 216.86351,71.58137 256.54855,17.502627" />
    <path
       style="fill-rule:nonzero;stroke:#000000;stroke-width:2;stroke-linecap:butt;stroke-linejoin:round"
       id="path47"
       d="M 216.86351,71.58137 256.54855,17.502627" />
    <path
       style="fill:#000000;fill-opacity:0;fill-rule:nonzero"
       id="path49"
       d="M 239.16754,71.58137 278.85257,17.502627" />
    <path
       style="fill-rule:nonzero;stroke:#000000;stroke-width:2;stroke-linecap:butt;stroke-linejoin:round"
       id="path51"
       d="M 239.16754,71.58137 278.85257,17.502627" />
    <path
       style="fill:#000000;fill-opacity:0;fill-rule:nonzero"
       id="path53"
       d="M 261.47156,71.58137 301.15662,17.502627" />
    <path
       style="fill-rule:nonzero;stroke:#000000;stroke-width:2;stroke-linecap:butt;stroke-linejoin:round"
       id="path55"
       d="M 261.47156,71.58137 301.15662,17.502627" />
    <path
       style="fill:#000000;fill-opacity:0;fill-rule:nonzero"
       id="path57"
       d="M 283.7756,71.58137 323.46063,17.502627" />
    <path
       style="fill-rule:nonzero;stroke:#000000;stroke-width:2;stroke-linecap:butt;stroke-linejoin:round"
       id="path59"
       d="M 283.7756,71.58137 323.46063,17.502627" />
    <path
       style="fill:#000000;fill-rule:nonzero"
       id="path61"
       d="M 44.490814,88.11811 H 303.48294 V 252.05512 H 44.490814 Z" />
    <path
       style="fill-rule:nonzero;stroke:#000000;stroke-width:1;stroke-linecap:butt;stroke-linejoin:round"
       id="path63"
       d="m 113.77165,267.51697 h 49.25984 v 45.48032 h -49.25984 z" />
    <path
       style="fill:#000000;fill-opacity:0;fill-rule:nonzero"
       id="path65"
       d="m 182.79527,267.51697 h 49.25984 v 45.48032 h -49.25984 z" />
    <path
       style="fill-rule:nonzero;stroke:#000000;stroke-width:1;stroke-linecap:butt;stroke-linejoin:round"
       id="path67"
       d="m 182.79527,267.51697 h 49.25984 v 45.48032 h -49.25984 z" />
    <path
       style="fill:#ffffff;fill-rule:nonzero"
       id="path69"
       d="m 260.08136,270.74014 h 36.72443 v 25.63782 h -36.72443 z" />
    <path
       style="fill-rule:nonzero;stroke:#000000;stroke-width:2;stroke-linecap:butt;stroke-linejoin:round"
       id="path71"
       d="m 260.08136,270.74014 h 36.72443 v 25.63782 h -36.72443 z" />
    <path
       style="fill:#ffffff;fill-rule:nonzero"
       id="path73"
       d="m 265.46457,305.50656 v 0 c 0,-2.35699 1.91071,-4.26773 4.2677,-4.26773 v 0 c 1.1319,0 2.21741,0.44965 3.01773,1.25 0.80035,0.80035 1.25,1.88586 1.25,3.01773 v 0 c 0,2.35699 -1.91074,4.26773 -4.26773,4.26773 v 0 c -2.35699,0 -4.2677,-1.91074 -4.2677,-4.26773 z" />
    <path
       style="fill-rule:nonzero;stroke:#000000;stroke-width:2;stroke-linecap:butt;stroke-linejoin:round"
       id="path75"
       d="m 265.46457,305.50656 v 0 c 0,-2.35699 1.91071,-4.26773 4.2677,-4.26773 v 0 c 1.1319,0 2.21741,0.44965 3.01773,1.25 0.80035,0.80035 1.25,1.88586 1.25,3.01773 v 0 c 0,2.35699 -1.91074,4.26773 -4.26773,4.26773 v 0 c -2.35699,0 -4.2677,-1.91074 -4.2677,-4.26773 z" />
    <path
       style="fill:#ffffff;fill-rule:nonzero"
       id="path77"
       d="m 282.8084,305.50656 v 0 c 0,-2.35699 1.91071,-4.26773 4.2677,-4.26773 v 0 c 1.13187,0 2.21738,0.44965 3.01773,1.25 0.80035,0.80035 1.25,1.88586 1.25,3.01773 v 0 c 0,2.35699 -1.91074,4.26773 -4.26773,4.26773 v 0 c -2.35699,0 -4.2677,-1.91074 -4.2677,-4.26773 z" />
    <path
       style="fill-rule:nonzero;stroke:#000000;stroke-width:2;stroke-linecap:butt;stroke-linejoin:round"
       id="path79"
       d="m 282.8084,305.50656 v 0 c 0,-2.35699 1.91071,-4.26773 4.2677,-4.26773 v 0 c 1.13187,0 2.21738,0.44965 3.01773,1.25 0.80035,0.80035 1.25,1.88586 1.25,3.01773 v 0 c 0,2.35699 -1.91074,4.26773 -4.26773,4.26773 v 0 c -2.35699,0 -4.2677,-1.91074 -4.2677,-4.26773 z" />
  </g>
  <g
     id="text85"
     style="font-size:10.76923084px;font-family:sans-serif;text-anchor:middle;fill:#ffffff"
     aria-label="[MISSING: Manual/needygas.moduleicontext]">
    <path
       id="path103"
       style="fill:#ff0000"
       d="m 53.045973,114.20252 h 2.229567 v 0.75195 h -1.262019 v 8.09796 h 1.262019 v 0.75195 h -2.229567 z" />
    <path
       id="path105"
       style="fill:#ff0000"
       d="m 57.384164,114.5338 h 1.582782 l 2.003456,5.34255 2.013972,-5.34255 h 1.582783 v 7.85081 h -1.035908 v -6.89378 l -2.024489,5.38462 h -1.067458 l -2.024489,-5.38462 v 6.89378 h -1.030649 z" />
    <path
       id="path107"
       style="fill:#ff0000"
       d="m 66.681039,114.5338 h 1.062199 v 7.85081 h -1.062199 z" />
    <path
       id="path109"
       style="fill:#ff0000"
       d="m 74.563401,114.79146 v 1.03591 q -0.604718,-0.28921 -1.141076,-0.43119 -0.536358,-0.14198 -1.035908,-0.14198 -0.867638,0 -1.340895,0.33654 -0.467999,0.33654 -0.467999,0.95703 0,0.52059 0.310247,0.78877 0.315504,0.26292 1.188401,0.42593 l 0.641527,0.13146 q 1.188401,0.22611 1.751051,0.79928 0.567909,0.56791 0.567909,1.52494 0,1.14107 -0.767729,1.73001 -0.762469,0.58895 -2.240084,0.58895 -0.557391,0 -1.188401,-0.1262 -0.625751,-0.12621 -1.298828,-0.37335 v -1.09375 q 0.646785,0.36283 1.267277,0.54687 0.620493,0.18405 1.219952,0.18405 0.909706,0 1.403997,-0.35757 0.494291,-0.35758 0.494291,-1.02014 0,-0.57842 -0.357572,-0.90444 -0.352314,-0.32603 -1.16211,-0.48904 l -0.646785,-0.1262 q -1.188401,-0.23663 -1.719501,-0.74143 -0.5311,-0.50481 -0.5311,-1.404 0,-1.04117 0.73092,-1.64063 0.736178,-0.59946 2.024489,-0.59946 0.552133,0 1.1253,0.0999 0.573168,0.0999 1.172627,0.29973 z" />
    <path
       id="path111"
       style="fill:#ff0000"
       d="m 81.399338,114.79146 v 1.03591 q -0.604717,-0.28921 -1.141076,-0.43119 -0.536358,-0.14198 -1.035907,-0.14198 -0.867638,0 -1.340895,0.33654 -0.467999,0.33654 -0.467999,0.95703 0,0.52059 0.310246,0.78877 0.315505,0.26292 1.188402,0.42593 l 0.641526,0.13146 q 1.188401,0.22611 1.751052,0.79928 0.567908,0.56791 0.567908,1.52494 0,1.14107 -0.767728,1.73001 -0.76247,0.58895 -2.240084,0.58895 -0.557392,0 -1.188402,-0.1262 -0.625751,-0.12621 -1.298828,-0.37335 v -1.09375 q 0.646785,0.36283 1.267278,0.54687 0.620493,0.18405 1.219952,0.18405 0.909705,0 1.403996,-0.35757 0.494291,-0.35758 0.494291,-1.02014 0,-0.57842 -0.357572,-0.90444 -0.352314,-0.32603 -1.162109,-0.48904 l -0.646785,-0.1262 q -1.188402,-0.23663 -1.719501,-0.74143 -0.5311,-0.50481 -0.5311,-1.404 0,-1.04117 0.730919,-1.64063 0.736178,-0.59946 2.024489,-0.59946 0.552134,0 1.125301,0.0999 0.573167,0.0999 1.172626,0.29973 z" />
    <path
       id="path113"
       style="fill:#ff0000"
       d="m 83.528996,114.5338 h 1.062199 v 7.85081 h -1.062199 z" />
    <path
       id="path115"
       style="fill:#ff0000"
       d="m 86.705078,114.5338 h 1.430289 l 3.481069,6.56776 v -6.56776 h 1.030649 v 7.85081 h -1.430288 l -3.48107,-6.56776 v 6.56776 h -1.030649 z" />
    <path
       id="path117"
       style="fill:#ff0000"
       d="m 100.11403,121.26457 v -2.10862 h -1.735274 v -0.8729 h 2.786954 v 3.37064 q -0.61523,0.43645 -1.356666,0.66256 -0.741436,0.22086 -1.582782,0.22086 -1.840445,0 -2.881611,-1.07272 -1.035907,-1.07797 -1.035907,-2.9973 0,-1.92457 1.035907,-2.99729 1.041166,-1.07798 2.881611,-1.07798 0.767728,0 1.45658,0.18931 0.694108,0.1893 1.277798,0.55739 v 1.13056 q -0.58895,-0.49955 -1.251506,-0.75195 -0.66256,-0.25241 -1.393479,-0.25241 -1.440805,0 -2.166467,0.80454 -0.720402,0.80454 -0.720402,2.39783 0,1.58805 0.720402,2.39258 0.725662,0.80454 2.166467,0.80454 0.56265,0 1.004357,-0.0947 0.441707,-0.0999 0.794018,-0.30499 z" />
    <path
       id="path119"
       style="fill:#ff0000"
       d="m 103.31641,121.04898 h 1.10952 v 1.33563 h -1.10952 z m 0,-4.23303 h 1.10952 v 1.33564 h -1.10952 z" />
    <path
       id="path121"
       style="fill:#ff0000"
       d="m 110.17863,114.5338 h 1.58279 l 2.00345,5.34255 2.01398,-5.34255 h 1.58278 v 7.85081 h -1.03591 v -6.89378 l -2.02449,5.38462 h -1.06746 l -2.02449,-5.38462 v 6.89378 h -1.03065 z" />
    <path
       id="path123"
       style="fill:#ff0000"
       d="m 122.10998,119.42413 q -1.17263,0 -1.62485,0.26818 -0.45222,0.26817 -0.45222,0.91496 0,0.51532 0.33653,0.82031 0.3418,0.29973 0.92548,0.29973 0.80454,0 1.28832,-0.56791 0.48903,-0.57316 0.48903,-1.51968 v -0.21559 z m 1.92984,-0.39964 v 3.36012 h -0.96755 v -0.89393 q -0.33128,0.53636 -0.82557,0.79402 -0.49429,0.25241 -1.20944,0.25241 -0.90444,0 -1.4408,-0.50481 -0.5311,-0.51007 -0.5311,-1.36193 0,-0.99384 0.66256,-1.49865 0.66782,-0.50481 1.98768,-0.50481 h 1.35667 v -0.0947 q 0,-0.66782 -0.44171,-1.03065 -0.43645,-0.36808 -1.23047,-0.36808 -0.5048,0 -0.98332,0.12094 -0.47852,0.12094 -0.92022,0.36283 v -0.89393 q 0.5311,-0.20508 1.03065,-0.30499 0.49955,-0.10517 0.9728,-0.10517 1.2778,0 1.90881,0.66256 0.63101,0.66256 0.63101,2.00872 z" />
    <path
       id="path125"
       style="fill:#ff0000"
       d="m 130.93359,118.82993 v 3.55468 h -0.96755 v -3.52313 q 0,-0.83609 -0.32602,-1.25151 -0.32602,-0.41541 -0.97806,-0.41541 -0.78351,0 -1.23573,0.49955 -0.45223,0.49955 -0.45223,1.36193 v 3.32857 h -0.9728 v -5.88942 h 0.9728 v 0.91496 q 0.34706,-0.5311 0.81506,-0.79402 0.47326,-0.26292 1.08849,-0.26292 1.01487,0 1.53546,0.63101 0.52058,0.62575 0.52058,1.84571 z" />
    <path
       id="path127"
       style="fill:#ff0000"
       d="m 132.77403,120.06039 v -3.5652 h 0.96755 v 3.5284 q 0,0.83608 0.32602,1.25676 0.32603,0.41541 0.97807,0.41541 0.7835,0 1.23573,-0.49955 0.45748,-0.49955 0.45748,-1.36193 v -3.33909 h 0.96755 v 5.88942 h -0.96755 v -0.90444 q -0.35232,0.53635 -0.82031,0.79927 -0.46274,0.25767 -1.07798,0.25767 -1.01487,0 -1.54071,-0.63101 -0.52585,-0.63101 -0.52585,-1.84571 z m 2.43465,-3.70718 z" />
    <path
       id="path129"
       style="fill:#ff0000"
       d="m 142.38641,119.42413 q -1.17262,0 -1.62485,0.26818 -0.45222,0.26817 -0.45222,0.91496 0,0.51532 0.33654,0.82031 0.3418,0.29973 0.92548,0.29973 0.80454,0 1.28831,-0.56791 0.48903,-0.57316 0.48903,-1.51968 v -0.21559 z m 1.92984,-0.39964 v 3.36012 h -0.96755 v -0.89393 q -0.33128,0.53636 -0.82557,0.79402 -0.49429,0.25241 -1.20943,0.25241 -0.90445,0 -1.44081,-0.50481 -0.5311,-0.51007 -0.5311,-1.36193 0,-0.99384 0.66256,-1.49865 0.66782,-0.50481 1.98768,-0.50481 h 1.35667 v -0.0947 q 0,-0.66782 -0.4417,-1.03065 -0.43645,-0.36808 -1.23047,-0.36808 -0.50481,0 -0.98332,0.12094 -0.47852,0.12094 -0.92023,0.36283 v -0.89393 q 0.5311,-0.20508 1.03065,-0.30499 0.49955,-0.10517 0.97281,-0.10517 1.27779,0 1.9088,0.66256 0.63101,0.66256 0.63101,2.00872 z" />
    <path
       id="path131"
       style="fill:#ff0000"
       d="m 146.31445,114.20252 h 0.96755 v 8.18209 h -0.96755 z" />
    <path
       id="path133"
       style="fill:#ff0000"
       d="m 151.02073,114.5338 h 0.89393 l -2.73437,8.84991 h -0.89394 z" />
    <path
       id="path135"
       style="fill:#ff0000"
       d="m 157.83564,118.82993 v 3.55468 h -0.96755 v -3.52313 q 0,-0.83609 -0.32602,-1.25151 -0.32603,-0.41541 -0.97807,-0.41541 -0.7835,0 -1.23573,0.49955 -0.45222,0.49955 -0.45222,1.36193 v 3.32857 h -0.97281 v -5.88942 h 0.97281 v 0.91496 q 0.34706,-0.5311 0.81505,-0.79402 0.47326,-0.26292 1.0885,-0.26292 1.01487,0 1.53545,0.63101 0.52059,0.62575 0.52059,1.84571 z" />
    <path
       id="path137"
       style="fill:#ff0000"
       d="m 164.81355,119.19801 v 0.47326 h -4.44862 q 0.0631,0.9991 0.59946,1.52494 0.54162,0.52058 1.50391,0.52058 0.55739,0 1.07797,-0.13671 0.52584,-0.13672 1.04117,-0.41016 v 0.91496 q -0.52058,0.22086 -1.06746,0.33654 -0.54687,0.11569 -1.10952,0.11569 -1.40926,0 -2.23483,-0.82032 -0.82031,-0.82031 -0.82031,-2.21905 0,-1.44606 0.77824,-2.29266 0.78351,-0.85187 2.10863,-0.85187 1.1884,0 1.87725,0.76773 0.69411,0.76247 0.69411,2.07707 z m -0.96755,-0.28395 q -0.0105,-0.79402 -0.44696,-1.26728 -0.43119,-0.47325 -1.14634,-0.47325 -0.80979,0 -1.29882,0.45748 -0.48378,0.45748 -0.5574,1.28831 z" />
    <path
       id="path139"
       style="fill:#ff0000"
       d="m 171.43915,119.19801 v 0.47326 h -4.44861 q 0.0631,0.9991 0.59945,1.52494 0.54162,0.52058 1.50391,0.52058 0.55739,0 1.07798,-0.13671 0.52584,-0.13672 1.04116,-0.41016 v 0.91496 q -0.52058,0.22086 -1.06746,0.33654 -0.54687,0.11569 -1.10952,0.11569 -1.40926,0 -2.23483,-0.82032 -0.82031,-0.82031 -0.82031,-2.21905 0,-1.44606 0.77825,-2.29266 0.7835,-0.85187 2.10862,-0.85187 1.1884,0 1.87725,0.76773 0.69411,0.76247 0.69411,2.07707 z m -0.96754,-0.28395 q -0.0105,-0.79402 -0.44697,-1.26728 -0.43119,-0.47325 -1.14633,-0.47325 -0.8098,0 -1.29883,0.45748 -0.48378,0.45748 -0.55739,1.28831 z" />
    <path
       id="path141"
       style="fill:#ff0000"
       d="m 176.90265,117.38912 v -3.1866 h 0.96755 v 8.18209 h -0.96755 v -0.88341 q -0.30499,0.52584 -0.77299,0.7835 -0.46274,0.25241 -1.11478,0.25241 -1.06746,0 -1.74054,-0.85187 -0.66782,-0.85186 -0.66782,-2.24008 0,-1.38822 0.66782,-2.24008 0.67308,-0.85187 1.74054,-0.85187 0.65204,0 1.11478,0.25767 0.468,0.2524 0.77299,0.77824 z m -3.29703,2.05604 q 0,1.06746 0.43645,1.67743 0.44171,0.60472 1.20944,0.60472 0.76772,0 1.20943,-0.60472 0.44171,-0.60997 0.44171,-1.67743 0,-1.06746 -0.44171,-1.67218 -0.44171,-0.60997 -1.20943,-0.60997 -0.76773,0 -1.20944,0.60997 -0.43645,0.60472 -0.43645,1.67218 z" />
    <path
       id="path143"
       style="fill:#ff0000"
       d="m 182.31355,122.93149 q -0.41015,1.05168 -0.79927,1.37244 -0.38913,0.32077 -1.04117,0.32077 h -0.77299 v -0.8098 h 0.56791 q 0.39964,0 0.62049,-0.1893 0.22086,-0.1893 0.48904,-0.89393 l 0.17352,-0.44171 -2.38206,-5.79477 h 1.02539 l 1.84045,4.60637 1.84044,-4.60637 h 1.02539 z" />
    <path
       id="path145"
       style="fill:#ff0000"
       d="m 190.11178,119.37154 q 0,-1.05168 -0.43644,-1.63011 -0.43119,-0.57842 -1.2147,-0.57842 -0.77824,0 -1.21469,0.57842 -0.43119,0.57843 -0.43119,1.63011 0,1.04643 0.43119,1.62485 0.43645,0.57843 1.21469,0.57843 0.78351,0 1.2147,-0.57843 0.43644,-0.57842 0.43644,-1.62485 z m 0.96755,2.28215 q 0,1.50391 -0.66782,2.23483 -0.66782,0.73618 -2.04552,0.73618 -0.51007,0 -0.96229,-0.0789 -0.45222,-0.0736 -0.87815,-0.23137 v -0.94126 q 0.42593,0.23137 0.84134,0.3418 0.41542,0.11043 0.84661,0.11043 0.95177,0 1.42503,-0.49955 0.47325,-0.49429 0.47325,-1.49865 v -0.47851 q -0.29973,0.52058 -0.76772,0.77824 -0.468,0.25766 -1.12005,0.25766 -1.08323,0 -1.74579,-0.82557 -0.66256,-0.82557 -0.66256,-2.1875 0,-1.36719 0.66256,-2.19276 0.66256,-0.82557 1.74579,-0.82557 0.65205,0 1.12005,0.25767 0.46799,0.25766 0.76772,0.77824 v -0.89393 h 0.96755 z" />
    <path
       id="path147"
       style="fill:#ff0000"
       d="m 195.7488,119.42413 q -1.17262,0 -1.62485,0.26818 -0.45222,0.26817 -0.45222,0.91496 0,0.51532 0.33654,0.82031 0.3418,0.29973 0.92548,0.29973 0.80454,0 1.28831,-0.56791 0.48903,-0.57316 0.48903,-1.51968 v -0.21559 z m 1.92984,-0.39964 v 3.36012 h -0.96755 v -0.89393 q -0.33128,0.53636 -0.82557,0.79402 -0.49429,0.25241 -1.20943,0.25241 -0.90445,0 -1.44081,-0.50481 -0.5311,-0.51007 -0.5311,-1.36193 0,-0.99384 0.66256,-1.49865 0.66782,-0.50481 1.98768,-0.50481 h 1.35667 v -0.0947 q 0,-0.66782 -0.4417,-1.03065 -0.43645,-0.36808 -1.23047,-0.36808 -0.50481,0 -0.98333,0.12094 -0.47851,0.12094 -0.92022,0.36283 v -0.89393 q 0.5311,-0.20508 1.03065,-0.30499 0.49955,-0.10517 0.97281,-0.10517 1.27779,0 1.9088,0.66256 0.63101,0.66256 0.63101,2.00872 z" />
    <path
       id="path149"
       style="fill:#ff0000"
       d="m 203.43135,116.66872 v 0.91496 q -0.41016,-0.21034 -0.85187,-0.3155 -0.4417,-0.10517 -0.91496,-0.10517 -0.7204,0 -1.08323,0.22085 -0.35758,0.22086 -0.35758,0.66256 0,0.33654 0.25767,0.5311 0.25766,0.1893 1.0359,0.36283 l 0.33128,0.0736 q 1.03065,0.22085 1.46184,0.62575 0.43645,0.39964 0.43645,1.12004 0,0.82032 -0.65204,1.29883 -0.64679,0.47852 -1.7826,0.47852 -0.47326,0 -0.98859,-0.0947 -0.51006,-0.0894 -1.07797,-0.27344 v -0.9991 q 0.53636,0.2787 1.05694,0.42067 0.52058,0.13672 1.03065,0.13672 0.68359,0 1.05168,-0.23137 0.36809,-0.23663 0.36809,-0.66256 0,-0.39438 -0.26818,-0.60472 -0.26292,-0.21033 -1.16211,-0.40489 l -0.33654,-0.0789 q -0.89918,-0.1893 -1.29882,-0.57843 -0.39964,-0.39438 -0.39964,-1.07797 0,-0.83083 0.58894,-1.28305 0.58894,-0.45223 1.67217,-0.45223 0.53636,0 1.00962,0.0789 0.47326,0.0789 0.8729,0.23663 z" />
    <path
       id="path151"
       style="fill:#ff0000"
       d="m 205.42954,121.04898 h 1.10953 v 1.33563 h -1.10953 z" />
    <path
       id="path153"
       style="fill:#ff0000"
       d="m 213.30664,117.62575 q 0.36283,-0.65204 0.86764,-0.96229 0.50481,-0.31025 1.1884,-0.31025 0.92022,0 1.41977,0.64679 0.49955,0.64152 0.49955,1.82993 v 3.55468 h -0.97281 v -3.52313 q 0,-0.84661 -0.29973,-1.25676 -0.29973,-0.41016 -0.91496,-0.41016 -0.75195,0 -1.1884,0.49955 -0.43645,0.49955 -0.43645,1.36193 v 3.32857 h -0.97281 v -3.52313 q 0,-0.85187 -0.29973,-1.25676 -0.29972,-0.41016 -0.92548,-0.41016 -0.74143,0 -1.17788,0.50481 -0.43645,0.49955 -0.43645,1.35667 v 3.32857 h -0.97281 v -5.88942 h 0.97281 v 0.91496 q 0.33128,-0.54161 0.79402,-0.79927 0.46274,-0.25767 1.09901,-0.25767 0.64153,0 1.08849,0.32602 0.45222,0.32603 0.66782,0.94652 z" />
    <path
       id="path155"
       style="fill:#ff0000"
       d="m 221.49924,117.17353 q -0.77824,0 -1.23047,0.60997 -0.45222,0.60472 -0.45222,1.66166 0,1.05694 0.44697,1.66692 0.45222,0.60471 1.23572,0.60471 0.77299,0 1.22521,-0.60997 0.45223,-0.60998 0.45223,-1.66166 0,-1.04642 -0.45223,-1.6564 -0.45222,-0.61523 -1.22521,-0.61523 z m 0,-0.82032 q 1.26202,0 1.98243,0.82032 0.7204,0.82031 0.7204,2.27163 0,1.44606 -0.7204,2.27163 -0.72041,0.82032 -1.98243,0.82032 -1.26727,0 -1.98768,-0.82032 -0.71514,-0.82557 -0.71514,-2.27163 0,-1.45132 0.71514,-2.27163 0.72041,-0.82032 1.98768,-0.82032 z" />
    <path
       id="path157"
       style="fill:#ff0000"
       d="m 229.67608,117.38912 v -3.1866 h 0.96755 v 8.18209 h -0.96755 v -0.88341 q -0.30498,0.52584 -0.77298,0.7835 -0.46274,0.25241 -1.11479,0.25241 -1.06745,0 -1.74053,-0.85187 -0.66782,-0.85186 -0.66782,-2.24008 0,-1.38822 0.66782,-2.24008 0.67308,-0.85187 1.74053,-0.85187 0.65205,0 1.11479,0.25767 0.468,0.2524 0.77298,0.77824 z m -3.29702,2.05604 q 0,1.06746 0.43645,1.67743 0.4417,0.60472 1.20943,0.60472 0.76773,0 1.20944,-0.60472 0.4417,-0.60997 0.4417,-1.67743 0,-1.06746 -0.4417,-1.67218 -0.44171,-0.60997 -1.20944,-0.60997 -0.76773,0 -1.20943,0.60997 -0.43645,0.60472 -0.43645,1.67218 z" />
    <path
       id="path159"
       style="fill:#ff0000"
       d="m 232.53666,120.06039 v -3.5652 h 0.96755 v 3.5284 q 0,0.83608 0.32602,1.25676 0.32602,0.41541 0.97807,0.41541 0.7835,0 1.23572,-0.49955 0.45749,-0.49955 0.45749,-1.36193 v -3.33909 h 0.96754 v 5.88942 h -0.96754 v -0.90444 q -0.35232,0.53635 -0.82032,0.79927 -0.46274,0.25767 -1.07797,0.25767 -1.01488,0 -1.54072,-0.63101 -0.52584,-0.63101 -0.52584,-1.84571 z m 2.43465,-3.70718 z" />
    <path
       id="path161"
       style="fill:#ff0000"
       d="m 239.47251,114.20252 h 0.96755 v 8.18209 h -0.96755 z" />
    <path
       id="path163"
       style="fill:#ff0000"
       d="m 247.49684,119.19801 v 0.47326 h -4.44862 q 0.0631,0.9991 0.59946,1.52494 0.54162,0.52058 1.50391,0.52058 0.55739,0 1.07797,-0.13671 0.52584,-0.13672 1.04117,-0.41016 v 0.91496 q -0.52059,0.22086 -1.06746,0.33654 -0.54688,0.11569 -1.10953,0.11569 -1.40925,0 -2.23482,-0.82032 -0.82031,-0.82031 -0.82031,-2.21905 0,-1.44606 0.77824,-2.29266 0.78351,-0.85187 2.10863,-0.85187 1.1884,0 1.87725,0.76773 0.69411,0.76247 0.69411,2.07707 z m -0.96755,-0.28395 q -0.0105,-0.79402 -0.44696,-1.26728 -0.43119,-0.47325 -1.14634,-0.47325 -0.80979,0 -1.29883,0.45748 -0.48377,0.45748 -0.55739,1.28831 z" />
    <path
       id="path165"
       style="fill:#ff0000"
       d="m 249.08489,116.49519 h 0.96755 v 5.88942 h -0.96755 z m 0,-2.29267 h 0.96755 v 1.22521 h -0.96755 z" />
    <path
       id="path167"
       style="fill:#ff0000"
       d="m 256.30994,116.7213 v 0.90445 q -0.41015,-0.22611 -0.82557,-0.33654 -0.41016,-0.11568 -0.83083,-0.11568 -0.94125,0 -1.46184,0.59945 -0.52058,0.59421 -0.52058,1.67218 0,1.07797 0.52058,1.67743 0.52059,0.5942 1.46184,0.5942 0.42067,0 0.83083,-0.11042 0.41542,-0.11569 0.82557,-0.3418 v 0.89393 q -0.4049,0.1893 -0.84134,0.28396 -0.43119,0.0947 -0.92023,0.0947 -1.33038,0 -2.11388,-0.83609 -0.7835,-0.83609 -0.7835,-2.25586 0,-1.44081 0.78876,-2.26638 0.79402,-0.82557 2.17172,-0.82557 0.44697,0 0.8729,0.0947 0.42593,0.0894 0.82557,0.27344 z" />
    <path
       id="path169"
       style="fill:#ff0000"
       d="m 260.2853,117.17353 q -0.77825,0 -1.23047,0.60997 -0.45222,0.60472 -0.45222,1.66166 0,1.05694 0.44696,1.66692 0.45223,0.60471 1.23573,0.60471 0.77299,0 1.22521,-0.60997 0.45222,-0.60998 0.45222,-1.66166 0,-1.04642 -0.45222,-1.6564 -0.45222,-0.61523 -1.22521,-0.61523 z m 0,-0.82032 q 1.26202,0 1.98242,0.82032 0.7204,0.82031 0.7204,2.27163 0,1.44606 -0.7204,2.27163 -0.7204,0.82032 -1.98242,0.82032 -1.26728,0 -1.98768,-0.82032 -0.71514,-0.82557 -0.71514,-2.27163 0,-1.45132 0.71514,-2.27163 0.7204,-0.82032 1.98768,-0.82032 z" />
    <path
       id="path171"
       style="fill:#ff0000"
       d="m 269.48227,118.82993 v 3.55468 h -0.96754 v -3.52313 q 0,-0.83609 -0.32603,-1.25151 -0.32602,-0.41541 -0.97806,-0.41541 -0.78351,0 -1.23573,0.49955 -0.45222,0.49955 -0.45222,1.36193 v 3.32857 h -0.97281 v -5.88942 h 0.97281 v 0.91496 q 0.34705,-0.5311 0.81505,-0.79402 0.47326,-0.26292 1.08849,-0.26292 1.01488,0 1.53546,0.63101 0.52058,0.62575 0.52058,1.84571 z" />
    <path
       id="path173"
       style="fill:#ff0000"
       d="m 272.37966,114.82301 v 1.67218 h 1.99294 v 0.75195 h -1.99294 v 3.19712 q 0,0.7204 0.19456,0.92548 0.19982,0.20508 0.80454,0.20508 h 0.99384 v 0.80979 h -0.99384 q -1.12004,0 -1.54598,-0.41541 -0.42593,-0.42067 -0.42593,-1.52494 v -3.19712 h -0.70988 v -0.75195 h 0.70988 v -1.67218 z" />
    <path
       id="path175"
       style="fill:#ff0000"
       d="m 280.68796,119.19801 v 0.47326 h -4.44862 q 0.0631,0.9991 0.59946,1.52494 0.54161,0.52058 1.5039,0.52058 0.5574,0 1.07798,-0.13671 0.52584,-0.13672 1.04116,-0.41016 v 0.91496 q -0.52058,0.22086 -1.06745,0.33654 -0.54688,0.11569 -1.10953,0.11569 -1.40925,0 -2.23482,-0.82032 -0.82032,-0.82031 -0.82032,-2.21905 0,-1.44606 0.77825,-2.29266 0.7835,-0.85187 2.10862,-0.85187 1.1884,0 1.87726,0.76773 0.69411,0.76247 0.69411,2.07707 z m -0.96755,-0.28395 q -0.0105,-0.79402 -0.44697,-1.26728 -0.43119,-0.47325 -1.14633,-0.47325 -0.8098,0 -1.29883,0.45748 -0.48377,0.45748 -0.55739,1.28831 z" />
    <path
       id="path177"
       style="fill:#ff0000"
       d="m 286.98227,116.49519 -2.12965,2.86584 2.24008,3.02358 h -1.14108 l -1.71424,-2.3137 -1.71424,2.3137 h -1.14108 l 2.28741,-3.08143 -2.09285,-2.80799 h 1.14108 l 1.56175,2.09811 1.56175,-2.09811 z" />
    <path
       id="path179"
       style="fill:#ff0000"
       d="m 289.41692,114.82301 v 1.67218 h 1.99294 v 0.75195 h -1.99294 v 3.19712 q 0,0.7204 0.19456,0.92548 0.19982,0.20508 0.80454,0.20508 h 0.99384 v 0.80979 h -0.99384 q -1.12004,0 -1.54597,-0.41541 -0.42594,-0.42067 -0.42594,-1.52494 v -3.19712 h -0.70988 v -0.75195 h 0.70988 v -1.67218 z" />
    <path
       id="path181"
       style="fill:#ff0000"
       d="m 294.94878,114.20252 v 9.60186 h -2.22957 v -0.75195 h 1.25676 v -8.09796 h -1.25676 v -0.75195 z" />
  </g>
  <g
     id="text89"
     style="font-size:24px;font-family:'DejaVu Sans', sans-serif;text-anchor:middle;fill:#000000"
     aria-label="Т">
    <path
       id="path184"
       style=""
       d="m 130.59375,279.50391 h 14.80078 v 1.99218 h -6.21094 V 297 h -2.3789 v -15.50391 h -6.21094 z" />
  </g>
  <g
     id="text93"
     style="font-size:24px;font-family:'DejaVu Sans', sans-serif;text-anchor:middle;fill:#000000"
     aria-label="Н">
    <path
       id="path187"
       style=""
       d="m 201.33203,279.50391 h 2.36719 v 7.17187 h 8.60156 v -7.17187 h 2.36719 V 297 h -2.36719 v -8.33203 h -8.60156 V 297 h -2.36719 z" />
  </g>
</svg>
