<?xml version="1.0" encoding="UTF-8" standalone="no"?>
<svg
   xmlns:dc="http://purl.org/dc/elements/1.1/"
   xmlns:cc="http://creativecommons.org/ns#"
   xmlns:rdf="http://www.w3.org/1999/02/22-rdf-syntax-ns#"
   xmlns:svg="http://www.w3.org/2000/svg"
   xmlns="http://www.w3.org/2000/svg"
   id="svg111"
   stroke-miterlimit="10"
   stroke-linecap="square"
   stroke="none"
   fill="none"
   viewBox="0.0 0.0 348.0 348.0"
   version="1.1">
  <metadata
     id="metadata117">
    <rdf:RDF>
      <cc:Work
         rdf:about="">
        <dc:format>image/svg+xml</dc:format>
        <dc:type
           rdf:resource="http://purl.org/dc/dcmitype/StillImage" />
      </cc:Work>
    </rdf:RDF>
  </metadata>
  <defs
     id="defs115" />
  <clipPath
     id="p.0">
    <path
       id="path2"
       clip-rule="nonzero"
       d="m0 0l348.0 0l0 348.0l-348.0 0l0 -348.0z" />
  </clipPath>
  <g
     id="g85"
     clip-path="url(#p.0)">
    <path
       style="fill:#000000;fill-opacity:0;fill-rule:evenodd"
       id="path5"
       d="M 0,0 H 348 V 348 H 0 Z" />
    <path
       style="fill:#ffffff;fill-rule:evenodd"
       id="path7"
       d="M -6,0 H 348.01575 V 347.9685 H -6 Z" />
    <path
       style="fill:#000000;fill-opacity:0;fill-rule:evenodd"
       id="path9"
       d="m 5.07874,5.7758217 h 336.9134 V 343.4451 H 5.07874 Z" />
    <path
       style="fill-rule:evenodd;stroke:#000000;stroke-width:2;stroke-linecap:butt;stroke-linejoin:round"
       id="path11"
       d="m 5.07874,5.7758217 h 336.9134 V 343.4451 H 5.07874 Z" />
    <path
       style="fill:#ffffff;fill-rule:evenodd"
       id="path13"
       d="m 282.73444,40.553925 v 0 c 0,-8.375591 6.96603,-15.165352 15.55905,-15.165352 v 0 c 4.12653,0 8.08402,1.597773 11.00192,4.441828 2.91788,2.844057 4.55713,6.701422 4.55713,10.723524 v 0 c 0,8.375595 -6.966,15.165356 -15.55905,15.165356 v 0 c -8.59302,0 -15.55905,-6.789761 -15.55905,-15.165356 z" />
    <path
       style="fill-rule:evenodd;stroke:#000000;stroke-width:2;stroke-linecap:butt;stroke-linejoin:round"
       id="path15"
       d="m 282.73444,40.553925 v 0 c 0,-8.375591 6.96603,-15.165352 15.55905,-15.165352 v 0 c 4.12653,0 8.08402,1.597773 11.00192,4.441828 2.91788,2.844057 4.55713,6.701422 4.55713,10.723524 v 0 c 0,8.375595 -6.966,15.165356 -15.55905,15.165356 v 0 c -8.59302,0 -15.55905,-6.789761 -15.55905,-15.165356 z" />
    <path
       style="fill:#000000;fill-rule:evenodd"
       id="path17"
       d="M 50.949955,90.04964 60.41452,72.726802 69.879089,90.04964 Z" />
    <path
       style="fill-rule:evenodd;stroke:#000000;stroke-width:2;stroke-linecap:butt;stroke-linejoin:round"
       id="path19"
       d="M 50.949955,90.04964 60.41452,72.726802 69.879089,90.04964 Z" />
    <path
       style="fill:#000000;fill-opacity:0;fill-rule:evenodd"
       id="path21"
       d="m 122.04724,268.00525 h 97.92126 v 41.88977 h -97.92126 z" />
    <path
       style="fill-rule:evenodd;stroke:#000000;stroke-width:2;stroke-linecap:butt;stroke-linejoin:round"
       id="path23"
       d="m 122.04724,268.00525 h 97.92126 v 41.88977 h -97.92126 z" />
    <path
       style="fill:#000000;fill-rule:evenodd"
       id="path25"
       d="M 29.517061,106.30446 H 289.61154 v 96.81889 H 29.517061 Z" />
    <path
       style="fill-rule:evenodd;stroke:#000000;stroke-width:2;stroke-linecap:butt;stroke-linejoin:round"
       id="path27"
       d="M 29.517061,106.30446 H 289.61154 v 96.81889 H 29.517061 Z" />
    <path
       style="fill:#ffffff;fill-rule:evenodd"
       id="path29"
       d="m 35.627296,113.07874 h 49.574806 v 82.14173 H 35.627296 Z" />
    <path
       style="fill-rule:evenodd;stroke:#000000;stroke-width:1;stroke-linecap:butt;stroke-linejoin:round"
       id="path31"
       d="m 35.627296,113.07874 h 49.574806 v 82.14173 H 35.627296 Z" />
    <path
       style="fill:#ffffff;fill-rule:evenodd"
       id="path33"
       d="m 85.2021,113.07874 h 49.5748 v 82.14173 H 85.2021 Z" />
    <path
       style="fill-rule:evenodd;stroke:#000000;stroke-width:1;stroke-linecap:butt;stroke-linejoin:round"
       id="path35"
       d="m 85.2021,113.07874 h 49.5748 v 82.14173 H 85.2021 Z" />
    <path
       style="fill:#ffffff;fill-rule:evenodd"
       id="path37"
       d="m 134.77843,113.07874 h 49.5748 v 82.14173 h -49.5748 z" />
    <path
       style="fill-rule:evenodd;stroke:#000000;stroke-width:1;stroke-linecap:butt;stroke-linejoin:round"
       id="path39"
       d="m 134.77843,113.07874 h 49.5748 v 82.14173 h -49.5748 z" />
    <path
       style="fill:#ffffff;fill-rule:evenodd"
       id="path41"
       d="m 184.35214,113.07874 h 49.5748 v 82.14173 h -49.5748 z" />
    <path
       style="fill-rule:evenodd;stroke:#000000;stroke-width:1;stroke-linecap:butt;stroke-linejoin:round"
       id="path43"
       d="m 184.35214,113.07874 h 49.5748 v 82.14173 h -49.5748 z" />
    <path
       style="fill:#ffffff;fill-rule:evenodd"
       id="path45"
       d="m 233.9265,113.07874 h 49.57481 v 82.14173 H 233.9265 Z" />
    <path
       style="fill-rule:evenodd;stroke:#000000;stroke-width:1;stroke-linecap:butt;stroke-linejoin:round"
       id="path47"
       d="m 233.9265,113.07874 h 49.57481 v 82.14173 H 233.9265 Z" />
    <path
       style="fill:#000000;fill-rule:evenodd"
       id="path49"
       d="m 100.52476,90.04964 9.46457,-17.322838 9.46457,17.322838 z" />
    <path
       style="fill-rule:evenodd;stroke:#000000;stroke-width:2;stroke-linecap:butt;stroke-linejoin:round"
       id="path51"
       d="m 100.52476,90.04964 9.46457,-17.322838 9.46457,17.322838 z" />
    <path
       style="fill:#000000;fill-rule:evenodd"
       id="path53"
       d="m 150.09956,90.04964 9.46457,-17.322838 9.46457,17.322838 z" />
    <path
       style="fill-rule:evenodd;stroke:#000000;stroke-width:2;stroke-linecap:butt;stroke-linejoin:round"
       id="path55"
       d="m 150.09956,90.04964 9.46457,-17.322838 9.46457,17.322838 z" />
    <path
       style="fill:#000000;fill-rule:evenodd"
       id="path57"
       d="m 199.67436,90.04964 9.46457,-17.322838 9.46457,17.322838 z" />
    <path
       style="fill-rule:evenodd;stroke:#000000;stroke-width:2;stroke-linecap:butt;stroke-linejoin:round"
       id="path59"
       d="m 199.67436,90.04964 9.46457,-17.322838 9.46457,17.322838 z" />
    <path
       style="fill:#000000;fill-rule:evenodd"
       id="path61"
       d="m 249.24916,90.04964 9.46458,-17.322838 9.46457,17.322838 z" />
    <path
       style="fill-rule:evenodd;stroke:#000000;stroke-width:2;stroke-linecap:butt;stroke-linejoin:round"
       id="path63"
       d="m 249.24916,90.04964 9.46458,-17.322838 9.46457,17.322838 z" />
    <path
       style="fill:#000000;fill-rule:evenodd"
       id="path65"
       d="m 268.1783,219.37772 -9.46457,17.32285 -9.46458,-17.32285 z" />
    <path
       style="fill-rule:evenodd;stroke:#000000;stroke-width:2;stroke-linecap:butt;stroke-linejoin:round"
       id="path67"
       d="m 268.1783,219.37772 -9.46457,17.32285 -9.46458,-17.32285 z" />
    <path
       style="fill:#000000;fill-rule:evenodd"
       id="path69"
       d="m 218.6035,219.37772 -9.46457,17.32285 -9.46457,-17.32285 z" />
    <path
       style="fill-rule:evenodd;stroke:#000000;stroke-width:2;stroke-linecap:butt;stroke-linejoin:round"
       id="path71"
       d="m 218.6035,219.37772 -9.46457,17.32285 -9.46457,-17.32285 z" />
    <path
       style="fill:#000000;fill-rule:evenodd"
       id="path73"
       d="m 169.0287,219.37772 -9.46457,17.32285 -9.46457,-17.32285 z" />
    <path
       style="fill-rule:evenodd;stroke:#000000;stroke-width:2;stroke-linecap:butt;stroke-linejoin:round"
       id="path75"
       d="m 169.0287,219.37772 -9.46457,17.32285 -9.46457,-17.32285 z" />
    <path
       style="fill:#000000;fill-rule:evenodd"
       id="path77"
       d="m 119.4539,219.37772 -9.46457,17.32285 -9.46457,-17.32285 z" />
    <path
       style="fill-rule:evenodd;stroke:#000000;stroke-width:2;stroke-linecap:butt;stroke-linejoin:round"
       id="path79"
       d="m 119.4539,219.37772 -9.46457,17.32285 -9.46457,-17.32285 z" />
    <path
       style="fill:#000000;fill-rule:evenodd"
       id="path81"
       d="m 69.87909,219.37772 -9.464569,17.32285 -9.464565,-17.32285 z" />
    <path
       style="fill-rule:evenodd;stroke:#000000;stroke-width:2;stroke-linecap:butt;stroke-linejoin:round"
       id="path83"
       d="m 69.87909,219.37772 -9.464569,17.32285 -9.464565,-17.32285 z" />
  </g>
  <g
     id="text89"
     style="font-size:20px;font-family:'DejaVu Sans', sans-serif;text-anchor:middle;fill:#000000"
     aria-label="Прийняти">
    <path
       id="path119"
       style=""
       d="M 132.31836,281.41992 V 296 h -1.97266 v -12.91992 h -7.16797 V 296 h -1.97265 v -14.58008 z" />
    <path
       id="path121"
       style=""
       d="m 137.9043,294.35938 v 5.80078 h -1.80664 V 285.0625 h 1.80664 v 1.66016 q 0.5664,-0.97657 1.42578,-1.44532 0.86914,-0.47851 2.07031,-0.47851 1.99219,0 3.23242,1.58203 1.25,1.58203 1.25,4.16016 0,2.57812 -1.25,4.16015 -1.24023,1.58203 -3.23242,1.58203 -1.20117,0 -2.07031,-0.46875 -0.85938,-0.47851 -1.42578,-1.45507 z m 6.11328,-3.81836 q 0,-1.98243 -0.82031,-3.10547 -0.81055,-1.13282 -2.23633,-1.13282 -1.42578,0 -2.2461,1.13282 -0.81054,1.12304 -0.81054,3.10547 0,1.98242 0.81054,3.11523 0.82032,1.12305 2.2461,1.12305 1.42578,0 2.23633,-1.12305 0.82031,-1.13281 0.82031,-3.11523 z" />
    <path
       id="path123"
       style=""
       d="M 158.1582,285.0625 V 296 h -1.78711 v -8.7793 L 151.09766,296 h -2.30469 v -10.9375 h 1.78711 v 8.75977 l 5.26367,-8.75977 z" />
    <path
       id="path125"
       style=""
       d="M 171.16602,285.0625 V 296 h -1.78711 v -8.7793 L 164.10547,296 h -2.30469 v -10.9375 h 1.78711 v 8.75977 l 5.26367,-8.75977 z m -7.73438,-4.25781 h 1.15234 q 0.10743,0.73242 0.57618,1.10351 0.47851,0.36133 1.32812,0.36133 0.83985,0 1.3086,-0.36133 0.46875,-0.36132 0.5957,-1.10351 h 1.15234 q -0.0976,1.39648 -0.86914,2.09961 -0.77148,0.70312 -2.1875,0.70312 -1.41601,0 -2.1875,-0.70312 -0.77148,-0.70313 -0.86914,-2.09961 z" />
    <path
       id="path127"
       style=""
       d="m 174.80859,285.0625 h 1.80664 v 4.46289 h 5.83008 v -4.46289 h 1.80664 V 296 h -1.80664 v -5.03906 h -5.83008 V 296 h -1.80664 z" />
    <path
       id="path129"
       style=""
       d="m 189.76953,288.2168 q 0,0.81054 0.625,1.26953 0.625,0.45898 1.78711,0.45898 h 2.42188 v -3.44726 h -2.42188 q -1.16211,0 -1.78711,0.44922 -0.625,0.44921 -0.625,1.26953 z m -2.55859,7.7832 3.33984,-4.79492 q -1.13281,-0.25391 -1.88476,-0.91797 -0.75196,-0.67383 -0.75196,-2.07031 0,-1.58203 1.04492,-2.36328 1.05469,-0.79102 3.17383,-0.79102 h 4.27735 V 296 h -1.80664 v -4.61914 h -2.23633 L 189.14453,296 Z" />
    <path
       id="path131"
       style=""
       d="m 198.69531,285.0625 h 10.47852 v 1.43555 h -4.35547 V 296 h -1.76758 v -9.50195 h -4.35547 z" />
    <path
       id="path133"
       style=""
       d="M 220.93164,285.0625 V 296 h -1.78711 v -8.7793 L 213.87109,296 h -2.30468 v -10.9375 h 1.78711 v 8.75977 l 5.26367,-8.75977 z" />
  </g>
  <g
     id="text93"
     style="font-size:42px;font-family:'DejaVu Sans', sans-serif;text-anchor:middle;fill:#000000"
     aria-label="А">
    <path
       id="path136"
       style=""
       d="m 60,143.46289 -5.619141,15.23731 h 11.258789 z m -2.337891,-4.08105 h 4.696289 L 74.027344,170 h -4.306641 l -2.789062,-7.85449 H 53.129883 L 50.34082,170 h -4.368164 z" />
  </g>
  <g
     id="text97"
     style="font-size:42px;font-family:'DejaVu Sans', sans-serif;text-anchor:middle;fill:#000000"
     aria-label="А">
    <path
       id="path139"
       style=""
       d="m 110,143.46289 -5.61914,15.23731 h 11.25879 z m -2.33789,-4.08105 h 4.69629 L 124.02734,170 h -4.30664 l -2.78906,-7.85449 H 103.12988 L 100.34082,170 h -4.368164 z" />
  </g>
  <g
     id="text101"
     style="font-size:42px;font-family:'DejaVu Sans', sans-serif;text-anchor:middle;fill:#000000"
     aria-label="А">
    <path
       id="path142"
       style=""
       d="m 160,143.46289 -5.61914,15.23731 h 11.25879 z m -2.33789,-4.08105 h 4.69629 L 174.02734,170 h -4.30664 l -2.78906,-7.85449 H 153.12988 L 150.34082,170 h -4.36816 z" />
  </g>
  <g
     id="text105"
     style="font-size:42px;font-family:'DejaVu Sans', sans-serif;text-anchor:middle;fill:#000000"
     aria-label="А">
    <path
       id="path145"
       style=""
       d="m 210,143.46289 -5.61914,15.23731 h 11.25879 z m -2.33789,-4.08105 h 4.69629 L 224.02734,170 h -4.30664 l -2.78906,-7.85449 H 203.12988 L 200.34082,170 h -4.36816 z" />
  </g>
  <g
     id="text109"
     style="font-size:42px;font-family:'DejaVu Sans', sans-serif;text-anchor:middle;fill:#000000"
     aria-label="А">
    <path
       id="path148"
       style=""
       d="m 260,143.46289 -5.61914,15.23731 h 11.25879 z m -2.33789,-4.08105 h 4.69629 L 274.02734,170 h -4.30664 l -2.78906,-7.85449 H 253.12988 L 250.34082,170 h -4.36816 z" />
  </g>
</svg>
