<?xml version="1.0" encoding="UTF-8" standalone="no"?>
<svg
   xmlns:dc="http://purl.org/dc/elements/1.1/"
   xmlns:cc="http://creativecommons.org/ns#"
   xmlns:rdf="http://www.w3.org/1999/02/22-rdf-syntax-ns#"
   xmlns:svg="http://www.w3.org/2000/svg"
   xmlns="http://www.w3.org/2000/svg"
   id="svg89"
   stroke-miterlimit="10"
   stroke-linecap="square"
   stroke="none"
   fill="none"
   viewBox="0.0 0.0 348.0 348.0"
   version="1.1">
  <metadata
     id="metadata95">
    <rdf:RDF>
      <cc:Work
         rdf:about="">
        <dc:format>image/svg+xml</dc:format>
        <dc:type
           rdf:resource="http://purl.org/dc/dcmitype/StillImage" />
      </cc:Work>
    </rdf:RDF>
  </metadata>
  <defs
     id="defs93" />
  <clipPath
     id="p.0">
    <path
       id="path2"
       clip-rule="nonzero"
       d="m0 0l348.0 0l0 348.0l-348.0 0l0 -348.0z" />
  </clipPath>
  <g
     id="g59"
     clip-path="url(#p.0)">
    <path
       id="path5"
       fill-rule="nonzero"
       d="M 0,0 H 348 V 348 H 0 Z"
       fill-opacity="0"
       fill="#000000" />
    <path
       id="path7"
       fill-rule="nonzero"
       d="M -6,0 H 342 V 347.9685 H -6 Z"
       fill="#ffffff" />
    <path
       id="path9"
       fill-rule="nonzero"
       d="m 5.07874,5.7758217 h 336.9134 V 343.44512 H 5.07874 Z"
       fill-opacity="0"
       fill="#000000" />
    <path
       id="path11"
       fill-rule="nonzero"
       d="m 5.07874,5.7758217 h 336.9134 V 343.44512 H 5.07874 Z"
       stroke-linecap="butt"
       stroke-linejoin="round"
       stroke-width="2"
       stroke="#000000" />
    <path
       id="path13"
       fill-rule="nonzero"
       d="m 282.73444,40.553925 v 0 c 0,-8.375591 6.96603,-15.165352 15.55905,-15.165352 v 0 c 4.12653,0 8.08402,1.597773 11.00192,4.441828 2.91788,2.844057 4.55713,6.701422 4.55713,10.723524 v 0 c 0,8.375595 -6.966,15.165356 -15.55905,15.165356 v 0 c -8.59302,0 -15.55905,-6.789761 -15.55905,-15.165356 z"
       fill="#ffffff" />
    <path
       id="path15"
       fill-rule="nonzero"
       d="m 282.73444,40.553925 v 0 c 0,-8.375591 6.96603,-15.165352 15.55905,-15.165352 v 0 c 4.12653,0 8.08402,1.597773 11.00192,4.441828 2.91788,2.844057 4.55713,6.701422 4.55713,10.723524 v 0 c 0,8.375595 -6.966,15.165356 -15.55905,15.165356 v 0 c -8.59302,0 -15.55905,-6.789761 -15.55905,-15.165356 z"
       stroke-linecap="butt"
       stroke-linejoin="round"
       stroke-width="2"
       stroke="#000000" />
    <path
       id="path17"
       fill-rule="nonzero"
       d="M 34.771652,25.389738 H 267.18112 v 67.55905 H 34.771652 Z"
       fill="#000000" />
    <path
       id="path19"
       fill-rule="nonzero"
       d="M 34.771652,25.389738 H 267.18112 v 67.55905 H 34.771652 Z"
       stroke-linecap="butt"
       stroke-linejoin="round"
       stroke-width="2"
       stroke="#000000" />
    <path
       id="path21"
       fill-rule="nonzero"
       d="M 34.771652,202.31795 H 141.41733 v 44.81891 H 34.771652 Z"
       stroke-linecap="butt"
       stroke-linejoin="round"
       stroke-width="1"
       stroke="#000000" />
    <path
       id="path23"
       fill-rule="nonzero"
       d="M 34.771652,125.22639 H 141.41733 v 44.8189 H 34.771652 Z"
       fill-opacity="0"
       fill="#000000" />
    <path
       id="path25"
       fill-rule="nonzero"
       d="M 34.771652,125.22639 H 141.41733 v 44.8189 H 34.771652 Z"
       stroke-linecap="butt"
       stroke-linejoin="round"
       stroke-width="1"
       stroke="#000000" />
    <path
       id="path27"
       fill-rule="nonzero"
       d="M 34.771652,270.60397 H 141.41733 v 44.81891 H 34.771652 Z"
       fill-opacity="0"
       fill="#000000" />
    <path
       id="path29"
       fill-rule="nonzero"
       d="M 34.771652,270.60397 H 141.41733 v 44.81891 H 34.771652 Z"
       stroke-linecap="butt"
       stroke-linejoin="round"
       stroke-width="1"
       stroke="#000000" />
    <path
       id="path31"
       fill-rule="nonzero"
       d="m 157.40683,202.31795 h 106.64566 v 44.81891 H 157.40683 Z"
       fill-opacity="0"
       fill="#000000" />
    <path
       id="path33"
       fill-rule="nonzero"
       d="m 157.40683,202.31795 h 106.64566 v 44.81891 H 157.40683 Z"
       stroke-linecap="butt"
       stroke-linejoin="round"
       stroke-width="1"
       stroke="#000000" />
    <path
       id="path35"
       fill-rule="nonzero"
       d="m 157.40683,125.22639 h 106.64566 v 44.8189 H 157.40683 Z"
       fill-opacity="0"
       fill="#000000" />
    <path
       id="path37"
       fill-rule="nonzero"
       d="m 157.40683,125.22639 h 106.64566 v 44.8189 H 157.40683 Z"
       stroke-linecap="butt"
       stroke-linejoin="round"
       stroke-width="1"
       stroke="#000000" />
    <path
       id="path39"
       fill-rule="nonzero"
       d="m 157.40683,270.60397 h 106.64566 v 44.81891 H 157.40683 Z"
       fill-opacity="0"
       fill="#000000" />
    <path
       id="path41"
       fill-rule="nonzero"
       d="m 157.40683,270.60397 h 106.64566 v 44.81891 H 157.40683 Z"
       stroke-linecap="butt"
       stroke-linejoin="round"
       stroke-width="1"
       stroke="#000000" />
    <path
       id="path43"
       fill-rule="nonzero"
       d="m 277.46194,106.3832 h 52.66141 v 209.03937 h -52.66141 z"
       fill="#000000" />
    <path
       id="path45"
       fill-rule="nonzero"
       d="m 277.46194,106.3832 h 52.66141 v 209.03937 h -52.66141 z"
       stroke-linecap="butt"
       stroke-linejoin="round"
       stroke-width="2"
       stroke="#000000" />
    <path
       id="path47"
       fill-rule="nonzero"
       d="m 290.06036,245.11285 h 27.46457 v 16.47244 h -27.46457 z"
       fill="#ffffff" />
    <path
       id="path49"
       fill-rule="nonzero"
       d="m 290.06036,245.11285 h 27.46457 v 16.47244 h -27.46457 z"
       stroke-linecap="butt"
       stroke-linejoin="round"
       stroke-width="2"
       stroke="#000000" />
    <path
       id="path51"
       fill-rule="nonzero"
       d="m 290.06036,208.9029 h 27.46457 v 16.47243 h -27.46457 z"
       fill="#ffffff" />
    <path
       id="path53"
       fill-rule="nonzero"
       d="m 290.06036,208.9029 h 27.46457 v 16.47243 h -27.46457 z"
       stroke-linecap="butt"
       stroke-linejoin="round"
       stroke-width="2"
       stroke="#000000" />
    <path
       id="path55"
       fill-rule="nonzero"
       d="m 290.06036,281.32285 h 27.46457 v 16.47244 h -27.46457 z"
       fill="#ffffff" />
    <path
       id="path57"
       fill-rule="nonzero"
       d="m 290.06036,281.32285 h 27.46457 v 16.47244 h -27.46457 z"
       stroke-linecap="butt"
       stroke-linejoin="round"
       stroke-width="2"
       stroke="#000000" />
  </g>
  <g
     style="font-size:32px;font-family:'DejaVu Sans', sans-serif;text-anchor:middle;fill:#ffffff"
     id="text63"
     aria-label="[ ЕКРАН ]">
    <path
       id="path97"
       d="m 75.9375,45.6875 h 6.625 v 2.234375 h -3.75 v 24.0625 h 3.75 v 2.234375 h -6.625 z" />
    <path
       id="path99"
       d="m 99.015625,46.671875 h 14.750005 v 2.65625 h -11.59375 v 6.90625 h 11.10937 v 2.65625 h -11.10937 v 8.453125 h 11.875 V 70 H 99.015625 Z" />
    <path
       id="path101"
       d="m 119.26563,46.671875 h 3.15625 v 11.53125 l 11.28124,-11.53125 H 137.75 l -9.01563,9.21875 L 138.21875,70 h -3.4375 L 126.6875,57.984375 122.42188,62.34375 V 70 h -3.15625 z" />
    <path
       id="path103"
       d="m 145.17187,49.265625 v 8.765625 h 3.96875 q 2.20313,0 3.40625,-1.140625 1.20313,-1.140625 1.20313,-3.25 0,-2.09375 -1.20313,-3.234375 -1.20312,-1.140625 -3.40625,-1.140625 z m -3.15625,-2.59375 h 7.125 q 3.92188,0 5.92188,1.78125 2.01562,1.765625 2.01562,5.1875 0,3.453125 -2.01562,5.21875 -2,1.765625 -5.92188,1.765625 h -3.96875 V 70 h -3.15625 z" />
    <path
       id="path105"
       d="m 169.125,49.78125 -4.28125,11.609375 h 8.57812 z m -1.78125,-3.109375 h 3.57812 L 179.8125,70 h -3.28125 l -2.125,-5.984375 H 163.89062 L 161.76562,70 h -3.32812 z" />
    <path
       id="path107"
       d="m 183.20312,46.671875 h 3.15625 v 9.5625 h 11.46875 v -9.5625 h 3.15625 V 70 h -3.15625 V 58.890625 H 186.35937 V 70 h -3.15625 z" />
    <path
       id="path109"
       d="m 224.04687,45.6875 v 28.53125 h -6.625 v -2.234375 h 3.73438 v -24.0625 h -3.73438 V 45.6875 Z" />
  </g>
  <g
     style="font-size:20px;font-family:'DejaVu Sans', sans-serif;text-anchor:middle;fill:#000000"
     id="text67"
     aria-label="[ ТЕКСТ ]">
    <path
       id="path112"
       d="m 41.882812,138.80469 h 4.140625 v 1.39648 h -2.34375 v 15.03906 h 2.34375 v 1.39649 h -4.140625 z" />
    <path
       id="path114"
       d="m 54.285156,139.41992 h 12.333985 v 1.66016 H 61.443359 V 154 h -1.982422 v -12.91992 h -5.175781 z" />
    <path
       id="path116"
       d="m 68.533203,139.41992 h 9.21875 v 1.66016 h -7.246094 v 4.3164 h 6.94336 v 1.66016 h -6.94336 v 5.2832 h 7.421875 V 154 h -9.394531 z" />
    <path
       id="path118"
       d="m 81.189453,139.41992 h 1.972656 v 7.20703 l 7.050782,-7.20703 h 2.529296 L 87.107422,145.18164 93.035156,154 h -2.148437 l -5.058594,-7.50977 -2.666016,2.72461 V 154 h -1.972656 z" />
    <path
       id="path120"
       d="m 106.32617,140.54297 v 2.08008 q -0.99609,-0.92774 -2.1289,-1.38672 -1.12305,-0.45899 -2.39258,-0.45899 -2.500003,0 -3.828128,1.53321 -1.328125,1.52343 -1.328125,4.41406 0,2.88086 1.328125,4.41406 1.328125,1.52344 3.828128,1.52344 1.26953,0 2.39258,-0.45899 1.13281,-0.45898 2.1289,-1.38671 v 2.06054 q -1.03515,0.70313 -2.19726,1.05469 -1.15235,0.35156 -2.44141,0.35156 -3.310547,0 -5.214844,-2.02148 -1.904297,-2.03125 -1.904297,-5.53711 0,-3.51563 1.904297,-5.53711 1.904297,-2.03125 5.214844,-2.03125 1.30859,0 2.46094,0.35156 1.16211,0.3418 2.17773,1.03516 z" />
    <path
       id="path122"
       d="m 107.37109,139.41992 h 12.33399 v 1.66016 H 114.5293 V 154 h -1.98242 v -12.91992 h -5.17579 z" />
    <path
       id="path124"
       d="m 132.10742,138.80469 v 17.83203 h -4.14062 v -1.39649 h 2.33398 v -15.03906 h -2.33398 v -1.39648 z" />
  </g>
  <g
     style="font-size:20px;font-family:'DejaVu Sans', sans-serif;text-anchor:middle;fill:#000000"
     id="text71"
     aria-label="[ ТЕКСТ ]">
    <path
       id="path127"
       d="m 41.882812,215.80469 h 4.140625 v 1.39648 h -2.34375 v 15.03906 h 2.34375 v 1.39649 h -4.140625 z" />
    <path
       id="path129"
       d="m 54.285156,216.41992 h 12.333985 v 1.66016 H 61.443359 V 231 h -1.982422 v -12.91992 h -5.175781 z" />
    <path
       id="path131"
       d="m 68.533203,216.41992 h 9.21875 v 1.66016 h -7.246094 v 4.3164 h 6.94336 v 1.66016 h -6.94336 v 5.2832 h 7.421875 V 231 h -9.394531 z" />
    <path
       id="path133"
       d="m 81.189453,216.41992 h 1.972656 v 7.20703 l 7.050782,-7.20703 h 2.529296 L 87.107422,222.18164 93.035156,231 h -2.148437 l -5.058594,-7.50977 -2.666016,2.72461 V 231 h -1.972656 z" />
    <path
       id="path135"
       d="m 106.32617,217.54297 v 2.08008 q -0.99609,-0.92774 -2.1289,-1.38672 -1.12305,-0.45899 -2.39258,-0.45899 -2.500003,0 -3.828128,1.53321 -1.328125,1.52343 -1.328125,4.41406 0,2.88086 1.328125,4.41406 1.328125,1.52344 3.828128,1.52344 1.26953,0 2.39258,-0.45899 1.13281,-0.45898 2.1289,-1.38671 v 2.06054 q -1.03515,0.70313 -2.19726,1.05469 -1.15235,0.35156 -2.44141,0.35156 -3.310547,0 -5.214844,-2.02148 -1.904297,-2.03125 -1.904297,-5.53711 0,-3.51563 1.904297,-5.53711 1.904297,-2.03125 5.214844,-2.03125 1.30859,0 2.46094,0.35156 1.16211,0.3418 2.17773,1.03516 z" />
    <path
       id="path137"
       d="m 107.37109,216.41992 h 12.33399 v 1.66016 H 114.5293 V 231 h -1.98242 v -12.91992 h -5.17579 z" />
    <path
       id="path139"
       d="m 132.10742,215.80469 v 17.83203 h -4.14062 v -1.39649 h 2.33398 v -15.03906 h -2.33398 v -1.39648 z" />
  </g>
  <g
     style="font-size:20px;font-family:'DejaVu Sans', sans-serif;text-anchor:middle;fill:#000000"
     id="text75"
     aria-label="[ ТЕКСТ ]">
    <path
       id="path142"
       d="m 41.882812,283.80469 h 4.140625 v 1.39648 h -2.34375 v 15.03906 h 2.34375 v 1.39649 h -4.140625 z" />
    <path
       id="path144"
       d="m 54.285156,284.41992 h 12.333985 v 1.66016 H 61.443359 V 299 h -1.982422 v -12.91992 h -5.175781 z" />
    <path
       id="path146"
       d="m 68.533203,284.41992 h 9.21875 v 1.66016 h -7.246094 v 4.3164 h 6.94336 v 1.66016 h -6.94336 v 5.2832 h 7.421875 V 299 h -9.394531 z" />
    <path
       id="path148"
       d="m 81.189453,284.41992 h 1.972656 v 7.20703 l 7.050782,-7.20703 h 2.529296 L 87.107422,290.18164 93.035156,299 h -2.148437 l -5.058594,-7.50977 -2.666016,2.72461 V 299 h -1.972656 z" />
    <path
       id="path150"
       d="m 106.32617,285.54297 v 2.08008 q -0.99609,-0.92774 -2.1289,-1.38672 -1.12305,-0.45899 -2.39258,-0.45899 -2.500003,0 -3.828128,1.53321 -1.328125,1.52343 -1.328125,4.41406 0,2.88086 1.328125,4.41406 1.328125,1.52344 3.828128,1.52344 1.26953,0 2.39258,-0.45899 1.13281,-0.45898 2.1289,-1.38671 v 2.06054 q -1.03515,0.70313 -2.19726,1.05469 -1.15235,0.35156 -2.44141,0.35156 -3.310547,0 -5.214844,-2.02148 -1.904297,-2.03125 -1.904297,-5.53711 0,-3.51563 1.904297,-5.53711 1.904297,-2.03125 5.214844,-2.03125 1.30859,0 2.46094,0.35156 1.16211,0.3418 2.17773,1.03516 z" />
    <path
       id="path152"
       d="m 107.37109,284.41992 h 12.33399 v 1.66016 H 114.5293 V 299 h -1.98242 v -12.91992 h -5.17579 z" />
    <path
       id="path154"
       d="m 132.10742,283.80469 v 17.83203 h -4.14062 v -1.39649 h 2.33398 v -15.03906 h -2.33398 v -1.39648 z" />
  </g>
  <g
     style="font-size:20px;font-family:'DejaVu Sans', sans-serif;text-anchor:middle;fill:#000000"
     id="text79"
     aria-label="[ ТЕКСТ ]">
    <path
       id="path157"
       d="m 164.88281,138.80469 h 4.14063 v 1.39648 h -2.34375 v 15.03906 h 2.34375 v 1.39649 h -4.14063 z" />
    <path
       id="path159"
       d="m 177.28516,139.41992 h 12.33398 v 1.66016 h -5.17578 V 154 h -1.98242 v -12.91992 h -5.17578 z" />
    <path
       id="path161"
       d="m 191.5332,139.41992 h 9.21875 v 1.66016 h -7.24609 v 4.3164 h 6.94336 v 1.66016 h -6.94336 v 5.2832 h 7.42187 V 154 h -9.39453 z" />
    <path
       id="path163"
       d="m 204.18945,139.41992 h 1.97266 v 7.20703 l 7.05078,-7.20703 h 2.5293 l -5.63477,5.76172 5.92774,8.81836 h -2.14844 l -5.0586,-7.50977 -2.66601,2.72461 V 154 h -1.97266 z" />
    <path
       id="path165"
       d="m 229.32617,140.54297 v 2.08008 q -0.99609,-0.92774 -2.1289,-1.38672 -1.12305,-0.45899 -2.39258,-0.45899 -2.5,0 -3.82813,1.53321 -1.32812,1.52343 -1.32812,4.41406 0,2.88086 1.32812,4.41406 1.32813,1.52344 3.82813,1.52344 1.26953,0 2.39258,-0.45899 1.13281,-0.45898 2.1289,-1.38671 v 2.06054 q -1.03515,0.70313 -2.19726,1.05469 -1.15235,0.35156 -2.44141,0.35156 -3.31055,0 -5.21484,-2.02148 -1.9043,-2.03125 -1.9043,-5.53711 0,-3.51563 1.9043,-5.53711 1.90429,-2.03125 5.21484,-2.03125 1.30859,0 2.46094,0.35156 1.16211,0.3418 2.17773,1.03516 z" />
    <path
       id="path167"
       d="m 230.37109,139.41992 h 12.33399 v 1.66016 H 237.5293 V 154 h -1.98243 v -12.91992 h -5.17578 z" />
    <path
       id="path169"
       d="m 255.10742,138.80469 v 17.83203 h -4.14062 v -1.39649 h 2.33398 v -15.03906 h -2.33398 v -1.39648 z" />
  </g>
  <g
     style="font-size:20px;font-family:'DejaVu Sans', sans-serif;text-anchor:middle;fill:#000000"
     id="text83"
     aria-label="[ ТЕКСТ ]">
    <path
       id="path172"
       d="m 164.88281,215.80469 h 4.14063 v 1.39648 h -2.34375 v 15.03906 h 2.34375 v 1.39649 h -4.14063 z" />
    <path
       id="path174"
       d="m 177.28516,216.41992 h 12.33398 v 1.66016 h -5.17578 V 231 h -1.98242 v -12.91992 h -5.17578 z" />
    <path
       id="path176"
       d="m 191.5332,216.41992 h 9.21875 v 1.66016 h -7.24609 v 4.3164 h 6.94336 v 1.66016 h -6.94336 v 5.2832 h 7.42187 V 231 h -9.39453 z" />
    <path
       id="path178"
       d="m 204.18945,216.41992 h 1.97266 v 7.20703 l 7.05078,-7.20703 h 2.5293 l -5.63477,5.76172 5.92774,8.81836 h -2.14844 l -5.0586,-7.50977 -2.66601,2.72461 V 231 h -1.97266 z" />
    <path
       id="path180"
       d="m 229.32617,217.54297 v 2.08008 q -0.99609,-0.92774 -2.1289,-1.38672 -1.12305,-0.45899 -2.39258,-0.45899 -2.5,0 -3.82813,1.53321 -1.32812,1.52343 -1.32812,4.41406 0,2.88086 1.32812,4.41406 1.32813,1.52344 3.82813,1.52344 1.26953,0 2.39258,-0.45899 1.13281,-0.45898 2.1289,-1.38671 v 2.06054 q -1.03515,0.70313 -2.19726,1.05469 -1.15235,0.35156 -2.44141,0.35156 -3.31055,0 -5.21484,-2.02148 -1.9043,-2.03125 -1.9043,-5.53711 0,-3.51563 1.9043,-5.53711 1.90429,-2.03125 5.21484,-2.03125 1.30859,0 2.46094,0.35156 1.16211,0.3418 2.17773,1.03516 z" />
    <path
       id="path182"
       d="m 230.37109,216.41992 h 12.33399 v 1.66016 H 237.5293 V 231 h -1.98243 v -12.91992 h -5.17578 z" />
    <path
       id="path184"
       d="m 255.10742,215.80469 v 17.83203 h -4.14062 v -1.39649 h 2.33398 v -15.03906 h -2.33398 v -1.39648 z" />
  </g>
  <g
     style="font-size:20px;font-family:'DejaVu Sans', sans-serif;text-anchor:middle;fill:#000000"
     id="text87"
     aria-label="[ ТЕКСТ ]">
    <path
       id="path187"
       d="m 164.88281,283.80469 h 4.14063 v 1.39648 h -2.34375 v 15.03906 h 2.34375 v 1.39649 h -4.14063 z" />
    <path
       id="path189"
       d="m 177.28516,284.41992 h 12.33398 v 1.66016 h -5.17578 V 299 h -1.98242 v -12.91992 h -5.17578 z" />
    <path
       id="path191"
       d="m 191.5332,284.41992 h 9.21875 v 1.66016 h -7.24609 v 4.3164 h 6.94336 v 1.66016 h -6.94336 v 5.2832 h 7.42187 V 299 h -9.39453 z" />
    <path
       id="path193"
       d="m 204.18945,284.41992 h 1.97266 v 7.20703 l 7.05078,-7.20703 h 2.5293 l -5.63477,5.76172 5.92774,8.81836 h -2.14844 l -5.0586,-7.50977 -2.66601,2.72461 V 299 h -1.97266 z" />
    <path
       id="path195"
       d="m 229.32617,285.54297 v 2.08008 q -0.99609,-0.92774 -2.1289,-1.38672 -1.12305,-0.45899 -2.39258,-0.45899 -2.5,0 -3.82813,1.53321 -1.32812,1.52343 -1.32812,4.41406 0,2.88086 1.32812,4.41406 1.32813,1.52344 3.82813,1.52344 1.26953,0 2.39258,-0.45899 1.13281,-0.45898 2.1289,-1.38671 v 2.06054 q -1.03515,0.70313 -2.19726,1.05469 -1.15235,0.35156 -2.44141,0.35156 -3.31055,0 -5.21484,-2.02148 -1.9043,-2.03125 -1.9043,-5.53711 0,-3.51563 1.9043,-5.53711 1.90429,-2.03125 5.21484,-2.03125 1.30859,0 2.46094,0.35156 1.16211,0.3418 2.17773,1.03516 z" />
    <path
       id="path197"
       d="m 230.37109,284.41992 h 12.33399 v 1.66016 H 237.5293 V 299 h -1.98243 v -12.91992 h -5.17578 z" />
    <path
       id="path199"
       d="m 255.10742,283.80469 v 17.83203 h -4.14062 v -1.39649 h 2.33398 v -15.03906 h -2.33398 v -1.39648 z" />
  </g>
</svg>
