<?xml version="1.0" encoding="UTF-8" standalone="no"?>
<svg
   xmlns:dc="http://purl.org/dc/elements/1.1/"
   xmlns:cc="http://creativecommons.org/ns#"
   xmlns:rdf="http://www.w3.org/1999/02/22-rdf-syntax-ns#"
   xmlns:svg="http://www.w3.org/2000/svg"
   xmlns="http://www.w3.org/2000/svg"
   id="svg97"
   stroke-miterlimit="10"
   stroke-linecap="square"
   stroke="none"
   fill="none"
   viewBox="0.0 0.0 369.0 801.0"
   version="1.1">
  <metadata
     id="metadata103">
    <rdf:RDF>
      <cc:Work
         rdf:about="">
        <dc:format>image/svg+xml</dc:format>
        <dc:type
           rdf:resource="http://purl.org/dc/dcmitype/StillImage" />
      </cc:Work>
    </rdf:RDF>
  </metadata>
  <defs
     id="defs101" />
  <clipPath
     id="p.0">
    <path
       id="path2"
       clip-rule="nonzero"
       d="m0 0l369.0 0l0 801.0l-369.0 0l0 -801.0z" />
  </clipPath>
  <g
     id="g91"
     clip-path="url(#p.0)">
    <path
       style="fill:#000000;fill-opacity:0;fill-rule:nonzero"
       id="path5"
       d="M 0,0 H 369.1076 V 801.916 H 0 Z" />
    <path
       style="fill:#000000;fill-rule:nonzero"
       id="path7"
       d="m 248.5753,444.2651 h 101.4803 v 67.55905 H 248.5753 Z" />
    <path
       style="fill-rule:nonzero;stroke:#000000;stroke-width:2;stroke-linecap:butt;stroke-linejoin:round"
       id="path9"
       d="m 248.5753,444.2651 h 101.4803 v 67.55905 H 248.5753 Z" />
    <path
       style="fill:#ffffff;fill-rule:nonzero"
       id="path11"
       d="m 289.4047,109.25535 h 67.3071 v 208.0315 h -67.3071 z" />
    <path
       style="fill-rule:nonzero;stroke:#000000;stroke-width:2;stroke-linecap:butt;stroke-linejoin:round"
       id="path13"
       d="m 289.4047,109.25535 h 67.3071 v 208.0315 h -67.3071 z" />
    <path
       style="fill:#ffffff;fill-rule:nonzero"
       id="path15"
       d="M 5.589649,165.38321 H 53.306183 V 273.09973 H 5.589649 Z" />
    <path
       style="fill-rule:nonzero;stroke:#000000;stroke-width:2;stroke-linecap:butt;stroke-linejoin:round"
       id="path17"
       d="M 5.589649,165.38321 H 53.306183 V 273.09973 H 5.589649 Z" />
    <path
       style="fill:#ffffff;fill-rule:nonzero"
       id="path19"
       d="m 278.36172,66.32809 h 68.82806 v 0 c 9.01667,0 16.32611,7.042313 16.32611,15.729446 0,8.687134 -7.30944,15.729446 -16.32611,15.729446 h -68.82806 v 0 c -9.01666,0 -16.32614,-7.042313 -16.32614,-15.729446 0,-8.687134 7.30948,-15.729446 16.32614,-15.729446 z" />
    <path
       style="fill-rule:nonzero;stroke:#000000;stroke-width:2;stroke-linecap:butt;stroke-linejoin:round"
       id="path21"
       d="m 278.36172,66.32809 h 68.82806 v 0 c 9.01667,0 16.32611,7.042313 16.32611,15.729446 0,8.687134 -7.30944,15.729446 -16.32611,15.729446 h -68.82806 v 0 c -9.01666,0 -16.32614,-7.042313 -16.32614,-15.729446 0,-8.687134 7.30948,-15.729446 16.32614,-15.729446 z" />
    <path
       style="fill:#ffffff;fill-rule:nonzero"
       id="path23"
       d="m 12.574803,486.2047 h 67.30708 v 208.0315 h -67.30708 z" />
    <path
       style="fill-rule:nonzero;stroke:#000000;stroke-width:2;stroke-linecap:butt;stroke-linejoin:round"
       id="path25"
       d="m 12.574803,486.2047 h 67.30708 v 208.0315 h -67.30708 z" />
    <path
       style="fill:#ffffff;fill-rule:nonzero"
       id="path27"
       d="m 243.86876,46.650917 h 92.15749 V 384.32022 h -92.15749 z" />
    <path
       style="fill-rule:nonzero;stroke:#000000;stroke-width:2;stroke-linecap:butt;stroke-linejoin:round"
       id="path29"
       d="m 243.86876,46.650917 h 92.15749 V 384.32022 h -92.15749 z" />
    <path
       style="fill:#000000;fill-rule:nonzero"
       id="path31"
       d="M 22.658957,122.89764 H 101.74557 V 304.53543 H 22.658957 Z" />
    <path
       style="fill-rule:nonzero;stroke:#000000;stroke-width:2;stroke-linecap:butt;stroke-linejoin:round"
       id="path33"
       d="M 22.658957,122.89764 H 101.74557 V 304.53543 H 22.658957 Z" />
    <path
       style="fill:#ffffff;fill-rule:nonzero"
       id="path35"
       d="m 22.689058,66.32809 h 68.82809 v 0 c 9.016662,0 16.326122,7.042313 16.326122,15.729446 0,8.687134 -7.30946,15.729446 -16.326122,15.729446 h -68.82809 v 0 c -9.016665,0 -16.326115,-7.042313 -16.326115,-15.729446 0,-8.687134 7.309451,-15.729446 16.326115,-15.729446 z" />
    <path
       style="fill-rule:nonzero;stroke:#000000;stroke-width:2;stroke-linecap:butt;stroke-linejoin:round"
       id="path37"
       d="m 22.689058,66.32809 h 68.82809 v 0 c 9.016662,0 16.326122,7.042313 16.326122,15.729446 0,8.687134 -7.30946,15.729446 -16.326122,15.729446 h -68.82809 v 0 c -9.016665,0 -16.326115,-7.042313 -16.326115,-15.729446 0,-8.687134 7.309451,-15.729446 16.326115,-15.729446 z" />
    <path
       style="fill:#ffffff;fill-rule:nonzero"
       id="path39"
       d="m 22.689058,443.84253 h 68.82809 v 0 c 9.016662,0 16.326122,7.0423 16.326122,15.72943 0,8.68714 -7.30946,15.72946 -16.326122,15.72946 h -68.82809 v 0 c -9.016665,0 -16.326115,-7.04232 -16.326115,-15.72946 0,-8.68713 7.309451,-15.72943 16.326115,-15.72943 z" />
    <path
       style="fill-rule:nonzero;stroke:#000000;stroke-width:2;stroke-linecap:butt;stroke-linejoin:round"
       id="path41"
       d="m 22.689058,443.84253 h 68.82809 v 0 c 9.016662,0 16.326122,7.0423 16.326122,15.72943 0,8.68714 -7.30946,15.72946 -16.326122,15.72946 h -68.82809 v 0 c -9.016665,0 -16.326115,-7.04232 -16.326115,-15.72946 0,-8.68713 7.309451,-15.72943 16.326115,-15.72943 z" />
    <path
       style="fill:#ffffff;fill-rule:nonzero"
       id="path43"
       d="M 31.853674,46.650917 H 86.814306 V 384.32022 H 31.853674 Z" />
    <path
       style="fill-rule:nonzero;stroke:#000000;stroke-width:2;stroke-linecap:butt;stroke-linejoin:round"
       id="path45"
       d="M 31.853674,46.650917 H 86.814306 V 384.32022 H 31.853674 Z" />
    <path
       style="fill:#ffffff;fill-rule:nonzero"
       id="path47"
       d="m 278.36368,443.84253 h 68.82809 v 0 c 9.01667,0 16.32611,7.0423 16.32611,15.72943 0,8.68714 -7.30944,15.72946 -16.32611,15.72946 h -68.82809 v 0 c -9.01666,0 -16.32611,-7.04232 -16.32611,-15.72946 0,-8.68713 7.30945,-15.72943 16.32611,-15.72943 z" />
    <path
       style="fill-rule:nonzero;stroke:#000000;stroke-width:2;stroke-linecap:butt;stroke-linejoin:round"
       id="path49"
       d="m 278.36368,443.84253 h 68.82809 v 0 c 9.01667,0 16.32611,7.0423 16.32611,15.72943 0,8.68714 -7.30944,15.72946 -16.32611,15.72946 h -68.82809 v 0 c -9.01666,0 -16.32611,-7.04232 -16.32611,-15.72946 0,-8.68713 7.30945,-15.72943 16.32611,-15.72943 z" />
    <path
       style="fill:#ffffff;fill-rule:nonzero"
       id="path51"
       d="M 251.84662,615.33795 H 358.49228 V 660.1568 H 251.84662 Z" />
    <path
       style="fill-rule:nonzero;stroke:#000000;stroke-width:2;stroke-linecap:butt;stroke-linejoin:round"
       id="path53"
       d="M 251.84662,615.33795 H 358.49228 V 660.1568 H 251.84662 Z" />
    <path
       style="fill:#ffffff;fill-rule:nonzero"
       id="path55"
       d="m 251.84662,544.1022 h 106.64566 v 44.81891 H 251.84662 Z" />
    <path
       style="fill-rule:nonzero;stroke:#000000;stroke-width:2;stroke-linecap:butt;stroke-linejoin:round"
       id="path57"
       d="m 251.84662,544.1022 h 106.64566 v 44.81891 H 251.84662 Z" />
    <path
       style="fill:#ffffff;fill-rule:nonzero"
       id="path59"
       d="m 251.84662,689.47974 h 106.64566 v 44.81891 H 251.84662 Z" />
    <path
       style="fill-rule:nonzero;stroke:#000000;stroke-width:2;stroke-linecap:butt;stroke-linejoin:round"
       id="path61"
       d="m 251.84662,689.47974 h 106.64566 v 44.81891 H 251.84662 Z" />
    <path
       style="fill:#000000;fill-opacity:0;fill-rule:nonzero"
       id="path63"
       d="m 6.361959,517.22833 h 24.88189" />
    <path
       style="fill-rule:nonzero;stroke:#000000;stroke-width:2;stroke-linecap:butt;stroke-linejoin:round"
       id="path65"
       d="m 6.361959,517.22833 h 24.88189" />
    <path
       style="fill:#000000;fill-opacity:0;fill-rule:nonzero"
       id="path67"
       d="m 6.361959,569.0379 h 24.88189" />
    <path
       style="fill-rule:nonzero;stroke:#000000;stroke-width:2;stroke-linecap:butt;stroke-linejoin:round"
       id="path69"
       d="m 6.361959,569.0379 h 24.88189" />
    <path
       style="fill:#000000;fill-opacity:0;fill-rule:nonzero"
       id="path71"
       d="m 6.361959,616.8954 h 24.88189" />
    <path
       style="fill-rule:nonzero;stroke:#000000;stroke-width:2;stroke-linecap:butt;stroke-linejoin:round"
       id="path73"
       d="m 6.361959,616.8954 h 24.88189" />
    <path
       style="fill:#000000;fill-opacity:0;fill-rule:nonzero"
       id="path75"
       d="M 6.361959,673.9764 H 31.999753" />
    <path
       style="fill-rule:nonzero;stroke:#000000;stroke-width:2;stroke-linecap:butt;stroke-linejoin:round"
       id="path77"
       d="M 6.361959,673.9764 H 31.999753" />
    <path
       style="fill:#ffffff;fill-rule:nonzero"
       id="path79"
       d="m 31.85023,423.8084 h 304.1575 V 761.47765 H 31.85023 Z" />
    <path
       style="fill-rule:nonzero;stroke:#000000;stroke-width:2;stroke-linecap:butt;stroke-linejoin:round"
       id="path81"
       d="m 31.85023,423.8084 h 304.1575 V 761.47765 H 31.85023 Z" />
    <path
       style="fill:#ffffff;fill-rule:nonzero"
       id="path83"
       d="M 56.01132,0.9422572 H 312.60974 V 800.97376 H 56.01132 Z" />
    <path
       style="fill-rule:nonzero;stroke:#000000;stroke-width:2;stroke-linecap:butt;stroke-linejoin:round"
       id="path85"
       d="M 56.01132,0.9422572 H 312.60974 V 800.97376 H 56.01132 Z" />
    <path
       style="fill:#000000;fill-opacity:0;fill-rule:nonzero"
       id="path87"
       d="M 289.4042,31.199474 V 346.85303 H 221.84513 V 31.199474 Z" />
    <path
       style="fill-rule:nonzero;stroke:#000000;stroke-width:2;stroke-linecap:butt;stroke-linejoin:round"
       id="path89"
       d="M 289.4042,31.199474 V 386.85303 H 221.84513 V 31.199474 Z" />
  </g>
  <g
     id="text95"
     style="font-size:30px;font-family:'DejaVu Sans', sans-serif;text-anchor:middle;fill:#000000"
     transform="rotate(90)"
     aria-label="[מספר סידורי]">
    <path
       id="path105"
       style=""
       d="m 122.08398,-267.79297 h 6.21094 v 2.09473 h -3.51562 v 22.55859 h 3.51562 v 2.09473 h -6.21094 z" />
    <path
       id="path107"
       style=""
       d="m 271.67383,-261.40625 h 3.17871 q 0.0586,0.16113 0.54199,1.31836 0.4834,1.14258 0.80567,2.28516 0.41015,-1.0254 0.96679,-1.75782 0.57129,-0.73242 1.12793,-1.12793 0.55664,-0.3955 1.27442,-0.61523 0.71777,-0.21973 1.27441,-0.27832 0.55664,-0.0586 1.30371,-0.0586 5.88867,0 5.88867,7.76368 V -245 h -8.23242 v -2.08008 h 5.50781 v -6.79687 q 0,-2.85645 -0.89355,-4.21875 -0.89356,-1.37696 -2.31445,-1.37696 -2.63672,0 -3.89649,2.34375 -0.70312,1.33301 -1.31836,4.35059 -0.0293,0.20508 -0.10254,0.54199 L 275.35059,-245 h -2.72461 l 1.17187,-6.12305 q 0.0439,-0.23437 0.14649,-0.76172 0.11718,-0.54199 0.14648,-0.73242 0.0439,-0.20508 0.0879,-0.57129 0.0586,-0.38086 0.0732,-0.65918 0.0293,-0.29297 0.0293,-0.61523 0,-0.9375 -0.68848,-2.85645 -0.67382,-1.93359 -1.91894,-4.08691 z" />
    <path
       id="path109"
       style=""
       d="m 253.6416,-261.40625 h 7.13379 q 4.17481,0 6.06445,1.83105 1.88965,1.83106 1.88965,6.22559 0,4.45313 -1.875,6.62109 -1.875,2.15332 -5.66894,2.15332 -3.79395,0 -5.66895,-2.15332 -1.875,-2.16796 -1.875,-6.62109 z m 7.13379,2.24121 h -4.42383 v 5.93262 q 0,6.43066 4.83399,6.43066 4.83398,0 4.83398,-6.54785 0,-1.71387 -0.33691,-2.85644 -0.32227,-1.14258 -1.02539,-1.78711 -0.68848,-0.64454 -1.62598,-0.90821 -0.92285,-0.26367 -2.25586,-0.26367 z" />
    <path
       id="path111"
       style=""
       d="m 234.90625,-261.40625 h 6.24023 q 3.7793,0 5.94727,2.13867 2.16797,2.13867 2.16797,6.06445 0,3.92579 -2.18262,6.06446 Q 244.91113,-245 241.14648,-245 h -6.24023 v -2.08008 h 5.12695 q 3.45703,0 4.98047,-1.40625 1.53809,-1.40625 1.53809,-4.89258 0,-3.208 -1.58203,-4.57031 -1.58203,-1.3623 -4.92188,-1.3623 h -2.41699 l -0.0147,3.25195 q -0.0146,1.06934 0.5127,1.58203 0.52734,0.49805 1.61132,0.49805 0.60059,0 1.58204,-0.19043 v 2.22656 q -1.20118,0.23438 -2.18262,0.23438 -1.96289,0 -3.10547,-1.08399 -1.12793,-1.08398 -1.12793,-3.66211 z" />
    <path
       id="path113"
       style=""
       d="M 229.45703,-253.34961 V -245 h -2.72461 v -8.34961 q 0,-1.06934 -0.16113,-1.93359 -0.14649,-0.86426 -0.52734,-1.62598 -0.36622,-0.77637 -0.95215,-1.28906 -0.58594,-0.5127 -1.50879,-0.80567 -0.92285,-0.30761 -2.12403,-0.30761 h -4.92187 v -2.09473 h 4.90723 q 1.8457,0 3.2373,0.39551 1.40625,0.38086 2.29981,1.06933 0.89355,0.67383 1.45019,1.71387 0.57129,1.02539 0.79102,2.21191 0.23437,1.17188 0.23437,2.66602 z" />
    <path
       id="path115"
       style=""
       d="m 188.9541,-261.40625 h 7.13379 q 4.17481,0 6.06445,1.83105 1.88965,1.83106 1.88965,6.22559 0,4.45313 -1.875,6.62109 -1.875,2.15332 -5.66894,2.15332 -3.79395,0 -5.66895,-2.15332 -1.875,-2.16796 -1.875,-6.62109 z m 7.13379,2.24121 h -4.42383 v 5.93262 q 0,6.43066 4.83399,6.43066 4.83398,0 4.83398,-6.54785 0,-1.71387 -0.33691,-2.85644 -0.32227,-1.14258 -1.02539,-1.78711 -0.68848,-0.64454 -1.62598,-0.90821 -0.92285,-0.26367 -2.25586,-0.26367 z" />
    <path
       id="path117"
       style=""
       d="m 184.22266,-261.40625 v 9.16992 l -2.72461,1.11328 v -10.2832 z" />
    <path
       id="path119"
       style=""
       d="m 178.43652,-259.31152 h -2.90039 V -245 h -2.72461 v -14.31152 h -8.42285 v -2.09473 h 14.04785 z" />
    <path
       id="path121"
       style=""
       d="M 160.3457,-261.40625 V -245 h -2.72461 v -16.40625 z" />
    <path
       id="path123"
       style=""
       d="M 152.17188,-253.34961 V -245 h -2.72461 v -8.34961 q 0,-1.06934 -0.16114,-1.93359 -0.14648,-0.86426 -0.52734,-1.62598 -0.36621,-0.77637 -0.95215,-1.28906 -0.58594,-0.5127 -1.50879,-0.80567 -0.92285,-0.30761 -2.12402,-0.30761 h -4.92188 v -2.09473 h 4.90723 q 1.8457,0 3.2373,0.39551 1.40625,0.38086 2.29981,1.06933 0.89355,0.67383 1.45019,1.71387 0.57129,1.02539 0.79102,2.21191 0.23438,1.17188 0.23438,2.66602 z" />
    <path
       id="path125"
       style=""
       d="m 135.94141,-261.40625 v 9.16992 l -2.72461,1.11328 v -10.2832 z" />
    <path
       id="path127"
       style=""
       d="m 299.90137,-267.79297 v 26.74805 h -6.21094 v -2.09473 h 3.50098 v -22.55859 h -3.50098 v -2.09473 z" />
  </g>
</svg>
