<?xml version="1.0" encoding="UTF-8" standalone="no"?>
<svg
   xmlns:dc="http://purl.org/dc/elements/1.1/"
   xmlns:cc="http://creativecommons.org/ns#"
   xmlns:rdf="http://www.w3.org/1999/02/22-rdf-syntax-ns#"
   xmlns:svg="http://www.w3.org/2000/svg"
   xmlns="http://www.w3.org/2000/svg"
   id="svg69"
   stroke-miterlimit="10"
   stroke-linecap="square"
   stroke="none"
   fill="none"
   viewBox="0.0 0.0 348.0 348.0"
   version="1.1">
  <metadata
     id="metadata75">
    <rdf:RDF>
      <cc:Work
         rdf:about="">
        <dc:format>image/svg+xml</dc:format>
        <dc:type
           rdf:resource="http://purl.org/dc/dcmitype/StillImage" />
      </cc:Work>
    </rdf:RDF>
  </metadata>
  <defs
     id="defs73" />
  <clipPath
     id="p.0">
    <path
       id="path2"
       clip-rule="nonzero"
       d="m0 0l348.0 0l0 348.0l-348.0 0l0 -348.0z" />
  </clipPath>
  <g
     id="g63"
     clip-path="url(#p.0)">
    <path
       style="fill:#000000;fill-opacity:0;fill-rule:nonzero"
       id="path5"
       d="M 0,0 H 348 V 348 H 0 Z" />
    <path
       style="fill:#ffffff;fill-rule:nonzero"
       id="path7"
       d="M -6,0 H 342 V 347.9685 H -6 Z" />
    <path
       style="fill:#000000;fill-opacity:0;fill-rule:nonzero"
       id="path9"
       d="m 5.07874,5.7758217 h 336.9134 V 343.44512 H 5.07874 Z" />
    <path
       style="fill-rule:nonzero;stroke:#000000;stroke-width:2;stroke-linecap:butt;stroke-linejoin:round"
       id="path11"
       d="m 5.07874,5.7758217 h 336.9134 V 343.44512 H 5.07874 Z" />
    <path
       style="fill:#ffffff;fill-rule:nonzero"
       id="path13"
       d="M 17.036913,71.17821 H 242.42274 V 306.51679 H 17.036913 Z" />
    <path
       style="fill-rule:nonzero;stroke:#000000;stroke-width:2;stroke-linecap:butt;stroke-linejoin:round"
       id="path15"
       d="M 17.036913,71.17821 H 242.42274 V 306.51679 H 17.036913 Z" />
    <path
       style="fill:#000000;fill-rule:nonzero"
       id="path17"
       d="m 273.45645,109.96049 h 46.2677 v 196.56694 h -46.2677 z" />
    <path
       style="fill-rule:nonzero;stroke:#000000;stroke-width:2;stroke-linecap:butt;stroke-linejoin:round"
       id="path19"
       d="m 273.45645,109.96049 h 46.2677 v 196.56694 h -46.2677 z" />
    <path
       style="fill:#ffffff;fill-rule:nonzero"
       id="path21"
       d="m 282.73444,40.553925 v 0 c 0,-8.375591 6.96603,-15.165352 15.55905,-15.165352 v 0 c 4.12653,0 8.08402,1.597773 11.00192,4.441828 2.91788,2.844057 4.55713,6.701422 4.55713,10.723524 v 0 c 0,8.375595 -6.966,15.165356 -15.55905,15.165356 v 0 c -8.59302,0 -15.55905,-6.789761 -15.55905,-15.165356 z" />
    <path
       style="fill-rule:nonzero;stroke:#000000;stroke-width:2;stroke-linecap:butt;stroke-linejoin:round"
       id="path23"
       d="m 282.73444,40.553925 v 0 c 0,-8.375591 6.96603,-15.165352 15.55905,-15.165352 v 0 c 4.12653,0 8.08402,1.597773 11.00192,4.441828 2.91788,2.844057 4.55713,6.701422 4.55713,10.723524 v 0 c 0,8.375595 -6.966,15.165356 -15.55905,15.165356 v 0 c -8.59302,0 -15.55905,-6.789761 -15.55905,-15.165356 z" />
    <path
       style="fill:#ffffff;fill-rule:nonzero"
       id="path25"
       d="m 31.55643,188.84772 v 0 c 0,-54.95016 43.953648,-99.49606 98.17323,-99.49606 v 0 c 26.03716,0 51.00789,10.48259 69.41894,29.14172 18.41106,18.65914 28.75428,43.96634 28.75428,70.35434 v 0 c 0,54.95017 -43.95365,99.49606 -98.17322,99.49606 v 0 c -54.219583,0 -98.173233,-44.5459 -98.173233,-99.49606 z" />
    <path
       style="fill-rule:nonzero;stroke:#000000;stroke-width:2;stroke-linecap:butt;stroke-linejoin:round"
       id="path27"
       d="m 31.55643,188.84772 v 0 c 0,-54.95016 43.953648,-99.49606 98.17323,-99.49606 v 0 c 26.03716,0 51.00789,10.48259 69.41894,29.14172 18.41106,18.65914 28.75428,43.96634 28.75428,70.35434 v 0 c 0,54.95017 -43.95365,99.49606 -98.17322,99.49606 v 0 c -54.219583,0 -98.173233,-44.5459 -98.173233,-99.49606 z" />
    <path
       style="fill:#000000;fill-opacity:0;fill-rule:nonzero"
       id="path29"
       d="m 45.42257,153.48425 h 202.51968 v 70.67717 H 45.42257 Z" />
    <path
       style="fill:#000000;fill-opacity:0;fill-rule:nonzero"
       id="path31"
       d="M 40.969852,95.99732 H 218.89111 v 185.7008 H 40.969852 Z" />
    <path
       style="fill-rule:nonzero;stroke:#000000;stroke-width:1;stroke-linecap:butt;stroke-linejoin:round"
       id="path33"
       d="M 40.969852,95.99732 H 218.89111 v 185.7008 H 40.969852 Z" />
    <path
       style="fill:#000000;fill-opacity:0;fill-rule:nonzero"
       id="path35"
       d="M 17.708662,72.89501 41.173229,95.950132" />
    <path
       style="fill-rule:nonzero;stroke:#000000;stroke-width:1;stroke-linecap:butt;stroke-linejoin:round"
       id="path37"
       d="M 17.708662,72.89501 41.173229,95.950132" />
    <path
       style="fill:#000000;fill-opacity:0;fill-rule:nonzero"
       id="path39"
       d="m 219.0971,281.69553 23.08662,24.28348" />
    <path
       style="fill-rule:nonzero;stroke:#000000;stroke-width:1;stroke-linecap:butt;stroke-linejoin:round"
       id="path41"
       d="m 219.0971,281.69553 23.08662,24.28348" />
    <path
       style="fill:#000000;fill-opacity:0;fill-rule:nonzero"
       id="path43"
       d="M 242.15749,72.89501 219.51181,95.950132" />
    <path
       style="fill-rule:nonzero;stroke:#000000;stroke-width:1;stroke-linecap:butt;stroke-linejoin:round"
       id="path45"
       d="M 242.15749,72.89501 219.51181,95.950132" />
    <path
       style="fill:#000000;fill-opacity:0;fill-rule:nonzero"
       id="path47"
       d="M 40.76378,281.70078 18.11811,304.75592" />
    <path
       style="fill-rule:nonzero;stroke:#000000;stroke-width:1;stroke-linecap:butt;stroke-linejoin:round"
       id="path49"
       d="M 40.76378,281.70078 18.11811,304.75592" />
    <path
       style="fill:#000000;fill-opacity:0;fill-rule:nonzero"
       id="path51"
       d="M 55.18635,58.892387 H 81.139105 V 71.17585 H 55.18635 Z" />
    <path
       style="fill-rule:nonzero;stroke:#000000;stroke-width:2;stroke-linecap:butt;stroke-linejoin:round"
       id="path53"
       d="M 55.18635,58.892387 H 81.139105 V 71.17585 H 55.18635 Z" />
    <path
       style="fill:#000000;fill-opacity:0;fill-rule:nonzero"
       id="path55"
       d="m 180.33595,58.892387 h 25.95276 V 71.17585 h -25.95276 z" />
    <path
       style="fill-rule:nonzero;stroke:#000000;stroke-width:2;stroke-linecap:butt;stroke-linejoin:round"
       id="path57"
       d="m 180.33595,58.892387 h 25.95276 V 71.17585 h -25.95276 z" />
    <path
       style="fill:#000000;fill-opacity:0;fill-rule:nonzero"
       id="path59"
       d="m 84.14173,63.422573 h 92.25196 v 7.748028 H 84.14173 Z" />
    <path
       style="fill-rule:nonzero;stroke:#000000;stroke-width:2;stroke-linecap:butt;stroke-linejoin:round"
       id="path61"
       d="m 84.14173,63.422573 h 92.25196 v 7.748028 H 84.14173 Z" />
  </g>
  <g
     id="text67"
     style="font-size:42px;font-family:'DejaVu Sans', sans-serif;text-anchor:middle;fill:#000000"
     aria-label="[TEKST]">
    <path
       id="path77"
       style=""
       d="m 52.126953,171.08984 h 8.695313 v 2.93262 h -4.921875 v 31.58203 h 4.921875 v 2.93262 h -8.695313 z" />
    <path
       id="path79"
       style=""
       d="m 64.800781,172.38184 h 25.901367 v 3.48632 H 79.833008 V 203 H 75.669922 V 175.86816 H 64.800781 Z" />
    <path
       id="path81"
       style=""
       d="m 94.72168,172.38184 h 19.35937 v 3.48632 H 98.864258 v 9.06446 h 14.581052 v 3.48633 H 98.864258 v 11.09472 H 114.4502 V 203 H 94.72168 Z" />
    <path
       id="path83"
       style=""
       d="m 121.2998,172.38184 h 4.14258 v 12.94043 l 13.74024,-12.94043 h 5.33203 L 129.31836,186.65527 145.60156,203 h -5.45508 l -14.7041,-14.74512 V 203 h -4.14258 z" />
    <path
       id="path85"
       style=""
       d="m 167.2168,173.38672 v 4.04004 q -2.3584,-1.12793 -4.4502,-1.68164 -2.0918,-0.55371 -4.04004,-0.55371 -3.38379,0 -5.22949,1.3125 -1.82519,1.3125 -1.82519,3.73242 0,2.03027 1.20996,3.07617 1.23046,1.02539 4.63476,1.66113 l 2.50195,0.5127 q 4.63477,0.88183 6.82911,3.11719 2.21484,2.21484 2.21484,5.94726 0,4.4502 -2.99414,6.74707 -2.97363,2.29688 -8.73633,2.29688 -2.17383,0 -4.63476,-0.49219 -2.44043,-0.49219 -5.06543,-1.45606 v -4.26562 q 2.52246,1.41504 4.94238,2.13281 2.41992,0.71778 4.75781,0.71778 3.54785,0 5.47559,-1.39454 1.92773,-1.39453 1.92773,-3.97851 0,-2.25586 -1.39453,-3.52735 -1.37402,-1.27148 -4.53223,-1.90722 l -2.52246,-0.49219 q -4.63476,-0.92285 -6.70605,-2.8916 -2.07129,-1.96875 -2.07129,-5.47559 0,-4.06054 2.85059,-6.39843 2.87109,-2.33789 7.8955,-2.33789 2.15332,0 4.38867,0.38964 2.23536,0.38965 4.57325,1.16895 z" />
    <path
       id="path87"
       style=""
       d="m 171.27734,172.38184 h 25.90137 v 3.48632 H 186.30957 V 203 h -4.16309 v -27.13184 h -10.86914 z" />
    <path
       id="path89"
       style=""
       d="m 209.85254,171.08984 v 37.44727 h -8.69531 v -2.93262 h 4.90136 v -31.58203 h -4.90136 v -2.93262 z" />
  </g>
</svg>
