<?xml version="1.0" encoding="UTF-8" standalone="no"?>
<svg
   xmlns:dc="http://purl.org/dc/elements/1.1/"
   xmlns:cc="http://creativecommons.org/ns#"
   xmlns:rdf="http://www.w3.org/1999/02/22-rdf-syntax-ns#"
   xmlns:svg="http://www.w3.org/2000/svg"
   xmlns="http://www.w3.org/2000/svg"
   id="svg89"
   stroke-miterlimit="10"
   stroke-linecap="square"
   stroke="none"
   fill="none"
   viewBox="0.0 0.0 348.0 348.0"
   version="1.1">
  <metadata
     id="metadata95">
    <rdf:RDF>
      <cc:Work
         rdf:about="">
        <dc:format>image/svg+xml</dc:format>
        <dc:type
           rdf:resource="http://purl.org/dc/dcmitype/StillImage" />
      </cc:Work>
    </rdf:RDF>
  </metadata>
  <defs
     id="defs93" />
  <clipPath
     id="p.0">
    <path
       id="path2"
       clip-rule="nonzero"
       d="m0 0l348.0 0l0 348.0l-348.0 0l0 -348.0z" />
  </clipPath>
  <g
     id="g59"
     clip-path="url(#p.0)">
    <path
       style="fill:#000000;fill-opacity:0;fill-rule:nonzero"
       id="path5"
       d="M 0,0 H 348 V 348 H 0 Z" />
    <path
       style="fill:#ffffff;fill-rule:nonzero"
       id="path7"
       d="M -6,0 H 342 V 347.9685 H -6 Z" />
    <path
       style="fill:#000000;fill-opacity:0;fill-rule:nonzero"
       id="path9"
       d="m 5.07874,5.7758217 h 336.9134 V 343.44512 H 5.07874 Z" />
    <path
       style="fill-rule:nonzero;stroke:#000000;stroke-width:2;stroke-linecap:butt;stroke-linejoin:round"
       id="path11"
       d="m 5.07874,5.7758217 h 336.9134 V 343.44512 H 5.07874 Z" />
    <path
       style="fill:#ffffff;fill-rule:nonzero"
       id="path13"
       d="m 282.73444,40.553925 v 0 c 0,-8.375591 6.96603,-15.165352 15.55905,-15.165352 v 0 c 4.12653,0 8.08402,1.597773 11.00192,4.441828 2.91788,2.844057 4.55713,6.701422 4.55713,10.723524 v 0 c 0,8.375595 -6.966,15.165356 -15.55905,15.165356 v 0 c -8.59302,0 -15.55905,-6.789761 -15.55905,-15.165356 z" />
    <path
       style="fill-rule:nonzero;stroke:#000000;stroke-width:2;stroke-linecap:butt;stroke-linejoin:round"
       id="path15"
       d="m 282.73444,40.553925 v 0 c 0,-8.375591 6.96603,-15.165352 15.55905,-15.165352 v 0 c 4.12653,0 8.08402,1.597773 11.00192,4.441828 2.91788,2.844057 4.55713,6.701422 4.55713,10.723524 v 0 c 0,8.375595 -6.966,15.165356 -15.55905,15.165356 v 0 c -8.59302,0 -15.55905,-6.789761 -15.55905,-15.165356 z" />
    <path
       style="fill:#000000;fill-rule:nonzero"
       id="path17"
       d="M 34.771652,25.389738 H 267.18112 v 67.55905 H 34.771652 Z" />
    <path
       style="fill-rule:nonzero;stroke:#000000;stroke-width:2;stroke-linecap:butt;stroke-linejoin:round"
       id="path19"
       d="M 34.771652,25.389738 H 267.18112 v 67.55905 H 34.771652 Z" />
    <path
       style="fill-rule:nonzero;stroke:#000000;stroke-width:1;stroke-linecap:butt;stroke-linejoin:round"
       id="path21"
       d="M 34.771652,202.31795 H 141.41733 v 44.81891 H 34.771652 Z" />
    <path
       style="fill:#000000;fill-opacity:0;fill-rule:nonzero"
       id="path23"
       d="M 34.771652,125.22639 H 141.41733 v 44.8189 H 34.771652 Z" />
    <path
       style="fill-rule:nonzero;stroke:#000000;stroke-width:1;stroke-linecap:butt;stroke-linejoin:round"
       id="path25"
       d="M 34.771652,125.22639 H 141.41733 v 44.8189 H 34.771652 Z" />
    <path
       style="fill:#000000;fill-opacity:0;fill-rule:nonzero"
       id="path27"
       d="M 34.771652,270.60397 H 141.41733 v 44.81891 H 34.771652 Z" />
    <path
       style="fill-rule:nonzero;stroke:#000000;stroke-width:1;stroke-linecap:butt;stroke-linejoin:round"
       id="path29"
       d="M 34.771652,270.60397 H 141.41733 v 44.81891 H 34.771652 Z" />
    <path
       style="fill:#000000;fill-opacity:0;fill-rule:nonzero"
       id="path31"
       d="m 157.40683,202.31795 h 106.64566 v 44.81891 H 157.40683 Z" />
    <path
       style="fill-rule:nonzero;stroke:#000000;stroke-width:1;stroke-linecap:butt;stroke-linejoin:round"
       id="path33"
       d="m 157.40683,202.31795 h 106.64566 v 44.81891 H 157.40683 Z" />
    <path
       style="fill:#000000;fill-opacity:0;fill-rule:nonzero"
       id="path35"
       d="m 157.40683,125.22639 h 106.64566 v 44.8189 H 157.40683 Z" />
    <path
       style="fill-rule:nonzero;stroke:#000000;stroke-width:1;stroke-linecap:butt;stroke-linejoin:round"
       id="path37"
       d="m 157.40683,125.22639 h 106.64566 v 44.8189 H 157.40683 Z" />
    <path
       style="fill:#000000;fill-opacity:0;fill-rule:nonzero"
       id="path39"
       d="m 157.40683,270.60397 h 106.64566 v 44.81891 H 157.40683 Z" />
    <path
       style="fill-rule:nonzero;stroke:#000000;stroke-width:1;stroke-linecap:butt;stroke-linejoin:round"
       id="path41"
       d="m 157.40683,270.60397 h 106.64566 v 44.81891 H 157.40683 Z" />
    <path
       style="fill:#000000;fill-rule:nonzero"
       id="path43"
       d="m 277.46194,106.3832 h 52.66141 v 209.03937 h -52.66141 z" />
    <path
       style="fill-rule:nonzero;stroke:#000000;stroke-width:2;stroke-linecap:butt;stroke-linejoin:round"
       id="path45"
       d="m 277.46194,106.3832 h 52.66141 v 209.03937 h -52.66141 z" />
    <path
       style="fill:#ffffff;fill-rule:nonzero"
       id="path47"
       d="m 290.06036,245.11285 h 27.46457 v 16.47244 h -27.46457 z" />
    <path
       style="fill-rule:nonzero;stroke:#000000;stroke-width:2;stroke-linecap:butt;stroke-linejoin:round"
       id="path49"
       d="m 290.06036,245.11285 h 27.46457 v 16.47244 h -27.46457 z" />
    <path
       style="fill:#ffffff;fill-rule:nonzero"
       id="path51"
       d="m 290.06036,208.9029 h 27.46457 v 16.47243 h -27.46457 z" />
    <path
       style="fill-rule:nonzero;stroke:#000000;stroke-width:2;stroke-linecap:butt;stroke-linejoin:round"
       id="path53"
       d="m 290.06036,208.9029 h 27.46457 v 16.47243 h -27.46457 z" />
    <path
       style="fill:#ffffff;fill-rule:nonzero"
       id="path55"
       d="m 290.06036,281.32285 h 27.46457 v 16.47244 h -27.46457 z" />
    <path
       style="fill-rule:nonzero;stroke:#000000;stroke-width:2;stroke-linecap:butt;stroke-linejoin:round"
       id="path57"
       d="m 290.06036,281.32285 h 27.46457 v 16.47244 h -27.46457 z" />
  </g>
  <g
     id="text63"
     style="font-size:32px;font-family:'DejaVu Sans', sans-serif;text-anchor:middle;fill:#ffffff"
     aria-label="[SCHERM]">
    <path
       id="path97"
       style=""
       d="m 71.8125,45.6875 h 6.625 v 2.234375 h -3.75 v 24.0625 h 3.75 v 2.234375 h -6.625 z" />
    <path
       id="path99"
       style=""
       d="m 98.6875,47.4375 v 3.078125 Q 96.890625,49.65625 95.296875,49.234375 93.703125,48.8125 92.21875,48.8125 q -2.578125,0 -3.984375,1 -1.390625,1 -1.390625,2.84375 0,1.546875 0.921875,2.34375 0.9375,0.78125 3.53125,1.265625 l 1.90625,0.390625 q 3.53125,0.671875 5.203125,2.375 1.6875,1.6875 1.6875,4.53125 0,3.390625 -2.28125,5.140625 -2.265625,1.75 -6.65625,1.75 -1.65625,0 -3.53125,-0.375 -1.859375,-0.375 -3.859375,-1.109375 v -3.25 q 1.921875,1.078125 3.765625,1.625 1.84375,0.546875 3.625,0.546875 2.703125,0 4.171875,-1.0625 1.46875,-1.0625 1.46875,-3.03125 0,-1.71875 -1.0625,-2.6875 Q 94.6875,60.140625 92.28125,59.65625 l -1.921875,-0.375 Q 86.828125,58.578125 85.25,57.078125 q -1.578125,-1.5 -1.578125,-4.171875 0,-3.09375 2.171875,-4.875 2.1875,-1.78125 6.015625,-1.78125 1.640625,0 3.34375,0.296875 1.703125,0.296875 3.484375,0.890625 z" />
    <path
       id="path101"
       style=""
       d="m 122.48437,48.46875 v 3.328125 q -1.59375,-1.484375 -3.40625,-2.21875 -1.79687,-0.734375 -3.82812,-0.734375 -4,0 -6.125,2.453125 -2.125,2.4375 -2.125,7.0625 0,4.609375 2.125,7.0625 2.125,2.4375 6.125,2.4375 2.03125,0 3.82812,-0.734375 1.8125,-0.734375 3.40625,-2.21875 v 3.296875 q -1.65625,1.125 -3.51562,1.6875 -1.84375,0.5625 -3.90625,0.5625 -5.29688,0 -8.34375,-3.234375 -3.04688,-3.25 -3.04688,-8.859375 0,-5.625 3.04688,-8.859375 3.04687,-3.25 8.34375,-3.25 2.09375,0 3.9375,0.5625 1.85937,0.546875 3.48437,1.65625 z" />
    <path
       id="path103"
       style=""
       d="m 127.39062,46.671875 h 3.15626 v 9.5625 h 11.46875 v -9.5625 h 3.15625 V 70 h -3.15625 V 58.890625 H 130.54688 V 70 h -3.15626 z" />
    <path
       id="path105"
       style=""
       d="m 151.45313,46.671875 h 14.75 v 2.65625 h -11.59375 v 6.90625 h 11.10937 v 2.65625 h -11.10937 v 8.453125 h 11.875 V 70 h -15.03125 z" />
    <path
       id="path107"
       style=""
       d="m 182.76563,59.0625 q 1.01562,0.34375 1.96875,1.46875 0.96875,1.125 1.9375,3.09375 L 189.875,70 h -3.39062 L 183.5,64.015625 q -1.15625,-2.34375 -2.25,-3.109375 -1.07812,-0.765625 -2.95312,-0.765625 h -3.4375 V 70 h -3.15625 V 46.671875 h 7.125 q 4,0 5.96875,1.671875 1.96875,1.671875 1.96875,5.046875 0,2.203125 -1.03125,3.65625 Q 184.71875,58.5 182.76563,59.0625 Z m -7.90625,-9.796875 v 8.28125 h 3.96875 q 2.28125,0 3.4375,-1.046875 1.17187,-1.0625 1.17187,-3.109375 0,-2.046875 -1.17187,-3.078125 -1.15625,-1.046875 -3.4375,-1.046875 z" />
    <path
       id="path109"
       style=""
       d="m 193.95313,46.671875 h 4.70312 l 5.95313,15.875 5.98437,-15.875 h 4.70313 V 70 h -3.07813 V 49.515625 l -6.01562,16 h -3.17188 l -6.01562,-16 V 70 h -3.0625 z" />
    <path
       id="path111"
       style=""
       d="m 228.17188,45.6875 v 28.53125 h -6.625 v -2.234375 h 3.73437 v -24.0625 h -3.73437 V 45.6875 Z" />
  </g>
  <g
     id="text67"
     style="font-size:20px;font-family:'DejaVu Sans', sans-serif;text-anchor:middle;fill:#000000"
     aria-label="[TEKST]">
    <path
       id="path114"
       style=""
       d="m 49.441406,138.80469 h 4.140625 v 1.39648 h -2.34375 v 15.03906 h 2.34375 v 1.39649 h -4.140625 z" />
    <path
       id="path116"
       style=""
       d="m 55.476563,139.41992 h 12.333984 v 1.66016 H 62.634766 V 154 h -1.982422 v -12.91992 h -5.175781 z" />
    <path
       id="path118"
       style=""
       d="m 69.724609,139.41992 h 9.21875 v 1.66016 h -7.246093 v 4.3164 h 6.943359 v 1.66016 h -6.943359 v 5.2832 h 7.421875 V 154 h -9.394532 z" />
    <path
       id="path120"
       style=""
       d="m 82.380859,139.41992 h 1.972657 v 6.16211 l 6.542968,-6.16211 h 2.539063 L 86.199219,146.2168 93.953125,154 h -2.597656 l -7.001953,-7.02148 V 154 h -1.972657 z" />
    <path
       id="path122"
       style=""
       d="m 104.24609,139.89844 v 1.92383 q -1.12304,-0.53711 -2.11914,-0.80079 -0.99609,-0.26367 -1.92383,-0.26367 -1.611323,0 -2.490229,0.625 -0.869141,0.625 -0.869141,1.77735 0,0.96679 0.576172,1.46484 0.585937,0.48828 2.207031,0.79102 l 1.191407,0.24414 q 2.20703,0.41992 3.25195,1.48437 1.05469,1.05469 1.05469,2.83203 0,2.11914 -1.42578,3.21289 -1.41602,1.09375 -4.160157,1.09375 -1.035157,0 -2.207032,-0.23437 -1.162109,-0.23438 -2.412109,-0.69336 v -2.03125 q 1.201172,0.67383 2.353516,1.01562 1.152343,0.3418 2.265625,0.3418 1.689457,0 2.607417,-0.66406 0.91797,-0.66406 0.91797,-1.89453 0,-1.07422 -0.66406,-1.67969 -0.6543,-0.60547 -2.1582,-0.9082 l -1.201174,-0.23438 q -2.207032,-0.43945 -3.19336,-1.37695 -0.986328,-0.9375 -0.986328,-2.60742 0,-1.9336 1.357422,-3.04688 1.367188,-1.11328 3.759766,-1.11328 1.025394,0 2.089844,0.18555 1.06445,0.18554 2.17773,0.55664 z" />
    <path
       id="path124"
       style=""
       d="m 106.17969,139.41992 h 12.33398 v 1.66016 h -5.17578 V 154 h -1.98242 v -12.91992 h -5.17578 z" />
    <path
       id="path126"
       style=""
       d="m 124.54883,138.80469 v 17.83203 h -4.14063 v -1.39649 h 2.33399 v -15.03906 h -2.33399 v -1.39648 z" />
  </g>
  <g
     id="text71"
     style="font-size:20px;font-family:'DejaVu Sans', sans-serif;text-anchor:middle;fill:#000000"
     aria-label="[TEKST]">
    <path
       id="path129"
       style=""
       d="m 49.441406,215.80469 h 4.140625 v 1.39648 h -2.34375 v 15.03906 h 2.34375 v 1.39649 h -4.140625 z" />
    <path
       id="path131"
       style=""
       d="m 55.476563,216.41992 h 12.333984 v 1.66016 H 62.634766 V 231 h -1.982422 v -12.91992 h -5.175781 z" />
    <path
       id="path133"
       style=""
       d="m 69.724609,216.41992 h 9.21875 v 1.66016 h -7.246093 v 4.3164 h 6.943359 v 1.66016 h -6.943359 v 5.2832 h 7.421875 V 231 h -9.394532 z" />
    <path
       id="path135"
       style=""
       d="m 82.380859,216.41992 h 1.972657 v 6.16211 l 6.542968,-6.16211 h 2.539063 L 86.199219,223.2168 93.953125,231 h -2.597656 l -7.001953,-7.02148 V 231 h -1.972657 z" />
    <path
       id="path137"
       style=""
       d="m 104.24609,216.89844 v 1.92383 q -1.12304,-0.53711 -2.11914,-0.80079 -0.99609,-0.26367 -1.92383,-0.26367 -1.611323,0 -2.490229,0.625 -0.869141,0.625 -0.869141,1.77735 0,0.96679 0.576172,1.46484 0.585937,0.48828 2.207031,0.79102 l 1.191407,0.24414 q 2.20703,0.41992 3.25195,1.48437 1.05469,1.05469 1.05469,2.83203 0,2.11914 -1.42578,3.21289 -1.41602,1.09375 -4.160157,1.09375 -1.035157,0 -2.207032,-0.23437 -1.162109,-0.23438 -2.412109,-0.69336 v -2.03125 q 1.201172,0.67383 2.353516,1.01562 1.152343,0.3418 2.265625,0.3418 1.689457,0 2.607417,-0.66406 0.91797,-0.66406 0.91797,-1.89453 0,-1.07422 -0.66406,-1.67969 -0.6543,-0.60547 -2.1582,-0.9082 l -1.201174,-0.23438 q -2.207032,-0.43945 -3.19336,-1.37695 -0.986328,-0.9375 -0.986328,-2.60742 0,-1.9336 1.357422,-3.04688 1.367188,-1.11328 3.759766,-1.11328 1.025394,0 2.089844,0.18555 1.06445,0.18554 2.17773,0.55664 z" />
    <path
       id="path139"
       style=""
       d="m 106.17969,216.41992 h 12.33398 v 1.66016 h -5.17578 V 231 h -1.98242 v -12.91992 h -5.17578 z" />
    <path
       id="path141"
       style=""
       d="m 124.54883,215.80469 v 17.83203 h -4.14063 v -1.39649 h 2.33399 v -15.03906 h -2.33399 v -1.39648 z" />
  </g>
  <g
     id="text75"
     style="font-size:20px;font-family:'DejaVu Sans', sans-serif;text-anchor:middle;fill:#000000"
     aria-label="[TEKST]">
    <path
       id="path144"
       style=""
       d="m 49.441406,283.80469 h 4.140625 v 1.39648 h -2.34375 v 15.03906 h 2.34375 v 1.39649 h -4.140625 z" />
    <path
       id="path146"
       style=""
       d="m 55.476563,284.41992 h 12.333984 v 1.66016 H 62.634766 V 299 h -1.982422 v -12.91992 h -5.175781 z" />
    <path
       id="path148"
       style=""
       d="m 69.724609,284.41992 h 9.21875 v 1.66016 h -7.246093 v 4.3164 h 6.943359 v 1.66016 h -6.943359 v 5.2832 h 7.421875 V 299 h -9.394532 z" />
    <path
       id="path150"
       style=""
       d="m 82.380859,284.41992 h 1.972657 v 6.16211 l 6.542968,-6.16211 h 2.539063 L 86.199219,291.2168 93.953125,299 h -2.597656 l -7.001953,-7.02148 V 299 h -1.972657 z" />
    <path
       id="path152"
       style=""
       d="m 104.24609,284.89844 v 1.92383 q -1.12304,-0.53711 -2.11914,-0.80079 -0.99609,-0.26367 -1.92383,-0.26367 -1.611323,0 -2.490229,0.625 -0.869141,0.625 -0.869141,1.77735 0,0.96679 0.576172,1.46484 0.585937,0.48828 2.207031,0.79102 l 1.191407,0.24414 q 2.20703,0.41992 3.25195,1.48437 1.05469,1.05469 1.05469,2.83203 0,2.11914 -1.42578,3.21289 -1.41602,1.09375 -4.160157,1.09375 -1.035157,0 -2.207032,-0.23437 -1.162109,-0.23438 -2.412109,-0.69336 v -2.03125 q 1.201172,0.67383 2.353516,1.01562 1.152343,0.3418 2.265625,0.3418 1.689457,0 2.607417,-0.66406 0.91797,-0.66406 0.91797,-1.89453 0,-1.07422 -0.66406,-1.67969 -0.6543,-0.60547 -2.1582,-0.9082 l -1.201174,-0.23438 q -2.207032,-0.43945 -3.19336,-1.37695 -0.986328,-0.9375 -0.986328,-2.60742 0,-1.9336 1.357422,-3.04688 1.367188,-1.11328 3.759766,-1.11328 1.025394,0 2.089844,0.18555 1.06445,0.18554 2.17773,0.55664 z" />
    <path
       id="path154"
       style=""
       d="m 106.17969,284.41992 h 12.33398 v 1.66016 h -5.17578 V 299 h -1.98242 v -12.91992 h -5.17578 z" />
    <path
       id="path156"
       style=""
       d="m 124.54883,283.80469 v 17.83203 h -4.14063 v -1.39649 h 2.33399 v -15.03906 h -2.33399 v -1.39648 z" />
  </g>
  <g
     id="text79"
     style="font-size:20px;font-family:'DejaVu Sans', sans-serif;text-anchor:middle;fill:#000000"
     aria-label="[TEKST]">
    <path
       id="path159"
       style=""
       d="m 172.44141,138.80469 h 4.14062 v 1.39648 h -2.34375 v 15.03906 h 2.34375 v 1.39649 h -4.14062 z" />
    <path
       id="path161"
       style=""
       d="m 178.47656,139.41992 h 12.33399 v 1.66016 h -5.17578 V 154 h -1.98243 v -12.91992 h -5.17578 z" />
    <path
       id="path163"
       style=""
       d="m 192.72461,139.41992 h 9.21875 v 1.66016 h -7.24609 v 4.3164 h 6.94336 v 1.66016 h -6.94336 v 5.2832 h 7.42187 V 154 h -9.39453 z" />
    <path
       id="path165"
       style=""
       d="m 205.38086,139.41992 h 1.97266 v 6.16211 l 6.54296,-6.16211 h 2.53907 l -7.23633,6.79688 7.75391,7.7832 h -2.59766 l -7.00195,-7.02148 V 154 h -1.97266 z" />
    <path
       id="path167"
       style=""
       d="m 227.24609,139.89844 v 1.92383 q -1.12304,-0.53711 -2.11914,-0.80079 -0.99609,-0.26367 -1.92382,-0.26367 -1.61133,0 -2.49024,0.625 -0.86914,0.625 -0.86914,1.77735 0,0.96679 0.57617,1.46484 0.58594,0.48828 2.20703,0.79102 l 1.19141,0.24414 q 2.20703,0.41992 3.25195,1.48437 1.05469,1.05469 1.05469,2.83203 0,2.11914 -1.42578,3.21289 -1.41602,1.09375 -4.16016,1.09375 -1.03515,0 -2.20703,-0.23437 -1.16211,-0.23438 -2.41211,-0.69336 v -2.03125 q 1.20117,0.67383 2.35352,1.01562 1.15234,0.3418 2.26562,0.3418 1.68946,0 2.60742,-0.66406 0.91797,-0.66406 0.91797,-1.89453 0,-1.07422 -0.66406,-1.67969 -0.6543,-0.60547 -2.1582,-0.9082 l -1.20117,-0.23438 q -2.20704,-0.43945 -3.19336,-1.37695 -0.98633,-0.9375 -0.98633,-2.60742 0,-1.9336 1.35742,-3.04688 1.36719,-1.11328 3.75977,-1.11328 1.02539,0 2.08984,0.18555 1.06445,0.18554 2.17773,0.55664 z" />
    <path
       id="path169"
       style=""
       d="m 229.17969,139.41992 h 12.33398 v 1.66016 h -5.17578 V 154 h -1.98242 v -12.91992 h -5.17578 z" />
    <path
       id="path171"
       style=""
       d="m 247.54883,138.80469 v 17.83203 h -4.14063 v -1.39649 h 2.33399 v -15.03906 h -2.33399 v -1.39648 z" />
  </g>
  <g
     id="text83"
     style="font-size:20px;font-family:'DejaVu Sans', sans-serif;text-anchor:middle;fill:#000000"
     aria-label="[TEKST]">
    <path
       id="path174"
       style=""
       d="m 172.44141,215.80469 h 4.14062 v 1.39648 h -2.34375 v 15.03906 h 2.34375 v 1.39649 h -4.14062 z" />
    <path
       id="path176"
       style=""
       d="m 178.47656,216.41992 h 12.33399 v 1.66016 h -5.17578 V 231 h -1.98243 v -12.91992 h -5.17578 z" />
    <path
       id="path178"
       style=""
       d="m 192.72461,216.41992 h 9.21875 v 1.66016 h -7.24609 v 4.3164 h 6.94336 v 1.66016 h -6.94336 v 5.2832 h 7.42187 V 231 h -9.39453 z" />
    <path
       id="path180"
       style=""
       d="m 205.38086,216.41992 h 1.97266 v 6.16211 l 6.54296,-6.16211 h 2.53907 l -7.23633,6.79688 7.75391,7.7832 h -2.59766 l -7.00195,-7.02148 V 231 h -1.97266 z" />
    <path
       id="path182"
       style=""
       d="m 227.24609,216.89844 v 1.92383 q -1.12304,-0.53711 -2.11914,-0.80079 -0.99609,-0.26367 -1.92382,-0.26367 -1.61133,0 -2.49024,0.625 -0.86914,0.625 -0.86914,1.77735 0,0.96679 0.57617,1.46484 0.58594,0.48828 2.20703,0.79102 l 1.19141,0.24414 q 2.20703,0.41992 3.25195,1.48437 1.05469,1.05469 1.05469,2.83203 0,2.11914 -1.42578,3.21289 -1.41602,1.09375 -4.16016,1.09375 -1.03515,0 -2.20703,-0.23437 -1.16211,-0.23438 -2.41211,-0.69336 v -2.03125 q 1.20117,0.67383 2.35352,1.01562 1.15234,0.3418 2.26562,0.3418 1.68946,0 2.60742,-0.66406 0.91797,-0.66406 0.91797,-1.89453 0,-1.07422 -0.66406,-1.67969 -0.6543,-0.60547 -2.1582,-0.9082 l -1.20117,-0.23438 q -2.20704,-0.43945 -3.19336,-1.37695 -0.98633,-0.9375 -0.98633,-2.60742 0,-1.9336 1.35742,-3.04688 1.36719,-1.11328 3.75977,-1.11328 1.02539,0 2.08984,0.18555 1.06445,0.18554 2.17773,0.55664 z" />
    <path
       id="path184"
       style=""
       d="m 229.17969,216.41992 h 12.33398 v 1.66016 h -5.17578 V 231 h -1.98242 v -12.91992 h -5.17578 z" />
    <path
       id="path186"
       style=""
       d="m 247.54883,215.80469 v 17.83203 h -4.14063 v -1.39649 h 2.33399 v -15.03906 h -2.33399 v -1.39648 z" />
  </g>
  <g
     id="text87"
     style="font-size:20px;font-family:'DejaVu Sans', sans-serif;text-anchor:middle;fill:#000000"
     aria-label="[TEKST]">
    <path
       id="path189"
       style=""
       d="m 172.44141,283.80469 h 4.14062 v 1.39648 h -2.34375 v 15.03906 h 2.34375 v 1.39649 h -4.14062 z" />
    <path
       id="path191"
       style=""
       d="m 178.47656,284.41992 h 12.33399 v 1.66016 h -5.17578 V 299 h -1.98243 v -12.91992 h -5.17578 z" />
    <path
       id="path193"
       style=""
       d="m 192.72461,284.41992 h 9.21875 v 1.66016 h -7.24609 v 4.3164 h 6.94336 v 1.66016 h -6.94336 v 5.2832 h 7.42187 V 299 h -9.39453 z" />
    <path
       id="path195"
       style=""
       d="m 205.38086,284.41992 h 1.97266 v 6.16211 l 6.54296,-6.16211 h 2.53907 l -7.23633,6.79688 7.75391,7.7832 h -2.59766 l -7.00195,-7.02148 V 299 h -1.97266 z" />
    <path
       id="path197"
       style=""
       d="m 227.24609,284.89844 v 1.92383 q -1.12304,-0.53711 -2.11914,-0.80079 -0.99609,-0.26367 -1.92382,-0.26367 -1.61133,0 -2.49024,0.625 -0.86914,0.625 -0.86914,1.77735 0,0.96679 0.57617,1.46484 0.58594,0.48828 2.20703,0.79102 l 1.19141,0.24414 q 2.20703,0.41992 3.25195,1.48437 1.05469,1.05469 1.05469,2.83203 0,2.11914 -1.42578,3.21289 -1.41602,1.09375 -4.16016,1.09375 -1.03515,0 -2.20703,-0.23437 -1.16211,-0.23438 -2.41211,-0.69336 v -2.03125 q 1.20117,0.67383 2.35352,1.01562 1.15234,0.3418 2.26562,0.3418 1.68946,0 2.60742,-0.66406 0.91797,-0.66406 0.91797,-1.89453 0,-1.07422 -0.66406,-1.67969 -0.6543,-0.60547 -2.1582,-0.9082 l -1.20117,-0.23438 q -2.20704,-0.43945 -3.19336,-1.37695 -0.98633,-0.9375 -0.98633,-2.60742 0,-1.9336 1.35742,-3.04688 1.36719,-1.11328 3.75977,-1.11328 1.02539,0 2.08984,0.18555 1.06445,0.18554 2.17773,0.55664 z" />
    <path
       id="path199"
       style=""
       d="m 229.17969,284.41992 h 12.33398 v 1.66016 h -5.17578 V 299 h -1.98242 v -12.91992 h -5.17578 z" />
    <path
       id="path201"
       style=""
       d="m 247.54883,283.80469 v 17.83203 h -4.14063 v -1.39649 h 2.33399 v -15.03906 h -2.33399 v -1.39648 z" />
  </g>
</svg>
