<?xml version="1.0" encoding="UTF-8" standalone="no"?>
<svg
   xmlns:dc="http://purl.org/dc/elements/1.1/"
   xmlns:cc="http://creativecommons.org/ns#"
   xmlns:rdf="http://www.w3.org/1999/02/22-rdf-syntax-ns#"
   xmlns:svg="http://www.w3.org/2000/svg"
   xmlns="http://www.w3.org/2000/svg"
   id="svg25"
   stroke-miterlimit="10"
   stroke-linecap="square"
   stroke="none"
   fill="none"
   viewBox="0.0 0.0 288.0 115.0"
   version="1.1">
  <metadata
     id="metadata31">
    <rdf:RDF>
      <cc:Work
         rdf:about="">
        <dc:format>image/svg+xml</dc:format>
        <dc:type
           rdf:resource="http://purl.org/dc/dcmitype/StillImage" />
      </cc:Work>
    </rdf:RDF>
  </metadata>
  <defs
     id="defs29" />
  <clipPath
     id="p.0">
    <path
       id="path2"
       clip-rule="nonzero"
       d="m0 0l288.0 0l0 115.0l-288.0 0l0 -115.0z" />
  </clipPath>
  <g
     id="g19"
     clip-path="url(#p.0)">
    <path
       style="fill:#000000;fill-opacity:0;fill-rule:nonzero"
       id="path5"
       d="M 0,0 H 288 V 115 H 0 Z" />
    <path
       style="fill:#ffffff;fill-rule:nonzero"
       id="path7"
       d="M 12,8.503937 H 276 V 107.49607 H 12 Z" />
    <path
       style="fill-rule:nonzero;stroke:#000000;stroke-width:2;stroke-linecap:butt;stroke-linejoin:round"
       id="path9"
       d="M 12,8.503937 H 276 V 107.49607 H 12 Z" />
    <path
       style="fill:#000000;fill-rule:nonzero"
       id="path11"
       d="M 114,32 H 259.00787 V 85.984253 H 114 Z" />
    <path
       style="fill-rule:nonzero;stroke:#000000;stroke-width:2;stroke-linecap:butt;stroke-linejoin:round"
       id="path13"
       d="M 114,32 H 259.00787 V 85.984253 H 114 Z" />
    <path
       style="fill:#ffffff;fill-rule:nonzero"
       id="path15"
       d="m 36,58 v 0 C 36,43.092659 48.084785,31.007874 62.992126,31.007874 v 0 c 7.15876,0 14.024307,2.843807 19.086311,7.905811 C 87.140449,43.975689 89.984252,50.841244 89.984252,58 v 0 c 0,14.907341 -12.084785,26.992126 -26.992126,26.992126 v 0 C 48.084785,84.992126 36,72.907341 36,58 Z" />
    <path
       style="fill-rule:nonzero;stroke:#000000;stroke-width:2;stroke-linecap:butt;stroke-linejoin:round"
       id="path17"
       d="m 36,58 v 0 C 36,43.092659 48.084785,31.007874 62.992126,31.007874 v 0 c 7.15876,0 14.024307,2.843807 19.086311,7.905811 C 87.140449,43.975689 89.984252,50.841244 89.984252,58 v 0 c 0,14.907341 -12.084785,26.992126 -26.992126,26.992126 v 0 C 48.084785,84.992126 36,72.907341 36,58 Z" />
  </g>
  <g
     id="text23"
     style="font-size:5.48571444px;font-family:sans-serif;text-anchor:middle;fill:#ffffff"
     aria-label="[MISSING: Manual/indicators.labeltxt]">
    <path
       id="path33"
       style="fill:#ff0000"
       d="m 136.1875,52.575002 h 1.13571 v 0.383035 h -0.64285 v 4.125 h 0.64285 v 0.383036 h -1.13571 z" />
    <path
       id="path35"
       style="fill:#ff0000"
       d="m 138.39732,52.743752 h 0.80625 l 1.02054,2.721428 1.02589,-2.721428 h 0.80625 v 3.999107 h -0.52768 v -3.511607 l -1.03125,2.742857 h -0.54375 l -1.03125,-2.742857 v 3.511607 h -0.525 z" />
    <path
       id="path37"
       style="fill:#ff0000"
       d="m 143.13303,52.743752 h 0.54108 v 3.999107 h -0.54108 z" />
    <path
       id="path39"
       style="fill:#ff0000"
       d="m 147.14821,52.875002 v 0.527678 q -0.30803,-0.147321 -0.58125,-0.219643 -0.27321,-0.07232 -0.52767,-0.07232 -0.44197,0 -0.68304,0.171429 -0.23839,0.171428 -0.23839,0.4875 0,0.265178 0.15803,0.401785 0.16072,0.133929 0.60536,0.216965 l 0.32679,0.06696 q 0.60535,0.115178 0.89196,0.407143 0.28929,0.289285 0.28929,0.776785 0,0.58125 -0.39108,0.88125 -0.38839,0.3 -1.14107,0.3 -0.28393,0 -0.60535,-0.06428 -0.31875,-0.06429 -0.66161,-0.190179 V 56.00893 q 0.32946,0.184822 0.64553,0.278572 0.31608,0.09375 0.62143,0.09375 0.4634,0 0.71518,-0.182143 0.25179,-0.182143 0.25179,-0.519643 0,-0.294643 -0.18215,-0.460714 Q 146.4625,55.05268 146.05,54.969645 l -0.32946,-0.06429 q -0.60536,-0.120536 -0.8759,-0.377679 -0.27053,-0.257143 -0.27053,-0.715178 0,-0.530357 0.37232,-0.835715 0.375,-0.305357 1.03125,-0.305357 0.28125,0 0.57321,0.05089 0.29197,0.05089 0.59732,0.152679 z" />
    <path
       id="path41"
       style="fill:#ff0000"
       d="m 150.63036,52.875002 v 0.527678 q -0.30804,-0.147321 -0.58125,-0.219643 -0.27322,-0.07232 -0.52768,-0.07232 -0.44197,0 -0.68304,0.171429 -0.23839,0.171428 -0.23839,0.4875 0,0.265178 0.15803,0.401785 0.16072,0.133929 0.60536,0.216965 l 0.32679,0.06696 q 0.60535,0.115178 0.89196,0.407143 0.28929,0.289285 0.28929,0.776785 0,0.58125 -0.39107,0.88125 -0.3884,0.3 -1.14108,0.3 -0.28392,0 -0.60535,-0.06428 -0.31875,-0.06429 -0.66161,-0.190179 V 56.00893 q 0.32946,0.184822 0.64554,0.278572 0.31607,0.09375 0.62142,0.09375 0.4634,0 0.71518,-0.182143 0.25179,-0.182143 0.25179,-0.519643 0,-0.294643 -0.18214,-0.460714 -0.17947,-0.166072 -0.59197,-0.249107 l -0.32946,-0.06429 q -0.60536,-0.120536 -0.8759,-0.377679 -0.27053,-0.257143 -0.27053,-0.715178 0,-0.530357 0.37232,-0.835715 0.375,-0.305357 1.03125,-0.305357 0.28125,0 0.57321,0.05089 0.29197,0.05089 0.59733,0.152679 z" />
    <path
       id="path43"
       style="fill:#ff0000"
       d="m 151.71518,52.743752 h 0.54107 v 3.999107 h -0.54107 z" />
    <path
       id="path45"
       style="fill:#ff0000"
       d="m 153.33303,52.743752 h 0.72858 l 1.77321,3.345535 v -3.345535 h 0.525 v 3.999107 h -0.72857 l -1.77322,-3.345536 v 3.345536 h -0.525 z" />
    <path
       id="path47"
       style="fill:#ff0000"
       d="m 160.16339,56.172323 v -1.074107 h -0.88393 v -0.444643 h 1.41965 v 1.716964 q -0.3134,0.222322 -0.69107,0.3375 -0.37768,0.1125 -0.80625,0.1125 -0.9375,0 -1.46786,-0.546428 -0.52768,-0.549107 -0.52768,-1.526786 0,-0.980357 0.52768,-1.526786 0.53036,-0.549107 1.46786,-0.549107 0.39107,0 0.74196,0.09643 0.35357,0.09643 0.65089,0.283928 v 0.575893 q -0.3,-0.254464 -0.6375,-0.383035 -0.3375,-0.128572 -0.70982,-0.128572 -0.73393,0 -1.10357,0.409822 -0.36696,0.409821 -0.36696,1.221428 0,0.808929 0.36696,1.21875 0.36964,0.409822 1.10357,0.409822 0.28661,0 0.51161,-0.04821 0.225,-0.05089 0.40446,-0.155357 z" />
    <path
       id="path49"
       style="fill:#ff0000"
       d="m 161.79464,56.062502 h 0.56518 v 0.680357 h -0.56518 z m 0,-2.15625 h 0.56518 v 0.680357 h -0.56518 z" />
    <path
       id="path51"
       style="fill:#ff0000"
       d="m 165.29018,52.743752 h 0.80625 l 1.02053,2.721428 1.0259,-2.721428 h 0.80625 v 3.999107 h -0.52768 v -3.511607 l -1.03125,2.742857 h -0.54375 l -1.03125,-2.742857 v 3.511607 h -0.525 z" />
    <path
       id="path53"
       style="fill:#ff0000"
       d="m 171.36786,55.234823 q -0.59732,0 -0.82768,0.136607 -0.23036,0.136607 -0.23036,0.466072 0,0.2625 0.17143,0.417857 0.17411,0.152678 0.47143,0.152678 0.40982,0 0.65625,-0.289285 0.24911,-0.291965 0.24911,-0.774107 v -0.109822 z m 0.98303,-0.203571 v 1.711607 h -0.49285 v -0.455357 q -0.16875,0.273214 -0.42054,0.404464 -0.25178,0.128571 -0.61607,0.128571 -0.46071,0 -0.73393,-0.257142 -0.27053,-0.259822 -0.27053,-0.69375 0,-0.50625 0.3375,-0.763393 0.34017,-0.257143 1.0125,-0.257143 h 0.69107 v -0.04821 q 0,-0.340179 -0.225,-0.525 -0.22232,-0.1875 -0.62679,-0.1875 -0.25714,0 -0.50089,0.06161 -0.24375,0.06161 -0.46875,0.184821 v -0.455357 q 0.27053,-0.104464 0.525,-0.155357 0.25446,-0.05357 0.49553,-0.05357 0.6509,0 0.97233,0.3375 0.32142,0.3375 0.32142,1.023215 z" />
    <path
       id="path55"
       style="fill:#ff0000"
       d="m 175.8625,54.932145 v 1.810714 h -0.49286 v -1.794643 q 0,-0.425893 -0.16607,-0.6375 -0.16607,-0.211607 -0.49821,-0.211607 -0.39911,0 -0.62947,0.254464 -0.23035,0.254464 -0.23035,0.69375 v 1.695536 H 173.35 v -3 h 0.49554 v 0.466071 q 0.17678,-0.270535 0.41517,-0.404464 0.24108,-0.133929 0.55447,-0.133929 0.51696,0 0.78214,0.321429 0.26518,0.31875 0.26518,0.940179 z" />
    <path
       id="path57"
       style="fill:#ff0000"
       d="m 176.8,55.55893 v -1.816071 h 0.49286 v 1.797321 q 0,0.425893 0.16607,0.640179 0.16607,0.211607 0.49821,0.211607 0.39911,0 0.62947,-0.254464 0.23303,-0.254465 0.23303,-0.69375 v -1.700893 h 0.49286 v 3 h -0.49286 v -0.460714 q -0.17946,0.273214 -0.41785,0.407142 -0.23572,0.13125 -0.54911,0.13125 -0.51697,0 -0.78482,-0.321428 Q 176.8,56.17768 176.8,55.55893 Z m 1.24018,-1.888393 z" />
    <path
       id="path59"
       style="fill:#ff0000"
       d="m 181.69643,55.234823 q -0.59732,0 -0.82768,0.136607 -0.23036,0.136607 -0.23036,0.466072 0,0.2625 0.17143,0.417857 0.17411,0.152678 0.47143,0.152678 0.40982,0 0.65625,-0.289285 0.24911,-0.291965 0.24911,-0.774107 v -0.109822 z m 0.98304,-0.203571 v 1.711607 h -0.49286 v -0.455357 q -0.16875,0.273214 -0.42054,0.404464 -0.25178,0.128571 -0.61607,0.128571 -0.46071,0 -0.73393,-0.257142 -0.27053,-0.259822 -0.27053,-0.69375 0,-0.50625 0.3375,-0.763393 0.34018,-0.257143 1.0125,-0.257143 h 0.69107 v -0.04821 q 0,-0.340179 -0.225,-0.525 -0.22232,-0.1875 -0.62679,-0.1875 -0.25714,0 -0.50089,0.06161 -0.24375,0.06161 -0.46875,0.184821 v -0.455357 q 0.27054,-0.104464 0.525,-0.155357 0.25446,-0.05357 0.49554,-0.05357 0.65089,0 0.97232,0.3375 0.32143,0.3375 0.32143,1.023215 z" />
    <path
       id="path61"
       style="fill:#ff0000"
       d="m 183.69732,52.575002 h 0.49286 v 4.167857 h -0.49286 z" />
    <path
       id="path63"
       style="fill:#ff0000"
       d="M 186.09464,52.743752 H 186.55 l -1.39286,4.508035 h -0.45536 z" />
    <path
       id="path65"
       style="fill:#ff0000"
       d="m 187.07232,53.742859 h 0.49286 v 3 h -0.49286 z m 0,-1.167857 h 0.49286 v 0.624107 h -0.49286 z" />
    <path
       id="path67"
       style="fill:#ff0000"
       d="m 191.0875,54.932145 v 1.810714 h -0.49286 v -1.794643 q 0,-0.425893 -0.16607,-0.6375 -0.16607,-0.211607 -0.49821,-0.211607 -0.39911,0 -0.62947,0.254464 -0.23036,0.254464 -0.23036,0.69375 v 1.695536 H 188.575 v -3 h 0.49553 v 0.466071 q 0.17679,-0.270535 0.41518,-0.404464 0.24107,-0.133929 0.55447,-0.133929 0.51696,0 0.78214,0.321429 0.26518,0.31875 0.26518,0.940179 z" />
    <path
       id="path69"
       style="fill:#ff0000"
       d="m 194.05,54.198216 v -1.623214 h 0.49286 v 4.167857 H 194.05 v -0.45 q -0.15536,0.267857 -0.39375,0.399107 -0.23572,0.128571 -0.56786,0.128571 -0.54375,0 -0.88661,-0.433928 -0.34017,-0.433929 -0.34017,-1.141072 0,-0.707142 0.34017,-1.141071 0.34286,-0.433929 0.88661,-0.433929 0.33214,0 0.56786,0.13125 0.23839,0.128572 0.39375,0.396429 z m -1.67947,1.047321 q 0,0.54375 0.22233,0.854465 0.225,0.308035 0.61607,0.308035 0.39107,0 0.61607,-0.308035 0.225,-0.310715 0.225,-0.854465 0,-0.54375 -0.225,-0.851785 -0.225,-0.310715 -0.61607,-0.310715 -0.39107,0 -0.61607,0.310715 -0.22233,0.308035 -0.22233,0.851785 z" />
    <path
       id="path71"
       style="fill:#ff0000"
       d="m 195.55804,53.742859 h 0.49285 v 3 h -0.49285 z m 0,-1.167857 h 0.49285 v 0.624107 h -0.49285 z" />
    <path
       id="path73"
       style="fill:#ff0000"
       d="m 199.23839,53.858037 v 0.460715 q -0.20892,-0.115179 -0.42053,-0.171429 -0.20893,-0.05893 -0.42322,-0.05893 -0.47946,0 -0.74464,0.305357 -0.26518,0.302678 -0.26518,0.851785 0,0.549108 0.26518,0.854465 0.26518,0.302678 0.74464,0.302678 0.21429,0 0.42322,-0.05625 0.21161,-0.05893 0.42053,-0.174107 v 0.455357 q -0.20625,0.09643 -0.42857,0.144643 -0.21964,0.04821 -0.46875,0.04821 -0.67768,0 -1.07678,-0.425892 -0.39911,-0.425893 -0.39911,-1.149108 0,-0.733928 0.40179,-1.154464 0.40446,-0.420536 1.10625,-0.420536 0.22767,0 0.44464,0.04821 0.21696,0.04554 0.42053,0.139285 z" />
    <path
       id="path75"
       style="fill:#ff0000"
       d="m 201.46429,55.234823 q -0.59733,0 -0.82768,0.136607 -0.23036,0.136607 -0.23036,0.466072 0,0.2625 0.17143,0.417857 0.17411,0.152678 0.47143,0.152678 0.40982,0 0.65625,-0.289285 0.2491,-0.291965 0.2491,-0.774107 v -0.109822 z m 0.98303,-0.203571 v 1.711607 h -0.49286 v -0.455357 q -0.16875,0.273214 -0.42053,0.404464 -0.25179,0.128571 -0.61607,0.128571 -0.46072,0 -0.73393,-0.257142 -0.27054,-0.259822 -0.27054,-0.69375 0,-0.50625 0.3375,-0.763393 0.34018,-0.257143 1.0125,-0.257143 h 0.69107 v -0.04821 q 0,-0.340179 -0.225,-0.525 -0.22232,-0.1875 -0.62678,-0.1875 -0.25714,0 -0.50089,0.06161 -0.24375,0.06161 -0.46875,0.184821 v -0.455357 q 0.27053,-0.104464 0.525,-0.155357 0.25446,-0.05357 0.49553,-0.05357 0.65089,0 0.97232,0.3375 0.32143,0.3375 0.32143,1.023215 z" />
    <path
       id="path77"
       style="fill:#ff0000"
       d="m 203.95268,52.891073 v 0.851786 h 1.01518 v 0.383036 h -1.01518 v 1.628571 q 0,0.366964 0.0991,0.471429 0.10178,0.104464 0.40982,0.104464 h 0.50625 v 0.4125 h -0.50625 q -0.57054,0 -0.7875,-0.211607 -0.21696,-0.214286 -0.21696,-0.776786 v -1.628571 h -0.36161 v -0.383036 h 0.36161 v -0.851786 z" />
    <path
       id="path79"
       style="fill:#ff0000"
       d="m 206.78125,54.088395 q -0.39642,0 -0.62678,0.310714 -0.23036,0.308036 -0.23036,0.846428 0,0.538393 0.22768,0.849108 0.23036,0.308035 0.62946,0.308035 0.39375,0 0.62411,-0.310714 0.23036,-0.310714 0.23036,-0.846429 0,-0.533035 -0.23036,-0.84375 -0.23036,-0.313392 -0.62411,-0.313392 z m 0,-0.417858 q 0.64286,0 1.00983,0.417858 0.36696,0.417857 0.36696,1.157142 0,0.736608 -0.36696,1.157143 -0.36697,0.417857 -1.00983,0.417857 -0.64553,0 -1.0125,-0.417857 -0.36428,-0.420535 -0.36428,-1.157143 0,-0.739285 0.36428,-1.157142 0.36697,-0.417858 1.0125,-0.417858 z" />
    <path
       id="path81"
       style="fill:#ff0000"
       d="m 210.71072,54.203573 q -0.083,-0.04821 -0.18215,-0.06964 -0.0964,-0.02411 -0.21428,-0.02411 -0.41786,0 -0.64286,0.273214 -0.22232,0.270536 -0.22232,0.779465 v 1.580357 h -0.49554 v -3 h 0.49554 v 0.466071 q 0.15536,-0.273214 0.40446,-0.404464 0.24911,-0.133929 0.60536,-0.133929 0.0509,0 0.1125,0.008 0.0616,0.0054 0.13661,0.01875 z" />
    <path
       id="path83"
       style="fill:#ff0000"
       d="m 213.14553,53.831252 v 0.466071 q -0.20892,-0.107143 -0.43392,-0.160714 -0.225,-0.05357 -0.46608,-0.05357 -0.36696,0 -0.55178,0.1125 -0.18214,0.1125 -0.18214,0.3375 0,0.171429 0.13125,0.270536 0.13125,0.09643 0.52767,0.184822 l 0.16875,0.0375 q 0.525,0.1125 0.74465,0.31875 0.22232,0.203571 0.22232,0.570535 0,0.417857 -0.33214,0.661607 -0.32947,0.24375 -0.90804,0.24375 -0.24107,0 -0.50357,-0.04821 -0.25982,-0.04554 -0.54911,-0.139286 v -0.508928 q 0.27322,0.141964 0.53839,0.214286 0.26518,0.06964 0.525,0.06964 0.34822,0 0.53572,-0.117857 0.1875,-0.120535 0.1875,-0.3375 0,-0.200893 -0.13661,-0.308035 -0.13393,-0.107143 -0.59196,-0.20625 L 211.9,55.398216 q -0.45804,-0.09643 -0.66161,-0.294643 -0.20357,-0.200893 -0.20357,-0.549107 0,-0.423214 0.3,-0.653571 0.3,-0.230358 0.85179,-0.230358 0.27321,0 0.51428,0.04018 0.24107,0.04018 0.44464,0.120536 z" />
    <path
       id="path85"
       style="fill:#ff0000"
       d="m 214.16339,56.062502 h 0.56518 v 0.680357 h -0.56518 z" />
    <path
       id="path87"
       style="fill:#ff0000"
       d="m 215.84018,52.575002 h 0.49286 v 4.167857 h -0.49286 z" />
    <path
       id="path89"
       style="fill:#ff0000"
       d="m 218.725,55.234823 q -0.59732,0 -0.82768,0.136607 -0.23036,0.136607 -0.23036,0.466072 0,0.2625 0.17143,0.417857 0.17411,0.152678 0.47143,0.152678 0.40982,0 0.65625,-0.289285 0.24911,-0.291965 0.24911,-0.774107 v -0.109822 z m 0.98303,-0.203571 v 1.711607 h -0.49285 v -0.455357 q -0.16875,0.273214 -0.42054,0.404464 -0.25179,0.128571 -0.61607,0.128571 -0.46072,0 -0.73393,-0.257142 -0.27054,-0.259822 -0.27054,-0.69375 0,-0.50625 0.3375,-0.763393 0.34018,-0.257143 1.0125,-0.257143 h 0.69108 v -0.04821 q 0,-0.340179 -0.225,-0.525 -0.22233,-0.1875 -0.62679,-0.1875 -0.25714,0 -0.50089,0.06161 -0.24375,0.06161 -0.46875,0.184821 v -0.455357 q 0.27053,-0.104464 0.525,-0.155357 0.25446,-0.05357 0.49553,-0.05357 0.6509,0 0.97232,0.3375 0.32143,0.3375 0.32143,1.023215 z" />
    <path
       id="path91"
       style="fill:#ff0000"
       d="m 222.87946,55.245537 q 0,-0.54375 -0.225,-0.851785 -0.22232,-0.310715 -0.61339,-0.310715 -0.39107,0 -0.61607,0.310715 -0.22232,0.308035 -0.22232,0.851785 0,0.54375 0.22232,0.854465 0.225,0.308035 0.61607,0.308035 0.39107,0 0.61339,-0.308035 0.225,-0.310715 0.225,-0.854465 z m -1.67678,-1.047321 q 0.15536,-0.267857 0.39107,-0.396429 0.23839,-0.13125 0.56786,-0.13125 0.54643,0 0.8866,0.433929 0.34286,0.433929 0.34286,1.141071 0,0.707143 -0.34286,1.141072 -0.34017,0.433928 -0.8866,0.433928 -0.32947,0 -0.56786,-0.128571 -0.23571,-0.13125 -0.39107,-0.399107 v 0.45 h -0.49554 v -4.167857 h 0.49554 z" />
    <path
       id="path93"
       style="fill:#ff0000"
       d="m 226.7741,55.119645 v 0.241071 h -2.26607 q 0.0322,0.508929 0.30536,0.776786 0.27589,0.265178 0.76607,0.265178 0.28393,0 0.54911,-0.06964 0.26786,-0.06964 0.53036,-0.208928 v 0.466071 q -0.26518,0.1125 -0.54375,0.171429 -0.27858,0.05893 -0.56518,0.05893 -0.71786,0 -1.1384,-0.417857 -0.41785,-0.417857 -0.41785,-1.130357 0,-0.736607 0.39643,-1.167857 0.3991,-0.433929 1.0741,-0.433929 0.60536,0 0.95625,0.391072 0.35357,0.388393 0.35357,1.058036 z m -0.49285,-0.144643 q -0.005,-0.404465 -0.22768,-0.645536 -0.21964,-0.241071 -0.58393,-0.241071 -0.4125,0 -0.66161,0.233035 -0.24643,0.233036 -0.28393,0.65625 z" />
    <path
       id="path95"
       style="fill:#ff0000"
       d="m 227.58303,52.575002 h 0.49286 v 4.167857 h -0.49286 z" />
    <path
       id="path97"
       style="fill:#ff0000"
       d="m 229.59196,52.891073 v 0.851786 h 1.01518 v 0.383036 h -1.01518 v 1.628571 q 0,0.366964 0.0991,0.471429 0.10179,0.104464 0.40982,0.104464 h 0.50625 v 0.4125 h -0.50625 q -0.57053,0 -0.7875,-0.211607 -0.21696,-0.214286 -0.21696,-0.776786 v -1.628571 h -0.36161 v -0.383036 h 0.36161 v -0.851786 z" />
    <path
       id="path99"
       style="fill:#ff0000"
       d="m 233.75179,53.742859 -1.08483,1.459821 1.14108,1.540179 h -0.58125 l -0.87322,-1.178572 -0.87321,1.178572 h -0.58125 l 1.16518,-1.569643 -1.06608,-1.430357 h 0.58125 l 0.79554,1.06875 0.79554,-1.06875 z" />
    <path
       id="path101"
       style="fill:#ff0000"
       d="m 234.99197,52.891073 v 0.851786 h 1.01517 v 0.383036 h -1.01517 v 1.628571 q 0,0.366964 0.0991,0.471429 0.10179,0.104464 0.40982,0.104464 h 0.50625 v 0.4125 h -0.50625 q -0.57053,0 -0.7875,-0.211607 -0.21696,-0.214286 -0.21696,-0.776786 v -1.628571 h -0.36161 v -0.383036 h 0.36161 v -0.851786 z" />
    <path
       id="path103"
       style="fill:#ff0000"
       d="m 237.80982,52.575002 v 4.891071 h -1.13571 v -0.383036 h 0.64018 v -4.125 h -0.64018 v -0.383035 z" />
  </g>
</svg>
