<?xml version="1.0" encoding="UTF-8" standalone="no"?>
<svg
   xmlns:dc="http://purl.org/dc/elements/1.1/"
   xmlns:cc="http://creativecommons.org/ns#"
   xmlns:rdf="http://www.w3.org/1999/02/22-rdf-syntax-ns#"
   xmlns:svg="http://www.w3.org/2000/svg"
   xmlns="http://www.w3.org/2000/svg"
   id="svg25"
   stroke-miterlimit="10"
   stroke-linecap="square"
   stroke="none"
   fill="none"
   viewBox="0.0 0.0 288.0 115.0"
   version="1.1">
  <metadata
     id="metadata31">
    <rdf:RDF>
      <cc:Work
         rdf:about="">
        <dc:format>image/svg+xml</dc:format>
        <dc:type
           rdf:resource="http://purl.org/dc/dcmitype/StillImage" />
      </cc:Work>
    </rdf:RDF>
  </metadata>
  <defs
     id="defs29" />
  <clipPath
     id="p.0">
    <path
       id="path2"
       clip-rule="nonzero"
       d="m0 0l288.0 0l0 115.0l-288.0 0l0 -115.0z" />
  </clipPath>
  <g
     id="g19"
     clip-path="url(#p.0)">
    <path
       id="path5"
       fill-rule="nonzero"
       d="M 0,0 H 288 V 115 H 0 Z"
       fill-opacity="0"
       fill="#000000" />
    <path
       id="path7"
       fill-rule="nonzero"
       d="M 12,8.503937 H 276 V 107.49607 H 12 Z"
       fill="#ffffff" />
    <path
       id="path9"
       fill-rule="nonzero"
       d="M 12,8.503937 H 276 V 107.49607 H 12 Z"
       stroke-linecap="butt"
       stroke-linejoin="round"
       stroke-width="2"
       stroke="#000000" />
    <path
       id="path11"
       fill-rule="nonzero"
       d="M 114,32 H 259.00787 V 85.984253 H 114 Z"
       fill="#000000" />
    <path
       id="path13"
       fill-rule="nonzero"
       d="M 114,32 H 259.00787 V 85.984253 H 114 Z"
       stroke-linecap="butt"
       stroke-linejoin="round"
       stroke-width="2"
       stroke="#000000" />
    <path
       id="path15"
       fill-rule="nonzero"
       d="m 36,58 v 0 C 36,43.092659 48.084785,31.007874 62.992126,31.007874 v 0 c 7.15876,0 14.024307,2.843807 19.086311,7.905811 C 87.140449,43.975689 89.984252,50.841244 89.984252,58 v 0 c 0,14.907341 -12.084785,26.992126 -26.992126,26.992126 v 0 C 48.084785,84.992126 36,72.907341 36,58 Z"
       fill="#ffffff" />
    <path
       id="path17"
       fill-rule="nonzero"
       d="m 36,58 v 0 C 36,43.092659 48.084785,31.007874 62.992126,31.007874 v 0 c 7.15876,0 14.024307,2.843807 19.086311,7.905811 C 87.140449,43.975689 89.984252,50.841244 89.984252,58 v 0 c 0,14.907341 -12.084785,26.992126 -26.992126,26.992126 v 0 C 48.084785,84.992126 36,72.907341 36,58 Z"
       stroke-linecap="butt"
       stroke-linejoin="round"
       stroke-width="2"
       stroke="#000000" />
  </g>
  <g
     style="font-size:32px;font-family:'DejaVu Sans', sans-serif;text-anchor:middle;fill:#ffffff"
     id="text23"
     aria-label="[ูุต]">
    <path
       id="path33"
       d="m 153.1875,45.6875 h 6.625 v 2.234375 h -3.75 v 24.0625 h 3.75 v 2.234375 h -6.625 z" />
    <path
       id="path35"
       d="m 205.625,54.375 h 2.34375 v 2.34375 H 205.625 Z m 1.17187,14.28125 Q 205.67187,70 203.21875,70 h -1.40625 v -2.875 h 0.54687 q 1.54688,0 2.23438,-0.6875 0.76562,-0.765625 0.76562,-2.421875 V 60.625 h 2.875 v 3.390625 q 0,2.921875 -1.4375,4.640625 z" />
    <path
       id="path37"
       d="m 188.76562,70 h -4.3125 q -0.59375,0 -1.40625,-0.46875 -0.70312,-0.40625 -0.70312,-0.65625 0,2.90625 -1.15625,4.90625 -1.375,2.421875 -5.09375,3.625 -1.25,0.40625 -3.125,0.40625 -2,-0.01563 -3.70313,-0.453125 Q 164.96875,76.25 164.96875,71.125 q 0,-3.84375 1.64062,-6.65625 h 2.875 q -1.6875,3.21875 -1.67187,6.65625 0.0156,2.796875 2.3125,3.390625 1.48437,0.375 2.75,0.375 1.59375,0 3.01562,-0.578125 2.53125,-1.0625 3.20313,-3.21875 0.51562,-1.6875 0.51562,-3.671875 0,-2.296875 -0.60937,-4.453125 h 2.67187 q -0.0156,0.234375 0.20313,1.09375 0.15625,0.625 0.78125,1.40625 1.79687,-2.28125 3.71875,-3.96875 1.6875,-1.46875 3.98437,-2.5625 1.125,-0.53125 2.5,-0.515625 1.95313,0.03125 3.46875,0.609375 2.90625,1.109375 2.90625,4.75 0,1.203125 -0.65625,2.296875 0.21875,0.1875 0.46875,0.359375 0.95313,0.6875 2.23438,0.6875 h 1.17187 V 70 h -2.03125 q -2.04687,0 -3.65625,-1.4375 l -0.4375,-0.40625 Q 193.14062,70 188.76562,70 Z m 4.09375,-8.859375 q -1.1875,0 -3.15625,1.265625 -2.625,1.6875 -4.89062,4.71875 h 2.92187 q 3.70313,0 5.71875,-0.984375 2.92188,-1.421875 2.90625,-2.515625 -0.0312,-2.109375 -2.17187,-2.40625 -0.57813,-0.07813 -1.32813,-0.07813 z" />
    <path
       id="path39"
       d="m 220.79687,45.6875 v 28.53125 h -6.625 v -2.234375 h 3.73438 v -24.0625 h -3.73438 V 45.6875 Z" />
  </g>
</svg>
