<?xml version="1.0" encoding="utf-8"?><svg width="100%" height="100%" viewBox="0 0 400 420" preserveAspectRatio="xMidYMid meet" version="1.1" xmlns="http://www.w3.org/2000/svg"><text font-family="Special Elite, sans-serif" text-anchor="middle" x="10" y="15" font-size="18px"><tspan>А</tspan></text><circle cx="34" cy="11" r="4" /><rect width="24" height="8" x="46" y="7" /><text font-family="Special Elite, sans-serif" text-anchor="middle" x="10" y="35" font-size="18px"><tspan>Б</tspan></text><rect width="24" height="8" x="30" y="27" /><circle cx="66" cy="31" r="4" /><circle cx="82" cy="31" r="4" /><circle cx="98" cy="31" r="4" /><text font-family="Special Elite, sans-serif" text-anchor="middle" x="10" y="55" font-size="18px"><tspan>В</tspan></text><circle cx="34" cy="51" r="4" /><rect width="24" height="8" x="46" y="47" /><rect width="24" height="8" x="78" y="47" /><text font-family="Special Elite, sans-serif" text-anchor="middle" x="10" y="75" font-size="18px"><tspan>Г</tspan></text><rect width="24" height="8" x="30" y="67" /><rect width="24" height="8" x="62" y="67" /><circle cx="98" cy="71" r="4" /><text font-family="Special Elite, sans-serif" text-anchor="middle" x="10" y="95" font-size="18px"><tspan>Д</tspan></text><rect width="24" height="8" x="30" y="87" /><circle cx="66" cy="91" r="4" /><circle cx="82" cy="91" r="4" /><text font-family="Special Elite, sans-serif" text-anchor="middle" x="10" y="115" font-size="18px"><tspan>Е</tspan></text><circle cx="34" cy="111" r="4" /><text font-family="Special Elite, sans-serif" text-anchor="middle" x="10" y="135" font-size="18px"><tspan>Ж</tspan></text><circle cx="34" cy="131" r="4" /><circle cx="50" cy="131" r="4" /><circle cx="66" cy="131" r="4" /><rect width="24" height="8" x="78" y="127" /><text font-family="Special Elite, sans-serif" text-anchor="middle" x="10" y="155" font-size="18px"><tspan>З</tspan></text><rect width="24" height="8" x="30" y="147" /><rect width="24" height="8" x="62" y="147" /><circle cx="98" cy="151" r="4" /><circle cx="114" cy="151" r="4" /><text font-family="Special Elite, sans-serif" text-anchor="middle" x="10" y="175" font-size="18px"><tspan>И</tspan></text><circle cx="34" cy="171" r="4" /><circle cx="50" cy="171" r="4" /><text font-family="Special Elite, sans-serif" text-anchor="middle" x="10" y="195" font-size="18px"><tspan>Й</tspan></text><circle cx="34" cy="191" r="4" /><rect width="24" height="8" x="46" y="187" /><rect width="24" height="8" x="78" y="187" /><rect width="24" height="8" x="110" y="187" /><text font-family="Special Elite, sans-serif" text-anchor="middle" x="10" y="215" font-size="18px"><tspan>К</tspan></text><rect width="24" height="8" x="30" y="207" /><circle cx="66" cy="211" r="4" /><rect width="24" height="8" x="78" y="207" /><text font-family="Special Elite, sans-serif" text-anchor="middle" x="10" y="235" font-size="18px"><tspan>Л</tspan></text><circle cx="34" cy="231" r="4" /><rect width="24" height="8" x="46" y="227" /><circle cx="82" cy="231" r="4" /><circle cx="98" cy="231" r="4" /><text font-family="Special Elite, sans-serif" text-anchor="middle" x="10" y="255" font-size="18px"><tspan>М</tspan></text><rect width="24" height="8" x="30" y="247" /><rect width="24" height="8" x="62" y="247" /><text font-family="Special Elite, sans-serif" text-anchor="middle" x="10" y="275" font-size="18px"><tspan>Н</tspan></text><rect width="24" height="8" x="30" y="267" /><circle cx="66" cy="271" r="4" /><text font-family="Special Elite, sans-serif" text-anchor="middle" x="10" y="295" font-size="18px"><tspan>О</tspan></text><rect width="24" height="8" x="30" y="287" /><rect width="24" height="8" x="62" y="287" /><rect width="24" height="8" x="94" y="287" /><text font-family="Special Elite, sans-serif" text-anchor="middle" x="10" y="315" font-size="18px"><tspan>П</tspan></text><circle cx="34" cy="311" r="4" /><rect width="24" height="8" x="46" y="307" /><rect width="24" height="8" x="78" y="307" /><circle cx="114" cy="311" r="4" /><text font-family="Special Elite, sans-serif" text-anchor="middle" x="10" y="335" font-size="18px"><tspan>Р</tspan></text><circle cx="34" cy="331" r="4" /><rect width="24" height="8" x="46" y="327" /><circle cx="82" cy="331" r="4" /><text font-family="Special Elite, sans-serif" text-anchor="middle" x="10" y="355" font-size="18px"><tspan>С</tspan></text><circle cx="34" cy="351" r="4" /><circle cx="50" cy="351" r="4" /><circle cx="66" cy="351" r="4" /><text font-family="Special Elite, sans-serif" text-anchor="middle" x="10" y="375" font-size="18px"><tspan>Т</tspan></text><rect width="24" height="8" x="30" y="367" /><text font-family="Special Elite, sans-serif" text-anchor="middle" x="10" y="395" font-size="18px"><tspan>У</tspan></text><circle cx="34" cy="391" r="4" /><circle cx="50" cy="391" r="4" /><rect width="24" height="8" x="62" y="387" /><text font-family="Special Elite, sans-serif" text-anchor="middle" x="200" y="15" font-size="18px"><tspan>Ф</tspan></text><circle cx="224" cy="11" r="4" /><circle cx="240" cy="11" r="4" /><rect width="24" height="8" x="252" y="7" /><circle cx="288" cy="11" r="4" /><text font-family="Special Elite, sans-serif" text-anchor="middle" x="200" y="35" font-size="18px"><tspan>Х</tspan></text><circle cx="224" cy="31" r="4" /><circle cx="240" cy="31" r="4" /><circle cx="256" cy="31" r="4" /><circle cx="272" cy="31" r="4" /><text font-family="Special Elite, sans-serif" text-anchor="middle" x="200" y="55" font-size="18px"><tspan>Ц</tspan></text><rect width="24" height="8" x="220" y="47" /><circle cx="256" cy="51" r="4" /><rect width="24" height="8" x="268" y="47" /><circle cx="304" cy="51" r="4" /><text font-family="Special Elite, sans-serif" text-anchor="middle" x="200" y="75" font-size="18px"><tspan>Ч</tspan></text><rect width="24" height="8" x="220" y="67" /><rect width="24" height="8" x="252" y="67" /><rect width="24" height="8" x="284" y="67" /><circle cx="320" cy="71" r="4" /><text font-family="Special Elite, sans-serif" text-anchor="middle" x="200" y="95" font-size="18px"><tspan>Ш</tspan></text><rect width="24" height="8" x="220" y="87" /><rect width="24" height="8" x="252" y="87" /><rect width="24" height="8" x="284" y="87" /><rect width="24" height="8" x="316" y="87" /><text font-family="Special Elite, sans-serif" text-anchor="middle" x="200" y="115" font-size="18px"><tspan>Щ</tspan></text><rect width="24" height="8" x="220" y="107" /><rect width="24" height="8" x="252" y="107" /><circle cx="288" cy="111" r="4" /><rect width="24" height="8" x="300" y="107" /><text font-family="Special Elite, sans-serif" text-anchor="middle" x="200" y="135" font-size="18px"><tspan>Ъ</tspan></text><rect width="24" height="8" x="220" y="127" /><rect width="24" height="8" x="252" y="127" /><circle cx="288" cy="131" r="4" /><rect width="24" height="8" x="300" y="127" /><rect width="24" height="8" x="332" y="127" /><text font-family="Special Elite, sans-serif" text-anchor="middle" x="200" y="155" font-size="18px"><tspan>Ь</tspan></text><rect width="24" height="8" x="220" y="147" /><circle cx="256" cy="151" r="4" /><circle cx="272" cy="151" r="4" /><rect width="24" height="8" x="284" y="147" /><text font-family="Special Elite, sans-serif" text-anchor="middle" x="200" y="175" font-size="18px"><tspan>Ы</tspan></text><rect width="24" height="8" x="220" y="167" /><circle cx="256" cy="171" r="4" /><rect width="24" height="8" x="268" y="167" /><rect width="24" height="8" x="300" y="167" /><text font-family="Special Elite, sans-serif" text-anchor="middle" x="200" y="195" font-size="18px"><tspan>Э</tspan></text><circle cx="224" cy="191" r="4" /><circle cx="240" cy="191" r="4" /><rect width="24" height="8" x="252" y="187" /><circle cx="288" cy="191" r="4" /><circle cx="304" cy="191" r="4" /><text font-family="Special Elite, sans-serif" text-anchor="middle" x="200" y="215" font-size="18px"><tspan>Ю</tspan></text><circle cx="224" cy="211" r="4" /><circle cx="240" cy="211" r="4" /><rect width="24" height="8" x="252" y="207" /><rect width="24" height="8" x="284" y="207" /><text font-family="Special Elite, sans-serif" text-anchor="middle" x="200" y="235" font-size="18px"><tspan>Я</tspan></text><circle cx="224" cy="231" r="4" /><rect width="24" height="8" x="236" y="227" /><circle cx="272" cy="231" r="4" /><rect width="24" height="8" x="284" y="227" /></svg>