<?xml version="1.0" encoding="UTF-8" standalone="no"?>
<svg
   xmlns:dc="http://purl.org/dc/elements/1.1/"
   xmlns:cc="http://creativecommons.org/ns#"
   xmlns:rdf="http://www.w3.org/1999/02/22-rdf-syntax-ns#"
   xmlns:svg="http://www.w3.org/2000/svg"
   xmlns="http://www.w3.org/2000/svg"
   id="svg69"
   stroke-miterlimit="10"
   stroke-linecap="square"
   stroke="none"
   fill="none"
   viewBox="0.0 0.0 348.0 348.0"
   version="1.1">
  <metadata
     id="metadata75">
    <rdf:RDF>
      <cc:Work
         rdf:about="">
        <dc:format>image/svg+xml</dc:format>
        <dc:type
           rdf:resource="http://purl.org/dc/dcmitype/StillImage" />
      </cc:Work>
    </rdf:RDF>
  </metadata>
  <defs
     id="defs73" />
  <clipPath
     id="p.0">
    <path
       id="path2"
       clip-rule="nonzero"
       d="m0 0l348.0 0l0 348.0l-348.0 0l0 -348.0z" />
  </clipPath>
  <g
     id="g63"
     clip-path="url(#p.0)">
    <path
       style="fill:#000000;fill-opacity:0;fill-rule:nonzero"
       id="path5"
       d="M 0,0 H 348 V 348 H 0 Z" />
    <path
       style="fill:#ffffff;fill-rule:nonzero"
       id="path7"
       d="M -6,0 H 342 V 347.9685 H -6 Z" />
    <path
       style="fill:#000000;fill-opacity:0;fill-rule:nonzero"
       id="path9"
       d="m 5.07874,5.7758217 h 336.9134 V 343.44512 H 5.07874 Z" />
    <path
       style="fill-rule:nonzero;stroke:#000000;stroke-width:2;stroke-linecap:butt;stroke-linejoin:round"
       id="path11"
       d="m 5.07874,5.7758217 h 336.9134 V 343.44512 H 5.07874 Z" />
    <path
       style="fill:#ffffff;fill-rule:nonzero"
       id="path13"
       d="M 17.036913,71.17821 H 242.42274 V 306.51679 H 17.036913 Z" />
    <path
       style="fill-rule:nonzero;stroke:#000000;stroke-width:2;stroke-linecap:butt;stroke-linejoin:round"
       id="path15"
       d="M 17.036913,71.17821 H 242.42274 V 306.51679 H 17.036913 Z" />
    <path
       style="fill:#000000;fill-rule:nonzero"
       id="path17"
       d="m 273.45645,109.96049 h 46.2677 v 196.56694 h -46.2677 z" />
    <path
       style="fill-rule:nonzero;stroke:#000000;stroke-width:2;stroke-linecap:butt;stroke-linejoin:round"
       id="path19"
       d="m 273.45645,109.96049 h 46.2677 v 196.56694 h -46.2677 z" />
    <path
       style="fill:#ffffff;fill-rule:nonzero"
       id="path21"
       d="m 282.73444,40.553925 v 0 c 0,-8.375591 6.96603,-15.165352 15.55905,-15.165352 v 0 c 4.12653,0 8.08402,1.597773 11.00192,4.441828 2.91788,2.844057 4.55713,6.701422 4.55713,10.723524 v 0 c 0,8.375595 -6.966,15.165356 -15.55905,15.165356 v 0 c -8.59302,0 -15.55905,-6.789761 -15.55905,-15.165356 z" />
    <path
       style="fill-rule:nonzero;stroke:#000000;stroke-width:2;stroke-linecap:butt;stroke-linejoin:round"
       id="path23"
       d="m 282.73444,40.553925 v 0 c 0,-8.375591 6.96603,-15.165352 15.55905,-15.165352 v 0 c 4.12653,0 8.08402,1.597773 11.00192,4.441828 2.91788,2.844057 4.55713,6.701422 4.55713,10.723524 v 0 c 0,8.375595 -6.966,15.165356 -15.55905,15.165356 v 0 c -8.59302,0 -15.55905,-6.789761 -15.55905,-15.165356 z" />
    <path
       style="fill:#ffffff;fill-rule:nonzero"
       id="path25"
       d="m 31.55643,188.84772 v 0 c 0,-54.95016 43.953648,-99.49606 98.17323,-99.49606 v 0 c 26.03716,0 51.00789,10.48259 69.41894,29.14172 18.41106,18.65914 28.75428,43.96634 28.75428,70.35434 v 0 c 0,54.95017 -43.95365,99.49606 -98.17322,99.49606 v 0 c -54.219583,0 -98.173233,-44.5459 -98.173233,-99.49606 z" />
    <path
       style="fill-rule:nonzero;stroke:#000000;stroke-width:2;stroke-linecap:butt;stroke-linejoin:round"
       id="path27"
       d="m 31.55643,188.84772 v 0 c 0,-54.95016 43.953648,-99.49606 98.17323,-99.49606 v 0 c 26.03716,0 51.00789,10.48259 69.41894,29.14172 18.41106,18.65914 28.75428,43.96634 28.75428,70.35434 v 0 c 0,54.95017 -43.95365,99.49606 -98.17322,99.49606 v 0 c -54.219583,0 -98.173233,-44.5459 -98.173233,-99.49606 z" />
    <path
       style="fill:#000000;fill-opacity:0;fill-rule:nonzero"
       id="path29"
       d="m 45.42257,153.48425 h 202.51968 v 70.67717 H 45.42257 Z" />
    <path
       style="fill:#000000;fill-opacity:0;fill-rule:nonzero"
       id="path31"
       d="M 40.969852,95.99732 H 218.89111 v 185.7008 H 40.969852 Z" />
    <path
       style="fill-rule:nonzero;stroke:#000000;stroke-width:1;stroke-linecap:butt;stroke-linejoin:round"
       id="path33"
       d="M 40.969852,95.99732 H 218.89111 v 185.7008 H 40.969852 Z" />
    <path
       style="fill:#000000;fill-opacity:0;fill-rule:nonzero"
       id="path35"
       d="M 17.708662,72.89501 41.173229,95.950132" />
    <path
       style="fill-rule:nonzero;stroke:#000000;stroke-width:1;stroke-linecap:butt;stroke-linejoin:round"
       id="path37"
       d="M 17.708662,72.89501 41.173229,95.950132" />
    <path
       style="fill:#000000;fill-opacity:0;fill-rule:nonzero"
       id="path39"
       d="m 219.0971,281.69553 23.08662,24.28348" />
    <path
       style="fill-rule:nonzero;stroke:#000000;stroke-width:1;stroke-linecap:butt;stroke-linejoin:round"
       id="path41"
       d="m 219.0971,281.69553 23.08662,24.28348" />
    <path
       style="fill:#000000;fill-opacity:0;fill-rule:nonzero"
       id="path43"
       d="M 242.15749,72.89501 219.51181,95.950132" />
    <path
       style="fill-rule:nonzero;stroke:#000000;stroke-width:1;stroke-linecap:butt;stroke-linejoin:round"
       id="path45"
       d="M 242.15749,72.89501 219.51181,95.950132" />
    <path
       style="fill:#000000;fill-opacity:0;fill-rule:nonzero"
       id="path47"
       d="M 40.76378,281.70078 18.11811,304.75592" />
    <path
       style="fill-rule:nonzero;stroke:#000000;stroke-width:1;stroke-linecap:butt;stroke-linejoin:round"
       id="path49"
       d="M 40.76378,281.70078 18.11811,304.75592" />
    <path
       style="fill:#000000;fill-opacity:0;fill-rule:nonzero"
       id="path51"
       d="M 55.18635,58.892387 H 81.139105 V 71.17585 H 55.18635 Z" />
    <path
       style="fill-rule:nonzero;stroke:#000000;stroke-width:2;stroke-linecap:butt;stroke-linejoin:round"
       id="path53"
       d="M 55.18635,58.892387 H 81.139105 V 71.17585 H 55.18635 Z" />
    <path
       style="fill:#000000;fill-opacity:0;fill-rule:nonzero"
       id="path55"
       d="m 180.33595,58.892387 h 25.95276 V 71.17585 h -25.95276 z" />
    <path
       style="fill-rule:nonzero;stroke:#000000;stroke-width:2;stroke-linecap:butt;stroke-linejoin:round"
       id="path57"
       d="m 180.33595,58.892387 h 25.95276 V 71.17585 h -25.95276 z" />
    <path
       style="fill:#000000;fill-opacity:0;fill-rule:nonzero"
       id="path59"
       d="m 84.14173,63.422573 h 92.25196 v 7.748028 H 84.14173 Z" />
    <path
       style="fill-rule:nonzero;stroke:#000000;stroke-width:2;stroke-linecap:butt;stroke-linejoin:round"
       id="path61"
       d="m 84.14173,63.422573 h 92.25196 v 7.748028 H 84.14173 Z" />
  </g>
  <g
     id="text67"
     style="font-size:42px;font-family:'DejaVu Sans', sans-serif;text-anchor:middle;fill:#000000"
     aria-label="[ テキスト ]">
    <path
       id="path77"
       style=""
       d="m 20.832031,171.08984 h 8.695313 v 2.93262 h -4.921875 v 31.58203 h 4.921875 v 2.93262 h -8.695313 z" />
    <path
       id="path79"
       style=""
       d="m 67.507813,186.59375 h -16.40625 v -3.60937 h 33.632812 v 3.60937 H 71.28125 v 2.13281 q 0,10.33594 -7.382812,17.0625 l -3.28125,-2.46093 q 6.890625,-5.41407 6.890625,-14.60157 z m -10.5,-10.00781 v -3.60938 h 21.820312 v 3.60938 z" />
    <path
       id="path81"
       style=""
       d="m 128.53906,190.20313 -15.25781,1.64062 3.11719,13.28906 -3.60938,0.82032 -3.11719,-13.61719 -16.73437,1.96875 -0.492187,-3.44531 16.406247,-1.80469 -1.64062,-7.71094 -11.156252,1.3125 -0.65625,-3.44531 10.828122,-1.14844 -1.64062,-7.54687 3.44531,-0.65625 q 1.47656,-0.16407 0.49219,1.14843 l 1.3125,6.5625 11.97656,-1.64062 0.65625,3.44531 -11.64844,1.47656 1.64063,7.71094 15.42187,-1.80469 z" />
    <path
       id="path83"
       style=""
       d="m 154.625,188.07031 q 7.05469,5.41407 13.94531,12.46875 l -3.28125,2.78907 Q 158.39844,196.10938 152,191.1875 q -6.39844,6.89063 -14.60156,12.30469 l -3.11719,-2.78906 q 17.39063,-11.32032 22.3125,-22.64063 l -17.88281,1.14844 -0.49219,-3.9375 19.03125,-0.82031 1.96875,-0.49219 2.625,2.625 q 1.14844,1.14844 -0.65625,1.47656 -3.11719,5.41406 -6.5625,10.00781 z" />
    <path
       id="path85"
       style=""
       d="m 192.6875,183.3125 q 8.03906,2.29688 16.24219,6.23438 l -1.96875,3.77343 q -8.69531,-4.42968 -14.27344,-5.90625 v 17.0625 h -3.77344 v -32.8125 h 3.28125 q 1.96875,0.16407 0.49219,1.3125 z" />
    <path
       id="path87"
       style=""
       d="m 241.14746,171.08984 v 37.44727 h -8.69531 v -2.93262 h 4.90137 v -31.58203 h -4.90137 v -2.93262 z" />
  </g>
</svg>
