<?xml version="1.0" encoding="UTF-8" standalone="no"?>
<svg
   xmlns:dc="http://purl.org/dc/elements/1.1/"
   xmlns:cc="http://creativecommons.org/ns#"
   xmlns:rdf="http://www.w3.org/1999/02/22-rdf-syntax-ns#"
   xmlns:svg="http://www.w3.org/2000/svg"
   xmlns="http://www.w3.org/2000/svg"
   id="svg149"
   stroke-miterlimit="10"
   stroke-linecap="square"
   stroke="none"
   fill="none"
   viewBox="0.0 0.0 348.0 348.0"
   version="1.1">
  <metadata
     id="metadata155">
    <rdf:RDF>
      <cc:Work
         rdf:about="">
        <dc:format>image/svg+xml</dc:format>
        <dc:type
           rdf:resource="http://purl.org/dc/dcmitype/StillImage" />
      </cc:Work>
    </rdf:RDF>
  </metadata>
  <defs
     id="defs153" />
  <clipPath
     id="p.0">
    <path
       id="path2"
       clip-rule="nonzero"
       d="m0 0l348.0 0l0 348.0l-348.0 0l0 -348.0z" />
  </clipPath>
  <g
     id="g123"
     clip-path="url(#p.0)">
    <path
       style="fill:#000000;fill-opacity:0;fill-rule:nonzero"
       id="path5"
       d="M 0,0 H 348 V 348 H 0 Z" />
    <path
       style="fill:#ffffff;fill-rule:nonzero"
       id="path7"
       d="M -6,0 H 348.01575 V 347.9685 H -6 Z" />
    <path
       style="fill:#000000;fill-opacity:0;fill-rule:nonzero"
       id="path9"
       d="m 5.07874,5.7758217 h 336.9134 V 343.44512 H 5.07874 Z" />
    <path
       style="fill-rule:nonzero;stroke:#000000;stroke-width:2;stroke-linecap:butt;stroke-linejoin:round"
       id="path11"
       d="m 5.07874,5.7758217 h 336.9134 V 343.44512 H 5.07874 Z" />
    <path
       style="fill:#ffffff;fill-rule:nonzero"
       id="path13"
       d="m 282.73444,40.553925 v 0 c 0,-8.375591 6.96603,-15.165352 15.55905,-15.165352 v 0 c 4.12653,0 8.08402,1.597773 11.00192,4.441828 2.91788,2.844057 4.55713,6.701422 4.55713,10.723524 v 0 c 0,8.375595 -6.966,15.165356 -15.55905,15.165356 v 0 c -8.59302,0 -15.55905,-6.789761 -15.55905,-15.165356 z" />
    <path
       style="fill-rule:nonzero;stroke:#000000;stroke-width:2;stroke-linecap:butt;stroke-linejoin:round"
       id="path15"
       d="m 282.73444,40.553925 v 0 c 0,-8.375591 6.96603,-15.165352 15.55905,-15.165352 v 0 c 4.12653,0 8.08402,1.597773 11.00192,4.441828 2.91788,2.844057 4.55713,6.701422 4.55713,10.723524 v 0 c 0,8.375595 -6.966,15.165356 -15.55905,15.165356 v 0 c -8.59302,0 -15.55905,-6.789761 -15.55905,-15.165356 z" />
    <path
       style="fill:#000000;fill-opacity:0;fill-rule:nonzero"
       id="path17"
       d="m 110.60368,279.34647 h 97.92126 v 41.88974 h -97.92126 z" />
    <path
       style="fill-rule:nonzero;stroke:#000000;stroke-width:2;stroke-linecap:butt;stroke-linejoin:round"
       id="path19"
       d="m 110.60368,279.34647 h 97.92126 v 41.88974 h -97.92126 z" />
    <path
       style="fill-rule:nonzero;stroke:#000000;stroke-width:2;stroke-linecap:butt;stroke-linejoin:round"
       id="path21"
       d="m 50.50525,84.80578 v 0 c 0,-5.566338 4.512405,-10.078743 10.078739,-10.078743 v 0 c 2.67305,0 5.236614,1.061859 7.126751,2.951996 1.890129,1.890129 2.951988,4.453697 2.951988,7.126747 v 0 c 0,5.56633 -4.512405,10.078735 -10.078739,10.078735 v 0 c -5.566334,0 -10.078739,-4.512406 -10.078739,-10.078735 z" />
    <path
       style="fill:#000000;fill-rule:nonzero"
       id="path23"
       d="m 56.537144,88.511055 4.047245,-7.401573 4.047241,7.401573 z" />
    <path
       style="fill-rule:nonzero;stroke:#000000;stroke-width:2;stroke-linecap:butt;stroke-linejoin:round"
       id="path25"
       d="m 56.537144,88.511055 4.047245,-7.401573 4.047241,7.401573 z" />
    <path
       style="fill:#ffffff;fill-rule:nonzero"
       id="path27"
       d="m 99.99606,84.80578 v 0 c 0,-5.566338 4.51241,-10.078743 10.07874,-10.078743 v 0 c 2.67305,0 5.23661,1.061859 7.12674,2.951996 1.89014,1.890129 2.952,4.453697 2.952,7.126747 v 0 c 0,5.56633 -4.51241,10.078735 -10.07874,10.078735 v 0 c -5.56633,0 -10.07874,-4.512406 -10.07874,-10.078735 z" />
    <path
       style="fill-rule:nonzero;stroke:#000000;stroke-width:2;stroke-linecap:butt;stroke-linejoin:round"
       id="path29"
       d="m 99.99606,84.80578 v 0 c 0,-5.566338 4.51241,-10.078743 10.07874,-10.078743 v 0 c 2.67305,0 5.23661,1.061859 7.12674,2.951996 1.89014,1.890129 2.952,4.453697 2.952,7.126747 v 0 c 0,5.56633 -4.51241,10.078735 -10.07874,10.078735 v 0 c -5.56633,0 -10.07874,-4.512406 -10.07874,-10.078735 z" />
    <path
       style="fill:#000000;fill-rule:nonzero"
       id="path31"
       d="m 106.02796,88.511055 4.04724,-7.401573 4.04724,7.401573 z" />
    <path
       style="fill-rule:nonzero;stroke:#000000;stroke-width:2;stroke-linecap:butt;stroke-linejoin:round"
       id="path33"
       d="m 106.02796,88.511055 4.04724,-7.401573 4.04724,7.401573 z" />
    <path
       style="fill:#ffffff;fill-rule:nonzero"
       id="path35"
       d="m 149.48557,84.80578 v 0 c 0,-5.566338 4.51241,-10.078743 10.07873,-10.078743 v 0 c 2.67305,0 5.23662,1.061859 7.12676,2.951996 1.89012,1.890129 2.952,4.453697 2.952,7.126747 v 0 c 0,5.56633 -4.51241,10.078735 -10.07876,10.078735 v 0 c -5.56633,0 -10.07873,-4.512406 -10.07873,-10.078735 z" />
    <path
       style="fill-rule:nonzero;stroke:#000000;stroke-width:2;stroke-linecap:butt;stroke-linejoin:round"
       id="path37"
       d="m 149.48557,84.80578 v 0 c 0,-5.566338 4.51241,-10.078743 10.07873,-10.078743 v 0 c 2.67305,0 5.23662,1.061859 7.12676,2.951996 1.89012,1.890129 2.952,4.453697 2.952,7.126747 v 0 c 0,5.56633 -4.51241,10.078735 -10.07876,10.078735 v 0 c -5.56633,0 -10.07873,-4.512406 -10.07873,-10.078735 z" />
    <path
       style="fill:#000000;fill-rule:nonzero"
       id="path39"
       d="m 155.51746,88.511055 4.04724,-7.401573 4.04726,7.401573 z" />
    <path
       style="fill-rule:nonzero;stroke:#000000;stroke-width:2;stroke-linecap:butt;stroke-linejoin:round"
       id="path41"
       d="m 155.51746,88.511055 4.04724,-7.401573 4.04726,7.401573 z" />
    <path
       style="fill:#ffffff;fill-rule:nonzero"
       id="path43"
       d="m 198.89108,84.80578 v 0 c 0,-5.566338 4.51241,-10.078743 10.07873,-10.078743 v 0 c 2.67305,0 5.23662,1.061859 7.12674,2.951996 1.89014,1.890129 2.952,4.453697 2.952,7.126747 v 0 c 0,5.56633 -4.51241,10.078735 -10.07873,10.078735 v 0 c -5.56633,0 -10.07874,-4.512406 -10.07874,-10.078735 z" />
    <path
       style="fill-rule:nonzero;stroke:#000000;stroke-width:2;stroke-linecap:butt;stroke-linejoin:round"
       id="path45"
       d="m 198.89108,84.80578 v 0 c 0,-5.566338 4.51241,-10.078743 10.07873,-10.078743 v 0 c 2.67305,0 5.23662,1.061859 7.12674,2.951996 1.89014,1.890129 2.952,4.453697 2.952,7.126747 v 0 c 0,5.56633 -4.51241,10.078735 -10.07873,10.078735 v 0 c -5.56633,0 -10.07874,-4.512406 -10.07874,-10.078735 z" />
    <path
       style="fill:#000000;fill-rule:nonzero"
       id="path47"
       d="m 204.92297,88.511055 4.04724,-7.401573 4.04724,7.401573 z" />
    <path
       style="fill-rule:nonzero;stroke:#000000;stroke-width:2;stroke-linecap:butt;stroke-linejoin:round"
       id="path49"
       d="m 204.92297,88.511055 4.04724,-7.401573 4.04724,7.401573 z" />
    <path
       style="fill:#ffffff;fill-rule:nonzero"
       id="path51"
       d="m 248.46588,84.80578 v 0 c 0,-5.566338 4.51241,-10.078743 10.07874,-10.078743 v 0 c 2.67306,0 5.23663,1.061859 7.12673,2.951996 1.89014,1.890129 2.952,4.453697 2.952,7.126747 v 0 c 0,5.56633 -4.51239,10.078735 -10.07873,10.078735 v 0 c -5.56633,0 -10.07874,-4.512406 -10.07874,-10.078735 z" />
    <path
       style="fill-rule:nonzero;stroke:#000000;stroke-width:2;stroke-linecap:butt;stroke-linejoin:round"
       id="path53"
       d="m 248.46588,84.80578 v 0 c 0,-5.566338 4.51241,-10.078743 10.07874,-10.078743 v 0 c 2.67306,0 5.23663,1.061859 7.12673,2.951996 1.89014,1.890129 2.952,4.453697 2.952,7.126747 v 0 c 0,5.56633 -4.51239,10.078735 -10.07873,10.078735 v 0 c -5.56633,0 -10.07874,-4.512406 -10.07874,-10.078735 z" />
    <path
       style="fill:#000000;fill-rule:nonzero"
       id="path55"
       d="m 254.49777,88.511055 4.04724,-7.401573 4.04724,7.401573 z" />
    <path
       style="fill-rule:nonzero;stroke:#000000;stroke-width:2;stroke-linecap:butt;stroke-linejoin:round"
       id="path57"
       d="m 254.49777,88.511055 4.04724,-7.401573 4.04724,7.401573 z" />
    <path
       style="fill:#ffffff;fill-rule:nonzero"
       id="path59"
       d="m 50.503937,259.30185 v 0 c 0,5.56631 4.512405,10.07873 10.078739,10.07873 v 0 c 2.67305,0 5.236614,-1.06185 7.126751,-2.95199 1.890129,-1.89014 2.951988,-4.45371 2.951988,-7.12674 v 0 c 0,-5.56635 -4.512405,-10.07875 -10.078739,-10.07875 v 0 c -5.566334,0 -10.078739,4.5124 -10.078739,10.07875 z" />
    <path
       style="fill-rule:nonzero;stroke:#000000;stroke-width:2;stroke-linecap:butt;stroke-linejoin:round"
       id="path61"
       d="m 50.503937,259.30185 v 0 c 0,5.56631 4.512405,10.07873 10.078739,10.07873 v 0 c 2.67305,0 5.236614,-1.06185 7.126751,-2.95199 1.890129,-1.89014 2.951988,-4.45371 2.951988,-7.12674 v 0 c 0,-5.56635 -4.512405,-10.07875 -10.078739,-10.07875 v 0 c -5.566334,0 -10.078739,4.5124 -10.078739,10.07875 z" />
    <path
       style="fill:#000000;fill-rule:nonzero"
       id="path63"
       d="m 56.53583,255.59656 4.047245,7.40158 4.047241,-7.40158 z" />
    <path
       style="fill-rule:nonzero;stroke:#000000;stroke-width:2;stroke-linecap:butt;stroke-linejoin:round"
       id="path65"
       d="m 56.53583,255.59656 4.047245,7.40158 4.047241,-7.40158 z" />
    <path
       style="fill:#ffffff;fill-rule:nonzero"
       id="path67"
       d="m 99.99475,259.30185 v 0 c 0,5.56631 4.51241,10.07873 10.07874,10.07873 v 0 c 2.67305,0 5.23661,-1.06185 7.12674,-2.95199 1.89014,-1.89014 2.952,-4.45371 2.952,-7.12674 v 0 c 0,-5.56635 -4.51241,-10.07875 -10.07874,-10.07875 v 0 c -5.56633,0 -10.07874,4.5124 -10.07874,10.07875 z" />
    <path
       style="fill-rule:nonzero;stroke:#000000;stroke-width:2;stroke-linecap:butt;stroke-linejoin:round"
       id="path69"
       d="m 99.99475,259.30185 v 0 c 0,5.56631 4.51241,10.07873 10.07874,10.07873 v 0 c 2.67305,0 5.23661,-1.06185 7.12674,-2.95199 1.89014,-1.89014 2.952,-4.45371 2.952,-7.12674 v 0 c 0,-5.56635 -4.51241,-10.07875 -10.07874,-10.07875 v 0 c -5.56633,0 -10.07874,4.5124 -10.07874,10.07875 z" />
    <path
       style="fill:#000000;fill-rule:nonzero"
       id="path71"
       d="m 106.02665,255.59656 4.04724,7.40158 4.04724,-7.40158 z" />
    <path
       style="fill-rule:nonzero;stroke:#000000;stroke-width:2;stroke-linecap:butt;stroke-linejoin:round"
       id="path73"
       d="m 106.02665,255.59656 4.04724,7.40158 4.04724,-7.40158 z" />
    <path
       style="fill:#ffffff;fill-rule:nonzero"
       id="path75"
       d="m 149.48425,259.30185 v 0 c 0,5.56631 4.51241,10.07873 10.07873,10.07873 v 0 c 2.67305,0 5.23662,-1.06185 7.12676,-2.95199 1.89012,-1.89014 2.952,-4.45371 2.952,-7.12674 v 0 c 0,-5.56635 -4.51241,-10.07875 -10.07876,-10.07875 v 0 c -5.56633,0 -10.07873,4.5124 -10.07873,10.07875 z" />
    <path
       style="fill-rule:nonzero;stroke:#000000;stroke-width:2;stroke-linecap:butt;stroke-linejoin:round"
       id="path77"
       d="m 149.48425,259.30185 v 0 c 0,5.56631 4.51241,10.07873 10.07873,10.07873 v 0 c 2.67305,0 5.23662,-1.06185 7.12676,-2.95199 1.89012,-1.89014 2.952,-4.45371 2.952,-7.12674 v 0 c 0,-5.56635 -4.51241,-10.07875 -10.07876,-10.07875 v 0 c -5.56633,0 -10.07873,4.5124 -10.07873,10.07875 z" />
    <path
       style="fill:#000000;fill-rule:nonzero"
       id="path79"
       d="m 155.51614,255.59656 4.04724,7.40158 4.04726,-7.40158 z" />
    <path
       style="fill-rule:nonzero;stroke:#000000;stroke-width:2;stroke-linecap:butt;stroke-linejoin:round"
       id="path81"
       d="m 155.51614,255.59656 4.04724,7.40158 4.04726,-7.40158 z" />
    <path
       style="fill:#000000;fill-rule:nonzero"
       id="path83"
       d="M 29.517061,98.30446 H 289.61154 V 245.29659 H 29.517061 Z" />
    <path
       style="fill-rule:nonzero;stroke:#000000;stroke-width:2;stroke-linecap:butt;stroke-linejoin:round"
       id="path85"
       d="M 29.517061,98.30446 H 289.61154 V 245.29659 H 29.517061 Z" />
    <path
       style="fill:#ffffff;fill-rule:nonzero"
       id="path87"
       d="m 198.88977,259.30185 v 0 c 0,5.56631 4.51241,10.07873 10.07873,10.07873 v 0 c 2.67305,0 5.23662,-1.06185 7.12674,-2.95199 1.89014,-1.89014 2.952,-4.45371 2.952,-7.12674 v 0 c 0,-5.56635 -4.51241,-10.07875 -10.07873,-10.07875 v 0 c -5.56633,0 -10.07874,4.5124 -10.07874,10.07875 z" />
    <path
       style="fill-rule:nonzero;stroke:#000000;stroke-width:2;stroke-linecap:butt;stroke-linejoin:round"
       id="path89"
       d="m 198.88977,259.30185 v 0 c 0,5.56631 4.51241,10.07873 10.07873,10.07873 v 0 c 2.67305,0 5.23662,-1.06185 7.12674,-2.95199 1.89014,-1.89014 2.952,-4.45371 2.952,-7.12674 v 0 c 0,-5.56635 -4.51241,-10.07875 -10.07873,-10.07875 v 0 c -5.56633,0 -10.07874,4.5124 -10.07874,10.07875 z" />
    <path
       style="fill:#000000;fill-rule:nonzero"
       id="path91"
       d="m 204.92166,255.59656 4.04724,7.40158 4.04724,-7.40158 z" />
    <path
       style="fill-rule:nonzero;stroke:#000000;stroke-width:2;stroke-linecap:butt;stroke-linejoin:round"
       id="path93"
       d="m 204.92166,255.59656 4.04724,7.40158 4.04724,-7.40158 z" />
    <path
       style="fill:#ffffff;fill-rule:nonzero"
       id="path95"
       d="m 248.46457,259.30185 v 0 c 0,5.56631 4.51241,10.07873 10.07874,10.07873 v 0 c 2.67306,0 5.23663,-1.06185 7.12673,-2.95199 1.89014,-1.89014 2.952,-4.45371 2.952,-7.12674 v 0 c 0,-5.56635 -4.51239,-10.07875 -10.07873,-10.07875 v 0 c -5.56633,0 -10.07874,4.5124 -10.07874,10.07875 z" />
    <path
       style="fill-rule:nonzero;stroke:#000000;stroke-width:2;stroke-linecap:butt;stroke-linejoin:round"
       id="path97"
       d="m 248.46457,259.30185 v 0 c 0,5.56631 4.51241,10.07873 10.07874,10.07873 v 0 c 2.67306,0 5.23663,-1.06185 7.12673,-2.95199 1.89014,-1.89014 2.952,-4.45371 2.952,-7.12674 v 0 c 0,-5.56635 -4.51239,-10.07875 -10.07873,-10.07875 v 0 c -5.56633,0 -10.07874,4.5124 -10.07874,10.07875 z" />
    <path
       style="fill:#000000;fill-rule:nonzero"
       id="path99"
       d="m 254.49646,255.59656 4.04724,7.40158 4.04724,-7.40158 z" />
    <path
       style="fill-rule:nonzero;stroke:#000000;stroke-width:2;stroke-linecap:butt;stroke-linejoin:round"
       id="path101"
       d="m 254.49646,255.59656 4.04724,7.40158 4.04724,-7.40158 z" />
    <path
       style="fill:#ffffff;fill-rule:nonzero"
       id="path103"
       d="m 35.627296,105.07874 h 49.5748 v 132.56693 h -49.5748 z" />
    <path
       style="fill-rule:nonzero;stroke:#000000;stroke-width:1;stroke-linecap:butt;stroke-linejoin:round"
       id="path105"
       d="m 35.627296,105.07874 h 49.5748 v 132.56693 h -49.5748 z" />
    <path
       style="fill:#ffffff;fill-rule:nonzero"
       id="path107"
       d="m 85.20143,105.07874 h 49.5748 v 132.56693 h -49.5748 z" />
    <path
       style="fill-rule:nonzero;stroke:#000000;stroke-width:1;stroke-linecap:butt;stroke-linejoin:round"
       id="path109"
       d="m 85.20143,105.07874 h 49.5748 v 132.56693 h -49.5748 z" />
    <path
       style="fill:#ffffff;fill-rule:nonzero"
       id="path111"
       d="m 134.77818,105.07874 h 49.5748 v 132.56693 h -49.5748 z" />
    <path
       style="fill-rule:nonzero;stroke:#000000;stroke-width:1;stroke-linecap:butt;stroke-linejoin:round"
       id="path113"
       d="m 134.77818,105.07874 h 49.5748 v 132.56693 h -49.5748 z" />
    <path
       style="fill:#ffffff;fill-rule:nonzero"
       id="path115"
       d="m 184.35233,105.07874 h 49.5748 v 132.56693 h -49.5748 z" />
    <path
       style="fill-rule:nonzero;stroke:#000000;stroke-width:1;stroke-linecap:butt;stroke-linejoin:round"
       id="path117"
       d="m 184.35233,105.07874 h 49.5748 v 132.56693 h -49.5748 z" />
    <path
       style="fill:#ffffff;fill-rule:nonzero"
       id="path119"
       d="m 233.92645,105.07874 h 49.5748 v 132.56693 h -49.5748 z" />
    <path
       style="fill-rule:nonzero;stroke:#000000;stroke-width:1;stroke-linecap:butt;stroke-linejoin:round"
       id="path121"
       d="m 233.92645,105.07874 h 49.5748 v 132.56693 h -49.5748 z" />
  </g>
  <g
     id="text127"
     style="font-size:20px;font-family:'DejaVu Sans', sans-serif;text-anchor:middle;fill:#000000"
     aria-label="送信">
    <path
       id="path157"
       style=""
       d="m 143.45313,295.28125 q -1.01563,-1.5625 -2.34375,-2.57812 l 1.25,-1.17188 q 1.71875,1.25 2.34375,2.5 z M 139.9375,307 l 2.65625,-1.5625 v -5.23437 h -2.5 v -1.48438 h 4.0625 v 6.32813 q 1.79688,1.79687 4.21875,1.79687 h 9.6875 l -0.39062,1.48438 h -9.53125 q -2.57813,0 -4.76563,-2.10938 l -2.57812,2.57813 z m 17.10938,-6.875 h -5.3125 l -0.0781,0.70313 q 3.125,1.40625 5.07813,3.20312 l -1.09375,1.71875 q -2.57813,-2.65625 -4.53125,-3.51562 -1.09375,2.03125 -4.45313,3.98437 l -0.9375,-1.64062 q 4.0625,-2.03125 4.45313,-4.45313 H 145.25 v -1.48437 h 5 v -2.57813 h -4.375 v -1.48437 h 2.73438 Q 147.75,293.09375 146.57813,292 l 1.40625,-0.9375 q 1.09375,1.01563 2.03125,2.57813 l -1.25,0.9375 h 2.65625 l 1.875,-3.90625 1.71875,0.78125 q 0.3125,0.3125 -0.23438,0.39062 l -1.79687,2.73438 h 3.4375 v 1.48437 h -4.60938 v 2.57813 h 5.23438 z" />
    <path
       id="path159"
       style=""
       d="m 159.78125,299.65625 q 2.96875,-3.51562 3.51563,-8.67187 l 1.79687,0.46875 q 0.3125,0.3125 -0.23437,0.46875 -0.39063,2.26562 -1.01563,4.0625 0.85938,0.0781 0.15625,0.54687 v 12.1875 h -1.5625 V 298.875 q -0.54687,1.09375 -1.48437,2.1875 z m 15.15625,4.375 h -6.95312 v 2.26563 h 6.95312 z m -8.51562,-1.48437 H 176.5 v 5.9375 h -1.5625 v -0.70313 h -6.95312 v 0.9375 h -1.5625 z m 0.46875,-1.32813 v -1.48437 h 8.82812 v 1.48437 z m 0,-2.73437 V 297 h 8.82812 v 1.48438 z m -1.79688,-4.14063 h 12.57813 v 1.48438 h -12.57813 z m 1.79688,-2.8125 h 8.82812 v 1.48438 h -8.82812 z" />
  </g>
  <g
     id="text131"
     style="font-size:42px;font-family:'DejaVu Sans', sans-serif;text-anchor:middle;fill:#000000"
     aria-label="A">
    <path
       id="path162"
       style=""
       d="m 60,159.46289 -5.619141,15.23731 h 11.258789 z m -2.337891,-4.08105 h 4.696289 L 74.027344,186 h -4.306641 l -2.789062,-7.85449 H 53.129883 L 50.34082,186 h -4.368164 z" />
  </g>
  <g
     id="text135"
     style="font-size:42px;font-family:'DejaVu Sans', sans-serif;text-anchor:middle;fill:#000000"
     aria-label="A">
    <path
       id="path165"
       style=""
       d="m 110,159.46289 -5.61914,15.23731 h 11.25879 z m -2.33789,-4.08105 h 4.69629 L 124.02734,186 h -4.30664 l -2.78906,-7.85449 H 103.12988 L 100.34082,186 h -4.368164 z" />
  </g>
  <g
     id="text139"
     style="font-size:42px;font-family:'DejaVu Sans', sans-serif;text-anchor:middle;fill:#000000"
     aria-label="A">
    <path
       id="path168"
       style=""
       d="m 159,159.46289 -5.61914,15.23731 h 11.25879 z m -2.33789,-4.08105 h 4.69629 L 173.02734,186 h -4.30664 l -2.78906,-7.85449 H 152.12988 L 149.34082,186 h -4.36816 z" />
  </g>
  <g
     id="text143"
     style="font-size:42px;font-family:'DejaVu Sans', sans-serif;text-anchor:middle;fill:#000000"
     aria-label="A">
    <path
       id="path171"
       style=""
       d="m 209,159.46289 -5.61914,15.23731 h 11.25879 z m -2.33789,-4.08105 h 4.69629 L 223.02734,186 h -4.30664 l -2.78906,-7.85449 H 202.12988 L 199.34082,186 h -4.36816 z" />
  </g>
  <g
     id="text147"
     style="font-size:42px;font-family:'DejaVu Sans', sans-serif;text-anchor:middle;fill:#000000"
     aria-label="A">
    <path
       id="path174"
       style=""
       d="m 258,159.46289 -5.61914,15.23731 h 11.25879 z m -2.33789,-4.08105 h 4.69629 L 272.02734,186 h -4.30664 l -2.78906,-7.85449 H 251.12988 L 248.34082,186 h -4.36816 z" />
  </g>
</svg>
