<?xml version="1.0" encoding="UTF-8" standalone="no"?>
<svg
   xmlns:dc="http://purl.org/dc/elements/1.1/"
   xmlns:cc="http://creativecommons.org/ns#"
   xmlns:rdf="http://www.w3.org/1999/02/22-rdf-syntax-ns#"
   xmlns:svg="http://www.w3.org/2000/svg"
   xmlns="http://www.w3.org/2000/svg"
   id="svg149"
   stroke-miterlimit="10"
   stroke-linecap="square"
   stroke="none"
   fill="none"
   viewBox="0.0 0.0 348.0 348.0"
   version="1.1">
  <metadata
     id="metadata155">
    <rdf:RDF>
      <cc:Work
         rdf:about="">
        <dc:format>image/svg+xml</dc:format>
        <dc:type
           rdf:resource="http://purl.org/dc/dcmitype/StillImage" />
      </cc:Work>
    </rdf:RDF>
  </metadata>
  <defs
     id="defs153" />
  <clipPath
     id="p.0">
    <path
       id="path2"
       clip-rule="nonzero"
       d="m0 0l348.0 0l0 348.0l-348.0 0l0 -348.0z" />
  </clipPath>
  <g
     id="g123"
     clip-path="url(#p.0)">
    <path
       style="fill:#000000;fill-opacity:0;fill-rule:nonzero"
       id="path5"
       d="M 0,0 H 348 V 348 H 0 Z" />
    <path
       style="fill:#ffffff;fill-rule:nonzero"
       id="path7"
       d="M -6,0 H 348.01575 V 347.9685 H -6 Z" />
    <path
       style="fill:#000000;fill-opacity:0;fill-rule:nonzero"
       id="path9"
       d="m 5.07874,5.7758217 h 336.9134 V 343.44512 H 5.07874 Z" />
    <path
       style="fill-rule:nonzero;stroke:#000000;stroke-width:2;stroke-linecap:butt;stroke-linejoin:round"
       id="path11"
       d="m 5.07874,5.7758217 h 336.9134 V 343.44512 H 5.07874 Z" />
    <path
       style="fill:#ffffff;fill-rule:nonzero"
       id="path13"
       d="m 282.73444,40.553925 v 0 c 0,-8.375591 6.96603,-15.165352 15.55905,-15.165352 v 0 c 4.12653,0 8.08402,1.597773 11.00192,4.441828 2.91788,2.844057 4.55713,6.701422 4.55713,10.723524 v 0 c 0,8.375595 -6.966,15.165356 -15.55905,15.165356 v 0 c -8.59302,0 -15.55905,-6.789761 -15.55905,-15.165356 z" />
    <path
       style="fill-rule:nonzero;stroke:#000000;stroke-width:2;stroke-linecap:butt;stroke-linejoin:round"
       id="path15"
       d="m 282.73444,40.553925 v 0 c 0,-8.375591 6.96603,-15.165352 15.55905,-15.165352 v 0 c 4.12653,0 8.08402,1.597773 11.00192,4.441828 2.91788,2.844057 4.55713,6.701422 4.55713,10.723524 v 0 c 0,8.375595 -6.966,15.165356 -15.55905,15.165356 v 0 c -8.59302,0 -15.55905,-6.789761 -15.55905,-15.165356 z" />
    <path
       style="fill:#000000;fill-opacity:0;fill-rule:nonzero"
       id="path17"
       d="m 110.60368,279.34647 h 97.92126 v 41.88974 h -97.92126 z" />
    <path
       style="fill-rule:nonzero;stroke:#000000;stroke-width:2;stroke-linecap:butt;stroke-linejoin:round"
       id="path19"
       d="m 110.60368,279.34647 h 97.92126 v 41.88974 h -97.92126 z" />
    <path
       style="fill-rule:nonzero;stroke:#000000;stroke-width:2;stroke-linecap:butt;stroke-linejoin:round"
       id="path21"
       d="m 50.50525,84.80578 v 0 c 0,-5.566338 4.512405,-10.078743 10.078739,-10.078743 v 0 c 2.67305,0 5.236614,1.061859 7.126751,2.951996 1.890129,1.890129 2.951988,4.453697 2.951988,7.126747 v 0 c 0,5.56633 -4.512405,10.078735 -10.078739,10.078735 v 0 c -5.566334,0 -10.078739,-4.512406 -10.078739,-10.078735 z" />
    <path
       style="fill:#000000;fill-rule:nonzero"
       id="path23"
       d="m 56.537144,88.511055 4.047245,-7.401573 4.047241,7.401573 z" />
    <path
       style="fill-rule:nonzero;stroke:#000000;stroke-width:2;stroke-linecap:butt;stroke-linejoin:round"
       id="path25"
       d="m 56.537144,88.511055 4.047245,-7.401573 4.047241,7.401573 z" />
    <path
       style="fill:#ffffff;fill-rule:nonzero"
       id="path27"
       d="m 99.99606,84.80578 v 0 c 0,-5.566338 4.51241,-10.078743 10.07874,-10.078743 v 0 c 2.67305,0 5.23661,1.061859 7.12674,2.951996 1.89014,1.890129 2.952,4.453697 2.952,7.126747 v 0 c 0,5.56633 -4.51241,10.078735 -10.07874,10.078735 v 0 c -5.56633,0 -10.07874,-4.512406 -10.07874,-10.078735 z" />
    <path
       style="fill-rule:nonzero;stroke:#000000;stroke-width:2;stroke-linecap:butt;stroke-linejoin:round"
       id="path29"
       d="m 99.99606,84.80578 v 0 c 0,-5.566338 4.51241,-10.078743 10.07874,-10.078743 v 0 c 2.67305,0 5.23661,1.061859 7.12674,2.951996 1.89014,1.890129 2.952,4.453697 2.952,7.126747 v 0 c 0,5.56633 -4.51241,10.078735 -10.07874,10.078735 v 0 c -5.56633,0 -10.07874,-4.512406 -10.07874,-10.078735 z" />
    <path
       style="fill:#000000;fill-rule:nonzero"
       id="path31"
       d="m 106.02796,88.511055 4.04724,-7.401573 4.04724,7.401573 z" />
    <path
       style="fill-rule:nonzero;stroke:#000000;stroke-width:2;stroke-linecap:butt;stroke-linejoin:round"
       id="path33"
       d="m 106.02796,88.511055 4.04724,-7.401573 4.04724,7.401573 z" />
    <path
       style="fill:#ffffff;fill-rule:nonzero"
       id="path35"
       d="m 149.48557,84.80578 v 0 c 0,-5.566338 4.51241,-10.078743 10.07873,-10.078743 v 0 c 2.67305,0 5.23662,1.061859 7.12676,2.951996 1.89012,1.890129 2.952,4.453697 2.952,7.126747 v 0 c 0,5.56633 -4.51241,10.078735 -10.07876,10.078735 v 0 c -5.56633,0 -10.07873,-4.512406 -10.07873,-10.078735 z" />
    <path
       style="fill-rule:nonzero;stroke:#000000;stroke-width:2;stroke-linecap:butt;stroke-linejoin:round"
       id="path37"
       d="m 149.48557,84.80578 v 0 c 0,-5.566338 4.51241,-10.078743 10.07873,-10.078743 v 0 c 2.67305,0 5.23662,1.061859 7.12676,2.951996 1.89012,1.890129 2.952,4.453697 2.952,7.126747 v 0 c 0,5.56633 -4.51241,10.078735 -10.07876,10.078735 v 0 c -5.56633,0 -10.07873,-4.512406 -10.07873,-10.078735 z" />
    <path
       style="fill:#000000;fill-rule:nonzero"
       id="path39"
       d="m 155.51746,88.511055 4.04724,-7.401573 4.04726,7.401573 z" />
    <path
       style="fill-rule:nonzero;stroke:#000000;stroke-width:2;stroke-linecap:butt;stroke-linejoin:round"
       id="path41"
       d="m 155.51746,88.511055 4.04724,-7.401573 4.04726,7.401573 z" />
    <path
       style="fill:#ffffff;fill-rule:nonzero"
       id="path43"
       d="m 198.89108,84.80578 v 0 c 0,-5.566338 4.51241,-10.078743 10.07873,-10.078743 v 0 c 2.67305,0 5.23662,1.061859 7.12674,2.951996 1.89014,1.890129 2.952,4.453697 2.952,7.126747 v 0 c 0,5.56633 -4.51241,10.078735 -10.07873,10.078735 v 0 c -5.56633,0 -10.07874,-4.512406 -10.07874,-10.078735 z" />
    <path
       style="fill-rule:nonzero;stroke:#000000;stroke-width:2;stroke-linecap:butt;stroke-linejoin:round"
       id="path45"
       d="m 198.89108,84.80578 v 0 c 0,-5.566338 4.51241,-10.078743 10.07873,-10.078743 v 0 c 2.67305,0 5.23662,1.061859 7.12674,2.951996 1.89014,1.890129 2.952,4.453697 2.952,7.126747 v 0 c 0,5.56633 -4.51241,10.078735 -10.07873,10.078735 v 0 c -5.56633,0 -10.07874,-4.512406 -10.07874,-10.078735 z" />
    <path
       style="fill:#000000;fill-rule:nonzero"
       id="path47"
       d="m 204.92297,88.511055 4.04724,-7.401573 4.04724,7.401573 z" />
    <path
       style="fill-rule:nonzero;stroke:#000000;stroke-width:2;stroke-linecap:butt;stroke-linejoin:round"
       id="path49"
       d="m 204.92297,88.511055 4.04724,-7.401573 4.04724,7.401573 z" />
    <path
       style="fill:#ffffff;fill-rule:nonzero"
       id="path51"
       d="m 248.46588,84.80578 v 0 c 0,-5.566338 4.51241,-10.078743 10.07874,-10.078743 v 0 c 2.67306,0 5.23663,1.061859 7.12673,2.951996 1.89014,1.890129 2.952,4.453697 2.952,7.126747 v 0 c 0,5.56633 -4.51239,10.078735 -10.07873,10.078735 v 0 c -5.56633,0 -10.07874,-4.512406 -10.07874,-10.078735 z" />
    <path
       style="fill-rule:nonzero;stroke:#000000;stroke-width:2;stroke-linecap:butt;stroke-linejoin:round"
       id="path53"
       d="m 248.46588,84.80578 v 0 c 0,-5.566338 4.51241,-10.078743 10.07874,-10.078743 v 0 c 2.67306,0 5.23663,1.061859 7.12673,2.951996 1.89014,1.890129 2.952,4.453697 2.952,7.126747 v 0 c 0,5.56633 -4.51239,10.078735 -10.07873,10.078735 v 0 c -5.56633,0 -10.07874,-4.512406 -10.07874,-10.078735 z" />
    <path
       style="fill:#000000;fill-rule:nonzero"
       id="path55"
       d="m 254.49777,88.511055 4.04724,-7.401573 4.04724,7.401573 z" />
    <path
       style="fill-rule:nonzero;stroke:#000000;stroke-width:2;stroke-linecap:butt;stroke-linejoin:round"
       id="path57"
       d="m 254.49777,88.511055 4.04724,-7.401573 4.04724,7.401573 z" />
    <path
       style="fill:#ffffff;fill-rule:nonzero"
       id="path59"
       d="m 50.503937,259.30185 v 0 c 0,5.56631 4.512405,10.07873 10.078739,10.07873 v 0 c 2.67305,0 5.236614,-1.06185 7.126751,-2.95199 1.890129,-1.89014 2.951988,-4.45371 2.951988,-7.12674 v 0 c 0,-5.56635 -4.512405,-10.07875 -10.078739,-10.07875 v 0 c -5.566334,0 -10.078739,4.5124 -10.078739,10.07875 z" />
    <path
       style="fill-rule:nonzero;stroke:#000000;stroke-width:2;stroke-linecap:butt;stroke-linejoin:round"
       id="path61"
       d="m 50.503937,259.30185 v 0 c 0,5.56631 4.512405,10.07873 10.078739,10.07873 v 0 c 2.67305,0 5.236614,-1.06185 7.126751,-2.95199 1.890129,-1.89014 2.951988,-4.45371 2.951988,-7.12674 v 0 c 0,-5.56635 -4.512405,-10.07875 -10.078739,-10.07875 v 0 c -5.566334,0 -10.078739,4.5124 -10.078739,10.07875 z" />
    <path
       style="fill:#000000;fill-rule:nonzero"
       id="path63"
       d="m 56.53583,255.59656 4.047245,7.40158 4.047241,-7.40158 z" />
    <path
       style="fill-rule:nonzero;stroke:#000000;stroke-width:2;stroke-linecap:butt;stroke-linejoin:round"
       id="path65"
       d="m 56.53583,255.59656 4.047245,7.40158 4.047241,-7.40158 z" />
    <path
       style="fill:#ffffff;fill-rule:nonzero"
       id="path67"
       d="m 99.99475,259.30185 v 0 c 0,5.56631 4.51241,10.07873 10.07874,10.07873 v 0 c 2.67305,0 5.23661,-1.06185 7.12674,-2.95199 1.89014,-1.89014 2.952,-4.45371 2.952,-7.12674 v 0 c 0,-5.56635 -4.51241,-10.07875 -10.07874,-10.07875 v 0 c -5.56633,0 -10.07874,4.5124 -10.07874,10.07875 z" />
    <path
       style="fill-rule:nonzero;stroke:#000000;stroke-width:2;stroke-linecap:butt;stroke-linejoin:round"
       id="path69"
       d="m 99.99475,259.30185 v 0 c 0,5.56631 4.51241,10.07873 10.07874,10.07873 v 0 c 2.67305,0 5.23661,-1.06185 7.12674,-2.95199 1.89014,-1.89014 2.952,-4.45371 2.952,-7.12674 v 0 c 0,-5.56635 -4.51241,-10.07875 -10.07874,-10.07875 v 0 c -5.56633,0 -10.07874,4.5124 -10.07874,10.07875 z" />
    <path
       style="fill:#000000;fill-rule:nonzero"
       id="path71"
       d="m 106.02665,255.59656 4.04724,7.40158 4.04724,-7.40158 z" />
    <path
       style="fill-rule:nonzero;stroke:#000000;stroke-width:2;stroke-linecap:butt;stroke-linejoin:round"
       id="path73"
       d="m 106.02665,255.59656 4.04724,7.40158 4.04724,-7.40158 z" />
    <path
       style="fill:#ffffff;fill-rule:nonzero"
       id="path75"
       d="m 149.48425,259.30185 v 0 c 0,5.56631 4.51241,10.07873 10.07873,10.07873 v 0 c 2.67305,0 5.23662,-1.06185 7.12676,-2.95199 1.89012,-1.89014 2.952,-4.45371 2.952,-7.12674 v 0 c 0,-5.56635 -4.51241,-10.07875 -10.07876,-10.07875 v 0 c -5.56633,0 -10.07873,4.5124 -10.07873,10.07875 z" />
    <path
       style="fill-rule:nonzero;stroke:#000000;stroke-width:2;stroke-linecap:butt;stroke-linejoin:round"
       id="path77"
       d="m 149.48425,259.30185 v 0 c 0,5.56631 4.51241,10.07873 10.07873,10.07873 v 0 c 2.67305,0 5.23662,-1.06185 7.12676,-2.95199 1.89012,-1.89014 2.952,-4.45371 2.952,-7.12674 v 0 c 0,-5.56635 -4.51241,-10.07875 -10.07876,-10.07875 v 0 c -5.56633,0 -10.07873,4.5124 -10.07873,10.07875 z" />
    <path
       style="fill:#000000;fill-rule:nonzero"
       id="path79"
       d="m 155.51614,255.59656 4.04724,7.40158 4.04726,-7.40158 z" />
    <path
       style="fill-rule:nonzero;stroke:#000000;stroke-width:2;stroke-linecap:butt;stroke-linejoin:round"
       id="path81"
       d="m 155.51614,255.59656 4.04724,7.40158 4.04726,-7.40158 z" />
    <path
       style="fill:#000000;fill-rule:nonzero"
       id="path83"
       d="M 29.517061,98.30446 H 289.61154 V 245.29659 H 29.517061 Z" />
    <path
       style="fill-rule:nonzero;stroke:#000000;stroke-width:2;stroke-linecap:butt;stroke-linejoin:round"
       id="path85"
       d="M 29.517061,98.30446 H 289.61154 V 245.29659 H 29.517061 Z" />
    <path
       style="fill:#ffffff;fill-rule:nonzero"
       id="path87"
       d="m 198.88977,259.30185 v 0 c 0,5.56631 4.51241,10.07873 10.07873,10.07873 v 0 c 2.67305,0 5.23662,-1.06185 7.12674,-2.95199 1.89014,-1.89014 2.952,-4.45371 2.952,-7.12674 v 0 c 0,-5.56635 -4.51241,-10.07875 -10.07873,-10.07875 v 0 c -5.56633,0 -10.07874,4.5124 -10.07874,10.07875 z" />
    <path
       style="fill-rule:nonzero;stroke:#000000;stroke-width:2;stroke-linecap:butt;stroke-linejoin:round"
       id="path89"
       d="m 198.88977,259.30185 v 0 c 0,5.56631 4.51241,10.07873 10.07873,10.07873 v 0 c 2.67305,0 5.23662,-1.06185 7.12674,-2.95199 1.89014,-1.89014 2.952,-4.45371 2.952,-7.12674 v 0 c 0,-5.56635 -4.51241,-10.07875 -10.07873,-10.07875 v 0 c -5.56633,0 -10.07874,4.5124 -10.07874,10.07875 z" />
    <path
       style="fill:#000000;fill-rule:nonzero"
       id="path91"
       d="m 204.92166,255.59656 4.04724,7.40158 4.04724,-7.40158 z" />
    <path
       style="fill-rule:nonzero;stroke:#000000;stroke-width:2;stroke-linecap:butt;stroke-linejoin:round"
       id="path93"
       d="m 204.92166,255.59656 4.04724,7.40158 4.04724,-7.40158 z" />
    <path
       style="fill:#ffffff;fill-rule:nonzero"
       id="path95"
       d="m 248.46457,259.30185 v 0 c 0,5.56631 4.51241,10.07873 10.07874,10.07873 v 0 c 2.67306,0 5.23663,-1.06185 7.12673,-2.95199 1.89014,-1.89014 2.952,-4.45371 2.952,-7.12674 v 0 c 0,-5.56635 -4.51239,-10.07875 -10.07873,-10.07875 v 0 c -5.56633,0 -10.07874,4.5124 -10.07874,10.07875 z" />
    <path
       style="fill-rule:nonzero;stroke:#000000;stroke-width:2;stroke-linecap:butt;stroke-linejoin:round"
       id="path97"
       d="m 248.46457,259.30185 v 0 c 0,5.56631 4.51241,10.07873 10.07874,10.07873 v 0 c 2.67306,0 5.23663,-1.06185 7.12673,-2.95199 1.89014,-1.89014 2.952,-4.45371 2.952,-7.12674 v 0 c 0,-5.56635 -4.51239,-10.07875 -10.07873,-10.07875 v 0 c -5.56633,0 -10.07874,4.5124 -10.07874,10.07875 z" />
    <path
       style="fill:#000000;fill-rule:nonzero"
       id="path99"
       d="m 254.49646,255.59656 4.04724,7.40158 4.04724,-7.40158 z" />
    <path
       style="fill-rule:nonzero;stroke:#000000;stroke-width:2;stroke-linecap:butt;stroke-linejoin:round"
       id="path101"
       d="m 254.49646,255.59656 4.04724,7.40158 4.04724,-7.40158 z" />
    <path
       style="fill:#ffffff;fill-rule:nonzero"
       id="path103"
       d="m 35.627296,105.07874 h 49.5748 v 132.56693 h -49.5748 z" />
    <path
       style="fill-rule:nonzero;stroke:#000000;stroke-width:1;stroke-linecap:butt;stroke-linejoin:round"
       id="path105"
       d="m 35.627296,105.07874 h 49.5748 v 132.56693 h -49.5748 z" />
    <path
       style="fill:#ffffff;fill-rule:nonzero"
       id="path107"
       d="m 85.20143,105.07874 h 49.5748 v 132.56693 h -49.5748 z" />
    <path
       style="fill-rule:nonzero;stroke:#000000;stroke-width:1;stroke-linecap:butt;stroke-linejoin:round"
       id="path109"
       d="m 85.20143,105.07874 h 49.5748 v 132.56693 h -49.5748 z" />
    <path
       style="fill:#ffffff;fill-rule:nonzero"
       id="path111"
       d="m 134.77818,105.07874 h 49.5748 v 132.56693 h -49.5748 z" />
    <path
       style="fill-rule:nonzero;stroke:#000000;stroke-width:1;stroke-linecap:butt;stroke-linejoin:round"
       id="path113"
       d="m 134.77818,105.07874 h 49.5748 v 132.56693 h -49.5748 z" />
    <path
       style="fill:#ffffff;fill-rule:nonzero"
       id="path115"
       d="m 184.35233,105.07874 h 49.5748 v 132.56693 h -49.5748 z" />
    <path
       style="fill-rule:nonzero;stroke:#000000;stroke-width:1;stroke-linecap:butt;stroke-linejoin:round"
       id="path117"
       d="m 184.35233,105.07874 h 49.5748 v 132.56693 h -49.5748 z" />
    <path
       style="fill:#ffffff;fill-rule:nonzero"
       id="path119"
       d="m 233.92645,105.07874 h 49.5748 v 132.56693 h -49.5748 z" />
    <path
       style="fill-rule:nonzero;stroke:#000000;stroke-width:1;stroke-linecap:butt;stroke-linejoin:round"
       id="path121"
       d="m 233.92645,105.07874 h 49.5748 v 132.56693 h -49.5748 z" />
  </g>
  <g
     id="text127"
     style="font-size:20px;font-family:'DejaVu Sans', sans-serif;text-anchor:middle;fill:#000000"
     aria-label="Soumettre">
    <path
       id="path157"
       style=""
       d="m 117.08594,292.89844 v 1.92383 q -1.12305,-0.53711 -2.11914,-0.80079 -0.9961,-0.26367 -1.92383,-0.26367 -1.61133,0 -2.49024,0.625 -0.86914,0.625 -0.86914,1.77735 0,0.96679 0.57618,1.46484 0.58593,0.48828 2.20703,0.79102 l 1.1914,0.24414 q 2.20703,0.41992 3.25196,1.48437 1.05468,1.05469 1.05468,2.83203 0,2.11914 -1.42578,3.21289 -1.41601,1.09375 -4.16015,1.09375 -1.03516,0 -2.20704,-0.23437 -1.1621,-0.23438 -2.4121,-0.69336 v -2.03125 q 1.20117,0.67383 2.35351,1.01562 1.15234,0.3418 2.26563,0.3418 1.68945,0 2.60742,-0.66406 0.91797,-0.66406 0.91797,-1.89453 0,-1.07422 -0.66407,-1.67969 -0.65429,-0.60547 -2.1582,-0.9082 l -1.20117,-0.23438 q -2.20703,-0.43945 -3.19336,-1.37695 -0.98633,-0.9375 -0.98633,-2.60742 0,-1.9336 1.35742,-3.04688 1.36719,-1.11328 3.75977,-1.11328 1.02539,0 2.08984,0.18555 1.06446,0.18554 2.17774,0.55664 z" />
    <path
       id="path159"
       style=""
       d="m 125.20117,297.32227 q -1.44531,0 -2.28515,1.13281 -0.83985,1.12305 -0.83985,3.08594 0,1.96289 0.83008,3.0957 0.83984,1.12305 2.29492,1.12305 1.43555,0 2.27539,-1.13282 0.83985,-1.13281 0.83985,-3.08593 0,-1.94336 -0.83985,-3.07618 -0.83984,-1.14257 -2.27539,-1.14257 z m 0,-1.52344 q 2.34375,0 3.68164,1.52344 1.33789,1.52343 1.33789,4.21875 0,2.68554 -1.33789,4.21875 -1.33789,1.52343 -3.68164,1.52343 -2.35351,0 -3.6914,-1.52343 -1.32813,-1.53321 -1.32813,-4.21875 0,-2.69532 1.32813,-4.21875 1.33789,-1.52344 3.6914,-1.52344 z" />
    <path
       id="path161"
       style=""
       d="m 133.00391,302.68359 v -6.62109 h 1.79687 v 6.55273 q 0,1.55274 0.60547,2.33399 0.60547,0.77148 1.81641,0.77148 1.45507,0 2.29492,-0.92773 0.84961,-0.92774 0.84961,-2.5293 v -6.20117 h 1.79687 V 307 h -1.79687 v -1.67969 q -0.6543,0.9961 -1.52344,1.48438 -0.85937,0.47851 -2.00195,0.47851 -1.88477,0 -2.86133,-1.17187 -0.97656,-1.17188 -0.97656,-3.42774 z m 4.52148,-6.88476 z" />
    <path
       id="path163"
       style=""
       d="m 154.40039,298.16211 q 0.67383,-1.21094 1.61133,-1.78711 0.9375,-0.57617 2.20703,-0.57617 1.70898,0 2.63672,1.20117 0.92773,1.19141 0.92773,3.39844 V 307 h -1.80664 v -6.54297 q 0,-1.57226 -0.55664,-2.33398 -0.55664,-0.76172 -1.69922,-0.76172 -1.39648,0 -2.20703,0.92773 -0.81054,0.92774 -0.81054,2.5293 V 307 h -1.80665 v -6.54297 q 0,-1.58203 -0.55664,-2.33398 -0.55664,-0.76172 -1.71875,-0.76172 -1.37695,0 -2.1875,0.9375 -0.81054,0.92773 -0.81054,2.51953 V 307 h -1.80664 v -10.9375 h 1.80664 v 1.69922 q 0.61523,-1.00586 1.47461,-1.48438 0.85937,-0.47851 2.04101,-0.47851 1.19141,0 2.02149,0.60547 0.83984,0.60547 1.24023,1.75781 z" />
    <path
       id="path165"
       style=""
       d="m 174.73242,301.08203 v 0.87891 h -8.26172 q 0.11719,1.85547 1.11328,2.83203 1.00586,0.9668 2.79297,0.9668 1.03516,0 2.00196,-0.25391 0.97656,-0.25391 1.93359,-0.76172 v 1.69922 q -0.9668,0.41016 -1.98242,0.625 -1.01563,0.21484 -2.06055,0.21484 -2.61719,0 -4.15039,-1.52343 -1.52344,-1.52344 -1.52344,-4.1211 0,-2.68554 1.44532,-4.25781 1.45507,-1.58203 3.91601,-1.58203 2.20703,0 3.48633,1.42578 1.28906,1.41602 1.28906,3.85742 z m -1.79687,-0.52734 q -0.0195,-1.47461 -0.83008,-2.35352 -0.80078,-0.8789 -2.12891,-0.8789 -1.5039,0 -2.41211,0.84961 -0.89843,0.8496 -1.03515,2.39257 z" />
    <path
       id="path167"
       style=""
       d="m 179.45898,292.95703 v 3.10547 h 3.70118 v 1.39648 h -3.70118 v 5.9375 q 0,1.3379 0.36133,1.71875 0.3711,0.38086 1.49414,0.38086 h 1.84571 V 307 h -1.84571 q -2.08007,0 -2.87109,-0.77148 -0.79102,-0.78125 -0.79102,-2.83204 v -5.9375 h -1.31836 v -1.39648 h 1.31836 v -3.10547 z" />
    <path
       id="path169"
       style=""
       d="m 187.31055,292.95703 v 3.10547 h 3.70117 v 1.39648 h -3.70117 v 5.9375 q 0,1.3379 0.36133,1.71875 0.37109,0.38086 1.49414,0.38086 h 1.8457 V 307 h -1.8457 q -2.08008,0 -2.8711,-0.77148 -0.79101,-0.78125 -0.79101,-2.83204 v -5.9375 h -1.31836 v -1.39648 h 1.31836 v -3.10547 z" />
    <path
       id="path171"
       style=""
       d="m 199.72266,297.74219 q -0.30274,-0.17578 -0.66407,-0.25391 -0.35156,-0.0879 -0.78125,-0.0879 -1.52343,0 -2.34375,0.99609 -0.81054,0.98633 -0.81054,2.8418 V 307 h -1.80664 v -10.9375 h 1.80664 v 1.69922 q 0.5664,-0.99609 1.47461,-1.47461 0.9082,-0.48828 2.20703,-0.48828 0.18554,0 0.41015,0.0293 0.22461,0.0195 0.49805,0.0684 z" />
    <path
       id="path173"
       style=""
       d="m 210.55273,301.08203 v 0.87891 h -8.26171 q 0.11718,1.85547 1.11328,2.83203 1.00586,0.9668 2.79297,0.9668 1.03515,0 2.00195,-0.25391 0.97656,-0.25391 1.93359,-0.76172 v 1.69922 q -0.96679,0.41016 -1.98242,0.625 -1.01562,0.21484 -2.06055,0.21484 -2.61718,0 -4.15039,-1.52343 -1.52343,-1.52344 -1.52343,-4.1211 0,-2.68554 1.44531,-4.25781 1.45508,-1.58203 3.91601,-1.58203 2.20704,0 3.48633,1.42578 1.28906,1.41602 1.28906,3.85742 z m -1.79687,-0.52734 q -0.0195,-1.47461 -0.83008,-2.35352 -0.80078,-0.8789 -2.1289,-0.8789 -1.50391,0 -2.41211,0.84961 -0.89844,0.8496 -1.03516,2.39257 z" />
  </g>
  <g
     id="text131"
     style="font-size:42px;font-family:'DejaVu Sans', sans-serif;text-anchor:middle;fill:#000000"
     aria-label="A">
    <path
       id="path176"
       style=""
       d="m 60,159.46289 -5.619141,15.23731 h 11.258789 z m -2.337891,-4.08105 h 4.696289 L 74.027344,186 h -4.306641 l -2.789062,-7.85449 H 53.129883 L 50.34082,186 h -4.368164 z" />
  </g>
  <g
     id="text135"
     style="font-size:42px;font-family:'DejaVu Sans', sans-serif;text-anchor:middle;fill:#000000"
     aria-label="A">
    <path
       id="path179"
       style=""
       d="m 110,159.46289 -5.61914,15.23731 h 11.25879 z m -2.33789,-4.08105 h 4.69629 L 124.02734,186 h -4.30664 l -2.78906,-7.85449 H 103.12988 L 100.34082,186 h -4.368164 z" />
  </g>
  <g
     id="text139"
     style="font-size:42px;font-family:'DejaVu Sans', sans-serif;text-anchor:middle;fill:#000000"
     aria-label="A">
    <path
       id="path182"
       style=""
       d="m 159,159.46289 -5.61914,15.23731 h 11.25879 z m -2.33789,-4.08105 h 4.69629 L 173.02734,186 h -4.30664 l -2.78906,-7.85449 H 152.12988 L 149.34082,186 h -4.36816 z" />
  </g>
  <g
     id="text143"
     style="font-size:42px;font-family:'DejaVu Sans', sans-serif;text-anchor:middle;fill:#000000"
     aria-label="A">
    <path
       id="path185"
       style=""
       d="m 209,159.46289 -5.61914,15.23731 h 11.25879 z m -2.33789,-4.08105 h 4.69629 L 223.02734,186 h -4.30664 l -2.78906,-7.85449 H 202.12988 L 199.34082,186 h -4.36816 z" />
  </g>
  <g
     id="text147"
     style="font-size:42px;font-family:'DejaVu Sans', sans-serif;text-anchor:middle;fill:#000000"
     aria-label="A">
    <path
       id="path188"
       style=""
       d="m 258,159.46289 -5.61914,15.23731 h 11.25879 z m -2.33789,-4.08105 h 4.69629 L 272.02734,186 h -4.30664 l -2.78906,-7.85449 H 251.12988 L 248.34082,186 h -4.36816 z" />
  </g>
</svg>
