<?xml version="1.0" encoding="UTF-8" standalone="no"?>
<svg
   xmlns:dc="http://purl.org/dc/elements/1.1/"
   xmlns:cc="http://creativecommons.org/ns#"
   xmlns:rdf="http://www.w3.org/1999/02/22-rdf-syntax-ns#"
   xmlns:svg="http://www.w3.org/2000/svg"
   xmlns="http://www.w3.org/2000/svg"
   id="svg89"
   stroke-miterlimit="10"
   stroke-linecap="square"
   stroke="none"
   fill="none"
   viewBox="0.0 0.0 348.0 348.0"
   version="1.1">
  <metadata
     id="metadata95">
    <rdf:RDF>
      <cc:Work
         rdf:about="">
        <dc:format>image/svg+xml</dc:format>
        <dc:type
           rdf:resource="http://purl.org/dc/dcmitype/StillImage" />
      </cc:Work>
    </rdf:RDF>
  </metadata>
  <defs
     id="defs93" />
  <clipPath
     id="p.0">
    <path
       id="path2"
       clip-rule="nonzero"
       d="m0 0l348.0 0l0 348.0l-348.0 0l0 -348.0z" />
  </clipPath>
  <g
     id="g59"
     clip-path="url(#p.0)">
    <path
       style="fill:#000000;fill-opacity:0;fill-rule:nonzero"
       id="path5"
       d="M 0,0 H 348 V 348 H 0 Z" />
    <path
       style="fill:#ffffff;fill-rule:nonzero"
       id="path7"
       d="M -6,0 H 342 V 347.9685 H -6 Z" />
    <path
       style="fill:#000000;fill-opacity:0;fill-rule:nonzero"
       id="path9"
       d="m 5.07874,5.7758217 h 336.9134 V 343.44512 H 5.07874 Z" />
    <path
       style="fill-rule:nonzero;stroke:#000000;stroke-width:2;stroke-linecap:butt;stroke-linejoin:round"
       id="path11"
       d="m 5.07874,5.7758217 h 336.9134 V 343.44512 H 5.07874 Z" />
    <path
       style="fill:#ffffff;fill-rule:nonzero"
       id="path13"
       d="m 282.73444,40.553925 v 0 c 0,-8.375591 6.96603,-15.165352 15.55905,-15.165352 v 0 c 4.12653,0 8.08402,1.597773 11.00192,4.441828 2.91788,2.844057 4.55713,6.701422 4.55713,10.723524 v 0 c 0,8.375595 -6.966,15.165356 -15.55905,15.165356 v 0 c -8.59302,0 -15.55905,-6.789761 -15.55905,-15.165356 z" />
    <path
       style="fill-rule:nonzero;stroke:#000000;stroke-width:2;stroke-linecap:butt;stroke-linejoin:round"
       id="path15"
       d="m 282.73444,40.553925 v 0 c 0,-8.375591 6.96603,-15.165352 15.55905,-15.165352 v 0 c 4.12653,0 8.08402,1.597773 11.00192,4.441828 2.91788,2.844057 4.55713,6.701422 4.55713,10.723524 v 0 c 0,8.375595 -6.966,15.165356 -15.55905,15.165356 v 0 c -8.59302,0 -15.55905,-6.789761 -15.55905,-15.165356 z" />
    <path
       style="fill:#000000;fill-rule:nonzero"
       id="path17"
       d="M 34.771652,25.389738 H 267.18112 v 67.55905 H 34.771652 Z" />
    <path
       style="fill-rule:nonzero;stroke:#000000;stroke-width:2;stroke-linecap:butt;stroke-linejoin:round"
       id="path19"
       d="M 34.771652,25.389738 H 267.18112 v 67.55905 H 34.771652 Z" />
    <path
       style="fill-rule:nonzero;stroke:#000000;stroke-width:1;stroke-linecap:butt;stroke-linejoin:round"
       id="path21"
       d="M 34.771652,202.31795 H 141.41733 v 44.81891 H 34.771652 Z" />
    <path
       style="fill:#000000;fill-opacity:0;fill-rule:nonzero"
       id="path23"
       d="M 34.771652,125.22639 H 141.41733 v 44.8189 H 34.771652 Z" />
    <path
       style="fill-rule:nonzero;stroke:#000000;stroke-width:1;stroke-linecap:butt;stroke-linejoin:round"
       id="path25"
       d="M 34.771652,125.22639 H 141.41733 v 44.8189 H 34.771652 Z" />
    <path
       style="fill:#000000;fill-opacity:0;fill-rule:nonzero"
       id="path27"
       d="M 34.771652,270.60397 H 141.41733 v 44.81891 H 34.771652 Z" />
    <path
       style="fill-rule:nonzero;stroke:#000000;stroke-width:1;stroke-linecap:butt;stroke-linejoin:round"
       id="path29"
       d="M 34.771652,270.60397 H 141.41733 v 44.81891 H 34.771652 Z" />
    <path
       style="fill:#000000;fill-opacity:0;fill-rule:nonzero"
       id="path31"
       d="m 157.40683,202.31795 h 106.64566 v 44.81891 H 157.40683 Z" />
    <path
       style="fill-rule:nonzero;stroke:#000000;stroke-width:1;stroke-linecap:butt;stroke-linejoin:round"
       id="path33"
       d="m 157.40683,202.31795 h 106.64566 v 44.81891 H 157.40683 Z" />
    <path
       style="fill:#000000;fill-opacity:0;fill-rule:nonzero"
       id="path35"
       d="m 157.40683,125.22639 h 106.64566 v 44.8189 H 157.40683 Z" />
    <path
       style="fill-rule:nonzero;stroke:#000000;stroke-width:1;stroke-linecap:butt;stroke-linejoin:round"
       id="path37"
       d="m 157.40683,125.22639 h 106.64566 v 44.8189 H 157.40683 Z" />
    <path
       style="fill:#000000;fill-opacity:0;fill-rule:nonzero"
       id="path39"
       d="m 157.40683,270.60397 h 106.64566 v 44.81891 H 157.40683 Z" />
    <path
       style="fill-rule:nonzero;stroke:#000000;stroke-width:1;stroke-linecap:butt;stroke-linejoin:round"
       id="path41"
       d="m 157.40683,270.60397 h 106.64566 v 44.81891 H 157.40683 Z" />
    <path
       style="fill:#000000;fill-rule:nonzero"
       id="path43"
       d="m 277.46194,106.3832 h 52.66141 v 209.03937 h -52.66141 z" />
    <path
       style="fill-rule:nonzero;stroke:#000000;stroke-width:2;stroke-linecap:butt;stroke-linejoin:round"
       id="path45"
       d="m 277.46194,106.3832 h 52.66141 v 209.03937 h -52.66141 z" />
    <path
       style="fill:#ffffff;fill-rule:nonzero"
       id="path47"
       d="m 290.06036,245.11285 h 27.46457 v 16.47244 h -27.46457 z" />
    <path
       style="fill-rule:nonzero;stroke:#000000;stroke-width:2;stroke-linecap:butt;stroke-linejoin:round"
       id="path49"
       d="m 290.06036,245.11285 h 27.46457 v 16.47244 h -27.46457 z" />
    <path
       style="fill:#ffffff;fill-rule:nonzero"
       id="path51"
       d="m 290.06036,208.9029 h 27.46457 v 16.47243 h -27.46457 z" />
    <path
       style="fill-rule:nonzero;stroke:#000000;stroke-width:2;stroke-linecap:butt;stroke-linejoin:round"
       id="path53"
       d="m 290.06036,208.9029 h 27.46457 v 16.47243 h -27.46457 z" />
    <path
       style="fill:#ffffff;fill-rule:nonzero"
       id="path55"
       d="m 290.06036,281.32285 h 27.46457 v 16.47244 h -27.46457 z" />
    <path
       style="fill-rule:nonzero;stroke:#000000;stroke-width:2;stroke-linecap:butt;stroke-linejoin:round"
       id="path57"
       d="m 290.06036,281.32285 h 27.46457 v 16.47244 h -27.46457 z" />
  </g>
  <g
     id="text63"
     style="font-size:29.09090996px;font-family:'DejaVu Sans', sans-serif;text-anchor:middle;fill:#ffffff"
     aria-label="[ AFFICHAGE ]">
    <path
       id="path97"
       style=""
       d="m 49.60227,46.443183 h 6.022727 v 2.03125 h -3.409091 v 21.875 h 3.409091 v 2.03125 H 49.60227 Z" />
    <path
       id="path99"
       style=""
       d="m 77.670452,50.164774 -3.892046,10.553977 h 7.798296 z m -1.619318,-2.826705 h 3.252841 l 8.082386,21.207387 h -2.982954 l -1.931819,-5.440341 h -9.559659 l -1.931818,5.440341 h -3.025569 z" />
    <path
       id="path101"
       style=""
       d="m 90.468747,47.338069 h 12.187503 v 2.414773 h -9.318184 v 6.25 h 8.409094 v 2.414773 h -8.409094 v 10.127841 h -2.869319 z" />
    <path
       id="path103"
       style=""
       d="m 107.23011,47.338069 h 12.1875 v 2.414773 h -9.31818 v 6.25 h 8.40909 v 2.414773 h -8.40909 v 10.127841 h -2.86932 z" />
    <path
       id="path105"
       style=""
       d="m 123.99148,47.338069 h 2.86932 v 21.207387 h -2.86932 z" />
    <path
       id="path107"
       style=""
       d="m 148.45171,48.971592 v 3.025568 q -1.44887,-1.349432 -3.0966,-2.017046 -1.63352,-0.667613 -3.48011,-0.667613 -3.63636,0 -5.56818,2.230114 -1.93182,2.215909 -1.93182,6.420454 0,4.190341 1.93182,6.420455 1.93182,2.215909 5.56818,2.215909 1.84659,0 3.48011,-0.667614 1.64773,-0.667613 3.0966,-2.017045 v 2.997159 q -1.50569,1.022727 -3.19603,1.534091 -1.67613,0.511364 -3.55113,0.511364 -4.81534,0 -7.58523,-2.940341 -2.76989,-2.954546 -2.76989,-8.053978 0,-5.113636 2.76989,-8.053977 2.76989,-2.954546 7.58523,-2.954546 1.90341,0 3.57954,0.511364 1.69034,0.497159 3.16762,1.505682 z" />
    <path
       id="path109"
       style=""
       d="m 152.91194,47.338069 h 2.86931 v 8.693182 h 10.42614 v -8.693182 h 2.86932 v 21.207387 h -2.86932 V 58.446024 h -10.42614 v 10.099432 h -2.86931 z" />
    <path
       id="path111"
       style=""
       d="m 181.875,50.164774 -3.89204,10.553977 h 7.79829 z m -1.61931,-2.826705 h 3.25284 l 8.08238,21.207387 h -2.98295 l -1.93182,-5.440341 h -9.55966 l -1.93182,5.440341 h -3.02557 z" />
    <path
       id="path113"
       style=""
       d="m 208.62216,65.519888 v -5.696023 h -4.6875 V 57.46591 h 7.5284 v 9.105114 q -1.66193,1.178977 -3.66477,1.789773 -2.00284,0.596591 -4.27557,0.596591 -4.97159,0 -7.78409,-2.897728 -2.79829,-2.911932 -2.79829,-8.096591 0,-5.198864 2.79829,-8.096591 2.8125,-2.911932 7.78409,-2.911932 2.07387,0 3.93466,0.511364 1.875,0.511364 3.45171,1.505682 v 3.053977 q -1.59091,-1.349432 -3.38068,-2.03125 -1.78978,-0.681818 -3.76421,-0.681818 -3.89205,0 -5.85227,2.173295 -1.94603,2.173296 -1.94603,6.477273 0,4.289773 1.94603,6.463069 1.96022,2.173295 5.85227,2.173295 1.51989,0 2.71307,-0.255682 1.19318,-0.269886 2.14489,-0.823863 z" />
    <path
       id="path115"
       style=""
       d="m 216.71875,47.338069 h 13.40909 v 2.414773 h -10.53977 v 6.278409 h 10.09943 v 2.414773 h -10.09943 v 7.684659 h 10.79545 v 2.414773 h -13.66477 z" />
    <path
       id="path117"
       style=""
       d="m 250.38353,46.443183 v 25.9375 h -6.02273 v -2.03125 h 3.39488 v -21.875 h -3.39488 v -2.03125 z" />
  </g>
  <g
     id="text67"
     style="font-size:20px;font-family:'DejaVu Sans', sans-serif;text-anchor:middle;fill:#000000"
     aria-label="[ TEXTE ]">
    <path
       id="path120"
       style=""
       d="m 42.976563,138.80469 h 4.140625 v 1.39648 h -2.34375 v 15.03906 h 2.34375 v 1.39649 h -4.140625 z" />
    <path
       id="path122"
       style=""
       d="m 55.378906,139.41992 h 12.333985 v 1.66016 H 62.537109 V 154 h -1.982421 v -12.91992 h -5.175782 z" />
    <path
       id="path124"
       style=""
       d="m 69.626953,139.41992 h 9.21875 v 1.66016 h -7.246094 v 4.3164 h 6.94336 v 1.66016 h -6.94336 v 5.2832 h 7.421875 V 154 h -9.394531 z" />
    <path
       id="path126"
       style=""
       d="m 81.580078,139.41992 h 2.119141 l 3.623047,5.41992 3.642578,-5.41992 h 2.11914 l -4.6875,7.00196 5,7.57812 h -2.11914 L 87.175781,147.79883 83.044922,154 h -2.128906 l 5.205078,-7.7832 z" />
    <path
       id="path128"
       style=""
       d="m 93.621094,139.41992 h 12.333986 v 1.66016 H 100.7793 V 154 h -1.982425 v -12.91992 h -5.175781 z" />
    <path
       id="path130"
       style=""
       d="m 107.86914,139.41992 h 9.21875 v 1.66016 h -7.24609 v 4.3164 h 6.94336 v 1.66016 h -6.94336 v 5.2832 h 7.42187 V 154 h -9.39453 z" />
    <path
       id="path132"
       style=""
       d="m 131.01367,138.80469 v 17.83203 h -4.14062 v -1.39649 h 2.33398 v -15.03906 h -2.33398 v -1.39648 z" />
  </g>
  <g
     id="text71"
     style="font-size:20px;font-family:'DejaVu Sans', sans-serif;text-anchor:middle;fill:#000000"
     aria-label="[ TEXTE ]">
    <path
       id="path135"
       style=""
       d="m 42.976563,215.80469 h 4.140625 v 1.39648 h -2.34375 v 15.03906 h 2.34375 v 1.39649 h -4.140625 z" />
    <path
       id="path137"
       style=""
       d="m 55.378906,216.41992 h 12.333985 v 1.66016 H 62.537109 V 231 h -1.982421 v -12.91992 h -5.175782 z" />
    <path
       id="path139"
       style=""
       d="m 69.626953,216.41992 h 9.21875 v 1.66016 h -7.246094 v 4.3164 h 6.94336 v 1.66016 h -6.94336 v 5.2832 h 7.421875 V 231 h -9.394531 z" />
    <path
       id="path141"
       style=""
       d="m 81.580078,216.41992 h 2.119141 l 3.623047,5.41992 3.642578,-5.41992 h 2.11914 l -4.6875,7.00196 5,7.57812 h -2.11914 L 87.175781,224.79883 83.044922,231 h -2.128906 l 5.205078,-7.7832 z" />
    <path
       id="path143"
       style=""
       d="m 93.621094,216.41992 h 12.333986 v 1.66016 H 100.7793 V 231 h -1.982425 v -12.91992 h -5.175781 z" />
    <path
       id="path145"
       style=""
       d="m 107.86914,216.41992 h 9.21875 v 1.66016 h -7.24609 v 4.3164 h 6.94336 v 1.66016 h -6.94336 v 5.2832 h 7.42187 V 231 h -9.39453 z" />
    <path
       id="path147"
       style=""
       d="m 131.01367,215.80469 v 17.83203 h -4.14062 v -1.39649 h 2.33398 v -15.03906 h -2.33398 v -1.39648 z" />
  </g>
  <g
     id="text75"
     style="font-size:20px;font-family:'DejaVu Sans', sans-serif;text-anchor:middle;fill:#000000"
     aria-label="[ TEXTE ]">
    <path
       id="path150"
       style=""
       d="m 42.976563,283.80469 h 4.140625 v 1.39648 h -2.34375 v 15.03906 h 2.34375 v 1.39649 h -4.140625 z" />
    <path
       id="path152"
       style=""
       d="m 55.378906,284.41992 h 12.333985 v 1.66016 H 62.537109 V 299 h -1.982421 v -12.91992 h -5.175782 z" />
    <path
       id="path154"
       style=""
       d="m 69.626953,284.41992 h 9.21875 v 1.66016 h -7.246094 v 4.3164 h 6.94336 v 1.66016 h -6.94336 v 5.2832 h 7.421875 V 299 h -9.394531 z" />
    <path
       id="path156"
       style=""
       d="m 81.580078,284.41992 h 2.119141 l 3.623047,5.41992 3.642578,-5.41992 h 2.11914 l -4.6875,7.00196 5,7.57812 h -2.11914 L 87.175781,292.79883 83.044922,299 h -2.128906 l 5.205078,-7.7832 z" />
    <path
       id="path158"
       style=""
       d="m 93.621094,284.41992 h 12.333986 v 1.66016 H 100.7793 V 299 h -1.982425 v -12.91992 h -5.175781 z" />
    <path
       id="path160"
       style=""
       d="m 107.86914,284.41992 h 9.21875 v 1.66016 h -7.24609 v 4.3164 h 6.94336 v 1.66016 h -6.94336 v 5.2832 h 7.42187 V 299 h -9.39453 z" />
    <path
       id="path162"
       style=""
       d="m 131.01367,283.80469 v 17.83203 h -4.14062 v -1.39649 h 2.33398 v -15.03906 h -2.33398 v -1.39648 z" />
  </g>
  <g
     id="text79"
     style="font-size:20px;font-family:'DejaVu Sans', sans-serif;text-anchor:middle;fill:#000000"
     aria-label="[ TEXTE ]">
    <path
       id="path165"
       style=""
       d="m 165.97656,138.80469 h 4.14063 v 1.39648 h -2.34375 v 15.03906 h 2.34375 v 1.39649 h -4.14063 z" />
    <path
       id="path167"
       style=""
       d="m 178.37891,139.41992 h 12.33398 v 1.66016 h -5.17578 V 154 h -1.98242 v -12.91992 h -5.17578 z" />
    <path
       id="path169"
       style=""
       d="m 192.62695,139.41992 h 9.21875 v 1.66016 h -7.24609 v 4.3164 h 6.94336 v 1.66016 h -6.94336 v 5.2832 h 7.42187 V 154 h -9.39453 z" />
    <path
       id="path171"
       style=""
       d="m 204.58008,139.41992 h 2.11914 l 3.62305,5.41992 3.64257,-5.41992 h 2.11914 l -4.6875,7.00196 5,7.57812 h -2.11914 L 210.17578,147.79883 206.04492,154 h -2.1289 l 5.20507,-7.7832 z" />
    <path
       id="path173"
       style=""
       d="m 216.62109,139.41992 h 12.33399 v 1.66016 H 223.7793 V 154 h -1.98242 v -12.91992 h -5.17579 z" />
    <path
       id="path175"
       style=""
       d="m 230.86914,139.41992 h 9.21875 v 1.66016 h -7.24609 v 4.3164 h 6.94336 v 1.66016 h -6.94336 v 5.2832 h 7.42187 V 154 h -9.39453 z" />
    <path
       id="path177"
       style=""
       d="m 254.01367,138.80469 v 17.83203 h -4.14062 v -1.39649 h 2.33398 v -15.03906 h -2.33398 v -1.39648 z" />
  </g>
  <g
     id="text83"
     style="font-size:20px;font-family:'DejaVu Sans', sans-serif;text-anchor:middle;fill:#000000"
     aria-label="[ TEXTE ]">
    <path
       id="path180"
       style=""
       d="m 165.97656,215.80469 h 4.14063 v 1.39648 h -2.34375 v 15.03906 h 2.34375 v 1.39649 h -4.14063 z" />
    <path
       id="path182"
       style=""
       d="m 178.37891,216.41992 h 12.33398 v 1.66016 h -5.17578 V 231 h -1.98242 v -12.91992 h -5.17578 z" />
    <path
       id="path184"
       style=""
       d="m 192.62695,216.41992 h 9.21875 v 1.66016 h -7.24609 v 4.3164 h 6.94336 v 1.66016 h -6.94336 v 5.2832 h 7.42187 V 231 h -9.39453 z" />
    <path
       id="path186"
       style=""
       d="m 204.58008,216.41992 h 2.11914 l 3.62305,5.41992 3.64257,-5.41992 h 2.11914 l -4.6875,7.00196 5,7.57812 h -2.11914 L 210.17578,224.79883 206.04492,231 h -2.1289 l 5.20507,-7.7832 z" />
    <path
       id="path188"
       style=""
       d="m 216.62109,216.41992 h 12.33399 v 1.66016 H 223.7793 V 231 h -1.98242 v -12.91992 h -5.17579 z" />
    <path
       id="path190"
       style=""
       d="m 230.86914,216.41992 h 9.21875 v 1.66016 h -7.24609 v 4.3164 h 6.94336 v 1.66016 h -6.94336 v 5.2832 h 7.42187 V 231 h -9.39453 z" />
    <path
       id="path192"
       style=""
       d="m 254.01367,215.80469 v 17.83203 h -4.14062 v -1.39649 h 2.33398 v -15.03906 h -2.33398 v -1.39648 z" />
  </g>
  <g
     id="text87"
     style="font-size:20px;font-family:'DejaVu Sans', sans-serif;text-anchor:middle;fill:#000000"
     aria-label="[ TEXTE ]">
    <path
       id="path195"
       style=""
       d="m 165.97656,283.80469 h 4.14063 v 1.39648 h -2.34375 v 15.03906 h 2.34375 v 1.39649 h -4.14063 z" />
    <path
       id="path197"
       style=""
       d="m 178.37891,284.41992 h 12.33398 v 1.66016 h -5.17578 V 299 h -1.98242 v -12.91992 h -5.17578 z" />
    <path
       id="path199"
       style=""
       d="m 192.62695,284.41992 h 9.21875 v 1.66016 h -7.24609 v 4.3164 h 6.94336 v 1.66016 h -6.94336 v 5.2832 h 7.42187 V 299 h -9.39453 z" />
    <path
       id="path201"
       style=""
       d="m 204.58008,284.41992 h 2.11914 l 3.62305,5.41992 3.64257,-5.41992 h 2.11914 l -4.6875,7.00196 5,7.57812 h -2.11914 L 210.17578,292.79883 206.04492,299 h -2.1289 l 5.20507,-7.7832 z" />
    <path
       id="path203"
       style=""
       d="m 216.62109,284.41992 h 12.33399 v 1.66016 H 223.7793 V 299 h -1.98242 v -12.91992 h -5.17579 z" />
    <path
       id="path205"
       style=""
       d="m 230.86914,284.41992 h 9.21875 v 1.66016 h -7.24609 v 4.3164 h 6.94336 v 1.66016 h -6.94336 v 5.2832 h 7.42187 V 299 h -9.39453 z" />
    <path
       id="path207"
       style=""
       d="m 254.01367,283.80469 v 17.83203 h -4.14062 v -1.39649 h 2.33398 v -15.03906 h -2.33398 v -1.39648 z" />
  </g>
</svg>
