<?xml version="1.0" encoding="UTF-8" standalone="no"?>
<svg
   xmlns:dc="http://purl.org/dc/elements/1.1/"
   xmlns:cc="http://creativecommons.org/ns#"
   xmlns:rdf="http://www.w3.org/1999/02/22-rdf-syntax-ns#"
   xmlns:svg="http://www.w3.org/2000/svg"
   xmlns="http://www.w3.org/2000/svg"
   id="svg89"
   stroke-miterlimit="10"
   stroke-linecap="square"
   stroke="none"
   fill="none"
   viewBox="0.0 0.0 348.0 348.0"
   version="1.1">
  <metadata
     id="metadata95">
    <rdf:RDF>
      <cc:Work
         rdf:about="">
        <dc:format>image/svg+xml</dc:format>
        <dc:type
           rdf:resource="http://purl.org/dc/dcmitype/StillImage" />
      </cc:Work>
    </rdf:RDF>
  </metadata>
  <defs
     id="defs93" />
  <clipPath
     id="p.0">
    <path
       id="path2"
       clip-rule="nonzero"
       d="m0 0l348.0 0l0 348.0l-348.0 0l0 -348.0z" />
  </clipPath>
  <g
     id="g59"
     clip-path="url(#p.0)">
    <path
       style="fill:#000000;fill-opacity:0;fill-rule:nonzero"
       id="path5"
       d="M 0,0 H 348 V 348 H 0 Z" />
    <path
       style="fill:#ffffff;fill-rule:nonzero"
       id="path7"
       d="M -6,0 H 342 V 347.9685 H -6 Z" />
    <path
       style="fill:#000000;fill-opacity:0;fill-rule:nonzero"
       id="path9"
       d="m 5.07874,5.7758217 h 336.9134 V 343.44512 H 5.07874 Z" />
    <path
       style="fill-rule:nonzero;stroke:#000000;stroke-width:2;stroke-linecap:butt;stroke-linejoin:round"
       id="path11"
       d="m 5.07874,5.7758217 h 336.9134 V 343.44512 H 5.07874 Z" />
    <path
       style="fill:#ffffff;fill-rule:nonzero"
       id="path13"
       d="m 282.73444,40.553925 v 0 c 0,-8.375591 6.96603,-15.165352 15.55905,-15.165352 v 0 c 4.12653,0 8.08402,1.597773 11.00192,4.441828 2.91788,2.844057 4.55713,6.701422 4.55713,10.723524 v 0 c 0,8.375595 -6.966,15.165356 -15.55905,15.165356 v 0 c -8.59302,0 -15.55905,-6.789761 -15.55905,-15.165356 z" />
    <path
       style="fill-rule:nonzero;stroke:#000000;stroke-width:2;stroke-linecap:butt;stroke-linejoin:round"
       id="path15"
       d="m 282.73444,40.553925 v 0 c 0,-8.375591 6.96603,-15.165352 15.55905,-15.165352 v 0 c 4.12653,0 8.08402,1.597773 11.00192,4.441828 2.91788,2.844057 4.55713,6.701422 4.55713,10.723524 v 0 c 0,8.375595 -6.966,15.165356 -15.55905,15.165356 v 0 c -8.59302,0 -15.55905,-6.789761 -15.55905,-15.165356 z" />
    <path
       style="fill:#000000;fill-rule:nonzero"
       id="path17"
       d="M 34.771652,25.389738 H 267.18112 v 67.55905 H 34.771652 Z" />
    <path
       style="fill-rule:nonzero;stroke:#000000;stroke-width:2;stroke-linecap:butt;stroke-linejoin:round"
       id="path19"
       d="M 34.771652,25.389738 H 267.18112 v 67.55905 H 34.771652 Z" />
    <path
       style="fill-rule:nonzero;stroke:#000000;stroke-width:1;stroke-linecap:butt;stroke-linejoin:round"
       id="path21"
       d="M 34.771652,202.31795 H 141.41733 v 44.81891 H 34.771652 Z" />
    <path
       style="fill:#000000;fill-opacity:0;fill-rule:nonzero"
       id="path23"
       d="M 34.771652,125.22639 H 141.41733 v 44.8189 H 34.771652 Z" />
    <path
       style="fill-rule:nonzero;stroke:#000000;stroke-width:1;stroke-linecap:butt;stroke-linejoin:round"
       id="path25"
       d="M 34.771652,125.22639 H 141.41733 v 44.8189 H 34.771652 Z" />
    <path
       style="fill:#000000;fill-opacity:0;fill-rule:nonzero"
       id="path27"
       d="M 34.771652,270.60397 H 141.41733 v 44.81891 H 34.771652 Z" />
    <path
       style="fill-rule:nonzero;stroke:#000000;stroke-width:1;stroke-linecap:butt;stroke-linejoin:round"
       id="path29"
       d="M 34.771652,270.60397 H 141.41733 v 44.81891 H 34.771652 Z" />
    <path
       style="fill:#000000;fill-opacity:0;fill-rule:nonzero"
       id="path31"
       d="m 157.40683,202.31795 h 106.64566 v 44.81891 H 157.40683 Z" />
    <path
       style="fill-rule:nonzero;stroke:#000000;stroke-width:1;stroke-linecap:butt;stroke-linejoin:round"
       id="path33"
       d="m 157.40683,202.31795 h 106.64566 v 44.81891 H 157.40683 Z" />
    <path
       style="fill:#000000;fill-opacity:0;fill-rule:nonzero"
       id="path35"
       d="m 157.40683,125.22639 h 106.64566 v 44.8189 H 157.40683 Z" />
    <path
       style="fill-rule:nonzero;stroke:#000000;stroke-width:1;stroke-linecap:butt;stroke-linejoin:round"
       id="path37"
       d="m 157.40683,125.22639 h 106.64566 v 44.8189 H 157.40683 Z" />
    <path
       style="fill:#000000;fill-opacity:0;fill-rule:nonzero"
       id="path39"
       d="m 157.40683,270.60397 h 106.64566 v 44.81891 H 157.40683 Z" />
    <path
       style="fill-rule:nonzero;stroke:#000000;stroke-width:1;stroke-linecap:butt;stroke-linejoin:round"
       id="path41"
       d="m 157.40683,270.60397 h 106.64566 v 44.81891 H 157.40683 Z" />
    <path
       style="fill:#000000;fill-rule:nonzero"
       id="path43"
       d="m 277.46194,106.3832 h 52.66141 v 209.03937 h -52.66141 z" />
    <path
       style="fill-rule:nonzero;stroke:#000000;stroke-width:2;stroke-linecap:butt;stroke-linejoin:round"
       id="path45"
       d="m 277.46194,106.3832 h 52.66141 v 209.03937 h -52.66141 z" />
    <path
       style="fill:#ffffff;fill-rule:nonzero"
       id="path47"
       d="m 290.06036,245.11285 h 27.46457 v 16.47244 h -27.46457 z" />
    <path
       style="fill-rule:nonzero;stroke:#000000;stroke-width:2;stroke-linecap:butt;stroke-linejoin:round"
       id="path49"
       d="m 290.06036,245.11285 h 27.46457 v 16.47244 h -27.46457 z" />
    <path
       style="fill:#ffffff;fill-rule:nonzero"
       id="path51"
       d="m 290.06036,208.9029 h 27.46457 v 16.47243 h -27.46457 z" />
    <path
       style="fill-rule:nonzero;stroke:#000000;stroke-width:2;stroke-linecap:butt;stroke-linejoin:round"
       id="path53"
       d="m 290.06036,208.9029 h 27.46457 v 16.47243 h -27.46457 z" />
    <path
       style="fill:#ffffff;fill-rule:nonzero"
       id="path55"
       d="m 290.06036,281.32285 h 27.46457 v 16.47244 h -27.46457 z" />
    <path
       style="fill-rule:nonzero;stroke:#000000;stroke-width:2;stroke-linecap:butt;stroke-linejoin:round"
       id="path57"
       d="m 290.06036,281.32285 h 27.46457 v 16.47244 h -27.46457 z" />
  </g>
  <g
     id="text63"
     style="font-size:32px;font-family:'DejaVu Sans', sans-serif;text-anchor:middle;fill:#ffffff"
     aria-label="[ AFFICHAGE ]">
    <path
       id="path97"
       style=""
       d="m 39.5625,45.6875 h 6.625 v 2.234375 h -3.75 v 24.0625 h 3.75 v 2.234375 h -6.625 z" />
    <path
       id="path99"
       style=""
       d="m 70.4375,49.78125 -4.28125,11.609375 h 8.578125 z m -1.78125,-3.109375 h 3.578125 L 81.125,70 h -3.28125 l -2.125,-5.984375 H 65.203125 L 63.078125,70 H 59.75 Z" />
    <path
       id="path101"
       style=""
       d="m 84.515625,46.671875 h 13.40625 v 2.65625 h -10.25 v 6.875 h 9.25 v 2.65625 h -9.25 V 70 h -3.15625 z" />
    <path
       id="path103"
       style=""
       d="m 102.95312,46.671875 h 13.40625 v 2.65625 h -10.25 v 6.875 h 9.25 v 2.65625 h -9.25 V 70 h -3.15625 z" />
    <path
       id="path105"
       style=""
       d="m 121.39062,46.671875 h 3.15625 V 70 h -3.15625 z" />
    <path
       id="path107"
       style=""
       d="m 148.29688,48.46875 v 3.328125 q -1.59375,-1.484375 -3.40625,-2.21875 -1.79688,-0.734375 -3.82813,-0.734375 -4,0 -6.125,2.453125 -2.125,2.4375 -2.125,7.0625 0,4.609375 2.125,7.0625 2.125,2.4375 6.125,2.4375 2.03125,0 3.82813,-0.734375 1.8125,-0.734375 3.40625,-2.21875 v 3.296875 q -1.65625,1.125 -3.51563,1.6875 -1.84375,0.5625 -3.90625,0.5625 -5.29687,0 -8.34375,-3.234375 -3.04687,-3.25 -3.04687,-8.859375 0,-5.625 3.04687,-8.859375 3.04688,-3.25 8.34375,-3.25 2.09375,0 3.9375,0.5625 1.85938,0.546875 3.48438,1.65625 z" />
    <path
       id="path109"
       style=""
       d="m 153.20313,46.671875 h 3.15625 v 9.5625 h 11.46875 v -9.5625 h 3.15625 V 70 h -3.15625 V 58.890625 H 156.35938 V 70 h -3.15625 z" />
    <path
       id="path111"
       style=""
       d="m 185.0625,49.78125 -4.28125,11.609375 h 8.57813 z m -1.78125,-3.109375 h 3.57813 L 195.75,70 h -3.28125 l -2.125,-5.984375 H 179.82813 L 177.70313,70 H 174.375 Z" />
    <path
       id="path113"
       style=""
       d="M 214.48438,66.671875 V 60.40625 h -5.15625 V 57.8125 h 8.28125 v 10.015625 q -1.82813,1.296875 -4.03125,1.96875 -2.20313,0.65625 -4.70313,0.65625 -5.46875,0 -8.5625,-3.1875 -3.07812,-3.203125 -3.07812,-8.90625 0,-5.71875 3.07812,-8.90625 Q 203.40625,46.25 208.875,46.25 q 2.28125,0 4.32813,0.5625 2.0625,0.5625 3.79687,1.65625 v 3.359375 q -1.75,-1.484375 -3.71875,-2.234375 -1.96875,-0.75 -4.14062,-0.75 -4.28125,0 -6.4375,2.390625 -2.14063,2.390625 -2.14063,7.125 0,4.71875 2.14063,7.109375 2.15625,2.390625 6.4375,2.390625 1.67187,0 2.98437,-0.28125 1.3125,-0.296875 2.35938,-0.90625 z" />
    <path
       id="path115"
       style=""
       d="m 223.39063,46.671875 h 14.75 v 2.65625 h -11.59375 v 6.90625 h 11.10937 v 2.65625 h -11.10937 v 8.453125 h 11.875 V 70 h -15.03125 z" />
    <path
       id="path117"
       style=""
       d="m 260.42188,45.6875 v 28.53125 h -6.625 v -2.234375 h 3.73437 v -24.0625 h -3.73437 V 45.6875 Z" />
  </g>
  <g
     id="text67"
     style="font-size:20px;font-family:'DejaVu Sans', sans-serif;text-anchor:middle;fill:#000000"
     aria-label="[ TEXTE ]">
    <path
       id="path120"
       style=""
       d="m 42.976563,138.80469 h 4.140625 v 1.39648 h -2.34375 v 15.03906 h 2.34375 v 1.39649 h -4.140625 z" />
    <path
       id="path122"
       style=""
       d="m 55.378906,139.41992 h 12.333985 v 1.66016 H 62.537109 V 154 h -1.982421 v -12.91992 h -5.175782 z" />
    <path
       id="path124"
       style=""
       d="m 69.626953,139.41992 h 9.21875 v 1.66016 h -7.246094 v 4.3164 h 6.94336 v 1.66016 h -6.94336 v 5.2832 h 7.421875 V 154 h -9.394531 z" />
    <path
       id="path126"
       style=""
       d="m 81.580078,139.41992 h 2.119141 l 3.623047,5.41992 3.642578,-5.41992 h 2.11914 l -4.6875,7.00196 5,7.57812 h -2.11914 L 87.175781,147.79883 83.044922,154 h -2.128906 l 5.205078,-7.7832 z" />
    <path
       id="path128"
       style=""
       d="m 93.621094,139.41992 h 12.333986 v 1.66016 H 100.7793 V 154 h -1.982425 v -12.91992 h -5.175781 z" />
    <path
       id="path130"
       style=""
       d="m 107.86914,139.41992 h 9.21875 v 1.66016 h -7.24609 v 4.3164 h 6.94336 v 1.66016 h -6.94336 v 5.2832 h 7.42187 V 154 h -9.39453 z" />
    <path
       id="path132"
       style=""
       d="m 131.01367,138.80469 v 17.83203 h -4.14062 v -1.39649 h 2.33398 v -15.03906 h -2.33398 v -1.39648 z" />
  </g>
  <g
     id="text71"
     style="font-size:20px;font-family:'DejaVu Sans', sans-serif;text-anchor:middle;fill:#000000"
     aria-label="[ TEXTE ]">
    <path
       id="path135"
       style=""
       d="m 42.976563,215.80469 h 4.140625 v 1.39648 h -2.34375 v 15.03906 h 2.34375 v 1.39649 h -4.140625 z" />
    <path
       id="path137"
       style=""
       d="m 55.378906,216.41992 h 12.333985 v 1.66016 H 62.537109 V 231 h -1.982421 v -12.91992 h -5.175782 z" />
    <path
       id="path139"
       style=""
       d="m 69.626953,216.41992 h 9.21875 v 1.66016 h -7.246094 v 4.3164 h 6.94336 v 1.66016 h -6.94336 v 5.2832 h 7.421875 V 231 h -9.394531 z" />
    <path
       id="path141"
       style=""
       d="m 81.580078,216.41992 h 2.119141 l 3.623047,5.41992 3.642578,-5.41992 h 2.11914 l -4.6875,7.00196 5,7.57812 h -2.11914 L 87.175781,224.79883 83.044922,231 h -2.128906 l 5.205078,-7.7832 z" />
    <path
       id="path143"
       style=""
       d="m 93.621094,216.41992 h 12.333986 v 1.66016 H 100.7793 V 231 h -1.982425 v -12.91992 h -5.175781 z" />
    <path
       id="path145"
       style=""
       d="m 107.86914,216.41992 h 9.21875 v 1.66016 h -7.24609 v 4.3164 h 6.94336 v 1.66016 h -6.94336 v 5.2832 h 7.42187 V 231 h -9.39453 z" />
    <path
       id="path147"
       style=""
       d="m 131.01367,215.80469 v 17.83203 h -4.14062 v -1.39649 h 2.33398 v -15.03906 h -2.33398 v -1.39648 z" />
  </g>
  <g
     id="text75"
     style="font-size:20px;font-family:'DejaVu Sans', sans-serif;text-anchor:middle;fill:#000000"
     aria-label="[ TEXTE ]">
    <path
       id="path150"
       style=""
       d="m 42.976563,283.80469 h 4.140625 v 1.39648 h -2.34375 v 15.03906 h 2.34375 v 1.39649 h -4.140625 z" />
    <path
       id="path152"
       style=""
       d="m 55.378906,284.41992 h 12.333985 v 1.66016 H 62.537109 V 299 h -1.982421 v -12.91992 h -5.175782 z" />
    <path
       id="path154"
       style=""
       d="m 69.626953,284.41992 h 9.21875 v 1.66016 h -7.246094 v 4.3164 h 6.94336 v 1.66016 h -6.94336 v 5.2832 h 7.421875 V 299 h -9.394531 z" />
    <path
       id="path156"
       style=""
       d="m 81.580078,284.41992 h 2.119141 l 3.623047,5.41992 3.642578,-5.41992 h 2.11914 l -4.6875,7.00196 5,7.57812 h -2.11914 L 87.175781,292.79883 83.044922,299 h -2.128906 l 5.205078,-7.7832 z" />
    <path
       id="path158"
       style=""
       d="m 93.621094,284.41992 h 12.333986 v 1.66016 H 100.7793 V 299 h -1.982425 v -12.91992 h -5.175781 z" />
    <path
       id="path160"
       style=""
       d="m 107.86914,284.41992 h 9.21875 v 1.66016 h -7.24609 v 4.3164 h 6.94336 v 1.66016 h -6.94336 v 5.2832 h 7.42187 V 299 h -9.39453 z" />
    <path
       id="path162"
       style=""
       d="m 131.01367,283.80469 v 17.83203 h -4.14062 v -1.39649 h 2.33398 v -15.03906 h -2.33398 v -1.39648 z" />
  </g>
  <g
     id="text79"
     style="font-size:20px;font-family:'DejaVu Sans', sans-serif;text-anchor:middle;fill:#000000"
     aria-label="[ TEXTE ]">
    <path
       id="path165"
       style=""
       d="m 165.97656,138.80469 h 4.14063 v 1.39648 h -2.34375 v 15.03906 h 2.34375 v 1.39649 h -4.14063 z" />
    <path
       id="path167"
       style=""
       d="m 178.37891,139.41992 h 12.33398 v 1.66016 h -5.17578 V 154 h -1.98242 v -12.91992 h -5.17578 z" />
    <path
       id="path169"
       style=""
       d="m 192.62695,139.41992 h 9.21875 v 1.66016 h -7.24609 v 4.3164 h 6.94336 v 1.66016 h -6.94336 v 5.2832 h 7.42187 V 154 h -9.39453 z" />
    <path
       id="path171"
       style=""
       d="m 204.58008,139.41992 h 2.11914 l 3.62305,5.41992 3.64257,-5.41992 h 2.11914 l -4.6875,7.00196 5,7.57812 h -2.11914 L 210.17578,147.79883 206.04492,154 h -2.1289 l 5.20507,-7.7832 z" />
    <path
       id="path173"
       style=""
       d="m 216.62109,139.41992 h 12.33399 v 1.66016 H 223.7793 V 154 h -1.98242 v -12.91992 h -5.17579 z" />
    <path
       id="path175"
       style=""
       d="m 230.86914,139.41992 h 9.21875 v 1.66016 h -7.24609 v 4.3164 h 6.94336 v 1.66016 h -6.94336 v 5.2832 h 7.42187 V 154 h -9.39453 z" />
    <path
       id="path177"
       style=""
       d="m 254.01367,138.80469 v 17.83203 h -4.14062 v -1.39649 h 2.33398 v -15.03906 h -2.33398 v -1.39648 z" />
  </g>
  <g
     id="text83"
     style="font-size:20px;font-family:'DejaVu Sans', sans-serif;text-anchor:middle;fill:#000000"
     aria-label="[ TEXTE ]">
    <path
       id="path180"
       style=""
       d="m 165.97656,215.80469 h 4.14063 v 1.39648 h -2.34375 v 15.03906 h 2.34375 v 1.39649 h -4.14063 z" />
    <path
       id="path182"
       style=""
       d="m 178.37891,216.41992 h 12.33398 v 1.66016 h -5.17578 V 231 h -1.98242 v -12.91992 h -5.17578 z" />
    <path
       id="path184"
       style=""
       d="m 192.62695,216.41992 h 9.21875 v 1.66016 h -7.24609 v 4.3164 h 6.94336 v 1.66016 h -6.94336 v 5.2832 h 7.42187 V 231 h -9.39453 z" />
    <path
       id="path186"
       style=""
       d="m 204.58008,216.41992 h 2.11914 l 3.62305,5.41992 3.64257,-5.41992 h 2.11914 l -4.6875,7.00196 5,7.57812 h -2.11914 L 210.17578,224.79883 206.04492,231 h -2.1289 l 5.20507,-7.7832 z" />
    <path
       id="path188"
       style=""
       d="m 216.62109,216.41992 h 12.33399 v 1.66016 H 223.7793 V 231 h -1.98242 v -12.91992 h -5.17579 z" />
    <path
       id="path190"
       style=""
       d="m 230.86914,216.41992 h 9.21875 v 1.66016 h -7.24609 v 4.3164 h 6.94336 v 1.66016 h -6.94336 v 5.2832 h 7.42187 V 231 h -9.39453 z" />
    <path
       id="path192"
       style=""
       d="m 254.01367,215.80469 v 17.83203 h -4.14062 v -1.39649 h 2.33398 v -15.03906 h -2.33398 v -1.39648 z" />
  </g>
  <g
     id="text87"
     style="font-size:20px;font-family:'DejaVu Sans', sans-serif;text-anchor:middle;fill:#000000"
     aria-label="[ TEXTE ]">
    <path
       id="path195"
       style=""
       d="m 165.97656,283.80469 h 4.14063 v 1.39648 h -2.34375 v 15.03906 h 2.34375 v 1.39649 h -4.14063 z" />
    <path
       id="path197"
       style=""
       d="m 178.37891,284.41992 h 12.33398 v 1.66016 h -5.17578 V 299 h -1.98242 v -12.91992 h -5.17578 z" />
    <path
       id="path199"
       style=""
       d="m 192.62695,284.41992 h 9.21875 v 1.66016 h -7.24609 v 4.3164 h 6.94336 v 1.66016 h -6.94336 v 5.2832 h 7.42187 V 299 h -9.39453 z" />
    <path
       id="path201"
       style=""
       d="m 204.58008,284.41992 h 2.11914 l 3.62305,5.41992 3.64257,-5.41992 h 2.11914 l -4.6875,7.00196 5,7.57812 h -2.11914 L 210.17578,292.79883 206.04492,299 h -2.1289 l 5.20507,-7.7832 z" />
    <path
       id="path203"
       style=""
       d="m 216.62109,284.41992 h 12.33399 v 1.66016 H 223.7793 V 299 h -1.98242 v -12.91992 h -5.17579 z" />
    <path
       id="path205"
       style=""
       d="m 230.86914,284.41992 h 9.21875 v 1.66016 h -7.24609 v 4.3164 h 6.94336 v 1.66016 h -6.94336 v 5.2832 h 7.42187 V 299 h -9.39453 z" />
    <path
       id="path207"
       style=""
       d="m 254.01367,283.80469 v 17.83203 h -4.14062 v -1.39649 h 2.33398 v -15.03906 h -2.33398 v -1.39648 z" />
  </g>
</svg>
