<?xml version="1.0" encoding="UTF-8" standalone="no"?>
<svg
   xmlns:dc="http://purl.org/dc/elements/1.1/"
   xmlns:cc="http://creativecommons.org/ns#"
   xmlns:rdf="http://www.w3.org/1999/02/22-rdf-syntax-ns#"
   xmlns:svg="http://www.w3.org/2000/svg"
   xmlns="http://www.w3.org/2000/svg"
   id="svg97"
   stroke-miterlimit="10"
   stroke-linecap="square"
   stroke="none"
   fill="none"
   viewBox="0.0 0.0 369.0 801.0"
   version="1.1">
  <metadata
     id="metadata103">
    <rdf:RDF>
      <cc:Work
         rdf:about="">
        <dc:format>image/svg+xml</dc:format>
        <dc:type
           rdf:resource="http://purl.org/dc/dcmitype/StillImage" />
      </cc:Work>
    </rdf:RDF>
  </metadata>
  <defs
     id="defs101" />
  <clipPath
     id="p.0">
    <path
       id="path2"
       clip-rule="nonzero"
       d="m0 0l369.0 0l0 801.0l-369.0 0l0 -801.0z" />
  </clipPath>
  <g
     id="g91"
     clip-path="url(#p.0)">
    <path
       style="fill:#000000;fill-opacity:0;fill-rule:nonzero"
       id="path5"
       d="M 0,0 H 369.1076 V 801.916 H 0 Z" />
    <path
       style="fill:#000000;fill-rule:nonzero"
       id="path7"
       d="m 248.5753,444.2651 h 101.4803 v 67.55905 H 248.5753 Z" />
    <path
       style="fill-rule:nonzero;stroke:#000000;stroke-width:2;stroke-linecap:butt;stroke-linejoin:round"
       id="path9"
       d="m 248.5753,444.2651 h 101.4803 v 67.55905 H 248.5753 Z" />
    <path
       style="fill:#ffffff;fill-rule:nonzero"
       id="path11"
       d="m 289.4047,109.25535 h 67.3071 v 208.0315 h -67.3071 z" />
    <path
       style="fill-rule:nonzero;stroke:#000000;stroke-width:2;stroke-linecap:butt;stroke-linejoin:round"
       id="path13"
       d="m 289.4047,109.25535 h 67.3071 v 208.0315 h -67.3071 z" />
    <path
       style="fill:#ffffff;fill-rule:nonzero"
       id="path15"
       d="M 5.589649,165.38321 H 53.306183 V 273.09973 H 5.589649 Z" />
    <path
       style="fill-rule:nonzero;stroke:#000000;stroke-width:2;stroke-linecap:butt;stroke-linejoin:round"
       id="path17"
       d="M 5.589649,165.38321 H 53.306183 V 273.09973 H 5.589649 Z" />
    <path
       style="fill:#ffffff;fill-rule:nonzero"
       id="path19"
       d="m 278.36172,66.32809 h 68.82806 v 0 c 9.01667,0 16.32611,7.042313 16.32611,15.729446 0,8.687134 -7.30944,15.729446 -16.32611,15.729446 h -68.82806 v 0 c -9.01666,0 -16.32614,-7.042313 -16.32614,-15.729446 0,-8.687134 7.30948,-15.729446 16.32614,-15.729446 z" />
    <path
       style="fill-rule:nonzero;stroke:#000000;stroke-width:2;stroke-linecap:butt;stroke-linejoin:round"
       id="path21"
       d="m 278.36172,66.32809 h 68.82806 v 0 c 9.01667,0 16.32611,7.042313 16.32611,15.729446 0,8.687134 -7.30944,15.729446 -16.32611,15.729446 h -68.82806 v 0 c -9.01666,0 -16.32614,-7.042313 -16.32614,-15.729446 0,-8.687134 7.30948,-15.729446 16.32614,-15.729446 z" />
    <path
       style="fill:#ffffff;fill-rule:nonzero"
       id="path23"
       d="m 12.574803,486.2047 h 67.30708 v 208.0315 h -67.30708 z" />
    <path
       style="fill-rule:nonzero;stroke:#000000;stroke-width:2;stroke-linecap:butt;stroke-linejoin:round"
       id="path25"
       d="m 12.574803,486.2047 h 67.30708 v 208.0315 h -67.30708 z" />
    <path
       style="fill:#ffffff;fill-rule:nonzero"
       id="path27"
       d="m 243.86876,46.650917 h 92.15749 V 384.32022 h -92.15749 z" />
    <path
       style="fill-rule:nonzero;stroke:#000000;stroke-width:2;stroke-linecap:butt;stroke-linejoin:round"
       id="path29"
       d="m 243.86876,46.650917 h 92.15749 V 384.32022 h -92.15749 z" />
    <path
       style="fill:#000000;fill-rule:nonzero"
       id="path31"
       d="M 22.658957,122.89764 H 101.74557 V 304.53543 H 22.658957 Z" />
    <path
       style="fill-rule:nonzero;stroke:#000000;stroke-width:2;stroke-linecap:butt;stroke-linejoin:round"
       id="path33"
       d="M 22.658957,122.89764 H 101.74557 V 304.53543 H 22.658957 Z" />
    <path
       style="fill:#ffffff;fill-rule:nonzero"
       id="path35"
       d="m 22.689058,66.32809 h 68.82809 v 0 c 9.016662,0 16.326122,7.042313 16.326122,15.729446 0,8.687134 -7.30946,15.729446 -16.326122,15.729446 h -68.82809 v 0 c -9.016665,0 -16.326115,-7.042313 -16.326115,-15.729446 0,-8.687134 7.309451,-15.729446 16.326115,-15.729446 z" />
    <path
       style="fill-rule:nonzero;stroke:#000000;stroke-width:2;stroke-linecap:butt;stroke-linejoin:round"
       id="path37"
       d="m 22.689058,66.32809 h 68.82809 v 0 c 9.016662,0 16.326122,7.042313 16.326122,15.729446 0,8.687134 -7.30946,15.729446 -16.326122,15.729446 h -68.82809 v 0 c -9.016665,0 -16.326115,-7.042313 -16.326115,-15.729446 0,-8.687134 7.309451,-15.729446 16.326115,-15.729446 z" />
    <path
       style="fill:#ffffff;fill-rule:nonzero"
       id="path39"
       d="m 22.689058,443.84253 h 68.82809 v 0 c 9.016662,0 16.326122,7.0423 16.326122,15.72943 0,8.68714 -7.30946,15.72946 -16.326122,15.72946 h -68.82809 v 0 c -9.016665,0 -16.326115,-7.04232 -16.326115,-15.72946 0,-8.68713 7.309451,-15.72943 16.326115,-15.72943 z" />
    <path
       style="fill-rule:nonzero;stroke:#000000;stroke-width:2;stroke-linecap:butt;stroke-linejoin:round"
       id="path41"
       d="m 22.689058,443.84253 h 68.82809 v 0 c 9.016662,0 16.326122,7.0423 16.326122,15.72943 0,8.68714 -7.30946,15.72946 -16.326122,15.72946 h -68.82809 v 0 c -9.016665,0 -16.326115,-7.04232 -16.326115,-15.72946 0,-8.68713 7.309451,-15.72943 16.326115,-15.72943 z" />
    <path
       style="fill:#ffffff;fill-rule:nonzero"
       id="path43"
       d="M 31.853674,46.650917 H 86.814306 V 384.32022 H 31.853674 Z" />
    <path
       style="fill-rule:nonzero;stroke:#000000;stroke-width:2;stroke-linecap:butt;stroke-linejoin:round"
       id="path45"
       d="M 31.853674,46.650917 H 86.814306 V 384.32022 H 31.853674 Z" />
    <path
       style="fill:#ffffff;fill-rule:nonzero"
       id="path47"
       d="m 278.36368,443.84253 h 68.82809 v 0 c 9.01667,0 16.32611,7.0423 16.32611,15.72943 0,8.68714 -7.30944,15.72946 -16.32611,15.72946 h -68.82809 v 0 c -9.01666,0 -16.32611,-7.04232 -16.32611,-15.72946 0,-8.68713 7.30945,-15.72943 16.32611,-15.72943 z" />
    <path
       style="fill-rule:nonzero;stroke:#000000;stroke-width:2;stroke-linecap:butt;stroke-linejoin:round"
       id="path49"
       d="m 278.36368,443.84253 h 68.82809 v 0 c 9.01667,0 16.32611,7.0423 16.32611,15.72943 0,8.68714 -7.30944,15.72946 -16.32611,15.72946 h -68.82809 v 0 c -9.01666,0 -16.32611,-7.04232 -16.32611,-15.72946 0,-8.68713 7.30945,-15.72943 16.32611,-15.72943 z" />
    <path
       style="fill:#ffffff;fill-rule:nonzero"
       id="path51"
       d="M 251.84662,615.33795 H 358.49228 V 660.1568 H 251.84662 Z" />
    <path
       style="fill-rule:nonzero;stroke:#000000;stroke-width:2;stroke-linecap:butt;stroke-linejoin:round"
       id="path53"
       d="M 251.84662,615.33795 H 358.49228 V 660.1568 H 251.84662 Z" />
    <path
       style="fill:#ffffff;fill-rule:nonzero"
       id="path55"
       d="m 251.84662,544.1022 h 106.64566 v 44.81891 H 251.84662 Z" />
    <path
       style="fill-rule:nonzero;stroke:#000000;stroke-width:2;stroke-linecap:butt;stroke-linejoin:round"
       id="path57"
       d="m 251.84662,544.1022 h 106.64566 v 44.81891 H 251.84662 Z" />
    <path
       style="fill:#ffffff;fill-rule:nonzero"
       id="path59"
       d="m 251.84662,689.47974 h 106.64566 v 44.81891 H 251.84662 Z" />
    <path
       style="fill-rule:nonzero;stroke:#000000;stroke-width:2;stroke-linecap:butt;stroke-linejoin:round"
       id="path61"
       d="m 251.84662,689.47974 h 106.64566 v 44.81891 H 251.84662 Z" />
    <path
       style="fill:#000000;fill-opacity:0;fill-rule:nonzero"
       id="path63"
       d="m 6.361959,517.22833 h 24.88189" />
    <path
       style="fill-rule:nonzero;stroke:#000000;stroke-width:2;stroke-linecap:butt;stroke-linejoin:round"
       id="path65"
       d="m 6.361959,517.22833 h 24.88189" />
    <path
       style="fill:#000000;fill-opacity:0;fill-rule:nonzero"
       id="path67"
       d="m 6.361959,569.0379 h 24.88189" />
    <path
       style="fill-rule:nonzero;stroke:#000000;stroke-width:2;stroke-linecap:butt;stroke-linejoin:round"
       id="path69"
       d="m 6.361959,569.0379 h 24.88189" />
    <path
       style="fill:#000000;fill-opacity:0;fill-rule:nonzero"
       id="path71"
       d="m 6.361959,616.8954 h 24.88189" />
    <path
       style="fill-rule:nonzero;stroke:#000000;stroke-width:2;stroke-linecap:butt;stroke-linejoin:round"
       id="path73"
       d="m 6.361959,616.8954 h 24.88189" />
    <path
       style="fill:#000000;fill-opacity:0;fill-rule:nonzero"
       id="path75"
       d="M 6.361959,673.9764 H 31.999753" />
    <path
       style="fill-rule:nonzero;stroke:#000000;stroke-width:2;stroke-linecap:butt;stroke-linejoin:round"
       id="path77"
       d="M 6.361959,673.9764 H 31.999753" />
    <path
       style="fill:#ffffff;fill-rule:nonzero"
       id="path79"
       d="m 31.85023,423.8084 h 304.1575 V 761.47765 H 31.85023 Z" />
    <path
       style="fill-rule:nonzero;stroke:#000000;stroke-width:2;stroke-linecap:butt;stroke-linejoin:round"
       id="path81"
       d="m 31.85023,423.8084 h 304.1575 V 761.47765 H 31.85023 Z" />
    <path
       style="fill:#ffffff;fill-rule:nonzero"
       id="path83"
       d="M 56.01132,0.9422572 H 312.60974 V 800.97376 H 56.01132 Z" />
    <path
       style="fill-rule:nonzero;stroke:#000000;stroke-width:2;stroke-linecap:butt;stroke-linejoin:round"
       id="path85"
       d="M 56.01132,0.9422572 H 312.60974 V 800.97376 H 56.01132 Z" />
    <path
       style="fill:#000000;fill-opacity:0;fill-rule:nonzero"
       id="path87"
       d="M 289.4042,31.199474 V 346.85303 H 221.84513 V 31.199474 Z" />
    <path
       style="fill-rule:nonzero;stroke:#000000;stroke-width:2;stroke-linecap:butt;stroke-linejoin:round"
       id="path89"
       d="M 289.4042,31.199474 V 386.85303 H 221.84513 V 31.199474 Z" />
  </g>
  <g
     id="text95"
     style="font-size:30px;font-family:sans-serif;text-anchor:middle;fill:#000000"
     transform="rotate(90)"
     aria-label="[MISSING: Manual/intro.label-serialnumber]">
    <path
       id="path105"
       style="fill:#ff0000"
       d="m -111.44141,-267.79297 h 6.21094 v 2.09473 h -3.51562 v 22.55859 h 3.51562 v 2.09473 h -6.21094 z" />
    <path
       id="path107"
       style="fill:#ff0000"
       d="m -99.356445,-266.87012 h 4.409179 l 5.581055,14.88282 5.610352,-14.88282 h 4.409179 V -245 h -2.885742 v -19.2041 l -5.639648,15 h -2.973633 l -5.639649,-15 V -245 h -2.871093 z" />
    <path
       id="path109"
       style="fill:#ff0000"
       d="m -73.458008,-266.87012 h 2.958985 V -245 h -2.958985 z" />
    <path
       id="path111"
       style="fill:#ff0000"
       d="m -51.5,-266.15234 v 2.88574 q -1.68457,-0.80567 -3.178711,-1.20117 -1.494141,-0.39551 -2.885742,-0.39551 -2.416992,0 -3.735352,0.9375 -1.303711,0.9375 -1.303711,2.66601 0,1.4502 0.864258,2.19727 0.878906,0.73242 3.310547,1.18652 l 1.787109,0.36621 q 3.310547,0.62989 4.87793,2.22657 1.582031,1.58203 1.582031,4.24804 0,3.17871 -2.138672,4.81934 -2.124023,1.64062 -6.240234,1.64062 -1.552734,0 -3.310547,-0.35156 -1.743164,-0.35156 -3.618164,-1.04004 v -3.04687 q 1.801758,1.01074 3.530274,1.52344 1.728515,0.51269 3.398437,0.51269 2.53418,0 3.911133,-0.99609 1.376953,-0.9961 1.376953,-2.8418 0,-1.61133 -0.996094,-2.51953 -0.981445,-0.9082 -3.237304,-1.36231 l -1.801758,-0.35156 q -3.310547,-0.65918 -4.790039,-2.06543 -1.479492,-1.40625 -1.479492,-3.91113 0,-2.90039 2.036132,-4.57031 2.050782,-1.66993 5.639649,-1.66993 1.538086,0 3.134765,0.27833 1.59668,0.27832 3.266602,0.83496 z" />
    <path
       id="path113"
       style="fill:#ff0000"
       d="m -32.457031,-266.15234 v 2.88574 q -1.684571,-0.80567 -3.178711,-1.20117 -1.494141,-0.39551 -2.885742,-0.39551 -2.416993,0 -3.735352,0.9375 -1.303711,0.9375 -1.303711,2.66601 0,1.4502 0.864258,2.19727 0.878906,0.73242 3.310547,1.18652 l 1.787109,0.36621 q 3.310547,0.62989 4.87793,2.22657 1.582031,1.58203 1.582031,4.24804 0,3.17871 -2.138672,4.81934 -2.124023,1.64062 -6.240234,1.64062 -1.552735,0 -3.310547,-0.35156 -1.743164,-0.35156 -3.618164,-1.04004 v -3.04687 q 1.801758,1.01074 3.530273,1.52344 1.728516,0.51269 3.398438,0.51269 2.53418,0 3.911133,-0.99609 1.376953,-0.9961 1.376953,-2.8418 0,-1.61133 -0.996094,-2.51953 -0.981445,-0.9082 -3.237305,-1.36231 l -1.801757,-0.35156 q -3.310547,-0.65918 -4.79004,-2.06543 -1.479492,-1.40625 -1.479492,-3.91113 0,-2.90039 2.036133,-4.57031 2.050781,-1.66993 5.639649,-1.66993 1.538085,0 3.134765,0.27833 1.59668,0.27832 3.266602,0.83496 z" />
    <path
       id="path115"
       style="fill:#ff0000"
       d="m -26.524414,-266.87012 h 2.958984 V -245 h -2.958984 z" />
    <path
       id="path117"
       style="fill:#ff0000"
       d="m -17.676758,-266.87012 h 3.984375 l 9.6972658,18.2959 v -18.2959 h 2.8710938 V -245 h -3.984375 l -9.6972656,-18.2959 V -245 h -2.871094 z" />
    <path
       id="path119"
       style="fill:#ff0000"
       d="m 19.676758,-248.12012 v -5.87402 h -4.833985 v -2.43164 h 7.763672 v 9.38965 q -1.713867,1.21582 -3.779297,1.8457 -2.065429,0.61523 -4.409179,0.61523 -5.1269534,0 -8.027344,-2.98828 -2.8857422,-3.00293 -2.8857422,-8.34961 0,-5.36132 2.8857422,-8.34961 2.9003906,-3.00293 8.027344,-3.00293 2.138672,0 4.057617,0.52735 1.933594,0.52734 3.55957,1.55273 v 3.14942 q -1.640625,-1.3916 -3.486328,-2.09473 -1.845703,-0.70312 -3.881836,-0.70312 -4.013672,0 -6.0351561,2.24121 -2.0068359,2.24121 -2.0068359,6.67968 0,4.42383 2.0068359,6.66504 2.0214841,2.24121 6.0351561,2.24121 1.567383,0 2.797852,-0.26367 1.230469,-0.27832 2.211914,-0.84961 z" />
    <path
       id="path121"
       style="fill:#ff0000"
       d="m 28.597656,-248.7207 h 3.090821 V -245 h -3.090821 z m 0,-11.792 h 3.090821 v 3.72071 h -3.090821 z" />
    <path
       id="path123"
       style="fill:#ff0000"
       d="m 47.713867,-266.87012 h 4.40918 l 5.581055,14.88282 5.610351,-14.88282 h 4.40918 V -245 h -2.885742 v -19.2041 l -5.639649,15 h -2.973633 l -5.639648,-15 V -245 h -2.871094 z" />
    <path
       id="path125"
       style="fill:#ff0000"
       d="m 80.951172,-253.24707 q -3.266602,0 -4.526367,0.74707 -1.259766,0.74707 -1.259766,2.54883 0,1.43554 0.9375,2.28515 0.952149,0.83497 2.578125,0.83497 2.241211,0 3.588867,-1.58204 1.362305,-1.59668 1.362305,-4.23339 v -0.60059 z m 5.375976,-1.11328 V -245 h -2.695312 v -2.49023 q -0.922852,1.49414 -2.299805,2.21191 -1.376953,0.70312 -3.36914,0.70312 -2.519532,0 -4.013672,-1.40625 -1.479492,-1.42089 -1.479492,-3.79394 0,-2.76856 1.845703,-4.17481 1.860351,-1.40625 5.537109,-1.40625 h 3.779297 v -0.26367 q 0,-1.86035 -1.230469,-2.87109 -1.21582,-1.02539 -3.427734,-1.02539 -1.40625,0 -2.739258,0.33691 -1.333008,0.33692 -2.563477,1.01074 v -2.49023 q 1.479493,-0.57129 2.871094,-0.84961 1.391602,-0.29297 2.709961,-0.29297 3.55957,0 5.317383,1.84571 1.757812,1.8457 1.757812,5.5957 z" />
    <path
       id="path127"
       style="fill:#ff0000"
       d="M 105.53125,-254.90234 V -245 h -2.69531 v -9.81445 q 0,-2.3291 -0.90821,-3.48633 -0.9082,-1.15723 -2.724605,-1.15723 -2.182617,0 -3.442383,1.3916 -1.259765,1.39161 -1.259765,3.79395 V -245 h -2.709961 v -16.40625 h 2.709961 v 2.54883 q 0.966796,-1.47949 2.270507,-2.21192 1.31836,-0.73242 3.032227,-0.73242 2.827149,0 4.277339,1.75781 1.4502,1.74317 1.4502,5.14161 z" />
    <path
       id="path129"
       style="fill:#ff0000"
       d="m 110.6582,-251.47461 v -9.93164 h 2.69532 v 9.8291 q 0,2.3291 0.9082,3.50098 0.9082,1.15722 2.72461,1.15722 2.18262,0 3.44238,-1.3916 1.27441,-1.3916 1.27441,-3.79394 v -9.30176 h 2.69532 V -245 h -2.69532 v -2.51953 q -0.98144,1.49414 -2.28515,2.22656 -1.28906,0.71777 -3.00293,0.71777 -2.82715,0 -4.29199,-1.75781 -1.46485,-1.75781 -1.46485,-5.1416 z m 6.78223,-10.32715 z" />
    <path
       id="path131"
       style="fill:#ff0000"
       d="m 137.43555,-253.24707 q -3.2666,0 -4.52637,0.74707 -1.25977,0.74707 -1.25977,2.54883 0,1.43554 0.9375,2.28515 0.95215,0.83497 2.57813,0.83497 2.24121,0 3.58887,-1.58204 1.3623,-1.59668 1.3623,-4.23339 v -0.60059 z m 5.37597,-1.11328 V -245 h -2.69531 v -2.49023 q -0.92285,1.49414 -2.2998,2.21191 -1.37696,0.70312 -3.36914,0.70312 -2.51954,0 -4.01368,-1.40625 -1.47949,-1.42089 -1.47949,-3.79394 0,-2.76856 1.8457,-4.17481 1.86036,-1.40625 5.53711,-1.40625 h 3.7793 v -0.26367 q 0,-1.86035 -1.23047,-2.87109 -1.21582,-1.02539 -3.42773,-1.02539 -1.40625,0 -2.73926,0.33691 -1.33301,0.33692 -2.56348,1.01074 v -2.49023 q 1.4795,-0.57129 2.8711,-0.84961 1.3916,-0.29297 2.70996,-0.29297 3.55957,0 5.31738,1.84571 1.75781,1.8457 1.75781,5.5957 z" />
    <path
       id="path133"
       style="fill:#ff0000"
       d="m 148.37793,-267.79297 h 2.69531 V -245 h -2.69531 z" />
    <path
       id="path135"
       style="fill:#ff0000"
       d="m 161.48828,-266.87012 h 2.49024 l -7.61719,24.65332 h -2.49024 z" />
    <path
       id="path137"
       style="fill:#ff0000"
       d="m 166.83496,-261.40625 h 2.69531 V -245 h -2.69531 z m 0,-6.38672 h 2.69531 v 3.41309 h -2.69531 z" />
    <path
       id="path139"
       style="fill:#ff0000"
       d="M 188.79297,-254.90234 V -245 h -2.69531 v -9.81445 q 0,-2.3291 -0.90821,-3.48633 -0.9082,-1.15723 -2.72461,-1.15723 -2.18261,0 -3.44238,1.3916 -1.25976,1.39161 -1.25976,3.79395 V -245 h -2.70997 v -16.40625 h 2.70997 v 2.54883 q 0.96679,-1.47949 2.2705,-2.21192 1.31836,-0.73242 3.03223,-0.73242 2.82715,0 4.27734,1.75781 1.4502,1.74317 1.4502,5.14161 z" />
    <path
       id="path141"
       style="fill:#ff0000"
       d="m 196.86426,-266.06445 v 4.6582 h 5.55176 v 2.09473 h -5.55176 v 8.90625 q 0,2.00683 0.54199,2.57812 0.55664,0.57129 2.24121,0.57129 h 2.76856 V -245 h -2.76856 q -3.12012,0 -4.30664,-1.15723 -1.18652,-1.17187 -1.18652,-4.24804 v -8.90625 h -1.97754 v -2.09473 h 1.97754 v -4.6582 z" />
    <path
       id="path143"
       style="fill:#ff0000"
       d="m 215.48242,-258.88672 q -0.4541,-0.26367 -0.99609,-0.38086 -0.52735,-0.13183 -1.17188,-0.13183 -2.28515,0 -3.51562,1.49414 -1.21582,1.47949 -1.21582,4.26269 V -245 h -2.70996 v -16.40625 h 2.70996 v 2.54883 q 0.84961,-1.49414 2.21191,-2.21192 1.36231,-0.73242 3.31055,-0.73242 0.27832,0 0.61523,0.0439 0.33692,0.0293 0.74707,0.10254 z" />
    <path
       id="path145"
       style="fill:#ff0000"
       d="m 224.05176,-259.5166 q -2.16797,0 -3.42774,1.69922 -1.25976,1.68457 -1.25976,4.6289 0,2.94434 1.24512,4.64356 1.25976,1.68457 3.44238,1.68457 2.15332,0 3.41308,-1.69922 1.25977,-1.69922 1.25977,-4.62891 0,-2.91504 -1.25977,-4.61425 -1.25976,-1.71387 -3.41308,-1.71387 z m 0,-2.28516 q 3.51562,0 5.52246,2.28516 2.00683,2.28515 2.00683,6.32812 0,4.02832 -2.00683,6.32813 -2.00684,2.28515 -5.52246,2.28515 -3.53028,0 -5.53711,-2.28515 -1.99219,-2.29981 -1.99219,-6.32813 0,-4.04297 1.99219,-6.32812 2.00683,-2.28516 5.53711,-2.28516 z" />
    <path
       id="path147"
       style="fill:#ff0000"
       d="m 235.8877,-248.7207 h 3.09082 V -245 h -3.09082 z" />
    <path
       id="path149"
       style="fill:#ff0000"
       d="m 245.05762,-267.79297 h 2.69531 V -245 h -2.69531 z" />
    <path
       id="path151"
       style="fill:#ff0000"
       d="m 260.83398,-253.24707 q -3.2666,0 -4.52636,0.74707 -1.25977,0.74707 -1.25977,2.54883 0,1.43554 0.9375,2.28515 0.95215,0.83497 2.57813,0.83497 2.24121,0 3.58886,-1.58204 1.36231,-1.59668 1.36231,-4.23339 v -0.60059 z m 5.37598,-1.11328 V -245 h -2.69531 v -2.49023 q -0.92285,1.49414 -2.29981,2.21191 -1.37695,0.70312 -3.36914,0.70312 -2.51953,0 -4.01367,-1.40625 -1.47949,-1.42089 -1.47949,-3.79394 0,-2.76856 1.8457,-4.17481 1.86035,-1.40625 5.53711,-1.40625 h 3.7793 v -0.26367 q 0,-1.86035 -1.23047,-2.87109 -1.21582,-1.02539 -3.42773,-1.02539 -1.40625,0 -2.73926,0.33691 -1.33301,0.33692 -2.56348,1.01074 v -2.49023 q 1.47949,-0.57129 2.87109,-0.84961 1.39161,-0.29297 2.70997,-0.29297 3.55957,0 5.31738,1.84571 1.75781,1.8457 1.75781,5.5957 z" />
    <path
       id="path153"
       style="fill:#ff0000"
       d="m 283.55371,-253.18848 q 0,-2.97363 -1.23047,-4.6582 -1.21582,-1.69922 -3.35449,-1.69922 -2.13867,0 -3.36914,1.69922 -1.21582,1.68457 -1.21582,4.6582 0,2.97364 1.21582,4.67285 1.23047,1.68458 3.36914,1.68458 2.13867,0 3.35449,-1.68458 1.23047,-1.69921 1.23047,-4.67285 z m -9.16992,-5.72754 q 0.84961,-1.46484 2.13867,-2.16796 1.30371,-0.71778 3.10547,-0.71778 2.98828,0 4.84863,2.37305 1.875,2.37305 1.875,6.24023 0,3.86719 -1.875,6.24024 -1.86035,2.37304 -4.84863,2.37304 -1.80176,0 -3.10547,-0.70312 -1.28906,-0.71777 -2.13867,-2.18262 V -245 h -2.70996 v -22.79297 h 2.70996 z" />
    <path
       id="path155"
       style="fill:#ff0000"
       d="m 304.85254,-253.87695 v 1.31836 h -12.39258 q 0.17578,2.7832 1.66992,4.24804 1.50879,1.4502 4.18946,1.4502 1.55273,0 3.00293,-0.38086 1.46484,-0.38086 2.90039,-1.14258 v 2.54883 q -1.4502,0.61523 -2.97364,0.9375 -1.52343,0.32226 -3.09082,0.32226 -3.92578,0 -6.22558,-2.28515 -2.28516,-2.28516 -2.28516,-6.18164 0,-4.02832 2.16797,-6.38672 2.18262,-2.37305 5.87402,-2.37305 3.31055,0 5.2295,2.13867 1.93359,2.12403 1.93359,5.78614 z m -2.69531,-0.79102 q -0.0293,-2.21191 -1.24512,-3.53027 -1.20117,-1.31836 -3.19336,-1.31836 -2.25586,0 -3.61816,1.27441 -1.34766,1.27442 -1.55274,3.58887 z" />
    <path
       id="path157"
       style="fill:#ff0000"
       d="m 309.27637,-267.79297 h 2.69531 V -245 h -2.69531 z" />
    <path
       id="path159"
       style="fill:#ff0000"
       d="m 316.23438,-254.41895 h 7.8955 v 2.40235 h -7.8955 z" />
    <path
       id="path161"
       style="fill:#ff0000"
       d="m 338.89551,-260.92285 v 2.54883 q -1.14258,-0.58594 -2.37305,-0.87891 -1.23047,-0.29297 -2.54883,-0.29297 -2.00683,0 -3.01758,0.61524 -0.99609,0.61523 -0.99609,1.8457 0,0.9375 0.71777,1.47949 0.71778,0.52734 2.88575,1.01074 l 0.92285,0.20508 q 2.87109,0.61524 4.07226,1.74317 1.21582,1.11328 1.21582,3.12011 0,2.28516 -1.8164,3.61817 -1.80176,1.333 -4.96582,1.333 -1.31836,0 -2.75391,-0.26367 -1.4209,-0.24902 -3.00293,-0.76172 v -2.7832 q 1.49414,0.77637 2.94434,1.17188 1.45019,0.38086 2.87109,0.38086 1.9043,0 2.92969,-0.64454 1.02539,-0.65918 1.02539,-1.8457 0,-1.09863 -0.74707,-1.68457 -0.73242,-0.58594 -3.23731,-1.12793 l -0.9375,-0.21973 q -2.50488,-0.52734 -3.61816,-1.61132 -1.11328,-1.09864 -1.11328,-3.00293 0,-2.31446 1.64062,-3.57422 1.64063,-1.25977 4.65821,-1.25977 1.49414,0 2.8125,0.21973 1.31836,0.21973 2.43164,0.65918 z" />
    <path
       id="path163"
       style="fill:#ff0000"
       d="m 358.11426,-253.87695 v 1.31836 h -12.39258 q 0.17578,2.7832 1.66992,4.24804 1.50879,1.4502 4.18945,1.4502 1.55274,0 3.00293,-0.38086 1.46485,-0.38086 2.9004,-1.14258 v 2.54883 q -1.4502,0.61523 -2.97364,0.9375 -1.52344,0.32226 -3.09082,0.32226 -3.92578,0 -6.22558,-2.28515 -2.28516,-2.28516 -2.28516,-6.18164 0,-4.02832 2.16797,-6.38672 2.18262,-2.37305 5.87402,-2.37305 3.31055,0 5.22949,2.13867 1.9336,2.12403 1.9336,5.78614 z m -2.69531,-0.79102 q -0.0293,-2.21191 -1.24512,-3.53027 -1.20117,-1.31836 -3.19336,-1.31836 -2.25586,0 -3.61817,1.27441 -1.34765,1.27442 -1.55273,3.58887 z" />
    <path
       id="path165"
       style="fill:#ff0000"
       d="m 372.04492,-258.88672 q -0.4541,-0.26367 -0.99609,-0.38086 -0.52735,-0.13183 -1.17188,-0.13183 -2.28515,0 -3.51562,1.49414 -1.21582,1.47949 -1.21582,4.26269 V -245 h -2.70996 v -16.40625 h 2.70996 v 2.54883 q 0.84961,-1.49414 2.21191,-2.21192 1.36231,-0.73242 3.31055,-0.73242 0.27832,0 0.61523,0.0439 0.33692,0.0293 0.74707,0.10254 z" />
    <path
       id="path167"
       style="fill:#ff0000"
       d="m 374.90137,-261.40625 h 2.69531 V -245 h -2.69531 z m 0,-6.38672 h 2.69531 v 3.41309 h -2.69531 z" />
    <path
       id="path169"
       style="fill:#ff0000"
       d="m 390.67773,-253.24707 q -3.2666,0 -4.52636,0.74707 -1.25977,0.74707 -1.25977,2.54883 0,1.43554 0.9375,2.28515 0.95215,0.83497 2.57813,0.83497 2.24121,0 3.58886,-1.58204 1.36231,-1.59668 1.36231,-4.23339 v -0.60059 z m 5.37598,-1.11328 V -245 h -2.69531 v -2.49023 q -0.92285,1.49414 -2.29981,2.21191 -1.37695,0.70312 -3.36914,0.70312 -2.51953,0 -4.01367,-1.40625 -1.47949,-1.42089 -1.47949,-3.79394 0,-2.76856 1.8457,-4.17481 1.86035,-1.40625 5.53711,-1.40625 h 3.7793 v -0.26367 q 0,-1.86035 -1.23047,-2.87109 -1.21582,-1.02539 -3.42773,-1.02539 -1.40625,0 -2.73926,0.33691 -1.33301,0.33692 -2.56348,1.01074 v -2.49023 q 1.47949,-0.57129 2.87109,-0.84961 1.39161,-0.29297 2.70997,-0.29297 3.55957,0 5.31738,1.84571 1.75781,1.8457 1.75781,5.5957 z" />
    <path
       id="path171"
       style="fill:#ff0000"
       d="m 401.62012,-267.79297 h 2.69531 V -245 h -2.69531 z" />
    <path
       id="path173"
       style="fill:#ff0000"
       d="M 423.57813,-254.90234 V -245 h -2.69532 v -9.81445 q 0,-2.3291 -0.9082,-3.48633 -0.9082,-1.15723 -2.72461,-1.15723 -2.18262,0 -3.44238,1.3916 -1.25977,1.39161 -1.25977,3.79395 V -245 h -2.70996 v -16.40625 h 2.70996 v 2.54883 q 0.9668,-1.47949 2.27051,-2.21192 1.31836,-0.73242 3.03223,-0.73242 2.82714,0 4.27734,1.75781 1.4502,1.74317 1.4502,5.14161 z" />
    <path
       id="path175"
       style="fill:#ff0000"
       d="m 428.70508,-251.47461 v -9.93164 h 2.69531 v 9.8291 q 0,2.3291 0.9082,3.50098 0.90821,1.15722 2.72461,1.15722 2.18262,0 3.44239,-1.3916 1.27441,-1.3916 1.27441,-3.79394 v -9.30176 h 2.69531 V -245 H 439.75 v -2.51953 q -0.98145,1.49414 -2.28516,2.22656 -1.28906,0.71777 -3.00293,0.71777 -2.82714,0 -4.29199,-1.75781 -1.46484,-1.75781 -1.46484,-5.1416 z m 6.78222,-10.32715 z" />
    <path
       id="path177"
       style="fill:#ff0000"
       d="m 460.7998,-258.25684 q 1.01075,-1.8164 2.417,-2.68066 1.40625,-0.86426 3.31054,-0.86426 2.56348,0 3.95508,1.80176 1.3916,1.78711 1.3916,5.09766 V -245 h -2.70996 v -9.81445 q 0,-2.3584 -0.83496,-3.50098 -0.83496,-1.14258 -2.54883,-1.14258 -2.09472,0 -3.31054,1.3916 -1.21582,1.39161 -1.21582,3.79395 V -245 h -2.70996 v -9.81445 q 0,-2.37305 -0.83497,-3.50098 -0.83496,-1.14258 -2.57812,-1.14258 -2.06543,0 -3.28125,1.40625 -1.21582,1.3916 -1.21582,3.7793 V -245 h -2.70996 v -16.40625 h 2.70996 v 2.54883 q 0.92285,-1.50879 2.21191,-2.22656 1.28907,-0.71778 3.06153,-0.71778 1.78711,0 3.03222,0.90821 1.25977,0.9082 1.86035,2.63671 z" />
    <path
       id="path179"
       style="fill:#ff0000"
       d="m 489.04199,-253.18848 q 0,-2.97363 -1.23047,-4.6582 -1.21582,-1.69922 -3.35449,-1.69922 -2.13867,0 -3.36914,1.69922 -1.21582,1.68457 -1.21582,4.6582 0,2.97364 1.21582,4.67285 1.23047,1.68458 3.36914,1.68458 2.13867,0 3.35449,-1.68458 1.23047,-1.69921 1.23047,-4.67285 z m -9.16992,-5.72754 q 0.84961,-1.46484 2.13867,-2.16796 1.30371,-0.71778 3.10547,-0.71778 2.98828,0 4.84863,2.37305 1.875,2.37305 1.875,6.24023 0,3.86719 -1.875,6.24024 -1.86035,2.37304 -4.84863,2.37304 -1.80176,0 -3.10547,-0.70312 -1.28906,-0.71777 -2.13867,-2.18262 V -245 h -2.70996 v -22.79297 h 2.70996 z" />
    <path
       id="path181"
       style="fill:#ff0000"
       d="m 510.34082,-253.87695 v 1.31836 h -12.39258 q 0.17578,2.7832 1.66992,4.24804 1.50879,1.4502 4.18946,1.4502 1.55273,0 3.00293,-0.38086 1.46484,-0.38086 2.90039,-1.14258 v 2.54883 q -1.4502,0.61523 -2.97364,0.9375 -1.52343,0.32226 -3.09082,0.32226 -3.92578,0 -6.22558,-2.28515 -2.28516,-2.28516 -2.28516,-6.18164 0,-4.02832 2.16797,-6.38672 2.18262,-2.37305 5.87402,-2.37305 3.31055,0 5.2295,2.13867 1.93359,2.12403 1.93359,5.78614 z m -2.69531,-0.79102 q -0.0293,-2.21191 -1.24512,-3.53027 -1.20117,-1.31836 -3.19336,-1.31836 -2.25586,0 -3.61816,1.27441 -1.34766,1.27442 -1.55274,3.58887 z" />
    <path
       id="path183"
       style="fill:#ff0000"
       d="m 524.27148,-258.88672 q -0.4541,-0.26367 -0.99609,-0.38086 -0.52734,-0.13183 -1.17187,-0.13183 -2.28516,0 -3.51563,1.49414 -1.21582,1.47949 -1.21582,4.26269 V -245 h -2.70996 v -16.40625 h 2.70996 v 2.54883 q 0.84961,-1.49414 2.21191,-2.21192 1.36231,-0.73242 3.31055,-0.73242 0.27832,0 0.61524,0.0439 0.33691,0.0293 0.74707,0.10254 z" />
    <path
       id="path185"
       style="fill:#ff0000"
       d="m 533.42676,-267.79297 v 26.74805 h -6.21094 v -2.09473 h 3.50098 v -22.55859 h -3.50098 v -2.09473 z" />
  </g>
</svg>
