<?xml version="1.0" encoding="UTF-8" standalone="no"?>
<svg
   xmlns:dc="http://purl.org/dc/elements/1.1/"
   xmlns:cc="http://creativecommons.org/ns#"
   xmlns:rdf="http://www.w3.org/1999/02/22-rdf-syntax-ns#"
   xmlns:svg="http://www.w3.org/2000/svg"
   xmlns="http://www.w3.org/2000/svg"
   id="svg69"
   stroke-miterlimit="10"
   stroke-linecap="square"
   stroke="none"
   fill="none"
   viewBox="0.0 0.0 348.0 348.0"
   version="1.1">
  <metadata
     id="metadata75">
    <rdf:RDF>
      <cc:Work
         rdf:about="">
        <dc:format>image/svg+xml</dc:format>
        <dc:type
           rdf:resource="http://purl.org/dc/dcmitype/StillImage" />
      </cc:Work>
    </rdf:RDF>
  </metadata>
  <defs
     id="defs73" />
  <clipPath
     id="p.0">
    <path
       id="path2"
       clip-rule="nonzero"
       d="m0 0l348.0 0l0 348.0l-348.0 0l0 -348.0z" />
  </clipPath>
  <g
     id="g63"
     clip-path="url(#p.0)">
    <path
       style="fill:#000000;fill-opacity:0;fill-rule:nonzero"
       id="path5"
       d="M 0,0 H 348 V 348 H 0 Z" />
    <path
       style="fill:#ffffff;fill-rule:nonzero"
       id="path7"
       d="M -6,0 H 342 V 347.9685 H -6 Z" />
    <path
       style="fill:#000000;fill-opacity:0;fill-rule:nonzero"
       id="path9"
       d="m 5.07874,5.7758217 h 336.9134 V 343.44512 H 5.07874 Z" />
    <path
       style="fill-rule:nonzero;stroke:#000000;stroke-width:2;stroke-linecap:butt;stroke-linejoin:round"
       id="path11"
       d="m 5.07874,5.7758217 h 336.9134 V 343.44512 H 5.07874 Z" />
    <path
       style="fill:#ffffff;fill-rule:nonzero"
       id="path13"
       d="M 17.036913,71.17821 H 242.42274 V 306.51679 H 17.036913 Z" />
    <path
       style="fill-rule:nonzero;stroke:#000000;stroke-width:2;stroke-linecap:butt;stroke-linejoin:round"
       id="path15"
       d="M 17.036913,71.17821 H 242.42274 V 306.51679 H 17.036913 Z" />
    <path
       style="fill:#000000;fill-rule:nonzero"
       id="path17"
       d="m 273.45645,109.96049 h 46.2677 v 196.56694 h -46.2677 z" />
    <path
       style="fill-rule:nonzero;stroke:#000000;stroke-width:2;stroke-linecap:butt;stroke-linejoin:round"
       id="path19"
       d="m 273.45645,109.96049 h 46.2677 v 196.56694 h -46.2677 z" />
    <path
       style="fill:#ffffff;fill-rule:nonzero"
       id="path21"
       d="m 282.73444,40.553925 v 0 c 0,-8.375591 6.96603,-15.165352 15.55905,-15.165352 v 0 c 4.12653,0 8.08402,1.597773 11.00192,4.441828 2.91788,2.844057 4.55713,6.701422 4.55713,10.723524 v 0 c 0,8.375595 -6.966,15.165356 -15.55905,15.165356 v 0 c -8.59302,0 -15.55905,-6.789761 -15.55905,-15.165356 z" />
    <path
       style="fill-rule:nonzero;stroke:#000000;stroke-width:2;stroke-linecap:butt;stroke-linejoin:round"
       id="path23"
       d="m 282.73444,40.553925 v 0 c 0,-8.375591 6.96603,-15.165352 15.55905,-15.165352 v 0 c 4.12653,0 8.08402,1.597773 11.00192,4.441828 2.91788,2.844057 4.55713,6.701422 4.55713,10.723524 v 0 c 0,8.375595 -6.966,15.165356 -15.55905,15.165356 v 0 c -8.59302,0 -15.55905,-6.789761 -15.55905,-15.165356 z" />
    <path
       style="fill:#ffffff;fill-rule:nonzero"
       id="path25"
       d="m 31.55643,188.84772 v 0 c 0,-54.95016 43.953648,-99.49606 98.17323,-99.49606 v 0 c 26.03716,0 51.00789,10.48259 69.41894,29.14172 18.41106,18.65914 28.75428,43.96634 28.75428,70.35434 v 0 c 0,54.95017 -43.95365,99.49606 -98.17322,99.49606 v 0 c -54.219583,0 -98.173233,-44.5459 -98.173233,-99.49606 z" />
    <path
       style="fill-rule:nonzero;stroke:#000000;stroke-width:2;stroke-linecap:butt;stroke-linejoin:round"
       id="path27"
       d="m 31.55643,188.84772 v 0 c 0,-54.95016 43.953648,-99.49606 98.17323,-99.49606 v 0 c 26.03716,0 51.00789,10.48259 69.41894,29.14172 18.41106,18.65914 28.75428,43.96634 28.75428,70.35434 v 0 c 0,54.95017 -43.95365,99.49606 -98.17322,99.49606 v 0 c -54.219583,0 -98.173233,-44.5459 -98.173233,-99.49606 z" />
    <path
       style="fill:#000000;fill-opacity:0;fill-rule:nonzero"
       id="path29"
       d="m 45.42257,153.48425 h 202.51968 v 70.67717 H 45.42257 Z" />
    <path
       style="fill:#000000;fill-opacity:0;fill-rule:nonzero"
       id="path31"
       d="M 40.969852,95.99732 H 218.89111 v 185.7008 H 40.969852 Z" />
    <path
       style="fill-rule:nonzero;stroke:#000000;stroke-width:1;stroke-linecap:butt;stroke-linejoin:round"
       id="path33"
       d="M 40.969852,95.99732 H 218.89111 v 185.7008 H 40.969852 Z" />
    <path
       style="fill:#000000;fill-opacity:0;fill-rule:nonzero"
       id="path35"
       d="M 17.708662,72.89501 41.173229,95.950132" />
    <path
       style="fill-rule:nonzero;stroke:#000000;stroke-width:1;stroke-linecap:butt;stroke-linejoin:round"
       id="path37"
       d="M 17.708662,72.89501 41.173229,95.950132" />
    <path
       style="fill:#000000;fill-opacity:0;fill-rule:nonzero"
       id="path39"
       d="m 219.0971,281.69553 23.08662,24.28348" />
    <path
       style="fill-rule:nonzero;stroke:#000000;stroke-width:1;stroke-linecap:butt;stroke-linejoin:round"
       id="path41"
       d="m 219.0971,281.69553 23.08662,24.28348" />
    <path
       style="fill:#000000;fill-opacity:0;fill-rule:nonzero"
       id="path43"
       d="M 242.15749,72.89501 219.51181,95.950132" />
    <path
       style="fill-rule:nonzero;stroke:#000000;stroke-width:1;stroke-linecap:butt;stroke-linejoin:round"
       id="path45"
       d="M 242.15749,72.89501 219.51181,95.950132" />
    <path
       style="fill:#000000;fill-opacity:0;fill-rule:nonzero"
       id="path47"
       d="M 40.76378,281.70078 18.11811,304.75592" />
    <path
       style="fill-rule:nonzero;stroke:#000000;stroke-width:1;stroke-linecap:butt;stroke-linejoin:round"
       id="path49"
       d="M 40.76378,281.70078 18.11811,304.75592" />
    <path
       style="fill:#000000;fill-opacity:0;fill-rule:nonzero"
       id="path51"
       d="M 55.18635,58.892387 H 81.139105 V 71.17585 H 55.18635 Z" />
    <path
       style="fill-rule:nonzero;stroke:#000000;stroke-width:2;stroke-linecap:butt;stroke-linejoin:round"
       id="path53"
       d="M 55.18635,58.892387 H 81.139105 V 71.17585 H 55.18635 Z" />
    <path
       style="fill:#000000;fill-opacity:0;fill-rule:nonzero"
       id="path55"
       d="m 180.33595,58.892387 h 25.95276 V 71.17585 h -25.95276 z" />
    <path
       style="fill-rule:nonzero;stroke:#000000;stroke-width:2;stroke-linecap:butt;stroke-linejoin:round"
       id="path57"
       d="m 180.33595,58.892387 h 25.95276 V 71.17585 h -25.95276 z" />
    <path
       style="fill:#000000;fill-opacity:0;fill-rule:nonzero"
       id="path59"
       d="m 84.14173,63.422573 h 92.25196 v 7.748028 H 84.14173 Z" />
    <path
       style="fill-rule:nonzero;stroke:#000000;stroke-width:2;stroke-linecap:butt;stroke-linejoin:round"
       id="path61"
       d="m 84.14173,63.422573 h 92.25196 v 7.748028 H 84.14173 Z" />
  </g>
  <g
     id="text67"
     style="font-size:42px;font-family:'DejaVu Sans', sans-serif;text-anchor:middle;fill:#000000"
     aria-label="[ SZÖVEG ]">
    <path
       id="path77"
       style=""
       d="m 17.017578,171.08984 h 8.695313 v 2.93262 h -4.921875 v 31.58203 h 4.921875 v 2.93262 h -8.695313 z" />
    <path
       id="path79"
       style=""
       d="m 65.662109,173.38672 v 4.04004 q -2.358398,-1.12793 -4.450195,-1.68164 -2.091797,-0.55371 -4.040039,-0.55371 -3.383789,0 -5.229492,1.3125 -1.825195,1.3125 -1.825195,3.73242 0,2.03027 1.20996,3.07617 1.230469,1.02539 4.634766,1.66113 l 2.501953,0.5127 q 4.634766,0.88183 6.829102,3.11719 2.214844,2.21484 2.214844,5.94726 0,4.4502 -2.994141,6.74707 -2.973633,2.29688 -8.736328,2.29688 -2.173828,0 -4.634766,-0.49219 -2.44043,-0.49219 -5.06543,-1.45606 v -4.26562 q 2.522461,1.41504 4.942383,2.13281 2.419922,0.71778 4.757813,0.71778 3.547851,0 5.475586,-1.39454 1.927734,-1.39453 1.927734,-3.97851 0,-2.25586 -1.394531,-3.52735 -1.374024,-1.27148 -4.532227,-1.90722 l -2.522461,-0.49219 q -4.634765,-0.92285 -6.706054,-2.8916 -2.071289,-1.96875 -2.071289,-5.47559 0,-4.06054 2.850586,-6.39843 2.871093,-2.33789 7.895507,-2.33789 2.153321,0 4.388672,0.38964 2.235352,0.38965 4.573242,1.16895 z" />
    <path
       id="path81"
       style=""
       d="m 72.204102,172.38184 h 24.055664 v 3.1582 L 76.900391,199.51367 H 96.731445 V 203 H 71.732422 v -3.1582 L 91.091797,175.86816 H 72.204102 Z" />
    <path
       id="path83"
       style=""
       d="m 115.18848,175.19141 q -4.51172,0 -7.17774,3.36328 -2.64551,3.36328 -2.64551,9.16699 0,5.7832 2.64551,9.14648 2.66602,3.36329 7.17774,3.36329 4.51172,0 7.13672,-3.36329 2.6455,-3.36328 2.6455,-9.14648 0,-5.80371 -2.6455,-9.16699 -2.625,-3.36328 -7.13672,-3.36328 z m 0,-3.36328 q 6.43945,0 10.29492,4.32714 3.85547,4.30664 3.85547,11.56641 0,7.23926 -3.85547,11.56641 -3.85547,4.30664 -10.29492,4.30664 -6.45996,0 -10.33594,-4.30664 -3.85547,-4.30664 -3.85547,-11.56641 0,-7.25977 3.85547,-11.56641 3.87598,-4.32714 10.33594,-4.32714 z m 1.92773,-7.17774 h 4.16309 v 4.16309 h -4.16309 z m -8.01855,0 h 4.16308 v 4.16309 h -4.16308 z" />
    <path
       id="path85"
       style=""
       d="m 142.97656,203 -11.68945,-30.61816 h 4.32715 l 9.70019,25.77832 9.72071,-25.77832 h 4.30664 L 147.67285,203 Z" />
    <path
       id="path87"
       style=""
       d="m 163.79199,172.38184 h 19.35938 v 3.48632 h -15.2168 v 9.06446 h 14.58106 v 3.48633 h -14.58106 v 11.09472 h 15.58594 V 203 h -19.72852 z" />
    <path
       id="path89"
       style=""
       d="m 211.24707,198.63184 v -8.22364 h -6.76758 v -3.40429 h 10.86914 v 13.1455 q -2.39941,1.70215 -5.29101,2.58399 -2.8916,0.86133 -6.17285,0.86133 -7.17774,0 -11.23829,-4.1836 -4.04003,-4.2041 -4.04003,-11.68945 0,-7.50586 4.04003,-11.68945 4.06055,-4.2041 11.23829,-4.2041 2.99414,0 5.68066,0.73828 2.70703,0.73828 4.9834,2.17382 v 4.40918 q -2.29688,-1.94824 -4.88086,-2.93261 -2.58399,-0.98438 -5.43457,-0.98438 -5.61914,0 -8.44922,3.1377 -2.80957,3.13769 -2.80957,9.35156 0,6.19336 2.80957,9.33105 2.83008,3.1377 8.44922,3.1377 2.19433,0 3.91699,-0.36914 1.72266,-0.38965 3.09668,-1.18945 z" />
    <path
       id="path91"
       style=""
       d="m 244.96191,171.08984 v 37.44727 h -8.69531 v -2.93262 h 4.90137 v -31.58203 h -4.90137 v -2.93262 z" />
  </g>
</svg>
