<?xml version="1.0" encoding="UTF-8" standalone="no"?>
<svg
   xmlns:dc="http://purl.org/dc/elements/1.1/"
   xmlns:cc="http://creativecommons.org/ns#"
   xmlns:rdf="http://www.w3.org/1999/02/22-rdf-syntax-ns#"
   xmlns:svg="http://www.w3.org/2000/svg"
   xmlns="http://www.w3.org/2000/svg"
   id="svg69"
   stroke-miterlimit="10"
   stroke-linecap="square"
   stroke="none"
   fill="none"
   viewBox="0.0 0.0 348.0 348.0"
   version="1.1">
  <metadata
     id="metadata75">
    <rdf:RDF>
      <cc:Work
         rdf:about="">
        <dc:format>image/svg+xml</dc:format>
        <dc:type
           rdf:resource="http://purl.org/dc/dcmitype/StillImage" />
      </cc:Work>
    </rdf:RDF>
  </metadata>
  <defs
     id="defs73" />
  <clipPath
     id="p.0">
    <path
       id="path2"
       clip-rule="nonzero"
       d="m0 0l348.0 0l0 348.0l-348.0 0l0 -348.0z" />
  </clipPath>
  <g
     id="g63"
     clip-path="url(#p.0)">
    <path
       style="fill:#000000;fill-opacity:0;fill-rule:nonzero"
       id="path5"
       d="M 0,0 H 348 V 348 H 0 Z" />
    <path
       style="fill:#ffffff;fill-rule:nonzero"
       id="path7"
       d="M -6,0 H 342 V 347.9685 H -6 Z" />
    <path
       style="fill:#000000;fill-opacity:0;fill-rule:nonzero"
       id="path9"
       d="m 5.07874,5.7758217 h 336.9134 V 343.44512 H 5.07874 Z" />
    <path
       style="fill-rule:nonzero;stroke:#000000;stroke-width:2;stroke-linecap:butt;stroke-linejoin:round"
       id="path11"
       d="m 5.07874,5.7758217 h 336.9134 V 343.44512 H 5.07874 Z" />
    <path
       style="fill:#ffffff;fill-rule:nonzero"
       id="path13"
       d="M 17.036913,71.17821 H 242.42274 V 306.51679 H 17.036913 Z" />
    <path
       style="fill-rule:nonzero;stroke:#000000;stroke-width:2;stroke-linecap:butt;stroke-linejoin:round"
       id="path15"
       d="M 17.036913,71.17821 H 242.42274 V 306.51679 H 17.036913 Z" />
    <path
       style="fill:#000000;fill-rule:nonzero"
       id="path17"
       d="m 273.45645,109.96049 h 46.2677 v 196.56694 h -46.2677 z" />
    <path
       style="fill-rule:nonzero;stroke:#000000;stroke-width:2;stroke-linecap:butt;stroke-linejoin:round"
       id="path19"
       d="m 273.45645,109.96049 h 46.2677 v 196.56694 h -46.2677 z" />
    <path
       style="fill:#ffffff;fill-rule:nonzero"
       id="path21"
       d="m 282.73444,40.553925 v 0 c 0,-8.375591 6.96603,-15.165352 15.55905,-15.165352 v 0 c 4.12653,0 8.08402,1.597773 11.00192,4.441828 2.91788,2.844057 4.55713,6.701422 4.55713,10.723524 v 0 c 0,8.375595 -6.966,15.165356 -15.55905,15.165356 v 0 c -8.59302,0 -15.55905,-6.789761 -15.55905,-15.165356 z" />
    <path
       style="fill-rule:nonzero;stroke:#000000;stroke-width:2;stroke-linecap:butt;stroke-linejoin:round"
       id="path23"
       d="m 282.73444,40.553925 v 0 c 0,-8.375591 6.96603,-15.165352 15.55905,-15.165352 v 0 c 4.12653,0 8.08402,1.597773 11.00192,4.441828 2.91788,2.844057 4.55713,6.701422 4.55713,10.723524 v 0 c 0,8.375595 -6.966,15.165356 -15.55905,15.165356 v 0 c -8.59302,0 -15.55905,-6.789761 -15.55905,-15.165356 z" />
    <path
       style="fill:#ffffff;fill-rule:nonzero"
       id="path25"
       d="m 31.55643,188.84772 v 0 c 0,-54.95016 43.953648,-99.49606 98.17323,-99.49606 v 0 c 26.03716,0 51.00789,10.48259 69.41894,29.14172 18.41106,18.65914 28.75428,43.96634 28.75428,70.35434 v 0 c 0,54.95017 -43.95365,99.49606 -98.17322,99.49606 v 0 c -54.219583,0 -98.173233,-44.5459 -98.173233,-99.49606 z" />
    <path
       style="fill-rule:nonzero;stroke:#000000;stroke-width:2;stroke-linecap:butt;stroke-linejoin:round"
       id="path27"
       d="m 31.55643,188.84772 v 0 c 0,-54.95016 43.953648,-99.49606 98.17323,-99.49606 v 0 c 26.03716,0 51.00789,10.48259 69.41894,29.14172 18.41106,18.65914 28.75428,43.96634 28.75428,70.35434 v 0 c 0,54.95017 -43.95365,99.49606 -98.17322,99.49606 v 0 c -54.219583,0 -98.173233,-44.5459 -98.173233,-99.49606 z" />
    <path
       style="fill:#000000;fill-opacity:0;fill-rule:nonzero"
       id="path29"
       d="m 45.42257,153.48425 h 202.51968 v 70.67717 H 45.42257 Z" />
    <path
       style="fill:#000000;fill-opacity:0;fill-rule:nonzero"
       id="path31"
       d="M 40.969852,95.99732 H 218.89111 v 185.7008 H 40.969852 Z" />
    <path
       style="fill-rule:nonzero;stroke:#000000;stroke-width:1;stroke-linecap:butt;stroke-linejoin:round"
       id="path33"
       d="M 40.969852,95.99732 H 218.89111 v 185.7008 H 40.969852 Z" />
    <path
       style="fill:#000000;fill-opacity:0;fill-rule:nonzero"
       id="path35"
       d="M 17.708662,72.89501 41.173229,95.950132" />
    <path
       style="fill-rule:nonzero;stroke:#000000;stroke-width:1;stroke-linecap:butt;stroke-linejoin:round"
       id="path37"
       d="M 17.708662,72.89501 41.173229,95.950132" />
    <path
       style="fill:#000000;fill-opacity:0;fill-rule:nonzero"
       id="path39"
       d="m 219.0971,281.69553 23.08662,24.28348" />
    <path
       style="fill-rule:nonzero;stroke:#000000;stroke-width:1;stroke-linecap:butt;stroke-linejoin:round"
       id="path41"
       d="m 219.0971,281.69553 23.08662,24.28348" />
    <path
       style="fill:#000000;fill-opacity:0;fill-rule:nonzero"
       id="path43"
       d="M 242.15749,72.89501 219.51181,95.950132" />
    <path
       style="fill-rule:nonzero;stroke:#000000;stroke-width:1;stroke-linecap:butt;stroke-linejoin:round"
       id="path45"
       d="M 242.15749,72.89501 219.51181,95.950132" />
    <path
       style="fill:#000000;fill-opacity:0;fill-rule:nonzero"
       id="path47"
       d="M 40.76378,281.70078 18.11811,304.75592" />
    <path
       style="fill-rule:nonzero;stroke:#000000;stroke-width:1;stroke-linecap:butt;stroke-linejoin:round"
       id="path49"
       d="M 40.76378,281.70078 18.11811,304.75592" />
    <path
       style="fill:#000000;fill-opacity:0;fill-rule:nonzero"
       id="path51"
       d="M 55.18635,58.892387 H 81.139105 V 71.17585 H 55.18635 Z" />
    <path
       style="fill-rule:nonzero;stroke:#000000;stroke-width:2;stroke-linecap:butt;stroke-linejoin:round"
       id="path53"
       d="M 55.18635,58.892387 H 81.139105 V 71.17585 H 55.18635 Z" />
    <path
       style="fill:#000000;fill-opacity:0;fill-rule:nonzero"
       id="path55"
       d="m 180.33595,58.892387 h 25.95276 V 71.17585 h -25.95276 z" />
    <path
       style="fill-rule:nonzero;stroke:#000000;stroke-width:2;stroke-linecap:butt;stroke-linejoin:round"
       id="path57"
       d="m 180.33595,58.892387 h 25.95276 V 71.17585 h -25.95276 z" />
    <path
       style="fill:#000000;fill-opacity:0;fill-rule:nonzero"
       id="path59"
       d="m 84.14173,63.422573 h 92.25196 v 7.748028 H 84.14173 Z" />
    <path
       style="fill-rule:nonzero;stroke:#000000;stroke-width:2;stroke-linecap:butt;stroke-linejoin:round"
       id="path61"
       d="m 84.14173,63.422573 h 92.25196 v 7.748028 H 84.14173 Z" />
  </g>
  <g
     id="text67"
     style="font-size:37.33333206px;font-family:'DejaVu Sans', sans-serif;text-anchor:middle;fill:#000000"
     aria-label="[ SZÖVEG ]">
    <path
       id="path77"
       style=""
       d="m 29.682295,172.30209 h 7.729167 v 2.60677 h -4.375 v 28.07292 h 4.375 v 2.60677 h -7.729167 z" />
    <path
       id="path79"
       style=""
       d="m 72.921878,174.34376 v 3.59114 q -2.096354,-1.0026 -3.955729,-1.49479 -1.859375,-0.49219 -3.591146,-0.49219 -3.007812,0 -4.648437,1.16667 -1.622396,1.16667 -1.622396,3.31771 0,1.80468 1.075521,2.73437 1.09375,0.91146 4.119791,1.47656 l 2.223959,0.45573 q 4.119791,0.78386 6.070312,2.77084 1.96875,1.96875 1.96875,5.28646 0,3.95572 -2.661458,5.99739 -2.643229,2.04167 -7.765625,2.04167 -1.932292,0 -4.119792,-0.4375 -2.16927,-0.4375 -4.502604,-1.29427 v -3.79167 q 2.242188,1.25781 4.393229,1.89583 2.151042,0.63802 4.229167,0.63802 3.153646,0 4.867187,-1.23958 1.713542,-1.23958 1.713542,-3.53646 0,-2.00521 -1.239584,-3.13541 -1.221354,-1.13021 -4.028645,-1.69532 l -2.242188,-0.4375 q -4.119791,-0.82031 -5.960937,-2.57031 -1.841146,-1.75 -1.841146,-4.86719 0,-3.60937 2.533854,-5.6875 2.552084,-2.07812 7.018229,-2.07812 1.914063,0 3.901042,0.34635 1.986979,0.34636 4.065104,1.03907 z" />
    <path
       id="path81"
       style=""
       d="m 78.73698,173.45053 h 21.38281 v 2.80729 l -17.208331,21.30989 h 17.627601 v 3.09896 H 78.317709 v -2.80729 L 95.526042,176.54949 H 78.73698 Z" />
    <path
       id="path83"
       style=""
       d="m 116.94531,175.94792 q -4.01041,0 -6.38021,2.98959 -2.35156,2.98958 -2.35156,8.14843 0,5.14063 2.35156,8.13021 2.3698,2.98958 6.38021,2.98958 4.01042,0 6.34375,-2.98958 2.35157,-2.98958 2.35157,-8.13021 0,-5.15885 -2.35157,-8.14843 -2.33333,-2.98959 -6.34375,-2.98959 z m 0,-2.98958 q 5.72396,0 9.15104,3.84635 3.42709,3.82813 3.42709,10.28125 0,6.4349 -3.42709,10.28125 -3.42708,3.82813 -9.15104,3.82813 -5.74218,0 -9.1875,-3.82813 -3.42708,-3.82812 -3.42708,-10.28125 0,-6.45312 3.42708,-10.28125 3.44532,-3.84635 9.1875,-3.84635 z m 1.71354,-6.38021 h 3.70053 v 3.70052 h -3.70053 z m -7.1276,0 h 3.70052 v 3.70052 h -3.70052 z" />
    <path
       id="path85"
       style=""
       d="m 141.64583,200.66667 -10.39062,-27.21614 h 3.84635 l 8.6224,22.91406 8.64062,-22.91406 h 3.82813 l -10.3724,27.21614 z" />
    <path
       id="path87"
       style=""
       d="m 160.14843,173.45053 h 17.20833 v 3.09896 h -13.52604 v 8.05729 h 12.96094 v 3.09895 h -12.96094 v 9.86198 h 13.85417 v 3.09896 h -17.53646 z" />
    <path
       id="path89"
       style=""
       d="m 202.33072,196.78386 v -7.3099 h -6.01562 v -3.02604 h 9.66146 v 11.6849 q -2.13282,1.51302 -4.70313,2.29687 -2.57031,0.76563 -5.48698,0.76563 -6.38021,0 -9.98958,-3.71875 -3.59115,-3.73698 -3.59115,-10.39063 0,-6.67187 3.59115,-10.39062 3.60937,-3.73698 9.98958,-3.73698 2.66146,0 5.04948,0.65625 2.40625,0.65625 4.42969,1.93229 v 3.91927 q -2.04167,-1.73177 -4.33854,-2.60677 -2.29688,-0.875 -4.83073,-0.875 -4.99479,0 -7.51042,2.78906 -2.4974,2.78907 -2.4974,8.3125 0,5.50521 2.4974,8.29427 2.51563,2.78907 7.51042,2.78907 1.95052,0 3.48177,-0.32813 1.53125,-0.34635 2.7526,-1.05729 z" />
    <path
       id="path91"
       style=""
       d="m 232.29948,172.30209 v 33.28646 h -7.72916 v -2.60677 h 4.35677 v -28.07292 h -4.35677 v -2.60677 z" />
  </g>
</svg>
