<?xml version="1.0" encoding="UTF-8" standalone="no"?>
<svg
   xmlns:dc="http://purl.org/dc/elements/1.1/"
   xmlns:cc="http://creativecommons.org/ns#"
   xmlns:rdf="http://www.w3.org/1999/02/22-rdf-syntax-ns#"
   xmlns:svg="http://www.w3.org/2000/svg"
   xmlns="http://www.w3.org/2000/svg"
   id="svg89"
   stroke-miterlimit="10"
   stroke-linecap="square"
   stroke="none"
   fill="none"
   viewBox="0.0 0.0 348.0 348.0"
   version="1.1">
  <metadata
     id="metadata95">
    <rdf:RDF>
      <cc:Work
         rdf:about="">
        <dc:format>image/svg+xml</dc:format>
        <dc:type
           rdf:resource="http://purl.org/dc/dcmitype/StillImage" />
      </cc:Work>
    </rdf:RDF>
  </metadata>
  <defs
     id="defs93" />
  <clipPath
     id="p.0">
    <path
       id="path2"
       clip-rule="nonzero"
       d="m0 0l348.0 0l0 348.0l-348.0 0l0 -348.0z" />
  </clipPath>
  <g
     id="g59"
     clip-path="url(#p.0)">
    <path
       style="fill:#000000;fill-opacity:0;fill-rule:nonzero"
       id="path5"
       d="M 0,0 H 348 V 348 H 0 Z" />
    <path
       style="fill:#ffffff;fill-rule:nonzero"
       id="path7"
       d="M -6,0 H 342 V 347.9685 H -6 Z" />
    <path
       style="fill:#000000;fill-opacity:0;fill-rule:nonzero"
       id="path9"
       d="m 5.07874,5.7758217 h 336.9134 V 343.44512 H 5.07874 Z" />
    <path
       style="fill-rule:nonzero;stroke:#000000;stroke-width:2;stroke-linecap:butt;stroke-linejoin:round"
       id="path11"
       d="m 5.07874,5.7758217 h 336.9134 V 343.44512 H 5.07874 Z" />
    <path
       style="fill:#ffffff;fill-rule:nonzero"
       id="path13"
       d="m 282.73444,40.553925 v 0 c 0,-8.375591 6.96603,-15.165352 15.55905,-15.165352 v 0 c 4.12653,0 8.08402,1.597773 11.00192,4.441828 2.91788,2.844057 4.55713,6.701422 4.55713,10.723524 v 0 c 0,8.375595 -6.966,15.165356 -15.55905,15.165356 v 0 c -8.59302,0 -15.55905,-6.789761 -15.55905,-15.165356 z" />
    <path
       style="fill-rule:nonzero;stroke:#000000;stroke-width:2;stroke-linecap:butt;stroke-linejoin:round"
       id="path15"
       d="m 282.73444,40.553925 v 0 c 0,-8.375591 6.96603,-15.165352 15.55905,-15.165352 v 0 c 4.12653,0 8.08402,1.597773 11.00192,4.441828 2.91788,2.844057 4.55713,6.701422 4.55713,10.723524 v 0 c 0,8.375595 -6.966,15.165356 -15.55905,15.165356 v 0 c -8.59302,0 -15.55905,-6.789761 -15.55905,-15.165356 z" />
    <path
       style="fill:#000000;fill-rule:nonzero"
       id="path17"
       d="M 34.771652,25.389738 H 267.18112 v 67.55905 H 34.771652 Z" />
    <path
       style="fill-rule:nonzero;stroke:#000000;stroke-width:2;stroke-linecap:butt;stroke-linejoin:round"
       id="path19"
       d="M 34.771652,25.389738 H 267.18112 v 67.55905 H 34.771652 Z" />
    <path
       style="fill-rule:nonzero;stroke:#000000;stroke-width:1;stroke-linecap:butt;stroke-linejoin:round"
       id="path21"
       d="M 34.771652,202.31795 H 141.41733 v 44.81891 H 34.771652 Z" />
    <path
       style="fill:#000000;fill-opacity:0;fill-rule:nonzero"
       id="path23"
       d="M 34.771652,125.22639 H 141.41733 v 44.8189 H 34.771652 Z" />
    <path
       style="fill-rule:nonzero;stroke:#000000;stroke-width:1;stroke-linecap:butt;stroke-linejoin:round"
       id="path25"
       d="M 34.771652,125.22639 H 141.41733 v 44.8189 H 34.771652 Z" />
    <path
       style="fill:#000000;fill-opacity:0;fill-rule:nonzero"
       id="path27"
       d="M 34.771652,270.60397 H 141.41733 v 44.81891 H 34.771652 Z" />
    <path
       style="fill-rule:nonzero;stroke:#000000;stroke-width:1;stroke-linecap:butt;stroke-linejoin:round"
       id="path29"
       d="M 34.771652,270.60397 H 141.41733 v 44.81891 H 34.771652 Z" />
    <path
       style="fill:#000000;fill-opacity:0;fill-rule:nonzero"
       id="path31"
       d="m 157.40683,202.31795 h 106.64566 v 44.81891 H 157.40683 Z" />
    <path
       style="fill-rule:nonzero;stroke:#000000;stroke-width:1;stroke-linecap:butt;stroke-linejoin:round"
       id="path33"
       d="m 157.40683,202.31795 h 106.64566 v 44.81891 H 157.40683 Z" />
    <path
       style="fill:#000000;fill-opacity:0;fill-rule:nonzero"
       id="path35"
       d="m 157.40683,125.22639 h 106.64566 v 44.8189 H 157.40683 Z" />
    <path
       style="fill-rule:nonzero;stroke:#000000;stroke-width:1;stroke-linecap:butt;stroke-linejoin:round"
       id="path37"
       d="m 157.40683,125.22639 h 106.64566 v 44.8189 H 157.40683 Z" />
    <path
       style="fill:#000000;fill-opacity:0;fill-rule:nonzero"
       id="path39"
       d="m 157.40683,270.60397 h 106.64566 v 44.81891 H 157.40683 Z" />
    <path
       style="fill-rule:nonzero;stroke:#000000;stroke-width:1;stroke-linecap:butt;stroke-linejoin:round"
       id="path41"
       d="m 157.40683,270.60397 h 106.64566 v 44.81891 H 157.40683 Z" />
    <path
       style="fill:#000000;fill-rule:nonzero"
       id="path43"
       d="m 277.46194,106.3832 h 52.66141 v 209.03937 h -52.66141 z" />
    <path
       style="fill-rule:nonzero;stroke:#000000;stroke-width:2;stroke-linecap:butt;stroke-linejoin:round"
       id="path45"
       d="m 277.46194,106.3832 h 52.66141 v 209.03937 h -52.66141 z" />
    <path
       style="fill:#ffffff;fill-rule:nonzero"
       id="path47"
       d="m 290.06036,245.11285 h 27.46457 v 16.47244 h -27.46457 z" />
    <path
       style="fill-rule:nonzero;stroke:#000000;stroke-width:2;stroke-linecap:butt;stroke-linejoin:round"
       id="path49"
       d="m 290.06036,245.11285 h 27.46457 v 16.47244 h -27.46457 z" />
    <path
       style="fill:#ffffff;fill-rule:nonzero"
       id="path51"
       d="m 290.06036,208.9029 h 27.46457 v 16.47243 h -27.46457 z" />
    <path
       style="fill-rule:nonzero;stroke:#000000;stroke-width:2;stroke-linecap:butt;stroke-linejoin:round"
       id="path53"
       d="m 290.06036,208.9029 h 27.46457 v 16.47243 h -27.46457 z" />
    <path
       style="fill:#ffffff;fill-rule:nonzero"
       id="path55"
       d="m 290.06036,281.32285 h 27.46457 v 16.47244 h -27.46457 z" />
    <path
       style="fill-rule:nonzero;stroke:#000000;stroke-width:2;stroke-linecap:butt;stroke-linejoin:round"
       id="path57"
       d="m 290.06036,281.32285 h 27.46457 v 16.47244 h -27.46457 z" />
  </g>
  <g
     id="text63"
     style="font-size:32px;font-family:'DejaVu Sans', sans-serif;text-anchor:middle;fill:#ffffff"
     aria-label="[ KIJELZŐ ]">
    <path
       id="path97"
       style=""
       d="m 67.53125,45.6875 h 6.625 v 2.234375 h -3.75 v 24.0625 h 3.75 v 2.234375 h -6.625 z" />
    <path
       id="path99"
       style=""
       d="m 90.609375,46.671875 h 3.15625 v 9.859375 l 10.468745,-9.859375 h 4.0625 L 96.71875,57.546875 109.125,70 h -4.15625 L 93.765625,58.765625 V 70 h -3.15625 z" />
    <path
       id="path101"
       style=""
       d="m 111.60937,46.671875 h 3.15625 V 70 h -3.15625 z" />
    <path
       id="path103"
       style=""
       d="m 121.04687,46.671875 h 3.15625 V 68.375 q 0,4.21875 -1.60937,6.125 Q 121,76.40625 117.45312,76.40625 H 116.25 V 73.75 h 0.98437 q 2.09375,0 2.95313,-1.171875 0.85937,-1.171875 0.85937,-4.203125 z" />
    <path
       id="path105"
       style=""
       d="m 130.48438,46.671875 h 14.75 v 2.65625 h -11.59375 v 6.90625 H 144.75 v 2.65625 h -11.10937 v 8.453125 h 11.875 V 70 h -15.03125 z" />
    <path
       id="path107"
       style=""
       d="m 150.73438,46.671875 h 3.15625 V 67.34375 H 165.25 V 70 h -14.51562 z" />
    <path
       id="path109"
       style=""
       d="m 167.20313,46.671875 h 18.32812 v 2.40625 l -14.75,18.265625 h 15.10938 V 70 h -19.04688 v -2.40625 l 14.75,-18.265625 h -14.39062 z" />
    <path
       id="path111"
       style=""
       d="m 203.84375,40.328125 h 2.89063 l -3.5625,4.125 h -2.39063 z m -5.23437,0 H 201.5 l -3.5625,4.125 h -2.39062 z m 1.34375,8.484375 q -3.4375,0 -5.46875,2.5625 -2.01563,2.5625 -2.01563,6.984375 0,4.40625 2.01563,6.96875 2.03125,2.5625 5.46875,2.5625 3.4375,0 5.4375,-2.5625 2.01562,-2.5625 2.01562,-6.96875 0,-4.421875 -2.01562,-6.984375 -2,-2.5625 -5.4375,-2.5625 z m 0,-2.5625 q 4.90625,0 7.84375,3.296875 2.9375,3.28125 2.9375,8.8125 0,5.515625 -2.9375,8.8125 -2.9375,3.28125 -7.84375,3.28125 -4.92188,0 -7.875,-3.28125 -2.9375,-3.28125 -2.9375,-8.8125 0,-5.53125 2.9375,-8.8125 2.95312,-3.296875 7.875,-3.296875 z" />
    <path
       id="path113"
       style=""
       d="m 232.45313,45.6875 v 28.53125 h -6.625 v -2.234375 h 3.73437 v -24.0625 h -3.73437 V 45.6875 Z" />
  </g>
  <g
     id="text67"
     style="font-size:20px;font-family:'DejaVu Sans', sans-serif;text-anchor:middle;fill:#000000"
     aria-label="[ SZÖVEG ]">
    <path
       id="path116"
       style=""
       d="m 32.722656,138.80469 h 4.140625 v 1.39648 h -2.34375 v 15.03906 h 2.34375 v 1.39649 h -4.140625 z" />
    <path
       id="path118"
       style=""
       d="m 55.886719,139.89844 v 1.92383 q -1.123047,-0.53711 -2.119141,-0.80079 -0.996094,-0.26367 -1.923828,-0.26367 -1.611328,0 -2.490234,0.625 -0.869141,0.625 -0.869141,1.77735 0,0.96679 0.576172,1.46484 0.585937,0.48828 2.207031,0.79102 l 1.191406,0.24414 q 2.207032,0.41992 3.251954,1.48437 1.054687,1.05469 1.054687,2.83203 0,2.11914 -1.425781,3.21289 -1.416016,1.09375 -4.160156,1.09375 -1.035157,0 -2.207032,-0.23437 -1.162109,-0.23438 -2.412109,-0.69336 v -2.03125 q 1.201172,0.67383 2.353516,1.01562 1.152343,0.3418 2.265625,0.3418 1.689453,0 2.607421,-0.66406 0.917969,-0.66406 0.917969,-1.89453 0,-1.07422 -0.664062,-1.67969 -0.654297,-0.60547 -2.158203,-0.9082 l -1.201172,-0.23438 q -2.207032,-0.43945 -3.19336,-1.37695 -0.986328,-0.9375 -0.986328,-2.60742 0,-1.9336 1.357422,-3.04688 1.367188,-1.11328 3.759766,-1.11328 1.02539,0 2.089843,0.18555 1.064454,0.18554 2.177735,0.55664 z" />
    <path
       id="path120"
       style=""
       d="m 59.001953,139.41992 h 11.455078 v 1.50391 l -9.21875,11.41601 h 9.44336 V 154 H 58.777344 v -1.50391 l 9.21875,-11.41601 h -8.994141 z" />
    <path
       id="path122"
       style=""
       d="m 79.470703,140.75781 q -2.148437,0 -3.417969,1.60157 -1.259765,1.60156 -1.259765,4.36523 0,2.75391 1.259765,4.35547 1.269532,1.60156 3.417969,1.60156 2.148438,0 3.398438,-1.60156 1.259765,-1.60156 1.259765,-4.35547 0,-2.76367 -1.259765,-4.36523 -1.25,-1.60157 -3.398438,-1.60157 z m 0,-1.60156 q 3.066406,0 4.902344,2.06055 1.835937,2.05078 1.835937,5.50781 0,3.44727 -1.835937,5.50781 -1.835938,2.05078 -4.902344,2.05078 -3.076172,0 -4.921875,-2.05078 -1.835937,-2.05078 -1.835937,-5.50781 0,-3.45703 1.835937,-5.50781 1.845703,-2.06055 4.921875,-2.06055 z m 0.917969,-3.41797 h 1.982422 v 1.98242 h -1.982422 z m -3.818359,0 h 1.982421 v 1.98242 h -1.982421 z" />
    <path
       id="path124"
       style=""
       d="m 92.703125,154 -5.566406,-14.58008 h 2.060547 l 4.61914,12.27539 4.628907,-12.27539 h 2.050777 L 94.939453,154 Z" />
    <path
       id="path126"
       style=""
       d="m 102.61523,139.41992 h 9.21875 v 1.66016 h -7.24609 v 4.3164 h 6.94336 v 1.66016 h -6.94336 v 5.2832 h 7.42188 V 154 h -9.39454 z" />
    <path
       id="path128"
       style=""
       d="m 125.21289,151.91992 v -3.91601 h -3.22266 v -1.6211 h 5.17579 v 6.25977 q -1.14258,0.81055 -2.51954,1.23047 -1.37695,0.41015 -2.93945,0.41015 -3.41797,0 -5.35156,-1.99218 -1.92383,-2.00196 -1.92383,-5.56641 0,-3.57422 1.92383,-5.56641 1.93359,-2.00195 5.35156,-2.00195 1.42578,0 2.70508,0.35156 1.28906,0.35157 2.37305,1.03516 v 2.09961 q -1.09375,-0.92774 -2.32422,-1.39649 -1.23047,-0.46875 -2.58789,-0.46875 -2.67578,0 -4.02344,1.49414 -1.33789,1.49415 -1.33789,4.45313 0,2.94922 1.33789,4.44336 1.34766,1.49414 4.02344,1.49414 1.04492,0 1.86523,-0.17578 0.82031,-0.18555 1.47461,-0.56641 z" />
    <path
       id="path130"
       style=""
       d="m 141.26758,138.80469 v 17.83203 h -4.14063 v -1.39649 h 2.33399 v -15.03906 h -2.33399 v -1.39648 z" />
  </g>
  <g
     id="text71"
     style="font-size:20px;font-family:'DejaVu Sans', sans-serif;text-anchor:middle;fill:#000000"
     aria-label="[ SZÖVEG ]">
    <path
       id="path133"
       style=""
       d="m 32.722656,215.80469 h 4.140625 v 1.39648 h -2.34375 v 15.03906 h 2.34375 v 1.39649 h -4.140625 z" />
    <path
       id="path135"
       style=""
       d="m 55.886719,216.89844 v 1.92383 q -1.123047,-0.53711 -2.119141,-0.80079 -0.996094,-0.26367 -1.923828,-0.26367 -1.611328,0 -2.490234,0.625 -0.869141,0.625 -0.869141,1.77735 0,0.96679 0.576172,1.46484 0.585937,0.48828 2.207031,0.79102 l 1.191406,0.24414 q 2.207032,0.41992 3.251954,1.48437 1.054687,1.05469 1.054687,2.83203 0,2.11914 -1.425781,3.21289 -1.416016,1.09375 -4.160156,1.09375 -1.035157,0 -2.207032,-0.23437 -1.162109,-0.23438 -2.412109,-0.69336 v -2.03125 q 1.201172,0.67383 2.353516,1.01562 1.152343,0.3418 2.265625,0.3418 1.689453,0 2.607421,-0.66406 0.917969,-0.66406 0.917969,-1.89453 0,-1.07422 -0.664062,-1.67969 -0.654297,-0.60547 -2.158203,-0.9082 l -1.201172,-0.23438 q -2.207032,-0.43945 -3.19336,-1.37695 -0.986328,-0.9375 -0.986328,-2.60742 0,-1.9336 1.357422,-3.04688 1.367188,-1.11328 3.759766,-1.11328 1.02539,0 2.089843,0.18555 1.064454,0.18554 2.177735,0.55664 z" />
    <path
       id="path137"
       style=""
       d="m 59.001953,216.41992 h 11.455078 v 1.50391 l -9.21875,11.41601 h 9.44336 V 231 H 58.777344 v -1.50391 l 9.21875,-11.41601 h -8.994141 z" />
    <path
       id="path139"
       style=""
       d="m 79.470703,217.75781 q -2.148437,0 -3.417969,1.60157 -1.259765,1.60156 -1.259765,4.36523 0,2.75391 1.259765,4.35547 1.269532,1.60156 3.417969,1.60156 2.148438,0 3.398438,-1.60156 1.259765,-1.60156 1.259765,-4.35547 0,-2.76367 -1.259765,-4.36523 -1.25,-1.60157 -3.398438,-1.60157 z m 0,-1.60156 q 3.066406,0 4.902344,2.06055 1.835937,2.05078 1.835937,5.50781 0,3.44727 -1.835937,5.50781 -1.835938,2.05078 -4.902344,2.05078 -3.076172,0 -4.921875,-2.05078 -1.835937,-2.05078 -1.835937,-5.50781 0,-3.45703 1.835937,-5.50781 1.845703,-2.06055 4.921875,-2.06055 z m 0.917969,-3.41797 h 1.982422 v 1.98242 h -1.982422 z m -3.818359,0 h 1.982421 v 1.98242 h -1.982421 z" />
    <path
       id="path141"
       style=""
       d="m 92.703125,231 -5.566406,-14.58008 h 2.060547 l 4.61914,12.27539 4.628907,-12.27539 h 2.050777 L 94.939453,231 Z" />
    <path
       id="path143"
       style=""
       d="m 102.61523,216.41992 h 9.21875 v 1.66016 h -7.24609 v 4.3164 h 6.94336 v 1.66016 h -6.94336 v 5.2832 h 7.42188 V 231 h -9.39454 z" />
    <path
       id="path145"
       style=""
       d="m 125.21289,228.91992 v -3.91601 h -3.22266 v -1.6211 h 5.17579 v 6.25977 q -1.14258,0.81055 -2.51954,1.23047 -1.37695,0.41015 -2.93945,0.41015 -3.41797,0 -5.35156,-1.99218 -1.92383,-2.00196 -1.92383,-5.56641 0,-3.57422 1.92383,-5.56641 1.93359,-2.00195 5.35156,-2.00195 1.42578,0 2.70508,0.35156 1.28906,0.35157 2.37305,1.03516 v 2.09961 q -1.09375,-0.92774 -2.32422,-1.39649 -1.23047,-0.46875 -2.58789,-0.46875 -2.67578,0 -4.02344,1.49414 -1.33789,1.49415 -1.33789,4.45313 0,2.94922 1.33789,4.44336 1.34766,1.49414 4.02344,1.49414 1.04492,0 1.86523,-0.17578 0.82031,-0.18555 1.47461,-0.56641 z" />
    <path
       id="path147"
       style=""
       d="m 141.26758,215.80469 v 17.83203 h -4.14063 v -1.39649 h 2.33399 v -15.03906 h -2.33399 v -1.39648 z" />
  </g>
  <g
     id="text75"
     style="font-size:20px;font-family:'DejaVu Sans', sans-serif;text-anchor:middle;fill:#000000"
     aria-label="[ SZÖVEG ]">
    <path
       id="path150"
       style=""
       d="m 32.722656,283.80469 h 4.140625 v 1.39648 h -2.34375 v 15.03906 h 2.34375 v 1.39649 h -4.140625 z" />
    <path
       id="path152"
       style=""
       d="m 55.886719,284.89844 v 1.92383 q -1.123047,-0.53711 -2.119141,-0.80079 -0.996094,-0.26367 -1.923828,-0.26367 -1.611328,0 -2.490234,0.625 -0.869141,0.625 -0.869141,1.77735 0,0.96679 0.576172,1.46484 0.585937,0.48828 2.207031,0.79102 l 1.191406,0.24414 q 2.207032,0.41992 3.251954,1.48437 1.054687,1.05469 1.054687,2.83203 0,2.11914 -1.425781,3.21289 -1.416016,1.09375 -4.160156,1.09375 -1.035157,0 -2.207032,-0.23437 -1.162109,-0.23438 -2.412109,-0.69336 v -2.03125 q 1.201172,0.67383 2.353516,1.01562 1.152343,0.3418 2.265625,0.3418 1.689453,0 2.607421,-0.66406 0.917969,-0.66406 0.917969,-1.89453 0,-1.07422 -0.664062,-1.67969 -0.654297,-0.60547 -2.158203,-0.9082 l -1.201172,-0.23438 q -2.207032,-0.43945 -3.19336,-1.37695 -0.986328,-0.9375 -0.986328,-2.60742 0,-1.9336 1.357422,-3.04688 1.367188,-1.11328 3.759766,-1.11328 1.02539,0 2.089843,0.18555 1.064454,0.18554 2.177735,0.55664 z" />
    <path
       id="path154"
       style=""
       d="m 59.001953,284.41992 h 11.455078 v 1.50391 l -9.21875,11.41601 h 9.44336 V 299 H 58.777344 v -1.50391 l 9.21875,-11.41601 h -8.994141 z" />
    <path
       id="path156"
       style=""
       d="m 79.470703,285.75781 q -2.148437,0 -3.417969,1.60157 -1.259765,1.60156 -1.259765,4.36523 0,2.75391 1.259765,4.35547 1.269532,1.60156 3.417969,1.60156 2.148438,0 3.398438,-1.60156 1.259765,-1.60156 1.259765,-4.35547 0,-2.76367 -1.259765,-4.36523 -1.25,-1.60157 -3.398438,-1.60157 z m 0,-1.60156 q 3.066406,0 4.902344,2.06055 1.835937,2.05078 1.835937,5.50781 0,3.44727 -1.835937,5.50781 -1.835938,2.05078 -4.902344,2.05078 -3.076172,0 -4.921875,-2.05078 -1.835937,-2.05078 -1.835937,-5.50781 0,-3.45703 1.835937,-5.50781 1.845703,-2.06055 4.921875,-2.06055 z m 0.917969,-3.41797 h 1.982422 v 1.98242 h -1.982422 z m -3.818359,0 h 1.982421 v 1.98242 h -1.982421 z" />
    <path
       id="path158"
       style=""
       d="m 92.703125,299 -5.566406,-14.58008 h 2.060547 l 4.61914,12.27539 4.628907,-12.27539 h 2.050777 L 94.939453,299 Z" />
    <path
       id="path160"
       style=""
       d="m 102.61523,284.41992 h 9.21875 v 1.66016 h -7.24609 v 4.3164 h 6.94336 v 1.66016 h -6.94336 v 5.2832 h 7.42188 V 299 h -9.39454 z" />
    <path
       id="path162"
       style=""
       d="m 125.21289,296.91992 v -3.91601 h -3.22266 v -1.6211 h 5.17579 v 6.25977 q -1.14258,0.81055 -2.51954,1.23047 -1.37695,0.41015 -2.93945,0.41015 -3.41797,0 -5.35156,-1.99218 -1.92383,-2.00196 -1.92383,-5.56641 0,-3.57422 1.92383,-5.56641 1.93359,-2.00195 5.35156,-2.00195 1.42578,0 2.70508,0.35156 1.28906,0.35157 2.37305,1.03516 v 2.09961 q -1.09375,-0.92774 -2.32422,-1.39649 -1.23047,-0.46875 -2.58789,-0.46875 -2.67578,0 -4.02344,1.49414 -1.33789,1.49415 -1.33789,4.45313 0,2.94922 1.33789,4.44336 1.34766,1.49414 4.02344,1.49414 1.04492,0 1.86523,-0.17578 0.82031,-0.18555 1.47461,-0.56641 z" />
    <path
       id="path164"
       style=""
       d="m 141.26758,283.80469 v 17.83203 h -4.14063 v -1.39649 h 2.33399 v -15.03906 h -2.33399 v -1.39648 z" />
  </g>
  <g
     id="text79"
     style="font-size:20px;font-family:'DejaVu Sans', sans-serif;text-anchor:middle;fill:#000000"
     aria-label="[ SZÖVEG ]">
    <path
       id="path167"
       style=""
       d="m 155.72266,138.80469 h 4.14062 v 1.39648 h -2.34375 v 15.03906 h 2.34375 v 1.39649 h -4.14062 z" />
    <path
       id="path169"
       style=""
       d="m 178.88672,139.89844 v 1.92383 q -1.12305,-0.53711 -2.11914,-0.80079 -0.9961,-0.26367 -1.92383,-0.26367 -1.61133,0 -2.49023,0.625 -0.86914,0.625 -0.86914,1.77735 0,0.96679 0.57617,1.46484 0.58593,0.48828 2.20703,0.79102 l 1.1914,0.24414 q 2.20704,0.41992 3.25196,1.48437 1.05469,1.05469 1.05469,2.83203 0,2.11914 -1.42579,3.21289 -1.41601,1.09375 -4.16015,1.09375 -1.03516,0 -2.20703,-0.23437 -1.16211,-0.23438 -2.41211,-0.69336 v -2.03125 q 1.20117,0.67383 2.35351,1.01562 1.15235,0.3418 2.26563,0.3418 1.68945,0 2.60742,-0.66406 0.91797,-0.66406 0.91797,-1.89453 0,-1.07422 -0.66406,-1.67969 -0.6543,-0.60547 -2.15821,-0.9082 l -1.20117,-0.23438 q -2.20703,-0.43945 -3.19336,-1.37695 -0.98633,-0.9375 -0.98633,-2.60742 0,-1.9336 1.35743,-3.04688 1.36718,-1.11328 3.75976,-1.11328 1.02539,0 2.08984,0.18555 1.06446,0.18554 2.17774,0.55664 z" />
    <path
       id="path171"
       style=""
       d="m 182.00195,139.41992 h 11.45508 v 1.50391 l -9.21875,11.41601 h 9.44336 V 154 h -11.9043 v -1.50391 l 9.21875,-11.41601 h -8.99414 z" />
    <path
       id="path173"
       style=""
       d="m 202.4707,140.75781 q -2.14843,0 -3.41797,1.60157 -1.25976,1.60156 -1.25976,4.36523 0,2.75391 1.25976,4.35547 1.26954,1.60156 3.41797,1.60156 2.14844,0 3.39844,-1.60156 1.25977,-1.60156 1.25977,-4.35547 0,-2.76367 -1.25977,-4.36523 -1.25,-1.60157 -3.39844,-1.60157 z m 0,-1.60156 q 3.06641,0 4.90235,2.06055 1.83593,2.05078 1.83593,5.50781 0,3.44727 -1.83593,5.50781 -1.83594,2.05078 -4.90235,2.05078 -3.07617,0 -4.92187,-2.05078 -1.83594,-2.05078 -1.83594,-5.50781 0,-3.45703 1.83594,-5.50781 1.8457,-2.06055 4.92187,-2.06055 z m 0.91797,-3.41797 h 1.98242 v 1.98242 h -1.98242 z m -3.81836,0 h 1.98242 v 1.98242 h -1.98242 z" />
    <path
       id="path175"
       style=""
       d="m 215.70313,154 -5.56641,-14.58008 h 2.06055 l 4.61914,12.27539 4.6289,-12.27539 h 2.05078 L 217.93945,154 Z" />
    <path
       id="path177"
       style=""
       d="m 225.61523,139.41992 h 9.21875 v 1.66016 h -7.24609 v 4.3164 h 6.94336 v 1.66016 h -6.94336 v 5.2832 h 7.42188 V 154 h -9.39454 z" />
    <path
       id="path179"
       style=""
       d="m 248.21289,151.91992 v -3.91601 h -3.22266 v -1.6211 h 5.17579 v 6.25977 q -1.14258,0.81055 -2.51954,1.23047 -1.37695,0.41015 -2.93945,0.41015 -3.41797,0 -5.35156,-1.99218 -1.92383,-2.00196 -1.92383,-5.56641 0,-3.57422 1.92383,-5.56641 1.93359,-2.00195 5.35156,-2.00195 1.42578,0 2.70508,0.35156 1.28906,0.35157 2.37305,1.03516 v 2.09961 q -1.09375,-0.92774 -2.32422,-1.39649 -1.23047,-0.46875 -2.58789,-0.46875 -2.67578,0 -4.02344,1.49414 -1.33789,1.49415 -1.33789,4.45313 0,2.94922 1.33789,4.44336 1.34766,1.49414 4.02344,1.49414 1.04492,0 1.86523,-0.17578 0.82031,-0.18555 1.47461,-0.56641 z" />
    <path
       id="path181"
       style=""
       d="m 264.26758,138.80469 v 17.83203 h -4.14063 v -1.39649 h 2.33399 v -15.03906 h -2.33399 v -1.39648 z" />
  </g>
  <g
     id="text83"
     style="font-size:20px;font-family:'DejaVu Sans', sans-serif;text-anchor:middle;fill:#000000"
     aria-label="[ SZÖVEG ]">
    <path
       id="path184"
       style=""
       d="m 155.72266,215.80469 h 4.14062 v 1.39648 h -2.34375 v 15.03906 h 2.34375 v 1.39649 h -4.14062 z" />
    <path
       id="path186"
       style=""
       d="m 178.88672,216.89844 v 1.92383 q -1.12305,-0.53711 -2.11914,-0.80079 -0.9961,-0.26367 -1.92383,-0.26367 -1.61133,0 -2.49023,0.625 -0.86914,0.625 -0.86914,1.77735 0,0.96679 0.57617,1.46484 0.58593,0.48828 2.20703,0.79102 l 1.1914,0.24414 q 2.20704,0.41992 3.25196,1.48437 1.05469,1.05469 1.05469,2.83203 0,2.11914 -1.42579,3.21289 -1.41601,1.09375 -4.16015,1.09375 -1.03516,0 -2.20703,-0.23437 -1.16211,-0.23438 -2.41211,-0.69336 v -2.03125 q 1.20117,0.67383 2.35351,1.01562 1.15235,0.3418 2.26563,0.3418 1.68945,0 2.60742,-0.66406 0.91797,-0.66406 0.91797,-1.89453 0,-1.07422 -0.66406,-1.67969 -0.6543,-0.60547 -2.15821,-0.9082 l -1.20117,-0.23438 q -2.20703,-0.43945 -3.19336,-1.37695 -0.98633,-0.9375 -0.98633,-2.60742 0,-1.9336 1.35743,-3.04688 1.36718,-1.11328 3.75976,-1.11328 1.02539,0 2.08984,0.18555 1.06446,0.18554 2.17774,0.55664 z" />
    <path
       id="path188"
       style=""
       d="m 182.00195,216.41992 h 11.45508 v 1.50391 l -9.21875,11.41601 h 9.44336 V 231 h -11.9043 v -1.50391 l 9.21875,-11.41601 h -8.99414 z" />
    <path
       id="path190"
       style=""
       d="m 202.4707,217.75781 q -2.14843,0 -3.41797,1.60157 -1.25976,1.60156 -1.25976,4.36523 0,2.75391 1.25976,4.35547 1.26954,1.60156 3.41797,1.60156 2.14844,0 3.39844,-1.60156 1.25977,-1.60156 1.25977,-4.35547 0,-2.76367 -1.25977,-4.36523 -1.25,-1.60157 -3.39844,-1.60157 z m 0,-1.60156 q 3.06641,0 4.90235,2.06055 1.83593,2.05078 1.83593,5.50781 0,3.44727 -1.83593,5.50781 -1.83594,2.05078 -4.90235,2.05078 -3.07617,0 -4.92187,-2.05078 -1.83594,-2.05078 -1.83594,-5.50781 0,-3.45703 1.83594,-5.50781 1.8457,-2.06055 4.92187,-2.06055 z m 0.91797,-3.41797 h 1.98242 v 1.98242 h -1.98242 z m -3.81836,0 h 1.98242 v 1.98242 h -1.98242 z" />
    <path
       id="path192"
       style=""
       d="m 215.70313,231 -5.56641,-14.58008 h 2.06055 l 4.61914,12.27539 4.6289,-12.27539 h 2.05078 L 217.93945,231 Z" />
    <path
       id="path194"
       style=""
       d="m 225.61523,216.41992 h 9.21875 v 1.66016 h -7.24609 v 4.3164 h 6.94336 v 1.66016 h -6.94336 v 5.2832 h 7.42188 V 231 h -9.39454 z" />
    <path
       id="path196"
       style=""
       d="m 248.21289,228.91992 v -3.91601 h -3.22266 v -1.6211 h 5.17579 v 6.25977 q -1.14258,0.81055 -2.51954,1.23047 -1.37695,0.41015 -2.93945,0.41015 -3.41797,0 -5.35156,-1.99218 -1.92383,-2.00196 -1.92383,-5.56641 0,-3.57422 1.92383,-5.56641 1.93359,-2.00195 5.35156,-2.00195 1.42578,0 2.70508,0.35156 1.28906,0.35157 2.37305,1.03516 v 2.09961 q -1.09375,-0.92774 -2.32422,-1.39649 -1.23047,-0.46875 -2.58789,-0.46875 -2.67578,0 -4.02344,1.49414 -1.33789,1.49415 -1.33789,4.45313 0,2.94922 1.33789,4.44336 1.34766,1.49414 4.02344,1.49414 1.04492,0 1.86523,-0.17578 0.82031,-0.18555 1.47461,-0.56641 z" />
    <path
       id="path198"
       style=""
       d="m 264.26758,215.80469 v 17.83203 h -4.14063 v -1.39649 h 2.33399 v -15.03906 h -2.33399 v -1.39648 z" />
  </g>
  <g
     id="text87"
     style="font-size:20px;font-family:'DejaVu Sans', sans-serif;text-anchor:middle;fill:#000000"
     aria-label="[ SZÖVEG ]">
    <path
       id="path201"
       style=""
       d="m 155.72266,283.80469 h 4.14062 v 1.39648 h -2.34375 v 15.03906 h 2.34375 v 1.39649 h -4.14062 z" />
    <path
       id="path203"
       style=""
       d="m 178.88672,284.89844 v 1.92383 q -1.12305,-0.53711 -2.11914,-0.80079 -0.9961,-0.26367 -1.92383,-0.26367 -1.61133,0 -2.49023,0.625 -0.86914,0.625 -0.86914,1.77735 0,0.96679 0.57617,1.46484 0.58593,0.48828 2.20703,0.79102 l 1.1914,0.24414 q 2.20704,0.41992 3.25196,1.48437 1.05469,1.05469 1.05469,2.83203 0,2.11914 -1.42579,3.21289 -1.41601,1.09375 -4.16015,1.09375 -1.03516,0 -2.20703,-0.23437 -1.16211,-0.23438 -2.41211,-0.69336 v -2.03125 q 1.20117,0.67383 2.35351,1.01562 1.15235,0.3418 2.26563,0.3418 1.68945,0 2.60742,-0.66406 0.91797,-0.66406 0.91797,-1.89453 0,-1.07422 -0.66406,-1.67969 -0.6543,-0.60547 -2.15821,-0.9082 l -1.20117,-0.23438 q -2.20703,-0.43945 -3.19336,-1.37695 -0.98633,-0.9375 -0.98633,-2.60742 0,-1.9336 1.35743,-3.04688 1.36718,-1.11328 3.75976,-1.11328 1.02539,0 2.08984,0.18555 1.06446,0.18554 2.17774,0.55664 z" />
    <path
       id="path205"
       style=""
       d="m 182.00195,284.41992 h 11.45508 v 1.50391 l -9.21875,11.41601 h 9.44336 V 299 h -11.9043 v -1.50391 l 9.21875,-11.41601 h -8.99414 z" />
    <path
       id="path207"
       style=""
       d="m 202.4707,285.75781 q -2.14843,0 -3.41797,1.60157 -1.25976,1.60156 -1.25976,4.36523 0,2.75391 1.25976,4.35547 1.26954,1.60156 3.41797,1.60156 2.14844,0 3.39844,-1.60156 1.25977,-1.60156 1.25977,-4.35547 0,-2.76367 -1.25977,-4.36523 -1.25,-1.60157 -3.39844,-1.60157 z m 0,-1.60156 q 3.06641,0 4.90235,2.06055 1.83593,2.05078 1.83593,5.50781 0,3.44727 -1.83593,5.50781 -1.83594,2.05078 -4.90235,2.05078 -3.07617,0 -4.92187,-2.05078 -1.83594,-2.05078 -1.83594,-5.50781 0,-3.45703 1.83594,-5.50781 1.8457,-2.06055 4.92187,-2.06055 z m 0.91797,-3.41797 h 1.98242 v 1.98242 h -1.98242 z m -3.81836,0 h 1.98242 v 1.98242 h -1.98242 z" />
    <path
       id="path209"
       style=""
       d="m 215.70313,299 -5.56641,-14.58008 h 2.06055 l 4.61914,12.27539 4.6289,-12.27539 h 2.05078 L 217.93945,299 Z" />
    <path
       id="path211"
       style=""
       d="m 225.61523,284.41992 h 9.21875 v 1.66016 h -7.24609 v 4.3164 h 6.94336 v 1.66016 h -6.94336 v 5.2832 h 7.42188 V 299 h -9.39454 z" />
    <path
       id="path213"
       style=""
       d="m 248.21289,296.91992 v -3.91601 h -3.22266 v -1.6211 h 5.17579 v 6.25977 q -1.14258,0.81055 -2.51954,1.23047 -1.37695,0.41015 -2.93945,0.41015 -3.41797,0 -5.35156,-1.99218 -1.92383,-2.00196 -1.92383,-5.56641 0,-3.57422 1.92383,-5.56641 1.93359,-2.00195 5.35156,-2.00195 1.42578,0 2.70508,0.35156 1.28906,0.35157 2.37305,1.03516 v 2.09961 q -1.09375,-0.92774 -2.32422,-1.39649 -1.23047,-0.46875 -2.58789,-0.46875 -2.67578,0 -4.02344,1.49414 -1.33789,1.49415 -1.33789,4.45313 0,2.94922 1.33789,4.44336 1.34766,1.49414 4.02344,1.49414 1.04492,0 1.86523,-0.17578 0.82031,-0.18555 1.47461,-0.56641 z" />
    <path
       id="path215"
       style=""
       d="m 264.26758,283.80469 v 17.83203 h -4.14063 v -1.39649 h 2.33399 v -15.03906 h -2.33399 v -1.39648 z" />
  </g>
</svg>
