<?xml version="1.0" encoding="UTF-8" standalone="no"?>
<svg
   xmlns:dc="http://purl.org/dc/elements/1.1/"
   xmlns:cc="http://creativecommons.org/ns#"
   xmlns:rdf="http://www.w3.org/1999/02/22-rdf-syntax-ns#"
   xmlns:svg="http://www.w3.org/2000/svg"
   xmlns="http://www.w3.org/2000/svg"
   id="svg89"
   stroke-miterlimit="10"
   stroke-linecap="square"
   stroke="none"
   fill="none"
   viewBox="0.0 0.0 348.0 348.0"
   version="1.1">
  <metadata
     id="metadata95">
    <rdf:RDF>
      <cc:Work
         rdf:about="">
        <dc:format>image/svg+xml</dc:format>
        <dc:type
           rdf:resource="http://purl.org/dc/dcmitype/StillImage" />
      </cc:Work>
    </rdf:RDF>
  </metadata>
  <defs
     id="defs93" />
  <clipPath
     id="p.0">
    <path
       id="path2"
       clip-rule="nonzero"
       d="m0 0l348.0 0l0 348.0l-348.0 0l0 -348.0z" />
  </clipPath>
  <g
     id="g59"
     clip-path="url(#p.0)">
    <path
       style="fill:#000000;fill-opacity:0;fill-rule:nonzero"
       id="path5"
       d="M 0,0 H 348 V 348 H 0 Z" />
    <path
       style="fill:#ffffff;fill-rule:nonzero"
       id="path7"
       d="M -6,0 H 342 V 347.9685 H -6 Z" />
    <path
       style="fill:#000000;fill-opacity:0;fill-rule:nonzero"
       id="path9"
       d="m 5.07874,5.7758217 h 336.9134 V 343.44512 H 5.07874 Z" />
    <path
       style="fill-rule:nonzero;stroke:#000000;stroke-width:2;stroke-linecap:butt;stroke-linejoin:round"
       id="path11"
       d="m 5.07874,5.7758217 h 336.9134 V 343.44512 H 5.07874 Z" />
    <path
       style="fill:#ffffff;fill-rule:nonzero"
       id="path13"
       d="m 282.73444,40.553925 v 0 c 0,-8.375591 6.96603,-15.165352 15.55905,-15.165352 v 0 c 4.12653,0 8.08402,1.597773 11.00192,4.441828 2.91788,2.844057 4.55713,6.701422 4.55713,10.723524 v 0 c 0,8.375595 -6.966,15.165356 -15.55905,15.165356 v 0 c -8.59302,0 -15.55905,-6.789761 -15.55905,-15.165356 z" />
    <path
       style="fill-rule:nonzero;stroke:#000000;stroke-width:2;stroke-linecap:butt;stroke-linejoin:round"
       id="path15"
       d="m 282.73444,40.553925 v 0 c 0,-8.375591 6.96603,-15.165352 15.55905,-15.165352 v 0 c 4.12653,0 8.08402,1.597773 11.00192,4.441828 2.91788,2.844057 4.55713,6.701422 4.55713,10.723524 v 0 c 0,8.375595 -6.966,15.165356 -15.55905,15.165356 v 0 c -8.59302,0 -15.55905,-6.789761 -15.55905,-15.165356 z" />
    <path
       style="fill:#000000;fill-rule:nonzero"
       id="path17"
       d="M 34.771652,25.389738 H 267.18112 v 67.55905 H 34.771652 Z" />
    <path
       style="fill-rule:nonzero;stroke:#000000;stroke-width:2;stroke-linecap:butt;stroke-linejoin:round"
       id="path19"
       d="M 34.771652,25.389738 H 267.18112 v 67.55905 H 34.771652 Z" />
    <path
       style="fill-rule:nonzero;stroke:#000000;stroke-width:1;stroke-linecap:butt;stroke-linejoin:round"
       id="path21"
       d="M 34.771652,202.31795 H 141.41733 v 44.81891 H 34.771652 Z" />
    <path
       style="fill:#000000;fill-opacity:0;fill-rule:nonzero"
       id="path23"
       d="M 34.771652,125.22639 H 141.41733 v 44.8189 H 34.771652 Z" />
    <path
       style="fill-rule:nonzero;stroke:#000000;stroke-width:1;stroke-linecap:butt;stroke-linejoin:round"
       id="path25"
       d="M 34.771652,125.22639 H 141.41733 v 44.8189 H 34.771652 Z" />
    <path
       style="fill:#000000;fill-opacity:0;fill-rule:nonzero"
       id="path27"
       d="M 34.771652,270.60397 H 141.41733 v 44.81891 H 34.771652 Z" />
    <path
       style="fill-rule:nonzero;stroke:#000000;stroke-width:1;stroke-linecap:butt;stroke-linejoin:round"
       id="path29"
       d="M 34.771652,270.60397 H 141.41733 v 44.81891 H 34.771652 Z" />
    <path
       style="fill:#000000;fill-opacity:0;fill-rule:nonzero"
       id="path31"
       d="m 157.40683,202.31795 h 106.64566 v 44.81891 H 157.40683 Z" />
    <path
       style="fill-rule:nonzero;stroke:#000000;stroke-width:1;stroke-linecap:butt;stroke-linejoin:round"
       id="path33"
       d="m 157.40683,202.31795 h 106.64566 v 44.81891 H 157.40683 Z" />
    <path
       style="fill:#000000;fill-opacity:0;fill-rule:nonzero"
       id="path35"
       d="m 157.40683,125.22639 h 106.64566 v 44.8189 H 157.40683 Z" />
    <path
       style="fill-rule:nonzero;stroke:#000000;stroke-width:1;stroke-linecap:butt;stroke-linejoin:round"
       id="path37"
       d="m 157.40683,125.22639 h 106.64566 v 44.8189 H 157.40683 Z" />
    <path
       style="fill:#000000;fill-opacity:0;fill-rule:nonzero"
       id="path39"
       d="m 157.40683,270.60397 h 106.64566 v 44.81891 H 157.40683 Z" />
    <path
       style="fill-rule:nonzero;stroke:#000000;stroke-width:1;stroke-linecap:butt;stroke-linejoin:round"
       id="path41"
       d="m 157.40683,270.60397 h 106.64566 v 44.81891 H 157.40683 Z" />
    <path
       style="fill:#000000;fill-rule:nonzero"
       id="path43"
       d="m 277.46194,106.3832 h 52.66141 v 209.03937 h -52.66141 z" />
    <path
       style="fill-rule:nonzero;stroke:#000000;stroke-width:2;stroke-linecap:butt;stroke-linejoin:round"
       id="path45"
       d="m 277.46194,106.3832 h 52.66141 v 209.03937 h -52.66141 z" />
    <path
       style="fill:#ffffff;fill-rule:nonzero"
       id="path47"
       d="m 290.06036,245.11285 h 27.46457 v 16.47244 h -27.46457 z" />
    <path
       style="fill-rule:nonzero;stroke:#000000;stroke-width:2;stroke-linecap:butt;stroke-linejoin:round"
       id="path49"
       d="m 290.06036,245.11285 h 27.46457 v 16.47244 h -27.46457 z" />
    <path
       style="fill:#ffffff;fill-rule:nonzero"
       id="path51"
       d="m 290.06036,208.9029 h 27.46457 v 16.47243 h -27.46457 z" />
    <path
       style="fill-rule:nonzero;stroke:#000000;stroke-width:2;stroke-linecap:butt;stroke-linejoin:round"
       id="path53"
       d="m 290.06036,208.9029 h 27.46457 v 16.47243 h -27.46457 z" />
    <path
       style="fill:#ffffff;fill-rule:nonzero"
       id="path55"
       d="m 290.06036,281.32285 h 27.46457 v 16.47244 h -27.46457 z" />
    <path
       style="fill-rule:nonzero;stroke:#000000;stroke-width:2;stroke-linecap:butt;stroke-linejoin:round"
       id="path57"
       d="m 290.06036,281.32285 h 27.46457 v 16.47244 h -27.46457 z" />
  </g>
  <g
     id="text63"
     style="font-size:32px;font-family:'DejaVu Sans', sans-serif;text-anchor:middle;fill:#ffffff"
     aria-label="[ KIJELZŐ ]">
    <path
       id="path97"
       style=""
       d="m 67.53125,45.6875 h 6.625 v 2.234375 h -3.75 v 24.0625 h 3.75 v 2.234375 h -6.625 z" />
    <path
       id="path99"
       style=""
       d="m 90.609375,46.671875 h 3.15625 v 9.859375 l 10.468745,-9.859375 h 4.0625 L 96.71875,57.546875 109.125,70 h -4.15625 L 93.765625,58.765625 V 70 h -3.15625 z" />
    <path
       id="path101"
       style=""
       d="m 111.60937,46.671875 h 3.15625 V 70 h -3.15625 z" />
    <path
       id="path103"
       style=""
       d="m 121.04687,46.671875 h 3.15625 V 68.375 q 0,4.21875 -1.60937,6.125 Q 121,76.40625 117.45312,76.40625 H 116.25 V 73.75 h 0.98437 q 2.09375,0 2.95313,-1.171875 0.85937,-1.171875 0.85937,-4.203125 z" />
    <path
       id="path105"
       style=""
       d="m 130.48438,46.671875 h 14.75 v 2.65625 h -11.59375 v 6.90625 H 144.75 v 2.65625 h -11.10937 v 8.453125 h 11.875 V 70 h -15.03125 z" />
    <path
       id="path107"
       style=""
       d="m 150.73438,46.671875 h 3.15625 V 67.34375 H 165.25 V 70 h -14.51562 z" />
    <path
       id="path109"
       style=""
       d="m 167.20313,46.671875 h 18.32812 v 2.40625 l -14.75,18.265625 h 15.10938 V 70 h -19.04688 v -2.40625 l 14.75,-18.265625 h -14.39062 z" />
    <path
       id="path111"
       style=""
       d="m 203.84375,40.328125 h 2.89063 l -3.5625,4.125 h -2.39063 z m -5.23437,0 H 201.5 l -3.5625,4.125 h -2.39062 z m 1.34375,8.484375 q -3.4375,0 -5.46875,2.5625 -2.01563,2.5625 -2.01563,6.984375 0,4.40625 2.01563,6.96875 2.03125,2.5625 5.46875,2.5625 3.4375,0 5.4375,-2.5625 2.01562,-2.5625 2.01562,-6.96875 0,-4.421875 -2.01562,-6.984375 -2,-2.5625 -5.4375,-2.5625 z m 0,-2.5625 q 4.90625,0 7.84375,3.296875 2.9375,3.28125 2.9375,8.8125 0,5.515625 -2.9375,8.8125 -2.9375,3.28125 -7.84375,3.28125 -4.92188,0 -7.875,-3.28125 -2.9375,-3.28125 -2.9375,-8.8125 0,-5.53125 2.9375,-8.8125 2.95312,-3.296875 7.875,-3.296875 z" />
    <path
       id="path113"
       style=""
       d="m 232.45313,45.6875 v 28.53125 h -6.625 v -2.234375 h 3.73437 v -24.0625 h -3.73437 V 45.6875 Z" />
  </g>
  <g
     id="text67"
     style="font-size:17.77777863px;font-family:'DejaVu Sans', sans-serif;text-anchor:middle;fill:#000000"
     aria-label="[ SZÖVEG ]">
    <path
       id="path116"
       style=""
       d="m 38.75347,139.38194 h 3.680556 v 1.24132 h -2.083334 v 13.36806 h 2.083334 v 1.24132 H 38.75347 Z" />
    <path
       id="path118"
       style=""
       d="m 59.343748,140.35416 v 1.71007 q -0.998264,-0.47743 -1.88368,-0.7118 -0.885417,-0.23438 -1.71007,-0.23438 -1.432292,0 -2.213542,0.55556 -0.772569,0.55555 -0.772569,1.57986 0,0.85937 0.512153,1.30208 0.520833,0.43403 1.961805,0.70313 l 1.059028,0.21701 q 1.961806,0.37326 2.890625,1.31945 0.9375,0.9375 0.9375,2.51736 0,1.88368 -1.267361,2.8559 -1.25868,0.97222 -3.697917,0.97222 -0.920139,0 -1.961805,-0.20833 -1.032986,-0.20834 -2.144098,-0.61632 v -1.80556 q 1.067709,0.59896 2.092014,0.90278 1.024306,0.30382 2.013889,0.30382 1.501737,0 2.317709,-0.59028 0.815972,-0.59028 0.815972,-1.68403 0,-0.95486 -0.590278,-1.49305 -0.581597,-0.5382 -1.918403,-0.80729 l -1.067708,-0.20834 q -1.961806,-0.39062 -2.838542,-1.22395 -0.876736,-0.83334 -0.876736,-2.31771 0,-1.71875 1.206597,-2.70834 1.215278,-0.98958 3.342014,-0.98958 0.911459,0 1.857639,0.16493 0.946181,0.16493 1.935764,0.49479 z" />
    <path
       id="path120"
       style=""
       d="m 62.112845,139.92882 h 10.182292 v 1.3368 l -8.194444,10.14757 h 8.394097 v 1.4757 H 61.913193 v -1.33681 l 8.194444,-10.14757 h -7.994792 z" />
    <path
       id="path122"
       style=""
       d="m 80.30729,141.11805 q -1.909722,0 -3.038195,1.42361 -1.119791,1.42361 -1.119791,3.88021 0,2.44792 1.119791,3.87153 1.128473,1.42361 3.038195,1.42361 1.909722,0 3.020834,-1.42361 1.119791,-1.42361 1.119791,-3.87153 0,-2.4566 -1.119791,-3.88021 -1.111112,-1.42361 -3.020834,-1.42361 z m 0,-1.42361 q 2.725695,0 4.357639,1.8316 1.631945,1.82291 1.631945,4.89583 0,3.06424 -1.631945,4.89583 -1.631944,1.82292 -4.357639,1.82292 -2.734375,0 -4.375,-1.82292 -1.631945,-1.82291 -1.631945,-4.89583 0,-3.07292 1.631945,-4.89583 1.640625,-1.8316 4.375,-1.8316 z m 0.815972,-3.03819 h 1.762153 v 1.76215 h -1.762153 z m -3.394097,0 h 1.762153 v 1.76215 h -1.762153 z" />
    <path
       id="path124"
       style=""
       d="m 92.069444,152.88889 -4.947916,-12.96007 h 1.831597 l 4.105903,10.91145 4.114583,-10.91145 h 1.822917 l -4.939236,12.96007 z" />
    <path
       id="path126"
       style=""
       d="m 100.88021,139.92882 h 8.19444 v 1.47569 h -6.44097 v 3.83681 h 6.17188 v 1.47569 h -6.17188 v 4.69618 h 6.59722 v 1.4757 h -8.35069 z" />
    <path
       id="path128"
       style=""
       d="m 120.96702,151.03993 v -3.48091 h -2.86458 v -1.44097 h 4.60069 v 5.56424 q -1.01563,0.72048 -2.23958,1.09375 -1.22396,0.36458 -2.61285,0.36458 -3.0382,0 -4.75695,-1.77083 -1.71006,-1.77952 -1.71006,-4.94792 0,-3.17708 1.71006,-4.94792 1.71875,-1.77951 4.75695,-1.77951 1.26736,0 2.40451,0.3125 1.14584,0.3125 2.10938,0.92014 v 1.86632 q -0.97222,-0.82465 -2.06597,-1.24132 -1.09375,-0.41667 -2.30035,-0.41667 -2.37847,0 -3.57639,1.32813 -1.18924,1.32812 -1.18924,3.95833 0,2.62153 1.18924,3.94965 1.19792,1.32813 3.57639,1.32813 0.92882,0 1.65798,-0.15625 0.72917,-0.16493 1.31077,-0.50347 z" />
    <path
       id="path130"
       style=""
       d="m 135.23785,139.38194 v 15.8507 h -3.68056 v -1.24132 h 2.07466 v -13.36806 h -2.07466 v -1.24132 z" />
  </g>
  <g
     id="text71"
     style="font-size:17.77777863px;font-family:'DejaVu Sans', sans-serif;text-anchor:middle;fill:#000000"
     aria-label="[ SZÖVEG ]">
    <path
       id="path133"
       style=""
       d="m 38.75347,216.38194 h 3.680556 v 1.24132 h -2.083334 v 13.36806 h 2.083334 v 1.24132 H 38.75347 Z" />
    <path
       id="path135"
       style=""
       d="m 59.343748,217.35416 v 1.71007 q -0.998264,-0.47743 -1.88368,-0.7118 -0.885417,-0.23438 -1.71007,-0.23438 -1.432292,0 -2.213542,0.55556 -0.772569,0.55555 -0.772569,1.57986 0,0.85937 0.512153,1.30208 0.520833,0.43403 1.961805,0.70313 l 1.059028,0.21701 q 1.961806,0.37326 2.890625,1.31945 0.9375,0.9375 0.9375,2.51736 0,1.88368 -1.267361,2.8559 -1.25868,0.97222 -3.697917,0.97222 -0.920139,0 -1.961805,-0.20833 -1.032986,-0.20834 -2.144098,-0.61632 v -1.80556 q 1.067709,0.59896 2.092014,0.90278 1.024306,0.30382 2.013889,0.30382 1.501737,0 2.317709,-0.59028 0.815972,-0.59028 0.815972,-1.68403 0,-0.95486 -0.590278,-1.49305 -0.581597,-0.5382 -1.918403,-0.80729 l -1.067708,-0.20834 q -1.961806,-0.39062 -2.838542,-1.22395 -0.876736,-0.83334 -0.876736,-2.31771 0,-1.71875 1.206597,-2.70834 1.215278,-0.98958 3.342014,-0.98958 0.911459,0 1.857639,0.16493 0.946181,0.16493 1.935764,0.49479 z" />
    <path
       id="path137"
       style=""
       d="m 62.112845,216.92882 h 10.182292 v 1.3368 l -8.194444,10.14757 h 8.394097 v 1.4757 H 61.913193 v -1.33681 l 8.194444,-10.14757 h -7.994792 z" />
    <path
       id="path139"
       style=""
       d="m 80.30729,218.11805 q -1.909722,0 -3.038195,1.42361 -1.119791,1.42361 -1.119791,3.88021 0,2.44792 1.119791,3.87153 1.128473,1.42361 3.038195,1.42361 1.909722,0 3.020834,-1.42361 1.119791,-1.42361 1.119791,-3.87153 0,-2.4566 -1.119791,-3.88021 -1.111112,-1.42361 -3.020834,-1.42361 z m 0,-1.42361 q 2.725695,0 4.357639,1.8316 1.631945,1.82291 1.631945,4.89583 0,3.06424 -1.631945,4.89583 -1.631944,1.82292 -4.357639,1.82292 -2.734375,0 -4.375,-1.82292 -1.631945,-1.82291 -1.631945,-4.89583 0,-3.07292 1.631945,-4.89583 1.640625,-1.8316 4.375,-1.8316 z m 0.815972,-3.03819 h 1.762153 v 1.76215 h -1.762153 z m -3.394097,0 h 1.762153 v 1.76215 h -1.762153 z" />
    <path
       id="path141"
       style=""
       d="m 92.069444,229.88889 -4.947916,-12.96007 h 1.831597 l 4.105903,10.91145 4.114583,-10.91145 h 1.822917 l -4.939236,12.96007 z" />
    <path
       id="path143"
       style=""
       d="m 100.88021,216.92882 h 8.19444 v 1.47569 h -6.44097 v 3.83681 h 6.17188 v 1.47569 h -6.17188 v 4.69618 h 6.59722 v 1.4757 h -8.35069 z" />
    <path
       id="path145"
       style=""
       d="m 120.96702,228.03993 v -3.48091 h -2.86458 v -1.44097 h 4.60069 v 5.56424 q -1.01563,0.72048 -2.23958,1.09375 -1.22396,0.36458 -2.61285,0.36458 -3.0382,0 -4.75695,-1.77083 -1.71006,-1.77952 -1.71006,-4.94792 0,-3.17708 1.71006,-4.94792 1.71875,-1.77951 4.75695,-1.77951 1.26736,0 2.40451,0.3125 1.14584,0.3125 2.10938,0.92014 v 1.86632 q -0.97222,-0.82465 -2.06597,-1.24132 -1.09375,-0.41667 -2.30035,-0.41667 -2.37847,0 -3.57639,1.32813 -1.18924,1.32812 -1.18924,3.95833 0,2.62153 1.18924,3.94965 1.19792,1.32813 3.57639,1.32813 0.92882,0 1.65798,-0.15625 0.72917,-0.16493 1.31077,-0.50347 z" />
    <path
       id="path147"
       style=""
       d="m 135.23785,216.38194 v 15.8507 h -3.68056 v -1.24132 h 2.07466 v -13.36806 h -2.07466 v -1.24132 z" />
  </g>
  <g
     id="text75"
     style="font-size:17.77777863px;font-family:'DejaVu Sans', sans-serif;text-anchor:middle;fill:#000000"
     aria-label="[ SZÖVEG ]">
    <path
       id="path150"
       style=""
       d="m 38.75347,284.38194 h 3.680556 v 1.24132 h -2.083334 v 13.36806 h 2.083334 v 1.24132 H 38.75347 Z" />
    <path
       id="path152"
       style=""
       d="m 59.343748,285.35416 v 1.71007 q -0.998264,-0.47743 -1.88368,-0.7118 -0.885417,-0.23438 -1.71007,-0.23438 -1.432292,0 -2.213542,0.55556 -0.772569,0.55555 -0.772569,1.57986 0,0.85937 0.512153,1.30208 0.520833,0.43403 1.961805,0.70313 l 1.059028,0.21701 q 1.961806,0.37326 2.890625,1.31945 0.9375,0.9375 0.9375,2.51736 0,1.88368 -1.267361,2.8559 -1.25868,0.97222 -3.697917,0.97222 -0.920139,0 -1.961805,-0.20833 -1.032986,-0.20834 -2.144098,-0.61632 v -1.80556 q 1.067709,0.59896 2.092014,0.90278 1.024306,0.30382 2.013889,0.30382 1.501737,0 2.317709,-0.59028 0.815972,-0.59028 0.815972,-1.68403 0,-0.95486 -0.590278,-1.49305 -0.581597,-0.5382 -1.918403,-0.80729 l -1.067708,-0.20834 q -1.961806,-0.39062 -2.838542,-1.22395 -0.876736,-0.83334 -0.876736,-2.31771 0,-1.71875 1.206597,-2.70834 1.215278,-0.98958 3.342014,-0.98958 0.911459,0 1.857639,0.16493 0.946181,0.16493 1.935764,0.49479 z" />
    <path
       id="path154"
       style=""
       d="m 62.112845,284.92882 h 10.182292 v 1.3368 l -8.194444,10.14757 h 8.394097 v 1.4757 H 61.913193 v -1.33681 l 8.194444,-10.14757 h -7.994792 z" />
    <path
       id="path156"
       style=""
       d="m 80.30729,286.11805 q -1.909722,0 -3.038195,1.42361 -1.119791,1.42361 -1.119791,3.88021 0,2.44792 1.119791,3.87153 1.128473,1.42361 3.038195,1.42361 1.909722,0 3.020834,-1.42361 1.119791,-1.42361 1.119791,-3.87153 0,-2.4566 -1.119791,-3.88021 -1.111112,-1.42361 -3.020834,-1.42361 z m 0,-1.42361 q 2.725695,0 4.357639,1.8316 1.631945,1.82291 1.631945,4.89583 0,3.06424 -1.631945,4.89583 -1.631944,1.82292 -4.357639,1.82292 -2.734375,0 -4.375,-1.82292 -1.631945,-1.82291 -1.631945,-4.89583 0,-3.07292 1.631945,-4.89583 1.640625,-1.8316 4.375,-1.8316 z m 0.815972,-3.03819 h 1.762153 v 1.76215 h -1.762153 z m -3.394097,0 h 1.762153 v 1.76215 h -1.762153 z" />
    <path
       id="path158"
       style=""
       d="m 92.069444,297.88889 -4.947916,-12.96007 h 1.831597 l 4.105903,10.91145 4.114583,-10.91145 h 1.822917 l -4.939236,12.96007 z" />
    <path
       id="path160"
       style=""
       d="m 100.88021,284.92882 h 8.19444 v 1.47569 h -6.44097 v 3.83681 h 6.17188 v 1.47569 h -6.17188 v 4.69618 h 6.59722 v 1.4757 h -8.35069 z" />
    <path
       id="path162"
       style=""
       d="m 120.96702,296.03993 v -3.48091 h -2.86458 v -1.44097 h 4.60069 v 5.56424 q -1.01563,0.72048 -2.23958,1.09375 -1.22396,0.36458 -2.61285,0.36458 -3.0382,0 -4.75695,-1.77083 -1.71006,-1.77952 -1.71006,-4.94792 0,-3.17708 1.71006,-4.94792 1.71875,-1.77951 4.75695,-1.77951 1.26736,0 2.40451,0.3125 1.14584,0.3125 2.10938,0.92014 v 1.86632 q -0.97222,-0.82465 -2.06597,-1.24132 -1.09375,-0.41667 -2.30035,-0.41667 -2.37847,0 -3.57639,1.32813 -1.18924,1.32812 -1.18924,3.95833 0,2.62153 1.18924,3.94965 1.19792,1.32813 3.57639,1.32813 0.92882,0 1.65798,-0.15625 0.72917,-0.16493 1.31077,-0.50347 z" />
    <path
       id="path164"
       style=""
       d="m 135.23785,284.38194 v 15.8507 h -3.68056 v -1.24132 h 2.07466 v -13.36806 h -2.07466 v -1.24132 z" />
  </g>
  <g
     id="text79"
     style="font-size:17.77777863px;font-family:'DejaVu Sans', sans-serif;text-anchor:middle;fill:#000000"
     aria-label="[ SZÖVEG ]">
    <path
       id="path167"
       style=""
       d="m 161.75347,139.38194 h 3.68056 v 1.24132 h -2.08334 v 13.36806 h 2.08334 v 1.24132 h -3.68056 z" />
    <path
       id="path169"
       style=""
       d="m 182.34375,140.35416 v 1.71007 q -0.99827,-0.47743 -1.88368,-0.7118 -0.88542,-0.23438 -1.71007,-0.23438 -1.43229,0 -2.21354,0.55556 -0.77257,0.55555 -0.77257,1.57986 0,0.85937 0.51215,1.30208 0.52083,0.43403 1.96181,0.70313 l 1.05902,0.21701 q 1.96181,0.37326 2.89063,1.31945 0.9375,0.9375 0.9375,2.51736 0,1.88368 -1.26736,2.8559 -1.25868,0.97222 -3.69792,0.97222 -0.92014,0 -1.96181,-0.20833 -1.03298,-0.20834 -2.14409,-0.61632 v -1.80556 q 1.06771,0.59896 2.09201,0.90278 1.02431,0.30382 2.01389,0.30382 1.50174,0 2.31771,-0.59028 0.81597,-0.59028 0.81597,-1.68403 0,-0.95486 -0.59028,-1.49305 -0.58159,-0.5382 -1.9184,-0.80729 l -1.06771,-0.20834 q -1.9618,-0.39062 -2.83854,-1.22395 -0.87674,-0.83334 -0.87674,-2.31771 0,-1.71875 1.2066,-2.70834 1.21528,-0.98958 3.34202,-0.98958 0.91145,0 1.85763,0.16493 0.94619,0.16493 1.93577,0.49479 z" />
    <path
       id="path171"
       style=""
       d="m 185.11285,139.92882 h 10.18229 v 1.3368 l -8.19445,10.14757 h 8.3941 v 1.4757 h -10.5816 v -1.33681 l 8.19445,-10.14757 h -7.99479 z" />
    <path
       id="path173"
       style=""
       d="m 203.30729,141.11805 q -1.90972,0 -3.03819,1.42361 -1.1198,1.42361 -1.1198,3.88021 0,2.44792 1.1198,3.87153 1.12847,1.42361 3.03819,1.42361 1.90972,0 3.02083,-1.42361 1.1198,-1.42361 1.1198,-3.87153 0,-2.4566 -1.1198,-3.88021 -1.11111,-1.42361 -3.02083,-1.42361 z m 0,-1.42361 q 2.72569,0 4.35764,1.8316 1.63194,1.82291 1.63194,4.89583 0,3.06424 -1.63194,4.89583 -1.63195,1.82292 -4.35764,1.82292 -2.73438,0 -4.375,-1.82292 -1.63194,-1.82291 -1.63194,-4.89583 0,-3.07292 1.63194,-4.89583 1.64062,-1.8316 4.375,-1.8316 z m 0.81597,-3.03819 h 1.76216 v 1.76215 h -1.76216 z m -3.3941,0 h 1.76216 v 1.76215 h -1.76216 z" />
    <path
       id="path175"
       style=""
       d="m 215.06944,152.88889 -4.94791,-12.96007 h 1.83159 l 4.10591,10.91145 4.11458,-10.91145 h 1.82292 l -4.93924,12.96007 z" />
    <path
       id="path177"
       style=""
       d="m 223.88021,139.92882 h 8.19444 v 1.47569 h -6.44097 v 3.83681 h 6.17188 v 1.47569 h -6.17188 v 4.69618 h 6.59722 v 1.4757 h -8.35069 z" />
    <path
       id="path179"
       style=""
       d="m 243.96702,151.03993 v -3.48091 h -2.86458 v -1.44097 h 4.60069 v 5.56424 q -1.01563,0.72048 -2.23958,1.09375 -1.22396,0.36458 -2.61285,0.36458 -3.0382,0 -4.75695,-1.77083 -1.71006,-1.77952 -1.71006,-4.94792 0,-3.17708 1.71006,-4.94792 1.71875,-1.77951 4.75695,-1.77951 1.26736,0 2.40451,0.3125 1.14584,0.3125 2.10938,0.92014 v 1.86632 q -0.97222,-0.82465 -2.06597,-1.24132 -1.09375,-0.41667 -2.30035,-0.41667 -2.37847,0 -3.57639,1.32813 -1.18924,1.32812 -1.18924,3.95833 0,2.62153 1.18924,3.94965 1.19792,1.32813 3.57639,1.32813 0.92882,0 1.65798,-0.15625 0.72917,-0.16493 1.31077,-0.50347 z" />
    <path
       id="path181"
       style=""
       d="m 258.23785,139.38194 v 15.8507 h -3.68056 v -1.24132 h 2.07466 v -13.36806 h -2.07466 v -1.24132 z" />
  </g>
  <g
     id="text83"
     style="font-size:17.77777863px;font-family:'DejaVu Sans', sans-serif;text-anchor:middle;fill:#000000"
     aria-label="[ SZÖVEG ]">
    <path
       id="path184"
       style=""
       d="m 161.75347,216.38194 h 3.68056 v 1.24132 h -2.08334 v 13.36806 h 2.08334 v 1.24132 h -3.68056 z" />
    <path
       id="path186"
       style=""
       d="m 182.34375,217.35416 v 1.71007 q -0.99827,-0.47743 -1.88368,-0.7118 -0.88542,-0.23438 -1.71007,-0.23438 -1.43229,0 -2.21354,0.55556 -0.77257,0.55555 -0.77257,1.57986 0,0.85937 0.51215,1.30208 0.52083,0.43403 1.96181,0.70313 l 1.05902,0.21701 q 1.96181,0.37326 2.89063,1.31945 0.9375,0.9375 0.9375,2.51736 0,1.88368 -1.26736,2.8559 -1.25868,0.97222 -3.69792,0.97222 -0.92014,0 -1.96181,-0.20833 -1.03298,-0.20834 -2.14409,-0.61632 v -1.80556 q 1.06771,0.59896 2.09201,0.90278 1.02431,0.30382 2.01389,0.30382 1.50174,0 2.31771,-0.59028 0.81597,-0.59028 0.81597,-1.68403 0,-0.95486 -0.59028,-1.49305 -0.58159,-0.5382 -1.9184,-0.80729 l -1.06771,-0.20834 q -1.9618,-0.39062 -2.83854,-1.22395 -0.87674,-0.83334 -0.87674,-2.31771 0,-1.71875 1.2066,-2.70834 1.21528,-0.98958 3.34202,-0.98958 0.91145,0 1.85763,0.16493 0.94619,0.16493 1.93577,0.49479 z" />
    <path
       id="path188"
       style=""
       d="m 185.11285,216.92882 h 10.18229 v 1.3368 l -8.19445,10.14757 h 8.3941 v 1.4757 h -10.5816 v -1.33681 l 8.19445,-10.14757 h -7.99479 z" />
    <path
       id="path190"
       style=""
       d="m 203.30729,218.11805 q -1.90972,0 -3.03819,1.42361 -1.1198,1.42361 -1.1198,3.88021 0,2.44792 1.1198,3.87153 1.12847,1.42361 3.03819,1.42361 1.90972,0 3.02083,-1.42361 1.1198,-1.42361 1.1198,-3.87153 0,-2.4566 -1.1198,-3.88021 -1.11111,-1.42361 -3.02083,-1.42361 z m 0,-1.42361 q 2.72569,0 4.35764,1.8316 1.63194,1.82291 1.63194,4.89583 0,3.06424 -1.63194,4.89583 -1.63195,1.82292 -4.35764,1.82292 -2.73438,0 -4.375,-1.82292 -1.63194,-1.82291 -1.63194,-4.89583 0,-3.07292 1.63194,-4.89583 1.64062,-1.8316 4.375,-1.8316 z m 0.81597,-3.03819 h 1.76216 v 1.76215 h -1.76216 z m -3.3941,0 h 1.76216 v 1.76215 h -1.76216 z" />
    <path
       id="path192"
       style=""
       d="m 215.06944,229.88889 -4.94791,-12.96007 h 1.83159 l 4.10591,10.91145 4.11458,-10.91145 h 1.82292 l -4.93924,12.96007 z" />
    <path
       id="path194"
       style=""
       d="m 223.88021,216.92882 h 8.19444 v 1.47569 h -6.44097 v 3.83681 h 6.17188 v 1.47569 h -6.17188 v 4.69618 h 6.59722 v 1.4757 h -8.35069 z" />
    <path
       id="path196"
       style=""
       d="m 243.96702,228.03993 v -3.48091 h -2.86458 v -1.44097 h 4.60069 v 5.56424 q -1.01563,0.72048 -2.23958,1.09375 -1.22396,0.36458 -2.61285,0.36458 -3.0382,0 -4.75695,-1.77083 -1.71006,-1.77952 -1.71006,-4.94792 0,-3.17708 1.71006,-4.94792 1.71875,-1.77951 4.75695,-1.77951 1.26736,0 2.40451,0.3125 1.14584,0.3125 2.10938,0.92014 v 1.86632 q -0.97222,-0.82465 -2.06597,-1.24132 -1.09375,-0.41667 -2.30035,-0.41667 -2.37847,0 -3.57639,1.32813 -1.18924,1.32812 -1.18924,3.95833 0,2.62153 1.18924,3.94965 1.19792,1.32813 3.57639,1.32813 0.92882,0 1.65798,-0.15625 0.72917,-0.16493 1.31077,-0.50347 z" />
    <path
       id="path198"
       style=""
       d="m 258.23785,216.38194 v 15.8507 h -3.68056 v -1.24132 h 2.07466 v -13.36806 h -2.07466 v -1.24132 z" />
  </g>
  <g
     id="text87"
     style="font-size:17.77777863px;font-family:'DejaVu Sans', sans-serif;text-anchor:middle;fill:#000000"
     aria-label="[ SZÖVEG ]">
    <path
       id="path201"
       style=""
       d="m 161.75347,284.38194 h 3.68056 v 1.24132 h -2.08334 v 13.36806 h 2.08334 v 1.24132 h -3.68056 z" />
    <path
       id="path203"
       style=""
       d="m 182.34375,285.35416 v 1.71007 q -0.99827,-0.47743 -1.88368,-0.7118 -0.88542,-0.23438 -1.71007,-0.23438 -1.43229,0 -2.21354,0.55556 -0.77257,0.55555 -0.77257,1.57986 0,0.85937 0.51215,1.30208 0.52083,0.43403 1.96181,0.70313 l 1.05902,0.21701 q 1.96181,0.37326 2.89063,1.31945 0.9375,0.9375 0.9375,2.51736 0,1.88368 -1.26736,2.8559 -1.25868,0.97222 -3.69792,0.97222 -0.92014,0 -1.96181,-0.20833 -1.03298,-0.20834 -2.14409,-0.61632 v -1.80556 q 1.06771,0.59896 2.09201,0.90278 1.02431,0.30382 2.01389,0.30382 1.50174,0 2.31771,-0.59028 0.81597,-0.59028 0.81597,-1.68403 0,-0.95486 -0.59028,-1.49305 -0.58159,-0.5382 -1.9184,-0.80729 l -1.06771,-0.20834 q -1.9618,-0.39062 -2.83854,-1.22395 -0.87674,-0.83334 -0.87674,-2.31771 0,-1.71875 1.2066,-2.70834 1.21528,-0.98958 3.34202,-0.98958 0.91145,0 1.85763,0.16493 0.94619,0.16493 1.93577,0.49479 z" />
    <path
       id="path205"
       style=""
       d="m 185.11285,284.92882 h 10.18229 v 1.3368 l -8.19445,10.14757 h 8.3941 v 1.4757 h -10.5816 v -1.33681 l 8.19445,-10.14757 h -7.99479 z" />
    <path
       id="path207"
       style=""
       d="m 203.30729,286.11805 q -1.90972,0 -3.03819,1.42361 -1.1198,1.42361 -1.1198,3.88021 0,2.44792 1.1198,3.87153 1.12847,1.42361 3.03819,1.42361 1.90972,0 3.02083,-1.42361 1.1198,-1.42361 1.1198,-3.87153 0,-2.4566 -1.1198,-3.88021 -1.11111,-1.42361 -3.02083,-1.42361 z m 0,-1.42361 q 2.72569,0 4.35764,1.8316 1.63194,1.82291 1.63194,4.89583 0,3.06424 -1.63194,4.89583 -1.63195,1.82292 -4.35764,1.82292 -2.73438,0 -4.375,-1.82292 -1.63194,-1.82291 -1.63194,-4.89583 0,-3.07292 1.63194,-4.89583 1.64062,-1.8316 4.375,-1.8316 z m 0.81597,-3.03819 h 1.76216 v 1.76215 h -1.76216 z m -3.3941,0 h 1.76216 v 1.76215 h -1.76216 z" />
    <path
       id="path209"
       style=""
       d="m 215.06944,297.88889 -4.94791,-12.96007 h 1.83159 l 4.10591,10.91145 4.11458,-10.91145 h 1.82292 l -4.93924,12.96007 z" />
    <path
       id="path211"
       style=""
       d="m 223.88021,284.92882 h 8.19444 v 1.47569 h -6.44097 v 3.83681 h 6.17188 v 1.47569 h -6.17188 v 4.69618 h 6.59722 v 1.4757 h -8.35069 z" />
    <path
       id="path213"
       style=""
       d="m 243.96702,296.03993 v -3.48091 h -2.86458 v -1.44097 h 4.60069 v 5.56424 q -1.01563,0.72048 -2.23958,1.09375 -1.22396,0.36458 -2.61285,0.36458 -3.0382,0 -4.75695,-1.77083 -1.71006,-1.77952 -1.71006,-4.94792 0,-3.17708 1.71006,-4.94792 1.71875,-1.77951 4.75695,-1.77951 1.26736,0 2.40451,0.3125 1.14584,0.3125 2.10938,0.92014 v 1.86632 q -0.97222,-0.82465 -2.06597,-1.24132 -1.09375,-0.41667 -2.30035,-0.41667 -2.37847,0 -3.57639,1.32813 -1.18924,1.32812 -1.18924,3.95833 0,2.62153 1.18924,3.94965 1.19792,1.32813 3.57639,1.32813 0.92882,0 1.65798,-0.15625 0.72917,-0.16493 1.31077,-0.50347 z" />
    <path
       id="path215"
       style=""
       d="m 258.23785,284.38194 v 15.8507 h -3.68056 v -1.24132 h 2.07466 v -13.36806 h -2.07466 v -1.24132 z" />
  </g>
</svg>
