<?xml version="1.0" encoding="UTF-8" standalone="no"?>
<svg
   xmlns:dc="http://purl.org/dc/elements/1.1/"
   xmlns:cc="http://creativecommons.org/ns#"
   xmlns:rdf="http://www.w3.org/1999/02/22-rdf-syntax-ns#"
   xmlns:svg="http://www.w3.org/2000/svg"
   xmlns="http://www.w3.org/2000/svg"
   id="svg25"
   stroke-miterlimit="10"
   stroke-linecap="square"
   stroke="none"
   fill="none"
   viewBox="0.0 0.0 288.0 115.0"
   version="1.1">
  <metadata
     id="metadata31">
    <rdf:RDF>
      <cc:Work
         rdf:about="">
        <dc:format>image/svg+xml</dc:format>
        <dc:type
           rdf:resource="http://purl.org/dc/dcmitype/StillImage" />
      </cc:Work>
    </rdf:RDF>
  </metadata>
  <defs
     id="defs29" />
  <clipPath
     id="p.0">
    <path
       id="path2"
       clip-rule="nonzero"
       d="m0 0l288.0 0l0 115.0l-288.0 0l0 -115.0z" />
  </clipPath>
  <g
     id="g19"
     clip-path="url(#p.0)">
    <path
       style="fill:#000000;fill-opacity:0;fill-rule:nonzero"
       id="path5"
       d="M 0,0 H 288 V 115 H 0 Z" />
    <path
       style="fill:#ffffff;fill-rule:nonzero"
       id="path7"
       d="M 12,8.503937 H 276 V 107.49607 H 12 Z" />
    <path
       style="fill-rule:nonzero;stroke:#000000;stroke-width:2;stroke-linecap:butt;stroke-linejoin:round"
       id="path9"
       d="M 12,8.503937 H 276 V 107.49607 H 12 Z" />
    <path
       style="fill:#000000;fill-rule:nonzero"
       id="path11"
       d="M 114,32 H 259.00787 V 85.984253 H 114 Z" />
    <path
       style="fill-rule:nonzero;stroke:#000000;stroke-width:2;stroke-linecap:butt;stroke-linejoin:round"
       id="path13"
       d="M 114,32 H 259.00787 V 85.984253 H 114 Z" />
    <path
       style="fill:#ffffff;fill-rule:nonzero"
       id="path15"
       d="m 36,58 v 0 C 36,43.092659 48.084785,31.007874 62.992126,31.007874 v 0 c 7.15876,0 14.024307,2.843807 19.086311,7.905811 C 87.140449,43.975689 89.984252,50.841244 89.984252,58 v 0 c 0,14.907341 -12.084785,26.992126 -26.992126,26.992126 v 0 C 48.084785,84.992126 36,72.907341 36,58 Z" />
    <path
       style="fill-rule:nonzero;stroke:#000000;stroke-width:2;stroke-linecap:butt;stroke-linejoin:round"
       id="path17"
       d="m 36,58 v 0 C 36,43.092659 48.084785,31.007874 62.992126,31.007874 v 0 c 7.15876,0 14.024307,2.843807 19.086311,7.905811 C 87.140449,43.975689 89.984252,50.841244 89.984252,58 v 0 c 0,14.907341 -12.084785,26.992126 -26.992126,26.992126 v 0 C 48.084785,84.992126 36,72.907341 36,58 Z" />
  </g>
  <g
     id="text23"
     style="font-size:32px;font-family:'DejaVu Sans', sans-serif;text-anchor:middle;fill:#ffffff"
     aria-label="[文本]">
    <path
       id="path33"
       style=""
       d="m 145.25,45.6875 h 6.625 v 2.234375 h -3.75 v 24.0625 h 3.75 v 2.234375 h -6.625 z" />
    <path
       id="path35"
       style=""
       d="m 171.375,65 q -6.25,5.375 -12.875,7.375 l -1.125,-3 Q 164,67.5 169.25,63 164.875,58.25 163.375,52 h -6 v -2.375 h 12 v -4.75 h 2.75 q 1.25,0.25 0.125,1 v 3.75 h 12.125 V 52 H 178.5 q -1,5.875 -5.25,11 4.375,3.875 11.625,5.75 l -1.125,3 Q 177.375,70.125 171.375,65 Z m -0.125,-4 q 3.75,-4.5 4.625,-9 h -9.75 q 0.75,4.25 5.125,9 z" />
    <path
       id="path37"
       style=""
       d="m 216,67.875 q -7.625,-4.75 -11.875,-12.125 v 7.875 h 5.125 V 66 h -5.125 v 6.75 h -2.5 V 66 h -4.875 v -2.375 h 4.875 V 55.75 q -3.625,8 -11.75,12.75 L 188.5,65.875 q 8.5,-4.625 12.125,-13.5 H 189.75 V 50 h 11.875 V 44.375 H 204 q 1,0.125 0.125,0.75 V 50 h 12 v 2.375 H 205 Q 209.25,60 217.375,65 Z" />
    <path
       id="path39"
       style=""
       d="m 228.73438,45.6875 v 28.53125 h -6.625 v -2.234375 h 3.73437 v -24.0625 h -3.73437 V 45.6875 Z" />
  </g>
</svg>
