<?xml version="1.0" encoding="UTF-8" standalone="no"?>
<svg
   xmlns:dc="http://purl.org/dc/elements/1.1/"
   xmlns:cc="http://creativecommons.org/ns#"
   xmlns:rdf="http://www.w3.org/1999/02/22-rdf-syntax-ns#"
   xmlns:svg="http://www.w3.org/2000/svg"
   xmlns="http://www.w3.org/2000/svg"
   id="svg89"
   stroke-miterlimit="10"
   stroke-linecap="square"
   stroke="none"
   fill="none"
   viewBox="0.0 0.0 348.0 348.0"
   version="1.1">
  <metadata
     id="metadata95">
    <rdf:RDF>
      <cc:Work
         rdf:about="">
        <dc:format>image/svg+xml</dc:format>
        <dc:type
           rdf:resource="http://purl.org/dc/dcmitype/StillImage" />
      </cc:Work>
    </rdf:RDF>
  </metadata>
  <defs
     id="defs93" />
  <clipPath
     id="p.0">
    <path
       id="path2"
       clip-rule="nonzero"
       d="m0 0l348.0 0l0 348.0l-348.0 0l0 -348.0z" />
  </clipPath>
  <g
     id="g59"
     clip-path="url(#p.0)">
    <path
       style="fill:#000000;fill-opacity:0;fill-rule:nonzero"
       id="path5"
       d="M 0,0 H 348 V 348 H 0 Z" />
    <path
       style="fill:#ffffff;fill-rule:nonzero"
       id="path7"
       d="M -6,0 H 342 V 347.9685 H -6 Z" />
    <path
       style="fill:#000000;fill-opacity:0;fill-rule:nonzero"
       id="path9"
       d="m 5.07874,5.7758217 h 336.9134 V 343.44512 H 5.07874 Z" />
    <path
       style="fill-rule:nonzero;stroke:#000000;stroke-width:2;stroke-linecap:butt;stroke-linejoin:round"
       id="path11"
       d="m 5.07874,5.7758217 h 336.9134 V 343.44512 H 5.07874 Z" />
    <path
       style="fill:#ffffff;fill-rule:nonzero"
       id="path13"
       d="m 282.73444,40.553925 v 0 c 0,-8.375591 6.96603,-15.165352 15.55905,-15.165352 v 0 c 4.12653,0 8.08402,1.597773 11.00192,4.441828 2.91788,2.844057 4.55713,6.701422 4.55713,10.723524 v 0 c 0,8.375595 -6.966,15.165356 -15.55905,15.165356 v 0 c -8.59302,0 -15.55905,-6.789761 -15.55905,-15.165356 z" />
    <path
       style="fill-rule:nonzero;stroke:#000000;stroke-width:2;stroke-linecap:butt;stroke-linejoin:round"
       id="path15"
       d="m 282.73444,40.553925 v 0 c 0,-8.375591 6.96603,-15.165352 15.55905,-15.165352 v 0 c 4.12653,0 8.08402,1.597773 11.00192,4.441828 2.91788,2.844057 4.55713,6.701422 4.55713,10.723524 v 0 c 0,8.375595 -6.966,15.165356 -15.55905,15.165356 v 0 c -8.59302,0 -15.55905,-6.789761 -15.55905,-15.165356 z" />
    <path
       style="fill:#000000;fill-rule:nonzero"
       id="path17"
       d="M 34.771652,25.389738 H 267.18112 v 67.55905 H 34.771652 Z" />
    <path
       style="fill-rule:nonzero;stroke:#000000;stroke-width:2;stroke-linecap:butt;stroke-linejoin:round"
       id="path19"
       d="M 34.771652,25.389738 H 267.18112 v 67.55905 H 34.771652 Z" />
    <path
       style="fill-rule:nonzero;stroke:#000000;stroke-width:1;stroke-linecap:butt;stroke-linejoin:round"
       id="path21"
       d="M 34.771652,202.31795 H 141.41733 v 44.81891 H 34.771652 Z" />
    <path
       style="fill:#000000;fill-opacity:0;fill-rule:nonzero"
       id="path23"
       d="M 34.771652,125.22639 H 141.41733 v 44.8189 H 34.771652 Z" />
    <path
       style="fill-rule:nonzero;stroke:#000000;stroke-width:1;stroke-linecap:butt;stroke-linejoin:round"
       id="path25"
       d="M 34.771652,125.22639 H 141.41733 v 44.8189 H 34.771652 Z" />
    <path
       style="fill:#000000;fill-opacity:0;fill-rule:nonzero"
       id="path27"
       d="M 34.771652,270.60397 H 141.41733 v 44.81891 H 34.771652 Z" />
    <path
       style="fill-rule:nonzero;stroke:#000000;stroke-width:1;stroke-linecap:butt;stroke-linejoin:round"
       id="path29"
       d="M 34.771652,270.60397 H 141.41733 v 44.81891 H 34.771652 Z" />
    <path
       style="fill:#000000;fill-opacity:0;fill-rule:nonzero"
       id="path31"
       d="m 157.40683,202.31795 h 106.64566 v 44.81891 H 157.40683 Z" />
    <path
       style="fill-rule:nonzero;stroke:#000000;stroke-width:1;stroke-linecap:butt;stroke-linejoin:round"
       id="path33"
       d="m 157.40683,202.31795 h 106.64566 v 44.81891 H 157.40683 Z" />
    <path
       style="fill:#000000;fill-opacity:0;fill-rule:nonzero"
       id="path35"
       d="m 157.40683,125.22639 h 106.64566 v 44.8189 H 157.40683 Z" />
    <path
       style="fill-rule:nonzero;stroke:#000000;stroke-width:1;stroke-linecap:butt;stroke-linejoin:round"
       id="path37"
       d="m 157.40683,125.22639 h 106.64566 v 44.8189 H 157.40683 Z" />
    <path
       style="fill:#000000;fill-opacity:0;fill-rule:nonzero"
       id="path39"
       d="m 157.40683,270.60397 h 106.64566 v 44.81891 H 157.40683 Z" />
    <path
       style="fill-rule:nonzero;stroke:#000000;stroke-width:1;stroke-linecap:butt;stroke-linejoin:round"
       id="path41"
       d="m 157.40683,270.60397 h 106.64566 v 44.81891 H 157.40683 Z" />
    <path
       style="fill:#000000;fill-rule:nonzero"
       id="path43"
       d="m 277.46194,106.3832 h 52.66141 v 209.03937 h -52.66141 z" />
    <path
       style="fill-rule:nonzero;stroke:#000000;stroke-width:2;stroke-linecap:butt;stroke-linejoin:round"
       id="path45"
       d="m 277.46194,106.3832 h 52.66141 v 209.03937 h -52.66141 z" />
    <path
       style="fill:#ffffff;fill-rule:nonzero"
       id="path47"
       d="m 290.06036,245.11285 h 27.46457 v 16.47244 h -27.46457 z" />
    <path
       style="fill-rule:nonzero;stroke:#000000;stroke-width:2;stroke-linecap:butt;stroke-linejoin:round"
       id="path49"
       d="m 290.06036,245.11285 h 27.46457 v 16.47244 h -27.46457 z" />
    <path
       style="fill:#ffffff;fill-rule:nonzero"
       id="path51"
       d="m 290.06036,208.9029 h 27.46457 v 16.47243 h -27.46457 z" />
    <path
       style="fill-rule:nonzero;stroke:#000000;stroke-width:2;stroke-linecap:butt;stroke-linejoin:round"
       id="path53"
       d="m 290.06036,208.9029 h 27.46457 v 16.47243 h -27.46457 z" />
    <path
       style="fill:#ffffff;fill-rule:nonzero"
       id="path55"
       d="m 290.06036,281.32285 h 27.46457 v 16.47244 h -27.46457 z" />
    <path
       style="fill-rule:nonzero;stroke:#000000;stroke-width:2;stroke-linecap:butt;stroke-linejoin:round"
       id="path57"
       d="m 290.06036,281.32285 h 27.46457 v 16.47244 h -27.46457 z" />
  </g>
  <g
     id="text63"
     style="font-size:32px;font-family:'DejaVu Sans', sans-serif;text-anchor:middle;fill:#ffffff"
     aria-label="[ DISPLAY ]">
    <path
       id="path97"
       style=""
       d="m 64.46875,45.6875 h 6.625 v 2.234375 h -3.75 v 24.0625 h 3.75 v 2.234375 h -6.625 z" />
    <path
       id="path99"
       style=""
       d="M 90.703125,49.265625 V 67.40625 h 3.8125 q 4.828125,0 7.062495,-2.1875 2.25,-2.1875 2.25,-6.90625 0,-4.6875 -2.25,-6.859375 -2.23437,-2.1875 -7.062495,-2.1875 z m -3.15625,-2.59375 h 6.484375 q 6.78125,0 9.95312,2.828125 3.17188,2.8125 3.17188,8.8125 0,6.03125 -3.1875,8.859375 Q 100.78125,70 94.03125,70 h -6.484375 z" />
    <path
       id="path101"
       style=""
       d="m 112.17187,46.671875 h 3.15625 V 70 h -3.15625 z" />
    <path
       id="path103"
       style=""
       d="m 135.59375,47.4375 v 3.078125 q -1.79687,-0.859375 -3.39062,-1.28125 -1.59375,-0.421875 -3.07813,-0.421875 -2.57813,0 -3.98438,1 -1.39062,1 -1.39062,2.84375 0,1.546875 0.92187,2.34375 0.9375,0.78125 3.53126,1.265625 l 1.90625,0.390625 q 3.53125,0.671875 5.20312,2.375 1.6875,1.6875 1.6875,4.53125 0,3.390625 -2.28125,5.140625 -2.26562,1.75 -6.65625,1.75 -1.65625,0 -3.53125,-0.375 -1.85938,-0.375 -3.85938,-1.109375 v -3.25 q 1.92188,1.078125 3.76563,1.625 1.84375,0.546875 3.625,0.546875 2.70313,0 4.17188,-1.0625 1.46875,-1.0625 1.46875,-3.03125 0,-1.71875 -1.0625,-2.6875 -1.04688,-0.96875 -3.45313,-1.453125 l -1.92188,-0.375 q -3.53125,-0.703125 -5.10937,-2.203125 -1.57813,-1.5 -1.57813,-4.171875 0,-3.09375 2.17188,-4.875 2.1875,-1.78125 6.01563,-1.78125 1.64062,0 3.34375,0.296875 1.70312,0.296875 3.48437,0.890625 z" />
    <path
       id="path105"
       style=""
       d="m 145.07813,49.265625 v 8.765625 h 3.96875 q 2.20312,0 3.40625,-1.140625 1.20312,-1.140625 1.20312,-3.25 0,-2.09375 -1.20312,-3.234375 -1.20313,-1.140625 -3.40625,-1.140625 z m -3.15625,-2.59375 h 7.125 q 3.92187,0 5.92187,1.78125 2.01563,1.765625 2.01563,5.1875 0,3.453125 -2.01563,5.21875 -2,1.765625 -5.92187,1.765625 h -3.96875 V 70 h -3.15625 z" />
    <path
       id="path107"
       style=""
       d="m 161.23438,46.671875 h 3.15625 V 67.34375 H 175.75 V 70 h -14.51562 z" />
    <path
       id="path109"
       style=""
       d="m 187.59375,49.78125 -4.28125,11.609375 h 8.57813 z m -1.78125,-3.109375 h 3.57813 L 198.28125,70 H 195 l -2.125,-5.984375 H 182.35938 L 180.23438,70 h -3.32813 z" />
    <path
       id="path111"
       style=""
       d="m 195.96875,46.671875 h 3.39063 l 6.46875,9.59375 6.42187,-9.59375 h 3.39063 l -8.25,12.21875 V 70 h -3.17188 V 58.890625 Z" />
    <path
       id="path113"
       style=""
       d="m 235.51563,45.6875 v 28.53125 h -6.625 v -2.234375 h 3.73437 v -24.0625 h -3.73437 V 45.6875 Z" />
  </g>
  <g
     id="text67"
     style="font-size:20px;font-family:'DejaVu Sans', sans-serif;text-anchor:middle;fill:#000000"
     aria-label="[ TEXTO ]">
    <path
       id="path116"
       style=""
       d="m 41.433594,138.80469 h 4.140625 v 1.39648 h -2.34375 v 15.03906 h 2.34375 v 1.39649 h -4.140625 z" />
    <path
       id="path118"
       style=""
       d="m 53.835938,139.41992 h 12.333984 v 1.66016 H 60.994141 V 154 h -1.982422 v -12.91992 h -5.175781 z" />
    <path
       id="path120"
       style=""
       d="m 68.083984,139.41992 h 9.21875 v 1.66016 h -7.246093 v 4.3164 H 77 v 1.66016 h -6.943359 v 5.2832 h 7.421875 V 154 h -9.394532 z" />
    <path
       id="path122"
       style=""
       d="m 80.037109,139.41992 h 2.119141 l 3.623047,5.41992 3.642578,-5.41992 h 2.119141 l -4.6875,7.00196 5,7.57812 H 89.734375 L 85.632813,147.79883 81.501953,154 h -2.128906 l 5.205078,-7.7832 z" />
    <path
       id="path124"
       style=""
       d="m 92.078125,139.41992 h 12.333985 v 1.66016 H 99.236328 V 154 h -1.982422 v -12.91992 h -5.175781 z" />
    <path
       id="path126"
       style=""
       d="m 112.24414,140.75781 q -2.14844,0 -3.41797,1.60157 -1.25976,1.60156 -1.25976,4.36523 0,2.75391 1.25976,4.35547 1.26953,1.60156 3.41797,1.60156 2.14844,0 3.39844,-1.60156 1.25976,-1.60156 1.25976,-4.35547 0,-2.76367 -1.25976,-4.36523 -1.25,-1.60157 -3.39844,-1.60157 z m 0,-1.60156 q 3.06641,0 4.90234,2.06055 1.83594,2.05078 1.83594,5.50781 0,3.44727 -1.83594,5.50781 -1.83593,2.05078 -4.90234,2.05078 -3.07617,0 -4.92187,-2.05078 -1.83594,-2.05078 -1.83594,-5.50781 0,-3.45703 1.83594,-5.50781 1.8457,-2.06055 4.92187,-2.06055 z" />
    <path
       id="path128"
       style=""
       d="m 132.55664,138.80469 v 17.83203 h -4.14062 v -1.39649 H 130.75 v -15.03906 h -2.33398 v -1.39648 z" />
  </g>
  <g
     id="text71"
     style="font-size:20px;font-family:'DejaVu Sans', sans-serif;text-anchor:middle;fill:#000000"
     aria-label="[ TEXTO ]">
    <path
       id="path131"
       style=""
       d="m 41.433594,215.80469 h 4.140625 v 1.39648 h -2.34375 v 15.03906 h 2.34375 v 1.39649 h -4.140625 z" />
    <path
       id="path133"
       style=""
       d="m 53.835938,216.41992 h 12.333984 v 1.66016 H 60.994141 V 231 h -1.982422 v -12.91992 h -5.175781 z" />
    <path
       id="path135"
       style=""
       d="m 68.083984,216.41992 h 9.21875 v 1.66016 h -7.246093 v 4.3164 H 77 v 1.66016 h -6.943359 v 5.2832 h 7.421875 V 231 h -9.394532 z" />
    <path
       id="path137"
       style=""
       d="m 80.037109,216.41992 h 2.119141 l 3.623047,5.41992 3.642578,-5.41992 h 2.119141 l -4.6875,7.00196 5,7.57812 H 89.734375 L 85.632813,224.79883 81.501953,231 h -2.128906 l 5.205078,-7.7832 z" />
    <path
       id="path139"
       style=""
       d="m 92.078125,216.41992 h 12.333985 v 1.66016 H 99.236328 V 231 h -1.982422 v -12.91992 h -5.175781 z" />
    <path
       id="path141"
       style=""
       d="m 112.24414,217.75781 q -2.14844,0 -3.41797,1.60157 -1.25976,1.60156 -1.25976,4.36523 0,2.75391 1.25976,4.35547 1.26953,1.60156 3.41797,1.60156 2.14844,0 3.39844,-1.60156 1.25976,-1.60156 1.25976,-4.35547 0,-2.76367 -1.25976,-4.36523 -1.25,-1.60157 -3.39844,-1.60157 z m 0,-1.60156 q 3.06641,0 4.90234,2.06055 1.83594,2.05078 1.83594,5.50781 0,3.44727 -1.83594,5.50781 -1.83593,2.05078 -4.90234,2.05078 -3.07617,0 -4.92187,-2.05078 -1.83594,-2.05078 -1.83594,-5.50781 0,-3.45703 1.83594,-5.50781 1.8457,-2.06055 4.92187,-2.06055 z" />
    <path
       id="path143"
       style=""
       d="m 132.55664,215.80469 v 17.83203 h -4.14062 v -1.39649 H 130.75 v -15.03906 h -2.33398 v -1.39648 z" />
  </g>
  <g
     id="text75"
     style="font-size:20px;font-family:'DejaVu Sans', sans-serif;text-anchor:middle;fill:#000000"
     aria-label="[ TEXTO ]">
    <path
       id="path146"
       style=""
       d="m 41.433594,283.80469 h 4.140625 v 1.39648 h -2.34375 v 15.03906 h 2.34375 v 1.39649 h -4.140625 z" />
    <path
       id="path148"
       style=""
       d="m 53.835938,284.41992 h 12.333984 v 1.66016 H 60.994141 V 299 h -1.982422 v -12.91992 h -5.175781 z" />
    <path
       id="path150"
       style=""
       d="m 68.083984,284.41992 h 9.21875 v 1.66016 h -7.246093 v 4.3164 H 77 v 1.66016 h -6.943359 v 5.2832 h 7.421875 V 299 h -9.394532 z" />
    <path
       id="path152"
       style=""
       d="m 80.037109,284.41992 h 2.119141 l 3.623047,5.41992 3.642578,-5.41992 h 2.119141 l -4.6875,7.00196 5,7.57812 H 89.734375 L 85.632813,292.79883 81.501953,299 h -2.128906 l 5.205078,-7.7832 z" />
    <path
       id="path154"
       style=""
       d="m 92.078125,284.41992 h 12.333985 v 1.66016 H 99.236328 V 299 h -1.982422 v -12.91992 h -5.175781 z" />
    <path
       id="path156"
       style=""
       d="m 112.24414,285.75781 q -2.14844,0 -3.41797,1.60157 -1.25976,1.60156 -1.25976,4.36523 0,2.75391 1.25976,4.35547 1.26953,1.60156 3.41797,1.60156 2.14844,0 3.39844,-1.60156 1.25976,-1.60156 1.25976,-4.35547 0,-2.76367 -1.25976,-4.36523 -1.25,-1.60157 -3.39844,-1.60157 z m 0,-1.60156 q 3.06641,0 4.90234,2.06055 1.83594,2.05078 1.83594,5.50781 0,3.44727 -1.83594,5.50781 -1.83593,2.05078 -4.90234,2.05078 -3.07617,0 -4.92187,-2.05078 -1.83594,-2.05078 -1.83594,-5.50781 0,-3.45703 1.83594,-5.50781 1.8457,-2.06055 4.92187,-2.06055 z" />
    <path
       id="path158"
       style=""
       d="m 132.55664,283.80469 v 17.83203 h -4.14062 v -1.39649 H 130.75 v -15.03906 h -2.33398 v -1.39648 z" />
  </g>
  <g
     id="text79"
     style="font-size:20px;font-family:'DejaVu Sans', sans-serif;text-anchor:middle;fill:#000000"
     aria-label="[ TEXTO ]">
    <path
       id="path161"
       style=""
       d="m 164.43359,138.80469 h 4.14063 v 1.39648 h -2.34375 v 15.03906 h 2.34375 v 1.39649 h -4.14063 z" />
    <path
       id="path163"
       style=""
       d="m 176.83594,139.41992 h 12.33398 v 1.66016 h -5.17578 V 154 h -1.98242 v -12.91992 h -5.17578 z" />
    <path
       id="path165"
       style=""
       d="m 191.08398,139.41992 h 9.21875 v 1.66016 h -7.24609 v 4.3164 H 200 v 1.66016 h -6.94336 v 5.2832 h 7.42188 V 154 h -9.39454 z" />
    <path
       id="path167"
       style=""
       d="m 203.03711,139.41992 h 2.11914 l 3.62305,5.41992 3.64258,-5.41992 h 2.11914 l -4.6875,7.00196 5,7.57812 h -2.11914 L 208.63281,147.79883 204.50195,154 h -2.1289 l 5.20508,-7.7832 z" />
    <path
       id="path169"
       style=""
       d="m 215.07813,139.41992 h 12.33398 v 1.66016 h -5.17578 V 154 h -1.98242 v -12.91992 h -5.17578 z" />
    <path
       id="path171"
       style=""
       d="m 235.24414,140.75781 q -2.14844,0 -3.41797,1.60157 -1.25976,1.60156 -1.25976,4.36523 0,2.75391 1.25976,4.35547 1.26953,1.60156 3.41797,1.60156 2.14844,0 3.39844,-1.60156 1.25976,-1.60156 1.25976,-4.35547 0,-2.76367 -1.25976,-4.36523 -1.25,-1.60157 -3.39844,-1.60157 z m 0,-1.60156 q 3.06641,0 4.90234,2.06055 1.83594,2.05078 1.83594,5.50781 0,3.44727 -1.83594,5.50781 -1.83593,2.05078 -4.90234,2.05078 -3.07617,0 -4.92187,-2.05078 -1.83594,-2.05078 -1.83594,-5.50781 0,-3.45703 1.83594,-5.50781 1.8457,-2.06055 4.92187,-2.06055 z" />
    <path
       id="path173"
       style=""
       d="m 255.55664,138.80469 v 17.83203 h -4.14062 v -1.39649 H 253.75 v -15.03906 h -2.33398 v -1.39648 z" />
  </g>
  <g
     id="text83"
     style="font-size:20px;font-family:'DejaVu Sans', sans-serif;text-anchor:middle;fill:#000000"
     aria-label="[ TEXTO ]">
    <path
       id="path176"
       style=""
       d="m 164.43359,215.80469 h 4.14063 v 1.39648 h -2.34375 v 15.03906 h 2.34375 v 1.39649 h -4.14063 z" />
    <path
       id="path178"
       style=""
       d="m 176.83594,216.41992 h 12.33398 v 1.66016 h -5.17578 V 231 h -1.98242 v -12.91992 h -5.17578 z" />
    <path
       id="path180"
       style=""
       d="m 191.08398,216.41992 h 9.21875 v 1.66016 h -7.24609 v 4.3164 H 200 v 1.66016 h -6.94336 v 5.2832 h 7.42188 V 231 h -9.39454 z" />
    <path
       id="path182"
       style=""
       d="m 203.03711,216.41992 h 2.11914 l 3.62305,5.41992 3.64258,-5.41992 h 2.11914 l -4.6875,7.00196 5,7.57812 h -2.11914 L 208.63281,224.79883 204.50195,231 h -2.1289 l 5.20508,-7.7832 z" />
    <path
       id="path184"
       style=""
       d="m 215.07813,216.41992 h 12.33398 v 1.66016 h -5.17578 V 231 h -1.98242 v -12.91992 h -5.17578 z" />
    <path
       id="path186"
       style=""
       d="m 235.24414,217.75781 q -2.14844,0 -3.41797,1.60157 -1.25976,1.60156 -1.25976,4.36523 0,2.75391 1.25976,4.35547 1.26953,1.60156 3.41797,1.60156 2.14844,0 3.39844,-1.60156 1.25976,-1.60156 1.25976,-4.35547 0,-2.76367 -1.25976,-4.36523 -1.25,-1.60157 -3.39844,-1.60157 z m 0,-1.60156 q 3.06641,0 4.90234,2.06055 1.83594,2.05078 1.83594,5.50781 0,3.44727 -1.83594,5.50781 -1.83593,2.05078 -4.90234,2.05078 -3.07617,0 -4.92187,-2.05078 -1.83594,-2.05078 -1.83594,-5.50781 0,-3.45703 1.83594,-5.50781 1.8457,-2.06055 4.92187,-2.06055 z" />
    <path
       id="path188"
       style=""
       d="m 255.55664,215.80469 v 17.83203 h -4.14062 v -1.39649 H 253.75 v -15.03906 h -2.33398 v -1.39648 z" />
  </g>
  <g
     id="text87"
     style="font-size:20px;font-family:'DejaVu Sans', sans-serif;text-anchor:middle;fill:#000000"
     aria-label="[ TEXTO ]">
    <path
       id="path191"
       style=""
       d="m 164.43359,283.80469 h 4.14063 v 1.39648 h -2.34375 v 15.03906 h 2.34375 v 1.39649 h -4.14063 z" />
    <path
       id="path193"
       style=""
       d="m 176.83594,284.41992 h 12.33398 v 1.66016 h -5.17578 V 299 h -1.98242 v -12.91992 h -5.17578 z" />
    <path
       id="path195"
       style=""
       d="m 191.08398,284.41992 h 9.21875 v 1.66016 h -7.24609 v 4.3164 H 200 v 1.66016 h -6.94336 v 5.2832 h 7.42188 V 299 h -9.39454 z" />
    <path
       id="path197"
       style=""
       d="m 203.03711,284.41992 h 2.11914 l 3.62305,5.41992 3.64258,-5.41992 h 2.11914 l -4.6875,7.00196 5,7.57812 h -2.11914 L 208.63281,292.79883 204.50195,299 h -2.1289 l 5.20508,-7.7832 z" />
    <path
       id="path199"
       style=""
       d="m 215.07813,284.41992 h 12.33398 v 1.66016 h -5.17578 V 299 h -1.98242 v -12.91992 h -5.17578 z" />
    <path
       id="path201"
       style=""
       d="m 235.24414,285.75781 q -2.14844,0 -3.41797,1.60157 -1.25976,1.60156 -1.25976,4.36523 0,2.75391 1.25976,4.35547 1.26953,1.60156 3.41797,1.60156 2.14844,0 3.39844,-1.60156 1.25976,-1.60156 1.25976,-4.35547 0,-2.76367 -1.25976,-4.36523 -1.25,-1.60157 -3.39844,-1.60157 z m 0,-1.60156 q 3.06641,0 4.90234,2.06055 1.83594,2.05078 1.83594,5.50781 0,3.44727 -1.83594,5.50781 -1.83593,2.05078 -4.90234,2.05078 -3.07617,0 -4.92187,-2.05078 -1.83594,-2.05078 -1.83594,-5.50781 0,-3.45703 1.83594,-5.50781 1.8457,-2.06055 4.92187,-2.06055 z" />
    <path
       id="path203"
       style=""
       d="m 255.55664,283.80469 v 17.83203 h -4.14062 v -1.39649 H 253.75 v -15.03906 h -2.33398 v -1.39648 z" />
  </g>
</svg>
