<?xml version="1.0" encoding="UTF-8" standalone="no"?>
<svg
   xmlns:dc="http://purl.org/dc/elements/1.1/"
   xmlns:cc="http://creativecommons.org/ns#"
   xmlns:rdf="http://www.w3.org/1999/02/22-rdf-syntax-ns#"
   xmlns:svg="http://www.w3.org/2000/svg"
   xmlns="http://www.w3.org/2000/svg"
   id="svg25"
   stroke-miterlimit="10"
   stroke-linecap="square"
   stroke="none"
   fill="none"
   viewBox="0.0 0.0 288.0 115.0"
   version="1.1">
  <metadata
     id="metadata31">
    <rdf:RDF>
      <cc:Work
         rdf:about="">
        <dc:format>image/svg+xml</dc:format>
        <dc:type
           rdf:resource="http://purl.org/dc/dcmitype/StillImage" />
      </cc:Work>
    </rdf:RDF>
  </metadata>
  <defs
     id="defs29" />
  <clipPath
     id="p.0">
    <path
       id="path2"
       clip-rule="nonzero"
       d="m0 0l288.0 0l0 115.0l-288.0 0l0 -115.0z" />
  </clipPath>
  <g
     id="g19"
     clip-path="url(#p.0)">
    <path
       style="fill:#000000;fill-opacity:0;fill-rule:nonzero"
       id="path5"
       d="M 0,0 H 288 V 115 H 0 Z" />
    <path
       style="fill:#ffffff;fill-rule:nonzero"
       id="path7"
       d="M 12,8.503937 H 276 V 107.49607 H 12 Z" />
    <path
       style="fill-rule:nonzero;stroke:#000000;stroke-width:2;stroke-linecap:butt;stroke-linejoin:round"
       id="path9"
       d="M 12,8.503937 H 276 V 107.49607 H 12 Z" />
    <path
       style="fill:#000000;fill-rule:nonzero"
       id="path11"
       d="M 114,32 H 259.00787 V 85.984253 H 114 Z" />
    <path
       style="fill-rule:nonzero;stroke:#000000;stroke-width:2;stroke-linecap:butt;stroke-linejoin:round"
       id="path13"
       d="M 114,32 H 259.00787 V 85.984253 H 114 Z" />
    <path
       style="fill:#ffffff;fill-rule:nonzero"
       id="path15"
       d="m 36,58 v 0 C 36,43.092659 48.084785,31.007874 62.992126,31.007874 v 0 c 7.15876,0 14.024307,2.843807 19.086311,7.905811 C 87.140449,43.975689 89.984252,50.841244 89.984252,58 v 0 c 0,14.907341 -12.084785,26.992126 -26.992126,26.992126 v 0 C 48.084785,84.992126 36,72.907341 36,58 Z" />
    <path
       style="fill-rule:nonzero;stroke:#000000;stroke-width:2;stroke-linecap:butt;stroke-linejoin:round"
       id="path17"
       d="m 36,58 v 0 C 36,43.092659 48.084785,31.007874 62.992126,31.007874 v 0 c 7.15876,0 14.024307,2.843807 19.086311,7.905811 C 87.140449,43.975689 89.984252,50.841244 89.984252,58 v 0 c 0,14.907341 -12.084785,26.992126 -26.992126,26.992126 v 0 C 48.084785,84.992126 36,72.907341 36,58 Z" />
  </g>
  <g
     id="text23"
     style="font-size:32px;font-family:sans-serif;text-anchor:middle;fill:#ffffff"
     aria-label="[MISSING: Manual/indicators.labeltxt]">
    <path
       id="path33"
       style="fill:#ff0000"
       d="m -109.40625,45.6875 h 6.625 v 2.234375 h -3.75 v 24.0625 h 3.75 v 2.234375 h -6.625 z" />
    <path
       id="path35"
       style="fill:#ff0000"
       d="m -96.515625,46.671875 h 4.703125 l 5.953125,15.875 5.984375,-15.875 h 4.703125 V 70 H -78.25 V 49.515625 l -6.015625,16 H -87.4375 l -6.015625,-16 V 70 h -3.0625 z" />
    <path
       id="path37"
       style="fill:#ff0000"
       d="m -68.890625,46.671875 h 3.15625 V 70 h -3.15625 z" />
    <path
       id="path39"
       style="fill:#ff0000"
       d="m -45.46875,47.4375 v 3.078125 q -1.796875,-0.859375 -3.390625,-1.28125 -1.59375,-0.421875 -3.078125,-0.421875 -2.578125,0 -3.984375,1 -1.390625,1 -1.390625,2.84375 0,1.546875 0.921875,2.34375 0.9375,0.78125 3.53125,1.265625 l 1.90625,0.390625 q 3.53125,0.671875 5.203125,2.375 1.6875,1.6875 1.6875,4.53125 0,3.390625 -2.28125,5.140625 -2.265625,1.75 -6.65625,1.75 -1.65625,0 -3.53125,-0.375 -1.859375,-0.375 -3.859375,-1.109375 v -3.25 q 1.921875,1.078125 3.765625,1.625 1.84375,0.546875 3.625,0.546875 2.703125,0 4.171875,-1.0625 1.46875,-1.0625 1.46875,-3.03125 0,-1.71875 -1.0625,-2.6875 -1.046875,-0.96875 -3.453125,-1.453125 l -1.921875,-0.375 q -3.53125,-0.703125 -5.109375,-2.203125 -1.578125,-1.5 -1.578125,-4.171875 0,-3.09375 2.171875,-4.875 2.1875,-1.78125 6.015625,-1.78125 1.640625,0 3.34375,0.296875 1.703125,0.296875 3.484375,0.890625 z" />
    <path
       id="path41"
       style="fill:#ff0000"
       d="m -25.15625,47.4375 v 3.078125 q -1.796875,-0.859375 -3.390625,-1.28125 -1.59375,-0.421875 -3.078125,-0.421875 -2.578125,0 -3.984375,1 Q -37,50.8125 -37,52.65625 q 0,1.546875 0.921875,2.34375 0.9375,0.78125 3.53125,1.265625 l 1.90625,0.390625 q 3.53125,0.671875 5.203125,2.375 1.6875,1.6875 1.6875,4.53125 0,3.390625 -2.28125,5.140625 -2.265625,1.75 -6.65625,1.75 -1.65625,0 -3.53125,-0.375 -1.859375,-0.375 -3.859375,-1.109375 v -3.25 q 1.921875,1.078125 3.765625,1.625 1.84375,0.546875 3.625,0.546875 2.703125,0 4.171875,-1.0625 1.46875,-1.0625 1.46875,-3.03125 0,-1.71875 -1.0625,-2.6875 -1.046875,-0.96875 -3.453125,-1.453125 l -1.921875,-0.375 q -3.53125,-0.703125 -5.109375,-2.203125 -1.578125,-1.5 -1.578125,-4.171875 0,-3.09375 2.171875,-4.875 2.1875,-1.78125 6.015625,-1.78125 1.640625,0 3.34375,0.296875 1.703125,0.296875 3.484375,0.890625 z" />
    <path
       id="path43"
       style="fill:#ff0000"
       d="m -18.828125,46.671875 h 3.15625 V 70 h -3.15625 z" />
    <path
       id="path45"
       style="fill:#ff0000"
       d="m -9.390625,46.671875 h 4.25 L 5.203125,66.1875 V 46.671875 h 3.0625 V 70 h -4.25 L -6.328125,50.484375 V 70 h -3.0625 z" />
    <path
       id="path47"
       style="fill:#ff0000"
       d="M 30.453125,66.671875 V 60.40625 h -5.15625 V 57.8125 h 8.28125 V 67.828125 Q 31.75,69.125 29.546875,69.796875 q -2.203125,0.65625 -4.703125,0.65625 -5.46875,0 -8.5625,-3.1875 -3.078125,-3.203125 -3.078125,-8.90625 0,-5.71875 3.078125,-8.90625 Q 19.375,46.25 24.84375,46.25 q 2.28125,0 4.328125,0.5625 2.0625,0.5625 3.796875,1.65625 v 3.359375 q -1.75,-1.484375 -3.71875,-2.234375 -1.96875,-0.75 -4.140625,-0.75 -4.28125,0 -6.4375,2.390625 -2.140625,2.390625 -2.140625,7.125 0,4.71875 2.140625,7.109375 2.15625,2.390625 6.4375,2.390625 1.671875,0 2.984375,-0.28125 1.3125,-0.296875 2.359375,-0.90625 z" />
    <path
       id="path49"
       style="fill:#ff0000"
       d="m 39.96875,66.03125 h 3.296875 V 70 H 39.96875 Z m 0,-12.578125 h 3.296875 v 3.96875 H 39.96875 Z" />
    <path
       id="path51"
       style="fill:#ff0000"
       d="M 60.359375,46.671875 H 65.0625 l 5.953125,15.875 L 77,46.671875 h 4.703125 V 70 H 78.625 V 49.515625 l -6.015625,16 H 69.4375 l -6.015625,-16 V 70 h -3.0625 z" />
    <path
       id="path53"
       style="fill:#ff0000"
       d="m 95.8125,61.203125 q -3.484375,0 -4.828125,0.796875 -1.34375,0.796875 -1.34375,2.71875 0,1.53125 1,2.4375 1.015625,0.890625 2.75,0.890625 2.390625,0 3.828125,-1.6875 1.453125,-1.703125 1.453125,-4.515625 v -0.640625 z m 5.73437,-1.1875 V 70 h -2.874995 v -2.65625 q -0.984375,1.59375 -2.453125,2.359375 -1.46875,0.75 -3.59375,0.75 -2.6875,0 -4.28125,-1.5 -1.578125,-1.515625 -1.578125,-4.046875 0,-2.953125 1.96875,-4.453125 1.984375,-1.5 5.90625,-1.5 h 4.03125 v -0.28125 q 0,-1.984375 -1.3125,-3.0625 -1.296875,-1.09375 -3.65625,-1.09375 -1.5,0 -2.921875,0.359375 -1.421875,0.359375 -2.734375,1.078125 v -2.65625 q 1.578125,-0.609375 3.0625,-0.90625 1.484375,-0.3125 2.890625,-0.3125 3.796875,0 5.671875,1.96875 1.874995,1.96875 1.874995,5.96875 z" />
    <path
       id="path55"
       style="fill:#ff0000"
       d="M 122.03125,59.4375 V 70 h -2.875 V 59.53125 q 0,-2.484375 -0.96875,-3.71875 -0.96875,-1.234375 -2.90625,-1.234375 -2.32813,0 -3.67188,1.484375 -1.34375,1.484375 -1.34375,4.046875 V 70 H 107.375 V 52.5 h 2.89062 v 2.71875 q 1.03125,-1.578125 2.42188,-2.359375 1.40625,-0.78125 3.23437,-0.78125 3.01563,0 4.5625,1.875 1.54688,1.859375 1.54688,5.484375 z" />
    <path
       id="path57"
       style="fill:#ff0000"
       d="M 127.5,63.09375 V 52.5 h 2.875 v 10.484375 q 0,2.484375 0.96875,3.734375 0.96875,1.234375 2.90625,1.234375 2.32813,0 3.67188,-1.484375 1.35937,-1.484375 1.35937,-4.046875 V 52.5 h 2.875 V 70 h -2.875 v -2.6875 q -1.04687,1.59375 -2.4375,2.375 -1.375,0.765625 -3.20312,0.765625 -3.01563,0 -4.57813,-1.875 -1.5625,-1.875 -1.5625,-5.484375 z m 7.23438,-11.015625 z" />
    <path
       id="path59"
       style="fill:#ff0000"
       d="m 156.0625,61.203125 q -3.48437,0 -4.82812,0.796875 -1.34375,0.796875 -1.34375,2.71875 0,1.53125 1,2.4375 1.01562,0.890625 2.75,0.890625 2.39062,0 3.82812,-1.6875 1.45313,-1.703125 1.45313,-4.515625 v -0.640625 z m 5.73438,-1.1875 V 70 h -2.875 v -2.65625 q -0.98438,1.59375 -2.45313,2.359375 -1.46875,0.75 -3.59375,0.75 -2.6875,0 -4.28125,-1.5 -1.57812,-1.515625 -1.57812,-4.046875 0,-2.953125 1.96875,-4.453125 1.98437,-1.5 5.90625,-1.5 h 4.03125 v -0.28125 q 0,-1.984375 -1.3125,-3.0625 -1.29688,-1.09375 -3.65625,-1.09375 -1.5,0 -2.92188,0.359375 -1.42187,0.359375 -2.73437,1.078125 v -2.65625 q 1.57812,-0.609375 3.0625,-0.90625 1.48437,-0.3125 2.89062,-0.3125 3.79688,0 5.67188,1.96875 1.875,1.96875 1.875,5.96875 z" />
    <path
       id="path61"
       style="fill:#ff0000"
       d="m 167.73438,45.6875 h 2.875 V 70 h -2.875 z" />
    <path
       id="path63"
       style="fill:#ff0000"
       d="M 181.71875,46.671875 H 184.375 L 176.25,72.96875 h -2.65625 z" />
    <path
       id="path65"
       style="fill:#ff0000"
       d="m 187.42188,52.5 h 2.875 V 70 h -2.875 z m 0,-6.8125 h 2.875 v 3.640625 h -2.875 z" />
    <path
       id="path67"
       style="fill:#ff0000"
       d="M 210.84375,59.4375 V 70 h -2.875 V 59.53125 q 0,-2.484375 -0.96875,-3.71875 -0.96875,-1.234375 -2.90625,-1.234375 -2.32812,0 -3.67187,1.484375 -1.34375,1.484375 -1.34375,4.046875 V 70 H 196.1875 V 52.5 h 2.89063 v 2.71875 q 1.03125,-1.578125 2.42187,-2.359375 1.40625,-0.78125 3.23438,-0.78125 3.01562,0 4.5625,1.875 1.54687,1.859375 1.54687,5.484375 z" />
    <path
       id="path69"
       style="fill:#ff0000"
       d="M 228.125,55.15625 V 45.6875 H 231 V 70 h -2.875 v -2.625 q -0.90625,1.5625 -2.29687,2.328125 -1.375,0.75 -3.3125,0.75 -3.17188,0 -5.17188,-2.53125 -1.98437,-2.53125 -1.98437,-6.65625 0,-4.125 1.98437,-6.65625 2,-2.53125 5.17188,-2.53125 1.9375,0 3.3125,0.765625 1.39062,0.75 2.29687,2.3125 z m -9.79687,6.109375 q 0,3.171875 1.29687,4.984375 1.3125,1.796875 3.59375,1.796875 2.28125,0 3.59375,-1.796875 1.3125,-1.8125 1.3125,-4.984375 0,-3.171875 -1.3125,-4.96875 -1.3125,-1.8125 -3.59375,-1.8125 -2.28125,0 -3.59375,1.8125 -1.29687,1.796875 -1.29687,4.96875 z" />
    <path
       id="path71"
       style="fill:#ff0000"
       d="m 236.92188,52.5 h 2.875 V 70 h -2.875 z m 0,-6.8125 h 2.875 v 3.640625 h -2.875 z" />
    <path
       id="path73"
       style="fill:#ff0000"
       d="m 258.39063,53.171875 v 2.6875 q -1.21875,-0.671875 -2.45313,-1 -1.21875,-0.34375 -2.46875,-0.34375 -2.79687,0 -4.34375,1.78125 -1.54687,1.765625 -1.54687,4.96875 0,3.203125 1.54687,4.984375 1.54688,1.765625 4.34375,1.765625 1.25,0 2.46875,-0.328125 1.23438,-0.34375 2.45313,-1.015625 v 2.65625 q -1.20313,0.5625 -2.5,0.84375 -1.28125,0.28125 -2.73438,0.28125 -3.95312,0 -6.28125,-2.484375 -2.32812,-2.484375 -2.32812,-6.703125 0,-4.28125 2.34375,-6.734375 2.35937,-2.453125 6.45312,-2.453125 1.32813,0 2.59375,0.28125 1.26563,0.265625 2.45313,0.8125 z" />
    <path
       id="path75"
       style="fill:#ff0000"
       d="m 271.375,61.203125 q -3.48437,0 -4.82812,0.796875 -1.34375,0.796875 -1.34375,2.71875 0,1.53125 1,2.4375 1.01562,0.890625 2.75,0.890625 2.39062,0 3.82812,-1.6875 1.45313,-1.703125 1.45313,-4.515625 v -0.640625 z m 5.73438,-1.1875 V 70 h -2.875 v -2.65625 q -0.98438,1.59375 -2.45313,2.359375 -1.46875,0.75 -3.59375,0.75 -2.6875,0 -4.28125,-1.5 -1.57812,-1.515625 -1.57812,-4.046875 0,-2.953125 1.96875,-4.453125 1.98437,-1.5 5.90625,-1.5 h 4.03125 v -0.28125 q 0,-1.984375 -1.3125,-3.0625 -1.29688,-1.09375 -3.65625,-1.09375 -1.5,0 -2.92188,0.359375 -1.42187,0.359375 -2.73437,1.078125 v -2.65625 q 1.57812,-0.609375 3.0625,-0.90625 1.48437,-0.3125 2.89062,-0.3125 3.79688,0 5.67188,1.96875 1.875,1.96875 1.875,5.96875 z" />
    <path
       id="path77"
       style="fill:#ff0000"
       d="M 285.89063,47.53125 V 52.5 h 5.92187 v 2.234375 h -5.92187 v 9.5 q 0,2.140625 0.57812,2.75 0.59375,0.609375 2.39063,0.609375 h 2.95312 V 70 h -2.95312 q -3.32813,0 -4.59375,-1.234375 Q 283,67.515625 283,64.234375 v -9.5 h -2.10937 V 52.5 H 283 v -4.96875 z" />
    <path
       id="path79"
       style="fill:#ff0000"
       d="m 302.39063,54.515625 q -2.3125,0 -3.65625,1.8125 -1.34375,1.796875 -1.34375,4.9375 0,3.140625 1.32812,4.953125 1.34375,1.796875 3.67188,1.796875 2.29687,0 3.64062,-1.8125 1.34375,-1.8125 1.34375,-4.9375 0,-3.109375 -1.34375,-4.921875 -1.34375,-1.828125 -3.64062,-1.828125 z m 0,-2.4375 q 3.75,0 5.89062,2.4375 2.14063,2.4375 2.14063,6.75 0,4.296875 -2.14063,6.75 -2.14062,2.4375 -5.89062,2.4375 -3.76563,0 -5.90625,-2.4375 -2.125,-2.453125 -2.125,-6.75 0,-4.3125 2.125,-6.75 2.14062,-2.4375 5.90625,-2.4375 z" />
    <path
       id="path81"
       style="fill:#ff0000"
       d="m 325.3125,55.1875 q -0.48437,-0.28125 -1.0625,-0.40625 -0.5625,-0.140625 -1.25,-0.140625 -2.4375,0 -3.75,1.59375 -1.29687,1.578125 -1.29687,4.546875 V 70 H 315.0625 V 52.5 h 2.89063 v 2.71875 q 0.90625,-1.59375 2.35937,-2.359375 1.45313,-0.78125 3.53125,-0.78125 0.29688,0 0.65625,0.04688 0.35938,0.03125 0.79688,0.109375 z" />
    <path
       id="path83"
       style="fill:#ff0000"
       d="m 339.51563,53.015625 v 2.71875 q -1.21875,-0.625 -2.53125,-0.9375 -1.3125,-0.3125 -2.71875,-0.3125 -2.14063,0 -3.21875,0.65625 -1.0625,0.65625 -1.0625,1.96875 0,1 0.76562,1.578125 0.76563,0.5625 3.07813,1.078125 l 0.98437,0.21875 q 3.0625,0.65625 4.34375,1.859375 1.29688,1.1875 1.29688,3.328125 0,2.4375 -1.9375,3.859375 -1.92188,1.421875 -5.29688,1.421875 -1.40625,0 -2.9375,-0.28125 -1.51562,-0.265625 -3.20312,-0.8125 v -2.96875 q 1.59375,0.828125 3.14062,1.25 1.54688,0.40625 3.0625,0.40625 2.03125,0 3.125,-0.6875 1.09375,-0.703125 1.09375,-1.96875 0,-1.171875 -0.79687,-1.796875 -0.78125,-0.625 -3.45313,-1.203125 l -1,-0.234375 q -2.67187,-0.5625 -3.85937,-1.71875 -1.1875,-1.171875 -1.1875,-3.203125 0,-2.46875 1.75,-3.8125 1.75,-1.34375 4.96875,-1.34375 1.59375,0 3,0.234375 1.40625,0.234375 2.59375,0.703125 z" />
    <path
       id="path85"
       style="fill:#ff0000"
       d="M 345.45313,66.03125 H 348.75 V 70 h -3.29687 z" />
    <path
       id="path87"
       style="fill:#ff0000"
       d="m 355.23438,45.6875 h 2.875 V 70 h -2.875 z" />
    <path
       id="path89"
       style="fill:#ff0000"
       d="m 372.0625,61.203125 q -3.48437,0 -4.82812,0.796875 -1.34375,0.796875 -1.34375,2.71875 0,1.53125 1,2.4375 1.01562,0.890625 2.75,0.890625 2.39062,0 3.82812,-1.6875 1.45313,-1.703125 1.45313,-4.515625 v -0.640625 z m 5.73438,-1.1875 V 70 h -2.875 v -2.65625 q -0.98438,1.59375 -2.45313,2.359375 -1.46875,0.75 -3.59375,0.75 -2.6875,0 -4.28125,-1.5 -1.57812,-1.515625 -1.57812,-4.046875 0,-2.953125 1.96875,-4.453125 1.98437,-1.5 5.90625,-1.5 h 4.03125 v -0.28125 q 0,-1.984375 -1.3125,-3.0625 -1.29688,-1.09375 -3.65625,-1.09375 -1.5,0 -2.92188,0.359375 -1.42187,0.359375 -2.73437,1.078125 v -2.65625 q 1.57812,-0.609375 3.0625,-0.90625 1.48437,-0.3125 2.89062,-0.3125 3.79688,0 5.67188,1.96875 1.875,1.96875 1.875,5.96875 z" />
    <path
       id="path91"
       style="fill:#ff0000"
       d="m 396.29688,61.265625 q 0,-3.171875 -1.3125,-4.96875 -1.29688,-1.8125 -3.57813,-1.8125 -2.28125,0 -3.59375,1.8125 -1.29687,1.796875 -1.29687,4.96875 0,3.171875 1.29687,4.984375 1.3125,1.796875 3.59375,1.796875 2.28125,0 3.57813,-1.796875 1.3125,-1.8125 1.3125,-4.984375 z m -9.78125,-6.109375 q 0.90625,-1.5625 2.28125,-2.3125 1.39062,-0.765625 3.3125,-0.765625 3.1875,0 5.17187,2.53125 2,2.53125 2,6.65625 0,4.125 -2,6.65625 -1.98437,2.53125 -5.17187,2.53125 -1.92188,0 -3.3125,-0.75 -1.375,-0.765625 -2.28125,-2.328125 V 70 H 383.625 V 45.6875 h 2.89063 z" />
    <path
       id="path93"
       style="fill:#ff0000"
       d="m 419.01563,60.53125 v 1.40625 h -13.21875 q 0.1875,2.96875 1.78125,4.53125 1.60937,1.546875 4.46875,1.546875 1.65625,0 3.20312,-0.40625 1.5625,-0.40625 3.09375,-1.21875 v 2.71875 q -1.54687,0.65625 -3.17187,1 -1.625,0.34375 -3.29688,0.34375 -4.1875,0 -6.64062,-2.4375 -2.4375,-2.4375 -2.4375,-6.59375 0,-4.296875 2.3125,-6.8125 2.32812,-2.53125 6.26562,-2.53125 3.53125,0 5.57813,2.28125 2.0625,2.265625 2.0625,6.171875 z m -2.875,-0.84375 q -0.0312,-2.359375 -1.32813,-3.765625 -1.28125,-1.40625 -3.40625,-1.40625 -2.40625,0 -3.85937,1.359375 -1.4375,1.359375 -1.65625,3.828125 z" />
    <path
       id="path95"
       style="fill:#ff0000"
       d="m 423.73438,45.6875 h 2.875 V 70 h -2.875 z" />
    <path
       id="path97"
       style="fill:#ff0000"
       d="M 435.45313,47.53125 V 52.5 h 5.92187 v 2.234375 h -5.92187 v 9.5 q 0,2.140625 0.57812,2.75 0.59375,0.609375 2.39063,0.609375 H 441.375 V 70 h -2.95312 q -3.32813,0 -4.59375,-1.234375 -1.26563,-1.25 -1.26563,-4.53125 v -9.5 h -2.10937 V 52.5 h 2.10937 v -4.96875 z" />
    <path
       id="path99"
       style="fill:#ff0000"
       d="M 459.71875,52.5 453.39063,61.015625 460.04688,70 h -3.39063 L 451.5625,63.125 446.46875,70 h -3.39062 L 449.875,60.84375 443.65625,52.5 h 3.39063 L 451.6875,58.734375 456.32813,52.5 Z" />
    <path
       id="path101"
       style="fill:#ff0000"
       d="M 466.95313,47.53125 V 52.5 h 5.92187 v 2.234375 h -5.92187 v 9.5 q 0,2.140625 0.57812,2.75 0.59375,0.609375 2.39063,0.609375 H 472.875 V 70 h -2.95312 q -3.32813,0 -4.59375,-1.234375 -1.26563,-1.25 -1.26563,-4.53125 v -9.5 h -2.10937 V 52.5 h 2.10937 v -4.96875 z" />
    <path
       id="path103"
       style="fill:#ff0000"
       d="m 483.39063,45.6875 v 28.53125 h -6.625 V 71.984375 H 480.5 v -24.0625 h -3.73437 V 45.6875 Z" />
  </g>
</svg>
