<?xml version="1.0" encoding="UTF-8" standalone="no"?>
<svg
   xmlns:dc="http://purl.org/dc/elements/1.1/"
   xmlns:cc="http://creativecommons.org/ns#"
   xmlns:rdf="http://www.w3.org/1999/02/22-rdf-syntax-ns#"
   xmlns:svg="http://www.w3.org/2000/svg"
   xmlns="http://www.w3.org/2000/svg"
   id="svg69"
   stroke-miterlimit="10"
   stroke-linecap="square"
   stroke="none"
   fill="none"
   viewBox="0.0 0.0 348.0 348.0"
   version="1.1">
  <metadata
     id="metadata75">
    <rdf:RDF>
      <cc:Work
         rdf:about="">
        <dc:format>image/svg+xml</dc:format>
        <dc:type
           rdf:resource="http://purl.org/dc/dcmitype/StillImage" />
      </cc:Work>
    </rdf:RDF>
  </metadata>
  <defs
     id="defs73" />
  <clipPath
     id="p.0">
    <path
       id="path2"
       clip-rule="nonzero"
       d="m0 0l348.0 0l0 348.0l-348.0 0l0 -348.0z" />
  </clipPath>
  <g
     id="g63"
     clip-path="url(#p.0)">
    <path
       style="fill:#000000;fill-opacity:0;fill-rule:nonzero"
       id="path5"
       d="M 0,0 H 348 V 348 H 0 Z" />
    <path
       style="fill:#ffffff;fill-rule:nonzero"
       id="path7"
       d="M -6,0 H 342 V 347.9685 H -6 Z" />
    <path
       style="fill:#000000;fill-opacity:0;fill-rule:nonzero"
       id="path9"
       d="m 5.07874,5.7758217 h 336.9134 V 343.44512 H 5.07874 Z" />
    <path
       style="fill-rule:nonzero;stroke:#000000;stroke-width:2;stroke-linecap:butt;stroke-linejoin:round"
       id="path11"
       d="m 5.07874,5.7758217 h 336.9134 V 343.44512 H 5.07874 Z" />
    <path
       style="fill:#ffffff;fill-rule:nonzero"
       id="path13"
       d="M 17.036913,71.17821 H 242.42274 V 306.51679 H 17.036913 Z" />
    <path
       style="fill-rule:nonzero;stroke:#000000;stroke-width:2;stroke-linecap:butt;stroke-linejoin:round"
       id="path15"
       d="M 17.036913,71.17821 H 242.42274 V 306.51679 H 17.036913 Z" />
    <path
       style="fill:#000000;fill-rule:nonzero"
       id="path17"
       d="m 273.45645,109.96049 h 46.2677 v 196.56694 h -46.2677 z" />
    <path
       style="fill-rule:nonzero;stroke:#000000;stroke-width:2;stroke-linecap:butt;stroke-linejoin:round"
       id="path19"
       d="m 273.45645,109.96049 h 46.2677 v 196.56694 h -46.2677 z" />
    <path
       style="fill:#ffffff;fill-rule:nonzero"
       id="path21"
       d="m 282.73444,40.553925 v 0 c 0,-8.375591 6.96603,-15.165352 15.55905,-15.165352 v 0 c 4.12653,0 8.08402,1.597773 11.00192,4.441828 2.91788,2.844057 4.55713,6.701422 4.55713,10.723524 v 0 c 0,8.375595 -6.966,15.165356 -15.55905,15.165356 v 0 c -8.59302,0 -15.55905,-6.789761 -15.55905,-15.165356 z" />
    <path
       style="fill-rule:nonzero;stroke:#000000;stroke-width:2;stroke-linecap:butt;stroke-linejoin:round"
       id="path23"
       d="m 282.73444,40.553925 v 0 c 0,-8.375591 6.96603,-15.165352 15.55905,-15.165352 v 0 c 4.12653,0 8.08402,1.597773 11.00192,4.441828 2.91788,2.844057 4.55713,6.701422 4.55713,10.723524 v 0 c 0,8.375595 -6.966,15.165356 -15.55905,15.165356 v 0 c -8.59302,0 -15.55905,-6.789761 -15.55905,-15.165356 z" />
    <path
       style="fill:#ffffff;fill-rule:nonzero"
       id="path25"
       d="m 31.55643,188.84772 v 0 c 0,-54.95016 43.953648,-99.49606 98.17323,-99.49606 v 0 c 26.03716,0 51.00789,10.48259 69.41894,29.14172 18.41106,18.65914 28.75428,43.96634 28.75428,70.35434 v 0 c 0,54.95017 -43.95365,99.49606 -98.17322,99.49606 v 0 c -54.219583,0 -98.173233,-44.5459 -98.173233,-99.49606 z" />
    <path
       style="fill-rule:nonzero;stroke:#000000;stroke-width:2;stroke-linecap:butt;stroke-linejoin:round"
       id="path27"
       d="m 31.55643,188.84772 v 0 c 0,-54.95016 43.953648,-99.49606 98.17323,-99.49606 v 0 c 26.03716,0 51.00789,10.48259 69.41894,29.14172 18.41106,18.65914 28.75428,43.96634 28.75428,70.35434 v 0 c 0,54.95017 -43.95365,99.49606 -98.17322,99.49606 v 0 c -54.219583,0 -98.173233,-44.5459 -98.173233,-99.49606 z" />
    <path
       style="fill:#000000;fill-opacity:0;fill-rule:nonzero"
       id="path29"
       d="m 45.42257,153.48425 h 202.51968 v 70.67717 H 45.42257 Z" />
    <path
       style="fill:#000000;fill-opacity:0;fill-rule:nonzero"
       id="path31"
       d="M 40.969852,95.99732 H 218.89111 v 185.7008 H 40.969852 Z" />
    <path
       style="fill-rule:nonzero;stroke:#000000;stroke-width:1;stroke-linecap:butt;stroke-linejoin:round"
       id="path33"
       d="M 40.969852,95.99732 H 218.89111 v 185.7008 H 40.969852 Z" />
    <path
       style="fill:#000000;fill-opacity:0;fill-rule:nonzero"
       id="path35"
       d="M 17.708662,72.89501 41.173229,95.950132" />
    <path
       style="fill-rule:nonzero;stroke:#000000;stroke-width:1;stroke-linecap:butt;stroke-linejoin:round"
       id="path37"
       d="M 17.708662,72.89501 41.173229,95.950132" />
    <path
       style="fill:#000000;fill-opacity:0;fill-rule:nonzero"
       id="path39"
       d="m 219.0971,281.69553 23.08662,24.28348" />
    <path
       style="fill-rule:nonzero;stroke:#000000;stroke-width:1;stroke-linecap:butt;stroke-linejoin:round"
       id="path41"
       d="m 219.0971,281.69553 23.08662,24.28348" />
    <path
       style="fill:#000000;fill-opacity:0;fill-rule:nonzero"
       id="path43"
       d="M 242.15749,72.89501 219.51181,95.950132" />
    <path
       style="fill-rule:nonzero;stroke:#000000;stroke-width:1;stroke-linecap:butt;stroke-linejoin:round"
       id="path45"
       d="M 242.15749,72.89501 219.51181,95.950132" />
    <path
       style="fill:#000000;fill-opacity:0;fill-rule:nonzero"
       id="path47"
       d="M 40.76378,281.70078 18.11811,304.75592" />
    <path
       style="fill-rule:nonzero;stroke:#000000;stroke-width:1;stroke-linecap:butt;stroke-linejoin:round"
       id="path49"
       d="M 40.76378,281.70078 18.11811,304.75592" />
    <path
       style="fill:#000000;fill-opacity:0;fill-rule:nonzero"
       id="path51"
       d="M 55.18635,58.892387 H 81.139105 V 71.17585 H 55.18635 Z" />
    <path
       style="fill-rule:nonzero;stroke:#000000;stroke-width:2;stroke-linecap:butt;stroke-linejoin:round"
       id="path53"
       d="M 55.18635,58.892387 H 81.139105 V 71.17585 H 55.18635 Z" />
    <path
       style="fill:#000000;fill-opacity:0;fill-rule:nonzero"
       id="path55"
       d="m 180.33595,58.892387 h 25.95276 V 71.17585 h -25.95276 z" />
    <path
       style="fill-rule:nonzero;stroke:#000000;stroke-width:2;stroke-linecap:butt;stroke-linejoin:round"
       id="path57"
       d="m 180.33595,58.892387 h 25.95276 V 71.17585 h -25.95276 z" />
    <path
       style="fill:#000000;fill-opacity:0;fill-rule:nonzero"
       id="path59"
       d="m 84.14173,63.422573 h 92.25196 v 7.748028 H 84.14173 Z" />
    <path
       style="fill-rule:nonzero;stroke:#000000;stroke-width:2;stroke-linecap:butt;stroke-linejoin:round"
       id="path61"
       d="m 84.14173,63.422573 h 92.25196 v 7.748028 H 84.14173 Z" />
  </g>
  <g
     id="text67"
     style="font-size:8.39999962px;font-family:sans-serif;text-anchor:middle;fill:#000000"
     aria-label="[MISSING: Manual/bigbutton.moduleicontext]">
    <path
       id="path77"
       style="fill:#ff0000"
       d="m 36.713286,179.81797 h 1.739062 v 0.58652 h -0.984375 v 6.31641 h 0.984375 v 0.58652 h -1.739062 z" />
    <path
       id="path79"
       style="fill:#ff0000"
       d="m 40.097074,180.07636 h 1.234571 l 1.562695,4.16719 1.570898,-4.16719 h 1.23457 V 186.2 h -0.808007 v -5.37715 l -1.579102,4.2 h -0.832617 l -1.579101,-4.2 V 186.2 h -0.803907 z" />
    <path
       id="path81"
       style="fill:#ff0000"
       d="m 47.348637,180.07636 h 0.828515 V 186.2 h -0.828515 z" />
    <path
       id="path83"
       style="fill:#ff0000"
       d="m 53.496879,180.27734 v 0.80801 q -0.47168,-0.22559 -0.890039,-0.33633 -0.41836,-0.11074 -0.808008,-0.11074 -0.676758,0 -1.045899,0.2625 -0.365039,0.2625 -0.365039,0.74648 0,0.40606 0.241992,0.61524 0.246094,0.20508 0.926954,0.33222 l 0.50039,0.10254 q 0.926953,0.17637 1.36582,0.62344 0.442969,0.44297 0.442969,1.18945 0,0.89004 -0.598828,1.34942 -0.594726,0.45937 -1.747265,0.45937 -0.434766,0 -0.926954,-0.0984 -0.488085,-0.0984 -1.013085,-0.29121 v -0.85312 q 0.504492,0.28301 0.988476,0.42656 0.483984,0.14356 0.951563,0.14356 0.70957,0 1.095117,-0.27891 0.385546,-0.27891 0.385546,-0.7957 0,-0.45118 -0.278906,-0.70547 -0.274804,-0.2543 -0.906445,-0.38145 l -0.504492,-0.0984 q -0.926953,-0.18458 -1.341211,-0.57833 -0.414258,-0.39375 -0.414258,-1.09511 0,-0.81211 0.570117,-1.27969 0.574219,-0.46758 1.579102,-0.46758 0.430664,0 0.877734,0.0779 0.44707,0.0779 0.914649,0.23379 z" />
    <path
       id="path85"
       style="fill:#ff0000"
       d="m 58.828909,180.27734 v 0.80801 q -0.47168,-0.22559 -0.890039,-0.33633 -0.41836,-0.11074 -0.808008,-0.11074 -0.676758,0 -1.045898,0.2625 -0.365039,0.2625 -0.365039,0.74648 0,0.40606 0.241992,0.61524 0.246094,0.20508 0.926953,0.33222 l 0.50039,0.10254 q 0.926954,0.17637 1.365821,0.62344 0.442968,0.44297 0.442968,1.18945 0,0.89004 -0.598828,1.34942 -0.594726,0.45937 -1.747265,0.45937 -0.434766,0 -0.926953,-0.0984 -0.488086,-0.0984 -1.013086,-0.29121 v -0.85312 q 0.504492,0.28301 0.988476,0.42656 0.483985,0.14356 0.951563,0.14356 0.70957,0 1.095117,-0.27891 0.385547,-0.27891 0.385547,-0.7957 0,-0.45118 -0.278906,-0.70547 -0.274805,-0.2543 -0.906446,-0.38145 l -0.504492,-0.0984 q -0.926953,-0.18458 -1.341211,-0.57833 -0.414258,-0.39375 -0.414258,-1.09511 0,-0.81211 0.570118,-1.27969 0.574218,-0.46758 1.579101,-0.46758 0.430664,0 0.877734,0.0779 0.447071,0.0779 0.914649,0.23379 z" />
    <path
       id="path87"
       style="fill:#ff0000"
       d="m 60.490042,180.07636 h 0.828515 V 186.2 h -0.828515 z" />
    <path
       id="path89"
       style="fill:#ff0000"
       d="m 62.967384,180.07636 h 1.115625 l 2.715235,5.12286 v -5.12286 H 67.60215 V 186.2 h -1.115625 l -2.715234,-5.12285 V 186.2 h -0.803907 z" />
    <path
       id="path91"
       style="fill:#ff0000"
       d="m 73.426369,185.32636 v -1.64472 h -1.353516 v -0.68086 h 2.173828 v 2.6291 q -0.479882,0.34043 -1.058203,0.5168 -0.57832,0.17226 -1.23457,0.17226 -1.435547,0 -2.247656,-0.83672 -0.808008,-0.84082 -0.808008,-2.33789 0,-1.50117 0.808008,-2.33789 0.812109,-0.84082 2.247656,-0.84082 0.598828,0 1.136133,0.14766 0.541406,0.14765 0.99668,0.43476 v 0.88184 q -0.459375,-0.38965 -0.976172,-0.58652 -0.516797,-0.19688 -1.086914,-0.19688 -1.123828,0 -1.689844,0.62754 -0.561914,0.62754 -0.561914,1.87031 0,1.23867 0.561914,1.86621 0.566016,0.62754 1.689844,0.62754 0.438867,0 0.783398,-0.0738 0.344531,-0.0779 0.619336,-0.23789 z" />
    <path
       id="path93"
       style="fill:#ff0000"
       d="m 75.924222,185.1582 h 0.86543 V 186.2 h -0.86543 z m 0,-3.30176 h 0.86543 v 1.0418 h -0.86543 z" />
    <path
       id="path95"
       style="fill:#ff0000"
       d="m 81.276758,180.07636 h 1.234571 l 1.562695,4.16719 1.570898,-4.16719 h 1.23457 V 186.2 h -0.808007 v -5.37715 l -1.579102,4.2 h -0.832617 l -1.579102,-4.2 V 186.2 h -0.803906 z" />
    <path
       id="path97"
       style="fill:#ff0000"
       d="m 90.583205,183.89082 q -0.914648,0 -1.267383,0.20918 -0.352734,0.20918 -0.352734,0.71367 0,0.40195 0.2625,0.63984 0.266601,0.23379 0.721875,0.23379 0.627539,0 1.004883,-0.44297 0.381445,-0.44707 0.381445,-1.18535 v -0.16816 z m 1.505273,-0.31172 V 186.2 h -0.754687 v -0.69727 q -0.258399,0.41836 -0.643945,0.61934 -0.385547,0.19687 -0.94336,0.19687 -0.705468,0 -1.123828,-0.39375 -0.414258,-0.39785 -0.414258,-1.0623 0,-0.7752 0.516797,-1.16895 0.520899,-0.39375 1.550391,-0.39375 h 1.058203 v -0.0738 q 0,-0.52089 -0.344531,-0.8039 -0.34043,-0.28711 -0.959766,-0.28711 -0.39375,0 -0.766992,0.0943 -0.373242,0.0943 -0.717773,0.28301 v -0.69726 q 0.414257,-0.15996 0.803906,-0.23789 0.389648,-0.082 0.758789,-0.082 0.996679,0 1.488867,0.5168 0.492187,0.5168 0.492187,1.5668 z" />
    <path
       id="path99"
       style="fill:#ff0000"
       d="M 97.465626,183.42734 V 186.2 h -0.754687 v -2.74805 q 0,-0.65215 -0.254297,-0.97617 -0.254297,-0.32403 -0.762891,-0.32403 -0.611133,0 -0.963867,0.38965 -0.352734,0.38965 -0.352734,1.06231 V 186.2 h -0.758789 v -4.59375 h 0.758789 v 0.71367 q 0.270703,-0.41426 0.635742,-0.61934 0.36914,-0.20508 0.849023,-0.20508 0.791602,0 1.197656,0.49219 0.406055,0.48809 0.406055,1.43965 z" />
    <path
       id="path101"
       style="fill:#ff0000"
       d="m 98.901173,184.38711 v -2.78086 h 0.754688 v 2.75215 q 0,0.65214 0.254296,0.98027 0.254293,0.32402 0.762893,0.32402 0.61113,0 0.96387,-0.38965 0.35683,-0.38964 0.35683,-1.0623 v -2.60449 h 0.75469 V 186.2 h -0.75469 v -0.70547 q -0.2748,0.41836 -0.63984,0.62344 -0.36094,0.20097 -0.84082,0.20097 -0.791604,0 -1.201761,-0.49219 -0.410156,-0.49218 -0.410156,-1.43964 z m 1.899027,-2.89161 z" />
    <path
       id="path103"
       style="fill:#ff0000"
       d="m 106.39883,183.89082 q -0.91465,0 -1.26738,0.20918 -0.35274,0.20918 -0.35274,0.71367 0,0.40195 0.2625,0.63984 0.2666,0.23379 0.72188,0.23379 0.62754,0 1.00488,-0.44297 0.38145,-0.44707 0.38145,-1.18535 v -0.16816 z m 1.50527,-0.31172 V 186.2 h -0.75468 v -0.69727 q -0.2584,0.41836 -0.64395,0.61934 -0.38555,0.19687 -0.94336,0.19687 -0.70547,0 -1.12383,-0.39375 -0.41426,-0.39785 -0.41426,-1.0623 0,-0.7752 0.5168,-1.16895 0.5209,-0.39375 1.55039,-0.39375 h 1.05821 v -0.0738 q 0,-0.52089 -0.34454,-0.8039 -0.34043,-0.28711 -0.95976,-0.28711 -0.39375,0 -0.76699,0.0943 -0.37325,0.0943 -0.71778,0.28301 v -0.69726 q 0.41426,-0.15996 0.80391,-0.23789 0.38965,-0.082 0.75879,-0.082 0.99668,0 1.48887,0.5168 0.49218,0.5168 0.49218,1.5668 z" />
    <path
       id="path105"
       style="fill:#ff0000"
       d="m 109.46269,179.81797 h 0.75469 V 186.2 h -0.75469 z" />
    <path
       id="path107"
       style="fill:#ff0000"
       d="m 113.13359,180.07636 h 0.69727 l -2.13281,6.90293 h -0.69727 z" />
    <path
       id="path109"
       style="fill:#ff0000"
       d="m 117.92832,183.90722 q 0,-0.83261 -0.34453,-1.30429 -0.34043,-0.47578 -0.93926,-0.47578 -0.59883,0 -0.94336,0.47578 -0.34043,0.47168 -0.34043,1.30429 0,0.83262 0.34043,1.3084 0.34453,0.47168 0.94336,0.47168 0.59883,0 0.93926,-0.47168 0.34453,-0.47578 0.34453,-1.3084 z m -2.56758,-1.60371 q 0.23789,-0.41015 0.59883,-0.60703 0.36504,-0.20098 0.86953,-0.20098 0.83672,0 1.35762,0.66446 0.525,0.66445 0.525,1.74726 0,1.08282 -0.525,1.74727 -0.5209,0.66445 -1.35762,0.66445 -0.50449,0 -0.86953,-0.19687 -0.36094,-0.20098 -0.59883,-0.61114 V 186.2 h -0.75879 v -6.38203 h 0.75879 z" />
    <path
       id="path111"
       style="fill:#ff0000"
       d="m 119.96269,181.60625 h 0.75469 V 186.2 h -0.75469 z m 0,-1.78828 h 0.75469 v 0.95566 h -0.75469 z" />
    <path
       id="path113"
       style="fill:#ff0000"
       d="m 125.31523,183.8498 q 0,-0.82031 -0.34043,-1.27148 -0.33633,-0.45117 -0.94746,-0.45117 -0.60703,0 -0.94746,0.45117 -0.33633,0.45117 -0.33633,1.27148 0,0.81621 0.33633,1.26738 0.34043,0.45118 0.94746,0.45118 0.61113,0 0.94746,-0.45118 0.34043,-0.45117 0.34043,-1.26738 z m 0.75469,1.78008 q 0,1.17305 -0.5209,1.74316 -0.5209,0.57422 -1.59551,0.57422 -0.39785,0 -0.75058,-0.0615 -0.35274,-0.0574 -0.68496,-0.18047 v -0.73418 q 0.33222,0.18047 0.65625,0.2666 0.32402,0.0861 0.66035,0.0861 0.74238,0 1.11152,-0.38965 0.36914,-0.38555 0.36914,-1.16895 v -0.37324 q -0.23379,0.40605 -0.59883,0.60703 -0.36503,0.20098 -0.87363,0.20098 -0.84492,0 -1.36172,-0.64395 -0.51679,-0.64394 -0.51679,-1.70625 0,-1.0664 0.51679,-1.71035 0.5168,-0.64395 1.36172,-0.64395 0.5086,0 0.87363,0.20098 0.36504,0.20098 0.59883,0.60703 v -0.69726 h 0.75469 z" />
    <path
       id="path115"
       style="fill:#ff0000"
       d="m 130.92207,183.90722 q 0,-0.83261 -0.34453,-1.30429 -0.34043,-0.47578 -0.93926,-0.47578 -0.59883,0 -0.94336,0.47578 -0.34043,0.47168 -0.34043,1.30429 0,0.83262 0.34043,1.3084 0.34453,0.47168 0.94336,0.47168 0.59883,0 0.93926,-0.47168 0.34453,-0.47578 0.34453,-1.3084 z m -2.56758,-1.60371 q 0.23789,-0.41015 0.59883,-0.60703 0.36504,-0.20098 0.86953,-0.20098 0.83672,0 1.35762,0.66446 0.525,0.66445 0.525,1.74726 0,1.08282 -0.525,1.74727 -0.5209,0.66445 -1.35762,0.66445 -0.50449,0 -0.86953,-0.19687 -0.36094,-0.20098 -0.59883,-0.61114 V 186.2 h -0.75879 v -6.38203 h 0.75879 z" />
    <path
       id="path117"
       style="fill:#ff0000"
       d="m 132.87851,184.38711 v -2.78086 h 0.75469 v 2.75215 q 0,0.65214 0.2543,0.98027 0.25429,0.32402 0.76289,0.32402 0.61113,0 0.96387,-0.38965 0.35683,-0.38964 0.35683,-1.0623 v -2.60449 h 0.75469 V 186.2 h -0.75469 v -0.70547 q -0.2748,0.41836 -0.63984,0.62344 -0.36094,0.20097 -0.84082,0.20097 -0.7916,0 -1.20176,-0.49219 -0.41016,-0.49218 -0.41016,-1.43964 z m 1.89903,-2.89161 z" />
    <path
       id="path119"
       style="fill:#ff0000"
       d="m 139.03496,180.30195 v 1.3043 h 1.55449 v 0.58652 h -1.55449 v 2.49375 q 0,0.56191 0.15176,0.72188 0.15586,0.15996 0.62754,0.15996 h 0.77519 V 186.2 h -0.77519 q -0.87364,0 -1.20586,-0.32403 -0.33223,-0.32812 -0.33223,-1.18945 v -2.49375 h -0.55371 v -0.58652 h 0.55371 v -1.3043 z" />
    <path
       id="path121"
       style="fill:#ff0000"
       d="m 142.33261,180.30195 v 1.3043 h 1.55449 v 0.58652 h -1.55449 v 2.49375 q 0,0.56191 0.15176,0.72188 0.15586,0.15996 0.62754,0.15996 h 0.77519 V 186.2 h -0.77519 q -0.87363,0 -1.20586,-0.32403 -0.33223,-0.32812 -0.33223,-1.18945 v -2.49375 h -0.55371 v -0.58652 h 0.55371 v -1.3043 z" />
    <path
       id="path123"
       style="fill:#ff0000"
       d="m 146.66387,182.13535 q -0.60703,0 -0.95977,0.47578 -0.35273,0.47168 -0.35273,1.29609 0,0.82442 0.34863,1.3002 0.35273,0.47168 0.96387,0.47168 0.60293,0 0.95566,-0.47578 0.35274,-0.47578 0.35274,-1.2961 0,-0.81621 -0.35274,-1.29199 -0.35273,-0.47988 -0.95566,-0.47988 z m 0,-0.63985 q 0.98437,0 1.54629,0.63985 0.56191,0.63984 0.56191,1.77187 0,1.12793 -0.56191,1.77188 -0.56192,0.63984 -1.54629,0.63984 -0.98848,0 -1.55039,-0.63984 -0.55782,-0.64395 -0.55782,-1.77188 0,-1.13203 0.55782,-1.77187 0.56191,-0.63985 1.55039,-0.63985 z" />
    <path
       id="path125"
       style="fill:#ff0000"
       d="M 153.8375,183.42734 V 186.2 h -0.75469 v -2.74805 q 0,-0.65215 -0.2543,-0.97617 -0.25429,-0.32403 -0.76289,-0.32403 -0.61113,0 -0.96386,0.38965 -0.35274,0.38965 -0.35274,1.06231 V 186.2 h -0.75879 v -4.59375 h 0.75879 v 0.71367 q 0.2707,-0.41426 0.63574,-0.61934 0.36914,-0.20508 0.84903,-0.20508 0.7916,0 1.19765,0.49219 0.40606,0.48809 0.40606,1.43965 z" />
    <path
       id="path127"
       style="fill:#ff0000"
       d="m 155.45762,185.1582 h 0.86543 V 186.2 h -0.86543 z" />
    <path
       id="path129"
       style="fill:#ff0000"
       d="m 161.60175,182.48808 q 0.28301,-0.50859 0.67676,-0.75058 0.39375,-0.242 0.92696,-0.242 0.71777,0 1.10742,0.5045 0.38965,0.50039 0.38965,1.42734 V 186.2 h -0.75879 v -2.74805 q 0,-0.66035 -0.23379,-0.98027 -0.23379,-0.31993 -0.71367,-0.31993 -0.58653,0 -0.92696,0.38965 -0.34043,0.38965 -0.34043,1.06231 V 186.2 h -0.75879 v -2.74805 q 0,-0.66445 -0.23379,-0.98027 -0.23378,-0.31993 -0.72187,-0.31993 -0.57832,0 -0.91875,0.39375 -0.34043,0.38965 -0.34043,1.05821 V 186.2 h -0.75879 v -4.59375 h 0.75879 v 0.71367 q 0.2584,-0.42246 0.61934,-0.62344 0.36093,-0.20098 0.85722,-0.20098 0.50039,0 0.84903,0.2543 0.35273,0.2543 0.52089,0.73828 z" />
    <path
       id="path131"
       style="fill:#ff0000"
       d="m 167.99198,182.13535 q -0.60703,0 -0.95976,0.47578 -0.35274,0.47168 -0.35274,1.29609 0,0.82442 0.34864,1.3002 0.35273,0.47168 0.96386,0.47168 0.60293,0 0.95567,-0.47578 0.35273,-0.47578 0.35273,-1.2961 0,-0.81621 -0.35273,-1.29199 -0.35274,-0.47988 -0.95567,-0.47988 z m 0,-0.63985 q 0.98438,0 1.54629,0.63985 0.56192,0.63984 0.56192,1.77187 0,1.12793 -0.56192,1.77188 -0.56191,0.63984 -1.54629,0.63984 -0.98847,0 -1.55039,-0.63984 -0.55781,-0.64395 -0.55781,-1.77188 0,-1.13203 0.55781,-1.77187 0.56192,-0.63985 1.55039,-0.63985 z" />
    <path
       id="path133"
       style="fill:#ff0000"
       d="m 174.36992,182.30351 v -2.48554 h 0.75469 V 186.2 h -0.75469 v -0.68907 q -0.23789,0.41016 -0.60293,0.61114 -0.36094,0.19687 -0.86953,0.19687 -0.83262,0 -1.35762,-0.66445 -0.5209,-0.66445 -0.5209,-1.74727 0,-1.08281 0.5209,-1.74726 0.525,-0.66446 1.35762,-0.66446 0.50859,0 0.86953,0.20098 0.36504,0.19688 0.60293,0.60703 z m -2.57168,1.60371 q 0,0.83262 0.34043,1.3084 0.34453,0.47168 0.94336,0.47168 0.59883,0 0.94336,-0.47168 0.34453,-0.47578 0.34453,-1.3084 0,-0.83261 -0.34453,-1.30429 -0.34453,-0.47578 -0.94336,-0.47578 -0.59883,0 -0.94336,0.47578 -0.34043,0.47168 -0.34043,1.30429 z" />
    <path
       id="path135"
       style="fill:#ff0000"
       d="m 176.60117,184.38711 v -2.78086 h 0.75469 v 2.75215 q 0,0.65214 0.25429,0.98027 0.2543,0.32402 0.76289,0.32402 0.61114,0 0.96387,-0.38965 0.35684,-0.38964 0.35684,-1.0623 v -2.60449 h 0.75469 V 186.2 h -0.75469 v -0.70547 q -0.27481,0.41836 -0.63985,0.62344 -0.36093,0.20097 -0.84082,0.20097 -0.7916,0 -1.20175,-0.49219 -0.41016,-0.49218 -0.41016,-1.43964 z m 1.89902,-2.89161 z" />
    <path
       id="path137"
       style="fill:#ff0000"
       d="m 182.01113,179.81797 h 0.75469 V 186.2 h -0.75469 z" />
    <path
       id="path139"
       style="fill:#ff0000"
       d="m 188.27011,183.71445 v 0.36914 h -3.46992 q 0.0492,0.7793 0.46758,1.18945 0.42246,0.40606 1.17304,0.40606 0.43477,0 0.84082,-0.10664 0.41016,-0.10664 0.81211,-0.31992 v 0.71367 q -0.40605,0.17226 -0.83262,0.2625 -0.42656,0.0902 -0.86542,0.0902 -1.09922,0 -1.74317,-0.63984 -0.63984,-0.63985 -0.63984,-1.73086 0,-1.12793 0.60703,-1.78828 0.61113,-0.66446 1.64473,-0.66446 0.92695,0 1.46425,0.59883 0.54141,0.59473 0.54141,1.62012 z m -0.75469,-0.22148 q -0.008,-0.61934 -0.34863,-0.98848 -0.33633,-0.36914 -0.89414,-0.36914 -0.63164,0 -1.01309,0.35683 -0.37734,0.35684 -0.43476,1.00489 z" />
    <path
       id="path141"
       style="fill:#ff0000"
       d="m 189.50878,181.60625 h 0.75469 V 186.2 h -0.75469 z m 0,-1.78828 h 0.75469 v 0.95566 h -0.75469 z" />
    <path
       id="path143"
       style="fill:#ff0000"
       d="m 195.14434,181.78261 v 0.70547 q -0.31992,-0.17636 -0.64395,-0.2625 -0.31992,-0.0902 -0.64805,-0.0902 -0.73417,0 -1.14023,0.46758 -0.40605,0.46347 -0.40605,1.30429 0,0.84082 0.40605,1.3084 0.40606,0.46348 1.14023,0.46348 0.32813,0 0.64805,-0.0861 0.32403,-0.0902 0.64395,-0.26661 v 0.69727 q -0.31582,0.14766 -0.65625,0.22148 -0.33633,0.0738 -0.71778,0.0738 -1.03769,0 -1.64882,-0.65215 -0.61114,-0.65214 -0.61114,-1.75957 0,-1.12382 0.61524,-1.76777 0.61933,-0.64395 1.69394,-0.64395 0.34864,0 0.68086,0.0738 0.33223,0.0697 0.64395,0.21328 z" />
    <path
       id="path145"
       style="fill:#ff0000"
       d="m 198.24511,182.13535 q -0.60703,0 -0.95976,0.47578 -0.35274,0.47168 -0.35274,1.29609 0,0.82442 0.34864,1.3002 0.35273,0.47168 0.96386,0.47168 0.60293,0 0.95567,-0.47578 0.35273,-0.47578 0.35273,-1.2961 0,-0.81621 -0.35273,-1.29199 -0.35274,-0.47988 -0.95567,-0.47988 z m 0,-0.63985 q 0.98438,0 1.54629,0.63985 0.56192,0.63984 0.56192,1.77187 0,1.12793 -0.56192,1.77188 -0.56191,0.63984 -1.54629,0.63984 -0.98847,0 -1.55039,-0.63984 -0.55781,-0.64395 -0.55781,-1.77188 0,-1.13203 0.55781,-1.77187 0.56192,-0.63985 1.55039,-0.63985 z" />
    <path
       id="path147"
       style="fill:#ff0000"
       d="M 205.41875,183.42734 V 186.2 h -0.75469 v -2.74805 q 0,-0.65215 -0.25429,-0.97617 -0.2543,-0.32403 -0.76289,-0.32403 -0.61114,0 -0.96387,0.38965 -0.35274,0.38965 -0.35274,1.06231 V 186.2 h -0.75878 v -4.59375 h 0.75878 v 0.71367 q 0.27071,-0.41426 0.63575,-0.61934 0.36914,-0.20508 0.84902,-0.20508 0.7916,0 1.19766,0.49219 0.40605,0.48809 0.40605,1.43965 z" />
    <path
       id="path149"
       style="fill:#ff0000"
       d="m 207.6787,180.30195 v 1.3043 h 1.55449 v 0.58652 h -1.55449 v 2.49375 q 0,0.56191 0.15175,0.72188 0.15586,0.15996 0.62754,0.15996 h 0.7752 V 186.2 h -0.7752 q -0.87363,0 -1.20586,-0.32403 -0.33222,-0.32812 -0.33222,-1.18945 v -2.49375 h -0.55371 v -0.58652 h 0.55371 v -1.3043 z" />
    <path
       id="path151"
       style="fill:#ff0000"
       d="m 214.15918,183.71445 v 0.36914 h -3.46992 q 0.0492,0.7793 0.46757,1.18945 0.42246,0.40606 1.17305,0.40606 0.43477,0 0.84082,-0.10664 0.41016,-0.10664 0.81211,-0.31992 v 0.71367 q -0.40605,0.17226 -0.83262,0.2625 -0.42656,0.0902 -0.86543,0.0902 -1.09921,0 -1.74316,-0.63984 -0.63984,-0.63985 -0.63984,-1.73086 0,-1.12793 0.60703,-1.78828 0.61113,-0.66446 1.64472,-0.66446 0.92696,0 1.46426,0.59883 0.54141,0.59473 0.54141,1.62012 z m -0.75469,-0.22148 q -0.008,-0.61934 -0.34863,-0.98848 -0.33633,-0.36914 -0.89414,-0.36914 -0.63164,0 -1.01309,0.35683 -0.37734,0.35684 -0.43476,1.00489 z" />
    <path
       id="path153"
       style="fill:#ff0000"
       d="m 219.06874,181.60625 -1.66113,2.23535 1.74727,2.3584 h -0.89004 l -1.33711,-1.80469 -1.33711,1.80469 h -0.89004 l 1.78418,-2.40352 -1.63242,-2.19023 h 0.89004 l 1.21816,1.63652 1.21817,-1.63652 z" />
    <path
       id="path155"
       style="fill:#ff0000"
       d="m 220.96776,180.30195 v 1.3043 h 1.55449 v 0.58652 h -1.55449 v 2.49375 q 0,0.56191 0.15176,0.72188 0.15586,0.15996 0.62754,0.15996 h 0.77519 V 186.2 h -0.77519 q -0.87364,0 -1.20586,-0.32403 -0.33223,-0.32812 -0.33223,-1.18945 v -2.49375 h -0.55371 v -0.58652 h 0.55371 v -1.3043 z" />
    <path
       id="path157"
       style="fill:#ff0000"
       d="m 225.28262,179.81797 v 7.48945 h -1.73907 v -0.58652 h 0.98028 v -6.31641 h -0.98028 v -0.58652 z" />
  </g>
</svg>
