<?xml version="1.0" encoding="UTF-8" standalone="no"?>
<svg
   xmlns:dc="http://purl.org/dc/elements/1.1/"
   xmlns:cc="http://creativecommons.org/ns#"
   xmlns:rdf="http://www.w3.org/1999/02/22-rdf-syntax-ns#"
   xmlns:svg="http://www.w3.org/2000/svg"
   xmlns="http://www.w3.org/2000/svg"
   id="svg69"
   stroke-miterlimit="10"
   stroke-linecap="square"
   stroke="none"
   fill="none"
   viewBox="0.0 0.0 348.0 348.0"
   version="1.1">
  <metadata
     id="metadata75">
    <rdf:RDF>
      <cc:Work
         rdf:about="">
        <dc:format>image/svg+xml</dc:format>
        <dc:type
           rdf:resource="http://purl.org/dc/dcmitype/StillImage" />
      </cc:Work>
    </rdf:RDF>
  </metadata>
  <defs
     id="defs73" />
  <clipPath
     id="p.0">
    <path
       id="path2"
       clip-rule="nonzero"
       d="m0 0l348.0 0l0 348.0l-348.0 0l0 -348.0z" />
  </clipPath>
  <g
     id="g63"
     clip-path="url(#p.0)">
    <path
       style="fill:#000000;fill-opacity:0;fill-rule:nonzero"
       id="path5"
       d="M 0,0 H 348 V 348 H 0 Z" />
    <path
       style="fill:#ffffff;fill-rule:nonzero"
       id="path7"
       d="M -6,0 H 342 V 347.9685 H -6 Z" />
    <path
       style="fill:#000000;fill-opacity:0;fill-rule:nonzero"
       id="path9"
       d="m 5.07874,5.7758217 h 336.9134 V 343.44512 H 5.07874 Z" />
    <path
       style="fill-rule:nonzero;stroke:#000000;stroke-width:2;stroke-linecap:butt;stroke-linejoin:round"
       id="path11"
       d="m 5.07874,5.7758217 h 336.9134 V 343.44512 H 5.07874 Z" />
    <path
       style="fill:#ffffff;fill-rule:nonzero"
       id="path13"
       d="M 17.036913,71.17821 H 242.42274 V 306.51679 H 17.036913 Z" />
    <path
       style="fill-rule:nonzero;stroke:#000000;stroke-width:2;stroke-linecap:butt;stroke-linejoin:round"
       id="path15"
       d="M 17.036913,71.17821 H 242.42274 V 306.51679 H 17.036913 Z" />
    <path
       style="fill:#000000;fill-rule:nonzero"
       id="path17"
       d="m 273.45645,109.96049 h 46.2677 v 196.56694 h -46.2677 z" />
    <path
       style="fill-rule:nonzero;stroke:#000000;stroke-width:2;stroke-linecap:butt;stroke-linejoin:round"
       id="path19"
       d="m 273.45645,109.96049 h 46.2677 v 196.56694 h -46.2677 z" />
    <path
       style="fill:#ffffff;fill-rule:nonzero"
       id="path21"
       d="m 282.73444,40.553925 v 0 c 0,-8.375591 6.96603,-15.165352 15.55905,-15.165352 v 0 c 4.12653,0 8.08402,1.597773 11.00192,4.441828 2.91788,2.844057 4.55713,6.701422 4.55713,10.723524 v 0 c 0,8.375595 -6.966,15.165356 -15.55905,15.165356 v 0 c -8.59302,0 -15.55905,-6.789761 -15.55905,-15.165356 z" />
    <path
       style="fill-rule:nonzero;stroke:#000000;stroke-width:2;stroke-linecap:butt;stroke-linejoin:round"
       id="path23"
       d="m 282.73444,40.553925 v 0 c 0,-8.375591 6.96603,-15.165352 15.55905,-15.165352 v 0 c 4.12653,0 8.08402,1.597773 11.00192,4.441828 2.91788,2.844057 4.55713,6.701422 4.55713,10.723524 v 0 c 0,8.375595 -6.966,15.165356 -15.55905,15.165356 v 0 c -8.59302,0 -15.55905,-6.789761 -15.55905,-15.165356 z" />
    <path
       style="fill:#ffffff;fill-rule:nonzero"
       id="path25"
       d="m 31.55643,188.84772 v 0 c 0,-54.95016 43.953648,-99.49606 98.17323,-99.49606 v 0 c 26.03716,0 51.00789,10.48259 69.41894,29.14172 18.41106,18.65914 28.75428,43.96634 28.75428,70.35434 v 0 c 0,54.95017 -43.95365,99.49606 -98.17322,99.49606 v 0 c -54.219583,0 -98.173233,-44.5459 -98.173233,-99.49606 z" />
    <path
       style="fill-rule:nonzero;stroke:#000000;stroke-width:2;stroke-linecap:butt;stroke-linejoin:round"
       id="path27"
       d="m 31.55643,188.84772 v 0 c 0,-54.95016 43.953648,-99.49606 98.17323,-99.49606 v 0 c 26.03716,0 51.00789,10.48259 69.41894,29.14172 18.41106,18.65914 28.75428,43.96634 28.75428,70.35434 v 0 c 0,54.95017 -43.95365,99.49606 -98.17322,99.49606 v 0 c -54.219583,0 -98.173233,-44.5459 -98.173233,-99.49606 z" />
    <path
       style="fill:#000000;fill-opacity:0;fill-rule:nonzero"
       id="path29"
       d="m 45.42257,153.48425 h 202.51968 v 70.67717 H 45.42257 Z" />
    <path
       style="fill:#000000;fill-opacity:0;fill-rule:nonzero"
       id="path31"
       d="M 40.969852,95.99732 H 218.89111 v 185.7008 H 40.969852 Z" />
    <path
       style="fill-rule:nonzero;stroke:#000000;stroke-width:1;stroke-linecap:butt;stroke-linejoin:round"
       id="path33"
       d="M 40.969852,95.99732 H 218.89111 v 185.7008 H 40.969852 Z" />
    <path
       style="fill:#000000;fill-opacity:0;fill-rule:nonzero"
       id="path35"
       d="M 17.708662,72.89501 41.173229,95.950132" />
    <path
       style="fill-rule:nonzero;stroke:#000000;stroke-width:1;stroke-linecap:butt;stroke-linejoin:round"
       id="path37"
       d="M 17.708662,72.89501 41.173229,95.950132" />
    <path
       style="fill:#000000;fill-opacity:0;fill-rule:nonzero"
       id="path39"
       d="m 219.0971,281.69553 23.08662,24.28348" />
    <path
       style="fill-rule:nonzero;stroke:#000000;stroke-width:1;stroke-linecap:butt;stroke-linejoin:round"
       id="path41"
       d="m 219.0971,281.69553 23.08662,24.28348" />
    <path
       style="fill:#000000;fill-opacity:0;fill-rule:nonzero"
       id="path43"
       d="M 242.15749,72.89501 219.51181,95.950132" />
    <path
       style="fill-rule:nonzero;stroke:#000000;stroke-width:1;stroke-linecap:butt;stroke-linejoin:round"
       id="path45"
       d="M 242.15749,72.89501 219.51181,95.950132" />
    <path
       style="fill:#000000;fill-opacity:0;fill-rule:nonzero"
       id="path47"
       d="M 40.76378,281.70078 18.11811,304.75592" />
    <path
       style="fill-rule:nonzero;stroke:#000000;stroke-width:1;stroke-linecap:butt;stroke-linejoin:round"
       id="path49"
       d="M 40.76378,281.70078 18.11811,304.75592" />
    <path
       style="fill:#000000;fill-opacity:0;fill-rule:nonzero"
       id="path51"
       d="M 55.18635,58.892387 H 81.139105 V 71.17585 H 55.18635 Z" />
    <path
       style="fill-rule:nonzero;stroke:#000000;stroke-width:2;stroke-linecap:butt;stroke-linejoin:round"
       id="path53"
       d="M 55.18635,58.892387 H 81.139105 V 71.17585 H 55.18635 Z" />
    <path
       style="fill:#000000;fill-opacity:0;fill-rule:nonzero"
       id="path55"
       d="m 180.33595,58.892387 h 25.95276 V 71.17585 h -25.95276 z" />
    <path
       style="fill-rule:nonzero;stroke:#000000;stroke-width:2;stroke-linecap:butt;stroke-linejoin:round"
       id="path57"
       d="m 180.33595,58.892387 h 25.95276 V 71.17585 h -25.95276 z" />
    <path
       style="fill:#000000;fill-opacity:0;fill-rule:nonzero"
       id="path59"
       d="m 84.14173,63.422573 h 92.25196 v 7.748028 H 84.14173 Z" />
    <path
       style="fill-rule:nonzero;stroke:#000000;stroke-width:2;stroke-linecap:butt;stroke-linejoin:round"
       id="path61"
       d="m 84.14173,63.422573 h 92.25196 v 7.748028 H 84.14173 Z" />
  </g>
  <g
     id="text67"
     style="font-size:42px;font-family:sans-serif;text-anchor:middle;fill:#000000"
     aria-label="[MISSING: Manual/bigbutton.moduleicontext]">
    <path
       id="path77"
       style="fill:#ff0000"
       d="m -340.43359,171.08984 h 8.69531 v 2.93262 h -4.92188 v 31.58203 h 4.92188 v 2.93262 h -8.69531 z" />
    <path
       id="path79"
       style="fill:#ff0000"
       d="m -323.51465,172.38184 h 6.17285 l 7.81348,20.83593 7.85449,-20.83593 h 6.17285 V 203 h -4.04004 v -26.88574 l -7.8955,21 h -4.16309 l -7.89551,-21 V 203 h -4.01953 z" />
    <path
       id="path81"
       style="fill:#ff0000"
       d="m -287.25684,172.38184 h 4.14258 V 203 h -4.14258 z" />
    <path
       id="path83"
       style="fill:#ff0000"
       d="m -256.51563,173.38672 v 4.04004 q -2.35839,-1.12793 -4.45019,-1.68164 -2.0918,-0.55371 -4.04004,-0.55371 -3.38379,0 -5.22949,1.3125 -1.8252,1.3125 -1.8252,3.73242 0,2.03027 1.20996,3.07617 1.23047,1.02539 4.63477,1.66113 l 2.50195,0.5127 q 4.63477,0.88183 6.8291,3.11719 2.21485,2.21484 2.21485,5.94726 0,4.4502 -2.99414,6.74707 -2.97364,2.29688 -8.73633,2.29688 -2.17383,0 -4.63477,-0.49219 -2.44043,-0.49219 -5.06543,-1.45606 v -4.26562 q 2.52246,1.41504 4.94239,2.13281 2.41992,0.71778 4.75781,0.71778 3.54785,0 5.47559,-1.39454 1.92773,-1.39453 1.92773,-3.97851 0,-2.25586 -1.39453,-3.52735 -1.37403,-1.27148 -4.53223,-1.90722 l -2.52246,-0.49219 q -4.63476,-0.92285 -6.70605,-2.8916 -2.07129,-1.96875 -2.07129,-5.47559 0,-4.06054 2.85058,-6.39843 2.8711,-2.33789 7.89551,-2.33789 2.15332,0 4.38867,0.38964 2.23535,0.38965 4.57324,1.16895 z" />
    <path
       id="path85"
       style="fill:#ff0000"
       d="m -229.85547,173.38672 v 4.04004 q -2.3584,-1.12793 -4.45019,-1.68164 -2.0918,-0.55371 -4.04004,-0.55371 -3.38379,0 -5.2295,1.3125 -1.82519,1.3125 -1.82519,3.73242 0,2.03027 1.20996,3.07617 1.23047,1.02539 4.63477,1.66113 l 2.50195,0.5127 q 4.63476,0.88183 6.8291,3.11719 2.21484,2.21484 2.21484,5.94726 0,4.4502 -2.99414,6.74707 -2.97363,2.29688 -8.73632,2.29688 -2.17383,0 -4.63477,-0.49219 -2.44043,-0.49219 -5.06543,-1.45606 v -4.26562 q 2.52246,1.41504 4.94238,2.13281 2.41992,0.71778 4.75782,0.71778 3.54785,0 5.47558,-1.39454 1.92774,-1.39453 1.92774,-3.97851 0,-2.25586 -1.39454,-3.52735 -1.37402,-1.27148 -4.53222,-1.90722 l -2.52246,-0.49219 q -4.63477,-0.92285 -6.70606,-2.8916 -2.07129,-1.96875 -2.07129,-5.47559 0,-4.06054 2.85059,-6.39843 2.87109,-2.33789 7.89551,-2.33789 2.15332,0 4.38867,0.38964 2.23535,0.38965 4.57324,1.16895 z" />
    <path
       id="path87"
       style="fill:#ff0000"
       d="m -221.5498,172.38184 h 4.14257 V 203 h -4.14257 z" />
    <path
       id="path89"
       style="fill:#ff0000"
       d="m -209.16309,172.38184 h 5.57813 l 13.57617,25.61425 v -25.61425 h 4.01953 V 203 h -5.57812 l -13.57617,-25.61426 V 203 h -4.01954 z" />
    <path
       id="path91"
       style="fill:#ff0000"
       d="m -156.86816,198.63184 v -8.22364 h -6.76758 v -3.40429 h 10.86914 v 13.1455 q -2.39942,1.70215 -5.29102,2.58399 -2.8916,0.86133 -6.17285,0.86133 -7.17773,0 -11.23828,-4.1836 -4.04004,-4.2041 -4.04004,-11.68945 0,-7.50586 4.04004,-11.68945 4.06055,-4.2041 11.23828,-4.2041 2.99414,0 5.68067,0.73828 2.70703,0.73828 4.98339,2.17382 v 4.40918 q -2.29687,-1.94824 -4.88086,-2.93261 -2.58398,-0.98438 -5.43457,-0.98438 -5.61914,0 -8.44921,3.1377 -2.80958,3.13769 -2.80958,9.35156 0,6.19336 2.80958,9.33105 2.83007,3.1377 8.44921,3.1377 2.19434,0 3.917,-0.36914 1.72265,-0.38965 3.09668,-1.18945 z" />
    <path
       id="path93"
       style="fill:#ff0000"
       d="m -144.37891,197.79102 h 4.32715 V 203 h -4.32715 z m 0,-16.50879 h 4.32715 v 5.20898 h -4.32715 z" />
    <path
       id="path95"
       style="fill:#ff0000"
       d="m -117.61621,172.38184 h 6.17285 l 7.81348,20.83593 7.854489,-20.83593 h 6.172852 V 203 h -4.040039 v -26.88574 l -7.895512,21 h -4.16308 l -7.89551,-21 V 203 h -4.01953 z" />
    <path
       id="path97"
       style="fill:#ff0000"
       d="m -71.083984,191.4541 q -4.573243,0 -6.336914,1.0459 -1.763672,1.0459 -1.763672,3.56836 0,2.00977 1.3125,3.19922 1.333007,1.16894 3.609375,1.16894 3.137695,0 5.024414,-2.21484 1.907226,-2.23535 1.907226,-5.92676 v -0.84082 z m 7.526367,-1.55859 V 203 h -3.773438 v -3.48633 q -1.291992,2.0918 -3.219726,3.09668 -1.927735,0.98438 -4.716797,0.98438 -3.527344,0 -5.619141,-1.96875 -2.071289,-1.98926 -2.071289,-5.31153 0,-3.87597 2.583985,-5.84472 2.604492,-1.96875 7.751953,-1.96875 h 5.291015 v -0.36914 q 0,-2.6045 -1.722656,-4.01954 -1.702148,-1.43554 -4.798828,-1.43554 -1.96875,0 -3.834961,0.47168 -1.866211,0.47168 -3.588867,1.41504 v -3.48633 q 2.071289,-0.79981 4.019531,-1.18945 1.948242,-0.41016 3.793945,-0.41016 4.983399,0 7.444336,2.58398 2.460938,2.58399 2.460938,7.83399 z" />
    <path
       id="path99"
       style="fill:#ff0000"
       d="M -36.671875,189.13672 V 203 h -3.773438 v -13.74023 q 0,-3.26075 -1.271484,-4.88086 -1.271484,-1.62012 -3.814453,-1.62012 -3.055664,0 -4.819336,1.94824 -1.763672,1.94824 -1.763672,5.31152 V 203 h -3.793945 v -22.96875 h 3.793945 v 3.56836 q 1.353516,-2.07129 3.178711,-3.09668 1.845703,-1.02539 4.245117,-1.02539 3.958008,0 5.988282,2.46094 2.030273,2.44043 2.030273,7.19824 z" />
    <path
       id="path101"
       style="fill:#ff0000"
       d="m -29.494141,193.93555 v -13.9043 h 3.773438 v 13.76074 q 0,3.26074 1.271484,4.90137 1.271485,1.62012 3.814453,1.62012 3.055664,0 4.819336,-1.94825 1.78418,-1.94824 1.78418,-5.31152 v -13.02246 h 3.773438 V 203 h -3.773438 v -3.52734 q -1.374023,2.09179 -3.199219,3.11718 -1.804687,1.00489 -4.204101,1.00489 -3.958008,0 -6.008789,-2.46094 -2.050782,-2.46094 -2.050782,-7.19824 z m 9.495118,-14.45801 z" />
    <path
       id="path103"
       style="fill:#ff0000"
       d="m 7.9941406,191.4541 q -4.5732422,0 -6.336914,1.0459 -1.76367191,1.0459 -1.76367191,3.56836 0,2.00977 1.31250001,3.19922 1.3330078,1.16894 3.609375,1.16894 3.1376953,0 5.024414,-2.21484 1.9072263,-2.23535 1.9072263,-5.92676 v -0.84082 z m 7.5263674,-1.55859 V 203 H 11.74707 v -3.48633 q -1.291992,2.0918 -3.2197263,3.09668 -1.9277343,0.98438 -4.7167968,0.98438 -3.52734378,0 -5.6191407,-1.96875 -2.071289,-1.98926 -2.071289,-5.31153 0,-3.87597 2.5839844,-5.84472 2.6044922,-1.96875 7.7519531,-1.96875 H 11.74707 v -0.36914 q 0,-2.6045 -1.722656,-4.01954 -1.7021484,-1.43554 -4.7988281,-1.43554 -1.96875,0 -3.8349609,0.47168 -1.86621094,0.47168 -3.5888672,1.41504 v -3.48633 q 2.07128908,-0.79981 4.0195313,-1.18945 1.9482421,-0.41016 3.7939453,-0.41016 4.9833986,0 7.4443356,2.58398 2.460938,2.58399 2.460938,7.83399 z" />
    <path
       id="path105"
       style="fill:#ff0000"
       d="m 23.313477,171.08984 h 3.773437 V 203 h -3.773437 z" />
    <path
       id="path107"
       style="fill:#ff0000"
       d="m 41.667969,172.38184 h 3.486328 l -10.664063,34.51464 h -3.486328 z" />
    <path
       id="path109"
       style="fill:#ff0000"
       d="m 65.641602,191.53613 q 0,-4.16308 -1.722657,-6.52148 -1.702148,-2.37891 -4.696289,-2.37891 -2.99414,0 -4.716797,2.37891 -1.702148,2.3584 -1.702148,6.52148 0,4.16309 1.702148,6.542 1.722657,2.35839 4.716797,2.35839 2.994141,0 4.696289,-2.35839 1.722657,-2.37891 1.722657,-6.542 z m -12.837891,-8.01855 q 1.189453,-2.05078 2.994141,-3.03516 1.825195,-1.00488 4.347656,-1.00488 4.183594,0 6.788086,3.32226 2.625,3.32227 2.625,8.73633 0,5.41407 -2.625,8.73633 -2.604492,3.32227 -6.788086,3.32227 -2.522461,0 -4.347656,-0.98438 -1.804688,-1.00488 -2.994141,-3.05566 V 203 h -3.793945 v -31.91016 h 3.793945 z" />
    <path
       id="path111"
       style="fill:#ff0000"
       d="m 75.813477,180.03125 h 3.773437 V 203 h -3.773437 z m 0,-8.94141 h 3.773437 v 4.77832 h -3.773437 z" />
    <path
       id="path113"
       style="fill:#ff0000"
       d="m 102.57617,191.24902 q 0,-4.10156 -1.70215,-6.35742 -1.681637,-2.25586 -4.737301,-2.25586 -3.035156,0 -4.737305,2.25586 -1.681641,2.25586 -1.681641,6.35742 0,4.08106 1.681641,6.33692 1.702149,2.25586 4.737305,2.25586 3.055664,0 4.737301,-2.25586 1.70215,-2.25586 1.70215,-6.33692 z m 3.77344,8.90039 q 0,5.86524 -2.60449,8.71582 -2.6045,2.8711 -7.977542,2.8711 -1.989258,0 -3.75293,-0.30762 -1.763671,-0.28711 -3.424804,-0.90234 v -3.6709 q 1.661133,0.90234 3.28125,1.33301 1.620117,0.43066 3.301758,0.43066 3.711914,0 5.557618,-1.94824 1.8457,-1.92774 1.8457,-5.84473 v -1.86621 q -1.16894,2.03027 -2.994139,3.03516 Q 97.756836,203 95.213867,203 q -4.224609,0 -6.808594,-3.21973 -2.583984,-3.21972 -2.583984,-8.53125 0,-5.33203 2.583984,-8.55175 2.583985,-3.21973 6.808594,-3.21973 2.542969,0 4.368164,1.00488 1.825199,1.00488 2.994139,3.03516 v -3.48633 h 3.77344 z" />
    <path
       id="path115"
       style="fill:#ff0000"
       d="m 130.61035,191.53613 q 0,-4.16308 -1.72265,-6.52148 -1.70215,-2.37891 -4.69629,-2.37891 -2.99414,0 -4.7168,2.37891 -1.70215,2.3584 -1.70215,6.52148 0,4.16309 1.70215,6.542 1.72266,2.35839 4.7168,2.35839 2.99414,0 4.69629,-2.35839 1.72265,-2.37891 1.72265,-6.542 z m -12.83789,-8.01855 q 1.18945,-2.05078 2.99414,-3.03516 1.8252,-1.00488 4.34766,-1.00488 4.18359,0 6.78808,3.32226 2.625,3.32227 2.625,8.73633 0,5.41407 -2.625,8.73633 -2.60449,3.32227 -6.78808,3.32227 -2.52246,0 -4.34766,-0.98438 -1.80469,-1.00488 -2.99414,-3.05566 V 203 h -3.79394 v -31.91016 h 3.79394 z" />
    <path
       id="path117"
       style="fill:#ff0000"
       d="m 140.39258,193.93555 v -13.9043 h 3.77344 v 13.76074 q 0,3.26074 1.27148,4.90137 1.27148,1.62012 3.81445,1.62012 3.05567,0 4.81934,-1.94825 1.78418,-1.94824 1.78418,-5.31152 v -13.02246 h 3.77344 V 203 h -3.77344 v -3.52734 q -1.37402,2.09179 -3.19922,3.11718 -1.80469,1.00489 -4.2041,1.00489 -3.95801,0 -6.00879,-2.46094 -2.05078,-2.46094 -2.05078,-7.19824 z m 9.49512,-14.45801 z" />
    <path
       id="path119"
       style="fill:#ff0000"
       d="m 171.1748,173.50977 v 6.52148 h 7.77247 v 2.93262 h -7.77247 v 12.46875 q 0,2.80957 0.75879,3.60937 0.7793,0.79981 3.1377,0.79981 h 3.87598 V 203 h -3.87598 q -4.36816,0 -6.0293,-1.62012 -1.66113,-1.64062 -1.66113,-5.94726 v -12.46875 h -2.76856 v -2.93262 h 2.76856 v -6.52148 z" />
    <path
       id="path121"
       style="fill:#ff0000"
       d="m 187.66309,173.50977 v 6.52148 h 7.77246 v 2.93262 h -7.77246 v 12.46875 q 0,2.80957 0.75879,3.60937 0.77929,0.79981 3.13769,0.79981 h 3.87598 V 203 h -3.87598 q -4.36816,0 -6.0293,-1.62012 -1.66113,-1.64062 -1.66113,-5.94726 v -12.46875 h -2.76855 v -2.93262 h 2.76855 v -6.52148 z" />
    <path
       id="path123"
       style="fill:#ff0000"
       d="m 209.31934,182.67676 q -3.03516,0 -4.79883,2.3789 -1.76367,2.3584 -1.76367,6.48047 0,4.12207 1.74316,6.50098 1.76367,2.3584 4.81934,2.3584 3.01464,0 4.77832,-2.37891 1.76367,-2.3789 1.76367,-6.48047 0,-4.08105 -1.76367,-6.45996 -1.76368,-2.39941 -4.77832,-2.39941 z m 0,-3.19922 q 4.92187,0 7.73144,3.19922 2.80957,3.19922 2.80957,8.85937 0,5.63965 -2.80957,8.85938 -2.80957,3.19922 -7.73144,3.19922 -4.94239,0 -7.75196,-3.19922 -2.78906,-3.21973 -2.78906,-8.85938 0,-5.66015 2.78906,-8.85937 2.80957,-3.19922 7.75196,-3.19922 z" />
    <path
       id="path125"
       style="fill:#ff0000"
       d="M 245.1875,189.13672 V 203 h -3.77344 v -13.74023 q 0,-3.26075 -1.27148,-4.88086 -1.27149,-1.62012 -3.81445,-1.62012 -3.05567,0 -4.81934,1.94824 -1.76367,1.94824 -1.76367,5.31152 V 203 h -3.79395 v -22.96875 h 3.79395 v 3.56836 q 1.35351,-2.07129 3.17871,-3.09668 1.8457,-1.02539 4.24512,-1.02539 3.958,0 5.98828,2.46094 2.03027,2.44043 2.03027,7.19824 z" />
    <path
       id="path127"
       style="fill:#ff0000"
       d="m 253.28809,197.79102 h 4.32714 V 203 h -4.32714 z" />
    <path
       id="path129"
       style="fill:#ff0000"
       d="m 284.00879,184.44043 q 1.41504,-2.54297 3.38379,-3.75293 1.96875,-1.20996 4.63476,-1.20996 3.58887,0 5.53711,2.52246 1.94825,2.50195 1.94825,7.13672 V 203 h -3.79395 v -13.74023 q 0,-3.30176 -1.16895,-4.90137 -1.16894,-1.59961 -3.56835,-1.59961 -2.93262,0 -4.63477,1.94824 -1.70215,1.94824 -1.70215,5.31152 V 203 h -3.79394 v -13.74023 q 0,-3.32227 -1.16895,-4.90137 -1.16894,-1.59961 -3.60937,-1.59961 -2.89161,0 -4.59375,1.96875 -1.70215,1.94824 -1.70215,5.29101 V 203 h -3.79395 v -22.96875 h 3.79395 v 3.56836 q 1.29199,-2.11231 3.09668,-3.11719 1.80468,-1.00488 4.28613,-1.00488 2.50195,0 4.24512,1.27148 1.76367,1.27149 2.60449,3.69141 z" />
    <path
       id="path131"
       style="fill:#ff0000"
       d="m 315.95996,182.67676 q -3.03516,0 -4.79883,2.3789 -1.76367,2.3584 -1.76367,6.48047 0,4.12207 1.74317,6.50098 1.76367,2.3584 4.81933,2.3584 3.01465,0 4.77832,-2.37891 1.76367,-2.3789 1.76367,-6.48047 0,-4.08105 -1.76367,-6.45996 -1.76367,-2.39941 -4.77832,-2.39941 z m 0,-3.19922 q 4.92188,0 7.73145,3.19922 2.80957,3.19922 2.80957,8.85937 0,5.63965 -2.80957,8.85938 -2.80957,3.19922 -7.73145,3.19922 -4.94238,0 -7.75195,-3.19922 -2.78906,-3.21973 -2.78906,-8.85938 0,-5.66015 2.78906,-8.85937 2.80957,-3.19922 7.75195,-3.19922 z" />
    <path
       id="path133"
       style="fill:#ff0000"
       d="m 347.84961,183.51758 v -12.42774 h 3.77344 V 203 h -3.77344 v -3.44531 q -1.18945,2.05078 -3.01465,3.05566 -1.80469,0.98438 -4.34766,0.98438 -4.16308,0 -6.78808,-3.32227 -2.60449,-3.32226 -2.60449,-8.73633 0,-5.41406 2.60449,-8.73633 2.625,-3.32226 6.78808,-3.32226 2.54297,0 4.34766,1.00488 1.8252,0.98438 3.01465,3.03516 z m -12.8584,8.01855 q 0,4.16309 1.70215,6.542 1.72266,2.35839 4.7168,2.35839 2.99414,0 4.71679,-2.35839 1.72266,-2.37891 1.72266,-6.542 0,-4.16308 -1.72266,-6.52148 -1.72265,-2.37891 -4.71679,-2.37891 -2.99414,0 -4.7168,2.37891 -1.70215,2.3584 -1.70215,6.52148 z" />
    <path
       id="path135"
       style="fill:#ff0000"
       d="m 359.00586,193.93555 v -13.9043 h 3.77344 v 13.76074 q 0,3.26074 1.27148,4.90137 1.27149,1.62012 3.81445,1.62012 3.05567,0 4.81934,-1.94825 1.78418,-1.94824 1.78418,-5.31152 v -13.02246 h 3.77344 V 203 h -3.77344 v -3.52734 q -1.37402,2.09179 -3.19922,3.11718 -1.80469,1.00489 -4.2041,1.00489 -3.95801,0 -6.00879,-2.46094 -2.05078,-2.46094 -2.05078,-7.19824 z m 9.49512,-14.45801 z" />
    <path
       id="path137"
       style="fill:#ff0000"
       d="m 386.05566,171.08984 h 3.77344 V 203 h -3.77344 z" />
    <path
       id="path139"
       style="fill:#ff0000"
       d="m 417.35059,190.57227 v 1.8457 h -17.34961 q 0.24609,3.89648 2.33789,5.94726 2.1123,2.03028 5.86523,2.03028 2.17383,0 4.2041,-0.53321 2.05078,-0.5332 4.06055,-1.5996 v 3.56835 q -2.03027,0.86133 -4.16309,1.3125 -2.13281,0.45118 -4.32714,0.45118 -5.4961,0 -8.71582,-3.19922 -3.19922,-3.19922 -3.19922,-8.6543 0,-5.63965 3.03515,-8.94141 3.05567,-3.32226 8.22364,-3.32226 4.63476,0 7.32128,2.99414 2.70704,2.97363 2.70704,8.10059 z m -3.77344,-1.10743 q -0.041,-3.09668 -1.74317,-4.94238 -1.68164,-1.8457 -4.4707,-1.8457 -3.1582,0 -5.06543,1.78418 -1.88672,1.78418 -2.17383,5.02441 z" />
    <path
       id="path141"
       style="fill:#ff0000"
       d="m 423.54395,180.03125 h 3.77343 V 203 h -3.77343 z m 0,-8.94141 h 3.77343 v 4.77832 h -3.77343 z" />
    <path
       id="path143"
       style="fill:#ff0000"
       d="m 451.72168,180.91309 v 3.52734 q -1.59961,-0.88184 -3.21973,-1.3125 -1.59961,-0.45117 -3.24023,-0.45117 -3.6709,0 -5.70117,2.33789 -2.03028,2.31738 -2.03028,6.52148 0,4.2041 2.03028,6.542 2.03027,2.31738 5.70117,2.31738 1.64062,0 3.24023,-0.43067 1.62012,-0.45117 3.21973,-1.333 v 3.48632 q -1.5791,0.73829 -3.28125,1.10743 -1.68164,0.36914 -3.58887,0.36914 -5.18847,0 -8.24414,-3.26075 -3.05566,-3.26074 -3.05566,-8.79785 0,-5.61914 3.07617,-8.83886 3.09668,-3.21973 8.46973,-3.21973 1.74316,0 3.40429,0.36914 1.66114,0.34863 3.21973,1.06641 z" />
    <path
       id="path145"
       style="fill:#ff0000"
       d="m 467.22559,182.67676 q -3.03516,0 -4.79883,2.3789 -1.76367,2.3584 -1.76367,6.48047 0,4.12207 1.74316,6.50098 1.76367,2.3584 4.81934,2.3584 3.01464,0 4.77832,-2.37891 1.76367,-2.3789 1.76367,-6.48047 0,-4.08105 -1.76367,-6.45996 -1.76368,-2.39941 -4.77832,-2.39941 z m 0,-3.19922 q 4.92187,0 7.73144,3.19922 2.80957,3.19922 2.80957,8.85937 0,5.63965 -2.80957,8.85938 -2.80957,3.19922 -7.73144,3.19922 -4.94239,0 -7.75196,-3.19922 -2.78906,-3.21973 -2.78906,-8.85938 0,-5.66015 2.78906,-8.85937 2.80957,-3.19922 7.75196,-3.19922 z" />
    <path
       id="path147"
       style="fill:#ff0000"
       d="M 503.09375,189.13672 V 203 h -3.77344 v -13.74023 q 0,-3.26075 -1.27148,-4.88086 -1.27149,-1.62012 -3.81445,-1.62012 -3.05567,0 -4.81934,1.94824 -1.76367,1.94824 -1.76367,5.31152 V 203 h -3.79395 v -22.96875 h 3.79395 v 3.56836 q 1.35351,-2.07129 3.17871,-3.09668 1.8457,-1.02539 4.24512,-1.02539 3.958,0 5.98828,2.46094 2.03027,2.44043 2.03027,7.19824 z" />
    <path
       id="path149"
       style="fill:#ff0000"
       d="m 514.39355,173.50977 v 6.52148 h 7.77247 v 2.93262 h -7.77247 v 12.46875 q 0,2.80957 0.75879,3.60937 0.7793,0.79981 3.1377,0.79981 h 3.87598 V 203 h -3.87598 q -4.36817,0 -6.0293,-1.62012 -1.66113,-1.64062 -1.66113,-5.94726 v -12.46875 h -2.76856 v -2.93262 h 2.76856 v -6.52148 z" />
    <path
       id="path151"
       style="fill:#ff0000"
       d="m 546.7959,190.57227 v 1.8457 h -17.34961 q 0.24609,3.89648 2.33789,5.94726 2.1123,2.03028 5.86523,2.03028 2.17383,0 4.20411,-0.53321 2.05078,-0.5332 4.06054,-1.5996 v 3.56835 q -2.03027,0.86133 -4.16308,1.3125 -2.13282,0.45118 -4.32715,0.45118 -5.4961,0 -8.71582,-3.19922 -3.19922,-3.19922 -3.19922,-8.6543 0,-5.63965 3.03516,-8.94141 3.05566,-3.32226 8.22363,-3.32226 4.63476,0 7.32129,2.99414 2.70703,2.97363 2.70703,8.10059 z m -3.77344,-1.10743 q -0.041,-3.09668 -1.74316,-4.94238 -1.68164,-1.8457 -4.47071,-1.8457 -3.1582,0 -5.06543,1.78418 -1.88671,1.78418 -2.17382,5.02441 z" />
    <path
       id="path153"
       style="fill:#ff0000"
       d="M 571.34375,180.03125 563.03809,191.20801 571.77441,203 h -4.45019 L 560.63867,193.97656 553.95312,203 h -4.45019 l 8.9209,-12.01758 -8.16211,-10.95117 h 4.45019 l 6.09082,8.18262 6.09082,-8.18262 z" />
    <path
       id="path155"
       style="fill:#ff0000"
       d="m 580.83887,173.50977 v 6.52148 h 7.77246 v 2.93262 h -7.77246 v 12.46875 q 0,2.80957 0.75879,3.60937 0.77929,0.79981 3.13769,0.79981 h 3.87598 V 203 h -3.87598 q -4.36816,0 -6.0293,-1.62012 -1.66113,-1.64062 -1.66113,-5.94726 v -12.46875 h -2.76855 v -2.93262 h 2.76855 v -6.52148 z" />
    <path
       id="path157"
       style="fill:#ff0000"
       d="m 602.41309,171.08984 v 37.44727 h -8.69532 v -2.93262 h 4.90137 v -31.58203 h -4.90137 v -2.93262 z" />
  </g>
</svg>
