<?xml version="1.0" encoding="UTF-8" standalone="no"?>
<svg
   xmlns:dc="http://purl.org/dc/elements/1.1/"
   xmlns:cc="http://creativecommons.org/ns#"
   xmlns:rdf="http://www.w3.org/1999/02/22-rdf-syntax-ns#"
   xmlns:svg="http://www.w3.org/2000/svg"
   xmlns="http://www.w3.org/2000/svg"
   id="svg121"
   stroke-miterlimit="10"
   stroke-linecap="square"
   stroke="none"
   fill="none"
   viewBox="0.0 0.0 348.0 348.0"
   version="1.1">
  <metadata
     id="metadata127">
    <rdf:RDF>
      <cc:Work
         rdf:about="">
        <dc:format>image/svg+xml</dc:format>
        <dc:type
           rdf:resource="http://purl.org/dc/dcmitype/StillImage" />
      </cc:Work>
    </rdf:RDF>
  </metadata>
  <defs
     id="defs125" />
  <clipPath
     id="p.0">
    <path
       id="path2"
       clip-rule="nonzero"
       d="m0 0l348.0 0l0 348.0l-348.0 0l0 -348.0z" />
  </clipPath>
  <g
     id="g111"
     clip-path="url(#p.0)">
    <path
       id="path5"
       fill-rule="evenodd"
       d="M 0,0 H 348 V 348 H 0 Z"
       fill-opacity="0"
       fill="#000000" />
    <path
       id="path7"
       fill-rule="evenodd"
       d="M -6,0 H 342 V 347.9685 H -6 Z"
       fill="#ffffff" />
    <path
       id="path9"
       fill-rule="evenodd"
       d="m 5.07874,5.7758217 h 336.9134 V 343.44512 H 5.07874 Z"
       fill-opacity="0"
       fill="#000000" />
    <path
       id="path11"
       fill-rule="evenodd"
       d="m 5.07874,5.7758217 h 336.9134 V 343.44512 H 5.07874 Z"
       stroke-linecap="butt"
       stroke-linejoin="round"
       stroke-width="2"
       stroke="#000000" />
    <path
       id="path13"
       fill-rule="evenodd"
       d="m 282.73444,40.553925 v 0 c 0,-8.375591 6.96603,-15.165352 15.55905,-15.165352 v 0 c 4.12653,0 8.08402,1.597773 11.00192,4.441828 2.91788,2.844057 4.55713,6.701422 4.55713,10.723524 v 0 c 0,8.375595 -6.966,15.165356 -15.55905,15.165356 v 0 c -8.59302,0 -15.55905,-6.789761 -15.55905,-15.165356 z"
       fill="#ffffff" />
    <path
       id="path15"
       fill-rule="evenodd"
       d="m 282.73444,40.553925 v 0 c 0,-8.375591 6.96603,-15.165352 15.55905,-15.165352 v 0 c 4.12653,0 8.08402,1.597773 11.00192,4.441828 2.91788,2.844057 4.55713,6.701422 4.55713,10.723524 v 0 c 0,8.375595 -6.966,15.165356 -15.55905,15.165356 v 0 c -8.59302,0 -15.55905,-6.789761 -15.55905,-15.165356 z"
       stroke-linecap="butt"
       stroke-linejoin="round"
       stroke-width="2"
       stroke="#000000" />
    <path
       id="path17"
       fill-rule="evenodd"
       d="m 117.83202,290.61154 h 87.90551 v 34.80316 h -87.90551 z"
       fill="#ffffff" />
    <path
       id="path19"
       fill-rule="evenodd"
       d="m 117.83202,290.61154 h 87.90551 v 34.80316 h -87.90551 z"
       stroke-linecap="butt"
       stroke-linejoin="round"
       stroke-width="2"
       stroke="#000000" />
    <path
       id="path21"
       fill-rule="evenodd"
       d="M 16.482939,118.44095 H 319.3176 v 157.5433 H 16.482939 Z"
       fill="#ffffff" />
    <path
       id="path23"
       fill-rule="evenodd"
       d="M 16.482939,118.44095 H 319.3176 v 157.5433 H 16.482939 Z"
       stroke-linecap="butt"
       stroke-linejoin="round"
       stroke-width="2"
       stroke="#000000" />
    <path
       id="path25"
       fill-rule="evenodd"
       d="m 58.66142,187.43045 h 218.67717 v 72.03149 H 58.66142 Z"
       fill="#000000" />
    <path
       id="path27"
       fill-rule="evenodd"
       d="M 48.307087,196.76903 25.440945,223.4462 48.307087,250.12337 Z"
       fill="#000000" />
    <path
       id="path29"
       fill-rule="evenodd"
       d="M 48.307087,196.76903 25.440945,223.4462 48.307087,250.12337 Z"
       stroke-linecap="butt"
       stroke-linejoin="round"
       stroke-width="2"
       stroke="#000000" />
    <path
       id="path31"
       fill-rule="evenodd"
       d="m 287.6929,196.76903 22.86615,26.67717 -22.86615,26.67717 z"
       fill="#000000" />
    <path
       id="path33"
       fill-rule="evenodd"
       d="m 287.6929,196.76903 22.86615,26.67717 -22.86615,26.67717 z"
       stroke-linecap="butt"
       stroke-linejoin="round"
       stroke-width="2"
       stroke="#000000" />
    <path
       id="path35"
       fill-rule="evenodd"
       d="m 161.49081,49.87664 113.82678,0.566929"
       fill-opacity="0"
       fill="#000000" />
    <path
       id="path37"
       fill-rule="evenodd"
       d="m 161.49081,49.87664 113.82678,0.566929"
       stroke-linecap="butt"
       stroke-linejoin="round"
       stroke-width="2"
       stroke="#000000" />
    <path
       id="path39"
       fill-rule="evenodd"
       d="M 29.713911,49.87664 5.115486,5.97113"
       fill-opacity="0"
       fill="#000000" />
    <path
       id="path41"
       fill-rule="evenodd"
       d="M 29.713911,49.87664 5.115486,5.97113"
       stroke-linecap="butt"
       stroke-linejoin="round"
       stroke-width="2"
       stroke="#000000" />
    <path
       id="path43"
       fill-rule="evenodd"
       d="M 45.790028,23.199474 H 58.671917 V 76.55381 H 45.790028 Z"
       fill="#000000" />
    <path
       id="path45"
       fill-rule="evenodd"
       d="M 45.790028,23.199474 H 58.671917 V 76.55381 H 45.790028 Z"
       stroke-linecap="butt"
       stroke-linejoin="round"
       stroke-width="2"
       stroke="#000000" />
    <path
       id="path47"
       fill-rule="evenodd"
       d="m 132.35695,23.199474 h 12.8819 V 76.55381 h -12.8819 z"
       fill="#000000" />
    <path
       id="path49"
       fill-rule="evenodd"
       d="m 132.35695,23.199474 h 12.8819 V 76.55381 h -12.8819 z"
       stroke-linecap="butt"
       stroke-linejoin="round"
       stroke-width="2"
       stroke="#000000" />
    <path
       id="path51"
       fill-rule="evenodd"
       d="m 43.34646,139.81102 h 252.75589 v 30.33072 H 43.34646 Z"
       fill="#ffffff" />
    <path
       id="path53"
       fill-rule="evenodd"
       d="m 43.34646,139.81102 h 252.75589 v 30.33072 H 43.34646 Z"
       stroke-linecap="butt"
       stroke-linejoin="round"
       stroke-width="2"
       stroke="#000000" />
    <path
       id="path55"
       fill-rule="evenodd"
       d="m 59.220474,170.94751 v -9.76378"
       fill-opacity="0"
       fill="#000000" />
    <path
       id="path57"
       fill-rule="evenodd"
       d="m 59.220474,170.94751 v -9.76378"
       stroke-linecap="butt"
       stroke-linejoin="round"
       stroke-width="2"
       stroke="#000000" />
    <path
       id="path59"
       fill-rule="evenodd"
       d="m 84.05541,139.81102 v 12.81891"
       fill-opacity="0"
       fill="#000000" />
    <path
       id="path61"
       fill-rule="evenodd"
       d="m 84.05541,139.81102 v 12.81891"
       stroke-linecap="butt"
       stroke-linejoin="round"
       stroke-width="2"
       stroke="#000000" />
    <path
       id="path63"
       fill-rule="evenodd"
       d="m 133.72528,139.40814 v 12.81889"
       fill-opacity="0"
       fill="#000000" />
    <path
       id="path65"
       fill-rule="evenodd"
       d="m 133.72528,139.40814 v 12.81889"
       stroke-linecap="butt"
       stroke-linejoin="round"
       stroke-width="2"
       stroke="#000000" />
    <path
       id="path67"
       fill-rule="evenodd"
       d="m 108.89035,170.54462 v -9.76378"
       fill-opacity="0"
       fill="#000000" />
    <path
       id="path69"
       fill-rule="evenodd"
       d="m 108.89035,170.54462 v -9.76378"
       stroke-linecap="butt"
       stroke-linejoin="round"
       stroke-width="2"
       stroke="#000000" />
    <path
       id="path71"
       fill-rule="evenodd"
       d="m 233.06505,139.40683 v 12.81889"
       fill-opacity="0"
       fill="#000000" />
    <path
       id="path73"
       fill-rule="evenodd"
       d="m 233.06505,139.40683 v 12.81889"
       stroke-linecap="butt"
       stroke-linejoin="round"
       stroke-width="2"
       stroke="#000000" />
    <path
       id="path75"
       fill-rule="evenodd"
       d="m 208.23009,170.5433 v -9.76378"
       fill-opacity="0"
       fill="#000000" />
    <path
       id="path77"
       fill-rule="evenodd"
       d="m 208.23009,170.5433 v -9.76378"
       stroke-linecap="butt"
       stroke-linejoin="round"
       stroke-width="2"
       stroke="#000000" />
    <path
       id="path79"
       fill-rule="evenodd"
       d="m 282.7349,139.40683 v 12.81889"
       fill-opacity="0"
       fill="#000000" />
    <path
       id="path81"
       fill-rule="evenodd"
       d="m 282.7349,139.40683 v 12.81889"
       stroke-linecap="butt"
       stroke-linejoin="round"
       stroke-width="2"
       stroke="#000000" />
    <path
       id="path83"
       fill-rule="evenodd"
       d="m 257.89996,170.5433 v -9.76378"
       fill-opacity="0"
       fill="#000000" />
    <path
       id="path85"
       fill-rule="evenodd"
       d="m 257.89996,170.5433 v -9.76378"
       stroke-linecap="butt"
       stroke-linejoin="round"
       stroke-width="2"
       stroke="#000000" />
    <path
       id="path87"
       fill-rule="evenodd"
       d="m 158.56023,170.54462 v -9.76378"
       fill-opacity="0"
       fill="#000000" />
    <path
       id="path89"
       fill-rule="evenodd"
       d="m 158.56023,170.54462 v -9.76378"
       stroke-linecap="butt"
       stroke-linejoin="round"
       stroke-width="2"
       stroke="#000000" />
    <path
       id="path91"
       fill-rule="evenodd"
       d="m 183.39516,139.40814 v 12.81889"
       fill-opacity="0"
       fill="#000000" />
    <path
       id="path93"
       fill-rule="evenodd"
       d="m 183.39516,139.40814 v 12.81889"
       stroke-linecap="butt"
       stroke-linejoin="round"
       stroke-width="2"
       stroke="#000000" />
    <path
       id="path95"
       fill-rule="evenodd"
       d="m 64.10499,136.14699 h 8.535431 v 40.28346 H 64.10499 Z"
       fill="#000000" />
    <path
       id="path97"
       fill-rule="evenodd"
       d="m 64.10499,136.14699 h 8.535431 v 40.28346 H 64.10499 Z"
       stroke-linecap="butt"
       stroke-linejoin="round"
       stroke-width="2"
       stroke="#000000" />
    <path
       id="path99"
       fill-rule="evenodd"
       d="m 56.43307,30.55643 h 75.937 v 40.283466 h -75.937 z"
       fill-opacity="0"
       fill="#000000" />
    <path
       id="path101"
       fill-rule="evenodd"
       d="m 56.43307,30.55643 h 75.937 v 40.283466 h -75.937 z"
       stroke-linecap="butt"
       stroke-linejoin="round"
       stroke-width="2"
       stroke="#000000" />
    <path
       id="path103"
       fill-rule="evenodd"
       d="m 145.23885,34.711285 h 8.12598 v 0 c 4.48787,0 8.12599,6.789761 8.12599,15.165356 0,8.375595 -3.63812,15.165352 -8.12599,15.165352 h -8.12598 z"
       fill="#000000" />
    <path
       id="path105"
       fill-rule="evenodd"
       d="m 145.23885,34.711285 h 8.12598 v 0 c 4.48787,0 8.12599,6.789761 8.12599,15.165356 0,8.375595 -3.63812,15.165352 -8.12599,15.165352 h -8.12598 z"
       stroke-linecap="butt"
       stroke-linejoin="round"
       stroke-width="2"
       stroke="#000000" />
    <path
       id="path107"
       fill-rule="evenodd"
       d="m 45,65.04199 h -8.125984 v 0 c -4.487858,0 -8.125984,-6.789757 -8.125984,-15.165352 0,-8.375595 3.638126,-15.165356 8.125984,-15.165356 H 45 Z"
       fill="#000000" />
    <path
       id="path109"
       fill-rule="evenodd"
       d="m 45,65.04199 h -8.125984 v 0 c -4.487858,0 -8.125984,-6.789757 -8.125984,-15.165352 0,-8.375595 3.638126,-15.165356 8.125984,-15.165356 H 45 Z"
       stroke-linecap="butt"
       stroke-linejoin="round"
       stroke-width="2"
       stroke="#000000" />
  </g>
  <g
     style="font-size:36px;font-family:'DejaVu Sans', sans-serif;text-anchor:middle;fill:#ffffff"
     id="text115"
     aria-label="3.500 MHz">
    <path
       id="path129"
       d="m 85.771484,222.84961 q 2.548828,0.54492 3.972657,2.26758 1.441406,1.72265 1.441406,4.2539 0,3.88477 -2.671875,6.01172 -2.671875,2.12696 -7.59375,2.12696 -1.652344,0 -3.410156,-0.33399 -1.740235,-0.31641 -3.603516,-0.9668 v -3.42773 q 1.476562,0.86133 3.234375,1.30078 1.757812,0.43945 3.673828,0.43945 3.339844,0 5.080078,-1.31836 1.757813,-1.31835 1.757813,-3.83203 0,-2.32031 -1.634766,-3.62109 Q 84.400391,224.43164 81.5,224.43164 h -3.058594 v -2.91797 h 3.199219 q 2.619141,0 4.007812,-1.03711 1.388672,-1.05469 1.388672,-3.02344 0,-2.02148 -1.441406,-3.09375 -1.423828,-1.08984 -4.095703,-1.08984 -1.458984,0 -3.128906,0.31641 -1.669922,0.3164 -3.673828,0.98437 v -3.16406 q 2.021484,-0.5625 3.779296,-0.84375 1.775391,-0.28125 3.339844,-0.28125 4.042969,0 6.398438,1.8457 2.355468,1.82813 2.355468,4.95703 0,2.17969 -1.248046,3.69141 -1.248047,1.49414 -3.550782,2.07422 z" />
    <path
       id="path131"
       d="m 97.935547,232.53516 h 3.708983 V 237 h -3.708983 z" />
    <path
       id="path133"
       d="m 109.43164,210.75586 h 13.93945 v 2.98828 h -10.6875 v 6.43359 q 0.77344,-0.26367 1.54688,-0.38671 0.77344,-0.14063 1.54687,-0.14063 4.39454,0 6.96094,2.4082 2.56641,2.40821 2.56641,6.52149 0,4.23633 -2.63672,6.59179 -2.63672,2.3379 -7.43555,2.3379 -1.65234,0 -3.375,-0.28125 -1.70508,-0.28125 -3.5332,-0.84375 v -3.56836 q 1.58203,0.86132 3.26953,1.2832 1.6875,0.42187 3.56836,0.42187 3.04102,0 4.81641,-1.59961 1.77539,-1.5996 1.77539,-4.34179 0,-2.74219 -1.77539,-4.3418 -1.77539,-1.59961 -4.81641,-1.59961 -1.42383,0 -2.84766,0.31641 -1.40625,0.3164 -2.88281,0.98437 z" />
    <path
       id="path135"
       d="m 139.91211,213.09375 q -2.74219,0 -4.13086,2.70703 -1.37109,2.68945 -1.37109,8.10352 0,5.39648 1.37109,8.10351 1.38867,2.68946 4.13086,2.68946 2.75976,0 4.13086,-2.68946 1.38867,-2.70703 1.38867,-8.10351 0,-5.41407 -1.38867,-8.10352 -1.3711,-2.70703 -4.13086,-2.70703 z m 0,-2.8125 q 4.41211,0 6.73242,3.49805 2.33789,3.48047 2.33789,10.125 0,6.62695 -2.33789,10.125 -2.32031,3.48047 -6.73242,3.48047 -4.41211,0 -6.75,-3.48047 -2.32031,-3.49805 -2.32031,-10.125 0,-6.64453 2.32031,-10.125 2.33789,-3.49805 6.75,-3.49805 z" />
    <path
       id="path137"
       d="m 162.83398,213.09375 q -2.74218,0 -4.13086,2.70703 -1.37109,2.68945 -1.37109,8.10352 0,5.39648 1.37109,8.10351 1.38868,2.68946 4.13086,2.68946 2.75977,0 4.13086,-2.68946 1.38868,-2.70703 1.38868,-8.10351 0,-5.41407 -1.38868,-8.10352 -1.37109,-2.70703 -4.13086,-2.70703 z m 0,-2.8125 q 4.41211,0 6.73243,3.49805 2.33789,3.48047 2.33789,10.125 0,6.62695 -2.33789,10.125 -2.32032,3.48047 -6.73243,3.48047 -4.41211,0 -6.75,-3.48047 -2.32031,-3.49805 -2.32031,-10.125 0,-6.64453 2.32031,-10.125 2.33789,-3.49805 6.75,-3.49805 z" />
    <path
       id="path139"
       d="m 189.30664,210.75586 h 5.29102 l 6.69726,17.85937 6.73242,-17.85937 h 5.29102 V 237 h -3.46289 v -23.04492 l -6.76758,18 h -3.56836 l -6.76758,-18 V 237 h -3.44531 z" />
    <path
       id="path141"
       d="m 220.38477,210.75586 h 3.55078 v 10.75781 h 12.90234 v -10.75781 h 3.55078 V 237 h -3.55078 V 224.50195 H 223.93555 V 237 h -3.55078 z" />
    <path
       id="path143"
       d="m 245.9082,217.3125 h 15.36328 v 2.95312 l -12.16406,14.1504 h 12.16406 V 237 h -15.80273 v -2.95313 l 12.16406,-14.15039 H 245.9082 Z" />
  </g>
  <g
     style="font-size:20px;font-family:'DejaVu Sans', sans-serif;text-anchor:middle;fill:#000000"
     id="text119"
     aria-label="إرسال">
    <path
       id="path146"
       d="m 183.79687,318.90625 0.76172,-0.17578 q -0.42968,-0.19531 -0.58593,-0.54688 -0.15625,-0.36132 -0.15625,-0.80078 0,-0.9375 0.54687,-1.35742 0.56641,-0.43945 1.46484,-0.43945 0.60547,0 1.11329,0.32226 v 0.97657 q -0.48829,-0.32227 -1.11329,-0.32227 -0.64453,0 -0.81054,0.17578 -0.28321,0.3125 -0.28321,0.56641 0,0.75195 0.91797,1.01562 0.32227,0.0977 1.49414,-0.18554 v 0.99609 l -3.34961,0.75195 z m 0.83008,-19.10156 h 1.79688 V 315 h -1.79688 z" />
    <path
       id="path148"
       d="m 179.68555,313.45703 q 0.0976,-0.56641 0.0976,-1.26953 0,-1.23047 -0.51758,-2.55859 h 1.79688 q 0.48828,1.15234 0.48828,2.4414 0,0.80078 -0.0781,1.40625 -0.44922,3.41797 -3.29102,4.93164 -2.77344,1.47461 -5.91797,1.47461 v -1.79687 q 2.96875,0 4.95117,-1.25 2.12891,-1.34766 2.47071,-3.37891 z" />
    <path
       id="path150"
       d="m 160.08594,313.65234 q -0.41992,0.57618 -0.9668,0.89844 Q 158.37695,315 157.41016,315 h -1.26954 v -1.79688 h 0.73243 q 0.96679,0 1.39648,-0.42968 0.78125,-0.78125 0.78125,-1.75782 v -1.875 h 1.79688 v 1.52344 q 0,0.625 0.42968,1.60156 0.41993,0.9668 1.43555,0.9668 1.06445,0 1.49414,-1.1914 0.36133,-1.00586 0.36133,-2.9004 h 1.79687 q 0,2.00196 0.18555,2.49024 0.625,1.66016 1.69922,1.65039 1.38672,-0.0195 1.38672,-2.73438 v -2.87109 h 1.79687 v 3.33984 q 0,1.94336 -0.89843,3.04688 -0.73243,0.89844 -1.72852,1.13281 -0.36133,0.0879 -0.70312,0.0879 -0.61524,0 -1.15235,-0.24414 -1.33789,-0.5957 -1.51367,-1.88476 -0.46875,1.52343 -1.40625,1.8457 -0.66406,0.23437 -1.29883,0.23437 -0.95703,0 -1.66015,-0.47851 -0.58594,-0.39063 -0.98633,-1.10352 z" />
    <path
       id="path152"
       d="m 152.12695,311.37695 v -11.57226 h 1.79688 v 11.45508 q 0,1.03515 0.47851,1.51367 0.42969,0.42968 1.39649,0.42968 h 0.73242 V 315 h -1.26953 q -1.50391,0 -2.28516,-0.89844 -0.84961,-0.98633 -0.84961,-2.72461 z" />
    <path
       id="path154"
       d="m 145.88672,314.28711 q 0.76172,-1.23047 0.76172,-3.44727 v -11.03515 h 1.79687 v 11.03515 q 0,3.09571 -0.95703,4.50196 -1.18164,1.72851 -3.73047,2.37304 -1.30859,0.33203 -2.13867,0.33203 -0.92773,0 -1.64062,-0.21484 -2.85157,-0.89844 -2.86133,-3.56445 -0.01,-1.34766 0.61523,-2.2461 h 1.79688 q -0.63477,1.12305 -0.63477,2.2461 0,1.26953 1.62109,1.875 0.39063,0.15625 1.10352,0.15625 0.78125,0 1.8457,-0.33203 1.69922,-0.51758 2.42188,-1.67969 z" />
  </g>
</svg>
