<?xml version="1.0" encoding="UTF-8" standalone="no"?>
<svg
   xmlns:dc="http://purl.org/dc/elements/1.1/"
   xmlns:cc="http://creativecommons.org/ns#"
   xmlns:rdf="http://www.w3.org/1999/02/22-rdf-syntax-ns#"
   xmlns:svg="http://www.w3.org/2000/svg"
   xmlns="http://www.w3.org/2000/svg"
   id="svg125"
   stroke-miterlimit="10"
   stroke-linecap="square"
   stroke="none"
   fill="none"
   viewBox="0.0 0.0 348.0 348.0"
   version="1.1">
  <metadata
     id="metadata131">
    <rdf:RDF>
      <cc:Work
         rdf:about="">
        <dc:format>image/svg+xml</dc:format>
        <dc:type
           rdf:resource="http://purl.org/dc/dcmitype/StillImage" />
      </cc:Work>
    </rdf:RDF>
  </metadata>
  <defs
     id="defs129" />
  <clipPath
     id="p.0">
    <path
       id="path2"
       clip-rule="nonzero"
       d="m0 0l348.0 0l0 348.0l-348.0 0l0 -348.0z" />
  </clipPath>
  <g
     id="g119"
     clip-path="url(#p.0)">
    <path
       style="fill:#000000;fill-opacity:0;fill-rule:nonzero"
       id="path5"
       d="M 0,0 H 348 V 348 H 0 Z" />
    <path
       style="fill:#ffffff;fill-rule:nonzero"
       id="path7"
       d="M -6,0 H 348.01575 V 347.9685 H -6 Z" />
    <path
       style="fill:#000000;fill-opacity:0;fill-rule:nonzero"
       id="path9"
       d="m 5.07874,5.7758217 h 336.9134 V 343.44512 H 5.07874 Z" />
    <path
       style="fill-rule:nonzero;stroke:#000000;stroke-width:2;stroke-linecap:butt;stroke-linejoin:round"
       id="path11"
       d="m 5.07874,5.7758217 h 336.9134 V 343.44512 H 5.07874 Z" />
    <path
       style="fill:#000000;fill-rule:nonzero"
       id="path13"
       d="m 133.84251,15.666667 h 74.33072 v 56.881886 h -74.33072 z" />
    <path
       style="fill:#ffffff;fill-rule:nonzero"
       id="path15"
       d="m 154.53912,44.089794 q 0,-4.0625 0.82812,-6.53125 0.84375,-2.484375 2.48438,-3.828125 1.65625,-1.34375 4.15625,-1.34375 1.84375,0 3.23437,0.75 1.39063,0.734375 2.29688,2.140625 0.90625,1.390625 1.42187,3.40625 0.51563,2 0.51563,5.40625 0,4.03125 -0.82813,6.515625 -0.82812,2.46875 -2.48437,3.828125 -1.64063,1.34375 -4.15625,1.34375 -3.3125,0 -5.20313,-2.375 -2.26562,-2.859375 -2.26562,-9.3125 z m 2.89062,0 q 0,5.640625 1.3125,7.515625 1.32813,1.859375 3.26563,1.859375 1.9375,0 3.25,-1.875 1.32812,-1.875 1.32812,-7.5 0,-5.65625 -1.32812,-7.515625 -1.3125,-1.859375 -3.28125,-1.859375 -1.9375,0 -3.09375,1.640625 -1.45313,2.09375 -1.45313,7.734375 z m 14.90625,0 q 0,-4.0625 0.82813,-6.53125 0.84375,-2.484375 2.48437,-3.828125 1.65625,-1.34375 4.15625,-1.34375 1.84375,0 3.23438,0.75 1.39062,0.734375 2.29687,2.140625 0.90625,1.390625 1.42188,3.40625 0.51562,2 0.51562,5.40625 0,4.03125 -0.82812,6.515625 -0.82813,2.46875 -2.48438,3.828125 -1.64062,1.34375 -4.15625,1.34375 -3.3125,0 -5.20312,-2.375 -2.26563,-2.859375 -2.26563,-9.3125 z m 2.89063,0 q 0,5.640625 1.3125,7.515625 1.32812,1.859375 3.26562,1.859375 1.9375,0 3.25,-1.875 1.32813,-1.875 1.32813,-7.5 0,-5.65625 -1.32813,-7.515625 -1.3125,-1.859375 -3.28125,-1.859375 -1.9375,0 -3.09375,1.640625 -1.45312,2.09375 -1.45312,7.734375 z" />
    <path
       style="fill:#ffffff;fill-rule:nonzero"
       id="path17"
       d="m 145.80315,164.96063 v 0 c 0,-15.7075 12.41617,-28.44095 27.73228,-28.44095 v 0 c 7.35506,0 14.40888,2.99645 19.6097,8.33016 5.20081,5.33372 8.12259,12.56778 8.12259,20.11079 v 0 c 0,15.7075 -12.41617,28.44095 -27.73229,28.44095 v 0 c -15.31611,0 -27.73228,-12.73345 -27.73228,-28.44095 z" />
    <path
       style="fill-rule:nonzero;stroke:#000000;stroke-width:2;stroke-linecap:butt;stroke-linejoin:round"
       id="path19"
       d="m 145.80315,164.96063 v 0 c 0,-15.7075 12.41617,-28.44095 27.73228,-28.44095 v 0 c 7.35506,0 14.40888,2.99645 19.6097,8.33016 5.20081,5.33372 8.12259,12.56778 8.12259,20.11079 v 0 c 0,15.7075 -12.41617,28.44095 -27.73229,28.44095 v 0 c -15.31611,0 -27.73228,-12.73345 -27.73228,-28.44095 z" />
    <path
       style="fill:#000000;fill-opacity:0;fill-rule:nonzero"
       id="path21"
       d="m 148.85039,82.88714 h 52.40945 v 48.00001 h -52.40945 z" />
    <path
       style="fill:#ffffff;fill-rule:nonzero"
       id="path23"
       d="m 39.766403,202.43307 v 0 c 0,-8.019 6.789761,-14.51968 15.165356,-14.51968 v 0 c 4.022102,0 7.879467,1.52974 10.723522,4.25271 2.844055,2.72296 4.441834,6.41611 4.441834,10.26697 v 0 c 0,8.019 -6.789761,14.51968 -15.165356,14.51968 v 0 c -8.375596,0 -15.165357,-6.50068 -15.165356,-14.51968 z" />
    <path
       style="fill-rule:nonzero;stroke:#000000;stroke-width:2;stroke-linecap:butt;stroke-linejoin:round"
       id="path25"
       d="m 39.766403,202.43307 v 0 c 0,-8.019 6.789761,-14.51968 15.165356,-14.51968 v 0 c 4.022102,0 7.879467,1.52974 10.723522,4.25271 2.844055,2.72296 4.441834,6.41611 4.441834,10.26697 v 0 c 0,8.019 -6.789761,14.51968 -15.165356,14.51968 v 0 c -8.375596,0 -15.165357,-6.50068 -15.165356,-14.51968 z" />
    <path
       style="fill:#ffffff;fill-rule:nonzero"
       id="path27"
       d="m 85.020996,242.1378 v 0 c 0,-8.01901 6.789764,-14.5197 15.165354,-14.5197 v 0 c 4.0221,0 7.87947,1.52976 10.72352,4.25273 2.84406,2.72296 4.44184,6.41611 4.44184,10.26697 v 0 c 0,8.019 -6.78977,14.51967 -15.16536,14.51967 v 0 c -8.375589,0 -15.165354,-6.50067 -15.165354,-14.51967 z" />
    <path
       style="fill-rule:nonzero;stroke:#000000;stroke-width:2;stroke-linecap:butt;stroke-linejoin:round"
       id="path29"
       d="m 85.020996,242.1378 v 0 c 0,-8.01901 6.789764,-14.5197 15.165354,-14.5197 v 0 c 4.0221,0 7.87947,1.52976 10.72352,4.25273 2.84406,2.72296 4.44184,6.41611 4.44184,10.26697 v 0 c 0,8.019 -6.78977,14.51967 -15.16536,14.51967 v 0 c -8.375589,0 -15.165354,-6.50067 -15.165354,-14.51967 z" />
    <path
       style="fill:#ffffff;fill-rule:nonzero"
       id="path31"
       d="m 132.69423,280.22964 v 0 c 0,-8.01898 6.78976,-14.51968 15.16534,-14.51968 v 0 c 4.02211,0 7.87948,1.52975 10.72353,4.25271 2.84406,2.72299 4.44183,6.41611 4.44183,10.26697 v 0 c 0,8.01901 -6.78976,14.51971 -15.16536,14.51971 v 0 c -8.37558,0 -15.16534,-6.5007 -15.16534,-14.51971 z" />
    <path
       style="fill-rule:nonzero;stroke:#000000;stroke-width:2;stroke-linecap:butt;stroke-linejoin:round"
       id="path33"
       d="m 132.69423,280.22964 v 0 c 0,-8.01898 6.78976,-14.51968 15.16534,-14.51968 v 0 c 4.02211,0 7.87948,1.52975 10.72353,4.25271 2.84406,2.72299 4.44183,6.41611 4.44183,10.26697 v 0 c 0,8.01901 -6.78976,14.51971 -15.16536,14.51971 v 0 c -8.37558,0 -15.16534,-6.5007 -15.16534,-14.51971 z" />
    <path
       style="fill:#ffffff;fill-rule:nonzero"
       id="path35"
       d="m 41.597115,247.71391 v 0 c 0,-8.019 6.789757,-14.51968 15.165352,-14.51968 v 0 c 4.022102,0 7.879471,1.52974 10.723526,4.25271 2.844055,2.72296 4.441826,6.41611 4.441826,10.26697 v 0 c 0,8.019 -6.789757,14.5197 -15.165352,14.5197 v 0 c -8.375595,0 -15.165352,-6.5007 -15.165352,-14.5197 z" />
    <path
       style="fill-rule:nonzero;stroke:#000000;stroke-width:2;stroke-linecap:butt;stroke-linejoin:round"
       id="path37"
       d="m 41.597115,247.71391 v 0 c 0,-8.019 6.789757,-14.51968 15.165352,-14.51968 v 0 c 4.022102,0 7.879471,1.52974 10.723526,4.25271 2.844055,2.72296 4.441826,6.41611 4.441826,10.26697 v 0 c 0,8.019 -6.789757,14.5197 -15.165352,14.5197 v 0 c -8.375595,0 -15.165352,-6.5007 -15.165352,-14.5197 z" />
    <path
       style="fill:#ffffff;fill-rule:nonzero"
       id="path39"
       d="m 86.85171,287.41864 v 0 c 0,-8.01901 6.789757,-14.51968 15.16535,-14.51968 v 0 c 4.0221,0 7.87947,1.52975 10.72353,4.25271 2.84405,2.72296 4.44182,6.41611 4.44182,10.26697 v 0 c 0,8.01898 -6.78975,14.51968 -15.16535,14.51968 v 0 c -8.375593,0 -15.16535,-6.5007 -15.16535,-14.51968 z" />
    <path
       style="fill-rule:nonzero;stroke:#000000;stroke-width:2;stroke-linecap:butt;stroke-linejoin:round"
       id="path41"
       d="m 86.85171,287.41864 v 0 c 0,-8.01901 6.789757,-14.51968 15.16535,-14.51968 v 0 c 4.0221,0 7.87947,1.52975 10.72353,4.25271 2.84405,2.72296 4.44182,6.41611 4.44182,10.26697 v 0 c 0,8.01898 -6.78975,14.51968 -15.16535,14.51968 v 0 c -8.375593,0 -15.16535,-6.5007 -15.16535,-14.51968 z" />
    <path
       style="fill:#ffffff;fill-rule:nonzero"
       id="path43"
       d="m 134.52493,325.5105 v 0 c 0,-8.01901 6.78976,-14.51968 15.16536,-14.51968 v 0 c 4.02209,0 7.87947,1.52975 10.72353,4.25271 2.84405,2.72296 4.44181,6.41611 4.44181,10.26697 v 0 c 0,8.01901 -6.78975,14.51968 -15.16534,14.51968 v 0 c -8.3756,0 -15.16536,-6.50067 -15.16536,-14.51968 z" />
    <path
       style="fill-rule:nonzero;stroke:#000000;stroke-width:2;stroke-linecap:butt;stroke-linejoin:round"
       id="path45"
       d="m 134.52493,325.5105 v 0 c 0,-8.01901 6.78976,-14.51968 15.16536,-14.51968 v 0 c 4.02209,0 7.87947,1.52975 10.72353,4.25271 2.84405,2.72296 4.44181,6.41611 4.44181,10.26697 v 0 c 0,8.01901 -6.78975,14.51968 -15.16534,14.51968 v 0 c -8.3756,0 -15.16536,-6.50067 -15.16536,-14.51968 z" />
    <path
       style="fill:#ffffff;fill-rule:nonzero"
       id="path47"
       d="m 182.21391,280.22964 v 0 c 0,-8.01898 6.78976,-14.51968 15.16536,-14.51968 v 0 c 4.02209,0 7.87946,1.52975 10.72351,4.25271 2.84406,2.72299 4.44183,6.41611 4.44183,10.26697 v 0 c 0,8.01901 -6.78976,14.51971 -15.16534,14.51971 v 0 c -8.3756,0 -15.16536,-6.5007 -15.16536,-14.51971 z" />
    <path
       style="fill-rule:nonzero;stroke:#000000;stroke-width:2;stroke-linecap:butt;stroke-linejoin:round"
       id="path49"
       d="m 182.21391,280.22964 v 0 c 0,-8.01898 6.78976,-14.51968 15.16536,-14.51968 v 0 c 4.02209,0 7.87946,1.52975 10.72351,4.25271 2.84406,2.72299 4.44183,6.41611 4.44183,10.26697 v 0 c 0,8.01901 -6.78976,14.51971 -15.16534,14.51971 v 0 c -8.3756,0 -15.16536,-6.5007 -15.16536,-14.51971 z" />
    <path
       style="fill:#ffffff;fill-rule:nonzero"
       id="path51"
       d="m 184.04462,325.5105 v 0 c 0,-8.01901 6.78976,-14.51968 15.16536,-14.51968 v 0 c 4.02209,0 7.87947,1.52975 10.72353,4.25271 2.84405,2.72296 4.44181,6.41611 4.44181,10.26697 v 0 c 0,8.01901 -6.78975,14.51968 -15.16534,14.51968 v 0 c -8.3756,0 -15.16536,-6.50067 -15.16536,-14.51968 z" />
    <path
       style="fill-rule:nonzero;stroke:#000000;stroke-width:2;stroke-linecap:butt;stroke-linejoin:round"
       id="path53"
       d="m 184.04462,325.5105 v 0 c 0,-8.01901 6.78976,-14.51968 15.16536,-14.51968 v 0 c 4.02209,0 7.87947,1.52975 10.72353,4.25271 2.84405,2.72296 4.44181,6.41611 4.44181,10.26697 v 0 c 0,8.01901 -6.78975,14.51968 -15.16534,14.51968 v 0 c -8.3756,0 -15.16536,-6.50067 -15.16536,-14.51968 z" />
    <path
       style="fill:#ffffff;fill-rule:nonzero"
       id="path55"
       d="m 226.04199,242.1378 v 0 c 0,-8.01901 6.78976,-14.5197 15.16536,-14.5197 v 0 c 4.02209,0 7.87947,1.52976 10.72353,4.25273 2.84405,2.72296 4.44183,6.41611 4.44183,10.26697 v 0 c 0,8.019 -6.78977,14.51967 -15.16536,14.51967 v 0 c -8.3756,0 -15.16536,-6.50067 -15.16536,-14.51967 z" />
    <path
       style="fill-rule:nonzero;stroke:#000000;stroke-width:2;stroke-linecap:butt;stroke-linejoin:round"
       id="path57"
       d="m 226.04199,242.1378 v 0 c 0,-8.01901 6.78976,-14.5197 15.16536,-14.5197 v 0 c 4.02209,0 7.87947,1.52976 10.72353,4.25273 2.84405,2.72296 4.44183,6.41611 4.44183,10.26697 v 0 c 0,8.019 -6.78977,14.51967 -15.16536,14.51967 v 0 c -8.3756,0 -15.16536,-6.50067 -15.16536,-14.51967 z" />
    <path
       style="fill:#ffffff;fill-rule:nonzero"
       id="path59"
       d="m 227.8727,287.41864 v 0 c 0,-8.01901 6.78976,-14.51968 15.16536,-14.51968 v 0 c 4.02211,0 7.87947,1.52975 10.72353,4.25271 2.84407,2.72296 4.44181,6.41611 4.44181,10.26697 v 0 c 0,8.01898 -6.78975,14.51968 -15.16534,14.51968 v 0 c -8.3756,0 -15.16536,-6.5007 -15.16536,-14.51968 z" />
    <path
       style="fill-rule:nonzero;stroke:#000000;stroke-width:2;stroke-linecap:butt;stroke-linejoin:round"
       id="path61"
       d="m 227.8727,287.41864 v 0 c 0,-8.01901 6.78976,-14.51968 15.16536,-14.51968 v 0 c 4.02211,0 7.87947,1.52975 10.72353,4.25271 2.84407,2.72296 4.44181,6.41611 4.44181,10.26697 v 0 c 0,8.01898 -6.78975,14.51968 -15.16534,14.51968 v 0 c -8.3756,0 -15.16536,-6.5007 -15.16536,-14.51968 z" />
    <path
       style="fill:#ffffff;fill-rule:nonzero"
       id="path63"
       d="m 272.41733,202.43307 v 0 c 0,-8.019 6.78976,-14.51968 15.16534,-14.51968 v 0 c 4.0221,0 7.87949,1.52974 10.72355,4.25271 2.84405,2.72296 4.4418,6.41611 4.4418,10.26697 v 0 c 0,8.019 -6.78974,14.51968 -15.16535,14.51968 v 0 c -8.37558,0 -15.16534,-6.50068 -15.16534,-14.51968 z" />
    <path
       style="fill-rule:nonzero;stroke:#000000;stroke-width:2;stroke-linecap:butt;stroke-linejoin:round"
       id="path65"
       d="m 272.41733,202.43307 v 0 c 0,-8.019 6.78976,-14.51968 15.16534,-14.51968 v 0 c 4.0221,0 7.87949,1.52974 10.72355,4.25271 2.84405,2.72296 4.4418,6.41611 4.4418,10.26697 v 0 c 0,8.019 -6.78974,14.51968 -15.16535,14.51968 v 0 c -8.37558,0 -15.16534,-6.50068 -15.16534,-14.51968 z" />
    <path
       style="fill:#ffffff;fill-rule:nonzero"
       id="path67"
       d="m 274.24802,247.71391 v 0 c 0,-8.019 6.78976,-14.51968 15.16537,-14.51968 v 0 c 4.0221,0 7.87946,1.52974 10.72352,4.25271 2.84405,2.72296 4.44183,6.41611 4.44183,10.26697 v 0 c 0,8.019 -6.78976,14.5197 -15.16534,14.5197 v 0 c -8.37561,0 -15.16538,-6.5007 -15.16538,-14.5197 z" />
    <path
       style="fill-rule:nonzero;stroke:#000000;stroke-width:2;stroke-linecap:butt;stroke-linejoin:round"
       id="path69"
       d="m 274.24802,247.71391 v 0 c 0,-8.019 6.78976,-14.51968 15.16537,-14.51968 v 0 c 4.0221,0 7.87946,1.52974 10.72352,4.25271 2.84405,2.72296 4.44183,6.41611 4.44183,10.26697 v 0 c 0,8.019 -6.78976,14.5197 -15.16534,14.5197 v 0 c -8.37561,0 -15.16538,-6.5007 -15.16538,-14.5197 z" />
    <path
       style="fill:#ffffff;fill-rule:nonzero"
       id="path71"
       d="m 195.9685,149.79527 31.9055,15.16536 -31.9055,15.16534 z" />
    <path
       style="fill-rule:nonzero;stroke:#000000;stroke-width:2;stroke-linecap:butt;stroke-linejoin:round"
       id="path73"
       d="m 195.9685,149.79527 31.9055,15.16536 -31.9055,15.16534 z" />
    <path
       style="fill:#000000;fill-opacity:0;fill-rule:nonzero"
       id="path75"
       d="m 101.35433,159.3832 v 0 c 0,-40.76469 32.99697,-73.81101 73.70078,-73.81101 v 0 c 19.54666,0 38.29276,7.776489 52.11433,21.61874 13.82158,13.84226 21.58646,32.61637 21.58646,52.19227 v 0 c 0,40.76471 -32.99696,73.81104 -73.70079,73.81104 v 0 c -40.70381,0 -73.70078,-33.04633 -73.70078,-73.81104 z" />
    <path
       style="fill-rule:nonzero;stroke:#000000;stroke-width:2;stroke-linecap:butt;stroke-linejoin:round"
       id="path77"
       d="m 101.35433,159.3832 v 0 c 0,-40.76469 32.99697,-73.81101 73.70078,-73.81101 v 0 c 19.54666,0 38.29276,7.776489 52.11433,21.61874 13.82158,13.84226 21.58646,32.61637 21.58646,52.19227 v 0 c 0,40.76471 -32.99696,73.81104 -73.70079,73.81104 v 0 c -40.70381,0 -73.70078,-33.04633 -73.70078,-73.81104 z" />
    <path
       style="fill:#ffffff;fill-rule:nonzero"
       id="path79"
       d="M 15.262467,17.706038 H 125.15223 v 54.83464 H 15.262467 Z" />
    <path
       style="fill-rule:nonzero;stroke:#000000;stroke-width:2;stroke-linecap:butt;stroke-linejoin:round"
       id="path81"
       d="M 15.262467,17.706038 H 125.15223 v 54.83464 H 15.262467 Z" />
    <path
       style="fill:#000000;fill-opacity:0;fill-rule:nonzero"
       id="path83"
       d="M 15.262467,72.65354 54.947507,18.5748" />
    <path
       style="fill-rule:nonzero;stroke:#000000;stroke-width:2;stroke-linecap:butt;stroke-linejoin:round"
       id="path85"
       d="M 15.262467,72.65354 54.947507,18.5748" />
    <path
       style="fill:#000000;fill-opacity:0;fill-rule:nonzero"
       id="path87"
       d="M 37.56649,72.65354 77.251533,18.5748" />
    <path
       style="fill-rule:nonzero;stroke:#000000;stroke-width:2;stroke-linecap:butt;stroke-linejoin:round"
       id="path89"
       d="M 37.56649,72.65354 77.251533,18.5748" />
    <path
       style="fill:#000000;fill-opacity:0;fill-rule:nonzero"
       id="path91"
       d="M 59.870514,72.65354 99.555557,18.5748" />
    <path
       style="fill-rule:nonzero;stroke:#000000;stroke-width:2;stroke-linecap:butt;stroke-linejoin:round"
       id="path93"
       d="M 59.870514,72.65354 99.555557,18.5748" />
    <path
       style="fill:#000000;fill-opacity:0;fill-rule:nonzero"
       id="path95"
       d="M 82.17454,72.65354 121.85958,18.5748" />
    <path
       style="fill-rule:nonzero;stroke:#000000;stroke-width:2;stroke-linecap:butt;stroke-linejoin:round"
       id="path97"
       d="M 82.17454,72.65354 121.85958,18.5748" />
    <path
       style="fill:#ffffff;fill-rule:nonzero"
       id="path99"
       d="m 216.86351,16.633858 h 109.88975 v 54.83465 H 216.86351 Z" />
    <path
       style="fill-rule:nonzero;stroke:#000000;stroke-width:2;stroke-linecap:butt;stroke-linejoin:round"
       id="path101"
       d="m 216.86351,16.633858 h 109.88975 v 54.83465 H 216.86351 Z" />
    <path
       style="fill:#000000;fill-opacity:0;fill-rule:nonzero"
       id="path103"
       d="M 216.86351,71.58137 256.54855,17.502627" />
    <path
       style="fill-rule:nonzero;stroke:#000000;stroke-width:2;stroke-linecap:butt;stroke-linejoin:round"
       id="path105"
       d="M 216.86351,71.58137 256.54855,17.502627" />
    <path
       style="fill:#000000;fill-opacity:0;fill-rule:nonzero"
       id="path107"
       d="M 239.16754,71.58137 278.85257,17.502627" />
    <path
       style="fill-rule:nonzero;stroke:#000000;stroke-width:2;stroke-linecap:butt;stroke-linejoin:round"
       id="path109"
       d="M 239.16754,71.58137 278.85257,17.502627" />
    <path
       style="fill:#000000;fill-opacity:0;fill-rule:nonzero"
       id="path111"
       d="M 261.47156,71.58137 301.15662,17.502627" />
    <path
       style="fill-rule:nonzero;stroke:#000000;stroke-width:2;stroke-linecap:butt;stroke-linejoin:round"
       id="path113"
       d="M 261.47156,71.58137 301.15662,17.502627" />
    <path
       style="fill:#000000;fill-opacity:0;fill-rule:nonzero"
       id="path115"
       d="M 283.7756,71.58137 323.46063,17.502627" />
    <path
       style="fill-rule:nonzero;stroke:#000000;stroke-width:2;stroke-linecap:butt;stroke-linejoin:round"
       id="path117"
       d="M 283.7756,71.58137 323.46063,17.502627" />
  </g>
  <g
     id="text123"
     style="font-size:20px;font-family:'DejaVu Sans', sans-serif;text-anchor:middle;fill:#000000"
     aria-label="أعلى">
    <path
       id="path133"
       style=""
       d="m 189.91797,93.349609 0.76172,-0.175781 q -0.42969,-0.195312 -0.58594,-0.546875 -0.15625,-0.361328 -0.15625,-0.800781 0,-0.9375 0.54688,-1.357422 0.5664,-0.439453 1.46484,-0.439453 0.60547,0 1.11328,0.322266 v 0.976562 q -0.48828,-0.322266 -1.11328,-0.322266 -0.64453,0 -0.81055,0.175782 -0.2832,0.3125 -0.2832,0.566406 0,0.751953 0.91797,1.015625 0.32226,0.09766 1.49414,-0.185547 v 0.996094 l -3.34961,0.751953 z m 0.83008,1.455079 h 1.79687 V 110 h -1.79687 z" />
    <path
       id="path135"
       style=""
       d="m 177.49609,108.20312 q 1.57227,0 3.54493,-0.9082 -0.73243,-0.23437 -1.24024,-0.81055 -0.85937,-0.97656 -0.85937,-2.34375 0,-2.57812 1.99218,-3.79882 1.22071,-0.751956 3.67188,-0.751956 v 1.650386 q -2.12891,0 -3.03711,0.67383 -0.9082,0.66406 -0.9082,1.91406 0,1.24024 0.60547,1.74805 0.81054,0.6836 1.49414,0.6836 0.53711,0 1.25976,-0.32227 l 2.8125,-1.25977 v 1.79688 l -4.10156,1.92383 Q 179.3125,110 177.57422,110 h -0.85938 v -1.79688 z" />
    <path
       id="path137"
       style=""
       d="M 173.58008,109.16016 Q 172.82813,110 171.34375,110 h -1.26953 v -1.79688 h 0.73242 q 0.9668,0 1.39649,-0.42968 0.47851,-0.47852 0.47851,-1.51367 V 94.804688 h 1.79688 v 11.455082 q 0,1.03515 0.47851,1.51367 0.42969,0.42968 1.39649,0.42968 h 0.73242 V 110 h -1.26953 q -1.46485,0 -2.23633,-0.83984 z" />
    <path
       id="path139"
       style=""
       d="m 164.33203,110.32227 q 0.88867,-0.49805 0.88867,-0.82032 -0.01,-0.41992 -0.46875,-0.54687 -0.2832,-0.0781 -0.57617,-0.46875 -0.42969,-0.57617 -0.42969,-1.17188 0,-0.63476 0.50782,-1.2207 0.78125,-0.91797 1.60156,-1.05469 0.29297,-0.0586 0.70312,-0.0586 1.14258,0 1.99219,1.30859 1.25,1.91406 1.5625,1.91406 h 0.3418 V 110 h -0.3418 q -1.11328,0 -2.20703,-1.67969 -1.05469,-1.61133 -1.30859,-1.61133 -0.35157,0 -0.49805,0.0586 -0.43945,0.16601 -0.43945,0.50781 0,0.46875 0.63476,0.73242 0.71289,0.29297 0.74219,1.49414 0.0293,0.95703 -1.07422,1.79688 -1.25,0.9375 -3.37891,1.24023 -0.86914,0.11719 -1.88476,0.11719 -1.83594,0 -2.97852,-0.40039 -2.86132,-1.00586 -2.86132,-3.56445 0,-1.49414 0.61523,-2.37305 h 1.79687 q -0.63476,0.87891 -0.63476,2.37305 0,1.11328 1.62109,1.875 0.64453,0.30273 2.39258,0.30273 0.88867,0 1.64063,-0.0781 1.45507,-0.14649 2.04101,-0.46875 z" />
  </g>
</svg>
