<?xml version="1.0" encoding="UTF-8" standalone="no"?>
<svg
   xmlns:dc="http://purl.org/dc/elements/1.1/"
   xmlns:cc="http://creativecommons.org/ns#"
   xmlns:rdf="http://www.w3.org/1999/02/22-rdf-syntax-ns#"
   xmlns:svg="http://www.w3.org/2000/svg"
   xmlns="http://www.w3.org/2000/svg"
   id="svg111"
   stroke-miterlimit="10"
   stroke-linecap="square"
   stroke="none"
   fill="none"
   viewBox="0.0 0.0 348.0 348.0"
   version="1.1">
  <metadata
     id="metadata117">
    <rdf:RDF>
      <cc:Work
         rdf:about="">
        <dc:format>image/svg+xml</dc:format>
        <dc:type
           rdf:resource="http://purl.org/dc/dcmitype/StillImage" />
      </cc:Work>
    </rdf:RDF>
  </metadata>
  <defs
     id="defs115" />
  <clipPath
     id="p.0">
    <path
       id="path2"
       clip-rule="nonzero"
       d="m0 0l348.0 0l0 348.0l-348.0 0l0 -348.0z" />
  </clipPath>
  <g
     id="g85"
     clip-path="url(#p.0)">
    <path
       style="fill:#000000;fill-opacity:0;fill-rule:evenodd"
       id="path5"
       d="M 0,0 H 348 V 348 H 0 Z" />
    <path
       style="fill:#ffffff;fill-rule:evenodd"
       id="path7"
       d="M -6,0 H 348.01575 V 347.9685 H -6 Z" />
    <path
       style="fill:#000000;fill-opacity:0;fill-rule:evenodd"
       id="path9"
       d="m 5.07874,5.7758217 h 336.9134 V 343.4451 H 5.07874 Z" />
    <path
       style="fill-rule:evenodd;stroke:#000000;stroke-width:2;stroke-linecap:butt;stroke-linejoin:round"
       id="path11"
       d="m 5.07874,5.7758217 h 336.9134 V 343.4451 H 5.07874 Z" />
    <path
       style="fill:#ffffff;fill-rule:evenodd"
       id="path13"
       d="m 282.73444,40.553925 v 0 c 0,-8.375591 6.96603,-15.165352 15.55905,-15.165352 v 0 c 4.12653,0 8.08402,1.597773 11.00192,4.441828 2.91788,2.844057 4.55713,6.701422 4.55713,10.723524 v 0 c 0,8.375595 -6.966,15.165356 -15.55905,15.165356 v 0 c -8.59302,0 -15.55905,-6.789761 -15.55905,-15.165356 z" />
    <path
       style="fill-rule:evenodd;stroke:#000000;stroke-width:2;stroke-linecap:butt;stroke-linejoin:round"
       id="path15"
       d="m 282.73444,40.553925 v 0 c 0,-8.375591 6.96603,-15.165352 15.55905,-15.165352 v 0 c 4.12653,0 8.08402,1.597773 11.00192,4.441828 2.91788,2.844057 4.55713,6.701422 4.55713,10.723524 v 0 c 0,8.375595 -6.966,15.165356 -15.55905,15.165356 v 0 c -8.59302,0 -15.55905,-6.789761 -15.55905,-15.165356 z" />
    <path
       style="fill:#000000;fill-rule:evenodd"
       id="path17"
       d="M 50.949955,90.04964 60.41452,72.726802 69.879089,90.04964 Z" />
    <path
       style="fill-rule:evenodd;stroke:#000000;stroke-width:2;stroke-linecap:butt;stroke-linejoin:round"
       id="path19"
       d="M 50.949955,90.04964 60.41452,72.726802 69.879089,90.04964 Z" />
    <path
       style="fill:#000000;fill-opacity:0;fill-rule:evenodd"
       id="path21"
       d="m 122.04724,268.00525 h 97.92126 v 41.88977 h -97.92126 z" />
    <path
       style="fill-rule:evenodd;stroke:#000000;stroke-width:2;stroke-linecap:butt;stroke-linejoin:round"
       id="path23"
       d="m 122.04724,268.00525 h 97.92126 v 41.88977 h -97.92126 z" />
    <path
       style="fill:#000000;fill-rule:evenodd"
       id="path25"
       d="M 29.517061,106.30446 H 289.61154 v 96.81889 H 29.517061 Z" />
    <path
       style="fill-rule:evenodd;stroke:#000000;stroke-width:2;stroke-linecap:butt;stroke-linejoin:round"
       id="path27"
       d="M 29.517061,106.30446 H 289.61154 v 96.81889 H 29.517061 Z" />
    <path
       style="fill:#ffffff;fill-rule:evenodd"
       id="path29"
       d="m 35.627296,113.07874 h 49.574806 v 82.14173 H 35.627296 Z" />
    <path
       style="fill-rule:evenodd;stroke:#000000;stroke-width:1;stroke-linecap:butt;stroke-linejoin:round"
       id="path31"
       d="m 35.627296,113.07874 h 49.574806 v 82.14173 H 35.627296 Z" />
    <path
       style="fill:#ffffff;fill-rule:evenodd"
       id="path33"
       d="m 85.2021,113.07874 h 49.5748 v 82.14173 H 85.2021 Z" />
    <path
       style="fill-rule:evenodd;stroke:#000000;stroke-width:1;stroke-linecap:butt;stroke-linejoin:round"
       id="path35"
       d="m 85.2021,113.07874 h 49.5748 v 82.14173 H 85.2021 Z" />
    <path
       style="fill:#ffffff;fill-rule:evenodd"
       id="path37"
       d="m 134.77843,113.07874 h 49.5748 v 82.14173 h -49.5748 z" />
    <path
       style="fill-rule:evenodd;stroke:#000000;stroke-width:1;stroke-linecap:butt;stroke-linejoin:round"
       id="path39"
       d="m 134.77843,113.07874 h 49.5748 v 82.14173 h -49.5748 z" />
    <path
       style="fill:#ffffff;fill-rule:evenodd"
       id="path41"
       d="m 184.35214,113.07874 h 49.5748 v 82.14173 h -49.5748 z" />
    <path
       style="fill-rule:evenodd;stroke:#000000;stroke-width:1;stroke-linecap:butt;stroke-linejoin:round"
       id="path43"
       d="m 184.35214,113.07874 h 49.5748 v 82.14173 h -49.5748 z" />
    <path
       style="fill:#ffffff;fill-rule:evenodd"
       id="path45"
       d="m 233.9265,113.07874 h 49.57481 v 82.14173 H 233.9265 Z" />
    <path
       style="fill-rule:evenodd;stroke:#000000;stroke-width:1;stroke-linecap:butt;stroke-linejoin:round"
       id="path47"
       d="m 233.9265,113.07874 h 49.57481 v 82.14173 H 233.9265 Z" />
    <path
       style="fill:#000000;fill-rule:evenodd"
       id="path49"
       d="m 100.52476,90.04964 9.46457,-17.322838 9.46457,17.322838 z" />
    <path
       style="fill-rule:evenodd;stroke:#000000;stroke-width:2;stroke-linecap:butt;stroke-linejoin:round"
       id="path51"
       d="m 100.52476,90.04964 9.46457,-17.322838 9.46457,17.322838 z" />
    <path
       style="fill:#000000;fill-rule:evenodd"
       id="path53"
       d="m 150.09956,90.04964 9.46457,-17.322838 9.46457,17.322838 z" />
    <path
       style="fill-rule:evenodd;stroke:#000000;stroke-width:2;stroke-linecap:butt;stroke-linejoin:round"
       id="path55"
       d="m 150.09956,90.04964 9.46457,-17.322838 9.46457,17.322838 z" />
    <path
       style="fill:#000000;fill-rule:evenodd"
       id="path57"
       d="m 199.67436,90.04964 9.46457,-17.322838 9.46457,17.322838 z" />
    <path
       style="fill-rule:evenodd;stroke:#000000;stroke-width:2;stroke-linecap:butt;stroke-linejoin:round"
       id="path59"
       d="m 199.67436,90.04964 9.46457,-17.322838 9.46457,17.322838 z" />
    <path
       style="fill:#000000;fill-rule:evenodd"
       id="path61"
       d="m 249.24916,90.04964 9.46458,-17.322838 9.46457,17.322838 z" />
    <path
       style="fill-rule:evenodd;stroke:#000000;stroke-width:2;stroke-linecap:butt;stroke-linejoin:round"
       id="path63"
       d="m 249.24916,90.04964 9.46458,-17.322838 9.46457,17.322838 z" />
    <path
       style="fill:#000000;fill-rule:evenodd"
       id="path65"
       d="m 268.1783,219.37772 -9.46457,17.32285 -9.46458,-17.32285 z" />
    <path
       style="fill-rule:evenodd;stroke:#000000;stroke-width:2;stroke-linecap:butt;stroke-linejoin:round"
       id="path67"
       d="m 268.1783,219.37772 -9.46457,17.32285 -9.46458,-17.32285 z" />
    <path
       style="fill:#000000;fill-rule:evenodd"
       id="path69"
       d="m 218.6035,219.37772 -9.46457,17.32285 -9.46457,-17.32285 z" />
    <path
       style="fill-rule:evenodd;stroke:#000000;stroke-width:2;stroke-linecap:butt;stroke-linejoin:round"
       id="path71"
       d="m 218.6035,219.37772 -9.46457,17.32285 -9.46457,-17.32285 z" />
    <path
       style="fill:#000000;fill-rule:evenodd"
       id="path73"
       d="m 169.0287,219.37772 -9.46457,17.32285 -9.46457,-17.32285 z" />
    <path
       style="fill-rule:evenodd;stroke:#000000;stroke-width:2;stroke-linecap:butt;stroke-linejoin:round"
       id="path75"
       d="m 169.0287,219.37772 -9.46457,17.32285 -9.46457,-17.32285 z" />
    <path
       style="fill:#000000;fill-rule:evenodd"
       id="path77"
       d="m 119.4539,219.37772 -9.46457,17.32285 -9.46457,-17.32285 z" />
    <path
       style="fill-rule:evenodd;stroke:#000000;stroke-width:2;stroke-linecap:butt;stroke-linejoin:round"
       id="path79"
       d="m 119.4539,219.37772 -9.46457,17.32285 -9.46457,-17.32285 z" />
    <path
       style="fill:#000000;fill-rule:evenodd"
       id="path81"
       d="m 69.87909,219.37772 -9.464569,17.32285 -9.464565,-17.32285 z" />
    <path
       style="fill-rule:evenodd;stroke:#000000;stroke-width:2;stroke-linecap:butt;stroke-linejoin:round"
       id="path83"
       d="m 69.87909,219.37772 -9.464569,17.32285 -9.464565,-17.32285 z" />
  </g>
  <g
     id="text89"
     style="font-size:20px;font-family:'DejaVu Sans', sans-serif;text-anchor:middle;fill:#000000"
     aria-label="إرسال">
    <path
       id="path119"
       style=""
       d="m 192.79688,299.90625 0.76171,-0.17578 q -0.42968,-0.19531 -0.58593,-0.54688 -0.15625,-0.36132 -0.15625,-0.80078 0,-0.9375 0.54687,-1.35742 0.56641,-0.43945 1.46485,-0.43945 0.60546,0 1.11328,0.32226 v 0.97657 q -0.48828,-0.32227 -1.11328,-0.32227 -0.64454,0 -0.81055,0.17578 -0.2832,0.3125 -0.2832,0.56641 0,0.75195 0.91796,1.01562 0.32227,0.0977 1.49414,-0.18554 v 0.99609 l -3.3496,0.75195 z m 0.83007,-19.10156 h 1.79688 V 296 h -1.79688 z" />
    <path
       id="path121"
       style=""
       d="m 188.68555,294.45703 q 0.0976,-0.5664 0.0976,-1.26953 0,-1.23047 -0.51757,-2.55859 h 1.79687 q 0.48828,1.15234 0.48828,2.4414 0,0.80078 -0.0781,1.40625 -0.44922,3.41797 -3.29102,4.93164 -2.77344,1.47461 -5.91797,1.47461 v -1.79687 q 2.96875,0 4.95117,-1.25 2.12891,-1.34766 2.47071,-3.37891 z" />
    <path
       id="path123"
       style=""
       d="m 169.08594,294.65234 q -0.41992,0.57618 -0.9668,0.89844 Q 167.37695,296 166.41016,296 h -1.26953 v -1.79687 h 0.73242 q 0.96679,0 1.39648,-0.42969 0.78125,-0.78125 0.78125,-1.75781 v -1.875 h 1.79688 v 1.52343 q 0,0.625 0.42968,1.60157 0.41993,0.96679 1.43555,0.96679 1.06445,0 1.49414,-1.1914 0.36133,-1.00586 0.36133,-2.90039 h 1.79687 q 0,2.00195 0.18555,2.49023 0.625,1.66016 1.69922,1.65039 1.38672,-0.0195 1.38672,-2.73437 v -2.8711 h 1.79687 v 3.33985 q 0,1.94335 -0.89843,3.04687 -0.73243,0.89844 -1.72852,1.13281 -0.36133,0.0879 -0.70312,0.0879 -0.61524,0 -1.15235,-0.24414 -1.33789,-0.5957 -1.51367,-1.88476 -0.46875,1.52343 -1.40625,1.8457 -0.66406,0.23438 -1.29883,0.23438 -0.95703,0 -1.66015,-0.47852 -0.58594,-0.39063 -0.98633,-1.10352 z" />
    <path
       id="path125"
       style=""
       d="m 161.12695,292.37695 v -11.57226 h 1.79688 v 11.45508 q 0,1.03515 0.47851,1.51367 0.42969,0.42969 1.39649,0.42969 h 0.73242 V 296 h -1.26953 q -1.50391,0 -2.28516,-0.89844 -0.84961,-0.98633 -0.84961,-2.72461 z" />
    <path
       id="path127"
       style=""
       d="m 154.88672,295.28711 q 0.76172,-1.23047 0.76172,-3.44727 v -11.03515 h 1.79687 v 11.03515 q 0,3.09571 -0.95703,4.50196 -1.18164,1.72851 -3.73047,2.37304 -1.30859,0.33204 -2.13867,0.33204 -0.92773,0 -1.64062,-0.21485 -2.85157,-0.89844 -2.86133,-3.56445 -0.01,-1.34766 0.61523,-2.2461 h 1.79688 q -0.63477,1.12305 -0.63477,2.2461 0,1.26953 1.6211,1.875 0.39062,0.15625 1.10351,0.15625 0.78125,0 1.8457,-0.33203 1.69922,-0.51758 2.42188,-1.67969 z" />
  </g>
  <g
     id="text93"
     style="font-size:42px;font-family:'DejaVu Sans', sans-serif;text-anchor:middle;fill:#000000"
     aria-label="أ">
    <path
       id="path130"
       style=""
       d="m 56.390625,135.03418 1.599609,-0.36914 q -0.902343,-0.41016 -1.230468,-1.14844 -0.328125,-0.75879 -0.328125,-1.68164 0,-1.96875 1.148437,-2.85058 1.189453,-0.92286 3.076172,-0.92286 1.271484,0 2.337891,0.67676 v 2.05078 q -1.025391,-0.67676 -2.337891,-0.67676 -1.353516,0 -1.702148,0.36915 -0.594727,0.65625 -0.594727,1.18945 0,1.5791 1.927734,2.13281 0.676758,0.20508 3.137696,-0.38965 v 2.0918 l -7.03418,1.5791 z m 1.743164,3.05566 h 3.773438 V 170 h -3.773438 z" />
  </g>
  <g
     id="text97"
     style="font-size:42px;font-family:'DejaVu Sans', sans-serif;text-anchor:middle;fill:#000000"
     aria-label="أ">
    <path
       id="path133"
       style=""
       d="m 106.39062,135.03418 1.59961,-0.36914 q -0.90234,-0.41016 -1.23046,-1.14844 -0.32813,-0.75879 -0.32813,-1.68164 0,-1.96875 1.14844,-2.85058 1.18945,-0.92286 3.07617,-0.92286 1.27148,0 2.33789,0.67676 v 2.05078 q -1.02539,-0.67676 -2.33789,-0.67676 -1.35352,0 -1.70215,0.36915 -0.59473,0.65625 -0.59473,1.18945 0,1.5791 1.92774,2.13281 0.67676,0.20508 3.13769,-0.38965 v 2.0918 l -7.03418,1.5791 z m 1.74317,3.05566 h 3.77344 V 170 h -3.77344 z" />
  </g>
  <g
     id="text101"
     style="font-size:42px;font-family:'DejaVu Sans', sans-serif;text-anchor:middle;fill:#000000"
     aria-label="أ">
    <path
       id="path136"
       style=""
       d="m 156.39063,135.03418 1.5996,-0.36914 q -0.90234,-0.41016 -1.23046,-1.14844 -0.32813,-0.75879 -0.32813,-1.68164 0,-1.96875 1.14844,-2.85058 1.18945,-0.92286 3.07617,-0.92286 1.27148,0 2.33789,0.67676 v 2.05078 q -1.02539,-0.67676 -2.33789,-0.67676 -1.35352,0 -1.70215,0.36915 -0.59472,0.65625 -0.59472,1.18945 0,1.5791 1.92773,2.13281 0.67676,0.20508 3.13769,-0.38965 v 2.0918 l -7.03417,1.5791 z m 1.74316,3.05566 h 3.77344 V 170 h -3.77344 z" />
  </g>
  <g
     id="text105"
     style="font-size:42px;font-family:'DejaVu Sans', sans-serif;text-anchor:middle;fill:#000000"
     aria-label="أ">
    <path
       id="path139"
       style=""
       d="m 206.39063,135.03418 1.5996,-0.36914 q -0.90234,-0.41016 -1.23046,-1.14844 -0.32813,-0.75879 -0.32813,-1.68164 0,-1.96875 1.14844,-2.85058 1.18945,-0.92286 3.07617,-0.92286 1.27148,0 2.33789,0.67676 v 2.05078 q -1.02539,-0.67676 -2.33789,-0.67676 -1.35352,0 -1.70215,0.36915 -0.59472,0.65625 -0.59472,1.18945 0,1.5791 1.92773,2.13281 0.67676,0.20508 3.13769,-0.38965 v 2.0918 l -7.03417,1.5791 z m 1.74316,3.05566 h 3.77344 V 170 h -3.77344 z" />
  </g>
  <g
     id="text109"
     style="font-size:42px;font-family:'DejaVu Sans', sans-serif;text-anchor:middle;fill:#000000"
     aria-label="أ">
    <path
       id="path142"
       style=""
       d="m 256.39063,135.03418 1.5996,-0.36914 q -0.90234,-0.41016 -1.23046,-1.14844 -0.32813,-0.75879 -0.32813,-1.68164 0,-1.96875 1.14844,-2.85058 1.18945,-0.92286 3.07617,-0.92286 1.27148,0 2.33789,0.67676 v 2.05078 q -1.02539,-0.67676 -2.33789,-0.67676 -1.35352,0 -1.70215,0.36915 -0.59472,0.65625 -0.59472,1.18945 0,1.5791 1.92773,2.13281 0.67676,0.20508 3.13769,-0.38965 v 2.0918 l -7.03417,1.5791 z m 1.74316,3.05566 h 3.77344 V 170 h -3.77344 z" />
  </g>
</svg>
