<?xml version="1.0" encoding="UTF-8" standalone="no"?>
<svg
   xmlns:dc="http://purl.org/dc/elements/1.1/"
   xmlns:cc="http://creativecommons.org/ns#"
   xmlns:rdf="http://www.w3.org/1999/02/22-rdf-syntax-ns#"
   xmlns:svg="http://www.w3.org/2000/svg"
   xmlns="http://www.w3.org/2000/svg"
   id="svg111"
   stroke-miterlimit="10"
   stroke-linecap="square"
   stroke="none"
   fill="none"
   viewBox="0.0 0.0 348.0 348.0"
   version="1.1">
  <metadata
     id="metadata117">
    <rdf:RDF>
      <cc:Work
         rdf:about="">
        <dc:format>image/svg+xml</dc:format>
        <dc:type
           rdf:resource="http://purl.org/dc/dcmitype/StillImage" />
      </cc:Work>
    </rdf:RDF>
  </metadata>
  <defs
     id="defs115" />
  <clipPath
     id="p.0">
    <path
       id="path2"
       clip-rule="nonzero"
       d="m0 0l348.0 0l0 348.0l-348.0 0l0 -348.0z" />
  </clipPath>
  <g
     id="g85"
     clip-path="url(#p.0)">
    <path
       style="fill:#000000;fill-opacity:0;fill-rule:evenodd"
       id="path5"
       d="M 0,0 H 348 V 348 H 0 Z" />
    <path
       style="fill:#ffffff;fill-rule:evenodd"
       id="path7"
       d="M -6,0 H 348.01575 V 347.9685 H -6 Z" />
    <path
       style="fill:#000000;fill-opacity:0;fill-rule:evenodd"
       id="path9"
       d="m 5.07874,5.7758217 h 336.9134 V 343.4451 H 5.07874 Z" />
    <path
       style="fill-rule:evenodd;stroke:#000000;stroke-width:2;stroke-linecap:butt;stroke-linejoin:round"
       id="path11"
       d="m 5.07874,5.7758217 h 336.9134 V 343.4451 H 5.07874 Z" />
    <path
       style="fill:#ffffff;fill-rule:evenodd"
       id="path13"
       d="m 282.73444,40.553925 v 0 c 0,-8.375591 6.96603,-15.165352 15.55905,-15.165352 v 0 c 4.12653,0 8.08402,1.597773 11.00192,4.441828 2.91788,2.844057 4.55713,6.701422 4.55713,10.723524 v 0 c 0,8.375595 -6.966,15.165356 -15.55905,15.165356 v 0 c -8.59302,0 -15.55905,-6.789761 -15.55905,-15.165356 z" />
    <path
       style="fill-rule:evenodd;stroke:#000000;stroke-width:2;stroke-linecap:butt;stroke-linejoin:round"
       id="path15"
       d="m 282.73444,40.553925 v 0 c 0,-8.375591 6.96603,-15.165352 15.55905,-15.165352 v 0 c 4.12653,0 8.08402,1.597773 11.00192,4.441828 2.91788,2.844057 4.55713,6.701422 4.55713,10.723524 v 0 c 0,8.375595 -6.966,15.165356 -15.55905,15.165356 v 0 c -8.59302,0 -15.55905,-6.789761 -15.55905,-15.165356 z" />
    <path
       style="fill:#000000;fill-rule:evenodd"
       id="path17"
       d="M 50.949955,90.04964 60.41452,72.726802 69.879089,90.04964 Z" />
    <path
       style="fill-rule:evenodd;stroke:#000000;stroke-width:2;stroke-linecap:butt;stroke-linejoin:round"
       id="path19"
       d="M 50.949955,90.04964 60.41452,72.726802 69.879089,90.04964 Z" />
    <path
       style="fill:#000000;fill-opacity:0;fill-rule:evenodd"
       id="path21"
       d="m 122.04724,268.00525 h 97.92126 v 41.88977 h -97.92126 z" />
    <path
       style="fill-rule:evenodd;stroke:#000000;stroke-width:2;stroke-linecap:butt;stroke-linejoin:round"
       id="path23"
       d="m 122.04724,268.00525 h 97.92126 v 41.88977 h -97.92126 z" />
    <path
       style="fill:#000000;fill-rule:evenodd"
       id="path25"
       d="M 29.517061,106.30446 H 289.61154 v 96.81889 H 29.517061 Z" />
    <path
       style="fill-rule:evenodd;stroke:#000000;stroke-width:2;stroke-linecap:butt;stroke-linejoin:round"
       id="path27"
       d="M 29.517061,106.30446 H 289.61154 v 96.81889 H 29.517061 Z" />
    <path
       style="fill:#ffffff;fill-rule:evenodd"
       id="path29"
       d="m 35.627296,113.07874 h 49.574806 v 82.14173 H 35.627296 Z" />
    <path
       style="fill-rule:evenodd;stroke:#000000;stroke-width:1;stroke-linecap:butt;stroke-linejoin:round"
       id="path31"
       d="m 35.627296,113.07874 h 49.574806 v 82.14173 H 35.627296 Z" />
    <path
       style="fill:#ffffff;fill-rule:evenodd"
       id="path33"
       d="m 85.2021,113.07874 h 49.5748 v 82.14173 H 85.2021 Z" />
    <path
       style="fill-rule:evenodd;stroke:#000000;stroke-width:1;stroke-linecap:butt;stroke-linejoin:round"
       id="path35"
       d="m 85.2021,113.07874 h 49.5748 v 82.14173 H 85.2021 Z" />
    <path
       style="fill:#ffffff;fill-rule:evenodd"
       id="path37"
       d="m 134.77843,113.07874 h 49.5748 v 82.14173 h -49.5748 z" />
    <path
       style="fill-rule:evenodd;stroke:#000000;stroke-width:1;stroke-linecap:butt;stroke-linejoin:round"
       id="path39"
       d="m 134.77843,113.07874 h 49.5748 v 82.14173 h -49.5748 z" />
    <path
       style="fill:#ffffff;fill-rule:evenodd"
       id="path41"
       d="m 184.35214,113.07874 h 49.5748 v 82.14173 h -49.5748 z" />
    <path
       style="fill-rule:evenodd;stroke:#000000;stroke-width:1;stroke-linecap:butt;stroke-linejoin:round"
       id="path43"
       d="m 184.35214,113.07874 h 49.5748 v 82.14173 h -49.5748 z" />
    <path
       style="fill:#ffffff;fill-rule:evenodd"
       id="path45"
       d="m 233.9265,113.07874 h 49.57481 v 82.14173 H 233.9265 Z" />
    <path
       style="fill-rule:evenodd;stroke:#000000;stroke-width:1;stroke-linecap:butt;stroke-linejoin:round"
       id="path47"
       d="m 233.9265,113.07874 h 49.57481 v 82.14173 H 233.9265 Z" />
    <path
       style="fill:#000000;fill-rule:evenodd"
       id="path49"
       d="m 100.52476,90.04964 9.46457,-17.322838 9.46457,17.322838 z" />
    <path
       style="fill-rule:evenodd;stroke:#000000;stroke-width:2;stroke-linecap:butt;stroke-linejoin:round"
       id="path51"
       d="m 100.52476,90.04964 9.46457,-17.322838 9.46457,17.322838 z" />
    <path
       style="fill:#000000;fill-rule:evenodd"
       id="path53"
       d="m 150.09956,90.04964 9.46457,-17.322838 9.46457,17.322838 z" />
    <path
       style="fill-rule:evenodd;stroke:#000000;stroke-width:2;stroke-linecap:butt;stroke-linejoin:round"
       id="path55"
       d="m 150.09956,90.04964 9.46457,-17.322838 9.46457,17.322838 z" />
    <path
       style="fill:#000000;fill-rule:evenodd"
       id="path57"
       d="m 199.67436,90.04964 9.46457,-17.322838 9.46457,17.322838 z" />
    <path
       style="fill-rule:evenodd;stroke:#000000;stroke-width:2;stroke-linecap:butt;stroke-linejoin:round"
       id="path59"
       d="m 199.67436,90.04964 9.46457,-17.322838 9.46457,17.322838 z" />
    <path
       style="fill:#000000;fill-rule:evenodd"
       id="path61"
       d="m 249.24916,90.04964 9.46458,-17.322838 9.46457,17.322838 z" />
    <path
       style="fill-rule:evenodd;stroke:#000000;stroke-width:2;stroke-linecap:butt;stroke-linejoin:round"
       id="path63"
       d="m 249.24916,90.04964 9.46458,-17.322838 9.46457,17.322838 z" />
    <path
       style="fill:#000000;fill-rule:evenodd"
       id="path65"
       d="m 268.1783,219.37772 -9.46457,17.32285 -9.46458,-17.32285 z" />
    <path
       style="fill-rule:evenodd;stroke:#000000;stroke-width:2;stroke-linecap:butt;stroke-linejoin:round"
       id="path67"
       d="m 268.1783,219.37772 -9.46457,17.32285 -9.46458,-17.32285 z" />
    <path
       style="fill:#000000;fill-rule:evenodd"
       id="path69"
       d="m 218.6035,219.37772 -9.46457,17.32285 -9.46457,-17.32285 z" />
    <path
       style="fill-rule:evenodd;stroke:#000000;stroke-width:2;stroke-linecap:butt;stroke-linejoin:round"
       id="path71"
       d="m 218.6035,219.37772 -9.46457,17.32285 -9.46457,-17.32285 z" />
    <path
       style="fill:#000000;fill-rule:evenodd"
       id="path73"
       d="m 169.0287,219.37772 -9.46457,17.32285 -9.46457,-17.32285 z" />
    <path
       style="fill-rule:evenodd;stroke:#000000;stroke-width:2;stroke-linecap:butt;stroke-linejoin:round"
       id="path75"
       d="m 169.0287,219.37772 -9.46457,17.32285 -9.46457,-17.32285 z" />
    <path
       style="fill:#000000;fill-rule:evenodd"
       id="path77"
       d="m 119.4539,219.37772 -9.46457,17.32285 -9.46457,-17.32285 z" />
    <path
       style="fill-rule:evenodd;stroke:#000000;stroke-width:2;stroke-linecap:butt;stroke-linejoin:round"
       id="path79"
       d="m 119.4539,219.37772 -9.46457,17.32285 -9.46457,-17.32285 z" />
    <path
       style="fill:#000000;fill-rule:evenodd"
       id="path81"
       d="m 69.87909,219.37772 -9.464569,17.32285 -9.464565,-17.32285 z" />
    <path
       style="fill-rule:evenodd;stroke:#000000;stroke-width:2;stroke-linecap:butt;stroke-linejoin:round"
       id="path83"
       d="m 69.87909,219.37772 -9.464569,17.32285 -9.464565,-17.32285 z" />
  </g>
  <g
     id="text89"
     style="font-size:2.5px;font-family:sans-serif;text-anchor:middle;fill:#000000"
     aria-label="[MISSING: PasswordComponent/button_submit]">
    <path
       id="path119"
       style="fill:#ff0000"
       d="m 141.53955,285.35059 h 0.51758 v 0.17456 h -0.29297 v 1.87988 h 0.29297 v 0.17456 h -0.51758 z" />
    <path
       id="path121"
       style="fill:#ff0000"
       d="m 142.54663,285.42749 h 0.36743 l 0.46509,1.24023 0.46753,-1.24023 h 0.36743 V 287.25 h -0.24048 v -1.60034 l -0.46997,1.25 h -0.2478 l -0.46997,-1.25 V 287.25 h -0.23926 z" />
    <path
       id="path123"
       style="fill:#ff0000"
       d="m 144.70483,285.42749 h 0.24659 V 287.25 h -0.24659 z" />
    <path
       id="path125"
       style="fill:#ff0000"
       d="m 146.53467,285.4873 v 0.24048 q -0.14038,-0.0671 -0.26489,-0.10009 -0.12452,-0.033 -0.24048,-0.033 -0.20142,0 -0.31128,0.0781 -0.10864,0.0781 -0.10864,0.22217 0,0.12085 0.072,0.18311 0.0732,0.061 0.27588,0.0989 l 0.14892,0.0305 q 0.27588,0.0525 0.4065,0.18555 0.13183,0.13183 0.13183,0.354 0,0.26489 -0.17822,0.40161 -0.177,0.13672 -0.52002,0.13672 -0.1294,0 -0.27588,-0.0293 -0.14526,-0.0293 -0.30151,-0.0867 v -0.2539 q 0.15014,0.0842 0.29419,0.12695 0.14404,0.0427 0.2832,0.0427 0.21118,0 0.32593,-0.083 0.11474,-0.083 0.11474,-0.23682 0,-0.13428 -0.083,-0.20996 -0.0818,-0.0757 -0.26978,-0.11353 l -0.15015,-0.0293 q -0.27588,-0.0549 -0.39917,-0.17212 -0.12329,-0.11719 -0.12329,-0.32593 0,-0.2417 0.16968,-0.38086 0.1709,-0.13916 0.46997,-0.13916 0.12817,0 0.26123,0.0232 0.13306,0.0232 0.27222,0.0696 z" />
    <path
       id="path127"
       style="fill:#ff0000"
       d="m 148.12158,285.4873 v 0.24048 q -0.14038,-0.0671 -0.26489,-0.10009 -0.12451,-0.033 -0.24048,-0.033 -0.20142,0 -0.31128,0.0781 -0.10864,0.0781 -0.10864,0.22217 0,0.12085 0.072,0.18311 0.0732,0.061 0.27588,0.0989 l 0.14893,0.0305 q 0.27587,0.0525 0.40649,0.18555 0.13184,0.13183 0.13184,0.354 0,0.26489 -0.17823,0.40161 -0.177,0.13672 -0.52002,0.13672 -0.12939,0 -0.27588,-0.0293 -0.14526,-0.0293 -0.30151,-0.0867 v -0.2539 q 0.15015,0.0842 0.29419,0.12695 0.14404,0.0427 0.2832,0.0427 0.21118,0 0.32593,-0.083 0.11475,-0.083 0.11475,-0.23682 0,-0.13428 -0.083,-0.20996 -0.0818,-0.0757 -0.26978,-0.11353 l -0.15014,-0.0293 q -0.27588,-0.0549 -0.39917,-0.17212 -0.12329,-0.11719 -0.12329,-0.32593 0,-0.2417 0.16967,-0.38086 0.1709,-0.13916 0.46997,-0.13916 0.12818,0 0.26124,0.0232 0.13305,0.0232 0.27221,0.0696 z" />
    <path
       id="path129"
       style="fill:#ff0000"
       d="m 148.61597,285.42749 h 0.24658 V 287.25 h -0.24658 z" />
    <path
       id="path131"
       style="fill:#ff0000"
       d="m 149.35327,285.42749 h 0.33203 l 0.80811,1.52466 v -1.52466 h 0.23926 V 287.25 h -0.33204 l -0.8081,-1.52466 V 287.25 h -0.23926 z" />
    <path
       id="path133"
       style="fill:#ff0000"
       d="m 152.46606,286.98999 v -0.4895 h -0.40283 v -0.20264 h 0.64698 v 0.78247 q -0.14283,0.10132 -0.31495,0.15381 -0.17212,0.0513 -0.36743,0.0513 -0.42724,0 -0.66894,-0.24902 -0.24048,-0.25025 -0.24048,-0.6958 0,-0.44678 0.24048,-0.6958 0.2417,-0.25025 0.66894,-0.25025 0.17822,0 0.33814,0.044 0.16113,0.0439 0.29663,0.12939 v 0.26245 q -0.13672,-0.11596 -0.29053,-0.17456 -0.15381,-0.0586 -0.32349,-0.0586 -0.33447,0 -0.50293,0.18677 -0.16723,0.18676 -0.16723,0.55664 0,0.36865 0.16723,0.55542 0.16846,0.18676 0.50293,0.18676 0.13062,0 0.23316,-0.022 0.10254,-0.0232 0.18432,-0.0708 z" />
    <path
       id="path135"
       style="fill:#ff0000"
       d="m 153.20947,286.93994 h 0.25757 V 287.25 h -0.25757 z m 0,-0.98266 h 0.25757 v 0.31005 h -0.25757 z" />
    <path
       id="path137"
       style="fill:#ff0000"
       d="m 155.04907,285.63013 v 0.68481 h 0.31006 q 0.17212,0 0.26611,-0.0891 0.094,-0.0891 0.094,-0.25391 0,-0.16357 -0.094,-0.25268 -0.094,-0.0891 -0.26611,-0.0891 z m -0.24658,-0.20264 h 0.55664 q 0.3064,0 0.46265,0.13916 0.15747,0.13794 0.15747,0.40527 0,0.26978 -0.15747,0.40772 -0.15625,0.13794 -0.46265,0.13794 h -0.31006 V 287.25 h -0.24658 z" />
    <path
       id="path139"
       style="fill:#ff0000"
       d="m 156.81055,286.56274 q -0.27222,0 -0.3772,0.0623 -0.10498,0.0623 -0.10498,0.2124 0,0.11963 0.0781,0.19043 0.0794,0.0696 0.21485,0.0696 0.18677,0 0.29907,-0.13183 0.11353,-0.13306 0.11353,-0.35279 v -0.05 z m 0.44799,-0.0928 V 287.25 h -0.2246 v -0.20752 q -0.0769,0.12451 -0.19165,0.18433 -0.11475,0.0586 -0.28077,0.0586 -0.20996,0 -0.33447,-0.11719 -0.12329,-0.11841 -0.12329,-0.31616 0,-0.23071 0.15381,-0.3479 0.15503,-0.11719 0.46142,-0.11719 h 0.31495 v -0.022 q 0,-0.15503 -0.10254,-0.23926 -0.10132,-0.0854 -0.28565,-0.0854 -0.11719,0 -0.22827,0.0281 -0.11108,0.0281 -0.21362,0.0842 v -0.20752 q 0.12329,-0.0476 0.23926,-0.0708 0.11596,-0.0244 0.22583,-0.0244 0.29663,0 0.44311,0.15381 0.14648,0.15381 0.14648,0.46631 z" />
    <path
       id="path141"
       style="fill:#ff0000"
       d="m 158.59399,285.9231 v 0.2124 q -0.0952,-0.0488 -0.19775,-0.0732 -0.10254,-0.0244 -0.2124,-0.0244 -0.16724,0 -0.25147,0.0513 -0.083,0.0513 -0.083,0.15381 0,0.0781 0.0598,0.12329 0.0598,0.0439 0.24048,0.0842 l 0.0769,0.0171 q 0.23926,0.0513 0.33936,0.14526 0.10132,0.0928 0.10132,0.26001 0,0.19043 -0.15137,0.30152 -0.15015,0.11108 -0.41382,0.11108 -0.10986,0 -0.22949,-0.022 -0.11841,-0.0208 -0.25025,-0.0635 v -0.23193 q 0.12452,0.0647 0.24537,0.0976 0.12085,0.0317 0.23925,0.0317 0.1587,0 0.24414,-0.0537 0.0855,-0.0549 0.0855,-0.15381 0,-0.0915 -0.0623,-0.14038 -0.061,-0.0488 -0.26978,-0.094 l -0.0781,-0.0183 q -0.20874,-0.0439 -0.30152,-0.13428 -0.0928,-0.0915 -0.0928,-0.25024 0,-0.19288 0.13672,-0.29786 0.13672,-0.10498 0.38818,-0.10498 0.12451,0 0.23438,0.0183 0.10986,0.0183 0.20263,0.0549 z" />
    <path
       id="path143"
       style="fill:#ff0000"
       d="m 159.89771,285.9231 v 0.2124 q -0.0952,-0.0488 -0.19776,-0.0732 -0.10254,-0.0244 -0.2124,-0.0244 -0.16724,0 -0.25147,0.0513 -0.083,0.0513 -0.083,0.15381 0,0.0781 0.0598,0.12329 0.0598,0.0439 0.24048,0.0842 l 0.0769,0.0171 q 0.23926,0.0513 0.33936,0.14526 0.10132,0.0928 0.10132,0.26001 0,0.19043 -0.15137,0.30152 -0.15015,0.11108 -0.41382,0.11108 -0.10986,0 -0.22949,-0.022 -0.11841,-0.0208 -0.25024,-0.0635 v -0.23193 q 0.12451,0.0647 0.24536,0.0976 0.12085,0.0317 0.23925,0.0317 0.1587,0 0.24415,-0.0537 0.0854,-0.0549 0.0854,-0.15381 0,-0.0915 -0.0623,-0.14038 -0.061,-0.0488 -0.26978,-0.094 l -0.0781,-0.0183 q -0.20874,-0.0439 -0.30152,-0.13428 -0.0928,-0.0915 -0.0928,-0.25024 0,-0.19288 0.13672,-0.29786 0.13672,-0.10498 0.38818,-0.10498 0.12452,0 0.23438,0.0183 0.10986,0.0183 0.20264,0.0549 z" />
    <path
       id="path145"
       style="fill:#ff0000"
       d="m 160.19922,285.88281 h 0.22461 l 0.28076,1.0669 0.27954,-1.0669 h 0.26489 l 0.28077,1.0669 0.27954,-1.0669 h 0.22461 l -0.35767,1.36719 h -0.26489 l -0.29419,-1.12061 -0.29541,1.12061 h -0.2649 z" />
    <path
       id="path147"
       style="fill:#ff0000"
       d="m 162.90552,286.04028 q -0.18067,0 -0.28565,0.1416 -0.10498,0.14039 -0.10498,0.38575 0,0.24536 0.10376,0.38696 0.10498,0.14038 0.28687,0.14038 0.17944,0 0.28442,-0.1416 0.10498,-0.1416 0.10498,-0.38574 0,-0.24292 -0.10498,-0.38452 -0.10498,-0.14283 -0.28442,-0.14283 z m 0,-0.19043 q 0.29297,0 0.4602,0.19043 0.16724,0.19043 0.16724,0.52735 0,0.33569 -0.16724,0.52734 -0.16723,0.19043 -0.4602,0.19043 -0.29419,0 -0.46143,-0.19043 -0.16601,-0.19165 -0.16601,-0.52734 0,-0.33692 0.16601,-0.52735 0.16724,-0.19043 0.46143,-0.19043 z" />
    <path
       id="path149"
       style="fill:#ff0000"
       d="m 164.69629,286.09277 q -0.0378,-0.022 -0.083,-0.0317 -0.0439,-0.011 -0.0977,-0.011 -0.19043,0 -0.29297,0.12451 -0.10132,0.12329 -0.10132,0.35523 V 287.25 h -0.22583 v -1.36719 h 0.22583 v 0.2124 q 0.0708,-0.12451 0.18432,-0.18432 0.11353,-0.061 0.27588,-0.061 0.0232,0 0.0513,0.004 0.0281,0.002 0.0623,0.009 z" />
    <path
       id="path151"
       style="fill:#ff0000"
       d="m 165.79004,286.09033 v -0.73974 h 0.22461 V 287.25 h -0.22461 v -0.20508 q -0.0708,0.12207 -0.17944,0.18189 -0.10743,0.0586 -0.25879,0.0586 -0.24781,0 -0.40406,-0.19775 -0.15503,-0.19776 -0.15503,-0.52002 0,-0.32227 0.15503,-0.52002 0.15625,-0.19776 0.40406,-0.19776 0.15136,0 0.25879,0.0598 0.10864,0.0586 0.17944,0.18066 z m -0.76538,0.4773 q 0,0.2478 0.10132,0.3894 0.10254,0.14038 0.28076,0.14038 0.17822,0 0.28076,-0.14038 0.10254,-0.1416 0.10254,-0.3894 0,-0.24781 -0.10254,-0.38819 -0.10254,-0.1416 -0.28076,-0.1416 -0.17822,0 -0.28076,0.1416 -0.10132,0.14038 -0.10132,0.38819 z" />
    <path
       id="path153"
       style="fill:#ff0000"
       d="m 167.85181,285.56787 v 0.26001 q -0.12452,-0.11597 -0.26612,-0.17334 -0.14038,-0.0574 -0.29907,-0.0574 -0.3125,0 -0.47851,0.19165 -0.16602,0.19043 -0.16602,0.55176 0,0.3601 0.16602,0.55175 0.16601,0.19043 0.47851,0.19043 0.15869,0 0.29907,-0.0574 0.1416,-0.0574 0.26612,-0.17334 v 0.25757 q -0.1294,0.0879 -0.27466,0.13184 -0.14404,0.0439 -0.30518,0.0439 -0.41382,0 -0.65185,-0.25269 -0.23804,-0.2539 -0.23804,-0.69213 0,-0.43946 0.23804,-0.69214 0.23803,-0.25391 0.65185,-0.25391 0.16358,0 0.30762,0.044 0.14526,0.0427 0.27222,0.12939 z" />
    <path
       id="path155"
       style="fill:#ff0000"
       d="m 168.75513,286.04028 q -0.18067,0 -0.28565,0.1416 -0.10498,0.14039 -0.10498,0.38575 0,0.24536 0.10376,0.38696 0.10498,0.14038 0.28687,0.14038 0.17944,0 0.28442,-0.1416 0.10498,-0.1416 0.10498,-0.38574 0,-0.24292 -0.10498,-0.38452 -0.10498,-0.14283 -0.28442,-0.14283 z m 0,-0.19043 q 0.29297,0 0.4602,0.19043 0.16724,0.19043 0.16724,0.52735 0,0.33569 -0.16724,0.52734 -0.16723,0.19043 -0.4602,0.19043 -0.29419,0 -0.46143,-0.19043 -0.16601,-0.19165 -0.16601,-0.52734 0,-0.33692 0.16601,-0.52735 0.16724,-0.19043 0.46143,-0.19043 z" />
    <path
       id="path157"
       style="fill:#ff0000"
       d="m 170.81812,286.14526 q 0.0842,-0.15136 0.20141,-0.22338 0.11719,-0.072 0.27588,-0.072 0.21362,0 0.32959,0.15015 0.11597,0.14893 0.11597,0.4248 v 0.8252 h -0.22583 v -0.81787 q 0,-0.19653 -0.0696,-0.29175 -0.0696,-0.0952 -0.21241,-0.0952 -0.17456,0 -0.27587,0.11596 -0.10132,0.11597 -0.10132,0.31616 V 287.25 h -0.22583 v -0.81787 q 0,-0.19775 -0.0696,-0.29175 -0.0696,-0.0952 -0.21485,-0.0952 -0.17212,0 -0.27343,0.11718 -0.10132,0.11597 -0.10132,0.31494 V 287.25 h -0.22583 v -1.36719 h 0.22583 v 0.2124 q 0.0769,-0.12573 0.18432,-0.18554 0.10743,-0.0598 0.25513,-0.0598 0.14893,0 0.25269,0.0757 0.10498,0.0757 0.15503,0.21972 z" />
    <path
       id="path159"
       style="fill:#ff0000"
       d="m 172.40747,287.04492 v 0.7251 h -0.22583 v -1.88721 h 0.22583 v 0.20752 q 0.0708,-0.12207 0.17822,-0.18066 0.10865,-0.0598 0.25879,-0.0598 0.24903,0 0.40406,0.19776 0.15625,0.19775 0.15625,0.52002 0,0.32226 -0.15625,0.52002 -0.15503,0.19775 -0.40406,0.19775 -0.15014,0 -0.25879,-0.0586 -0.10742,-0.0598 -0.17822,-0.18189 z m 0.76416,-0.47729 q 0,-0.24781 -0.10254,-0.38819 -0.10132,-0.1416 -0.27954,-0.1416 -0.17822,0 -0.28076,0.1416 -0.10132,0.14038 -0.10132,0.38819 0,0.2478 0.10132,0.3894 0.10254,0.14038 0.28076,0.14038 0.17822,0 0.27954,-0.14038 0.10254,-0.1416 0.10254,-0.3894 z" />
    <path
       id="path161"
       style="fill:#ff0000"
       d="m 174.30688,286.04028 q -0.18066,0 -0.28564,0.1416 -0.10498,0.14039 -0.10498,0.38575 0,0.24536 0.10376,0.38696 0.10498,0.14038 0.28686,0.14038 0.17945,0 0.28443,-0.1416 0.10498,-0.1416 0.10498,-0.38574 0,-0.24292 -0.10498,-0.38452 -0.10498,-0.14283 -0.28443,-0.14283 z m 0,-0.19043 q 0.29297,0 0.46021,0.19043 0.16724,0.19043 0.16724,0.52735 0,0.33569 -0.16724,0.52734 -0.16724,0.19043 -0.46021,0.19043 -0.29418,0 -0.46142,-0.19043 -0.16602,-0.19165 -0.16602,-0.52734 0,-0.33692 0.16602,-0.52735 0.16724,-0.19043 0.46142,-0.19043 z" />
    <path
       id="path163"
       style="fill:#ff0000"
       d="m 176.44189,286.4248 v 0.8252 h -0.2246 v -0.81787 q 0,-0.19409 -0.0757,-0.29053 -0.0757,-0.0964 -0.22705,-0.0964 -0.18188,0 -0.28686,0.11596 -0.10498,0.11597 -0.10498,0.31616 V 287.25 h -0.22583 v -1.36719 h 0.22583 v 0.2124 q 0.0806,-0.12329 0.1892,-0.18432 0.10987,-0.061 0.25269,-0.061 0.2356,0 0.35644,0.14649 0.12085,0.14526 0.12085,0.42846 z" />
    <path
       id="path165"
       style="fill:#ff0000"
       d="m 178.06177,286.51025 v 0.10987 h -1.03272 q 0.0146,0.23193 0.13916,0.354 0.12574,0.12085 0.34912,0.12085 0.1294,0 0.25025,-0.0317 0.12207,-0.0317 0.2417,-0.0952 v 0.2124 q -0.12085,0.0513 -0.24781,0.0781 -0.12695,0.0269 -0.25756,0.0269 -0.32715,0 -0.5188,-0.19043 -0.19043,-0.19043 -0.19043,-0.51514 0,-0.33569 0.18066,-0.53222 0.18189,-0.19776 0.4895,-0.19776 0.27588,0 0.43579,0.17823 0.16114,0.177 0.16114,0.48217 z m -0.22461,-0.0659 q -0.002,-0.18433 -0.10376,-0.29419 -0.1001,-0.10987 -0.26611,-0.10987 -0.18799,0 -0.30152,0.1062 -0.1123,0.10621 -0.12939,0.29908 z" />
    <path
       id="path167"
       style="fill:#ff0000"
       d="m 179.56689,286.4248 v 0.8252 h -0.2246 v -0.81787 q 0,-0.19409 -0.0757,-0.29053 -0.0757,-0.0964 -0.22705,-0.0964 -0.18188,0 -0.28686,0.11596 -0.10498,0.11597 -0.10498,0.31616 V 287.25 h -0.22583 v -1.36719 h 0.22583 v 0.2124 q 0.0806,-0.12329 0.1892,-0.18432 0.10987,-0.061 0.25269,-0.061 0.2356,0 0.35644,0.14649 0.12085,0.14526 0.12085,0.42846 z" />
    <path
       id="path169"
       style="fill:#ff0000"
       d="m 180.2395,285.49463 v 0.38818 h 0.46265 v 0.17456 h -0.46265 v 0.74219 q 0,0.16724 0.0452,0.21484 0.0464,0.0476 0.18677,0.0476 h 0.23071 V 287.25 h -0.23071 q -0.26001,0 -0.35889,-0.0964 -0.0989,-0.0977 -0.0989,-0.354 v -0.74219 h -0.16479 v -0.17456 h 0.16479 v -0.38818 z" />
    <path
       id="path171"
       style="fill:#ff0000"
       d="m 181.39795,285.42749 h 0.20752 l -0.63477,2.05444 h -0.20752 z" />
    <path
       id="path173"
       style="fill:#ff0000"
       d="m 182.82495,286.56763 q 0,-0.24781 -0.10254,-0.38819 -0.10132,-0.1416 -0.27954,-0.1416 -0.17822,0 -0.28076,0.1416 -0.10132,0.14038 -0.10132,0.38819 0,0.2478 0.10132,0.3894 0.10254,0.14038 0.28076,0.14038 0.17822,0 0.27954,-0.14038 0.10254,-0.1416 0.10254,-0.3894 z m -0.76416,-0.4773 q 0.0708,-0.12207 0.17822,-0.18066 0.10865,-0.0598 0.25879,-0.0598 0.24903,0 0.40406,0.19776 0.15625,0.19775 0.15625,0.52002 0,0.32226 -0.15625,0.52002 -0.15503,0.19775 -0.40406,0.19775 -0.15014,0 -0.25879,-0.0586 -0.10742,-0.0598 -0.17822,-0.18189 V 287.25 h -0.22583 v -1.89941 h 0.22583 z" />
    <path
       id="path175"
       style="fill:#ff0000"
       d="m 183.40723,286.71045 v -0.82764 h 0.22461 v 0.81909 q 0,0.1941 0.0757,0.29175 0.0757,0.0964 0.22705,0.0964 0.18189,0 0.28687,-0.11597 0.1062,-0.11597 0.1062,-0.31616 v -0.77515 h 0.22461 V 287.25 h -0.22461 v -0.20996 q -0.0818,0.12451 -0.19043,0.18555 -0.10742,0.0598 -0.25025,0.0598 -0.23559,0 -0.35766,-0.14648 -0.12207,-0.14649 -0.12207,-0.42847 z m 0.56518,-0.8606 z" />
    <path
       id="path177"
       style="fill:#ff0000"
       d="m 185.2395,285.49463 v 0.38818 h 0.46265 v 0.17456 h -0.46265 v 0.74219 q 0,0.16724 0.0452,0.21484 0.0464,0.0476 0.18677,0.0476 h 0.23071 V 287.25 h -0.23071 q -0.26001,0 -0.35889,-0.0964 -0.0989,-0.0977 -0.0989,-0.354 v -0.74219 h -0.16479 v -0.17456 h 0.16479 v -0.38818 z" />
    <path
       id="path179"
       style="fill:#ff0000"
       d="m 186.22095,285.49463 v 0.38818 h 0.46264 v 0.17456 h -0.46264 v 0.74219 q 0,0.16724 0.0452,0.21484 0.0464,0.0476 0.18677,0.0476 h 0.23071 V 287.25 h -0.23071 q -0.26001,0 -0.35889,-0.0964 -0.0989,-0.0977 -0.0989,-0.354 v -0.74219 h -0.1648 v -0.17456 h 0.1648 v -0.38818 z" />
    <path
       id="path181"
       style="fill:#ff0000"
       d="m 187.51001,286.04028 q -0.18066,0 -0.28564,0.1416 -0.10499,0.14039 -0.10499,0.38575 0,0.24536 0.10376,0.38696 0.10499,0.14038 0.28687,0.14038 0.17944,0 0.28442,-0.1416 0.10498,-0.1416 0.10498,-0.38574 0,-0.24292 -0.10498,-0.38452 -0.10498,-0.14283 -0.28442,-0.14283 z m 0,-0.19043 q 0.29297,0 0.4602,0.19043 0.16724,0.19043 0.16724,0.52735 0,0.33569 -0.16724,0.52734 -0.16723,0.19043 -0.4602,0.19043 -0.29419,0 -0.46143,-0.19043 -0.16601,-0.19165 -0.16601,-0.52734 0,-0.33692 0.16601,-0.52735 0.16724,-0.19043 0.46143,-0.19043 z" />
    <path
       id="path183"
       style="fill:#ff0000"
       d="m 189.64502,286.4248 v 0.8252 h -0.22461 v -0.81787 q 0,-0.19409 -0.0757,-0.29053 -0.0757,-0.0964 -0.22705,-0.0964 -0.18189,0 -0.28687,0.11596 -0.10498,0.11597 -0.10498,0.31616 V 287.25 H 188.5 v -1.36719 h 0.22583 v 0.2124 q 0.0806,-0.12329 0.18921,-0.18432 0.10986,-0.061 0.25268,-0.061 0.2356,0 0.35645,0.14649 0.12085,0.14526 0.12085,0.42846 z" />
    <path
       id="path185"
       style="fill:#ff0000"
       d="m 191.13428,287.66504 v 0.17456 h -1.29883 v -0.17456 z" />
    <path
       id="path187"
       style="fill:#ff0000"
       d="m 192.21704,285.9231 v 0.2124 q -0.0952,-0.0488 -0.19775,-0.0732 -0.10254,-0.0244 -0.21241,-0.0244 -0.16723,0 -0.25146,0.0513 -0.083,0.0513 -0.083,0.15381 0,0.0781 0.0598,0.12329 0.0598,0.0439 0.24048,0.0842 l 0.0769,0.0171 q 0.23926,0.0513 0.33935,0.14526 0.10132,0.0928 0.10132,0.26001 0,0.19043 -0.15136,0.30152 -0.15015,0.11108 -0.41382,0.11108 -0.10987,0 -0.22949,-0.022 -0.11841,-0.0208 -0.25025,-0.0635 v -0.23193 q 0.12451,0.0647 0.24536,0.0976 0.12085,0.0317 0.23926,0.0317 0.15869,0 0.24414,-0.0537 0.0855,-0.0549 0.0855,-0.15381 0,-0.0915 -0.0623,-0.14038 -0.061,-0.0488 -0.26977,-0.094 l -0.0781,-0.0183 q -0.20874,-0.0439 -0.30151,-0.13428 -0.0928,-0.0915 -0.0928,-0.25024 0,-0.19288 0.13672,-0.29786 0.13671,-0.10498 0.38818,-0.10498 0.12451,0 0.23437,0.0183 0.10987,0.0183 0.20264,0.0549 z" />
    <path
       id="path189"
       style="fill:#ff0000"
       d="m 192.62598,286.71045 v -0.82764 h 0.22461 v 0.81909 q 0,0.1941 0.0757,0.29175 0.0757,0.0964 0.22705,0.0964 0.18189,0 0.28687,-0.11597 0.1062,-0.11597 0.1062,-0.31616 v -0.77515 H 193.771 V 287.25 h -0.22461 v -0.20996 q -0.0818,0.12451 -0.19043,0.18555 -0.10742,0.0598 -0.25025,0.0598 -0.23559,0 -0.35766,-0.14648 -0.12207,-0.14649 -0.12207,-0.42847 z m 0.56518,-0.8606 z" />
    <path
       id="path191"
       style="fill:#ff0000"
       d="m 195.21753,286.56763 q 0,-0.24781 -0.10254,-0.38819 -0.10132,-0.1416 -0.27954,-0.1416 -0.17822,0 -0.28076,0.1416 -0.10132,0.14038 -0.10132,0.38819 0,0.2478 0.10132,0.3894 0.10254,0.14038 0.28076,0.14038 0.17822,0 0.27954,-0.14038 0.10254,-0.1416 0.10254,-0.3894 z m -0.76416,-0.4773 q 0.0708,-0.12207 0.17822,-0.18066 0.10864,-0.0598 0.25879,-0.0598 0.24902,0 0.40405,0.19776 0.15625,0.19775 0.15625,0.52002 0,0.32226 -0.15625,0.52002 -0.15503,0.19775 -0.40405,0.19775 -0.15015,0 -0.25879,-0.0586 -0.10742,-0.0598 -0.17822,-0.18189 V 287.25 h -0.22583 v -1.89941 h 0.22583 z" />
    <path
       id="path193"
       style="fill:#ff0000"
       d="m 196.88745,286.14526 q 0.0842,-0.15136 0.20142,-0.22338 0.11718,-0.072 0.27588,-0.072 0.21362,0 0.32959,0.15015 0.11596,0.14893 0.11596,0.4248 v 0.8252 h -0.22583 v -0.81787 q 0,-0.19653 -0.0696,-0.29175 -0.0696,-0.0952 -0.2124,-0.0952 -0.17456,0 -0.27588,0.11596 -0.10132,0.11597 -0.10132,0.31616 V 287.25 h -0.22583 v -0.81787 q 0,-0.19775 -0.0696,-0.29175 -0.0696,-0.0952 -0.21484,-0.0952 -0.17212,0 -0.27344,0.11718 -0.10132,0.11597 -0.10132,0.31494 V 287.25 h -0.22583 v -1.36719 h 0.22583 v 0.2124 q 0.0769,-0.12573 0.18433,-0.18554 0.10742,-0.0598 0.25513,-0.0598 0.14892,0 0.25268,0.0757 0.10498,0.0757 0.15503,0.21972 z" />
    <path
       id="path195"
       style="fill:#ff0000"
       d="m 198.25952,285.88281 h 0.22461 V 287.25 h -0.22461 z m 0,-0.53222 h 0.22461 v 0.28442 h -0.22461 z" />
    <path
       id="path197"
       style="fill:#ff0000"
       d="m 199.17505,285.49463 v 0.38818 h 0.46265 v 0.17456 h -0.46265 v 0.74219 q 0,0.16724 0.0452,0.21484 0.0464,0.0476 0.18677,0.0476 h 0.23072 V 287.25 h -0.23072 q -0.26001,0 -0.35888,-0.0964 -0.0989,-0.0977 -0.0989,-0.354 v -0.74219 h -0.1648 v -0.17456 h 0.1648 v -0.38818 z" />
    <path
       id="path199"
       style="fill:#ff0000"
       d="m 200.45923,285.35059 v 2.229 h -0.51758 v -0.17456 h 0.29175 v -1.87988 h -0.29175 v -0.17456 z" />
  </g>
  <g
     id="text93"
     style="font-size:42px;font-family:'DejaVu Sans', sans-serif;text-anchor:middle;fill:#000000"
     aria-label="أ">
    <path
       id="path202"
       style=""
       d="m 56.390625,135.03418 1.599609,-0.36914 q -0.902343,-0.41016 -1.230468,-1.14844 -0.328125,-0.75879 -0.328125,-1.68164 0,-1.96875 1.148437,-2.85058 1.189453,-0.92286 3.076172,-0.92286 1.271484,0 2.337891,0.67676 v 2.05078 q -1.025391,-0.67676 -2.337891,-0.67676 -1.353516,0 -1.702148,0.36915 -0.594727,0.65625 -0.594727,1.18945 0,1.5791 1.927734,2.13281 0.676758,0.20508 3.137696,-0.38965 v 2.0918 l -7.03418,1.5791 z m 1.743164,3.05566 h 3.773438 V 170 h -3.773438 z" />
  </g>
  <g
     id="text97"
     style="font-size:42px;font-family:'DejaVu Sans', sans-serif;text-anchor:middle;fill:#000000"
     aria-label="أ">
    <path
       id="path205"
       style=""
       d="m 106.39062,135.03418 1.59961,-0.36914 q -0.90234,-0.41016 -1.23046,-1.14844 -0.32813,-0.75879 -0.32813,-1.68164 0,-1.96875 1.14844,-2.85058 1.18945,-0.92286 3.07617,-0.92286 1.27148,0 2.33789,0.67676 v 2.05078 q -1.02539,-0.67676 -2.33789,-0.67676 -1.35352,0 -1.70215,0.36915 -0.59473,0.65625 -0.59473,1.18945 0,1.5791 1.92774,2.13281 0.67676,0.20508 3.13769,-0.38965 v 2.0918 l -7.03418,1.5791 z m 1.74317,3.05566 h 3.77344 V 170 h -3.77344 z" />
  </g>
  <g
     id="text101"
     style="font-size:42px;font-family:'DejaVu Sans', sans-serif;text-anchor:middle;fill:#000000"
     aria-label="أ">
    <path
       id="path208"
       style=""
       d="m 156.39063,135.03418 1.5996,-0.36914 q -0.90234,-0.41016 -1.23046,-1.14844 -0.32813,-0.75879 -0.32813,-1.68164 0,-1.96875 1.14844,-2.85058 1.18945,-0.92286 3.07617,-0.92286 1.27148,0 2.33789,0.67676 v 2.05078 q -1.02539,-0.67676 -2.33789,-0.67676 -1.35352,0 -1.70215,0.36915 -0.59472,0.65625 -0.59472,1.18945 0,1.5791 1.92773,2.13281 0.67676,0.20508 3.13769,-0.38965 v 2.0918 l -7.03417,1.5791 z m 1.74316,3.05566 h 3.77344 V 170 h -3.77344 z" />
  </g>
  <g
     id="text105"
     style="font-size:42px;font-family:'DejaVu Sans', sans-serif;text-anchor:middle;fill:#000000"
     aria-label="أ">
    <path
       id="path211"
       style=""
       d="m 206.39063,135.03418 1.5996,-0.36914 q -0.90234,-0.41016 -1.23046,-1.14844 -0.32813,-0.75879 -0.32813,-1.68164 0,-1.96875 1.14844,-2.85058 1.18945,-0.92286 3.07617,-0.92286 1.27148,0 2.33789,0.67676 v 2.05078 q -1.02539,-0.67676 -2.33789,-0.67676 -1.35352,0 -1.70215,0.36915 -0.59472,0.65625 -0.59472,1.18945 0,1.5791 1.92773,2.13281 0.67676,0.20508 3.13769,-0.38965 v 2.0918 l -7.03417,1.5791 z m 1.74316,3.05566 h 3.77344 V 170 h -3.77344 z" />
  </g>
  <g
     id="text109"
     style="font-size:42px;font-family:'DejaVu Sans', sans-serif;text-anchor:middle;fill:#000000"
     aria-label="أ">
    <path
       id="path214"
       style=""
       d="m 256.39063,135.03418 1.5996,-0.36914 q -0.90234,-0.41016 -1.23046,-1.14844 -0.32813,-0.75879 -0.32813,-1.68164 0,-1.96875 1.14844,-2.85058 1.18945,-0.92286 3.07617,-0.92286 1.27148,0 2.33789,0.67676 v 2.05078 q -1.02539,-0.67676 -2.33789,-0.67676 -1.35352,0 -1.70215,0.36915 -0.59472,0.65625 -0.59472,1.18945 0,1.5791 1.92773,2.13281 0.67676,0.20508 3.13769,-0.38965 v 2.0918 l -7.03417,1.5791 z m 1.74316,3.05566 h 3.77344 V 170 h -3.77344 z" />
  </g>
</svg>
