<?xml version="1.0" encoding="UTF-8" standalone="no"?>
<svg
   xmlns:dc="http://purl.org/dc/elements/1.1/"
   xmlns:cc="http://creativecommons.org/ns#"
   xmlns:rdf="http://www.w3.org/1999/02/22-rdf-syntax-ns#"
   xmlns:svg="http://www.w3.org/2000/svg"
   xmlns="http://www.w3.org/2000/svg"
   id="svg111"
   stroke-miterlimit="10"
   stroke-linecap="square"
   stroke="none"
   fill="none"
   viewBox="0.0 0.0 348.0 348.0"
   version="1.1">
  <metadata
     id="metadata117">
    <rdf:RDF>
      <cc:Work
         rdf:about="">
        <dc:format>image/svg+xml</dc:format>
        <dc:type
           rdf:resource="http://purl.org/dc/dcmitype/StillImage" />
      </cc:Work>
    </rdf:RDF>
  </metadata>
  <defs
     id="defs115" />
  <clipPath
     id="p.0">
    <path
       id="path2"
       clip-rule="nonzero"
       d="m0 0l348.0 0l0 348.0l-348.0 0l0 -348.0z" />
  </clipPath>
  <g
     id="g85"
     clip-path="url(#p.0)">
    <path
       style="fill:#000000;fill-opacity:0;fill-rule:evenodd"
       id="path5"
       d="M 0,0 H 348 V 348 H 0 Z" />
    <path
       style="fill:#ffffff;fill-rule:evenodd"
       id="path7"
       d="M -6,0 H 348.01575 V 347.9685 H -6 Z" />
    <path
       style="fill:#000000;fill-opacity:0;fill-rule:evenodd"
       id="path9"
       d="m 5.07874,5.7758217 h 336.9134 V 343.4451 H 5.07874 Z" />
    <path
       style="fill-rule:evenodd;stroke:#000000;stroke-width:2;stroke-linecap:butt;stroke-linejoin:round"
       id="path11"
       d="m 5.07874,5.7758217 h 336.9134 V 343.4451 H 5.07874 Z" />
    <path
       style="fill:#ffffff;fill-rule:evenodd"
       id="path13"
       d="m 282.73444,40.553925 v 0 c 0,-8.375591 6.96603,-15.165352 15.55905,-15.165352 v 0 c 4.12653,0 8.08402,1.597773 11.00192,4.441828 2.91788,2.844057 4.55713,6.701422 4.55713,10.723524 v 0 c 0,8.375595 -6.966,15.165356 -15.55905,15.165356 v 0 c -8.59302,0 -15.55905,-6.789761 -15.55905,-15.165356 z" />
    <path
       style="fill-rule:evenodd;stroke:#000000;stroke-width:2;stroke-linecap:butt;stroke-linejoin:round"
       id="path15"
       d="m 282.73444,40.553925 v 0 c 0,-8.375591 6.96603,-15.165352 15.55905,-15.165352 v 0 c 4.12653,0 8.08402,1.597773 11.00192,4.441828 2.91788,2.844057 4.55713,6.701422 4.55713,10.723524 v 0 c 0,8.375595 -6.966,15.165356 -15.55905,15.165356 v 0 c -8.59302,0 -15.55905,-6.789761 -15.55905,-15.165356 z" />
    <path
       style="fill:#000000;fill-rule:evenodd"
       id="path17"
       d="M 50.949955,90.04964 60.41452,72.726802 69.879089,90.04964 Z" />
    <path
       style="fill-rule:evenodd;stroke:#000000;stroke-width:2;stroke-linecap:butt;stroke-linejoin:round"
       id="path19"
       d="M 50.949955,90.04964 60.41452,72.726802 69.879089,90.04964 Z" />
    <path
       style="fill:#000000;fill-opacity:0;fill-rule:evenodd"
       id="path21"
       d="m 122.04724,268.00525 h 97.92126 v 41.88977 h -97.92126 z" />
    <path
       style="fill-rule:evenodd;stroke:#000000;stroke-width:2;stroke-linecap:butt;stroke-linejoin:round"
       id="path23"
       d="m 122.04724,268.00525 h 97.92126 v 41.88977 h -97.92126 z" />
    <path
       style="fill:#000000;fill-rule:evenodd"
       id="path25"
       d="M 29.517061,106.30446 H 289.61154 v 96.81889 H 29.517061 Z" />
    <path
       style="fill-rule:evenodd;stroke:#000000;stroke-width:2;stroke-linecap:butt;stroke-linejoin:round"
       id="path27"
       d="M 29.517061,106.30446 H 289.61154 v 96.81889 H 29.517061 Z" />
    <path
       style="fill:#ffffff;fill-rule:evenodd"
       id="path29"
       d="m 35.627296,113.07874 h 49.574806 v 82.14173 H 35.627296 Z" />
    <path
       style="fill-rule:evenodd;stroke:#000000;stroke-width:1;stroke-linecap:butt;stroke-linejoin:round"
       id="path31"
       d="m 35.627296,113.07874 h 49.574806 v 82.14173 H 35.627296 Z" />
    <path
       style="fill:#ffffff;fill-rule:evenodd"
       id="path33"
       d="m 85.2021,113.07874 h 49.5748 v 82.14173 H 85.2021 Z" />
    <path
       style="fill-rule:evenodd;stroke:#000000;stroke-width:1;stroke-linecap:butt;stroke-linejoin:round"
       id="path35"
       d="m 85.2021,113.07874 h 49.5748 v 82.14173 H 85.2021 Z" />
    <path
       style="fill:#ffffff;fill-rule:evenodd"
       id="path37"
       d="m 134.77843,113.07874 h 49.5748 v 82.14173 h -49.5748 z" />
    <path
       style="fill-rule:evenodd;stroke:#000000;stroke-width:1;stroke-linecap:butt;stroke-linejoin:round"
       id="path39"
       d="m 134.77843,113.07874 h 49.5748 v 82.14173 h -49.5748 z" />
    <path
       style="fill:#ffffff;fill-rule:evenodd"
       id="path41"
       d="m 184.35214,113.07874 h 49.5748 v 82.14173 h -49.5748 z" />
    <path
       style="fill-rule:evenodd;stroke:#000000;stroke-width:1;stroke-linecap:butt;stroke-linejoin:round"
       id="path43"
       d="m 184.35214,113.07874 h 49.5748 v 82.14173 h -49.5748 z" />
    <path
       style="fill:#ffffff;fill-rule:evenodd"
       id="path45"
       d="m 233.9265,113.07874 h 49.57481 v 82.14173 H 233.9265 Z" />
    <path
       style="fill-rule:evenodd;stroke:#000000;stroke-width:1;stroke-linecap:butt;stroke-linejoin:round"
       id="path47"
       d="m 233.9265,113.07874 h 49.57481 v 82.14173 H 233.9265 Z" />
    <path
       style="fill:#000000;fill-rule:evenodd"
       id="path49"
       d="m 100.52476,90.04964 9.46457,-17.322838 9.46457,17.322838 z" />
    <path
       style="fill-rule:evenodd;stroke:#000000;stroke-width:2;stroke-linecap:butt;stroke-linejoin:round"
       id="path51"
       d="m 100.52476,90.04964 9.46457,-17.322838 9.46457,17.322838 z" />
    <path
       style="fill:#000000;fill-rule:evenodd"
       id="path53"
       d="m 150.09956,90.04964 9.46457,-17.322838 9.46457,17.322838 z" />
    <path
       style="fill-rule:evenodd;stroke:#000000;stroke-width:2;stroke-linecap:butt;stroke-linejoin:round"
       id="path55"
       d="m 150.09956,90.04964 9.46457,-17.322838 9.46457,17.322838 z" />
    <path
       style="fill:#000000;fill-rule:evenodd"
       id="path57"
       d="m 199.67436,90.04964 9.46457,-17.322838 9.46457,17.322838 z" />
    <path
       style="fill-rule:evenodd;stroke:#000000;stroke-width:2;stroke-linecap:butt;stroke-linejoin:round"
       id="path59"
       d="m 199.67436,90.04964 9.46457,-17.322838 9.46457,17.322838 z" />
    <path
       style="fill:#000000;fill-rule:evenodd"
       id="path61"
       d="m 249.24916,90.04964 9.46458,-17.322838 9.46457,17.322838 z" />
    <path
       style="fill-rule:evenodd;stroke:#000000;stroke-width:2;stroke-linecap:butt;stroke-linejoin:round"
       id="path63"
       d="m 249.24916,90.04964 9.46458,-17.322838 9.46457,17.322838 z" />
    <path
       style="fill:#000000;fill-rule:evenodd"
       id="path65"
       d="m 268.1783,219.37772 -9.46457,17.32285 -9.46458,-17.32285 z" />
    <path
       style="fill-rule:evenodd;stroke:#000000;stroke-width:2;stroke-linecap:butt;stroke-linejoin:round"
       id="path67"
       d="m 268.1783,219.37772 -9.46457,17.32285 -9.46458,-17.32285 z" />
    <path
       style="fill:#000000;fill-rule:evenodd"
       id="path69"
       d="m 218.6035,219.37772 -9.46457,17.32285 -9.46457,-17.32285 z" />
    <path
       style="fill-rule:evenodd;stroke:#000000;stroke-width:2;stroke-linecap:butt;stroke-linejoin:round"
       id="path71"
       d="m 218.6035,219.37772 -9.46457,17.32285 -9.46457,-17.32285 z" />
    <path
       style="fill:#000000;fill-rule:evenodd"
       id="path73"
       d="m 169.0287,219.37772 -9.46457,17.32285 -9.46457,-17.32285 z" />
    <path
       style="fill-rule:evenodd;stroke:#000000;stroke-width:2;stroke-linecap:butt;stroke-linejoin:round"
       id="path75"
       d="m 169.0287,219.37772 -9.46457,17.32285 -9.46457,-17.32285 z" />
    <path
       style="fill:#000000;fill-rule:evenodd"
       id="path77"
       d="m 119.4539,219.37772 -9.46457,17.32285 -9.46457,-17.32285 z" />
    <path
       style="fill-rule:evenodd;stroke:#000000;stroke-width:2;stroke-linecap:butt;stroke-linejoin:round"
       id="path79"
       d="m 119.4539,219.37772 -9.46457,17.32285 -9.46457,-17.32285 z" />
    <path
       style="fill:#000000;fill-rule:evenodd"
       id="path81"
       d="m 69.87909,219.37772 -9.464569,17.32285 -9.464565,-17.32285 z" />
    <path
       style="fill-rule:evenodd;stroke:#000000;stroke-width:2;stroke-linecap:butt;stroke-linejoin:round"
       id="path83"
       d="m 69.87909,219.37772 -9.464569,17.32285 -9.464565,-17.32285 z" />
  </g>
  <g
     id="text89"
     style="font-size:3px;font-family:sans-serif;text-anchor:middle;fill:#000000"
     aria-label="[MISSING: PasswordComponent/button_submit]">
    <path
       id="path119"
       style="fill:#ff0000"
       d="m 135.64746,285.2207 h 0.62109 v 0.20948 h -0.35156 v 2.25586 h 0.35156 v 0.20947 h -0.62109 z" />
    <path
       id="path121"
       style="fill:#ff0000"
       d="m 136.85596,285.31299 h 0.44092 l 0.5581,1.48828 0.56104,-1.48828 h 0.44091 V 287.5 h -0.28857 v -1.92041 l -0.56397,1.5 h -0.29736 l -0.56396,-1.5 V 287.5 h -0.28711 z" />
    <path
       id="path123"
       style="fill:#ff0000"
       d="m 139.4458,285.31299 h 0.2959 V 287.5 h -0.2959 z" />
    <path
       id="path125"
       style="fill:#ff0000"
       d="m 141.6416,285.38477 v 0.28857 q -0.16846,-0.0806 -0.31787,-0.12012 -0.14941,-0.0396 -0.28857,-0.0396 -0.2417,0 -0.37354,0.0938 -0.13037,0.0938 -0.13037,0.2666 0,0.14502 0.0864,0.21973 0.0879,0.0732 0.33105,0.11865 l 0.17871,0.0366 q 0.33106,0.063 0.48779,0.22266 0.15821,0.1582 0.15821,0.4248 0,0.31788 -0.21387,0.48194 -0.2124,0.16406 -0.62402,0.16406 -0.15528,0 -0.33106,-0.0352 -0.17431,-0.0351 -0.36181,-0.104 v -0.30469 q 0.18017,0.10108 0.35302,0.15235 0.17285,0.0513 0.33985,0.0513 0.25341,0 0.39111,-0.0996 0.1377,-0.0996 0.1377,-0.28418 0,-0.16114 -0.0996,-0.25196 -0.0981,-0.0908 -0.32373,-0.13623 l -0.18018,-0.0351 q -0.33105,-0.0659 -0.479,-0.20655 -0.14795,-0.14062 -0.14795,-0.39111 0,-0.29004 0.20361,-0.45703 0.20508,-0.16699 0.56396,-0.16699 0.15381,0 0.31348,0.0278 0.15967,0.0278 0.32666,0.0835 z" />
    <path
       id="path127"
       style="fill:#ff0000"
       d="m 143.5459,285.38477 v 0.28857 q -0.16846,-0.0806 -0.31787,-0.12012 -0.14942,-0.0396 -0.28858,-0.0396 -0.2417,0 -0.37353,0.0938 -0.13037,0.0938 -0.13037,0.2666 0,0.14502 0.0864,0.21973 0.0879,0.0732 0.33106,0.11865 l 0.17871,0.0366 q 0.33105,0.063 0.48779,0.22266 0.1582,0.1582 0.1582,0.4248 0,0.31788 -0.21386,0.48194 -0.21241,0.16406 -0.62403,0.16406 -0.15527,0 -0.33105,-0.0352 -0.17432,-0.0351 -0.36182,-0.104 v -0.30469 q 0.18018,0.10108 0.35303,0.15235 0.17285,0.0513 0.33984,0.0513 0.25342,0 0.39112,-0.0996 0.13769,-0.0996 0.13769,-0.28418 0,-0.16114 -0.0996,-0.25196 -0.0981,-0.0908 -0.32373,-0.13623 l -0.18017,-0.0351 q -0.33106,-0.0659 -0.47901,-0.20655 -0.14795,-0.14062 -0.14795,-0.39111 0,-0.29004 0.20362,-0.45703 0.20508,-0.16699 0.56396,-0.16699 0.15381,0 0.31348,0.0278 0.15967,0.0278 0.32666,0.0835 z" />
    <path
       id="path129"
       style="fill:#ff0000"
       d="m 144.13916,285.31299 h 0.2959 V 287.5 h -0.2959 z" />
    <path
       id="path131"
       style="fill:#ff0000"
       d="m 145.02393,285.31299 h 0.39843 l 0.96973,1.82959 v -1.82959 h 0.28711 V 287.5 h -0.39844 l -0.96972,-1.82959 V 287.5 h -0.28711 z" />
    <path
       id="path133"
       style="fill:#ff0000"
       d="m 148.75928,287.18799 v -0.5874 h -0.4834 v -0.24317 h 0.77637 v 0.93897 q -0.17139,0.12158 -0.37793,0.18457 -0.20655,0.0615 -0.44092,0.0615 -0.5127,0 -0.80274,-0.29883 -0.28857,-0.30029 -0.28857,-0.83496 0,-0.53613 0.28857,-0.83496 0.29004,-0.30029 0.80274,-0.30029 0.21387,0 0.40576,0.0527 0.19336,0.0527 0.35596,0.15528 v 0.31494 q -0.16407,-0.13916 -0.34864,-0.20948 -0.18457,-0.0703 -0.38818,-0.0703 -0.40137,0 -0.60351,0.22412 -0.20069,0.22412 -0.20069,0.66797 0,0.44238 0.20069,0.66651 0.20214,0.22412 0.60351,0.22412 0.15674,0 0.27979,-0.0264 0.12304,-0.0278 0.22119,-0.085 z" />
    <path
       id="path135"
       style="fill:#ff0000"
       d="m 149.65137,287.12793 h 0.30908 V 287.5 h -0.30908 z m 0,-1.1792 h 0.30908 v 0.37207 h -0.30908 z" />
    <path
       id="path137"
       style="fill:#ff0000"
       d="m 151.85889,285.55615 v 0.82178 h 0.37207 q 0.20654,0 0.31933,-0.10693 0.1128,-0.10694 0.1128,-0.30469 0,-0.19629 -0.1128,-0.30322 -0.11279,-0.10694 -0.31933,-0.10694 z m -0.2959,-0.24316 h 0.66797 q 0.36767,0 0.55517,0.16699 0.18897,0.16553 0.18897,0.48633 0,0.32373 -0.18897,0.48926 -0.1875,0.16552 -0.55517,0.16552 h -0.37207 V 287.5 h -0.2959 z" />
    <path
       id="path139"
       style="fill:#ff0000"
       d="m 153.97266,286.67529 q -0.32666,0 -0.45264,0.0747 -0.12598,0.0747 -0.12598,0.25488 0,0.14356 0.0938,0.22852 0.0952,0.0835 0.25782,0.0835 0.22412,0 0.35888,-0.1582 0.13623,-0.15967 0.13623,-0.42334 v -0.0601 z m 0.53759,-0.11133 V 287.5 h -0.26953 v -0.24902 q -0.0923,0.14941 -0.22998,0.22119 -0.13769,0.0703 -0.33691,0.0703 -0.25195,0 -0.40137,-0.14062 -0.14795,-0.14209 -0.14795,-0.3794 0,-0.27685 0.18457,-0.41748 0.18604,-0.14062 0.55371,-0.14062 h 0.37793 v -0.0264 q 0,-0.18604 -0.12304,-0.28711 -0.12159,-0.10254 -0.34278,-0.10254 -0.14062,0 -0.27392,0.0337 -0.1333,0.0337 -0.25635,0.10108 v -0.24903 q 0.14795,-0.0571 0.28711,-0.085 0.13916,-0.0293 0.27099,-0.0293 0.35596,0 0.53174,0.18457 0.17578,0.18457 0.17578,0.55957 z" />
    <path
       id="path141"
       style="fill:#ff0000"
       d="m 156.11279,285.90771 v 0.25489 q -0.11425,-0.0586 -0.2373,-0.0879 -0.12305,-0.0293 -0.25488,-0.0293 -0.20069,0 -0.30176,0.0615 -0.0996,0.0615 -0.0996,0.18457 0,0.0938 0.0718,0.14795 0.0718,0.0527 0.28857,0.10108 l 0.0923,0.0205 q 0.2871,0.0615 0.40722,0.17431 0.12158,0.11133 0.12158,0.31201 0,0.22852 -0.18164,0.36182 -0.18017,0.1333 -0.49658,0.1333 -0.13183,0 -0.27539,-0.0264 -0.14209,-0.0249 -0.30029,-0.0762 v -0.27832 q 0.14941,0.0776 0.29443,0.11719 0.14502,0.0381 0.28711,0.0381 0.19043,0 0.29297,-0.0645 0.10254,-0.0659 0.10254,-0.18457 0,-0.10986 -0.0747,-0.16846 -0.0732,-0.0586 -0.32373,-0.11279 l -0.0938,-0.022 q -0.25049,-0.0527 -0.36182,-0.16113 -0.11132,-0.10987 -0.11132,-0.3003 0,-0.23144 0.16406,-0.35742 0.16406,-0.12598 0.46582,-0.12598 0.14941,0 0.28125,0.022 0.13183,0.022 0.24316,0.0659 z" />
    <path
       id="path143"
       style="fill:#ff0000"
       d="m 157.67725,285.90771 v 0.25489 q -0.11426,-0.0586 -0.23731,-0.0879 -0.12305,-0.0293 -0.25488,-0.0293 -0.20068,0 -0.30176,0.0615 -0.0996,0.0615 -0.0996,0.18457 0,0.0938 0.0718,0.14795 0.0718,0.0527 0.28857,0.10108 l 0.0923,0.0205 q 0.28711,0.0615 0.40722,0.17431 0.12159,0.11133 0.12159,0.31201 0,0.22852 -0.18164,0.36182 -0.18018,0.1333 -0.49659,0.1333 -0.13183,0 -0.27539,-0.0264 -0.14209,-0.0249 -0.30029,-0.0762 v -0.27832 q 0.14941,0.0776 0.29443,0.11719 0.14502,0.0381 0.28711,0.0381 0.19043,0 0.29297,-0.0645 0.10254,-0.0659 0.10254,-0.18457 0,-0.10986 -0.0747,-0.16846 -0.0732,-0.0586 -0.32373,-0.11279 l -0.0938,-0.022 q -0.25048,-0.0527 -0.36181,-0.16113 -0.11133,-0.10987 -0.11133,-0.3003 0,-0.23144 0.16406,-0.35742 0.16406,-0.12598 0.46582,-0.12598 0.14942,0 0.28125,0.022 0.13184,0.022 0.24317,0.0659 z" />
    <path
       id="path145"
       style="fill:#ff0000"
       d="m 158.03906,285.85938 h 0.26953 l 0.33692,1.28027 0.33545,-1.28027 h 0.31787 l 0.33691,1.28027 0.33545,-1.28027 h 0.26953 l -0.4292,1.64062 h -0.31787 l -0.35302,-1.34473 -0.3545,1.34473 h -0.31787 z" />
    <path
       id="path147"
       style="fill:#ff0000"
       d="m 161.28662,286.04834 q -0.2168,0 -0.34277,0.16992 -0.12598,0.16846 -0.12598,0.46289 0,0.29444 0.12451,0.46436 0.12598,0.16845 0.34424,0.16845 0.21533,0 0.34131,-0.16992 0.12598,-0.16992 0.12598,-0.46289 0,-0.2915 -0.12598,-0.46142 -0.12598,-0.17139 -0.34131,-0.17139 z m 0,-0.22852 q 0.35156,0 0.55225,0.22852 0.20068,0.22852 0.20068,0.63281 0,0.40283 -0.20068,0.63281 -0.20069,0.22852 -0.55225,0.22852 -0.35303,0 -0.55371,-0.22852 -0.19922,-0.22998 -0.19922,-0.63281 0,-0.40429 0.19922,-0.63281 0.20068,-0.22852 0.55371,-0.22852 z" />
    <path
       id="path149"
       style="fill:#ff0000"
       d="m 163.43555,286.11133 q -0.0454,-0.0264 -0.0996,-0.0381 -0.0527,-0.0132 -0.11719,-0.0132 -0.22852,0 -0.35156,0.14941 -0.12158,0.14795 -0.12158,0.42627 V 287.5 h -0.271 v -1.64062 h 0.271 v 0.25488 q 0.085,-0.14942 0.22119,-0.22119 0.13623,-0.0733 0.33105,-0.0733 0.0278,0 0.0615,0.004 0.0337,0.003 0.0747,0.0102 z" />
    <path
       id="path151"
       style="fill:#ff0000"
       d="m 164.74805,286.1084 v -0.8877 h 0.26953 V 287.5 h -0.26953 v -0.24609 q -0.085,0.14648 -0.21534,0.21826 -0.1289,0.0703 -0.31054,0.0703 -0.29737,0 -0.48487,-0.2373 -0.18603,-0.23731 -0.18603,-0.62403 0,-0.38672 0.18603,-0.62402 0.1875,-0.23731 0.48487,-0.23731 0.18164,0 0.31054,0.0718 0.13038,0.0703 0.21534,0.2168 z m -0.91846,0.57275 q 0,0.29737 0.12158,0.46729 0.12305,0.16845 0.33692,0.16845 0.21386,0 0.33691,-0.16845 0.12305,-0.16992 0.12305,-0.46729 0,-0.29736 -0.12305,-0.46582 -0.12305,-0.16992 -0.33691,-0.16992 -0.21387,0 -0.33692,0.16992 -0.12158,0.16846 -0.12158,0.46582 z" />
    <path
       id="path153"
       style="fill:#ff0000"
       d="m 167.22217,285.48145 v 0.31201 q -0.14942,-0.13916 -0.31934,-0.20801 -0.16845,-0.0688 -0.35888,-0.0688 -0.375,0 -0.57422,0.22998 -0.19922,0.22852 -0.19922,0.66211 0,0.43213 0.19922,0.66211 0.19922,0.22852 0.57422,0.22852 0.19043,0 0.35888,-0.0688 0.16992,-0.0688 0.31934,-0.20801 v 0.30908 q -0.15528,0.10547 -0.32959,0.15821 -0.17285,0.0527 -0.36621,0.0527 -0.49658,0 -0.78223,-0.30322 -0.28564,-0.30469 -0.28564,-0.83057 0,-0.52734 0.28564,-0.83056 0.28565,-0.30469 0.78223,-0.30469 0.19629,0 0.36914,0.0527 0.17431,0.0513 0.32666,0.15528 z" />
    <path
       id="path155"
       style="fill:#ff0000"
       d="m 168.30615,286.04834 q -0.21679,0 -0.34277,0.16992 -0.12598,0.16846 -0.12598,0.46289 0,0.29444 0.12451,0.46436 0.12598,0.16845 0.34424,0.16845 0.21533,0 0.34131,-0.16992 0.12598,-0.16992 0.12598,-0.46289 0,-0.2915 -0.12598,-0.46142 -0.12598,-0.17139 -0.34131,-0.17139 z m 0,-0.22852 q 0.35156,0 0.55225,0.22852 0.20068,0.22852 0.20068,0.63281 0,0.40283 -0.20068,0.63281 -0.20069,0.22852 -0.55225,0.22852 -0.35302,0 -0.55371,-0.22852 -0.19922,-0.22998 -0.19922,-0.63281 0,-0.40429 0.19922,-0.63281 0.20069,-0.22852 0.55371,-0.22852 z" />
    <path
       id="path157"
       style="fill:#ff0000"
       d="m 170.78174,286.17432 q 0.10107,-0.18164 0.2417,-0.26807 0.14062,-0.0864 0.33105,-0.0864 0.25635,0 0.39551,0.18018 0.13916,0.17871 0.13916,0.50977 V 287.5 h -0.271 v -0.98145 q 0,-0.23584 -0.0835,-0.35009 -0.0835,-0.11426 -0.25488,-0.11426 -0.20948,0 -0.33106,0.13916 -0.12158,0.13916 -0.12158,0.37939 V 287.5 h -0.271 v -0.98145 q 0,-0.2373 -0.0835,-0.35009 -0.0835,-0.11426 -0.25782,-0.11426 -0.20654,0 -0.32812,0.14062 -0.12158,0.13916 -0.12158,0.37793 V 287.5 h -0.271 v -1.64062 h 0.271 v 0.25488 q 0.0923,-0.15088 0.22119,-0.22266 0.1289,-0.0718 0.30615,-0.0718 0.17871,0 0.30322,0.0908 0.12598,0.0908 0.18604,0.26368 z" />
    <path
       id="path159"
       style="fill:#ff0000"
       d="m 172.68896,287.25391 v 0.87011 h -0.27099 v -2.26464 h 0.27099 v 0.24902 q 0.085,-0.14649 0.21387,-0.2168 0.13037,-0.0718 0.31055,-0.0718 0.29883,0 0.48486,0.23731 0.1875,0.2373 0.1875,0.62402 0,0.38672 -0.1875,0.62403 -0.18603,0.2373 -0.48486,0.2373 -0.18018,0 -0.31055,-0.0703 -0.1289,-0.0718 -0.21387,-0.21826 z m 0.917,-0.57276 q 0,-0.29736 -0.12305,-0.46582 -0.12158,-0.16992 -0.33545,-0.16992 -0.21387,0 -0.33691,0.16992 -0.12159,0.16846 -0.12159,0.46582 0,0.29737 0.12159,0.46729 0.12304,0.16845 0.33691,0.16845 0.21387,0 0.33545,-0.16845 0.12305,-0.16992 0.12305,-0.46729 z" />
    <path
       id="path161"
       style="fill:#ff0000"
       d="m 174.96826,286.04834 q -0.2168,0 -0.34277,0.16992 -0.12598,0.16846 -0.12598,0.46289 0,0.29444 0.12451,0.46436 0.12598,0.16845 0.34424,0.16845 0.21533,0 0.34131,-0.16992 0.12598,-0.16992 0.12598,-0.46289 0,-0.2915 -0.12598,-0.46142 -0.12598,-0.17139 -0.34131,-0.17139 z m 0,-0.22852 q 0.35156,0 0.55225,0.22852 0.20068,0.22852 0.20068,0.63281 0,0.40283 -0.20068,0.63281 -0.20069,0.22852 -0.55225,0.22852 -0.35303,0 -0.55371,-0.22852 -0.19922,-0.22998 -0.19922,-0.63281 0,-0.40429 0.19922,-0.63281 0.20068,-0.22852 0.55371,-0.22852 z" />
    <path
       id="path163"
       style="fill:#ff0000"
       d="M 177.53027,286.50977 V 287.5 h -0.26953 v -0.98145 q 0,-0.23291 -0.0908,-0.34863 -0.0908,-0.11572 -0.27246,-0.11572 -0.21826,0 -0.34424,0.13916 -0.12597,0.13916 -0.12597,0.37939 V 287.5 h -0.271 v -1.64062 h 0.271 v 0.25488 q 0.0967,-0.14795 0.22705,-0.22119 0.13183,-0.0733 0.30322,-0.0733 0.28271,0 0.42773,0.17579 0.14502,0.17431 0.14502,0.51416 z" />
    <path
       id="path165"
       style="fill:#ff0000"
       d="m 179.47412,286.6123 v 0.13184 h -1.23926 q 0.0176,0.27832 0.167,0.42481 0.15087,0.14501 0.41894,0.14501 0.15527,0 0.30029,-0.0381 0.14649,-0.0381 0.29004,-0.11426 v 0.25488 q -0.14502,0.0615 -0.29736,0.0938 -0.15234,0.0322 -0.30908,0.0322 -0.39258,0 -0.62256,-0.22852 -0.22852,-0.22851 -0.22852,-0.61816 0,-0.40283 0.2168,-0.63867 0.21826,-0.23731 0.5874,-0.23731 0.33106,0 0.52295,0.21387 0.19336,0.2124 0.19336,0.57861 z m -0.26953,-0.0791 q -0.003,-0.22119 -0.12451,-0.35302 -0.12012,-0.13184 -0.31934,-0.13184 -0.22558,0 -0.36181,0.12744 -0.13477,0.12744 -0.15528,0.35889 z" />
    <path
       id="path167"
       style="fill:#ff0000"
       d="M 181.28027,286.50977 V 287.5 h -0.26953 v -0.98145 q 0,-0.23291 -0.0908,-0.34863 -0.0908,-0.11572 -0.27246,-0.11572 -0.21826,0 -0.34424,0.13916 -0.12597,0.13916 -0.12597,0.37939 V 287.5 h -0.271 v -1.64062 h 0.271 v 0.25488 q 0.0967,-0.14795 0.22705,-0.22119 0.13183,-0.0733 0.30322,-0.0733 0.28271,0 0.42773,0.17579 0.14502,0.17431 0.14502,0.51416 z" />
    <path
       id="path169"
       style="fill:#ff0000"
       d="m 182.0874,285.39355 v 0.46583 h 0.55518 v 0.20947 h -0.55518 v 0.89062 q 0,0.20069 0.0542,0.25782 0.0557,0.0571 0.22412,0.0571 h 0.27686 V 287.5 h -0.27686 q -0.31201,0 -0.43066,-0.11572 -0.11865,-0.11719 -0.11865,-0.42481 v -0.89062 h -0.19776 v -0.20947 h 0.19776 v -0.46583 z" />
    <path
       id="path171"
       style="fill:#ff0000"
       d="m 183.47754,285.31299 h 0.24902 l -0.76172,2.46533 h -0.24902 z" />
    <path
       id="path173"
       style="fill:#ff0000"
       d="m 185.18994,286.68115 q 0,-0.29736 -0.12305,-0.46582 -0.12158,-0.16992 -0.33544,-0.16992 -0.21387,0 -0.33692,0.16992 -0.12158,0.16846 -0.12158,0.46582 0,0.29737 0.12158,0.46729 0.12305,0.16845 0.33692,0.16845 0.21386,0 0.33544,-0.16845 0.12305,-0.16992 0.12305,-0.46729 z m -0.91699,-0.57275 q 0.085,-0.14649 0.21387,-0.2168 0.13037,-0.0718 0.31054,-0.0718 0.29883,0 0.48487,0.23731 0.1875,0.2373 0.1875,0.62402 0,0.38672 -0.1875,0.62403 -0.18604,0.2373 -0.48487,0.2373 -0.18017,0 -0.31054,-0.0703 -0.12891,-0.0718 -0.21387,-0.21826 V 287.5 h -0.271 v -2.2793 h 0.271 z" />
    <path
       id="path175"
       style="fill:#ff0000"
       d="m 185.88867,286.85254 v -0.99316 h 0.26953 v 0.98291 q 0,0.23291 0.0908,0.35009 0.0908,0.11573 0.27246,0.11573 0.21827,0 0.34424,-0.13916 0.12744,-0.13916 0.12744,-0.3794 v -0.93017 h 0.26954 V 287.5 h -0.26954 v -0.25195 q -0.0981,0.14941 -0.22851,0.22265 -0.12891,0.0718 -0.30029,0.0718 -0.28272,0 -0.4292,-0.17578 -0.14649,-0.17578 -0.14649,-0.51416 z m 0.67822,-1.03272 z" />
    <path
       id="path177"
       style="fill:#ff0000"
       d="m 188.0874,285.39355 v 0.46583 h 0.55518 v 0.20947 h -0.55518 v 0.89062 q 0,0.20069 0.0542,0.25782 0.0557,0.0571 0.22412,0.0571 h 0.27686 V 287.5 h -0.27686 q -0.31201,0 -0.43066,-0.11572 -0.11865,-0.11719 -0.11865,-0.42481 v -0.89062 h -0.19776 v -0.20947 h 0.19776 v -0.46583 z" />
    <path
       id="path179"
       style="fill:#ff0000"
       d="m 189.26514,285.39355 v 0.46583 h 0.55517 v 0.20947 h -0.55517 v 0.89062 q 0,0.20069 0.0542,0.25782 0.0557,0.0571 0.22412,0.0571 h 0.27685 V 287.5 h -0.27685 q -0.31201,0 -0.43067,-0.11572 -0.11865,-0.11719 -0.11865,-0.42481 v -0.89062 h -0.19775 v -0.20947 h 0.19775 v -0.46583 z" />
    <path
       id="path181"
       style="fill:#ff0000"
       d="m 190.81201,286.04834 q -0.2168,0 -0.34277,0.16992 -0.12598,0.16846 -0.12598,0.46289 0,0.29444 0.12451,0.46436 0.12598,0.16845 0.34424,0.16845 0.21533,0 0.34131,-0.16992 0.12598,-0.16992 0.12598,-0.46289 0,-0.2915 -0.12598,-0.46142 -0.12598,-0.17139 -0.34131,-0.17139 z m 0,-0.22852 q 0.35156,0 0.55225,0.22852 0.20068,0.22852 0.20068,0.63281 0,0.40283 -0.20068,0.63281 -0.20069,0.22852 -0.55225,0.22852 -0.35303,0 -0.55371,-0.22852 -0.19922,-0.22998 -0.19922,-0.63281 0,-0.40429 0.19922,-0.63281 0.20068,-0.22852 0.55371,-0.22852 z" />
    <path
       id="path183"
       style="fill:#ff0000"
       d="M 193.37402,286.50977 V 287.5 h -0.26953 v -0.98145 q 0,-0.23291 -0.0908,-0.34863 -0.0908,-0.11572 -0.27246,-0.11572 -0.21826,0 -0.34424,0.13916 -0.12597,0.13916 -0.12597,0.37939 V 287.5 H 192 v -1.64062 h 0.271 v 0.25488 q 0.0967,-0.14795 0.22705,-0.22119 0.13183,-0.0733 0.30322,-0.0733 0.28271,0 0.42773,0.17579 0.14502,0.17431 0.14502,0.51416 z" />
    <path
       id="path185"
       style="fill:#ff0000"
       d="m 195.16113,287.99805 v 0.20947 h -1.55859 v -0.20947 z" />
    <path
       id="path187"
       style="fill:#ff0000"
       d="m 196.46045,285.90771 v 0.25489 q -0.11426,-0.0586 -0.23731,-0.0879 -0.12304,-0.0293 -0.25488,-0.0293 -0.20068,0 -0.30176,0.0615 -0.0996,0.0615 -0.0996,0.18457 0,0.0938 0.0718,0.14795 0.0718,0.0527 0.28858,0.10108 l 0.0923,0.0205 q 0.28711,0.0615 0.40723,0.17431 0.12158,0.11133 0.12158,0.31201 0,0.22852 -0.18164,0.36182 -0.18018,0.1333 -0.49658,0.1333 -0.13184,0 -0.27539,-0.0264 -0.14209,-0.0249 -0.3003,-0.0762 v -0.27832 q 0.14942,0.0776 0.29444,0.11719 0.14502,0.0381 0.28711,0.0381 0.19043,0 0.29297,-0.0645 0.10253,-0.0659 0.10253,-0.18457 0,-0.10986 -0.0747,-0.16846 -0.0732,-0.0586 -0.32373,-0.11279 l -0.0938,-0.022 q -0.25049,-0.0527 -0.36182,-0.16113 -0.11133,-0.10987 -0.11133,-0.3003 0,-0.23144 0.16406,-0.35742 0.16407,-0.12598 0.46583,-0.12598 0.14941,0 0.28125,0.022 0.13183,0.022 0.24316,0.0659 z" />
    <path
       id="path189"
       style="fill:#ff0000"
       d="m 196.95117,286.85254 v -0.99316 h 0.26953 v 0.98291 q 0,0.23291 0.0908,0.35009 0.0908,0.11573 0.27246,0.11573 0.21827,0 0.34424,-0.13916 0.12744,-0.13916 0.12744,-0.3794 v -0.93017 h 0.26954 V 287.5 h -0.26954 v -0.25195 q -0.0981,0.14941 -0.22851,0.22265 -0.12891,0.0718 -0.30029,0.0718 -0.28272,0 -0.4292,-0.17578 -0.14649,-0.17578 -0.14649,-0.51416 z m 0.67822,-1.03272 z" />
    <path
       id="path191"
       style="fill:#ff0000"
       d="m 200.06104,286.68115 q 0,-0.29736 -0.12305,-0.46582 -0.12158,-0.16992 -0.33545,-0.16992 -0.21387,0 -0.33691,0.16992 -0.12159,0.16846 -0.12159,0.46582 0,0.29737 0.12159,0.46729 0.12304,0.16845 0.33691,0.16845 0.21387,0 0.33545,-0.16845 0.12305,-0.16992 0.12305,-0.46729 z m -0.917,-0.57275 q 0.085,-0.14649 0.21387,-0.2168 0.13037,-0.0718 0.31055,-0.0718 0.29883,0 0.48486,0.23731 0.1875,0.2373 0.1875,0.62402 0,0.38672 -0.1875,0.62403 -0.18603,0.2373 -0.48486,0.2373 -0.18018,0 -0.31055,-0.0703 -0.12891,-0.0718 -0.21387,-0.21826 V 287.5 h -0.27099 v -2.2793 h 0.27099 z" />
    <path
       id="path193"
       style="fill:#ff0000"
       d="m 202.06494,286.17432 q 0.10108,-0.18164 0.2417,-0.26807 0.14063,-0.0864 0.33106,-0.0864 0.25634,0 0.3955,0.18018 0.13916,0.17871 0.13916,0.50977 V 287.5 h -0.27099 v -0.98145 q 0,-0.23584 -0.0835,-0.35009 -0.0835,-0.11426 -0.25488,-0.11426 -0.20947,0 -0.33106,0.13916 -0.12158,0.13916 -0.12158,0.37939 V 287.5 h -0.27099 v -0.98145 q 0,-0.2373 -0.0835,-0.35009 -0.0835,-0.11426 -0.25781,-0.11426 -0.20655,0 -0.32813,0.14062 -0.12158,0.13916 -0.12158,0.37793 V 287.5 h -0.271 v -1.64062 h 0.271 v 0.25488 q 0.0923,-0.15088 0.22119,-0.22266 0.12891,-0.0718 0.30615,-0.0718 0.17871,0 0.30323,0.0908 0.12597,0.0908 0.18603,0.26368 z" />
    <path
       id="path195"
       style="fill:#ff0000"
       d="m 203.71143,285.85938 h 0.26953 V 287.5 h -0.26953 z m 0,-0.63868 h 0.26953 v 0.34131 h -0.26953 z" />
    <path
       id="path197"
       style="fill:#ff0000"
       d="m 204.81006,285.39355 v 0.46583 h 0.55517 v 0.20947 h -0.55517 v 0.89062 q 0,0.20069 0.0542,0.25782 0.0557,0.0571 0.22412,0.0571 h 0.27685 V 287.5 h -0.27685 q -0.31201,0 -0.43067,-0.11572 -0.11865,-0.11719 -0.11865,-0.42481 v -0.89062 h -0.19775 v -0.20947 h 0.19775 v -0.46583 z" />
    <path
       id="path199"
       style="fill:#ff0000"
       d="m 206.35107,285.2207 v 2.67481 h -0.62109 v -0.20947 h 0.3501 v -2.25586 h -0.3501 v -0.20948 z" />
  </g>
  <g
     id="text93"
     style="font-size:42px;font-family:'DejaVu Sans', sans-serif;text-anchor:middle;fill:#000000"
     aria-label="أ">
    <path
       id="path202"
       style=""
       d="m 56.390625,135.03418 1.599609,-0.36914 q -0.902343,-0.41016 -1.230468,-1.14844 -0.328125,-0.75879 -0.328125,-1.68164 0,-1.96875 1.148437,-2.85058 1.189453,-0.92286 3.076172,-0.92286 1.271484,0 2.337891,0.67676 v 2.05078 q -1.025391,-0.67676 -2.337891,-0.67676 -1.353516,0 -1.702148,0.36915 -0.594727,0.65625 -0.594727,1.18945 0,1.5791 1.927734,2.13281 0.676758,0.20508 3.137696,-0.38965 v 2.0918 l -7.03418,1.5791 z m 1.743164,3.05566 h 3.773438 V 170 h -3.773438 z" />
  </g>
  <g
     id="text97"
     style="font-size:42px;font-family:'DejaVu Sans', sans-serif;text-anchor:middle;fill:#000000"
     aria-label="أ">
    <path
       id="path205"
       style=""
       d="m 106.39062,135.03418 1.59961,-0.36914 q -0.90234,-0.41016 -1.23046,-1.14844 -0.32813,-0.75879 -0.32813,-1.68164 0,-1.96875 1.14844,-2.85058 1.18945,-0.92286 3.07617,-0.92286 1.27148,0 2.33789,0.67676 v 2.05078 q -1.02539,-0.67676 -2.33789,-0.67676 -1.35352,0 -1.70215,0.36915 -0.59473,0.65625 -0.59473,1.18945 0,1.5791 1.92774,2.13281 0.67676,0.20508 3.13769,-0.38965 v 2.0918 l -7.03418,1.5791 z m 1.74317,3.05566 h 3.77344 V 170 h -3.77344 z" />
  </g>
  <g
     id="text101"
     style="font-size:42px;font-family:'DejaVu Sans', sans-serif;text-anchor:middle;fill:#000000"
     aria-label="أ">
    <path
       id="path208"
       style=""
       d="m 156.39063,135.03418 1.5996,-0.36914 q -0.90234,-0.41016 -1.23046,-1.14844 -0.32813,-0.75879 -0.32813,-1.68164 0,-1.96875 1.14844,-2.85058 1.18945,-0.92286 3.07617,-0.92286 1.27148,0 2.33789,0.67676 v 2.05078 q -1.02539,-0.67676 -2.33789,-0.67676 -1.35352,0 -1.70215,0.36915 -0.59472,0.65625 -0.59472,1.18945 0,1.5791 1.92773,2.13281 0.67676,0.20508 3.13769,-0.38965 v 2.0918 l -7.03417,1.5791 z m 1.74316,3.05566 h 3.77344 V 170 h -3.77344 z" />
  </g>
  <g
     id="text105"
     style="font-size:42px;font-family:'DejaVu Sans', sans-serif;text-anchor:middle;fill:#000000"
     aria-label="أ">
    <path
       id="path211"
       style=""
       d="m 206.39063,135.03418 1.5996,-0.36914 q -0.90234,-0.41016 -1.23046,-1.14844 -0.32813,-0.75879 -0.32813,-1.68164 0,-1.96875 1.14844,-2.85058 1.18945,-0.92286 3.07617,-0.92286 1.27148,0 2.33789,0.67676 v 2.05078 q -1.02539,-0.67676 -2.33789,-0.67676 -1.35352,0 -1.70215,0.36915 -0.59472,0.65625 -0.59472,1.18945 0,1.5791 1.92773,2.13281 0.67676,0.20508 3.13769,-0.38965 v 2.0918 l -7.03417,1.5791 z m 1.74316,3.05566 h 3.77344 V 170 h -3.77344 z" />
  </g>
  <g
     id="text109"
     style="font-size:42px;font-family:'DejaVu Sans', sans-serif;text-anchor:middle;fill:#000000"
     aria-label="أ">
    <path
       id="path214"
       style=""
       d="m 256.39063,135.03418 1.5996,-0.36914 q -0.90234,-0.41016 -1.23046,-1.14844 -0.32813,-0.75879 -0.32813,-1.68164 0,-1.96875 1.14844,-2.85058 1.18945,-0.92286 3.07617,-0.92286 1.27148,0 2.33789,0.67676 v 2.05078 q -1.02539,-0.67676 -2.33789,-0.67676 -1.35352,0 -1.70215,0.36915 -0.59472,0.65625 -0.59472,1.18945 0,1.5791 1.92773,2.13281 0.67676,0.20508 3.13769,-0.38965 v 2.0918 l -7.03417,1.5791 z m 1.74316,3.05566 h 3.77344 V 170 h -3.77344 z" />
  </g>
</svg>
