<?xml version="1.0" encoding="UTF-8" standalone="no"?>
<svg
   xmlns:dc="http://purl.org/dc/elements/1.1/"
   xmlns:cc="http://creativecommons.org/ns#"
   xmlns:rdf="http://www.w3.org/1999/02/22-rdf-syntax-ns#"
   xmlns:svg="http://www.w3.org/2000/svg"
   xmlns="http://www.w3.org/2000/svg"
   id="svg89"
   stroke-miterlimit="10"
   stroke-linecap="square"
   stroke="none"
   fill="none"
   viewBox="0.0 0.0 348.0 348.0"
   version="1.1">
  <metadata
     id="metadata95">
    <rdf:RDF>
      <cc:Work
         rdf:about="">
        <dc:format>image/svg+xml</dc:format>
        <dc:type
           rdf:resource="http://purl.org/dc/dcmitype/StillImage" />
      </cc:Work>
    </rdf:RDF>
  </metadata>
  <defs
     id="defs93" />
  <clipPath
     id="p.0">
    <path
       id="path2"
       clip-rule="nonzero"
       d="m0 0l348.0 0l0 348.0l-348.0 0l0 -348.0z" />
  </clipPath>
  <g
     id="g59"
     clip-path="url(#p.0)">
    <path
       id="path5"
       fill-rule="nonzero"
       d="M 0,0 H 348 V 348 H 0 Z"
       fill-opacity="0"
       fill="#000000" />
    <path
       id="path7"
       fill-rule="nonzero"
       d="M -6,0 H 342 V 347.9685 H -6 Z"
       fill="#ffffff" />
    <path
       id="path9"
       fill-rule="nonzero"
       d="m 5.07874,5.7758217 h 336.9134 V 343.44512 H 5.07874 Z"
       fill-opacity="0"
       fill="#000000" />
    <path
       id="path11"
       fill-rule="nonzero"
       d="m 5.07874,5.7758217 h 336.9134 V 343.44512 H 5.07874 Z"
       stroke-linecap="butt"
       stroke-linejoin="round"
       stroke-width="2"
       stroke="#000000" />
    <path
       id="path13"
       fill-rule="nonzero"
       d="m 282.73444,40.553925 v 0 c 0,-8.375591 6.96603,-15.165352 15.55905,-15.165352 v 0 c 4.12653,0 8.08402,1.597773 11.00192,4.441828 2.91788,2.844057 4.55713,6.701422 4.55713,10.723524 v 0 c 0,8.375595 -6.966,15.165356 -15.55905,15.165356 v 0 c -8.59302,0 -15.55905,-6.789761 -15.55905,-15.165356 z"
       fill="#ffffff" />
    <path
       id="path15"
       fill-rule="nonzero"
       d="m 282.73444,40.553925 v 0 c 0,-8.375591 6.96603,-15.165352 15.55905,-15.165352 v 0 c 4.12653,0 8.08402,1.597773 11.00192,4.441828 2.91788,2.844057 4.55713,6.701422 4.55713,10.723524 v 0 c 0,8.375595 -6.966,15.165356 -15.55905,15.165356 v 0 c -8.59302,0 -15.55905,-6.789761 -15.55905,-15.165356 z"
       stroke-linecap="butt"
       stroke-linejoin="round"
       stroke-width="2"
       stroke="#000000" />
    <path
       id="path17"
       fill-rule="nonzero"
       d="M 34.771652,25.389738 H 267.18112 v 67.55905 H 34.771652 Z"
       fill="#000000" />
    <path
       id="path19"
       fill-rule="nonzero"
       d="M 34.771652,25.389738 H 267.18112 v 67.55905 H 34.771652 Z"
       stroke-linecap="butt"
       stroke-linejoin="round"
       stroke-width="2"
       stroke="#000000" />
    <path
       id="path21"
       fill-rule="nonzero"
       d="M 34.771652,202.31795 H 141.41733 v 44.81891 H 34.771652 Z"
       stroke-linecap="butt"
       stroke-linejoin="round"
       stroke-width="1"
       stroke="#000000" />
    <path
       id="path23"
       fill-rule="nonzero"
       d="M 34.771652,125.22639 H 141.41733 v 44.8189 H 34.771652 Z"
       fill-opacity="0"
       fill="#000000" />
    <path
       id="path25"
       fill-rule="nonzero"
       d="M 34.771652,125.22639 H 141.41733 v 44.8189 H 34.771652 Z"
       stroke-linecap="butt"
       stroke-linejoin="round"
       stroke-width="1"
       stroke="#000000" />
    <path
       id="path27"
       fill-rule="nonzero"
       d="M 34.771652,270.60397 H 141.41733 v 44.81891 H 34.771652 Z"
       fill-opacity="0"
       fill="#000000" />
    <path
       id="path29"
       fill-rule="nonzero"
       d="M 34.771652,270.60397 H 141.41733 v 44.81891 H 34.771652 Z"
       stroke-linecap="butt"
       stroke-linejoin="round"
       stroke-width="1"
       stroke="#000000" />
    <path
       id="path31"
       fill-rule="nonzero"
       d="m 157.40683,202.31795 h 106.64566 v 44.81891 H 157.40683 Z"
       fill-opacity="0"
       fill="#000000" />
    <path
       id="path33"
       fill-rule="nonzero"
       d="m 157.40683,202.31795 h 106.64566 v 44.81891 H 157.40683 Z"
       stroke-linecap="butt"
       stroke-linejoin="round"
       stroke-width="1"
       stroke="#000000" />
    <path
       id="path35"
       fill-rule="nonzero"
       d="m 157.40683,125.22639 h 106.64566 v 44.8189 H 157.40683 Z"
       fill-opacity="0"
       fill="#000000" />
    <path
       id="path37"
       fill-rule="nonzero"
       d="m 157.40683,125.22639 h 106.64566 v 44.8189 H 157.40683 Z"
       stroke-linecap="butt"
       stroke-linejoin="round"
       stroke-width="1"
       stroke="#000000" />
    <path
       id="path39"
       fill-rule="nonzero"
       d="m 157.40683,270.60397 h 106.64566 v 44.81891 H 157.40683 Z"
       fill-opacity="0"
       fill="#000000" />
    <path
       id="path41"
       fill-rule="nonzero"
       d="m 157.40683,270.60397 h 106.64566 v 44.81891 H 157.40683 Z"
       stroke-linecap="butt"
       stroke-linejoin="round"
       stroke-width="1"
       stroke="#000000" />
    <path
       id="path43"
       fill-rule="nonzero"
       d="m 277.46194,106.3832 h 52.66141 v 209.03937 h -52.66141 z"
       fill="#000000" />
    <path
       id="path45"
       fill-rule="nonzero"
       d="m 277.46194,106.3832 h 52.66141 v 209.03937 h -52.66141 z"
       stroke-linecap="butt"
       stroke-linejoin="round"
       stroke-width="2"
       stroke="#000000" />
    <path
       id="path47"
       fill-rule="nonzero"
       d="m 290.06036,245.11285 h 27.46457 v 16.47244 h -27.46457 z"
       fill="#ffffff" />
    <path
       id="path49"
       fill-rule="nonzero"
       d="m 290.06036,245.11285 h 27.46457 v 16.47244 h -27.46457 z"
       stroke-linecap="butt"
       stroke-linejoin="round"
       stroke-width="2"
       stroke="#000000" />
    <path
       id="path51"
       fill-rule="nonzero"
       d="m 290.06036,208.9029 h 27.46457 v 16.47243 h -27.46457 z"
       fill="#ffffff" />
    <path
       id="path53"
       fill-rule="nonzero"
       d="m 290.06036,208.9029 h 27.46457 v 16.47243 h -27.46457 z"
       stroke-linecap="butt"
       stroke-linejoin="round"
       stroke-width="2"
       stroke="#000000" />
    <path
       id="path55"
       fill-rule="nonzero"
       d="m 290.06036,281.32285 h 27.46457 v 16.47244 h -27.46457 z"
       fill="#ffffff" />
    <path
       id="path57"
       fill-rule="nonzero"
       d="m 290.06036,281.32285 h 27.46457 v 16.47244 h -27.46457 z"
       stroke-linecap="butt"
       stroke-linejoin="round"
       stroke-width="2"
       stroke="#000000" />
  </g>
  <g
     style="font-size:32px;font-family:'DejaVu Sans', sans-serif;text-anchor:middle;fill:#ffffff"
     id="text63"
     aria-label="[الشاشة]">
    <path
       id="path97"
       d="m 89.78125,45.6875 h 6.625 v 2.234375 h -3.75 v 24.0625 h 3.75 v 2.234375 h -6.625 z" />
    <path
       id="path99"
       d="m 194.60937,45.6875 h 2.875 V 70 h -2.875 z" />
    <path
       id="path101"
       d="m 188.57812,64.203125 q 0,2.78125 -1.35937,4.359375 Q 185.96875,70 183.5625,70 h -2.03125 v -2.875 h 1.17187 q 1.54688,0 2.23438,-0.6875 0.76562,-0.765625 0.76562,-2.421875 V 45.6875 h 2.875 z" />
    <path
       id="path103"
       d="m 173.23437,70.3125 q -0.57812,0.140625 -1.125,0.140625 -0.98437,0 -1.84375,-0.390625 -2.14062,-0.953125 -2.42187,-3.015625 -0.75,2.4375 -2.25,2.953125 -1.0625,0.375 -2.07813,0.375 -1.53125,0 -2.65625,-0.765625 -0.9375,-0.625 -1.57812,-1.765625 -0.67188,0.921875 -1.54688,1.4375 Q 156.54687,70 155,70 h -2.03125 v -2.875 h 1.17187 q 1.54688,0 2.23438,-0.6875 1.25,-1.25 1.25,-2.8125 v -3 h 2.875 v 2.4375 q 0,1 0.6875,2.5625 0.67187,1.546875 2.29687,1.546875 1.70313,0 2.39063,-1.90625 0.57812,-1.609375 0.57812,-4.640625 h 2.875 q 0,3.203125 0.29688,3.984375 1,2.65625 2.71875,2.640625 2.21875,-0.03125 2.21875,-4.375 v -4.59375 h 2.875 V 63.625 q 0,1.515625 1.29687,2.8125 0.6875,0.6875 2.23438,0.6875 h 1.17187 V 70 h -2.03125 Q 177.84375,70 176,68.5 q -1.0625,1.40625 -2.76563,1.8125 z M 165.39062,51.25 h 2.34375 v 2.34375 h -2.34375 z m 1.95313,3.90625 h 2.34375 V 57.5 h -2.34375 z m -3.90625,0 h 2.34375 V 57.5 h -2.34375 z" />
    <path
       id="path105"
       d="M 146.54687,64.203125 V 45.6875 h 2.875 v 18.328125 q 0,1.65625 0.76563,2.421875 0.6875,0.6875 2.23437,0.6875 h 1.17188 V 70 h -2.03125 q -2.40625,0 -3.65625,-1.4375 -1.35938,-1.578125 -1.35938,-4.359375 z" />
    <path
       id="path107"
       d="m 122.71875,67.84375 q -0.67187,0.921875 -1.54687,1.4375 Q 119.98438,70 118.4375,70 h -2.03125 v -2.875 h 1.17188 q 1.54687,0 2.23437,-0.6875 1.25,-1.25 1.25,-2.8125 v -3 h 2.875 v 2.4375 q 0,1 0.6875,2.5625 0.67188,1.546875 2.29688,1.546875 1.70312,0 2.39062,-1.90625 0.57812,-1.609375 0.57812,-4.640625 h 2.875 q 0,3.203125 0.29688,3.984375 1,2.65625 2.71875,2.640625 Q 138,67.21875 138,62.875 v -4.59375 h 2.875 V 63.625 q 0,3.109375 -1.4375,4.875 -1.17188,1.4375 -2.76563,1.8125 -0.57812,0.140625 -1.125,0.140625 -0.98437,0 -1.84375,-0.390625 -2.14062,-0.953125 -2.42187,-3.015625 -0.75,2.4375 -2.25,2.953125 -1.0625,0.375 -2.07812,0.375 -1.53125,0 -2.65625,-0.765625 -0.9375,-0.625 -1.57813,-1.765625 z M 128.82812,51.25 h 2.34375 v 2.34375 h -2.34375 z m 1.95313,3.90625 H 133.125 V 57.5 h -2.34375 z m -3.90625,0 h 2.34375 V 57.5 H 126.875 Z" />
    <path
       id="path109"
       d="m 110.09375,65.59375 q -0.23437,-0.65625 -0.4375,-1.421875 -0.20312,-0.78125 -0.39062,-2.359375 -1.875,0.1875 -3.15625,1.234375 -1.73438,1.390625 -1.70313,2.359375 0.0156,0.640625 1.42188,1.03125 1.40625,0.390625 4.26562,-0.84375 z m -1.04687,-6.03125 q -0.0625,-0.609375 -0.10938,-1.28125 h 2.875 q 0.0156,2.625 0.57813,5.34375 0.32812,1.578125 1.20312,2.8125 0.48438,0.6875 2.23438,0.6875 H 117 V 70 h -2.03125 q -1.40625,0 -2.54687,-0.796875 -0.70313,-0.484375 -1.29688,-1.40625 -2.15625,1.140625 -4.59375,1.140625 -0.875,0 -1.78125,-0.234375 -2.95312,-0.75 -2.95312,-3.15625 0,-2.703125 3.1875,-4.6875 1.70312,-1.0625 4.0625,-1.296875 z m -0.14063,-5.96875 H 111.25 v 2.34375 h -2.34375 z m -3.90625,0 h 2.34375 V 55.9375 H 105 Z" />
    <path
       id="path111"
       d="m 210.20312,45.6875 v 28.53125 h -6.625 v -2.234375 h 3.73438 v -24.0625 h -3.73438 V 45.6875 Z" />
  </g>
  <g
     style="font-size:20px;font-family:'DejaVu Sans', sans-serif;text-anchor:middle;fill:#000000"
     id="text67"
     aria-label="[النص]">
    <path
       id="path114"
       d="m 59.8125,138.80469 h 4.140625 v 1.39648 h -2.34375 v 15.03906 h 2.34375 v 1.39649 H 59.8125 Z" />
    <path
       id="path116"
       d="m 104.43164,138.80469 h 1.79688 V 154 h -1.79688 z" />
    <path
       id="path118"
       d="m 100.66211,150.37695 q 0,1.73828 -0.84961,2.72461 Q 99.03125,154 97.527344,154 h -1.269532 v -1.79688 h 0.732422 q 0.966797,0 1.396485,-0.42968 0.478515,-0.47852 0.478515,-1.51367 v -11.45508 h 1.796876 z" />
    <path
       id="path120"
       d="m 92.585937,144.23437 h 1.464844 v 1.46485 h -1.464844 z m 0.732422,8.92579 Q 92.566406,154 91.082031,154 h -0.878906 v -1.79688 h 0.341797 q 0.966797,0 1.396484,-0.42968 0.478516,-0.47852 0.478516,-1.51367 v -2.11915 h 1.796875 v 2.11915 q 0,1.03515 0.478515,1.51367 0.429688,0.42968 1.396485,0.42968 h 0.537109 V 154 h -1.074219 q -1.464843,0 -2.236328,-0.83984 z" />
    <path
       id="path122"
       d="m 82.048828,154 h -2.695312 q -0.371094,0 -0.878907,-0.29297 -0.439453,-0.25391 -0.439453,-0.41016 0,1.81641 -0.722656,3.06641 -0.859375,1.51367 -3.183594,2.26563 -0.78125,0.2539 -1.953125,0.2539 -1.25,-0.01 -2.314453,-0.2832 -2.685547,-0.69336 -2.685547,-3.89649 0,-2.40234 1.025391,-4.16015 h 1.796875 q -1.054688,2.01172 -1.044922,4.16015 0.0098,1.74805 1.445312,2.11915 0.927735,0.23437 1.71875,0.23437 0.996094,0 1.884766,-0.36133 1.582031,-0.66406 2.001953,-2.01172 0.322266,-1.05468 0.322266,-2.29492 0,-1.43555 -0.38086,-2.7832 h 1.669922 q -0.0098,0.14648 0.126953,0.68359 0.09766,0.39063 0.488282,0.87891 1.123047,-1.42578 2.324218,-2.48047 1.054688,-0.91797 2.490235,-1.60156 0.703125,-0.33203 1.5625,-0.32227 1.220703,0.0195 2.167969,0.38086 1.816406,0.69336 1.816406,2.96875 0,0.75195 -0.410156,1.43555 0.136718,0.11719 0.292968,0.22461 0.595703,0.42968 1.396485,0.42968 h 0.732422 V 154 h -1.269532 q -1.279297,0 -2.285156,-0.89844 l -0.273437,-0.2539 Q 84.783203,154 82.048828,154 Z m 2.558594,-5.53711 q -0.742188,0 -1.972656,0.79102 -1.640625,1.05468 -3.056641,2.94921 h 1.826172 q 2.314453,0 3.574219,-0.61523 1.826171,-0.88867 1.816406,-1.57227 -0.01953,-1.31835 -1.357422,-1.5039 -0.361328,-0.0488 -0.830078,-0.0488 z" />
    <path
       id="path124"
       d="m 114.17773,138.80469 v 17.83203 h -4.14062 v -1.39649 h 2.33398 v -15.03906 h -2.33398 v -1.39648 z" />
  </g>
  <g
     style="font-size:20px;font-family:'DejaVu Sans', sans-serif;text-anchor:middle;fill:#000000"
     id="text71"
     aria-label="[النص]">
    <path
       id="path127"
       d="m 59.8125,215.80469 h 4.140625 v 1.39648 h -2.34375 v 15.03906 h 2.34375 v 1.39649 H 59.8125 Z" />
    <path
       id="path129"
       d="m 104.43164,215.80469 h 1.79688 V 231 h -1.79688 z" />
    <path
       id="path131"
       d="m 100.66211,227.37695 q 0,1.73828 -0.84961,2.72461 Q 99.03125,231 97.527344,231 h -1.269532 v -1.79688 h 0.732422 q 0.966797,0 1.396485,-0.42968 0.478515,-0.47852 0.478515,-1.51367 v -11.45508 h 1.796876 z" />
    <path
       id="path133"
       d="m 92.585937,221.23437 h 1.464844 v 1.46485 h -1.464844 z m 0.732422,8.92579 Q 92.566406,231 91.082031,231 h -0.878906 v -1.79688 h 0.341797 q 0.966797,0 1.396484,-0.42968 0.478516,-0.47852 0.478516,-1.51367 v -2.11915 h 1.796875 v 2.11915 q 0,1.03515 0.478515,1.51367 0.429688,0.42968 1.396485,0.42968 h 0.537109 V 231 h -1.074219 q -1.464843,0 -2.236328,-0.83984 z" />
    <path
       id="path135"
       d="m 82.048828,231 h -2.695312 q -0.371094,0 -0.878907,-0.29297 -0.439453,-0.25391 -0.439453,-0.41016 0,1.81641 -0.722656,3.06641 -0.859375,1.51367 -3.183594,2.26563 -0.78125,0.2539 -1.953125,0.2539 -1.25,-0.01 -2.314453,-0.2832 -2.685547,-0.69336 -2.685547,-3.89649 0,-2.40234 1.025391,-4.16015 h 1.796875 q -1.054688,2.01172 -1.044922,4.16015 0.0098,1.74805 1.445312,2.11915 0.927735,0.23437 1.71875,0.23437 0.996094,0 1.884766,-0.36133 1.582031,-0.66406 2.001953,-2.01172 0.322266,-1.05468 0.322266,-2.29492 0,-1.43555 -0.38086,-2.7832 h 1.669922 q -0.0098,0.14648 0.126953,0.68359 0.09766,0.39063 0.488282,0.87891 1.123047,-1.42578 2.324218,-2.48047 1.054688,-0.91797 2.490235,-1.60156 0.703125,-0.33203 1.5625,-0.32227 1.220703,0.0195 2.167969,0.38086 1.816406,0.69336 1.816406,2.96875 0,0.75195 -0.410156,1.43555 0.136718,0.11719 0.292968,0.22461 0.595703,0.42968 1.396485,0.42968 h 0.732422 V 231 h -1.269532 q -1.279297,0 -2.285156,-0.89844 l -0.273437,-0.2539 Q 84.783203,231 82.048828,231 Z m 2.558594,-5.53711 q -0.742188,0 -1.972656,0.79102 -1.640625,1.05468 -3.056641,2.94921 h 1.826172 q 2.314453,0 3.574219,-0.61523 1.826171,-0.88867 1.816406,-1.57227 -0.01953,-1.31835 -1.357422,-1.5039 -0.361328,-0.0488 -0.830078,-0.0488 z" />
    <path
       id="path137"
       d="m 114.17773,215.80469 v 17.83203 h -4.14062 v -1.39649 h 2.33398 v -15.03906 h -2.33398 v -1.39648 z" />
  </g>
  <g
     style="font-size:20px;font-family:'DejaVu Sans', sans-serif;text-anchor:middle;fill:#000000"
     id="text75"
     aria-label="[النص]">
    <path
       id="path140"
       d="m 59.8125,283.80469 h 4.140625 v 1.39648 h -2.34375 v 15.03906 h 2.34375 v 1.39649 H 59.8125 Z" />
    <path
       id="path142"
       d="m 104.43164,283.80469 h 1.79688 V 299 h -1.79688 z" />
    <path
       id="path144"
       d="m 100.66211,295.37695 q 0,1.73828 -0.84961,2.72461 Q 99.03125,299 97.527344,299 h -1.269532 v -1.79688 h 0.732422 q 0.966797,0 1.396485,-0.42968 0.478515,-0.47852 0.478515,-1.51367 v -11.45508 h 1.796876 z" />
    <path
       id="path146"
       d="m 92.585937,289.23437 h 1.464844 v 1.46485 h -1.464844 z m 0.732422,8.92579 Q 92.566406,299 91.082031,299 h -0.878906 v -1.79688 h 0.341797 q 0.966797,0 1.396484,-0.42968 0.478516,-0.47852 0.478516,-1.51367 v -2.11915 h 1.796875 v 2.11915 q 0,1.03515 0.478515,1.51367 0.429688,0.42968 1.396485,0.42968 h 0.537109 V 299 h -1.074219 q -1.464843,0 -2.236328,-0.83984 z" />
    <path
       id="path148"
       d="m 82.048828,299 h -2.695312 q -0.371094,0 -0.878907,-0.29297 -0.439453,-0.25391 -0.439453,-0.41016 0,1.81641 -0.722656,3.06641 -0.859375,1.51367 -3.183594,2.26563 -0.78125,0.2539 -1.953125,0.2539 -1.25,-0.01 -2.314453,-0.2832 -2.685547,-0.69336 -2.685547,-3.89649 0,-2.40234 1.025391,-4.16015 h 1.796875 q -1.054688,2.01172 -1.044922,4.16015 0.0098,1.74805 1.445312,2.11915 0.927735,0.23437 1.71875,0.23437 0.996094,0 1.884766,-0.36133 1.582031,-0.66406 2.001953,-2.01172 0.322266,-1.05468 0.322266,-2.29492 0,-1.43555 -0.38086,-2.7832 h 1.669922 q -0.0098,0.14648 0.126953,0.68359 0.09766,0.39063 0.488282,0.87891 1.123047,-1.42578 2.324218,-2.48047 1.054688,-0.91797 2.490235,-1.60156 0.703125,-0.33203 1.5625,-0.32227 1.220703,0.0195 2.167969,0.38086 1.816406,0.69336 1.816406,2.96875 0,0.75195 -0.410156,1.43555 0.136718,0.11719 0.292968,0.22461 0.595703,0.42968 1.396485,0.42968 h 0.732422 V 299 h -1.269532 q -1.279297,0 -2.285156,-0.89844 l -0.273437,-0.2539 Q 84.783203,299 82.048828,299 Z m 2.558594,-5.53711 q -0.742188,0 -1.972656,0.79102 -1.640625,1.05468 -3.056641,2.94921 h 1.826172 q 2.314453,0 3.574219,-0.61523 1.826171,-0.88867 1.816406,-1.57227 -0.01953,-1.31835 -1.357422,-1.5039 -0.361328,-0.0488 -0.830078,-0.0488 z" />
    <path
       id="path150"
       d="m 114.17773,283.80469 v 17.83203 h -4.14062 v -1.39649 h 2.33398 v -15.03906 h -2.33398 v -1.39648 z" />
  </g>
  <g
     style="font-size:20px;font-family:'DejaVu Sans', sans-serif;text-anchor:middle;fill:#000000"
     id="text79"
     aria-label="[النص]">
    <path
       id="path153"
       d="m 182.8125,138.80469 h 4.14062 v 1.39648 h -2.34375 v 15.03906 h 2.34375 v 1.39649 h -4.14062 z" />
    <path
       id="path155"
       d="m 227.43164,138.80469 h 1.79688 V 154 h -1.79688 z" />
    <path
       id="path157"
       d="m 223.66211,150.37695 q 0,1.73828 -0.84961,2.72461 Q 222.03125,154 220.52734,154 h -1.26953 v -1.79688 h 0.73242 q 0.9668,0 1.39649,-0.42968 0.47851,-0.47852 0.47851,-1.51367 v -11.45508 h 1.79688 z" />
    <path
       id="path159"
       d="m 215.58594,144.23437 h 1.46484 v 1.46485 h -1.46484 z m 0.73242,8.92579 Q 215.56641,154 214.08203,154 h -0.87891 v -1.79688 h 0.3418 q 0.9668,0 1.39649,-0.42968 0.47851,-0.47852 0.47851,-1.51367 v -2.11915 h 1.79688 v 2.11915 q 0,1.03515 0.47851,1.51367 0.42969,0.42968 1.39649,0.42968 h 0.53711 V 154 h -1.07422 q -1.46485,0 -2.23633,-0.83984 z" />
    <path
       id="path161"
       d="m 205.04883,154 h -2.69531 q -0.3711,0 -0.87891,-0.29297 -0.43945,-0.25391 -0.43945,-0.41016 0,1.81641 -0.72266,3.06641 -0.85938,1.51367 -3.18359,2.26563 -0.78125,0.2539 -1.95313,0.2539 -1.25,-0.01 -2.31445,-0.2832 -2.68555,-0.69336 -2.68555,-3.89649 0,-2.40234 1.02539,-4.16015 h 1.79688 q -1.05469,2.01172 -1.04493,4.16015 0.01,1.74805 1.44532,2.11915 0.92773,0.23437 1.71875,0.23437 0.99609,0 1.88476,-0.36133 1.58203,-0.66406 2.00196,-2.01172 0.32226,-1.05468 0.32226,-2.29492 0,-1.43555 -0.38086,-2.7832 h 1.66992 q -0.01,0.14648 0.12696,0.68359 0.0977,0.39063 0.48828,0.87891 1.12305,-1.42578 2.32422,-2.48047 1.05468,-0.91797 2.49023,-1.60156 0.70313,-0.33203 1.5625,-0.32227 1.2207,0.0195 2.16797,0.38086 1.81641,0.69336 1.81641,2.96875 0,0.75195 -0.41016,1.43555 0.13672,0.11719 0.29297,0.22461 0.5957,0.42968 1.39648,0.42968 h 0.73243 V 154 h -1.26954 q -1.27929,0 -2.28515,-0.89844 l -0.27344,-0.2539 Q 207.7832,154 205.04883,154 Z m 2.55859,-5.53711 q -0.74219,0 -1.97265,0.79102 -1.64063,1.05468 -3.05665,2.94921 h 1.82618 q 2.31445,0 3.57422,-0.61523 1.82617,-0.88867 1.8164,-1.57227 -0.0195,-1.31835 -1.35742,-1.5039 -0.36133,-0.0488 -0.83008,-0.0488 z" />
    <path
       id="path163"
       d="m 237.17773,138.80469 v 17.83203 h -4.14062 v -1.39649 h 2.33398 v -15.03906 h -2.33398 v -1.39648 z" />
  </g>
  <g
     style="font-size:20px;font-family:'DejaVu Sans', sans-serif;text-anchor:middle;fill:#000000"
     id="text83"
     aria-label="[النص]">
    <path
       id="path166"
       d="m 182.8125,215.80469 h 4.14062 v 1.39648 h -2.34375 v 15.03906 h 2.34375 v 1.39649 h -4.14062 z" />
    <path
       id="path168"
       d="m 227.43164,215.80469 h 1.79688 V 231 h -1.79688 z" />
    <path
       id="path170"
       d="m 223.66211,227.37695 q 0,1.73828 -0.84961,2.72461 Q 222.03125,231 220.52734,231 h -1.26953 v -1.79688 h 0.73242 q 0.9668,0 1.39649,-0.42968 0.47851,-0.47852 0.47851,-1.51367 v -11.45508 h 1.79688 z" />
    <path
       id="path172"
       d="m 215.58594,221.23437 h 1.46484 v 1.46485 h -1.46484 z m 0.73242,8.92579 Q 215.56641,231 214.08203,231 h -0.87891 v -1.79688 h 0.3418 q 0.9668,0 1.39649,-0.42968 0.47851,-0.47852 0.47851,-1.51367 v -2.11915 h 1.79688 v 2.11915 q 0,1.03515 0.47851,1.51367 0.42969,0.42968 1.39649,0.42968 h 0.53711 V 231 h -1.07422 q -1.46485,0 -2.23633,-0.83984 z" />
    <path
       id="path174"
       d="m 205.04883,231 h -2.69531 q -0.3711,0 -0.87891,-0.29297 -0.43945,-0.25391 -0.43945,-0.41016 0,1.81641 -0.72266,3.06641 -0.85938,1.51367 -3.18359,2.26563 -0.78125,0.2539 -1.95313,0.2539 -1.25,-0.01 -2.31445,-0.2832 -2.68555,-0.69336 -2.68555,-3.89649 0,-2.40234 1.02539,-4.16015 h 1.79688 q -1.05469,2.01172 -1.04493,4.16015 0.01,1.74805 1.44532,2.11915 0.92773,0.23437 1.71875,0.23437 0.99609,0 1.88476,-0.36133 1.58203,-0.66406 2.00196,-2.01172 0.32226,-1.05468 0.32226,-2.29492 0,-1.43555 -0.38086,-2.7832 h 1.66992 q -0.01,0.14648 0.12696,0.68359 0.0977,0.39063 0.48828,0.87891 1.12305,-1.42578 2.32422,-2.48047 1.05468,-0.91797 2.49023,-1.60156 0.70313,-0.33203 1.5625,-0.32227 1.2207,0.0195 2.16797,0.38086 1.81641,0.69336 1.81641,2.96875 0,0.75195 -0.41016,1.43555 0.13672,0.11719 0.29297,0.22461 0.5957,0.42968 1.39648,0.42968 h 0.73243 V 231 h -1.26954 q -1.27929,0 -2.28515,-0.89844 l -0.27344,-0.2539 Q 207.7832,231 205.04883,231 Z m 2.55859,-5.53711 q -0.74219,0 -1.97265,0.79102 -1.64063,1.05468 -3.05665,2.94921 h 1.82618 q 2.31445,0 3.57422,-0.61523 1.82617,-0.88867 1.8164,-1.57227 -0.0195,-1.31835 -1.35742,-1.5039 -0.36133,-0.0488 -0.83008,-0.0488 z" />
    <path
       id="path176"
       d="m 237.17773,215.80469 v 17.83203 h -4.14062 v -1.39649 h 2.33398 v -15.03906 h -2.33398 v -1.39648 z" />
  </g>
  <g
     style="font-size:20px;font-family:'DejaVu Sans', sans-serif;text-anchor:middle;fill:#000000"
     id="text87"
     aria-label="[النص]">
    <path
       id="path179"
       d="m 182.8125,283.80469 h 4.14062 v 1.39648 h -2.34375 v 15.03906 h 2.34375 v 1.39649 h -4.14062 z" />
    <path
       id="path181"
       d="m 227.43164,283.80469 h 1.79688 V 299 h -1.79688 z" />
    <path
       id="path183"
       d="m 223.66211,295.37695 q 0,1.73828 -0.84961,2.72461 Q 222.03125,299 220.52734,299 h -1.26953 v -1.79688 h 0.73242 q 0.9668,0 1.39649,-0.42968 0.47851,-0.47852 0.47851,-1.51367 v -11.45508 h 1.79688 z" />
    <path
       id="path185"
       d="m 215.58594,289.23437 h 1.46484 v 1.46485 h -1.46484 z m 0.73242,8.92579 Q 215.56641,299 214.08203,299 h -0.87891 v -1.79688 h 0.3418 q 0.9668,0 1.39649,-0.42968 0.47851,-0.47852 0.47851,-1.51367 v -2.11915 h 1.79688 v 2.11915 q 0,1.03515 0.47851,1.51367 0.42969,0.42968 1.39649,0.42968 h 0.53711 V 299 h -1.07422 q -1.46485,0 -2.23633,-0.83984 z" />
    <path
       id="path187"
       d="m 205.04883,299 h -2.69531 q -0.3711,0 -0.87891,-0.29297 -0.43945,-0.25391 -0.43945,-0.41016 0,1.81641 -0.72266,3.06641 -0.85938,1.51367 -3.18359,2.26563 -0.78125,0.2539 -1.95313,0.2539 -1.25,-0.01 -2.31445,-0.2832 -2.68555,-0.69336 -2.68555,-3.89649 0,-2.40234 1.02539,-4.16015 h 1.79688 q -1.05469,2.01172 -1.04493,4.16015 0.01,1.74805 1.44532,2.11915 0.92773,0.23437 1.71875,0.23437 0.99609,0 1.88476,-0.36133 1.58203,-0.66406 2.00196,-2.01172 0.32226,-1.05468 0.32226,-2.29492 0,-1.43555 -0.38086,-2.7832 h 1.66992 q -0.01,0.14648 0.12696,0.68359 0.0977,0.39063 0.48828,0.87891 1.12305,-1.42578 2.32422,-2.48047 1.05468,-0.91797 2.49023,-1.60156 0.70313,-0.33203 1.5625,-0.32227 1.2207,0.0195 2.16797,0.38086 1.81641,0.69336 1.81641,2.96875 0,0.75195 -0.41016,1.43555 0.13672,0.11719 0.29297,0.22461 0.5957,0.42968 1.39648,0.42968 h 0.73243 V 299 h -1.26954 q -1.27929,0 -2.28515,-0.89844 l -0.27344,-0.2539 Q 207.7832,299 205.04883,299 Z m 2.55859,-5.53711 q -0.74219,0 -1.97265,0.79102 -1.64063,1.05468 -3.05665,2.94921 h 1.82618 q 2.31445,0 3.57422,-0.61523 1.82617,-0.88867 1.8164,-1.57227 -0.0195,-1.31835 -1.35742,-1.5039 -0.36133,-0.0488 -0.83008,-0.0488 z" />
    <path
       id="path189"
       d="m 237.17773,283.80469 v 17.83203 h -4.14062 v -1.39649 h 2.33398 v -15.03906 h -2.33398 v -1.39648 z" />
  </g>
</svg>
