<?xml version="1.0" encoding="UTF-8" standalone="no"?>
<svg
   xmlns:dc="http://purl.org/dc/elements/1.1/"
   xmlns:cc="http://creativecommons.org/ns#"
   xmlns:rdf="http://www.w3.org/1999/02/22-rdf-syntax-ns#"
   xmlns:svg="http://www.w3.org/2000/svg"
   xmlns="http://www.w3.org/2000/svg"
   id="svg89"
   stroke-miterlimit="10"
   stroke-linecap="square"
   stroke="none"
   fill="none"
   viewBox="0.0 0.0 348.0 348.0"
   version="1.1">
  <metadata
     id="metadata95">
    <rdf:RDF>
      <cc:Work
         rdf:about="">
        <dc:format>image/svg+xml</dc:format>
        <dc:type
           rdf:resource="http://purl.org/dc/dcmitype/StillImage" />
      </cc:Work>
    </rdf:RDF>
  </metadata>
  <defs
     id="defs93" />
  <clipPath
     id="p.0">
    <path
       id="path2"
       clip-rule="nonzero"
       d="m0 0l348.0 0l0 348.0l-348.0 0l0 -348.0z" />
  </clipPath>
  <g
     id="g59"
     clip-path="url(#p.0)">
    <path
       style="fill:#000000;fill-opacity:0;fill-rule:nonzero"
       id="path5"
       d="M 0,0 H 348 V 348 H 0 Z" />
    <path
       style="fill:#ffffff;fill-rule:nonzero"
       id="path7"
       d="M -6,0 H 342 V 347.9685 H -6 Z" />
    <path
       style="fill:#000000;fill-opacity:0;fill-rule:nonzero"
       id="path9"
       d="m 5.07874,5.7758217 h 336.9134 V 343.44512 H 5.07874 Z" />
    <path
       style="fill-rule:nonzero;stroke:#000000;stroke-width:2;stroke-linecap:butt;stroke-linejoin:round"
       id="path11"
       d="m 5.07874,5.7758217 h 336.9134 V 343.44512 H 5.07874 Z" />
    <path
       style="fill:#ffffff;fill-rule:nonzero"
       id="path13"
       d="m 282.73444,40.553925 v 0 c 0,-8.375591 6.96603,-15.165352 15.55905,-15.165352 v 0 c 4.12653,0 8.08402,1.597773 11.00192,4.441828 2.91788,2.844057 4.55713,6.701422 4.55713,10.723524 v 0 c 0,8.375595 -6.966,15.165356 -15.55905,15.165356 v 0 c -8.59302,0 -15.55905,-6.789761 -15.55905,-15.165356 z" />
    <path
       style="fill-rule:nonzero;stroke:#000000;stroke-width:2;stroke-linecap:butt;stroke-linejoin:round"
       id="path15"
       d="m 282.73444,40.553925 v 0 c 0,-8.375591 6.96603,-15.165352 15.55905,-15.165352 v 0 c 4.12653,0 8.08402,1.597773 11.00192,4.441828 2.91788,2.844057 4.55713,6.701422 4.55713,10.723524 v 0 c 0,8.375595 -6.966,15.165356 -15.55905,15.165356 v 0 c -8.59302,0 -15.55905,-6.789761 -15.55905,-15.165356 z" />
    <path
       style="fill:#000000;fill-rule:nonzero"
       id="path17"
       d="M 34.771652,25.389738 H 267.18112 v 67.55905 H 34.771652 Z" />
    <path
       style="fill-rule:nonzero;stroke:#000000;stroke-width:2;stroke-linecap:butt;stroke-linejoin:round"
       id="path19"
       d="M 34.771652,25.389738 H 267.18112 v 67.55905 H 34.771652 Z" />
    <path
       style="fill-rule:nonzero;stroke:#000000;stroke-width:1;stroke-linecap:butt;stroke-linejoin:round"
       id="path21"
       d="M 34.771652,202.31795 H 141.41733 v 44.81891 H 34.771652 Z" />
    <path
       style="fill:#000000;fill-opacity:0;fill-rule:nonzero"
       id="path23"
       d="M 34.771652,125.22639 H 141.41733 v 44.8189 H 34.771652 Z" />
    <path
       style="fill-rule:nonzero;stroke:#000000;stroke-width:1;stroke-linecap:butt;stroke-linejoin:round"
       id="path25"
       d="M 34.771652,125.22639 H 141.41733 v 44.8189 H 34.771652 Z" />
    <path
       style="fill:#000000;fill-opacity:0;fill-rule:nonzero"
       id="path27"
       d="M 34.771652,270.60397 H 141.41733 v 44.81891 H 34.771652 Z" />
    <path
       style="fill-rule:nonzero;stroke:#000000;stroke-width:1;stroke-linecap:butt;stroke-linejoin:round"
       id="path29"
       d="M 34.771652,270.60397 H 141.41733 v 44.81891 H 34.771652 Z" />
    <path
       style="fill:#000000;fill-opacity:0;fill-rule:nonzero"
       id="path31"
       d="m 157.40683,202.31795 h 106.64566 v 44.81891 H 157.40683 Z" />
    <path
       style="fill-rule:nonzero;stroke:#000000;stroke-width:1;stroke-linecap:butt;stroke-linejoin:round"
       id="path33"
       d="m 157.40683,202.31795 h 106.64566 v 44.81891 H 157.40683 Z" />
    <path
       style="fill:#000000;fill-opacity:0;fill-rule:nonzero"
       id="path35"
       d="m 157.40683,125.22639 h 106.64566 v 44.8189 H 157.40683 Z" />
    <path
       style="fill-rule:nonzero;stroke:#000000;stroke-width:1;stroke-linecap:butt;stroke-linejoin:round"
       id="path37"
       d="m 157.40683,125.22639 h 106.64566 v 44.8189 H 157.40683 Z" />
    <path
       style="fill:#000000;fill-opacity:0;fill-rule:nonzero"
       id="path39"
       d="m 157.40683,270.60397 h 106.64566 v 44.81891 H 157.40683 Z" />
    <path
       style="fill-rule:nonzero;stroke:#000000;stroke-width:1;stroke-linecap:butt;stroke-linejoin:round"
       id="path41"
       d="m 157.40683,270.60397 h 106.64566 v 44.81891 H 157.40683 Z" />
    <path
       style="fill:#000000;fill-rule:nonzero"
       id="path43"
       d="m 277.46194,106.3832 h 52.66141 v 209.03937 h -52.66141 z" />
    <path
       style="fill-rule:nonzero;stroke:#000000;stroke-width:2;stroke-linecap:butt;stroke-linejoin:round"
       id="path45"
       d="m 277.46194,106.3832 h 52.66141 v 209.03937 h -52.66141 z" />
    <path
       style="fill:#ffffff;fill-rule:nonzero"
       id="path47"
       d="m 290.06036,245.11285 h 27.46457 v 16.47244 h -27.46457 z" />
    <path
       style="fill-rule:nonzero;stroke:#000000;stroke-width:2;stroke-linecap:butt;stroke-linejoin:round"
       id="path49"
       d="m 290.06036,245.11285 h 27.46457 v 16.47244 h -27.46457 z" />
    <path
       style="fill:#ffffff;fill-rule:nonzero"
       id="path51"
       d="m 290.06036,208.9029 h 27.46457 v 16.47243 h -27.46457 z" />
    <path
       style="fill-rule:nonzero;stroke:#000000;stroke-width:2;stroke-linecap:butt;stroke-linejoin:round"
       id="path53"
       d="m 290.06036,208.9029 h 27.46457 v 16.47243 h -27.46457 z" />
    <path
       style="fill:#ffffff;fill-rule:nonzero"
       id="path55"
       d="m 290.06036,281.32285 h 27.46457 v 16.47244 h -27.46457 z" />
    <path
       style="fill-rule:nonzero;stroke:#000000;stroke-width:2;stroke-linecap:butt;stroke-linejoin:round"
       id="path57"
       d="m 290.06036,281.32285 h 27.46457 v 16.47244 h -27.46457 z" />
  </g>
  <g
     id="text63"
     style="font-size:32px;font-family:'DejaVu Sans', sans-serif;text-anchor:middle;fill:#ffffff"
     aria-label="[شاشة]">
    <path
       id="path97"
       style=""
       d="m 99.96875,45.6875 h 6.625 v 2.234375 h -3.75 v 24.0625 h 3.75 v 2.234375 h -6.625 z" />
    <path
       id="path99"
       style=""
       d="m 169.46875,67.84375 q -0.67187,0.921875 -1.54687,1.4375 Q 166.73438,70 165.1875,70 h -2.03125 v -2.875 h 1.17188 q 1.54687,0 2.23437,-0.6875 1.25,-1.25 1.25,-2.8125 v -3 h 2.875 v 2.4375 q 0,1 0.6875,2.5625 0.67188,1.546875 2.29688,1.546875 1.70312,0 2.39062,-1.90625 0.57813,-1.609375 0.57813,-4.640625 h 2.875 q 0,3.203125 0.29687,3.984375 1,2.65625 2.71875,2.640625 2.21875,-0.03125 2.21875,-4.375 v -4.59375 h 2.875 V 63.625 q 0,3.109375 -1.4375,4.875 -1.17187,1.4375 -2.76562,1.8125 -0.57813,0.140625 -1.125,0.140625 -0.98438,0 -1.84375,-0.390625 -2.14063,-0.953125 -2.42188,-3.015625 -0.75,2.4375 -2.25,2.953125 -1.0625,0.375 -2.07812,0.375 -1.53125,0 -2.65625,-0.765625 -0.9375,-0.625 -1.57813,-1.765625 z M 175.57813,51.25 h 2.34375 v 2.34375 h -2.34375 z m 1.95312,3.90625 H 179.875 V 57.5 h -2.34375 z m -3.90625,0 h 2.34375 V 57.5 H 173.625 Z" />
    <path
       id="path101"
       style=""
       d="M 156.73438,64.203125 V 45.6875 h 2.875 v 18.328125 q 0,1.65625 0.76562,2.421875 0.6875,0.6875 2.23438,0.6875 h 1.17187 V 70 H 161.75 q -2.40625,0 -3.65625,-1.4375 -1.35937,-1.578125 -1.35937,-4.359375 z" />
    <path
       id="path103"
       style=""
       d="m 132.90625,67.84375 q -0.67187,0.921875 -1.54687,1.4375 Q 130.17188,70 128.625,70 h -2.03125 v -2.875 h 1.17187 q 1.54688,0 2.23438,-0.6875 1.25,-1.25 1.25,-2.8125 v -3 h 2.875 v 2.4375 q 0,1 0.6875,2.5625 0.67188,1.546875 2.29688,1.546875 1.70312,0 2.39062,-1.90625 0.57813,-1.609375 0.57813,-4.640625 h 2.875 q 0,3.203125 0.29687,3.984375 1,2.65625 2.71875,2.640625 2.21875,-0.03125 2.21875,-4.375 v -4.59375 h 2.875 V 63.625 q 0,3.109375 -1.4375,4.875 -1.17187,1.4375 -2.76562,1.8125 -0.57813,0.140625 -1.125,0.140625 -0.98438,0 -1.84375,-0.390625 -2.14063,-0.953125 -2.42188,-3.015625 -0.75,2.4375 -2.25,2.953125 -1.0625,0.375 -2.07812,0.375 -1.53125,0 -2.65625,-0.765625 -0.9375,-0.625 -1.57813,-1.765625 z M 139.01563,51.25 h 2.34375 v 2.34375 h -2.34375 z m 1.95312,3.90625 h 2.34375 V 57.5 h -2.34375 z m -3.90625,0 h 2.34375 V 57.5 h -2.34375 z" />
    <path
       id="path105"
       style=""
       d="m 120.28125,65.59375 q -0.23438,-0.65625 -0.4375,-1.421875 -0.20313,-0.78125 -0.39063,-2.359375 -1.875,0.1875 -3.15625,1.234375 -1.73437,1.390625 -1.70312,2.359375 0.0156,0.640625 1.42187,1.03125 1.40625,0.390625 4.26563,-0.84375 z m -1.04688,-6.03125 q -0.0625,-0.609375 -0.10937,-1.28125 H 122 q 0.0156,2.625 0.57812,5.34375 0.32813,1.578125 1.20313,2.8125 0.48437,0.6875 2.23437,0.6875 h 1.17188 V 70 h -2.03125 q -1.40625,0 -2.54688,-0.796875 -0.70312,-0.484375 -1.29687,-1.40625 -2.15625,1.140625 -4.59375,1.140625 -0.875,0 -1.78125,-0.234375 -2.95313,-0.75 -2.95313,-3.15625 0,-2.703125 3.1875,-4.6875 1.70313,-1.0625 4.0625,-1.296875 z m -0.14062,-5.96875 h 2.34375 v 2.34375 h -2.34375 z m -3.90625,0 h 2.34375 v 2.34375 h -2.34375 z" />
    <path
       id="path107"
       style=""
       d="m 200.01563,45.6875 v 28.53125 h -6.625 v -2.234375 h 3.73437 v -24.0625 h -3.73437 V 45.6875 Z" />
  </g>
  <g
     id="text67"
     style="font-size:20px;font-family:'DejaVu Sans', sans-serif;text-anchor:middle;fill:#000000"
     aria-label="[نص]">
    <path
       id="path110"
       style=""
       d="m 65.867188,138.80469 h 4.140625 v 1.39648 h -2.34375 v 15.03906 h 2.34375 v 1.39649 h -4.140625 z" />
    <path
       id="path112"
       style=""
       d="m 98.640625,144.23438 h 1.464845 v 1.46484 h -1.464845 z m 0.732422,8.92578 Q 98.669922,154 97.136719,154 h -0.878906 v -1.79687 h 0.341796 q 0.966797,0 1.396485,-0.42969 0.478515,-0.47852 0.478515,-1.51367 v -2.11914 h 1.796871 v 2.11914 q 0,1.82617 -0.898433,2.90039 z" />
    <path
       id="path114"
       style=""
       d="m 88.103516,154 h -2.695313 q -0.371094,0 -0.878906,-0.29297 -0.439453,-0.2539 -0.439453,-0.41015 0,1.8164 -0.722656,3.0664 -0.859375,1.51367 -3.183594,2.26563 -0.78125,0.2539 -1.953125,0.2539 -1.25,-0.01 -2.314453,-0.2832 -2.685547,-0.69336 -2.685547,-3.89648 0,-2.40235 1.02539,-4.16016 h 1.796875 q -1.054687,2.01172 -1.044921,4.16016 0.0098,1.74804 1.445312,2.11914 0.927734,0.23437 1.71875,0.23437 0.996094,0 1.884766,-0.36133 1.582031,-0.66406 2.001953,-2.01172 0.322265,-1.05468 0.322265,-2.29492 0,-1.43554 -0.380859,-2.7832 h 1.669922 q -0.0098,0.14648 0.126953,0.68359 0.09766,0.39063 0.488281,0.87891 1.123047,-1.42578 2.324219,-2.48047 1.054688,-0.91797 2.490234,-1.60156 0.703125,-0.33203 1.5625,-0.32227 1.220704,0.0195 2.167969,0.38086 1.816406,0.69336 1.816406,2.96875 0,0.75195 -0.410156,1.43555 0.136719,0.11719 0.292969,0.22461 0.595703,0.42969 1.396484,0.42969 h 0.732422 V 154 h -1.269531 q -1.279297,0 -2.285156,-0.89844 l -0.273438,-0.2539 Q 90.837891,154 88.103516,154 Z m 2.558593,-5.53711 q -0.742187,0 -1.972656,0.79102 -1.640625,1.05468 -3.05664,2.94922 h 1.826171 q 2.314454,0 3.574219,-0.61524 1.826172,-0.88867 1.816406,-1.57226 -0.01953,-1.31836 -1.357421,-1.50391 -0.361329,-0.0488 -0.830079,-0.0488 z" />
    <path
       id="path116"
       style=""
       d="m 108.12305,138.80469 v 17.83203 h -4.14063 v -1.39649 h 2.33399 v -15.03906 h -2.33399 v -1.39648 z" />
  </g>
  <g
     id="text71"
     style="font-size:20px;font-family:'DejaVu Sans', sans-serif;text-anchor:middle;fill:#000000"
     aria-label="[نص]">
    <path
       id="path119"
       style=""
       d="m 65.867188,215.80469 h 4.140625 v 1.39648 h -2.34375 v 15.03906 h 2.34375 v 1.39649 h -4.140625 z" />
    <path
       id="path121"
       style=""
       d="m 98.640625,221.23438 h 1.464845 v 1.46484 h -1.464845 z m 0.732422,8.92578 Q 98.669922,231 97.136719,231 h -0.878906 v -1.79687 h 0.341796 q 0.966797,0 1.396485,-0.42969 0.478515,-0.47852 0.478515,-1.51367 v -2.11914 h 1.796871 v 2.11914 q 0,1.82617 -0.898433,2.90039 z" />
    <path
       id="path123"
       style=""
       d="m 88.103516,231 h -2.695313 q -0.371094,0 -0.878906,-0.29297 -0.439453,-0.2539 -0.439453,-0.41015 0,1.8164 -0.722656,3.0664 -0.859375,1.51367 -3.183594,2.26563 -0.78125,0.2539 -1.953125,0.2539 -1.25,-0.01 -2.314453,-0.2832 -2.685547,-0.69336 -2.685547,-3.89648 0,-2.40235 1.02539,-4.16016 h 1.796875 q -1.054687,2.01172 -1.044921,4.16016 0.0098,1.74804 1.445312,2.11914 0.927734,0.23437 1.71875,0.23437 0.996094,0 1.884766,-0.36133 1.582031,-0.66406 2.001953,-2.01172 0.322265,-1.05468 0.322265,-2.29492 0,-1.43554 -0.380859,-2.7832 h 1.669922 q -0.0098,0.14648 0.126953,0.68359 0.09766,0.39063 0.488281,0.87891 1.123047,-1.42578 2.324219,-2.48047 1.054688,-0.91797 2.490234,-1.60156 0.703125,-0.33203 1.5625,-0.32227 1.220704,0.0195 2.167969,0.38086 1.816406,0.69336 1.816406,2.96875 0,0.75195 -0.410156,1.43555 0.136719,0.11719 0.292969,0.22461 0.595703,0.42969 1.396484,0.42969 h 0.732422 V 231 h -1.269531 q -1.279297,0 -2.285156,-0.89844 l -0.273438,-0.2539 Q 90.837891,231 88.103516,231 Z m 2.558593,-5.53711 q -0.742187,0 -1.972656,0.79102 -1.640625,1.05468 -3.05664,2.94922 h 1.826171 q 2.314454,0 3.574219,-0.61524 1.826172,-0.88867 1.816406,-1.57226 -0.01953,-1.31836 -1.357421,-1.50391 -0.361329,-0.0488 -0.830079,-0.0488 z" />
    <path
       id="path125"
       style=""
       d="m 108.12305,215.80469 v 17.83203 h -4.14063 v -1.39649 h 2.33399 v -15.03906 h -2.33399 v -1.39648 z" />
  </g>
  <g
     id="text75"
     style="font-size:20px;font-family:'DejaVu Sans', sans-serif;text-anchor:middle;fill:#000000"
     aria-label="[نص]">
    <path
       id="path128"
       style=""
       d="m 65.867188,283.80469 h 4.140625 v 1.39648 h -2.34375 v 15.03906 h 2.34375 v 1.39649 h -4.140625 z" />
    <path
       id="path130"
       style=""
       d="m 98.640625,289.23438 h 1.464845 v 1.46484 h -1.464845 z m 0.732422,8.92578 Q 98.669922,299 97.136719,299 h -0.878906 v -1.79687 h 0.341796 q 0.966797,0 1.396485,-0.42969 0.478515,-0.47852 0.478515,-1.51367 v -2.11914 h 1.796871 v 2.11914 q 0,1.82617 -0.898433,2.90039 z" />
    <path
       id="path132"
       style=""
       d="m 88.103516,299 h -2.695313 q -0.371094,0 -0.878906,-0.29297 -0.439453,-0.2539 -0.439453,-0.41015 0,1.8164 -0.722656,3.0664 -0.859375,1.51367 -3.183594,2.26563 -0.78125,0.2539 -1.953125,0.2539 -1.25,-0.01 -2.314453,-0.2832 -2.685547,-0.69336 -2.685547,-3.89648 0,-2.40235 1.02539,-4.16016 h 1.796875 q -1.054687,2.01172 -1.044921,4.16016 0.0098,1.74804 1.445312,2.11914 0.927734,0.23437 1.71875,0.23437 0.996094,0 1.884766,-0.36133 1.582031,-0.66406 2.001953,-2.01172 0.322265,-1.05468 0.322265,-2.29492 0,-1.43554 -0.380859,-2.7832 h 1.669922 q -0.0098,0.14648 0.126953,0.68359 0.09766,0.39063 0.488281,0.87891 1.123047,-1.42578 2.324219,-2.48047 1.054688,-0.91797 2.490234,-1.60156 0.703125,-0.33203 1.5625,-0.32227 1.220704,0.0195 2.167969,0.38086 1.816406,0.69336 1.816406,2.96875 0,0.75195 -0.410156,1.43555 0.136719,0.11719 0.292969,0.22461 0.595703,0.42969 1.396484,0.42969 h 0.732422 V 299 h -1.269531 q -1.279297,0 -2.285156,-0.89844 l -0.273438,-0.2539 Q 90.837891,299 88.103516,299 Z m 2.558593,-5.53711 q -0.742187,0 -1.972656,0.79102 -1.640625,1.05468 -3.05664,2.94922 h 1.826171 q 2.314454,0 3.574219,-0.61524 1.826172,-0.88867 1.816406,-1.57226 -0.01953,-1.31836 -1.357421,-1.50391 -0.361329,-0.0488 -0.830079,-0.0488 z" />
    <path
       id="path134"
       style=""
       d="m 108.12305,283.80469 v 17.83203 h -4.14063 v -1.39649 h 2.33399 v -15.03906 h -2.33399 v -1.39648 z" />
  </g>
  <g
     id="text79"
     style="font-size:20px;font-family:'DejaVu Sans', sans-serif;text-anchor:middle;fill:#000000"
     aria-label="[نص]">
    <path
       id="path137"
       style=""
       d="m 188.86719,138.80469 h 4.14062 v 1.39648 h -2.34375 v 15.03906 h 2.34375 v 1.39649 h -4.14062 z" />
    <path
       id="path139"
       style=""
       d="m 221.64063,144.23438 h 1.46484 v 1.46484 h -1.46484 z m 0.73242,8.92578 Q 221.66992,154 220.13672,154 h -0.87891 v -1.79687 h 0.3418 q 0.9668,0 1.39648,-0.42969 0.47852,-0.47852 0.47852,-1.51367 v -2.11914 h 1.79687 v 2.11914 q 0,1.82617 -0.89843,2.90039 z" />
    <path
       id="path141"
       style=""
       d="m 211.10352,154 h -2.69532 q -0.37109,0 -0.8789,-0.29297 -0.43946,-0.2539 -0.43946,-0.41015 0,1.8164 -0.72265,3.0664 -0.85938,1.51367 -3.1836,2.26563 -0.78125,0.2539 -1.95312,0.2539 -1.25,-0.01 -2.31445,-0.2832 -2.68555,-0.69336 -2.68555,-3.89648 0,-2.40235 1.02539,-4.16016 h 1.79687 q -1.05468,2.01172 -1.04492,4.16016 0.01,1.74804 1.44532,2.11914 0.92773,0.23437 1.71875,0.23437 0.99609,0 1.88476,-0.36133 1.58203,-0.66406 2.00195,-2.01172 0.32227,-1.05468 0.32227,-2.29492 0,-1.43554 -0.38086,-2.7832 h 1.66992 q -0.01,0.14648 0.12696,0.68359 0.0977,0.39063 0.48828,0.87891 1.12304,-1.42578 2.32422,-2.48047 1.05468,-0.91797 2.49023,-1.60156 0.70312,-0.33203 1.5625,-0.32227 1.2207,0.0195 2.16797,0.38086 1.8164,0.69336 1.8164,2.96875 0,0.75195 -0.41015,1.43555 0.13672,0.11719 0.29297,0.22461 0.5957,0.42969 1.39648,0.42969 h 0.73242 V 154 h -1.26953 q -1.27929,0 -2.28515,-0.89844 l -0.27344,-0.2539 Q 213.83789,154 211.10352,154 Z m 2.55859,-5.53711 q -0.74219,0 -1.97266,0.79102 -1.64062,1.05468 -3.05664,2.94922 h 1.82617 q 2.31446,0 3.57422,-0.61524 1.82618,-0.88867 1.81641,-1.57226 -0.0195,-1.31836 -1.35742,-1.50391 -0.36133,-0.0488 -0.83008,-0.0488 z" />
    <path
       id="path143"
       style=""
       d="m 231.12305,138.80469 v 17.83203 h -4.14063 v -1.39649 h 2.33399 v -15.03906 h -2.33399 v -1.39648 z" />
  </g>
  <g
     id="text83"
     style="font-size:20px;font-family:'DejaVu Sans', sans-serif;text-anchor:middle;fill:#000000"
     aria-label="[نص]">
    <path
       id="path146"
       style=""
       d="m 188.86719,215.80469 h 4.14062 v 1.39648 h -2.34375 v 15.03906 h 2.34375 v 1.39649 h -4.14062 z" />
    <path
       id="path148"
       style=""
       d="m 221.64063,221.23438 h 1.46484 v 1.46484 h -1.46484 z m 0.73242,8.92578 Q 221.66992,231 220.13672,231 h -0.87891 v -1.79687 h 0.3418 q 0.9668,0 1.39648,-0.42969 0.47852,-0.47852 0.47852,-1.51367 v -2.11914 h 1.79687 v 2.11914 q 0,1.82617 -0.89843,2.90039 z" />
    <path
       id="path150"
       style=""
       d="m 211.10352,231 h -2.69532 q -0.37109,0 -0.8789,-0.29297 -0.43946,-0.2539 -0.43946,-0.41015 0,1.8164 -0.72265,3.0664 -0.85938,1.51367 -3.1836,2.26563 -0.78125,0.2539 -1.95312,0.2539 -1.25,-0.01 -2.31445,-0.2832 -2.68555,-0.69336 -2.68555,-3.89648 0,-2.40235 1.02539,-4.16016 h 1.79687 q -1.05468,2.01172 -1.04492,4.16016 0.01,1.74804 1.44532,2.11914 0.92773,0.23437 1.71875,0.23437 0.99609,0 1.88476,-0.36133 1.58203,-0.66406 2.00195,-2.01172 0.32227,-1.05468 0.32227,-2.29492 0,-1.43554 -0.38086,-2.7832 h 1.66992 q -0.01,0.14648 0.12696,0.68359 0.0977,0.39063 0.48828,0.87891 1.12304,-1.42578 2.32422,-2.48047 1.05468,-0.91797 2.49023,-1.60156 0.70312,-0.33203 1.5625,-0.32227 1.2207,0.0195 2.16797,0.38086 1.8164,0.69336 1.8164,2.96875 0,0.75195 -0.41015,1.43555 0.13672,0.11719 0.29297,0.22461 0.5957,0.42969 1.39648,0.42969 h 0.73242 V 231 h -1.26953 q -1.27929,0 -2.28515,-0.89844 l -0.27344,-0.2539 Q 213.83789,231 211.10352,231 Z m 2.55859,-5.53711 q -0.74219,0 -1.97266,0.79102 -1.64062,1.05468 -3.05664,2.94922 h 1.82617 q 2.31446,0 3.57422,-0.61524 1.82618,-0.88867 1.81641,-1.57226 -0.0195,-1.31836 -1.35742,-1.50391 -0.36133,-0.0488 -0.83008,-0.0488 z" />
    <path
       id="path152"
       style=""
       d="m 231.12305,215.80469 v 17.83203 h -4.14063 v -1.39649 h 2.33399 v -15.03906 h -2.33399 v -1.39648 z" />
  </g>
  <g
     id="text87"
     style="font-size:20px;font-family:'DejaVu Sans', sans-serif;text-anchor:middle;fill:#000000"
     aria-label="[نص]">
    <path
       id="path155"
       style=""
       d="m 188.86719,283.80469 h 4.14062 v 1.39648 h -2.34375 v 15.03906 h 2.34375 v 1.39649 h -4.14062 z" />
    <path
       id="path157"
       style=""
       d="m 221.64063,289.23438 h 1.46484 v 1.46484 h -1.46484 z m 0.73242,8.92578 Q 221.66992,299 220.13672,299 h -0.87891 v -1.79687 h 0.3418 q 0.9668,0 1.39648,-0.42969 0.47852,-0.47852 0.47852,-1.51367 v -2.11914 h 1.79687 v 2.11914 q 0,1.82617 -0.89843,2.90039 z" />
    <path
       id="path159"
       style=""
       d="m 211.10352,299 h -2.69532 q -0.37109,0 -0.8789,-0.29297 -0.43946,-0.2539 -0.43946,-0.41015 0,1.8164 -0.72265,3.0664 -0.85938,1.51367 -3.1836,2.26563 -0.78125,0.2539 -1.95312,0.2539 -1.25,-0.01 -2.31445,-0.2832 -2.68555,-0.69336 -2.68555,-3.89648 0,-2.40235 1.02539,-4.16016 h 1.79687 q -1.05468,2.01172 -1.04492,4.16016 0.01,1.74804 1.44532,2.11914 0.92773,0.23437 1.71875,0.23437 0.99609,0 1.88476,-0.36133 1.58203,-0.66406 2.00195,-2.01172 0.32227,-1.05468 0.32227,-2.29492 0,-1.43554 -0.38086,-2.7832 h 1.66992 q -0.01,0.14648 0.12696,0.68359 0.0977,0.39063 0.48828,0.87891 1.12304,-1.42578 2.32422,-2.48047 1.05468,-0.91797 2.49023,-1.60156 0.70312,-0.33203 1.5625,-0.32227 1.2207,0.0195 2.16797,0.38086 1.8164,0.69336 1.8164,2.96875 0,0.75195 -0.41015,1.43555 0.13672,0.11719 0.29297,0.22461 0.5957,0.42969 1.39648,0.42969 h 0.73242 V 299 h -1.26953 q -1.27929,0 -2.28515,-0.89844 l -0.27344,-0.2539 Q 213.83789,299 211.10352,299 Z m 2.55859,-5.53711 q -0.74219,0 -1.97266,0.79102 -1.64062,1.05468 -3.05664,2.94922 h 1.82617 q 2.31446,0 3.57422,-0.61524 1.82618,-0.88867 1.81641,-1.57226 -0.0195,-1.31836 -1.35742,-1.50391 -0.36133,-0.0488 -0.83008,-0.0488 z" />
    <path
       id="path161"
       style=""
       d="m 231.12305,283.80469 v 17.83203 h -4.14063 v -1.39649 h 2.33399 v -15.03906 h -2.33399 v -1.39648 z" />
  </g>
</svg>
