<?xml version="1.0" encoding="UTF-8" standalone="no"?>
<svg
   xmlns:dc="http://purl.org/dc/elements/1.1/"
   xmlns:cc="http://creativecommons.org/ns#"
   xmlns:rdf="http://www.w3.org/1999/02/22-rdf-syntax-ns#"
   xmlns:svg="http://www.w3.org/2000/svg"
   xmlns="http://www.w3.org/2000/svg"
   id="svg89"
   stroke-miterlimit="10"
   stroke-linecap="square"
   stroke="none"
   fill="none"
   viewBox="0.0 0.0 348.0 348.0"
   version="1.1">
  <metadata
     id="metadata95">
    <rdf:RDF>
      <cc:Work
         rdf:about="">
        <dc:format>image/svg+xml</dc:format>
        <dc:type
           rdf:resource="http://purl.org/dc/dcmitype/StillImage" />
      </cc:Work>
    </rdf:RDF>
  </metadata>
  <defs
     id="defs93" />
  <clipPath
     id="p.0">
    <path
       id="path2"
       clip-rule="nonzero"
       d="m0 0l348.0 0l0 348.0l-348.0 0l0 -348.0z" />
  </clipPath>
  <g
     id="g59"
     clip-path="url(#p.0)">
    <path
       style="fill:#000000;fill-opacity:0;fill-rule:nonzero"
       id="path5"
       d="M 0,0 H 348 V 348 H 0 Z" />
    <path
       style="fill:#ffffff;fill-rule:nonzero"
       id="path7"
       d="M -6,0 H 342 V 347.9685 H -6 Z" />
    <path
       style="fill:#000000;fill-opacity:0;fill-rule:nonzero"
       id="path9"
       d="m 5.07874,5.7758217 h 336.9134 V 343.44512 H 5.07874 Z" />
    <path
       style="fill-rule:nonzero;stroke:#000000;stroke-width:2;stroke-linecap:butt;stroke-linejoin:round"
       id="path11"
       d="m 5.07874,5.7758217 h 336.9134 V 343.44512 H 5.07874 Z" />
    <path
       style="fill:#ffffff;fill-rule:nonzero"
       id="path13"
       d="m 282.73444,40.553925 v 0 c 0,-8.375591 6.96603,-15.165352 15.55905,-15.165352 v 0 c 4.12653,0 8.08402,1.597773 11.00192,4.441828 2.91788,2.844057 4.55713,6.701422 4.55713,10.723524 v 0 c 0,8.375595 -6.966,15.165356 -15.55905,15.165356 v 0 c -8.59302,0 -15.55905,-6.789761 -15.55905,-15.165356 z" />
    <path
       style="fill-rule:nonzero;stroke:#000000;stroke-width:2;stroke-linecap:butt;stroke-linejoin:round"
       id="path15"
       d="m 282.73444,40.553925 v 0 c 0,-8.375591 6.96603,-15.165352 15.55905,-15.165352 v 0 c 4.12653,0 8.08402,1.597773 11.00192,4.441828 2.91788,2.844057 4.55713,6.701422 4.55713,10.723524 v 0 c 0,8.375595 -6.966,15.165356 -15.55905,15.165356 v 0 c -8.59302,0 -15.55905,-6.789761 -15.55905,-15.165356 z" />
    <path
       style="fill:#000000;fill-rule:nonzero"
       id="path17"
       d="M 34.771652,25.389738 H 267.18112 v 67.55905 H 34.771652 Z" />
    <path
       style="fill-rule:nonzero;stroke:#000000;stroke-width:2;stroke-linecap:butt;stroke-linejoin:round"
       id="path19"
       d="M 34.771652,25.389738 H 267.18112 v 67.55905 H 34.771652 Z" />
    <path
       style="fill-rule:nonzero;stroke:#000000;stroke-width:1;stroke-linecap:butt;stroke-linejoin:round"
       id="path21"
       d="M 34.771652,202.31795 H 141.41733 v 44.81891 H 34.771652 Z" />
    <path
       style="fill:#000000;fill-opacity:0;fill-rule:nonzero"
       id="path23"
       d="M 34.771652,125.22639 H 141.41733 v 44.8189 H 34.771652 Z" />
    <path
       style="fill-rule:nonzero;stroke:#000000;stroke-width:1;stroke-linecap:butt;stroke-linejoin:round"
       id="path25"
       d="M 34.771652,125.22639 H 141.41733 v 44.8189 H 34.771652 Z" />
    <path
       style="fill:#000000;fill-opacity:0;fill-rule:nonzero"
       id="path27"
       d="M 34.771652,270.60397 H 141.41733 v 44.81891 H 34.771652 Z" />
    <path
       style="fill-rule:nonzero;stroke:#000000;stroke-width:1;stroke-linecap:butt;stroke-linejoin:round"
       id="path29"
       d="M 34.771652,270.60397 H 141.41733 v 44.81891 H 34.771652 Z" />
    <path
       style="fill:#000000;fill-opacity:0;fill-rule:nonzero"
       id="path31"
       d="m 157.40683,202.31795 h 106.64566 v 44.81891 H 157.40683 Z" />
    <path
       style="fill-rule:nonzero;stroke:#000000;stroke-width:1;stroke-linecap:butt;stroke-linejoin:round"
       id="path33"
       d="m 157.40683,202.31795 h 106.64566 v 44.81891 H 157.40683 Z" />
    <path
       style="fill:#000000;fill-opacity:0;fill-rule:nonzero"
       id="path35"
       d="m 157.40683,125.22639 h 106.64566 v 44.8189 H 157.40683 Z" />
    <path
       style="fill-rule:nonzero;stroke:#000000;stroke-width:1;stroke-linecap:butt;stroke-linejoin:round"
       id="path37"
       d="m 157.40683,125.22639 h 106.64566 v 44.8189 H 157.40683 Z" />
    <path
       style="fill:#000000;fill-opacity:0;fill-rule:nonzero"
       id="path39"
       d="m 157.40683,270.60397 h 106.64566 v 44.81891 H 157.40683 Z" />
    <path
       style="fill-rule:nonzero;stroke:#000000;stroke-width:1;stroke-linecap:butt;stroke-linejoin:round"
       id="path41"
       d="m 157.40683,270.60397 h 106.64566 v 44.81891 H 157.40683 Z" />
    <path
       style="fill:#000000;fill-rule:nonzero"
       id="path43"
       d="m 277.46194,106.3832 h 52.66141 v 209.03937 h -52.66141 z" />
    <path
       style="fill-rule:nonzero;stroke:#000000;stroke-width:2;stroke-linecap:butt;stroke-linejoin:round"
       id="path45"
       d="m 277.46194,106.3832 h 52.66141 v 209.03937 h -52.66141 z" />
    <path
       style="fill:#ffffff;fill-rule:nonzero"
       id="path47"
       d="m 290.06036,245.11285 h 27.46457 v 16.47244 h -27.46457 z" />
    <path
       style="fill-rule:nonzero;stroke:#000000;stroke-width:2;stroke-linecap:butt;stroke-linejoin:round"
       id="path49"
       d="m 290.06036,245.11285 h 27.46457 v 16.47244 h -27.46457 z" />
    <path
       style="fill:#ffffff;fill-rule:nonzero"
       id="path51"
       d="m 290.06036,208.9029 h 27.46457 v 16.47243 h -27.46457 z" />
    <path
       style="fill-rule:nonzero;stroke:#000000;stroke-width:2;stroke-linecap:butt;stroke-linejoin:round"
       id="path53"
       d="m 290.06036,208.9029 h 27.46457 v 16.47243 h -27.46457 z" />
    <path
       style="fill:#ffffff;fill-rule:nonzero"
       id="path55"
       d="m 290.06036,281.32285 h 27.46457 v 16.47244 h -27.46457 z" />
    <path
       style="fill-rule:nonzero;stroke:#000000;stroke-width:2;stroke-linecap:butt;stroke-linejoin:round"
       id="path57"
       d="m 290.06036,281.32285 h 27.46457 v 16.47244 h -27.46457 z" />
  </g>
  <g
     id="text63"
     style="font-size:32px;font-family:'DejaVu Sans', sans-serif;text-anchor:middle;fill:#ffffff"
     aria-label="[شاشة]">
    <path
       id="path97"
       style=""
       d="m 99.96875,45.6875 h 6.625 v 2.234375 h -3.75 v 24.0625 h 3.75 v 2.234375 h -6.625 z" />
    <path
       id="path99"
       style=""
       d="m 169.46875,67.84375 q -0.67187,0.921875 -1.54687,1.4375 Q 166.73438,70 165.1875,70 h -2.03125 v -2.875 h 1.17188 q 1.54687,0 2.23437,-0.6875 1.25,-1.25 1.25,-2.8125 v -3 h 2.875 v 2.4375 q 0,1 0.6875,2.5625 0.67188,1.546875 2.29688,1.546875 1.70312,0 2.39062,-1.90625 0.57813,-1.609375 0.57813,-4.640625 h 2.875 q 0,3.203125 0.29687,3.984375 1,2.65625 2.71875,2.640625 2.21875,-0.03125 2.21875,-4.375 v -4.59375 h 2.875 V 63.625 q 0,3.109375 -1.4375,4.875 -1.17187,1.4375 -2.76562,1.8125 -0.57813,0.140625 -1.125,0.140625 -0.98438,0 -1.84375,-0.390625 -2.14063,-0.953125 -2.42188,-3.015625 -0.75,2.4375 -2.25,2.953125 -1.0625,0.375 -2.07812,0.375 -1.53125,0 -2.65625,-0.765625 -0.9375,-0.625 -1.57813,-1.765625 z M 175.57813,51.25 h 2.34375 v 2.34375 h -2.34375 z m 1.95312,3.90625 H 179.875 V 57.5 h -2.34375 z m -3.90625,0 h 2.34375 V 57.5 H 173.625 Z" />
    <path
       id="path101"
       style=""
       d="M 156.73438,64.203125 V 45.6875 h 2.875 v 18.328125 q 0,1.65625 0.76562,2.421875 0.6875,0.6875 2.23438,0.6875 h 1.17187 V 70 H 161.75 q -2.40625,0 -3.65625,-1.4375 -1.35937,-1.578125 -1.35937,-4.359375 z" />
    <path
       id="path103"
       style=""
       d="m 132.90625,67.84375 q -0.67187,0.921875 -1.54687,1.4375 Q 130.17188,70 128.625,70 h -2.03125 v -2.875 h 1.17187 q 1.54688,0 2.23438,-0.6875 1.25,-1.25 1.25,-2.8125 v -3 h 2.875 v 2.4375 q 0,1 0.6875,2.5625 0.67188,1.546875 2.29688,1.546875 1.70312,0 2.39062,-1.90625 0.57813,-1.609375 0.57813,-4.640625 h 2.875 q 0,3.203125 0.29687,3.984375 1,2.65625 2.71875,2.640625 2.21875,-0.03125 2.21875,-4.375 v -4.59375 h 2.875 V 63.625 q 0,3.109375 -1.4375,4.875 -1.17187,1.4375 -2.76562,1.8125 -0.57813,0.140625 -1.125,0.140625 -0.98438,0 -1.84375,-0.390625 -2.14063,-0.953125 -2.42188,-3.015625 -0.75,2.4375 -2.25,2.953125 -1.0625,0.375 -2.07812,0.375 -1.53125,0 -2.65625,-0.765625 -0.9375,-0.625 -1.57813,-1.765625 z M 139.01563,51.25 h 2.34375 v 2.34375 h -2.34375 z m 1.95312,3.90625 h 2.34375 V 57.5 h -2.34375 z m -3.90625,0 h 2.34375 V 57.5 h -2.34375 z" />
    <path
       id="path105"
       style=""
       d="m 120.28125,65.59375 q -0.23438,-0.65625 -0.4375,-1.421875 -0.20313,-0.78125 -0.39063,-2.359375 -1.875,0.1875 -3.15625,1.234375 -1.73437,1.390625 -1.70312,2.359375 0.0156,0.640625 1.42187,1.03125 1.40625,0.390625 4.26563,-0.84375 z m -1.04688,-6.03125 q -0.0625,-0.609375 -0.10937,-1.28125 H 122 q 0.0156,2.625 0.57812,5.34375 0.32813,1.578125 1.20313,2.8125 0.48437,0.6875 2.23437,0.6875 h 1.17188 V 70 h -2.03125 q -1.40625,0 -2.54688,-0.796875 -0.70312,-0.484375 -1.29687,-1.40625 -2.15625,1.140625 -4.59375,1.140625 -0.875,0 -1.78125,-0.234375 -2.95313,-0.75 -2.95313,-3.15625 0,-2.703125 3.1875,-4.6875 1.70313,-1.0625 4.0625,-1.296875 z m -0.14062,-5.96875 h 2.34375 v 2.34375 h -2.34375 z m -3.90625,0 h 2.34375 v 2.34375 h -2.34375 z" />
    <path
       id="path107"
       style=""
       d="m 200.01563,45.6875 v 28.53125 h -6.625 v -2.234375 h 3.73437 v -24.0625 h -3.73437 V 45.6875 Z" />
  </g>
  <g
     id="text67"
     style="font-size:20px;font-family:'DejaVu Sans', sans-serif;text-anchor:middle;fill:#000000"
     aria-label="[كلمة]">
    <path
       id="path110"
       style=""
       d="m 61.667969,138.80469 h 4.140625 v 1.39648 h -2.34375 v 15.03906 h 2.34375 v 1.39649 h -4.140625 z" />
    <path
       id="path112"
       style=""
       d="m 99.734375,154 h -3.222656 v -1.79687 h 3.027344 q 1.445307,0 1.884767,-1.01563 0.15625,-0.35156 0.15625,-0.70312 0,-0.67383 -0.52735,-1.31836 l -3.027339,-3.71094 q -0.488282,-0.5957 -0.488282,-1.38672 0,-0.3418 0.09766,-0.66406 0.302734,-1.15235 1.318359,-1.57227 l 7.275395,-3.02734 v 1.8164 l -5.81055,2.44141 q -0.693361,0.29297 -0.898439,0.68359 -0.05859,0.10743 -0.05859,0.35157 0,0.3125 0.302734,0.67382 l 2.685548,3.22266 q 0.99609,1.20117 0.99609,2.40234 0,1.10352 -0.60547,2.08985 Q 101.91211,154 99.734375,154 Z" />
    <path
       id="path114"
       style=""
       d="M 93.376953,153.16016 Q 92.625,154 91.140625,154 h -1.269531 v -1.79687 h 0.732422 q 0.966797,0 1.396484,-0.42969 0.478516,-0.47852 0.478516,-1.51367 v -11.45508 h 1.796875 v 11.45508 q 0,1.03515 0.478515,1.51367 0.429688,0.42969 1.396485,0.42969 h 0.732422 V 154 h -1.269532 q -1.464843,0 -2.236328,-0.83984 z" />
    <path
       id="path116"
       style=""
       d="m 86.980469,153.49219 q -0.947266,0.99609 -2.304688,0.99609 -2.089843,0 -3.164062,-0.95703 Q 80.886719,154 79.871094,154 h -1.5625 v -1.79687 h 1.132812 q 0.507813,0 0.9375,-0.35157 0.419922,-0.34179 0.46875,-0.82031 0.195313,-1.76758 1.513672,-2.54883 0.917969,-0.54687 1.826172,-0.54687 0.703125,0 1.347656,0.2832 1.884766,0.81055 2.050782,2.44141 0.04883,0.47851 0.546875,1.08398 0.351562,0.42969 1.396484,0.42969 h 0.732422 v 1.79687 h -1.269531 q -1.71875,0 -2.011719,-0.47851 z m -4.511719,-1.43555 q 0.605469,0.67383 2.158203,0.67383 0.458985,0 0.644531,-0.17578 0.507813,-0.51758 0.507813,-1.19141 0,-0.18555 -0.04883,-0.36133 -0.214844,-0.85937 -0.78125,-1.02539 -0.38086,-0.11718 -0.761719,-0.11718 -0.517578,0 -0.917969,0.26367 -0.488281,0.32226 -0.634765,1.26953 -0.06836,0.36133 -0.166016,0.66406 z" />
    <path
       id="path118"
       style=""
       d="m 74.363281,151.24609 q -0.146484,-0.41015 -0.273437,-0.88867 -0.126953,-0.48828 -0.244141,-1.47461 -1.171875,0.11719 -1.972656,0.77149 -1.083984,0.86914 -1.064453,1.47461 0.0098,0.40039 0.888672,0.64453 0.878906,0.24414 2.666015,-0.52735 z m -0.654297,-3.76953 q -0.03906,-0.38086 -0.06836,-0.80078 H 75.4375 q 0.0098,1.64063 0.361328,3.33985 0.205078,0.98632 0.751953,1.75781 0.302735,0.42969 1.396485,0.42969 h 0.732422 V 154 h -1.269532 q -0.878906,0 -1.591797,-0.49805 -0.439453,-0.30273 -0.810546,-0.8789 -1.347657,0.71289 -2.871094,0.71289 -0.546875,0 -1.113281,-0.14649 -1.845704,-0.46875 -1.845704,-1.97265 0,-1.68946 1.992188,-2.92969 1.064453,-0.66406 2.539062,-0.81055 z m -0.08789,-3.73047 h 1.464844 v 1.46485 h -1.464844 z m -2.441406,0 h 1.464843 v 1.46485 h -1.464843 z" />
    <path
       id="path120"
       style=""
       d="m 112.32227,138.80469 v 17.83203 h -4.14063 v -1.39649 h 2.33398 v -15.03906 h -2.33398 v -1.39648 z" />
  </g>
  <g
     id="text71"
     style="font-size:20px;font-family:'DejaVu Sans', sans-serif;text-anchor:middle;fill:#000000"
     aria-label="[كلمة]">
    <path
       id="path123"
       style=""
       d="m 61.667969,215.80469 h 4.140625 v 1.39648 h -2.34375 v 15.03906 h 2.34375 v 1.39649 h -4.140625 z" />
    <path
       id="path125"
       style=""
       d="m 99.734375,231 h -3.222656 v -1.79687 h 3.027344 q 1.445307,0 1.884767,-1.01563 0.15625,-0.35156 0.15625,-0.70312 0,-0.67383 -0.52735,-1.31836 l -3.027339,-3.71094 q -0.488282,-0.5957 -0.488282,-1.38672 0,-0.3418 0.09766,-0.66406 0.302734,-1.15235 1.318359,-1.57227 l 7.275395,-3.02734 v 1.8164 l -5.81055,2.44141 q -0.693361,0.29297 -0.898439,0.68359 -0.05859,0.10743 -0.05859,0.35157 0,0.3125 0.302734,0.67382 l 2.685548,3.22266 q 0.99609,1.20117 0.99609,2.40234 0,1.10352 -0.60547,2.08985 Q 101.91211,231 99.734375,231 Z" />
    <path
       id="path127"
       style=""
       d="M 93.376953,230.16016 Q 92.625,231 91.140625,231 h -1.269531 v -1.79687 h 0.732422 q 0.966797,0 1.396484,-0.42969 0.478516,-0.47852 0.478516,-1.51367 v -11.45508 h 1.796875 v 11.45508 q 0,1.03515 0.478515,1.51367 0.429688,0.42969 1.396485,0.42969 h 0.732422 V 231 h -1.269532 q -1.464843,0 -2.236328,-0.83984 z" />
    <path
       id="path129"
       style=""
       d="m 86.980469,230.49219 q -0.947266,0.99609 -2.304688,0.99609 -2.089843,0 -3.164062,-0.95703 Q 80.886719,231 79.871094,231 h -1.5625 v -1.79687 h 1.132812 q 0.507813,0 0.9375,-0.35157 0.419922,-0.34179 0.46875,-0.82031 0.195313,-1.76758 1.513672,-2.54883 0.917969,-0.54687 1.826172,-0.54687 0.703125,0 1.347656,0.2832 1.884766,0.81055 2.050782,2.44141 0.04883,0.47851 0.546875,1.08398 0.351562,0.42969 1.396484,0.42969 h 0.732422 v 1.79687 h -1.269531 q -1.71875,0 -2.011719,-0.47851 z m -4.511719,-1.43555 q 0.605469,0.67383 2.158203,0.67383 0.458985,0 0.644531,-0.17578 0.507813,-0.51758 0.507813,-1.19141 0,-0.18555 -0.04883,-0.36133 -0.214844,-0.85937 -0.78125,-1.02539 -0.38086,-0.11718 -0.761719,-0.11718 -0.517578,0 -0.917969,0.26367 -0.488281,0.32226 -0.634765,1.26953 -0.06836,0.36133 -0.166016,0.66406 z" />
    <path
       id="path131"
       style=""
       d="m 74.363281,228.24609 q -0.146484,-0.41015 -0.273437,-0.88867 -0.126953,-0.48828 -0.244141,-1.47461 -1.171875,0.11719 -1.972656,0.77149 -1.083984,0.86914 -1.064453,1.47461 0.0098,0.40039 0.888672,0.64453 0.878906,0.24414 2.666015,-0.52735 z m -0.654297,-3.76953 q -0.03906,-0.38086 -0.06836,-0.80078 H 75.4375 q 0.0098,1.64063 0.361328,3.33985 0.205078,0.98632 0.751953,1.75781 0.302735,0.42969 1.396485,0.42969 h 0.732422 V 231 h -1.269532 q -0.878906,0 -1.591797,-0.49805 -0.439453,-0.30273 -0.810546,-0.8789 -1.347657,0.71289 -2.871094,0.71289 -0.546875,0 -1.113281,-0.14649 -1.845704,-0.46875 -1.845704,-1.97265 0,-1.68946 1.992188,-2.92969 1.064453,-0.66406 2.539062,-0.81055 z m -0.08789,-3.73047 h 1.464844 v 1.46485 h -1.464844 z m -2.441406,0 h 1.464843 v 1.46485 h -1.464843 z" />
    <path
       id="path133"
       style=""
       d="m 112.32227,215.80469 v 17.83203 h -4.14063 v -1.39649 h 2.33398 v -15.03906 h -2.33398 v -1.39648 z" />
  </g>
  <g
     id="text75"
     style="font-size:20px;font-family:'DejaVu Sans', sans-serif;text-anchor:middle;fill:#000000"
     aria-label="[كلمة]">
    <path
       id="path136"
       style=""
       d="m 61.667969,283.80469 h 4.140625 v 1.39648 h -2.34375 v 15.03906 h 2.34375 v 1.39649 h -4.140625 z" />
    <path
       id="path138"
       style=""
       d="m 99.734375,299 h -3.222656 v -1.79687 h 3.027344 q 1.445307,0 1.884767,-1.01563 0.15625,-0.35156 0.15625,-0.70312 0,-0.67383 -0.52735,-1.31836 l -3.027339,-3.71094 q -0.488282,-0.5957 -0.488282,-1.38672 0,-0.3418 0.09766,-0.66406 0.302734,-1.15235 1.318359,-1.57227 l 7.275395,-3.02734 v 1.8164 l -5.81055,2.44141 q -0.693361,0.29297 -0.898439,0.68359 -0.05859,0.10743 -0.05859,0.35157 0,0.3125 0.302734,0.67382 l 2.685548,3.22266 q 0.99609,1.20117 0.99609,2.40234 0,1.10352 -0.60547,2.08985 Q 101.91211,299 99.734375,299 Z" />
    <path
       id="path140"
       style=""
       d="M 93.376953,298.16016 Q 92.625,299 91.140625,299 h -1.269531 v -1.79687 h 0.732422 q 0.966797,0 1.396484,-0.42969 0.478516,-0.47852 0.478516,-1.51367 v -11.45508 h 1.796875 v 11.45508 q 0,1.03515 0.478515,1.51367 0.429688,0.42969 1.396485,0.42969 h 0.732422 V 299 h -1.269532 q -1.464843,0 -2.236328,-0.83984 z" />
    <path
       id="path142"
       style=""
       d="m 86.980469,298.49219 q -0.947266,0.99609 -2.304688,0.99609 -2.089843,0 -3.164062,-0.95703 Q 80.886719,299 79.871094,299 h -1.5625 v -1.79687 h 1.132812 q 0.507813,0 0.9375,-0.35157 0.419922,-0.34179 0.46875,-0.82031 0.195313,-1.76758 1.513672,-2.54883 0.917969,-0.54687 1.826172,-0.54687 0.703125,0 1.347656,0.2832 1.884766,0.81055 2.050782,2.44141 0.04883,0.47851 0.546875,1.08398 0.351562,0.42969 1.396484,0.42969 h 0.732422 v 1.79687 h -1.269531 q -1.71875,0 -2.011719,-0.47851 z m -4.511719,-1.43555 q 0.605469,0.67383 2.158203,0.67383 0.458985,0 0.644531,-0.17578 0.507813,-0.51758 0.507813,-1.19141 0,-0.18555 -0.04883,-0.36133 -0.214844,-0.85937 -0.78125,-1.02539 -0.38086,-0.11718 -0.761719,-0.11718 -0.517578,0 -0.917969,0.26367 -0.488281,0.32226 -0.634765,1.26953 -0.06836,0.36133 -0.166016,0.66406 z" />
    <path
       id="path144"
       style=""
       d="m 74.363281,296.24609 q -0.146484,-0.41015 -0.273437,-0.88867 -0.126953,-0.48828 -0.244141,-1.47461 -1.171875,0.11719 -1.972656,0.77149 -1.083984,0.86914 -1.064453,1.47461 0.0098,0.40039 0.888672,0.64453 0.878906,0.24414 2.666015,-0.52735 z m -0.654297,-3.76953 q -0.03906,-0.38086 -0.06836,-0.80078 H 75.4375 q 0.0098,1.64063 0.361328,3.33985 0.205078,0.98632 0.751953,1.75781 0.302735,0.42969 1.396485,0.42969 h 0.732422 V 299 h -1.269532 q -0.878906,0 -1.591797,-0.49805 -0.439453,-0.30273 -0.810546,-0.8789 -1.347657,0.71289 -2.871094,0.71289 -0.546875,0 -1.113281,-0.14649 -1.845704,-0.46875 -1.845704,-1.97265 0,-1.68946 1.992188,-2.92969 1.064453,-0.66406 2.539062,-0.81055 z m -0.08789,-3.73047 h 1.464844 v 1.46485 h -1.464844 z m -2.441406,0 h 1.464843 v 1.46485 h -1.464843 z" />
    <path
       id="path146"
       style=""
       d="m 112.32227,283.80469 v 17.83203 h -4.14063 v -1.39649 h 2.33398 v -15.03906 h -2.33398 v -1.39648 z" />
  </g>
  <g
     id="text79"
     style="font-size:20px;font-family:'DejaVu Sans', sans-serif;text-anchor:middle;fill:#000000"
     aria-label="[كلمة]">
    <path
       id="path149"
       style=""
       d="m 184.66797,138.80469 h 4.14062 v 1.39648 h -2.34375 v 15.03906 h 2.34375 v 1.39649 h -4.14062 z" />
    <path
       id="path151"
       style=""
       d="m 222.73438,154 h -3.22266 v -1.79687 h 3.02734 q 1.44532,0 1.88477,-1.01563 0.15625,-0.35156 0.15625,-0.70312 0,-0.67383 -0.52735,-1.31836 l -3.02734,-3.71094 q -0.48828,-0.5957 -0.48828,-1.38672 0,-0.3418 0.0977,-0.66406 0.30273,-1.15235 1.31836,-1.57227 l 7.27539,-3.02734 v 1.8164 l -5.81055,2.44141 q -0.69336,0.29297 -0.89844,0.68359 -0.0586,0.10743 -0.0586,0.35157 0,0.3125 0.30273,0.67382 l 2.68555,3.22266 q 0.99609,1.20117 0.99609,2.40234 0,1.10352 -0.60547,2.08985 Q 224.91211,154 222.73438,154 Z" />
    <path
       id="path153"
       style=""
       d="M 216.37695,153.16016 Q 215.625,154 214.14063,154 h -1.26954 v -1.79687 h 0.73243 q 0.96679,0 1.39648,-0.42969 0.47852,-0.47852 0.47852,-1.51367 v -11.45508 h 1.79687 v 11.45508 q 0,1.03515 0.47852,1.51367 0.42968,0.42969 1.39648,0.42969 h 0.73242 V 154 h -1.26953 q -1.46484,0 -2.23633,-0.83984 z" />
    <path
       id="path155"
       style=""
       d="m 209.98047,153.49219 q -0.94727,0.99609 -2.30469,0.99609 -2.08984,0 -3.16406,-0.95703 Q 203.88672,154 202.87109,154 h -1.5625 v -1.79687 h 1.13282 q 0.50781,0 0.9375,-0.35157 0.41992,-0.34179 0.46875,-0.82031 0.19531,-1.76758 1.51367,-2.54883 0.91797,-0.54687 1.82617,-0.54687 0.70313,0 1.34766,0.2832 1.88476,0.81055 2.05078,2.44141 0.0488,0.47851 0.54687,1.08398 0.35157,0.42969 1.39649,0.42969 h 0.73242 v 1.79687 h -1.26953 q -1.71875,0 -2.01172,-0.47851 z m -4.51172,-1.43555 q 0.60547,0.67383 2.1582,0.67383 0.45899,0 0.64453,-0.17578 0.50782,-0.51758 0.50782,-1.19141 0,-0.18555 -0.0488,-0.36133 -0.21484,-0.85937 -0.78125,-1.02539 -0.38086,-0.11718 -0.76172,-0.11718 -0.51758,0 -0.91797,0.26367 -0.48828,0.32226 -0.63476,1.26953 -0.0684,0.36133 -0.16602,0.66406 z" />
    <path
       id="path157"
       style=""
       d="m 197.36328,151.24609 q -0.14648,-0.41015 -0.27344,-0.88867 -0.12695,-0.48828 -0.24414,-1.47461 -1.17187,0.11719 -1.97265,0.77149 -1.08399,0.86914 -1.06446,1.47461 0.01,0.40039 0.88868,0.64453 0.8789,0.24414 2.66601,-0.52735 z m -0.6543,-3.76953 q -0.0391,-0.38086 -0.0684,-0.80078 h 1.79687 q 0.01,1.64063 0.36133,3.33985 0.20508,0.98632 0.75195,1.75781 0.30274,0.42969 1.39649,0.42969 h 0.73242 V 154 h -1.26953 q -0.87891,0 -1.5918,-0.49805 -0.43945,-0.30273 -0.81055,-0.8789 -1.34765,0.71289 -2.87109,0.71289 -0.54688,0 -1.11328,-0.14649 -1.84571,-0.46875 -1.84571,-1.97265 0,-1.68946 1.99219,-2.92969 1.06446,-0.66406 2.53906,-0.81055 z m -0.0879,-3.73047 h 1.46485 v 1.46485 h -1.46485 z m -2.4414,0 h 1.46484 v 1.46485 h -1.46484 z" />
    <path
       id="path159"
       style=""
       d="m 235.32227,138.80469 v 17.83203 h -4.14063 v -1.39649 h 2.33399 v -15.03906 h -2.33399 v -1.39648 z" />
  </g>
  <g
     id="text83"
     style="font-size:20px;font-family:'DejaVu Sans', sans-serif;text-anchor:middle;fill:#000000"
     aria-label="[كلمة]">
    <path
       id="path162"
       style=""
       d="m 184.66797,215.80469 h 4.14062 v 1.39648 h -2.34375 v 15.03906 h 2.34375 v 1.39649 h -4.14062 z" />
    <path
       id="path164"
       style=""
       d="m 222.73438,231 h -3.22266 v -1.79687 h 3.02734 q 1.44532,0 1.88477,-1.01563 0.15625,-0.35156 0.15625,-0.70312 0,-0.67383 -0.52735,-1.31836 l -3.02734,-3.71094 q -0.48828,-0.5957 -0.48828,-1.38672 0,-0.3418 0.0977,-0.66406 0.30273,-1.15235 1.31836,-1.57227 l 7.27539,-3.02734 v 1.8164 l -5.81055,2.44141 q -0.69336,0.29297 -0.89844,0.68359 -0.0586,0.10743 -0.0586,0.35157 0,0.3125 0.30273,0.67382 l 2.68555,3.22266 q 0.99609,1.20117 0.99609,2.40234 0,1.10352 -0.60547,2.08985 Q 224.91211,231 222.73438,231 Z" />
    <path
       id="path166"
       style=""
       d="M 216.37695,230.16016 Q 215.625,231 214.14063,231 h -1.26954 v -1.79687 h 0.73243 q 0.96679,0 1.39648,-0.42969 0.47852,-0.47852 0.47852,-1.51367 v -11.45508 h 1.79687 v 11.45508 q 0,1.03515 0.47852,1.51367 0.42968,0.42969 1.39648,0.42969 h 0.73242 V 231 h -1.26953 q -1.46484,0 -2.23633,-0.83984 z" />
    <path
       id="path168"
       style=""
       d="m 209.98047,230.49219 q -0.94727,0.99609 -2.30469,0.99609 -2.08984,0 -3.16406,-0.95703 Q 203.88672,231 202.87109,231 h -1.5625 v -1.79687 h 1.13282 q 0.50781,0 0.9375,-0.35157 0.41992,-0.34179 0.46875,-0.82031 0.19531,-1.76758 1.51367,-2.54883 0.91797,-0.54687 1.82617,-0.54687 0.70313,0 1.34766,0.2832 1.88476,0.81055 2.05078,2.44141 0.0488,0.47851 0.54687,1.08398 0.35157,0.42969 1.39649,0.42969 h 0.73242 v 1.79687 h -1.26953 q -1.71875,0 -2.01172,-0.47851 z m -4.51172,-1.43555 q 0.60547,0.67383 2.1582,0.67383 0.45899,0 0.64453,-0.17578 0.50782,-0.51758 0.50782,-1.19141 0,-0.18555 -0.0488,-0.36133 -0.21484,-0.85937 -0.78125,-1.02539 -0.38086,-0.11718 -0.76172,-0.11718 -0.51758,0 -0.91797,0.26367 -0.48828,0.32226 -0.63476,1.26953 -0.0684,0.36133 -0.16602,0.66406 z" />
    <path
       id="path170"
       style=""
       d="m 197.36328,228.24609 q -0.14648,-0.41015 -0.27344,-0.88867 -0.12695,-0.48828 -0.24414,-1.47461 -1.17187,0.11719 -1.97265,0.77149 -1.08399,0.86914 -1.06446,1.47461 0.01,0.40039 0.88868,0.64453 0.8789,0.24414 2.66601,-0.52735 z m -0.6543,-3.76953 q -0.0391,-0.38086 -0.0684,-0.80078 h 1.79687 q 0.01,1.64063 0.36133,3.33985 0.20508,0.98632 0.75195,1.75781 0.30274,0.42969 1.39649,0.42969 h 0.73242 V 231 h -1.26953 q -0.87891,0 -1.5918,-0.49805 -0.43945,-0.30273 -0.81055,-0.8789 -1.34765,0.71289 -2.87109,0.71289 -0.54688,0 -1.11328,-0.14649 -1.84571,-0.46875 -1.84571,-1.97265 0,-1.68946 1.99219,-2.92969 1.06446,-0.66406 2.53906,-0.81055 z m -0.0879,-3.73047 h 1.46485 v 1.46485 h -1.46485 z m -2.4414,0 h 1.46484 v 1.46485 h -1.46484 z" />
    <path
       id="path172"
       style=""
       d="m 235.32227,215.80469 v 17.83203 h -4.14063 v -1.39649 h 2.33399 v -15.03906 h -2.33399 v -1.39648 z" />
  </g>
  <g
     id="text87"
     style="font-size:20px;font-family:'DejaVu Sans', sans-serif;text-anchor:middle;fill:#000000"
     aria-label="[كلمة]">
    <path
       id="path175"
       style=""
       d="m 184.66797,283.80469 h 4.14062 v 1.39648 h -2.34375 v 15.03906 h 2.34375 v 1.39649 h -4.14062 z" />
    <path
       id="path177"
       style=""
       d="m 222.73438,299 h -3.22266 v -1.79687 h 3.02734 q 1.44532,0 1.88477,-1.01563 0.15625,-0.35156 0.15625,-0.70312 0,-0.67383 -0.52735,-1.31836 l -3.02734,-3.71094 q -0.48828,-0.5957 -0.48828,-1.38672 0,-0.3418 0.0977,-0.66406 0.30273,-1.15235 1.31836,-1.57227 l 7.27539,-3.02734 v 1.8164 l -5.81055,2.44141 q -0.69336,0.29297 -0.89844,0.68359 -0.0586,0.10743 -0.0586,0.35157 0,0.3125 0.30273,0.67382 l 2.68555,3.22266 q 0.99609,1.20117 0.99609,2.40234 0,1.10352 -0.60547,2.08985 Q 224.91211,299 222.73438,299 Z" />
    <path
       id="path179"
       style=""
       d="M 216.37695,298.16016 Q 215.625,299 214.14063,299 h -1.26954 v -1.79687 h 0.73243 q 0.96679,0 1.39648,-0.42969 0.47852,-0.47852 0.47852,-1.51367 v -11.45508 h 1.79687 v 11.45508 q 0,1.03515 0.47852,1.51367 0.42968,0.42969 1.39648,0.42969 h 0.73242 V 299 h -1.26953 q -1.46484,0 -2.23633,-0.83984 z" />
    <path
       id="path181"
       style=""
       d="m 209.98047,298.49219 q -0.94727,0.99609 -2.30469,0.99609 -2.08984,0 -3.16406,-0.95703 Q 203.88672,299 202.87109,299 h -1.5625 v -1.79687 h 1.13282 q 0.50781,0 0.9375,-0.35157 0.41992,-0.34179 0.46875,-0.82031 0.19531,-1.76758 1.51367,-2.54883 0.91797,-0.54687 1.82617,-0.54687 0.70313,0 1.34766,0.2832 1.88476,0.81055 2.05078,2.44141 0.0488,0.47851 0.54687,1.08398 0.35157,0.42969 1.39649,0.42969 h 0.73242 v 1.79687 h -1.26953 q -1.71875,0 -2.01172,-0.47851 z m -4.51172,-1.43555 q 0.60547,0.67383 2.1582,0.67383 0.45899,0 0.64453,-0.17578 0.50782,-0.51758 0.50782,-1.19141 0,-0.18555 -0.0488,-0.36133 -0.21484,-0.85937 -0.78125,-1.02539 -0.38086,-0.11718 -0.76172,-0.11718 -0.51758,0 -0.91797,0.26367 -0.48828,0.32226 -0.63476,1.26953 -0.0684,0.36133 -0.16602,0.66406 z" />
    <path
       id="path183"
       style=""
       d="m 197.36328,296.24609 q -0.14648,-0.41015 -0.27344,-0.88867 -0.12695,-0.48828 -0.24414,-1.47461 -1.17187,0.11719 -1.97265,0.77149 -1.08399,0.86914 -1.06446,1.47461 0.01,0.40039 0.88868,0.64453 0.8789,0.24414 2.66601,-0.52735 z m -0.6543,-3.76953 q -0.0391,-0.38086 -0.0684,-0.80078 h 1.79687 q 0.01,1.64063 0.36133,3.33985 0.20508,0.98632 0.75195,1.75781 0.30274,0.42969 1.39649,0.42969 h 0.73242 V 299 h -1.26953 q -0.87891,0 -1.5918,-0.49805 -0.43945,-0.30273 -0.81055,-0.8789 -1.34765,0.71289 -2.87109,0.71289 -0.54688,0 -1.11328,-0.14649 -1.84571,-0.46875 -1.84571,-1.97265 0,-1.68946 1.99219,-2.92969 1.06446,-0.66406 2.53906,-0.81055 z m -0.0879,-3.73047 h 1.46485 v 1.46485 h -1.46485 z m -2.4414,0 h 1.46484 v 1.46485 h -1.46484 z" />
    <path
       id="path185"
       style=""
       d="m 235.32227,283.80469 v 17.83203 h -4.14063 v -1.39649 h 2.33399 v -15.03906 h -2.33399 v -1.39648 z" />
  </g>
</svg>
