<?xml version="1.0" encoding="UTF-8" standalone="no"?>
<svg
   xmlns:dc="http://purl.org/dc/elements/1.1/"
   xmlns:cc="http://creativecommons.org/ns#"
   xmlns:rdf="http://www.w3.org/1999/02/22-rdf-syntax-ns#"
   xmlns:svg="http://www.w3.org/2000/svg"
   xmlns="http://www.w3.org/2000/svg"
   id="svg117"
   stroke-miterlimit="10"
   stroke-linecap="square"
   stroke="none"
   fill="none"
   viewBox="0.0 0.0 348.0 348.0"
   version="1.1">
  <metadata
     id="metadata123">
    <rdf:RDF>
      <cc:Work
         rdf:about="">
        <dc:format>image/svg+xml</dc:format>
        <dc:type
           rdf:resource="http://purl.org/dc/dcmitype/StillImage" />
      </cc:Work>
    </rdf:RDF>
  </metadata>
  <defs
     id="defs121" />
  <clipPath
     id="p.0">
    <path
       id="path2"
       clip-rule="nonzero"
       d="m0 0l348.0 0l0 348.0l-348.0 0l0 -348.0z" />
  </clipPath>
  <g
     id="g103"
     clip-path="url(#p.0)">
    <path
       style="fill:#000000;fill-opacity:0;fill-rule:nonzero"
       id="path5"
       d="M 0,0 H 348 V 348 H 0 Z" />
    <path
       style="fill:#ffffff;fill-rule:nonzero"
       id="path7"
       d="M -6,0 H 342 V 347.9685 H -6 Z" />
    <path
       style="fill:#000000;fill-opacity:0;fill-rule:nonzero"
       id="path9"
       d="M 68.950134,75.845146 H 265.32809 V 276.85302 H 68.950134 Z" />
    <path
       style="fill-rule:nonzero;stroke:#000000;stroke-width:2;stroke-linecap:butt;stroke-linejoin:round"
       id="path11"
       d="M 68.950134,75.845146 H 265.32809 V 276.85302 H 68.950134 Z" />
    <path
       style="fill:#000000;fill-opacity:0;fill-rule:nonzero"
       id="path13"
       d="m 66.92126,67.16798 h 42.99213 V 130.2546 H 66.92126 Z" />
    <path
       style="fill:#000000;fill-rule:nonzero"
       id="path15"
       d="M 90.82751,114.56798 H 87.311885 V 92.16173 q -1.265625,1.21875 -3.328125,2.4375 -2.0625,1.203125 -3.703125,1.796875 V 93.00548 q 2.953125,-1.390625 5.15625,-3.359375 2.203125,-1.96875 3.125,-3.828125 h 2.265625 z" />
    <path
       style="fill:#000000;fill-opacity:0;fill-rule:nonzero"
       id="path17"
       d="m 66.92126,136.80315 h 42.99213 v 63.08661 H 66.92126 Z" />
    <path
       style="fill:#000000;fill-rule:nonzero"
       id="path19"
       d="m 96.06188,180.82814 v 3.375 H 77.140005 q -0.04688,-1.26563 0.40625,-2.4375 0.71875,-1.9375 2.3125,-3.8125 1.59375,-1.875 4.59375,-4.34375 4.671875,-3.82813 6.3125,-6.0625 1.640625,-2.23438 1.640625,-4.21875 0,-2.09375 -1.5,-3.53125 -1.484375,-1.4375 -3.890625,-1.4375 -2.53125,0 -4.0625,1.53125 -1.515625,1.51562 -1.546875,4.21875 l -3.609375,-0.375 q 0.375,-4.04688 2.796875,-6.15625 2.421875,-2.125 6.5,-2.125 4.125,0 6.515625,2.28125 2.40625,2.28125 2.40625,5.67187 0,1.71875 -0.703125,3.375 -0.703125,1.65625 -2.328125,3.5 -1.625,1.82813 -5.421875,5.03125 -3.15625,2.65625 -4.0625,3.60938 -0.890625,0.9375 -1.484375,1.90625 z" />
    <path
       style="fill:#000000;fill-opacity:0;fill-rule:nonzero"
       id="path21"
       d="m 66.92126,208.18636 h 42.99213 v 63.08659 H 66.92126 Z" />
    <path
       style="fill:#000000;fill-rule:nonzero"
       id="path23"
       d="m 77.60876,248.02385 3.515625,-0.46875 q 0.59375,2.98438 2.046875,4.3125 1.46875,1.3125 3.546875,1.3125 2.484375,0 4.1875,-1.71875 1.71875,-1.71875 1.71875,-4.25 0,-2.42187 -1.59375,-4 -1.578125,-1.57812 -4.015625,-1.57812 -1,0 -2.484375,0.39062 l 0.390625,-3.07812 q 0.359375,0.0312 0.578125,0.0312 2.234375,0 4.03125,-1.17188 1.796875,-1.17187 1.796875,-3.60937 0,-1.9375 -1.3125,-3.20313 -1.296875,-1.26562 -3.375,-1.26562 -2.046875,0 -3.421875,1.29687 -1.359375,1.28125 -1.75,3.85938 l -3.515625,-0.625 q 0.640625,-3.53125 2.921875,-5.46875 2.296875,-1.95313 5.6875,-1.95313 2.34375,0 4.3125,1.01563 1.984375,1 3.03125,2.73437 1.046875,1.73438 1.046875,3.6875 0,1.85938 -1,3.39063 -1,1.51562 -2.953125,2.40625 2.546875,0.59375 3.953125,2.4375 1.40625,1.84375 1.40625,4.625 0,3.75 -2.734375,6.35937 -2.734375,2.60936 -6.921875,2.60936 -3.765625,0 -6.265625,-2.24998 -2.484375,-2.25 -2.828125,-5.82813 z" />
    <path
       style="fill:#000000;fill-opacity:0;fill-rule:nonzero"
       id="path25"
       d="m 219.3622,67.16798 h 42.99214 V 130.2546 H 219.3622 Z" />
    <path
       style="fill:#000000;fill-opacity:0;fill-rule:nonzero"
       id="path27"
       d="m 219.3622,136.80315 h 42.99214 v 63.08661 H 219.3622 Z" />
    <path
       style="fill:#000000;fill-opacity:0;fill-rule:nonzero"
       id="path29"
       d="m 219.3622,208.18636 h 42.99214 v 63.08659 H 219.3622 Z" />
    <path
       style="fill:#000000;fill-opacity:0;fill-rule:nonzero"
       id="path31"
       d="m 5.07874,5.7758217 h 336.9134 V 343.44512 H 5.07874 Z" />
    <path
       style="fill-rule:nonzero;stroke:#000000;stroke-width:2;stroke-linecap:butt;stroke-linejoin:round"
       id="path33"
       d="m 5.07874,5.7758217 h 336.9134 V 343.44512 H 5.07874 Z" />
    <path
       style="fill:#ffffff;fill-rule:nonzero"
       id="path35"
       d="m 282.73444,40.553925 v 0 c 0,-8.375591 6.96603,-15.165352 15.55905,-15.165352 v 0 c 4.12653,0 8.08402,1.597773 11.00192,4.441828 2.91788,2.844057 4.55713,6.701422 4.55713,10.723524 v 0 c 0,8.375595 -6.966,15.165356 -15.55905,15.165356 v 0 c -8.59302,0 -15.55905,-6.789761 -15.55905,-15.165356 z" />
    <path
       style="fill-rule:nonzero;stroke:#000000;stroke-width:2;stroke-linecap:butt;stroke-linejoin:round"
       id="path37"
       d="m 282.73444,40.553925 v 0 c 0,-8.375591 6.96603,-15.165352 15.55905,-15.165352 v 0 c 4.12653,0 8.08402,1.597773 11.00192,4.441828 2.91788,2.844057 4.55713,6.701422 4.55713,10.723524 v 0 c 0,8.375595 -6.966,15.165356 -15.55905,15.165356 v 0 c -8.59302,0 -15.55905,-6.789761 -15.55905,-15.165356 z" />
    <path
       style="fill:#000000;fill-opacity:0;fill-rule:nonzero"
       id="path39"
       d="m 127.70866,25.577427 h 91.65355 v 38.141735 h -91.65355 z" />
    <path
       style="fill-rule:nonzero;stroke:#000000;stroke-width:2;stroke-linecap:butt;stroke-linejoin:round"
       id="path41"
       d="m 127.70866,25.577427 h 91.65355 v 38.141735 h -91.65355 z" />
    <path
       style="fill:#000000;fill-rule:nonzero"
       id="path43"
       d="m 157.11023,44.648296 16.4252,-10.015751 16.4252,10.015751 h -8.2126 v 10.015747 h -16.4252 V 44.648296 Z" />
    <path
       style="fill:#000000;fill-opacity:0;fill-rule:nonzero"
       id="path45"
       d="m 128.17323,289.2152 h 91.65353 v 38.14175 h -91.65353 z" />
    <path
       style="fill-rule:nonzero;stroke:#000000;stroke-width:2;stroke-linecap:butt;stroke-linejoin:round"
       id="path47"
       d="m 128.17323,289.2152 h 91.65353 v 38.14175 h -91.65353 z" />
    <path
       style="fill:#000000;fill-rule:nonzero"
       id="path49"
       d="M 190.4252,308.2861 174,318.30185 157.5748,308.2861 h 8.2126 v -10.01575 h 16.4252 v 10.01575 z" />
    <path
       style="fill:#000000;fill-opacity:0;fill-rule:nonzero"
       id="path51"
       d="M 115.55118,101.03149 221.44095,242.13386" />
    <path
       style="fill-rule:nonzero;stroke:#000000;stroke-width:2;stroke-linecap:butt;stroke-linejoin:round"
       id="path53"
       d="M 115.55118,101.03149 221.44095,242.13386" />
    <path
       style="fill:#000000;fill-opacity:0;fill-rule:nonzero"
       id="path55"
       d="M 112.31233,170.79527 221.44619,97.346456" />
    <path
       style="fill-rule:nonzero;stroke:#000000;stroke-width:2;stroke-linecap:butt;stroke-linejoin:round"
       id="path57"
       d="M 112.31233,170.79527 221.44619,97.346456" />
    <path
       style="fill:#000000;fill-opacity:0;fill-rule:nonzero"
       id="path59"
       d="m 109.91338,239.72966 111.937,-70.58267" />
    <path
       style="fill-rule:nonzero;stroke:#000000;stroke-width:2;stroke-linecap:butt;stroke-linejoin:round"
       id="path61"
       d="m 109.91338,239.72966 111.937,-70.58267" />
    <path
       style="fill:#000000;fill-opacity:0;fill-rule:nonzero"
       id="path63"
       d="m 116.81102,101.80315 -6.07874,4.063" />
    <path
       style="fill-rule:nonzero;stroke:#000000;stroke-width:2;stroke-linecap:butt;stroke-linejoin:round"
       id="path65"
       d="m 116.81102,101.80315 -6.07874,4.063" />
    <path
       style="fill:#000000;fill-opacity:0;fill-rule:nonzero"
       id="path67"
       d="m 220.23885,96.937004 8.09448,7.685046" />
    <path
       style="fill-rule:nonzero;stroke:#000000;stroke-width:2;stroke-linecap:butt;stroke-linejoin:round"
       id="path69"
       d="m 220.23885,96.937004 8.09448,7.685046" />
    <path
       style="fill:#000000;fill-opacity:0;fill-rule:nonzero"
       id="path71"
       d="m 113.56693,169.94489 -6.07874,8.91338" />
    <path
       style="fill-rule:nonzero;stroke:#000000;stroke-width:2;stroke-linecap:butt;stroke-linejoin:round"
       id="path73"
       d="m 113.56693,169.94489 -6.07874,8.91338" />
    <path
       style="fill:#000000;fill-opacity:0;fill-rule:nonzero"
       id="path75"
       d="m 110.72704,238.08398 -2.23623,8.40945" />
    <path
       style="fill-rule:nonzero;stroke:#000000;stroke-width:2;stroke-linecap:butt;stroke-linejoin:round"
       id="path77"
       d="m 110.72704,238.08398 -2.23623,8.40945" />
    <path
       style="fill:#000000;fill-opacity:0;fill-rule:nonzero"
       id="path79"
       d="m 221.45407,241.73491 4.47244,1.63779" />
    <path
       style="fill-rule:nonzero;stroke:#000000;stroke-width:2;stroke-linecap:butt;stroke-linejoin:round"
       id="path81"
       d="m 221.45407,241.73491 4.47244,1.63779" />
    <path
       style="fill:#000000;fill-opacity:0;fill-rule:nonzero"
       id="path83"
       d="m 220.64305,169.53806 6.48819,6.07874" />
    <path
       style="fill-rule:nonzero;stroke:#000000;stroke-width:2;stroke-linecap:butt;stroke-linejoin:round"
       id="path85"
       d="m 220.64305,169.53806 6.48819,6.07874" />
    <path
       style="fill:#000000;fill-rule:nonzero"
       id="path87"
       d="m 276.51968,75.845146 h 52.66141 V 329.32544 h -52.66141 z" />
    <path
       style="fill-rule:nonzero;stroke:#000000;stroke-width:2;stroke-linecap:butt;stroke-linejoin:round"
       id="path89"
       d="m 276.51968,75.845146 h 52.66141 V 329.32544 h -52.66141 z" />
    <path
       style="fill:#ffffff;fill-rule:nonzero"
       id="path91"
       d="m 289.1181,259.021 h 27.46457 v 16.47244 H 289.1181 Z" />
    <path
       style="fill-rule:nonzero;stroke:#000000;stroke-width:2;stroke-linecap:butt;stroke-linejoin:round"
       id="path93"
       d="m 289.1181,259.021 h 27.46457 v 16.47244 H 289.1181 Z" />
    <path
       style="fill:#ffffff;fill-rule:nonzero"
       id="path95"
       d="m 289.1181,222.81102 h 27.46457 v 16.47244 H 289.1181 Z" />
    <path
       style="fill-rule:nonzero;stroke:#000000;stroke-width:2;stroke-linecap:butt;stroke-linejoin:round"
       id="path97"
       d="m 289.1181,222.81102 h 27.46457 v 16.47244 H 289.1181 Z" />
    <path
       style="fill:#ffffff;fill-rule:nonzero"
       id="path99"
       d="m 289.1181,295.23096 h 27.46457 V 311.7034 H 289.1181 Z" />
    <path
       style="fill-rule:nonzero;stroke:#000000;stroke-width:2;stroke-linecap:butt;stroke-linejoin:round"
       id="path101"
       d="m 289.1181,295.23096 h 27.46457 V 311.7034 H 289.1181 Z" />
  </g>
  <g
     id="text107"
     style="font-size:42px;font-family:'DejaVu Sans', sans-serif;text-anchor:middle;fill:#000000"
     aria-label="أ">
    <path
       id="path125"
       style=""
       d="m 240.39063,80.03418 1.5996,-0.369141 q -0.90234,-0.410156 -1.23046,-1.148437 -0.32813,-0.758789 -0.32813,-1.681641 0,-1.96875 1.14844,-2.850586 1.18945,-0.922852 3.07617,-0.922852 1.27148,0 2.33789,0.676758 v 2.050782 q -1.02539,-0.676758 -2.33789,-0.676758 -1.35352,0 -1.70215,0.36914 -0.59472,0.65625 -0.59472,1.189453 0,1.579102 1.92773,2.132813 0.67676,0.205078 3.13769,-0.389648 v 2.091796 l -7.03417,1.579102 z m 1.74316,3.055664 h 3.77344 V 115 h -3.77344 z" />
  </g>
  <g
     id="text111"
     style="font-size:42px;font-family:'DejaVu Sans', sans-serif;text-anchor:middle;fill:#000000"
     aria-label="ب">
    <path
       id="path128"
       style=""
       d="m 260.24219,172.28027 q 0.30761,1.84571 0.30761,3.28125 0,2.76856 -1.55859,4.83985 -2.625,3.50683 -9.12598,4.81933 -5.84472,1.18946 -9.63867,1.18946 -3.91699,0 -6.5625,-0.7793 -6.76758,-1.98926 -6.76758,-7.48535 0,-2.83008 1.292,-4.7168 h 3.77343 q -1.333,1.92774 -1.333,4.7168 0,2.56347 4.16308,3.9375 2.13281,0.69726 5.22949,0.69726 3.79395,0 9.22852,-1.16894 5.22949,-1.10742 6.60352,-3.42481 1.12793,-1.90722 1.12793,-3.44531 0,-1.20996 -0.5127,-2.46094 z m -19.09278,17.82129 h 3.07618 v 3.07617 h -3.07618 z" />
  </g>
  <g
     id="text115"
     style="font-size:42px;font-family:'DejaVu Sans', sans-serif;text-anchor:middle;fill:#000000"
     aria-label="ت">
    <path
       id="path131"
       style=""
       d="m 260.24219,242.28027 q 0.30761,1.84571 0.30761,3.28125 0,2.76856 -1.55859,4.83985 -2.625,3.50683 -9.12598,4.81933 -5.84472,1.18946 -9.63867,1.18946 -3.91699,0 -6.5625,-0.7793 -6.76758,-1.98926 -6.76758,-7.48535 0,-2.83008 1.292,-4.7168 h 3.77343 q -1.333,1.92774 -1.333,4.7168 0,2.56347 4.16308,3.9375 2.13281,0.69726 5.22949,0.69726 3.79395,0 9.22852,-1.16894 5.22949,-1.10742 6.60352,-3.42481 1.12793,-1.90722 1.12793,-3.44531 0,-1.20996 -0.5127,-2.46094 z m -16.5293,-2.68652 h 3.07617 v 3.07617 h -3.07617 z m -5.12695,0 h 3.07617 v 3.07617 h -3.07617 z" />
  </g>
</svg>
