<?xml version="1.0" encoding="UTF-8" standalone="no"?>
<svg
   xmlns:dc="http://purl.org/dc/elements/1.1/"
   xmlns:cc="http://creativecommons.org/ns#"
   xmlns:rdf="http://www.w3.org/1999/02/22-rdf-syntax-ns#"
   xmlns:svg="http://www.w3.org/2000/svg"
   xmlns="http://www.w3.org/2000/svg"
   id="svg111"
   stroke-miterlimit="10"
   stroke-linecap="square"
   stroke="none"
   fill="none"
   viewBox="0.0 0.0 348.0 348.0"
   version="1.1">
  <metadata
     id="metadata117">
    <rdf:RDF>
      <cc:Work
         rdf:about="">
        <dc:format>image/svg+xml</dc:format>
        <dc:type
           rdf:resource="http://purl.org/dc/dcmitype/StillImage" />
      </cc:Work>
    </rdf:RDF>
  </metadata>
  <defs
     id="defs115" />
  <clipPath
     id="p.0">
    <path
       id="path2"
       clip-rule="nonzero"
       d="m0 0l348.0 0l0 348.0l-348.0 0l0 -348.0z" />
  </clipPath>
  <g
     id="g85"
     clip-path="url(#p.0)">
    <path
       id="path5"
       fill-rule="evenodd"
       d="M 0,0 H 348 V 348 H 0 Z"
       fill-opacity="0"
       fill="#000000" />
    <path
       id="path7"
       fill-rule="evenodd"
       d="M -6,0 H 348.01575 V 347.9685 H -6 Z"
       fill="#ffffff" />
    <path
       id="path9"
       fill-rule="evenodd"
       d="m 5.07874,5.7758217 h 336.9134 V 343.4451 H 5.07874 Z"
       fill-opacity="0"
       fill="#000000" />
    <path
       id="path11"
       fill-rule="evenodd"
       d="m 5.07874,5.7758217 h 336.9134 V 343.4451 H 5.07874 Z"
       stroke-linecap="butt"
       stroke-linejoin="round"
       stroke-width="2"
       stroke="#000000" />
    <path
       id="path13"
       fill-rule="evenodd"
       d="m 282.73444,40.553925 v 0 c 0,-8.375591 6.96603,-15.165352 15.55905,-15.165352 v 0 c 4.12653,0 8.08402,1.597773 11.00192,4.441828 2.91788,2.844057 4.55713,6.701422 4.55713,10.723524 v 0 c 0,8.375595 -6.966,15.165356 -15.55905,15.165356 v 0 c -8.59302,0 -15.55905,-6.789761 -15.55905,-15.165356 z"
       fill="#ffffff" />
    <path
       id="path15"
       fill-rule="evenodd"
       d="m 282.73444,40.553925 v 0 c 0,-8.375591 6.96603,-15.165352 15.55905,-15.165352 v 0 c 4.12653,0 8.08402,1.597773 11.00192,4.441828 2.91788,2.844057 4.55713,6.701422 4.55713,10.723524 v 0 c 0,8.375595 -6.966,15.165356 -15.55905,15.165356 v 0 c -8.59302,0 -15.55905,-6.789761 -15.55905,-15.165356 z"
       stroke-linecap="butt"
       stroke-linejoin="round"
       stroke-width="2"
       stroke="#000000" />
    <path
       id="path17"
       fill-rule="evenodd"
       d="M 50.949955,90.04964 60.41452,72.726802 69.879089,90.04964 Z"
       fill="#000000" />
    <path
       id="path19"
       fill-rule="evenodd"
       d="M 50.949955,90.04964 60.41452,72.726802 69.879089,90.04964 Z"
       stroke-linecap="butt"
       stroke-linejoin="round"
       stroke-width="2"
       stroke="#000000" />
    <path
       id="path21"
       fill-rule="evenodd"
       d="m 122.04724,268.00525 h 97.92126 v 41.88977 h -97.92126 z"
       fill-opacity="0"
       fill="#000000" />
    <path
       id="path23"
       fill-rule="evenodd"
       d="m 122.04724,268.00525 h 97.92126 v 41.88977 h -97.92126 z"
       stroke-linecap="butt"
       stroke-linejoin="round"
       stroke-width="2"
       stroke="#000000" />
    <path
       id="path25"
       fill-rule="evenodd"
       d="M 29.517061,106.30446 H 289.61154 v 96.81889 H 29.517061 Z"
       fill="#000000" />
    <path
       id="path27"
       fill-rule="evenodd"
       d="M 29.517061,106.30446 H 289.61154 v 96.81889 H 29.517061 Z"
       stroke-linecap="butt"
       stroke-linejoin="round"
       stroke-width="2"
       stroke="#000000" />
    <path
       id="path29"
       fill-rule="evenodd"
       d="m 35.627296,113.07874 h 49.574806 v 82.14173 H 35.627296 Z"
       fill="#ffffff" />
    <path
       id="path31"
       fill-rule="evenodd"
       d="m 35.627296,113.07874 h 49.574806 v 82.14173 H 35.627296 Z"
       stroke-linecap="butt"
       stroke-linejoin="round"
       stroke-width="1"
       stroke="#000000" />
    <path
       id="path33"
       fill-rule="evenodd"
       d="m 85.2021,113.07874 h 49.5748 v 82.14173 H 85.2021 Z"
       fill="#ffffff" />
    <path
       id="path35"
       fill-rule="evenodd"
       d="m 85.2021,113.07874 h 49.5748 v 82.14173 H 85.2021 Z"
       stroke-linecap="butt"
       stroke-linejoin="round"
       stroke-width="1"
       stroke="#000000" />
    <path
       id="path37"
       fill-rule="evenodd"
       d="m 134.77843,113.07874 h 49.5748 v 82.14173 h -49.5748 z"
       fill="#ffffff" />
    <path
       id="path39"
       fill-rule="evenodd"
       d="m 134.77843,113.07874 h 49.5748 v 82.14173 h -49.5748 z"
       stroke-linecap="butt"
       stroke-linejoin="round"
       stroke-width="1"
       stroke="#000000" />
    <path
       id="path41"
       fill-rule="evenodd"
       d="m 184.35214,113.07874 h 49.5748 v 82.14173 h -49.5748 z"
       fill="#ffffff" />
    <path
       id="path43"
       fill-rule="evenodd"
       d="m 184.35214,113.07874 h 49.5748 v 82.14173 h -49.5748 z"
       stroke-linecap="butt"
       stroke-linejoin="round"
       stroke-width="1"
       stroke="#000000" />
    <path
       id="path45"
       fill-rule="evenodd"
       d="m 233.9265,113.07874 h 49.57481 v 82.14173 H 233.9265 Z"
       fill="#ffffff" />
    <path
       id="path47"
       fill-rule="evenodd"
       d="m 233.9265,113.07874 h 49.57481 v 82.14173 H 233.9265 Z"
       stroke-linecap="butt"
       stroke-linejoin="round"
       stroke-width="1"
       stroke="#000000" />
    <path
       id="path49"
       fill-rule="evenodd"
       d="m 100.52476,90.04964 9.46457,-17.322838 9.46457,17.322838 z"
       fill="#000000" />
    <path
       id="path51"
       fill-rule="evenodd"
       d="m 100.52476,90.04964 9.46457,-17.322838 9.46457,17.322838 z"
       stroke-linecap="butt"
       stroke-linejoin="round"
       stroke-width="2"
       stroke="#000000" />
    <path
       id="path53"
       fill-rule="evenodd"
       d="m 150.09956,90.04964 9.46457,-17.322838 9.46457,17.322838 z"
       fill="#000000" />
    <path
       id="path55"
       fill-rule="evenodd"
       d="m 150.09956,90.04964 9.46457,-17.322838 9.46457,17.322838 z"
       stroke-linecap="butt"
       stroke-linejoin="round"
       stroke-width="2"
       stroke="#000000" />
    <path
       id="path57"
       fill-rule="evenodd"
       d="m 199.67436,90.04964 9.46457,-17.322838 9.46457,17.322838 z"
       fill="#000000" />
    <path
       id="path59"
       fill-rule="evenodd"
       d="m 199.67436,90.04964 9.46457,-17.322838 9.46457,17.322838 z"
       stroke-linecap="butt"
       stroke-linejoin="round"
       stroke-width="2"
       stroke="#000000" />
    <path
       id="path61"
       fill-rule="evenodd"
       d="m 249.24916,90.04964 9.46458,-17.322838 9.46457,17.322838 z"
       fill="#000000" />
    <path
       id="path63"
       fill-rule="evenodd"
       d="m 249.24916,90.04964 9.46458,-17.322838 9.46457,17.322838 z"
       stroke-linecap="butt"
       stroke-linejoin="round"
       stroke-width="2"
       stroke="#000000" />
    <path
       id="path65"
       fill-rule="evenodd"
       d="m 268.1783,219.37772 -9.46457,17.32284 -9.46458,-17.32284 z"
       fill="#000000" />
    <path
       id="path67"
       fill-rule="evenodd"
       d="m 268.1783,219.37772 -9.46457,17.32284 -9.46458,-17.32284 z"
       stroke-linecap="butt"
       stroke-linejoin="round"
       stroke-width="2"
       stroke="#000000" />
    <path
       id="path69"
       fill-rule="evenodd"
       d="m 218.6035,219.37772 -9.46457,17.32284 -9.46457,-17.32284 z"
       fill="#000000" />
    <path
       id="path71"
       fill-rule="evenodd"
       d="m 218.6035,219.37772 -9.46457,17.32284 -9.46457,-17.32284 z"
       stroke-linecap="butt"
       stroke-linejoin="round"
       stroke-width="2"
       stroke="#000000" />
    <path
       id="path73"
       fill-rule="evenodd"
       d="m 169.0287,219.37772 -9.46457,17.32284 -9.46457,-17.32284 z"
       fill="#000000" />
    <path
       id="path75"
       fill-rule="evenodd"
       d="m 169.0287,219.37772 -9.46457,17.32284 -9.46457,-17.32284 z"
       stroke-linecap="butt"
       stroke-linejoin="round"
       stroke-width="2"
       stroke="#000000" />
    <path
       id="path77"
       fill-rule="evenodd"
       d="m 119.4539,219.37772 -9.46457,17.32284 -9.46457,-17.32284 z"
       fill="#000000" />
    <path
       id="path79"
       fill-rule="evenodd"
       d="m 119.4539,219.37772 -9.46457,17.32284 -9.46457,-17.32284 z"
       stroke-linecap="butt"
       stroke-linejoin="round"
       stroke-width="2"
       stroke="#000000" />
    <path
       id="path81"
       fill-rule="evenodd"
       d="m 69.87909,219.37772 -9.464569,17.32284 -9.464565,-17.32284 z"
       fill="#000000" />
    <path
       id="path83"
       fill-rule="evenodd"
       d="m 69.87909,219.37772 -9.464569,17.32284 -9.464565,-17.32284 z"
       stroke-linecap="butt"
       stroke-linejoin="round"
       stroke-width="2"
       stroke="#000000" />
  </g>
  <g
     style="font-size:20px;font-family:'DejaVu Sans', sans-serif;text-anchor:middle;fill:#000000"
     id="text89"
     aria-label="확인">
    <path
       id="path119"
       d="m 152.9043,281.99609 v -1.27929 h 4.83398 v -1.95313 h 1.44531 v 1.95313 h 4.81446 v 1.27929 z m 14.39453,4.92188 v 4.50195 h -1.43555 v -12.5 h 1.43555 v 6.69922 h 2.82226 v 1.29883 z m -2.61719,3.85742 q -4.58984,0.30273 -12.30469,0.30273 l -0.13672,-1.25976 q 2.95899,0 5.47852,-0.0586 v -1.50391 q -1.92383,-0.13672 -2.92969,-0.88867 -1.00586,-0.75196 -1.00586,-1.9043 0,-1.30859 1.24024,-2.07031 1.24023,-0.77149 3.4375,-0.77149 2.13867,0 3.39843,0.79102 1.25977,0.79101 1.25977,2.05078 0,1.17188 -1.03516,1.92383 -1.03515,0.75195 -2.91992,0.86914 v 1.48437 q 3.32031,-0.0391 5.43946,-0.17578 z m -6.2207,-6.95312 q -1.60157,0 -2.42188,0.44921 -0.82031,0.44922 -0.82031,1.19141 0,0.74219 0.85937,1.19141 0.85938,0.44922 2.38282,0.44922 1.52343,0 2.37304,-0.43946 0.84961,-0.44922 0.84961,-1.20117 0,-0.74219 -0.81054,-1.19141 -0.81055,-0.44921 -2.41211,-0.44921 z m 7.40234,13.93554 v -4.10156 h -10.70312 v -1.2793 h 12.13867 v 5.38086 z" />
    <path
       id="path121"
       d="m 186.45898,292.67969 v -13.75977 h 1.46485 v 13.75977 z m -7.84179,-3.47657 q -2.10938,0 -3.52539,-1.32812 -1.41602,-1.33789 -1.41602,-3.45703 0,-2.12891 1.40625,-3.44727 1.41602,-1.32812 3.53516,-1.32812 2.11914,0 3.51562,1.31836 1.40625,1.31836 1.40625,3.45703 0,2.11914 -1.40625,3.45703 -1.40625,1.32812 -3.51562,1.32812 z m 0,-8.26171 q -1.54297,0 -2.50977,0.94726 -0.9668,0.94727 -0.9668,2.5293 0,1.58203 0.95704,2.53906 0.96679,0.94727 2.51953,0.94727 1.55273,0 2.51953,-0.94727 0.9668,-0.95703 0.9668,-2.53906 0,-1.58203 -0.9668,-2.5293 -0.9668,-0.94726 -2.51953,-0.94726 z m -2.57813,16.09375 v -6.11329 h 1.46485 v 4.79493 h 10.91796 v 1.31836 z" />
  </g>
  <g
     style="font-size:42px;font-family:'DejaVu Sans', sans-serif;text-anchor:middle;fill:#000000"
     id="text93"
     aria-label="A">
    <path
       id="path124"
       d="m 60,143.46289 -5.619141,15.23731 h 11.258789 z m -2.337891,-4.08105 h 4.696289 L 74.027344,170 h -4.306641 l -2.789062,-7.85449 H 53.129883 L 50.34082,170 h -4.368164 z" />
  </g>
  <g
     style="font-size:42px;font-family:'DejaVu Sans', sans-serif;text-anchor:middle;fill:#000000"
     id="text97"
     aria-label="A">
    <path
       id="path127"
       d="m 110,143.46289 -5.61914,15.23731 h 11.25879 z m -2.33789,-4.08105 h 4.69629 L 124.02734,170 h -4.30664 l -2.78906,-7.85449 H 103.12988 L 100.34082,170 h -4.368164 z" />
  </g>
  <g
     style="font-size:42px;font-family:'DejaVu Sans', sans-serif;text-anchor:middle;fill:#000000"
     id="text101"
     aria-label="A">
    <path
       id="path130"
       d="m 160,143.46289 -5.61914,15.23731 h 11.25879 z m -2.33789,-4.08105 h 4.69629 L 174.02734,170 h -4.30664 l -2.78906,-7.85449 H 153.12988 L 150.34082,170 h -4.36816 z" />
  </g>
  <g
     style="font-size:42px;font-family:'DejaVu Sans', sans-serif;text-anchor:middle;fill:#000000"
     id="text105"
     aria-label="A">
    <path
       id="path133"
       d="m 210,143.46289 -5.61914,15.23731 h 11.25879 z m -2.33789,-4.08105 h 4.69629 L 224.02734,170 h -4.30664 l -2.78906,-7.85449 H 203.12988 L 200.34082,170 h -4.36816 z" />
  </g>
  <g
     style="font-size:42px;font-family:'DejaVu Sans', sans-serif;text-anchor:middle;fill:#000000"
     id="text109"
     aria-label="A">
    <path
       id="path136"
       d="m 260,143.46289 -5.61914,15.23731 h 11.25879 z m -2.33789,-4.08105 h 4.69629 L 274.02734,170 h -4.30664 l -2.78906,-7.85449 H 253.12988 L 250.34082,170 h -4.36816 z" />
  </g>
</svg>
