<?xml version="1.0" encoding="UTF-8" standalone="no"?>
<svg
   xmlns:dc="http://purl.org/dc/elements/1.1/"
   xmlns:cc="http://creativecommons.org/ns#"
   xmlns:rdf="http://www.w3.org/1999/02/22-rdf-syntax-ns#"
   xmlns:svg="http://www.w3.org/2000/svg"
   xmlns="http://www.w3.org/2000/svg"
   id="svg89"
   stroke-miterlimit="10"
   stroke-linecap="square"
   stroke="none"
   fill="none"
   viewBox="0.0 0.0 348.0 348.0"
   version="1.1">
  <metadata
     id="metadata95">
    <rdf:RDF>
      <cc:Work
         rdf:about="">
        <dc:format>image/svg+xml</dc:format>
        <dc:type
           rdf:resource="http://purl.org/dc/dcmitype/StillImage" />
      </cc:Work>
    </rdf:RDF>
  </metadata>
  <defs
     id="defs93" />
  <clipPath
     id="p.0">
    <path
       id="path2"
       clip-rule="nonzero"
       d="m0 0l348.0 0l0 348.0l-348.0 0l0 -348.0z" />
  </clipPath>
  <g
     id="g59"
     clip-path="url(#p.0)">
    <path
       style="fill:#000000;fill-opacity:0;fill-rule:nonzero"
       id="path5"
       d="M 0,0 H 348 V 348 H 0 Z" />
    <path
       style="fill:#ffffff;fill-rule:nonzero"
       id="path7"
       d="M -6,0 H 342 V 347.9685 H -6 Z" />
    <path
       style="fill:#000000;fill-opacity:0;fill-rule:nonzero"
       id="path9"
       d="m 5.07874,5.7758217 h 336.9134 V 343.44512 H 5.07874 Z" />
    <path
       style="fill-rule:nonzero;stroke:#000000;stroke-width:2;stroke-linecap:butt;stroke-linejoin:round"
       id="path11"
       d="m 5.07874,5.7758217 h 336.9134 V 343.44512 H 5.07874 Z" />
    <path
       style="fill:#ffffff;fill-rule:nonzero"
       id="path13"
       d="m 282.73444,40.553925 v 0 c 0,-8.375591 6.96603,-15.165352 15.55905,-15.165352 v 0 c 4.12653,0 8.08402,1.597773 11.00192,4.441828 2.91788,2.844057 4.55713,6.701422 4.55713,10.723524 v 0 c 0,8.375595 -6.966,15.165356 -15.55905,15.165356 v 0 c -8.59302,0 -15.55905,-6.789761 -15.55905,-15.165356 z" />
    <path
       style="fill-rule:nonzero;stroke:#000000;stroke-width:2;stroke-linecap:butt;stroke-linejoin:round"
       id="path15"
       d="m 282.73444,40.553925 v 0 c 0,-8.375591 6.96603,-15.165352 15.55905,-15.165352 v 0 c 4.12653,0 8.08402,1.597773 11.00192,4.441828 2.91788,2.844057 4.55713,6.701422 4.55713,10.723524 v 0 c 0,8.375595 -6.966,15.165356 -15.55905,15.165356 v 0 c -8.59302,0 -15.55905,-6.789761 -15.55905,-15.165356 z" />
    <path
       style="fill:#000000;fill-rule:nonzero"
       id="path17"
       d="M 34.771652,25.389738 H 267.18112 v 67.55905 H 34.771652 Z" />
    <path
       style="fill-rule:nonzero;stroke:#000000;stroke-width:2;stroke-linecap:butt;stroke-linejoin:round"
       id="path19"
       d="M 34.771652,25.389738 H 267.18112 v 67.55905 H 34.771652 Z" />
    <path
       style="fill-rule:nonzero;stroke:#000000;stroke-width:1;stroke-linecap:butt;stroke-linejoin:round"
       id="path21"
       d="M 34.771652,202.31795 H 141.41733 v 44.81891 H 34.771652 Z" />
    <path
       style="fill:#000000;fill-opacity:0;fill-rule:nonzero"
       id="path23"
       d="M 34.771652,125.22639 H 141.41733 v 44.8189 H 34.771652 Z" />
    <path
       style="fill-rule:nonzero;stroke:#000000;stroke-width:1;stroke-linecap:butt;stroke-linejoin:round"
       id="path25"
       d="M 34.771652,125.22639 H 141.41733 v 44.8189 H 34.771652 Z" />
    <path
       style="fill:#000000;fill-opacity:0;fill-rule:nonzero"
       id="path27"
       d="M 34.771652,270.60397 H 141.41733 v 44.81891 H 34.771652 Z" />
    <path
       style="fill-rule:nonzero;stroke:#000000;stroke-width:1;stroke-linecap:butt;stroke-linejoin:round"
       id="path29"
       d="M 34.771652,270.60397 H 141.41733 v 44.81891 H 34.771652 Z" />
    <path
       style="fill:#000000;fill-opacity:0;fill-rule:nonzero"
       id="path31"
       d="m 157.40683,202.31795 h 106.64566 v 44.81891 H 157.40683 Z" />
    <path
       style="fill-rule:nonzero;stroke:#000000;stroke-width:1;stroke-linecap:butt;stroke-linejoin:round"
       id="path33"
       d="m 157.40683,202.31795 h 106.64566 v 44.81891 H 157.40683 Z" />
    <path
       style="fill:#000000;fill-opacity:0;fill-rule:nonzero"
       id="path35"
       d="m 157.40683,125.22639 h 106.64566 v 44.8189 H 157.40683 Z" />
    <path
       style="fill-rule:nonzero;stroke:#000000;stroke-width:1;stroke-linecap:butt;stroke-linejoin:round"
       id="path37"
       d="m 157.40683,125.22639 h 106.64566 v 44.8189 H 157.40683 Z" />
    <path
       style="fill:#000000;fill-opacity:0;fill-rule:nonzero"
       id="path39"
       d="m 157.40683,270.60397 h 106.64566 v 44.81891 H 157.40683 Z" />
    <path
       style="fill-rule:nonzero;stroke:#000000;stroke-width:1;stroke-linecap:butt;stroke-linejoin:round"
       id="path41"
       d="m 157.40683,270.60397 h 106.64566 v 44.81891 H 157.40683 Z" />
    <path
       style="fill:#000000;fill-rule:nonzero"
       id="path43"
       d="m 277.46194,106.3832 h 52.66141 v 209.03937 h -52.66141 z" />
    <path
       style="fill-rule:nonzero;stroke:#000000;stroke-width:2;stroke-linecap:butt;stroke-linejoin:round"
       id="path45"
       d="m 277.46194,106.3832 h 52.66141 v 209.03937 h -52.66141 z" />
    <path
       style="fill:#ffffff;fill-rule:nonzero"
       id="path47"
       d="m 290.06036,245.11285 h 27.46457 v 16.47244 h -27.46457 z" />
    <path
       style="fill-rule:nonzero;stroke:#000000;stroke-width:2;stroke-linecap:butt;stroke-linejoin:round"
       id="path49"
       d="m 290.06036,245.11285 h 27.46457 v 16.47244 h -27.46457 z" />
    <path
       style="fill:#ffffff;fill-rule:nonzero"
       id="path51"
       d="m 290.06036,208.9029 h 27.46457 v 16.47243 h -27.46457 z" />
    <path
       style="fill-rule:nonzero;stroke:#000000;stroke-width:2;stroke-linecap:butt;stroke-linejoin:round"
       id="path53"
       d="m 290.06036,208.9029 h 27.46457 v 16.47243 h -27.46457 z" />
    <path
       style="fill:#ffffff;fill-rule:nonzero"
       id="path55"
       d="m 290.06036,281.32285 h 27.46457 v 16.47244 h -27.46457 z" />
    <path
       style="fill-rule:nonzero;stroke:#000000;stroke-width:2;stroke-linecap:butt;stroke-linejoin:round"
       id="path57"
       d="m 290.06036,281.32285 h 27.46457 v 16.47244 h -27.46457 z" />
  </g>
  <g
     id="text63"
     style="font-size:32px;font-family:'DejaVu Sans', sans-serif;text-anchor:middle;fill:#ffffff"
     aria-label="[ 디스플레이 ]">
    <path
       id="path97"
       style=""
       d="m 50.0625,45.6875 h 6.625 v 2.234375 h -3.75 v 24.0625 h 3.75 v 2.234375 h -6.625 z" />
    <path
       id="path99"
       style=""
       d="M 94.734375,72.8125 V 42.671875 h 2.34375 V 72.8125 Z M 91.25,64.234375 q -2.484375,0.296875 -5.484375,0.375 Q 82.78125,64.6875 75.0625,64.6875 V 45.359375 H 89.578125 V 47.4375 h -12.1875 v 15.171875 q 11.21875,0 13.703125,-0.390625 z" />
    <path
       id="path101"
       style=""
       d="m 117.96875,50.515625 q -1.125,2.40625 -4.32813,4.84375 -3.20312,2.421875 -6.84375,3.40625 l -1.59375,-1.859375 q 5.3125,-1.109375 8.4375,-4.265625 3.14063,-3.15625 3.14063,-5.9375 v -1.59375 h 2.40625 v 1.59375 q 0,2.828125 3.17187,5.921875 3.1875,3.078125 8.43751,4.25 l -1.65625,1.859375 q -3.67188,-1.140625 -6.85938,-3.515625 -3.17188,-2.375 -4.3125,-4.703125 z m 14.01563,17.25 H 104.01562 V 65.6875 h 27.96876 z" />
    <path
       id="path103"
       style=""
       d="M 139.4375,45.359375 V 43.34375 h 21.125 v 2.015625 z m -0.375,7.8125 V 51.15625 h 4.5 l -0.28125,-4.703125 h 2.29688 l 0.32812,4.703125 h 8.1875 l 0.32813,-4.703125 h 2.29687 l -0.28125,4.703125 h 4.5 v 2.015625 z m -3.04687,4.765625 v -2.078125 h 27.96875 V 57.9375 Z m 4.60937,14.140625 v -6.8125 h 16.45313 v -2.65625 H 140.625 V 60.5625 h 18.75 v 6.71875 H 142.92188 V 70 h 17.25 v 2.078125 z" />
    <path
       id="path105"
       style=""
       d="M 191.4375,72.8125 V 42.671875 h 2.375 V 72.8125 Z M 186,72.015625 v -14.5625 h -4.28125 V 55.375 H 186 V 43.28125 h 2.29688 v 28.734375 z m -16.15625,-5.625 V 54.28125 h 8.34375 v -6.8125 h -8.34375 v -2.078125 h 10.6875 v 10.90625 h -8.35937 v 8 q 7.9375,0 10.25,-0.40625 l 0.25,1.984375 q -3.03125,0.515625 -12.82813,0.515625 z" />
    <path
       id="path107"
       style=""
       d="M 222.73438,72.8125 V 42.671875 h 2.34375 V 72.8125 Z m -13.3125,-7.609375 q -3.4375,0 -5.5625,-2.765625 -2.10938,-2.78125 -2.10938,-7.515625 0,-4.796875 2.09375,-7.53125 2.09375,-2.734375 5.57813,-2.734375 3.46875,0 5.59375,2.734375 2.125,2.734375 2.125,7.53125 0,4.765625 -2.14063,7.53125 -2.125,2.75 -5.57812,2.75 z m 0,-18.46875 q -2.40625,0 -3.90625,2.25 -1.5,2.234375 -1.5,5.9375 0,3.6875 1.51562,5.953125 1.51563,2.25 3.89063,2.25 2.35937,0 3.875,-2.265625 1.53125,-2.265625 1.53125,-5.9375 0,-3.71875 -1.5,-5.953125 -1.48438,-2.234375 -3.90625,-2.234375 z" />
    <path
       id="path109"
       style=""
       d="m 249.92188,45.6875 v 28.53125 h -6.625 v -2.234375 h 3.73437 v -24.0625 h -3.73437 V 45.6875 Z" />
  </g>
  <g
     id="text67"
     style="font-size:20px;font-family:'DejaVu Sans', sans-serif;text-anchor:middle;fill:#000000"
     aria-label="[ TEXT ]">
    <path
       id="path112"
       style=""
       d="m 49.304688,138.80469 h 4.140625 v 1.39648 h -2.34375 v 15.03906 h 2.34375 v 1.39649 h -4.140625 z" />
    <path
       id="path114"
       style=""
       d="m 61.707031,139.41992 h 12.333985 v 1.66016 H 68.865234 V 154 h -1.982421 v -12.91992 h -5.175782 z" />
    <path
       id="path116"
       style=""
       d="m 75.955078,139.41992 h 9.21875 v 1.66016 h -7.246094 v 4.3164 h 6.94336 v 1.66016 h -6.94336 v 5.2832 h 7.421875 V 154 h -9.394531 z" />
    <path
       id="path118"
       style=""
       d="m 87.908203,139.41992 h 2.119141 l 3.623047,5.41992 3.642578,-5.41992 h 2.11914 l -4.6875,7.00196 5,7.57812 h -2.11914 L 93.503906,147.79883 89.373047,154 h -2.128906 l 5.205078,-7.7832 z" />
    <path
       id="path120"
       style=""
       d="M 99.949219,139.41992 H 112.2832 v 1.66016 h -5.17578 V 154 H 105.125 v -12.91992 h -5.175781 z" />
    <path
       id="path122"
       style=""
       d="m 124.68555,138.80469 v 17.83203 h -4.14063 v -1.39649 h 2.33399 v -15.03906 h -2.33399 v -1.39648 z" />
  </g>
  <g
     id="text71"
     style="font-size:20px;font-family:'DejaVu Sans', sans-serif;text-anchor:middle;fill:#000000"
     aria-label="[ TEXT ]">
    <path
       id="path125"
       style=""
       d="m 49.304688,215.80469 h 4.140625 v 1.39648 h -2.34375 v 15.03906 h 2.34375 v 1.39649 h -4.140625 z" />
    <path
       id="path127"
       style=""
       d="m 61.707031,216.41992 h 12.333985 v 1.66016 H 68.865234 V 231 h -1.982421 v -12.91992 h -5.175782 z" />
    <path
       id="path129"
       style=""
       d="m 75.955078,216.41992 h 9.21875 v 1.66016 h -7.246094 v 4.3164 h 6.94336 v 1.66016 h -6.94336 v 5.2832 h 7.421875 V 231 h -9.394531 z" />
    <path
       id="path131"
       style=""
       d="m 87.908203,216.41992 h 2.119141 l 3.623047,5.41992 3.642578,-5.41992 h 2.11914 l -4.6875,7.00196 5,7.57812 h -2.11914 L 93.503906,224.79883 89.373047,231 h -2.128906 l 5.205078,-7.7832 z" />
    <path
       id="path133"
       style=""
       d="M 99.949219,216.41992 H 112.2832 v 1.66016 h -5.17578 V 231 H 105.125 v -12.91992 h -5.175781 z" />
    <path
       id="path135"
       style=""
       d="m 124.68555,215.80469 v 17.83203 h -4.14063 v -1.39649 h 2.33399 v -15.03906 h -2.33399 v -1.39648 z" />
  </g>
  <g
     id="text75"
     style="font-size:20px;font-family:'DejaVu Sans', sans-serif;text-anchor:middle;fill:#000000"
     aria-label="[ TEXT ]">
    <path
       id="path138"
       style=""
       d="m 49.304688,283.80469 h 4.140625 v 1.39648 h -2.34375 v 15.03906 h 2.34375 v 1.39649 h -4.140625 z" />
    <path
       id="path140"
       style=""
       d="m 61.707031,284.41992 h 12.333985 v 1.66016 H 68.865234 V 299 h -1.982421 v -12.91992 h -5.175782 z" />
    <path
       id="path142"
       style=""
       d="m 75.955078,284.41992 h 9.21875 v 1.66016 h -7.246094 v 4.3164 h 6.94336 v 1.66016 h -6.94336 v 5.2832 h 7.421875 V 299 h -9.394531 z" />
    <path
       id="path144"
       style=""
       d="m 87.908203,284.41992 h 2.119141 l 3.623047,5.41992 3.642578,-5.41992 h 2.11914 l -4.6875,7.00196 5,7.57812 h -2.11914 L 93.503906,292.79883 89.373047,299 h -2.128906 l 5.205078,-7.7832 z" />
    <path
       id="path146"
       style=""
       d="M 99.949219,284.41992 H 112.2832 v 1.66016 h -5.17578 V 299 H 105.125 v -12.91992 h -5.175781 z" />
    <path
       id="path148"
       style=""
       d="m 124.68555,283.80469 v 17.83203 h -4.14063 v -1.39649 h 2.33399 v -15.03906 h -2.33399 v -1.39648 z" />
  </g>
  <g
     id="text79"
     style="font-size:20px;font-family:'DejaVu Sans', sans-serif;text-anchor:middle;fill:#000000"
     aria-label="[ TEXT ]">
    <path
       id="path151"
       style=""
       d="m 172.30469,138.80469 h 4.14062 v 1.39648 h -2.34375 v 15.03906 h 2.34375 v 1.39649 h -4.14062 z" />
    <path
       id="path153"
       style=""
       d="m 184.70703,139.41992 h 12.33399 v 1.66016 h -5.17579 V 154 h -1.98242 v -12.91992 h -5.17578 z" />
    <path
       id="path155"
       style=""
       d="m 198.95508,139.41992 h 9.21875 v 1.66016 h -7.2461 v 4.3164 h 6.94336 v 1.66016 h -6.94336 v 5.2832 h 7.42188 V 154 h -9.39453 z" />
    <path
       id="path157"
       style=""
       d="m 210.9082,139.41992 h 2.11914 l 3.62305,5.41992 3.64258,-5.41992 h 2.11914 l -4.6875,7.00196 5,7.57812 h -2.11914 L 216.50391,147.79883 212.37305,154 h -2.12891 l 5.20508,-7.7832 z" />
    <path
       id="path159"
       style=""
       d="m 222.94922,139.41992 h 12.33398 v 1.66016 h -5.17578 V 154 H 228.125 v -12.91992 h -5.17578 z" />
    <path
       id="path161"
       style=""
       d="m 247.68555,138.80469 v 17.83203 h -4.14063 v -1.39649 h 2.33399 v -15.03906 h -2.33399 v -1.39648 z" />
  </g>
  <g
     id="text83"
     style="font-size:20px;font-family:'DejaVu Sans', sans-serif;text-anchor:middle;fill:#000000"
     aria-label="[ TEXT ]">
    <path
       id="path164"
       style=""
       d="m 172.30469,215.80469 h 4.14062 v 1.39648 h -2.34375 v 15.03906 h 2.34375 v 1.39649 h -4.14062 z" />
    <path
       id="path166"
       style=""
       d="m 184.70703,216.41992 h 12.33399 v 1.66016 h -5.17579 V 231 h -1.98242 v -12.91992 h -5.17578 z" />
    <path
       id="path168"
       style=""
       d="m 198.95508,216.41992 h 9.21875 v 1.66016 h -7.2461 v 4.3164 h 6.94336 v 1.66016 h -6.94336 v 5.2832 h 7.42188 V 231 h -9.39453 z" />
    <path
       id="path170"
       style=""
       d="m 210.9082,216.41992 h 2.11914 l 3.62305,5.41992 3.64258,-5.41992 h 2.11914 l -4.6875,7.00196 5,7.57812 h -2.11914 L 216.50391,224.79883 212.37305,231 h -2.12891 l 5.20508,-7.7832 z" />
    <path
       id="path172"
       style=""
       d="m 222.94922,216.41992 h 12.33398 v 1.66016 h -5.17578 V 231 H 228.125 v -12.91992 h -5.17578 z" />
    <path
       id="path174"
       style=""
       d="m 247.68555,215.80469 v 17.83203 h -4.14063 v -1.39649 h 2.33399 v -15.03906 h -2.33399 v -1.39648 z" />
  </g>
  <g
     id="text87"
     style="font-size:20px;font-family:'DejaVu Sans', sans-serif;text-anchor:middle;fill:#000000"
     aria-label="[ TEXT ]">
    <path
       id="path177"
       style=""
       d="m 172.30469,283.80469 h 4.14062 v 1.39648 h -2.34375 v 15.03906 h 2.34375 v 1.39649 h -4.14062 z" />
    <path
       id="path179"
       style=""
       d="m 184.70703,284.41992 h 12.33399 v 1.66016 h -5.17579 V 299 h -1.98242 v -12.91992 h -5.17578 z" />
    <path
       id="path181"
       style=""
       d="m 198.95508,284.41992 h 9.21875 v 1.66016 h -7.2461 v 4.3164 h 6.94336 v 1.66016 h -6.94336 v 5.2832 h 7.42188 V 299 h -9.39453 z" />
    <path
       id="path183"
       style=""
       d="m 210.9082,284.41992 h 2.11914 l 3.62305,5.41992 3.64258,-5.41992 h 2.11914 l -4.6875,7.00196 5,7.57812 h -2.11914 L 216.50391,292.79883 212.37305,299 h -2.12891 l 5.20508,-7.7832 z" />
    <path
       id="path185"
       style=""
       d="m 222.94922,284.41992 h 12.33398 v 1.66016 h -5.17578 V 299 H 228.125 v -12.91992 h -5.17578 z" />
    <path
       id="path187"
       style=""
       d="m 247.68555,283.80469 v 17.83203 h -4.14063 v -1.39649 h 2.33399 v -15.03906 h -2.33399 v -1.39648 z" />
  </g>
</svg>
