<?xml version="1.0" encoding="UTF-8" standalone="no"?>
<svg
   xmlns:dc="http://purl.org/dc/elements/1.1/"
   xmlns:cc="http://creativecommons.org/ns#"
   xmlns:rdf="http://www.w3.org/1999/02/22-rdf-syntax-ns#"
   xmlns:svg="http://www.w3.org/2000/svg"
   xmlns="http://www.w3.org/2000/svg"
   id="svg149"
   stroke-miterlimit="10"
   stroke-linecap="square"
   stroke="none"
   fill="none"
   viewBox="0.0 0.0 348.0 348.0"
   version="1.1">
  <metadata
     id="metadata155">
    <rdf:RDF>
      <cc:Work
         rdf:about="">
        <dc:format>image/svg+xml</dc:format>
        <dc:type
           rdf:resource="http://purl.org/dc/dcmitype/StillImage" />
      </cc:Work>
    </rdf:RDF>
  </metadata>
  <defs
     id="defs153" />
  <clipPath
     id="p.0">
    <path
       id="path2"
       clip-rule="nonzero"
       d="m0 0l348.0 0l0 348.0l-348.0 0l0 -348.0z" />
  </clipPath>
  <g
     id="g123"
     clip-path="url(#p.0)">
    <path
       style="fill:#000000;fill-opacity:0;fill-rule:nonzero"
       id="path5"
       d="M 0,0 H 348 V 348 H 0 Z" />
    <path
       style="fill:#ffffff;fill-rule:nonzero"
       id="path7"
       d="M -6,0 H 348.01575 V 347.9685 H -6 Z" />
    <path
       style="fill:#000000;fill-opacity:0;fill-rule:nonzero"
       id="path9"
       d="m 5.07874,5.7758217 h 336.9134 V 343.44512 H 5.07874 Z" />
    <path
       style="fill-rule:nonzero;stroke:#000000;stroke-width:2;stroke-linecap:butt;stroke-linejoin:round"
       id="path11"
       d="m 5.07874,5.7758217 h 336.9134 V 343.44512 H 5.07874 Z" />
    <path
       style="fill:#ffffff;fill-rule:nonzero"
       id="path13"
       d="m 282.73444,40.553925 v 0 c 0,-8.375591 6.96603,-15.165352 15.55905,-15.165352 v 0 c 4.12653,0 8.08402,1.597773 11.00192,4.441828 2.91788,2.844057 4.55713,6.701422 4.55713,10.723524 v 0 c 0,8.375595 -6.966,15.165356 -15.55905,15.165356 v 0 c -8.59302,0 -15.55905,-6.789761 -15.55905,-15.165356 z" />
    <path
       style="fill-rule:nonzero;stroke:#000000;stroke-width:2;stroke-linecap:butt;stroke-linejoin:round"
       id="path15"
       d="m 282.73444,40.553925 v 0 c 0,-8.375591 6.96603,-15.165352 15.55905,-15.165352 v 0 c 4.12653,0 8.08402,1.597773 11.00192,4.441828 2.91788,2.844057 4.55713,6.701422 4.55713,10.723524 v 0 c 0,8.375595 -6.966,15.165356 -15.55905,15.165356 v 0 c -8.59302,0 -15.55905,-6.789761 -15.55905,-15.165356 z" />
    <path
       style="fill:#000000;fill-opacity:0;fill-rule:nonzero"
       id="path17"
       d="m 110.60368,279.34647 h 97.92126 v 41.88974 h -97.92126 z" />
    <path
       style="fill-rule:nonzero;stroke:#000000;stroke-width:2;stroke-linecap:butt;stroke-linejoin:round"
       id="path19"
       d="m 110.60368,279.34647 h 97.92126 v 41.88974 h -97.92126 z" />
    <path
       style="fill-rule:nonzero;stroke:#000000;stroke-width:2;stroke-linecap:butt;stroke-linejoin:round"
       id="path21"
       d="m 50.50525,84.80578 v 0 c 0,-5.566338 4.512405,-10.078743 10.078739,-10.078743 v 0 c 2.67305,0 5.236614,1.061859 7.126751,2.951996 1.890129,1.890129 2.951988,4.453697 2.951988,7.126747 v 0 c 0,5.56633 -4.512405,10.078735 -10.078739,10.078735 v 0 c -5.566334,0 -10.078739,-4.512406 -10.078739,-10.078735 z" />
    <path
       style="fill:#000000;fill-rule:nonzero"
       id="path23"
       d="m 56.537144,88.511055 4.047245,-7.401573 4.047241,7.401573 z" />
    <path
       style="fill-rule:nonzero;stroke:#000000;stroke-width:2;stroke-linecap:butt;stroke-linejoin:round"
       id="path25"
       d="m 56.537144,88.511055 4.047245,-7.401573 4.047241,7.401573 z" />
    <path
       style="fill:#ffffff;fill-rule:nonzero"
       id="path27"
       d="m 99.99606,84.80578 v 0 c 0,-5.566338 4.51241,-10.078743 10.07874,-10.078743 v 0 c 2.67305,0 5.23661,1.061859 7.12674,2.951996 1.89014,1.890129 2.952,4.453697 2.952,7.126747 v 0 c 0,5.56633 -4.51241,10.078735 -10.07874,10.078735 v 0 c -5.56633,0 -10.07874,-4.512406 -10.07874,-10.078735 z" />
    <path
       style="fill-rule:nonzero;stroke:#000000;stroke-width:2;stroke-linecap:butt;stroke-linejoin:round"
       id="path29"
       d="m 99.99606,84.80578 v 0 c 0,-5.566338 4.51241,-10.078743 10.07874,-10.078743 v 0 c 2.67305,0 5.23661,1.061859 7.12674,2.951996 1.89014,1.890129 2.952,4.453697 2.952,7.126747 v 0 c 0,5.56633 -4.51241,10.078735 -10.07874,10.078735 v 0 c -5.56633,0 -10.07874,-4.512406 -10.07874,-10.078735 z" />
    <path
       style="fill:#000000;fill-rule:nonzero"
       id="path31"
       d="m 106.02796,88.511055 4.04724,-7.401573 4.04724,7.401573 z" />
    <path
       style="fill-rule:nonzero;stroke:#000000;stroke-width:2;stroke-linecap:butt;stroke-linejoin:round"
       id="path33"
       d="m 106.02796,88.511055 4.04724,-7.401573 4.04724,7.401573 z" />
    <path
       style="fill:#ffffff;fill-rule:nonzero"
       id="path35"
       d="m 149.48557,84.80578 v 0 c 0,-5.566338 4.51241,-10.078743 10.07873,-10.078743 v 0 c 2.67305,0 5.23662,1.061859 7.12676,2.951996 1.89012,1.890129 2.952,4.453697 2.952,7.126747 v 0 c 0,5.56633 -4.51241,10.078735 -10.07876,10.078735 v 0 c -5.56633,0 -10.07873,-4.512406 -10.07873,-10.078735 z" />
    <path
       style="fill-rule:nonzero;stroke:#000000;stroke-width:2;stroke-linecap:butt;stroke-linejoin:round"
       id="path37"
       d="m 149.48557,84.80578 v 0 c 0,-5.566338 4.51241,-10.078743 10.07873,-10.078743 v 0 c 2.67305,0 5.23662,1.061859 7.12676,2.951996 1.89012,1.890129 2.952,4.453697 2.952,7.126747 v 0 c 0,5.56633 -4.51241,10.078735 -10.07876,10.078735 v 0 c -5.56633,0 -10.07873,-4.512406 -10.07873,-10.078735 z" />
    <path
       style="fill:#000000;fill-rule:nonzero"
       id="path39"
       d="m 155.51746,88.511055 4.04724,-7.401573 4.04726,7.401573 z" />
    <path
       style="fill-rule:nonzero;stroke:#000000;stroke-width:2;stroke-linecap:butt;stroke-linejoin:round"
       id="path41"
       d="m 155.51746,88.511055 4.04724,-7.401573 4.04726,7.401573 z" />
    <path
       style="fill:#ffffff;fill-rule:nonzero"
       id="path43"
       d="m 198.89108,84.80578 v 0 c 0,-5.566338 4.51241,-10.078743 10.07873,-10.078743 v 0 c 2.67305,0 5.23662,1.061859 7.12674,2.951996 1.89014,1.890129 2.952,4.453697 2.952,7.126747 v 0 c 0,5.56633 -4.51241,10.078735 -10.07873,10.078735 v 0 c -5.56633,0 -10.07874,-4.512406 -10.07874,-10.078735 z" />
    <path
       style="fill-rule:nonzero;stroke:#000000;stroke-width:2;stroke-linecap:butt;stroke-linejoin:round"
       id="path45"
       d="m 198.89108,84.80578 v 0 c 0,-5.566338 4.51241,-10.078743 10.07873,-10.078743 v 0 c 2.67305,0 5.23662,1.061859 7.12674,2.951996 1.89014,1.890129 2.952,4.453697 2.952,7.126747 v 0 c 0,5.56633 -4.51241,10.078735 -10.07873,10.078735 v 0 c -5.56633,0 -10.07874,-4.512406 -10.07874,-10.078735 z" />
    <path
       style="fill:#000000;fill-rule:nonzero"
       id="path47"
       d="m 204.92297,88.511055 4.04724,-7.401573 4.04724,7.401573 z" />
    <path
       style="fill-rule:nonzero;stroke:#000000;stroke-width:2;stroke-linecap:butt;stroke-linejoin:round"
       id="path49"
       d="m 204.92297,88.511055 4.04724,-7.401573 4.04724,7.401573 z" />
    <path
       style="fill:#ffffff;fill-rule:nonzero"
       id="path51"
       d="m 248.46588,84.80578 v 0 c 0,-5.566338 4.51241,-10.078743 10.07874,-10.078743 v 0 c 2.67306,0 5.23663,1.061859 7.12673,2.951996 1.89014,1.890129 2.952,4.453697 2.952,7.126747 v 0 c 0,5.56633 -4.51239,10.078735 -10.07873,10.078735 v 0 c -5.56633,0 -10.07874,-4.512406 -10.07874,-10.078735 z" />
    <path
       style="fill-rule:nonzero;stroke:#000000;stroke-width:2;stroke-linecap:butt;stroke-linejoin:round"
       id="path53"
       d="m 248.46588,84.80578 v 0 c 0,-5.566338 4.51241,-10.078743 10.07874,-10.078743 v 0 c 2.67306,0 5.23663,1.061859 7.12673,2.951996 1.89014,1.890129 2.952,4.453697 2.952,7.126747 v 0 c 0,5.56633 -4.51239,10.078735 -10.07873,10.078735 v 0 c -5.56633,0 -10.07874,-4.512406 -10.07874,-10.078735 z" />
    <path
       style="fill:#000000;fill-rule:nonzero"
       id="path55"
       d="m 254.49777,88.511055 4.04724,-7.401573 4.04724,7.401573 z" />
    <path
       style="fill-rule:nonzero;stroke:#000000;stroke-width:2;stroke-linecap:butt;stroke-linejoin:round"
       id="path57"
       d="m 254.49777,88.511055 4.04724,-7.401573 4.04724,7.401573 z" />
    <path
       style="fill:#ffffff;fill-rule:nonzero"
       id="path59"
       d="m 50.503937,259.30185 v 0 c 0,5.56631 4.512405,10.07873 10.078739,10.07873 v 0 c 2.67305,0 5.236614,-1.06185 7.126751,-2.95199 1.890129,-1.89014 2.951988,-4.45371 2.951988,-7.12674 v 0 c 0,-5.56635 -4.512405,-10.07875 -10.078739,-10.07875 v 0 c -5.566334,0 -10.078739,4.5124 -10.078739,10.07875 z" />
    <path
       style="fill-rule:nonzero;stroke:#000000;stroke-width:2;stroke-linecap:butt;stroke-linejoin:round"
       id="path61"
       d="m 50.503937,259.30185 v 0 c 0,5.56631 4.512405,10.07873 10.078739,10.07873 v 0 c 2.67305,0 5.236614,-1.06185 7.126751,-2.95199 1.890129,-1.89014 2.951988,-4.45371 2.951988,-7.12674 v 0 c 0,-5.56635 -4.512405,-10.07875 -10.078739,-10.07875 v 0 c -5.566334,0 -10.078739,4.5124 -10.078739,10.07875 z" />
    <path
       style="fill:#000000;fill-rule:nonzero"
       id="path63"
       d="m 56.53583,255.59656 4.047245,7.40158 4.047241,-7.40158 z" />
    <path
       style="fill-rule:nonzero;stroke:#000000;stroke-width:2;stroke-linecap:butt;stroke-linejoin:round"
       id="path65"
       d="m 56.53583,255.59656 4.047245,7.40158 4.047241,-7.40158 z" />
    <path
       style="fill:#ffffff;fill-rule:nonzero"
       id="path67"
       d="m 99.99475,259.30185 v 0 c 0,5.56631 4.51241,10.07873 10.07874,10.07873 v 0 c 2.67305,0 5.23661,-1.06185 7.12674,-2.95199 1.89014,-1.89014 2.952,-4.45371 2.952,-7.12674 v 0 c 0,-5.56635 -4.51241,-10.07875 -10.07874,-10.07875 v 0 c -5.56633,0 -10.07874,4.5124 -10.07874,10.07875 z" />
    <path
       style="fill-rule:nonzero;stroke:#000000;stroke-width:2;stroke-linecap:butt;stroke-linejoin:round"
       id="path69"
       d="m 99.99475,259.30185 v 0 c 0,5.56631 4.51241,10.07873 10.07874,10.07873 v 0 c 2.67305,0 5.23661,-1.06185 7.12674,-2.95199 1.89014,-1.89014 2.952,-4.45371 2.952,-7.12674 v 0 c 0,-5.56635 -4.51241,-10.07875 -10.07874,-10.07875 v 0 c -5.56633,0 -10.07874,4.5124 -10.07874,10.07875 z" />
    <path
       style="fill:#000000;fill-rule:nonzero"
       id="path71"
       d="m 106.02665,255.59656 4.04724,7.40158 4.04724,-7.40158 z" />
    <path
       style="fill-rule:nonzero;stroke:#000000;stroke-width:2;stroke-linecap:butt;stroke-linejoin:round"
       id="path73"
       d="m 106.02665,255.59656 4.04724,7.40158 4.04724,-7.40158 z" />
    <path
       style="fill:#ffffff;fill-rule:nonzero"
       id="path75"
       d="m 149.48425,259.30185 v 0 c 0,5.56631 4.51241,10.07873 10.07873,10.07873 v 0 c 2.67305,0 5.23662,-1.06185 7.12676,-2.95199 1.89012,-1.89014 2.952,-4.45371 2.952,-7.12674 v 0 c 0,-5.56635 -4.51241,-10.07875 -10.07876,-10.07875 v 0 c -5.56633,0 -10.07873,4.5124 -10.07873,10.07875 z" />
    <path
       style="fill-rule:nonzero;stroke:#000000;stroke-width:2;stroke-linecap:butt;stroke-linejoin:round"
       id="path77"
       d="m 149.48425,259.30185 v 0 c 0,5.56631 4.51241,10.07873 10.07873,10.07873 v 0 c 2.67305,0 5.23662,-1.06185 7.12676,-2.95199 1.89012,-1.89014 2.952,-4.45371 2.952,-7.12674 v 0 c 0,-5.56635 -4.51241,-10.07875 -10.07876,-10.07875 v 0 c -5.56633,0 -10.07873,4.5124 -10.07873,10.07875 z" />
    <path
       style="fill:#000000;fill-rule:nonzero"
       id="path79"
       d="m 155.51614,255.59656 4.04724,7.40158 4.04726,-7.40158 z" />
    <path
       style="fill-rule:nonzero;stroke:#000000;stroke-width:2;stroke-linecap:butt;stroke-linejoin:round"
       id="path81"
       d="m 155.51614,255.59656 4.04724,7.40158 4.04726,-7.40158 z" />
    <path
       style="fill:#000000;fill-rule:nonzero"
       id="path83"
       d="M 29.517061,98.30446 H 289.61154 V 245.29659 H 29.517061 Z" />
    <path
       style="fill-rule:nonzero;stroke:#000000;stroke-width:2;stroke-linecap:butt;stroke-linejoin:round"
       id="path85"
       d="M 29.517061,98.30446 H 289.61154 V 245.29659 H 29.517061 Z" />
    <path
       style="fill:#ffffff;fill-rule:nonzero"
       id="path87"
       d="m 198.88977,259.30185 v 0 c 0,5.56631 4.51241,10.07873 10.07873,10.07873 v 0 c 2.67305,0 5.23662,-1.06185 7.12674,-2.95199 1.89014,-1.89014 2.952,-4.45371 2.952,-7.12674 v 0 c 0,-5.56635 -4.51241,-10.07875 -10.07873,-10.07875 v 0 c -5.56633,0 -10.07874,4.5124 -10.07874,10.07875 z" />
    <path
       style="fill-rule:nonzero;stroke:#000000;stroke-width:2;stroke-linecap:butt;stroke-linejoin:round"
       id="path89"
       d="m 198.88977,259.30185 v 0 c 0,5.56631 4.51241,10.07873 10.07873,10.07873 v 0 c 2.67305,0 5.23662,-1.06185 7.12674,-2.95199 1.89014,-1.89014 2.952,-4.45371 2.952,-7.12674 v 0 c 0,-5.56635 -4.51241,-10.07875 -10.07873,-10.07875 v 0 c -5.56633,0 -10.07874,4.5124 -10.07874,10.07875 z" />
    <path
       style="fill:#000000;fill-rule:nonzero"
       id="path91"
       d="m 204.92166,255.59656 4.04724,7.40158 4.04724,-7.40158 z" />
    <path
       style="fill-rule:nonzero;stroke:#000000;stroke-width:2;stroke-linecap:butt;stroke-linejoin:round"
       id="path93"
       d="m 204.92166,255.59656 4.04724,7.40158 4.04724,-7.40158 z" />
    <path
       style="fill:#ffffff;fill-rule:nonzero"
       id="path95"
       d="m 248.46457,259.30185 v 0 c 0,5.56631 4.51241,10.07873 10.07874,10.07873 v 0 c 2.67306,0 5.23663,-1.06185 7.12673,-2.95199 1.89014,-1.89014 2.952,-4.45371 2.952,-7.12674 v 0 c 0,-5.56635 -4.51239,-10.07875 -10.07873,-10.07875 v 0 c -5.56633,0 -10.07874,4.5124 -10.07874,10.07875 z" />
    <path
       style="fill-rule:nonzero;stroke:#000000;stroke-width:2;stroke-linecap:butt;stroke-linejoin:round"
       id="path97"
       d="m 248.46457,259.30185 v 0 c 0,5.56631 4.51241,10.07873 10.07874,10.07873 v 0 c 2.67306,0 5.23663,-1.06185 7.12673,-2.95199 1.89014,-1.89014 2.952,-4.45371 2.952,-7.12674 v 0 c 0,-5.56635 -4.51239,-10.07875 -10.07873,-10.07875 v 0 c -5.56633,0 -10.07874,4.5124 -10.07874,10.07875 z" />
    <path
       style="fill:#000000;fill-rule:nonzero"
       id="path99"
       d="m 254.49646,255.59656 4.04724,7.40158 4.04724,-7.40158 z" />
    <path
       style="fill-rule:nonzero;stroke:#000000;stroke-width:2;stroke-linecap:butt;stroke-linejoin:round"
       id="path101"
       d="m 254.49646,255.59656 4.04724,7.40158 4.04724,-7.40158 z" />
    <path
       style="fill:#ffffff;fill-rule:nonzero"
       id="path103"
       d="m 35.627296,105.07874 h 49.5748 v 132.56693 h -49.5748 z" />
    <path
       style="fill-rule:nonzero;stroke:#000000;stroke-width:1;stroke-linecap:butt;stroke-linejoin:round"
       id="path105"
       d="m 35.627296,105.07874 h 49.5748 v 132.56693 h -49.5748 z" />
    <path
       style="fill:#ffffff;fill-rule:nonzero"
       id="path107"
       d="m 85.20143,105.07874 h 49.5748 v 132.56693 h -49.5748 z" />
    <path
       style="fill-rule:nonzero;stroke:#000000;stroke-width:1;stroke-linecap:butt;stroke-linejoin:round"
       id="path109"
       d="m 85.20143,105.07874 h 49.5748 v 132.56693 h -49.5748 z" />
    <path
       style="fill:#ffffff;fill-rule:nonzero"
       id="path111"
       d="m 134.77818,105.07874 h 49.5748 v 132.56693 h -49.5748 z" />
    <path
       style="fill-rule:nonzero;stroke:#000000;stroke-width:1;stroke-linecap:butt;stroke-linejoin:round"
       id="path113"
       d="m 134.77818,105.07874 h 49.5748 v 132.56693 h -49.5748 z" />
    <path
       style="fill:#ffffff;fill-rule:nonzero"
       id="path115"
       d="m 184.35233,105.07874 h 49.5748 v 132.56693 h -49.5748 z" />
    <path
       style="fill-rule:nonzero;stroke:#000000;stroke-width:1;stroke-linecap:butt;stroke-linejoin:round"
       id="path117"
       d="m 184.35233,105.07874 h 49.5748 v 132.56693 h -49.5748 z" />
    <path
       style="fill:#ffffff;fill-rule:nonzero"
       id="path119"
       d="m 233.92645,105.07874 h 49.5748 v 132.56693 h -49.5748 z" />
    <path
       style="fill-rule:nonzero;stroke:#000000;stroke-width:1;stroke-linecap:butt;stroke-linejoin:round"
       id="path121"
       d="m 233.92645,105.07874 h 49.5748 v 132.56693 h -49.5748 z" />
  </g>
  <g
     id="text127"
     style="font-size:20px;font-family:sans-serif;text-anchor:middle;fill:#000000"
     aria-label="[MISSING: PasswordComponent/button_submit]">
    <path
       id="path157"
       style="fill:#ff0000"
       d="m -76.683594,291.80469 h 4.140625 v 1.39648 h -2.34375 v 15.03906 h 2.34375 v 1.39649 h -4.140625 z" />
    <path
       id="path159"
       style="fill:#ff0000"
       d="m -68.626953,292.41992 h 2.939453 l 3.720703,9.92188 3.740234,-9.92188 h 2.939454 V 307 h -1.923829 v -12.80273 l -3.759765,10 h -1.982422 l -3.759766,-10 V 307 h -1.914062 z" />
    <path
       id="path161"
       style="fill:#ff0000"
       d="m -51.361328,292.41992 h 1.972656 V 307 h -1.972656 z" />
    <path
       id="path163"
       style="fill:#ff0000"
       d="m -36.722656,292.89844 v 1.92383 q -1.123047,-0.53711 -2.119141,-0.80079 -0.996094,-0.26367 -1.923828,-0.26367 -1.611328,0 -2.490234,0.625 -0.869141,0.625 -0.869141,1.77735 0,0.96679 0.576172,1.46484 0.585937,0.48828 2.207031,0.79102 l 1.191406,0.24414 q 2.207032,0.41992 3.251953,1.48437 1.054688,1.05469 1.054688,2.83203 0,2.11914 -1.425781,3.21289 -1.416016,1.09375 -4.160157,1.09375 -1.035156,0 -2.207031,-0.23437 -1.162109,-0.23438 -2.412109,-0.69336 v -2.03125 q 1.201172,0.67383 2.353515,1.01562 1.152344,0.3418 2.265625,0.3418 1.689454,0 2.607422,-0.66406 0.917969,-0.66406 0.917969,-1.89453 0,-1.07422 -0.664062,-1.67969 -0.654297,-0.60547 -2.158204,-0.9082 l -1.201171,-0.23438 q -2.207032,-0.43945 -3.19336,-1.37695 -0.986328,-0.9375 -0.986328,-2.60742 0,-1.9336 1.357422,-3.04688 1.367187,-1.11328 3.759766,-1.11328 1.02539,0 2.089843,0.18555 1.064453,0.18554 2.177735,0.55664 z" />
    <path
       id="path165"
       style="fill:#ff0000"
       d="m -24.027344,292.89844 v 1.92383 q -1.123047,-0.53711 -2.11914,-0.80079 -0.996094,-0.26367 -1.923829,-0.26367 -1.611328,0 -2.490234,0.625 -0.869141,0.625 -0.869141,1.77735 0,0.96679 0.576172,1.46484 0.585938,0.48828 2.207032,0.79102 l 1.191406,0.24414 q 2.207031,0.41992 3.251953,1.48437 1.054687,1.05469 1.054687,2.83203 0,2.11914 -1.425781,3.21289 -1.416015,1.09375 -4.160156,1.09375 -1.035156,0 -2.207031,-0.23437 -1.16211,-0.23438 -2.41211,-0.69336 v -2.03125 q 1.201172,0.67383 2.353516,1.01562 1.152344,0.3418 2.265625,0.3418 1.689453,0 2.607422,-0.66406 0.917969,-0.66406 0.917969,-1.89453 0,-1.07422 -0.664063,-1.67969 -0.654297,-0.60547 -2.158203,-0.9082 l -1.201172,-0.23438 q -2.207031,-0.43945 -3.193359,-1.37695 -0.986328,-0.9375 -0.986328,-2.60742 0,-1.9336 1.357421,-3.04688 1.367188,-1.11328 3.759766,-1.11328 1.025391,0 2.089844,0.18555 1.064453,0.18554 2.177734,0.55664 z" />
    <path
       id="path167"
       style="fill:#ff0000"
       d="m -20.072266,292.41992 h 1.972657 V 307 h -1.972657 z" />
    <path
       id="path169"
       style="fill:#ff0000"
       d="m -14.173828,292.41992 h 2.65625 l 6.4648436,12.19727 v -12.19727 h 1.9140625 V 307 h -2.65625 L -12.259766,294.80273 V 307 h -1.914062 z" />
    <path
       id="path171"
       style="fill:#ff0000"
       d="m 10.728516,304.91992 v -3.91601 H 7.5058594 v -1.6211 h 5.1757816 v 6.25977 q -1.142579,0.81055 -2.519532,1.23047 -1.3769528,0.41015 -2.9394527,0.41015 -3.4179688,0 -5.3515625,-1.99218 -1.92382818,-2.00196 -1.92382818,-5.56641 0,-3.57422 1.92382818,-5.56641 1.9335937,-2.00195 5.3515625,-2.00195 1.4257812,0 2.7050781,0.35156 1.2890626,0.35157 2.3730466,1.03516 v 2.09961 q -1.09375,-0.92774 -2.3242185,-1.39649 -1.2304688,-0.46875 -2.5878906,-0.46875 -2.6757813,0 -4.0234375,1.49414 -1.3378907,1.49415 -1.3378907,4.45313 0,2.94922 1.3378907,4.44336 1.3476562,1.49414 4.0234375,1.49414 1.0449218,0 1.8652343,-0.17578 0.8203128,-0.18555 1.4746098,-0.56641 z" />
    <path
       id="path173"
       style="fill:#ff0000"
       d="m 16.675781,304.51953 h 2.060547 V 307 h -2.060547 z m 0,-7.86133 h 2.060547 v 2.48047 h -2.060547 z" />
    <path
       id="path175"
       style="fill:#ff0000"
       d="m 31.392578,294.04102 v 5.47851 h 2.480469 q 1.376953,0 2.128906,-0.71289 0.751953,-0.71289 0.751953,-2.03125 0,-1.30859 -0.751953,-2.02148 -0.751953,-0.71289 -2.128906,-0.71289 z m -1.972656,-1.6211 h 4.453125 q 2.451172,0 3.701172,1.11328 1.259765,1.10352 1.259765,3.24219 0,2.1582 -1.259765,3.26172 -1.25,1.10352 -3.701172,1.10352 H 31.392578 V 307 h -1.972656 z" />
    <path
       id="path177"
       style="fill:#ff0000"
       d="m 45.484375,301.50195 q -2.177734,0 -3.017578,0.49805 -0.839844,0.49805 -0.839844,1.69922 0,0.95703 0.625,1.52344 0.634766,0.55664 1.71875,0.55664 1.494141,0 2.392578,-1.05469 0.908203,-1.06445 0.908203,-2.82227 v -0.40039 z m 3.583984,-0.74218 V 307 h -1.796875 v -1.66016 q -0.615234,0.9961 -1.533203,1.47461 -0.917968,0.46875 -2.246093,0.46875 -1.679688,0 -2.675782,-0.9375 -0.986328,-0.94726 -0.986328,-2.52929 0,-1.84571 1.230469,-2.78321 1.240234,-0.9375 3.691406,-0.9375 h 2.519531 v -0.17578 q 0,-1.24023 -0.820312,-1.91406 -0.810547,-0.68359 -2.285156,-0.68359 -0.9375,0 -1.826172,0.22461 -0.888672,0.2246 -1.708985,0.67382 v -1.66015 q 0.986329,-0.38086 1.914063,-0.56641 0.927734,-0.19531 1.806641,-0.19531 2.373046,0 3.544921,1.23047 1.171875,1.23047 1.171875,3.73047 z" />
    <path
       id="path179"
       style="fill:#ff0000"
       d="m 59.751953,296.38477 v 1.69921 q -0.761719,-0.39062 -1.582031,-0.58593 -0.820313,-0.19532 -1.699219,-0.19532 -1.33789,0 -2.011719,0.41016 -0.664062,0.41016 -0.664062,1.23047 0,0.625 0.478516,0.98633 0.478515,0.35156 1.923828,0.67383 l 0.615234,0.13671 q 1.914063,0.41016 2.714844,1.16211 0.810547,0.74219 0.810547,2.08008 0,1.52344 -1.210938,2.41211 -1.201172,0.88867 -3.310547,0.88867 -0.878906,0 -1.835937,-0.17578 -0.947266,-0.16601 -2.001953,-0.50781 v -1.85547 q 0.996093,0.51758 1.96289,0.78125 0.966797,0.25391 1.914063,0.25391 1.269531,0 1.953125,-0.42969 0.683594,-0.43945 0.683594,-1.23047 0,-0.73242 -0.498047,-1.12305 -0.488282,-0.39062 -2.158203,-0.75195 l -0.625,-0.14648 q -1.669922,-0.35157 -2.41211,-1.07422 -0.742187,-0.73242 -0.742187,-2.00196 0,-1.54296 1.09375,-2.38281 1.09375,-0.83984 3.105468,-0.83984 0.996094,0 1.875,0.14648 0.878907,0.14649 1.621094,0.43946 z" />
    <path
       id="path181"
       style="fill:#ff0000"
       d="m 70.181641,296.38477 v 1.69921 q -0.761719,-0.39062 -1.582032,-0.58593 -0.820312,-0.19532 -1.699218,-0.19532 -1.337891,0 -2.011719,0.41016 -0.664063,0.41016 -0.664063,1.23047 0,0.625 0.478516,0.98633 0.478516,0.35156 1.923828,0.67383 l 0.615235,0.13671 q 1.914062,0.41016 2.714843,1.16211 0.810547,0.74219 0.810547,2.08008 0,1.52344 -1.210937,2.41211 -1.201172,0.88867 -3.310547,0.88867 -0.878906,0 -1.835938,-0.17578 -0.947265,-0.16601 -2.001953,-0.50781 v -1.85547 q 0.996094,0.51758 1.962891,0.78125 0.966797,0.25391 1.914062,0.25391 1.269532,0 1.953125,-0.42969 0.683594,-0.43945 0.683594,-1.23047 0,-0.73242 -0.498047,-1.12305 -0.488281,-0.39062 -2.158203,-0.75195 l -0.625,-0.14648 q -1.669922,-0.35157 -2.412109,-1.07422 -0.742188,-0.73242 -0.742188,-2.00196 0,-1.54296 1.09375,-2.38281 1.09375,-0.83984 3.105469,-0.83984 0.996094,0 1.875,0.14648 0.878906,0.14649 1.621094,0.43946 z" />
    <path
       id="path183"
       style="fill:#ff0000"
       d="m 72.59375,296.0625 h 1.796875 l 2.246094,8.53516 2.236328,-8.53516 h 2.119141 l 2.246093,8.53516 2.236328,-8.53516 h 1.796875 L 84.410156,307 h -2.11914 L 79.9375,298.03516 77.574219,307 h -2.119141 z" />
    <path
       id="path185"
       style="fill:#ff0000"
       d="m 94.244141,297.32227 q -1.445313,0 -2.285157,1.13281 -0.839843,1.12305 -0.839843,3.08594 0,1.96289 0.830078,3.0957 0.839844,1.12305 2.294922,1.12305 1.435547,0 2.27539,-1.13282 0.839844,-1.13281 0.839844,-3.08593 0,-1.94336 -0.839844,-3.07618 -0.839843,-1.14257 -2.27539,-1.14257 z m 0,-1.52344 q 2.34375,0 3.68164,1.52344 1.337891,1.52343 1.337891,4.21875 0,2.68554 -1.337891,4.21875 -1.33789,1.52343 -3.68164,1.52343 -2.353516,0 -3.691407,-1.52343 -1.328125,-1.53321 -1.328125,-4.21875 0,-2.69532 1.328125,-4.21875 1.337891,-1.52344 3.691407,-1.52344 z" />
    <path
       id="path187"
       style="fill:#ff0000"
       d="m 108.57031,297.74219 q -0.30273,-0.17578 -0.66406,-0.25391 -0.35156,-0.0879 -0.78125,-0.0879 -1.52344,0 -2.34375,0.99609 -0.81055,0.98633 -0.81055,2.8418 V 307 h -1.80664 v -10.9375 h 1.80664 v 1.69922 q 0.56641,-0.99609 1.47461,-1.47461 0.90821,-0.48828 2.20703,-0.48828 0.18555,0 0.41016,0.0293 0.22461,0.0195 0.49805,0.0684 z" />
    <path
       id="path189"
       style="fill:#ff0000"
       d="m 117.32031,297.72266 v -5.91797 h 1.79688 V 307 h -1.79688 v -1.64062 q -0.5664,0.97656 -1.43554,1.45507 -0.85938,0.46875 -2.07032,0.46875 -1.98242,0 -3.23242,-1.58203 -1.24023,-1.58203 -1.24023,-4.16015 0,-2.57813 1.24023,-4.16016 1.25,-1.58203 3.23242,-1.58203 1.21094,0 2.07032,0.47851 0.86914,0.46875 1.43554,1.44532 z m -6.12304,3.81836 q 0,1.98242 0.81054,3.11523 0.82031,1.12305 2.2461,1.12305 1.42578,0 2.24609,-1.12305 0.82031,-1.13281 0.82031,-3.11523 0,-1.98243 -0.82031,-3.10547 -0.82031,-1.13282 -2.24609,-1.13282 -1.42579,0 -2.2461,1.13282 -0.81054,1.12304 -0.81054,3.10547 z" />
    <path
       id="path191"
       style="fill:#ff0000"
       d="m 133.81445,293.54297 v 2.08008 q -0.99609,-0.92774 -2.1289,-1.38672 -1.12305,-0.45899 -2.39258,-0.45899 -2.5,0 -3.82813,1.53321 -1.32812,1.52343 -1.32812,4.41406 0,2.88086 1.32812,4.41406 1.32813,1.52344 3.82813,1.52344 1.26953,0 2.39258,-0.45898 1.13281,-0.45899 2.1289,-1.38672 v 2.06054 q -1.03515,0.70313 -2.19726,1.05469 -1.15235,0.35156 -2.44141,0.35156 -3.31055,0 -5.21484,-2.02148 -1.9043,-2.03125 -1.9043,-5.53711 0,-3.51563 1.9043,-5.53711 1.90429,-2.03125 5.21484,-2.03125 1.3086,0 2.46094,0.35156 1.16211,0.3418 2.17773,1.03516 z" />
    <path
       id="path193"
       style="fill:#ff0000"
       d="m 141.04102,297.32227 q -1.44532,0 -2.28516,1.13281 -0.83984,1.12305 -0.83984,3.08594 0,1.96289 0.83007,3.0957 0.83985,1.12305 2.29493,1.12305 1.43554,0 2.27539,-1.13282 0.83984,-1.13281 0.83984,-3.08593 0,-1.94336 -0.83984,-3.07618 -0.83985,-1.14257 -2.27539,-1.14257 z m 0,-1.52344 q 2.34375,0 3.68164,1.52344 1.33789,1.52343 1.33789,4.21875 0,2.68554 -1.33789,4.21875 -1.33789,1.52343 -3.68164,1.52343 -2.35352,0 -3.69141,-1.52343 -1.32813,-1.53321 -1.32813,-4.21875 0,-2.69532 1.32813,-4.21875 1.33789,-1.52344 3.69141,-1.52344 z" />
    <path
       id="path195"
       style="fill:#ff0000"
       d="m 157.54492,298.16211 q 0.67383,-1.21094 1.61133,-1.78711 0.9375,-0.57617 2.20703,-0.57617 1.70899,0 2.63672,1.20117 0.92773,1.19141 0.92773,3.39844 V 307 h -1.80664 v -6.54297 q 0,-1.57226 -0.55664,-2.33398 -0.55664,-0.76172 -1.69922,-0.76172 -1.39648,0 -2.20703,0.92773 -0.81054,0.92774 -0.81054,2.5293 V 307 h -1.80664 v -6.54297 q 0,-1.58203 -0.55664,-2.33398 -0.55665,-0.76172 -1.71875,-0.76172 -1.37696,0 -2.1875,0.9375 -0.81055,0.92773 -0.81055,2.51953 V 307 h -1.80664 v -10.9375 h 1.80664 v 1.69922 q 0.61523,-1.00586 1.47461,-1.48438 0.85937,-0.47851 2.04101,-0.47851 1.19141,0 2.02149,0.60547 0.83984,0.60547 1.24023,1.75781 z" />
    <path
       id="path197"
       style="fill:#ff0000"
       d="m 170.25977,305.35938 v 5.80078 h -1.80664 V 296.0625 h 1.80664 v 1.66016 q 0.5664,-0.97657 1.42578,-1.44532 0.86914,-0.47851 2.07031,-0.47851 1.99219,0 3.23242,1.58203 1.25,1.58203 1.25,4.16016 0,2.57812 -1.25,4.16015 -1.24023,1.58203 -3.23242,1.58203 -1.20117,0 -2.07031,-0.46875 -0.85938,-0.47851 -1.42578,-1.45507 z m 6.11328,-3.81836 q 0,-1.98243 -0.82032,-3.10547 -0.81054,-1.13282 -2.23632,-1.13282 -1.42578,0 -2.2461,1.13282 -0.81054,1.12304 -0.81054,3.10547 0,1.98242 0.81054,3.11523 0.82032,1.12305 2.2461,1.12305 1.42578,0 2.23632,-1.12305 0.82032,-1.13281 0.82032,-3.11523 z" />
    <path
       id="path199"
       style="fill:#ff0000"
       d="m 185.45508,297.32227 q -1.44531,0 -2.28516,1.13281 -0.83984,1.12305 -0.83984,3.08594 0,1.96289 0.83008,3.0957 0.83984,1.12305 2.29492,1.12305 1.43555,0 2.27539,-1.13282 0.83984,-1.13281 0.83984,-3.08593 0,-1.94336 -0.83984,-3.07618 -0.83984,-1.14257 -2.27539,-1.14257 z m 0,-1.52344 q 2.34375,0 3.68164,1.52344 1.33789,1.52343 1.33789,4.21875 0,2.68554 -1.33789,4.21875 -1.33789,1.52343 -3.68164,1.52343 -2.35352,0 -3.69141,-1.52343 -1.32812,-1.53321 -1.32812,-4.21875 0,-2.69532 1.32812,-4.21875 1.33789,-1.52344 3.69141,-1.52344 z" />
    <path
       id="path201"
       style="fill:#ff0000"
       d="M 202.53516,300.39844 V 307 h -1.79688 v -6.54297 q 0,-1.55273 -0.60547,-2.32422 -0.60547,-0.77148 -1.8164,-0.77148 -1.45508,0 -2.29493,0.92773 -0.83984,0.92774 -0.83984,2.5293 V 307 H 193.375 v -10.9375 h 1.80664 v 1.69922 q 0.64453,-0.98633 1.51367,-1.47461 0.87891,-0.48828 2.02149,-0.48828 1.88476,0 2.85156,1.17187 0.9668,1.16211 0.9668,3.42774 z" />
    <path
       id="path203"
       style="fill:#ff0000"
       d="m 215.49414,301.08203 v 0.87891 h -8.26172 q 0.11719,1.85547 1.11328,2.83203 1.00586,0.9668 2.79297,0.9668 1.03516,0 2.00196,-0.25391 0.97656,-0.25391 1.93359,-0.76172 v 1.69922 q -0.9668,0.41016 -1.98242,0.625 -1.01563,0.21484 -2.06055,0.21484 -2.61719,0 -4.15039,-1.52343 -1.52344,-1.52344 -1.52344,-4.1211 0,-2.68554 1.44531,-4.25781 1.45508,-1.58203 3.91602,-1.58203 2.20703,0 3.48633,1.42578 1.28906,1.41602 1.28906,3.85742 z m -1.79687,-0.52734 q -0.0195,-1.47461 -0.83008,-2.35352 -0.80078,-0.8789 -2.12891,-0.8789 -1.5039,0 -2.41211,0.84961 -0.89844,0.8496 -1.03515,2.39257 z" />
    <path
       id="path205"
       style="fill:#ff0000"
       d="M 227.53516,300.39844 V 307 h -1.79688 v -6.54297 q 0,-1.55273 -0.60547,-2.32422 -0.60547,-0.77148 -1.8164,-0.77148 -1.45508,0 -2.29493,0.92773 -0.83984,0.92774 -0.83984,2.5293 V 307 H 218.375 v -10.9375 h 1.80664 v 1.69922 q 0.64453,-0.98633 1.51367,-1.47461 0.87891,-0.48828 2.02149,-0.48828 1.88476,0 2.85156,1.17187 0.9668,1.16211 0.9668,3.42774 z" />
    <path
       id="path207"
       style="fill:#ff0000"
       d="m 232.91602,292.95703 v 3.10547 h 3.70117 v 1.39648 h -3.70117 v 5.9375 q 0,1.3379 0.36132,1.71875 0.3711,0.38086 1.49414,0.38086 h 1.84571 V 307 h -1.84571 q -2.08007,0 -2.87109,-0.77148 -0.79101,-0.78125 -0.79101,-2.83204 v -5.9375 h -1.31836 v -1.39648 h 1.31836 v -3.10547 z" />
    <path
       id="path209"
       style="fill:#ff0000"
       d="m 242.18359,292.41992 h 1.66016 l -5.07812,16.43555 h -1.66016 z" />
    <path
       id="path211"
       style="fill:#ff0000"
       d="m 253.59961,301.54102 q 0,-1.98243 -0.82031,-3.10547 -0.81055,-1.13282 -2.23633,-1.13282 -1.42578,0 -2.24609,1.13282 -0.81055,1.12304 -0.81055,3.10547 0,1.98242 0.81055,3.11523 0.82031,1.12305 2.24609,1.12305 1.42578,0 2.23633,-1.12305 0.82031,-1.13281 0.82031,-3.11523 z m -6.11328,-3.81836 q 0.5664,-0.97657 1.42578,-1.44532 0.86914,-0.47851 2.07031,-0.47851 1.99219,0 3.23242,1.58203 1.25,1.58203 1.25,4.16016 0,2.57812 -1.25,4.16015 -1.24023,1.58203 -3.23242,1.58203 -1.20117,0 -2.07031,-0.46875 -0.85938,-0.47851 -1.42578,-1.45507 V 307 h -1.80664 v -15.19531 h 1.80664 z" />
    <path
       id="path213"
       style="fill:#ff0000"
       d="m 258.25781,302.68359 v -6.62109 h 1.79688 v 6.55273 q 0,1.55274 0.60547,2.33399 0.60547,0.77148 1.8164,0.77148 1.45508,0 2.29492,-0.92773 0.84961,-0.92774 0.84961,-2.5293 v -6.20117 h 1.79688 V 307 h -1.79688 v -1.67969 q -0.65429,0.9961 -1.52343,1.48438 -0.85938,0.47851 -2.00196,0.47851 -1.88476,0 -2.86132,-1.17187 -0.97657,-1.17188 -0.97657,-3.42774 z m 4.52149,-6.88476 z" />
    <path
       id="path215"
       style="fill:#ff0000"
       d="m 272.91602,292.95703 v 3.10547 h 3.70117 v 1.39648 h -3.70117 v 5.9375 q 0,1.3379 0.36132,1.71875 0.3711,0.38086 1.49414,0.38086 h 1.84571 V 307 h -1.84571 q -2.08007,0 -2.87109,-0.77148 -0.79101,-0.78125 -0.79101,-2.83204 v -5.9375 h -1.31836 v -1.39648 h 1.31836 v -3.10547 z" />
    <path
       id="path217"
       style="fill:#ff0000"
       d="m 280.76758,292.95703 v 3.10547 h 3.70117 v 1.39648 h -3.70117 v 5.9375 q 0,1.3379 0.36133,1.71875 0.37109,0.38086 1.49414,0.38086 h 1.8457 V 307 h -1.8457 q -2.08008,0 -2.8711,-0.77148 -0.79101,-0.78125 -0.79101,-2.83204 v -5.9375 h -1.31836 v -1.39648 h 1.31836 v -3.10547 z" />
    <path
       id="path219"
       style="fill:#ff0000"
       d="m 291.08008,297.32227 q -1.44531,0 -2.28516,1.13281 -0.83984,1.12305 -0.83984,3.08594 0,1.96289 0.83008,3.0957 0.83984,1.12305 2.29492,1.12305 1.43555,0 2.27539,-1.13282 0.83984,-1.13281 0.83984,-3.08593 0,-1.94336 -0.83984,-3.07618 -0.83984,-1.14257 -2.27539,-1.14257 z m 0,-1.52344 q 2.34375,0 3.68164,1.52344 1.33789,1.52343 1.33789,4.21875 0,2.68554 -1.33789,4.21875 -1.33789,1.52343 -3.68164,1.52343 -2.35352,0 -3.69141,-1.52343 -1.32812,-1.53321 -1.32812,-4.21875 0,-2.69532 1.32812,-4.21875 1.33789,-1.52344 3.69141,-1.52344 z" />
    <path
       id="path221"
       style="fill:#ff0000"
       d="M 308.16016,300.39844 V 307 h -1.79688 v -6.54297 q 0,-1.55273 -0.60547,-2.32422 -0.60547,-0.77148 -1.8164,-0.77148 -1.45508,0 -2.29493,0.92773 -0.83984,0.92774 -0.83984,2.5293 V 307 H 299 v -10.9375 h 1.80664 v 1.69922 q 0.64453,-0.98633 1.51367,-1.47461 0.87891,-0.48828 2.02149,-0.48828 1.88476,0 2.85156,1.17187 0.9668,1.16211 0.9668,3.42774 z" />
    <path
       id="path223"
       style="fill:#ff0000"
       d="m 320.07422,310.32031 v 1.39649 h -10.39063 v -1.39649 z" />
    <path
       id="path225"
       style="fill:#ff0000"
       d="m 328.73633,296.38477 v 1.69921 q -0.76172,-0.39062 -1.58203,-0.58593 -0.82032,-0.19532 -1.69922,-0.19532 -1.33789,0 -2.01172,0.41016 -0.66406,0.41016 -0.66406,1.23047 0,0.625 0.47851,0.98633 0.47852,0.35156 1.92383,0.67383 l 0.61524,0.13671 q 1.91406,0.41016 2.71484,1.16211 0.81055,0.74219 0.81055,2.08008 0,1.52344 -1.21094,2.41211 -1.20117,0.88867 -3.31055,0.88867 -0.8789,0 -1.83594,-0.17578 -0.94726,-0.16601 -2.00195,-0.50781 v -1.85547 q 0.99609,0.51758 1.96289,0.78125 0.9668,0.25391 1.91406,0.25391 1.26954,0 1.95313,-0.42969 0.68359,-0.43945 0.68359,-1.23047 0,-0.73242 -0.49804,-1.12305 -0.48829,-0.39062 -2.15821,-0.75195 l -0.625,-0.14648 q -1.66992,-0.35157 -2.41211,-1.07422 -0.74218,-0.73242 -0.74218,-2.00196 0,-1.54296 1.09375,-2.38281 1.09375,-0.83984 3.10546,-0.83984 0.9961,0 1.875,0.14648 0.87891,0.14649 1.6211,0.43946 z" />
    <path
       id="path227"
       style="fill:#ff0000"
       d="m 332.00781,302.68359 v -6.62109 h 1.79688 v 6.55273 q 0,1.55274 0.60547,2.33399 0.60547,0.77148 1.8164,0.77148 1.45508,0 2.29492,-0.92773 0.84961,-0.92774 0.84961,-2.5293 v -6.20117 h 1.79688 V 307 h -1.79688 v -1.67969 q -0.65429,0.9961 -1.52343,1.48438 -0.85938,0.47851 -2.00196,0.47851 -1.88476,0 -2.86132,-1.17187 -0.97657,-1.17188 -0.97657,-3.42774 z m 4.52149,-6.88476 z" />
    <path
       id="path229"
       style="fill:#ff0000"
       d="m 352.74023,301.54102 q 0,-1.98243 -0.82031,-3.10547 -0.81054,-1.13282 -2.23633,-1.13282 -1.42578,0 -2.24609,1.13282 -0.81055,1.12304 -0.81055,3.10547 0,1.98242 0.81055,3.11523 0.82031,1.12305 2.24609,1.12305 1.42579,0 2.23633,-1.12305 0.82031,-1.13281 0.82031,-3.11523 z m -6.11328,-3.81836 q 0.56641,-0.97657 1.42578,-1.44532 0.86915,-0.47851 2.07032,-0.47851 1.99218,0 3.23242,1.58203 1.25,1.58203 1.25,4.16016 0,2.57812 -1.25,4.16015 -1.24024,1.58203 -3.23242,1.58203 -1.20117,0 -2.07032,-0.46875 -0.85937,-0.47851 -1.42578,-1.45507 V 307 h -1.80664 v -15.19531 h 1.80664 z" />
    <path
       id="path231"
       style="fill:#ff0000"
       d="m 366.09961,298.16211 q 0.67383,-1.21094 1.61133,-1.78711 0.9375,-0.57617 2.20703,-0.57617 1.70898,0 2.63672,1.20117 0.92773,1.19141 0.92773,3.39844 V 307 h -1.80664 v -6.54297 q 0,-1.57226 -0.55664,-2.33398 -0.55664,-0.76172 -1.69922,-0.76172 -1.39648,0 -2.20703,0.92773 -0.81055,0.92774 -0.81055,2.5293 V 307 h -1.80664 v -6.54297 q 0,-1.58203 -0.55664,-2.33398 -0.55664,-0.76172 -1.71875,-0.76172 -1.37695,0 -2.1875,0.9375 -0.81054,0.92773 -0.81054,2.51953 V 307 h -1.80664 v -10.9375 h 1.80664 v 1.69922 q 0.61523,-1.00586 1.47461,-1.48438 0.85937,-0.47851 2.04101,-0.47851 1.19141,0 2.02149,0.60547 0.83984,0.60547 1.24023,1.75781 z" />
    <path
       id="path233"
       style="fill:#ff0000"
       d="m 377.07617,296.0625 h 1.79688 V 307 h -1.79688 z m 0,-4.25781 h 1.79688 v 2.27539 h -1.79688 z" />
    <path
       id="path235"
       style="fill:#ff0000"
       d="m 384.40039,292.95703 v 3.10547 h 3.70117 v 1.39648 h -3.70117 v 5.9375 q 0,1.3379 0.36133,1.71875 0.37109,0.38086 1.49414,0.38086 h 1.8457 V 307 h -1.8457 q -2.08008,0 -2.87109,-0.77148 -0.79102,-0.78125 -0.79102,-2.83204 v -5.9375 h -1.31836 v -1.39648 h 1.31836 v -3.10547 z" />
    <path
       id="path237"
       style="fill:#ff0000"
       d="m 394.67383,291.80469 v 17.83203 h -4.14063 v -1.39649 h 2.33399 v -15.03906 h -2.33399 v -1.39648 z" />
  </g>
  <g
     id="text131"
     style="font-size:42px;font-family:'DejaVu Sans', sans-serif;text-anchor:middle;fill:#000000"
     aria-label="A">
    <path
       id="path240"
       style=""
       d="m 60,159.46289 -5.619141,15.23731 h 11.258789 z m -2.337891,-4.08105 h 4.696289 L 74.027344,186 h -4.306641 l -2.789062,-7.85449 H 53.129883 L 50.34082,186 h -4.368164 z" />
  </g>
  <g
     id="text135"
     style="font-size:42px;font-family:'DejaVu Sans', sans-serif;text-anchor:middle;fill:#000000"
     aria-label="A">
    <path
       id="path243"
       style=""
       d="m 110,159.46289 -5.61914,15.23731 h 11.25879 z m -2.33789,-4.08105 h 4.69629 L 124.02734,186 h -4.30664 l -2.78906,-7.85449 H 103.12988 L 100.34082,186 h -4.368164 z" />
  </g>
  <g
     id="text139"
     style="font-size:42px;font-family:'DejaVu Sans', sans-serif;text-anchor:middle;fill:#000000"
     aria-label="A">
    <path
       id="path246"
       style=""
       d="m 159,159.46289 -5.61914,15.23731 h 11.25879 z m -2.33789,-4.08105 h 4.69629 L 173.02734,186 h -4.30664 l -2.78906,-7.85449 H 152.12988 L 149.34082,186 h -4.36816 z" />
  </g>
  <g
     id="text143"
     style="font-size:42px;font-family:'DejaVu Sans', sans-serif;text-anchor:middle;fill:#000000"
     aria-label="A">
    <path
       id="path249"
       style=""
       d="m 209,159.46289 -5.61914,15.23731 h 11.25879 z m -2.33789,-4.08105 h 4.69629 L 223.02734,186 h -4.30664 l -2.78906,-7.85449 H 202.12988 L 199.34082,186 h -4.36816 z" />
  </g>
  <g
     id="text147"
     style="font-size:42px;font-family:'DejaVu Sans', sans-serif;text-anchor:middle;fill:#000000"
     aria-label="A">
    <path
       id="path252"
       style=""
       d="m 258,159.46289 -5.61914,15.23731 h 11.25879 z m -2.33789,-4.08105 h 4.69629 L 272.02734,186 h -4.30664 l -2.78906,-7.85449 H 251.12988 L 248.34082,186 h -4.36816 z" />
  </g>
</svg>
