<?xml version="1.0" encoding="UTF-8" standalone="no"?>
<svg
   xmlns:dc="http://purl.org/dc/elements/1.1/"
   xmlns:cc="http://creativecommons.org/ns#"
   xmlns:rdf="http://www.w3.org/1999/02/22-rdf-syntax-ns#"
   xmlns:svg="http://www.w3.org/2000/svg"
   xmlns="http://www.w3.org/2000/svg"
   id="svg89"
   stroke-miterlimit="10"
   stroke-linecap="square"
   stroke="none"
   fill="none"
   viewBox="0.0 0.0 348.0 348.0"
   version="1.1">
  <metadata
     id="metadata95">
    <rdf:RDF>
      <cc:Work
         rdf:about="">
        <dc:format>image/svg+xml</dc:format>
        <dc:type
           rdf:resource="http://purl.org/dc/dcmitype/StillImage" />
      </cc:Work>
    </rdf:RDF>
  </metadata>
  <defs
     id="defs93" />
  <clipPath
     id="p.0">
    <path
       id="path2"
       clip-rule="nonzero"
       d="m0 0l348.0 0l0 348.0l-348.0 0l0 -348.0z" />
  </clipPath>
  <g
     id="g59"
     clip-path="url(#p.0)">
    <path
       style="fill:#000000;fill-opacity:0;fill-rule:nonzero"
       id="path5"
       d="M 0,0 H 348 V 348 H 0 Z" />
    <path
       style="fill:#ffffff;fill-rule:nonzero"
       id="path7"
       d="M -6,0 H 342 V 347.9685 H -6 Z" />
    <path
       style="fill:#000000;fill-opacity:0;fill-rule:nonzero"
       id="path9"
       d="m 5.07874,5.7758217 h 336.9134 V 343.44512 H 5.07874 Z" />
    <path
       style="fill-rule:nonzero;stroke:#000000;stroke-width:2;stroke-linecap:butt;stroke-linejoin:round"
       id="path11"
       d="m 5.07874,5.7758217 h 336.9134 V 343.44512 H 5.07874 Z" />
    <path
       style="fill:#ffffff;fill-rule:nonzero"
       id="path13"
       d="m 282.73444,40.553925 v 0 c 0,-8.375591 6.96603,-15.165352 15.55905,-15.165352 v 0 c 4.12653,0 8.08402,1.597773 11.00192,4.441828 2.91788,2.844057 4.55713,6.701422 4.55713,10.723524 v 0 c 0,8.375595 -6.966,15.165356 -15.55905,15.165356 v 0 c -8.59302,0 -15.55905,-6.789761 -15.55905,-15.165356 z" />
    <path
       style="fill-rule:nonzero;stroke:#000000;stroke-width:2;stroke-linecap:butt;stroke-linejoin:round"
       id="path15"
       d="m 282.73444,40.553925 v 0 c 0,-8.375591 6.96603,-15.165352 15.55905,-15.165352 v 0 c 4.12653,0 8.08402,1.597773 11.00192,4.441828 2.91788,2.844057 4.55713,6.701422 4.55713,10.723524 v 0 c 0,8.375595 -6.966,15.165356 -15.55905,15.165356 v 0 c -8.59302,0 -15.55905,-6.789761 -15.55905,-15.165356 z" />
    <path
       style="fill:#000000;fill-rule:nonzero"
       id="path17"
       d="M 34.771652,25.389738 H 267.18112 v 67.55905 H 34.771652 Z" />
    <path
       style="fill-rule:nonzero;stroke:#000000;stroke-width:2;stroke-linecap:butt;stroke-linejoin:round"
       id="path19"
       d="M 34.771652,25.389738 H 267.18112 v 67.55905 H 34.771652 Z" />
    <path
       style="fill-rule:nonzero;stroke:#000000;stroke-width:1;stroke-linecap:butt;stroke-linejoin:round"
       id="path21"
       d="M 34.771652,202.31795 H 141.41733 v 44.81891 H 34.771652 Z" />
    <path
       style="fill:#000000;fill-opacity:0;fill-rule:nonzero"
       id="path23"
       d="M 34.771652,125.22639 H 141.41733 v 44.8189 H 34.771652 Z" />
    <path
       style="fill-rule:nonzero;stroke:#000000;stroke-width:1;stroke-linecap:butt;stroke-linejoin:round"
       id="path25"
       d="M 34.771652,125.22639 H 141.41733 v 44.8189 H 34.771652 Z" />
    <path
       style="fill:#000000;fill-opacity:0;fill-rule:nonzero"
       id="path27"
       d="M 34.771652,270.60397 H 141.41733 v 44.81891 H 34.771652 Z" />
    <path
       style="fill-rule:nonzero;stroke:#000000;stroke-width:1;stroke-linecap:butt;stroke-linejoin:round"
       id="path29"
       d="M 34.771652,270.60397 H 141.41733 v 44.81891 H 34.771652 Z" />
    <path
       style="fill:#000000;fill-opacity:0;fill-rule:nonzero"
       id="path31"
       d="m 157.40683,202.31795 h 106.64566 v 44.81891 H 157.40683 Z" />
    <path
       style="fill-rule:nonzero;stroke:#000000;stroke-width:1;stroke-linecap:butt;stroke-linejoin:round"
       id="path33"
       d="m 157.40683,202.31795 h 106.64566 v 44.81891 H 157.40683 Z" />
    <path
       style="fill:#000000;fill-opacity:0;fill-rule:nonzero"
       id="path35"
       d="m 157.40683,125.22639 h 106.64566 v 44.8189 H 157.40683 Z" />
    <path
       style="fill-rule:nonzero;stroke:#000000;stroke-width:1;stroke-linecap:butt;stroke-linejoin:round"
       id="path37"
       d="m 157.40683,125.22639 h 106.64566 v 44.8189 H 157.40683 Z" />
    <path
       style="fill:#000000;fill-opacity:0;fill-rule:nonzero"
       id="path39"
       d="m 157.40683,270.60397 h 106.64566 v 44.81891 H 157.40683 Z" />
    <path
       style="fill-rule:nonzero;stroke:#000000;stroke-width:1;stroke-linecap:butt;stroke-linejoin:round"
       id="path41"
       d="m 157.40683,270.60397 h 106.64566 v 44.81891 H 157.40683 Z" />
    <path
       style="fill:#000000;fill-rule:nonzero"
       id="path43"
       d="m 277.46194,106.3832 h 52.66141 v 209.03937 h -52.66141 z" />
    <path
       style="fill-rule:nonzero;stroke:#000000;stroke-width:2;stroke-linecap:butt;stroke-linejoin:round"
       id="path45"
       d="m 277.46194,106.3832 h 52.66141 v 209.03937 h -52.66141 z" />
    <path
       style="fill:#ffffff;fill-rule:nonzero"
       id="path47"
       d="m 290.06036,245.11285 h 27.46457 v 16.47244 h -27.46457 z" />
    <path
       style="fill-rule:nonzero;stroke:#000000;stroke-width:2;stroke-linecap:butt;stroke-linejoin:round"
       id="path49"
       d="m 290.06036,245.11285 h 27.46457 v 16.47244 h -27.46457 z" />
    <path
       style="fill:#ffffff;fill-rule:nonzero"
       id="path51"
       d="m 290.06036,208.9029 h 27.46457 v 16.47243 h -27.46457 z" />
    <path
       style="fill-rule:nonzero;stroke:#000000;stroke-width:2;stroke-linecap:butt;stroke-linejoin:round"
       id="path53"
       d="m 290.06036,208.9029 h 27.46457 v 16.47243 h -27.46457 z" />
    <path
       style="fill:#ffffff;fill-rule:nonzero"
       id="path55"
       d="m 290.06036,281.32285 h 27.46457 v 16.47244 h -27.46457 z" />
    <path
       style="fill-rule:nonzero;stroke:#000000;stroke-width:2;stroke-linecap:butt;stroke-linejoin:round"
       id="path57"
       d="m 290.06036,281.32285 h 27.46457 v 16.47244 h -27.46457 z" />
  </g>
  <g
     id="text63"
     style="font-size:24.61538506px;font-family:'DejaVu Sans', sans-serif;text-anchor:middle;fill:#ffffff"
     aria-label="[ WYŚWIETLACZ ]">
    <path
       id="path97"
       style=""
       d="m 43.677883,47.60577 h 5.096154 v 1.71875 h -2.884616 v 18.509616 h 2.884616 v 1.71875 h -5.096154 z" />
    <path
       id="path99"
       style=""
       d="m 59.831729,48.362982 h 2.451923 l 3.774039,15.168269 3.762019,-15.168269 h 2.728366 l 3.774038,15.168269 3.762019,-15.168269 h 2.463943 L 78.040864,66.307693 H 74.987979 L 71.201922,50.73077 67.379806,66.307693 h -3.052884 z" />
    <path
       id="path101"
       style=""
       d="m 83.293268,48.362982 h 2.608173 l 4.975962,7.379807 4.939904,-7.379807 h 2.608173 l -6.346154,9.399038 v 8.545673 H 89.639422 V 57.76202 Z" />
    <path
       id="path103"
       style=""
       d="m 106.99519,43.471155 h 2.22356 l -2.74039,3.173077 h -1.83894 z m 4.56731,5.480769 v 2.367788 q -1.38221,-0.661057 -2.60817,-0.985576 -1.22597,-0.32452 -2.36779,-0.32452 -1.98318,0 -3.06491,0.769231 -1.06971,0.769231 -1.06971,2.1875 0,1.189904 0.70914,1.802885 0.72115,0.600961 2.71634,0.973557 l 1.46635,0.300481 q 2.71634,0.516827 4.0024,1.826923 1.29808,1.298077 1.29808,3.485577 0,2.608173 -1.75481,3.954327 -1.74279,1.346154 -5.12019,1.346154 -1.27404,0 -2.71635,-0.288461 -1.43029,-0.288462 -2.96875,-0.853366 v -2.5 q 1.47837,0.829327 2.89664,1.25 1.41827,0.420673 2.78846,0.420673 2.07933,0 3.20913,-0.817307 1.12981,-0.817308 1.12981,-2.331731 0,-1.322116 -0.81731,-2.067308 -0.80528,-0.745192 -2.65625,-1.117788 l -1.47836,-0.288462 q -2.71635,-0.540865 -3.93029,-1.694712 -1.21394,-1.153846 -1.21394,-3.209134 0,-2.379808 1.67067,-3.75 1.68269,-1.370193 4.6274,-1.370193 1.26202,0 2.57212,0.228366 1.3101,0.228365 2.68029,0.685096 z" />
    <path
       id="path105"
       style=""
       d="m 114.83173,48.362982 h 2.45193 l 3.77403,15.168269 3.76202,-15.168269 h 2.72837 l 3.77404,15.168269 3.76202,-15.168269 h 2.46394 l -4.50721,17.944711 h -3.05289 l -3.78605,-15.576923 -3.82212,15.576923 h -3.05288 z" />
    <path
       id="path107"
       style=""
       d="m 140.75721,48.362982 h 2.42788 v 17.944711 h -2.42788 z" />
    <path
       id="path109"
       style=""
       d="m 148.01683,48.362982 h 11.34615 v 2.043269 h -8.91826 v 5.3125 h 8.54567 v 2.043269 h -8.54567 v 6.502404 h 9.13461 v 2.043269 h -11.5625 z" />
    <path
       id="path111"
       style=""
       d="m 161.10577,48.362982 h 15.18029 v 2.043269 h -6.37019 v 15.901442 h -2.43991 V 50.406251 h -6.37019 z" />
    <path
       id="path113"
       style=""
       d="m 178.64183,48.362982 h 2.42789 v 15.901442 h 8.73798 v 2.043269 h -11.16587 z" />
    <path
       id="path115"
       style=""
       d="m 198.91827,50.754809 -3.29327,8.930288 h 6.59855 z m -1.3702,-2.391827 h 2.75241 l 6.83894,17.944711 h -2.52404 l -1.63461,-4.603365 h -8.08895 l -1.63461,4.603365 h -2.5601 z" />
    <path
       id="path117"
       style=""
       d="m 222.75241,49.745193 v 2.560096 q -1.22596,-1.141827 -2.62019,-1.70673 -1.38221,-0.564904 -2.94471,-0.564904 -3.07693,0 -4.71154,1.887019 -1.63462,1.875 -1.63462,5.432692 0,3.545674 1.63462,5.432693 1.63461,1.875 4.71154,1.875 1.5625,0 2.94471,-0.564904 1.39423,-0.564904 2.62019,-1.706731 v 2.536058 q -1.27404,0.865385 -2.70433,1.298077 -1.41826,0.432692 -3.0048,0.432692 -4.07452,0 -6.41827,-2.487981 -2.34375,-2.5 -2.34375,-6.814904 0,-4.326923 2.34375,-6.814904 2.34375,-2.5 6.41827,-2.5 1.61057,0 3.02884,0.432693 1.43029,0.420673 2.68029,1.274038 z" />
    <path
       id="path119"
       style=""
       d="m 225.49279,48.362982 h 14.09856 v 1.850961 l -11.34616,14.050481 h 11.6226 v 2.043269 H 225.21635 V 64.456732 L 236.5625,50.406251 h -11.06971 z" />
    <path
       id="path121"
       style=""
       d="m 256.31009,47.60577 v 21.947116 h -5.09615 v -1.71875 h 2.87259 V 49.32452 h -2.87259 v -1.71875 z" />
  </g>
  <g
     id="text67"
     style="font-size:20px;font-family:'DejaVu Sans', sans-serif;text-anchor:middle;fill:#000000"
     aria-label="[ TEKST ]">
    <path
       id="path124"
       style=""
       d="m 43.074219,138.80469 h 4.140625 v 1.39648 h -2.34375 v 15.03906 h 2.34375 v 1.39649 h -4.140625 z" />
    <path
       id="path126"
       style=""
       d="m 55.476563,139.41992 h 12.333984 v 1.66016 H 62.634766 V 154 h -1.982422 v -12.91992 h -5.175781 z" />
    <path
       id="path128"
       style=""
       d="m 69.724609,139.41992 h 9.21875 v 1.66016 h -7.246093 v 4.3164 h 6.943359 v 1.66016 h -6.943359 v 5.2832 h 7.421875 V 154 h -9.394532 z" />
    <path
       id="path130"
       style=""
       d="m 82.380859,139.41992 h 1.972657 v 6.16211 l 6.542968,-6.16211 h 2.539063 L 86.199219,146.2168 93.953125,154 h -2.597656 l -7.001953,-7.02148 V 154 h -1.972657 z" />
    <path
       id="path132"
       style=""
       d="m 104.24609,139.89844 v 1.92383 q -1.12304,-0.53711 -2.11914,-0.80079 -0.99609,-0.26367 -1.92383,-0.26367 -1.611323,0 -2.490229,0.625 -0.869141,0.625 -0.869141,1.77735 0,0.96679 0.576172,1.46484 0.585937,0.48828 2.207031,0.79102 l 1.191407,0.24414 q 2.20703,0.41992 3.25195,1.48437 1.05469,1.05469 1.05469,2.83203 0,2.11914 -1.42578,3.21289 -1.41602,1.09375 -4.160157,1.09375 -1.035157,0 -2.207032,-0.23437 -1.162109,-0.23438 -2.412109,-0.69336 v -2.03125 q 1.201172,0.67383 2.353516,1.01562 1.152343,0.3418 2.265625,0.3418 1.689457,0 2.607417,-0.66406 0.91797,-0.66406 0.91797,-1.89453 0,-1.07422 -0.66406,-1.67969 -0.6543,-0.60547 -2.1582,-0.9082 l -1.201174,-0.23438 q -2.207032,-0.43945 -3.19336,-1.37695 -0.986328,-0.9375 -0.986328,-2.60742 0,-1.9336 1.357422,-3.04688 1.367188,-1.11328 3.759766,-1.11328 1.025394,0 2.089844,0.18555 1.06445,0.18554 2.17773,0.55664 z" />
    <path
       id="path134"
       style=""
       d="m 106.17969,139.41992 h 12.33398 v 1.66016 h -5.17578 V 154 h -1.98242 v -12.91992 h -5.17578 z" />
    <path
       id="path136"
       style=""
       d="m 130.91602,138.80469 v 17.83203 h -4.14063 v -1.39649 h 2.33399 v -15.03906 h -2.33399 v -1.39648 z" />
  </g>
  <g
     id="text71"
     style="font-size:20px;font-family:'DejaVu Sans', sans-serif;text-anchor:middle;fill:#000000"
     aria-label="[ TEKST ]">
    <path
       id="path139"
       style=""
       d="m 43.074219,215.80469 h 4.140625 v 1.39648 h -2.34375 v 15.03906 h 2.34375 v 1.39649 h -4.140625 z" />
    <path
       id="path141"
       style=""
       d="m 55.476563,216.41992 h 12.333984 v 1.66016 H 62.634766 V 231 h -1.982422 v -12.91992 h -5.175781 z" />
    <path
       id="path143"
       style=""
       d="m 69.724609,216.41992 h 9.21875 v 1.66016 h -7.246093 v 4.3164 h 6.943359 v 1.66016 h -6.943359 v 5.2832 h 7.421875 V 231 h -9.394532 z" />
    <path
       id="path145"
       style=""
       d="m 82.380859,216.41992 h 1.972657 v 6.16211 l 6.542968,-6.16211 h 2.539063 L 86.199219,223.2168 93.953125,231 h -2.597656 l -7.001953,-7.02148 V 231 h -1.972657 z" />
    <path
       id="path147"
       style=""
       d="m 104.24609,216.89844 v 1.92383 q -1.12304,-0.53711 -2.11914,-0.80079 -0.99609,-0.26367 -1.92383,-0.26367 -1.611323,0 -2.490229,0.625 -0.869141,0.625 -0.869141,1.77735 0,0.96679 0.576172,1.46484 0.585937,0.48828 2.207031,0.79102 l 1.191407,0.24414 q 2.20703,0.41992 3.25195,1.48437 1.05469,1.05469 1.05469,2.83203 0,2.11914 -1.42578,3.21289 -1.41602,1.09375 -4.160157,1.09375 -1.035157,0 -2.207032,-0.23437 -1.162109,-0.23438 -2.412109,-0.69336 v -2.03125 q 1.201172,0.67383 2.353516,1.01562 1.152343,0.3418 2.265625,0.3418 1.689457,0 2.607417,-0.66406 0.91797,-0.66406 0.91797,-1.89453 0,-1.07422 -0.66406,-1.67969 -0.6543,-0.60547 -2.1582,-0.9082 l -1.201174,-0.23438 q -2.207032,-0.43945 -3.19336,-1.37695 -0.986328,-0.9375 -0.986328,-2.60742 0,-1.9336 1.357422,-3.04688 1.367188,-1.11328 3.759766,-1.11328 1.025394,0 2.089844,0.18555 1.06445,0.18554 2.17773,0.55664 z" />
    <path
       id="path149"
       style=""
       d="m 106.17969,216.41992 h 12.33398 v 1.66016 h -5.17578 V 231 h -1.98242 v -12.91992 h -5.17578 z" />
    <path
       id="path151"
       style=""
       d="m 130.91602,215.80469 v 17.83203 h -4.14063 v -1.39649 h 2.33399 v -15.03906 h -2.33399 v -1.39648 z" />
  </g>
  <g
     id="text75"
     style="font-size:20px;font-family:'DejaVu Sans', sans-serif;text-anchor:middle;fill:#000000"
     aria-label="[ TEKST ]">
    <path
       id="path154"
       style=""
       d="m 43.074219,283.80469 h 4.140625 v 1.39648 h -2.34375 v 15.03906 h 2.34375 v 1.39649 h -4.140625 z" />
    <path
       id="path156"
       style=""
       d="m 55.476563,284.41992 h 12.333984 v 1.66016 H 62.634766 V 299 h -1.982422 v -12.91992 h -5.175781 z" />
    <path
       id="path158"
       style=""
       d="m 69.724609,284.41992 h 9.21875 v 1.66016 h -7.246093 v 4.3164 h 6.943359 v 1.66016 h -6.943359 v 5.2832 h 7.421875 V 299 h -9.394532 z" />
    <path
       id="path160"
       style=""
       d="m 82.380859,284.41992 h 1.972657 v 6.16211 l 6.542968,-6.16211 h 2.539063 L 86.199219,291.2168 93.953125,299 h -2.597656 l -7.001953,-7.02148 V 299 h -1.972657 z" />
    <path
       id="path162"
       style=""
       d="m 104.24609,284.89844 v 1.92383 q -1.12304,-0.53711 -2.11914,-0.80079 -0.99609,-0.26367 -1.92383,-0.26367 -1.611323,0 -2.490229,0.625 -0.869141,0.625 -0.869141,1.77735 0,0.96679 0.576172,1.46484 0.585937,0.48828 2.207031,0.79102 l 1.191407,0.24414 q 2.20703,0.41992 3.25195,1.48437 1.05469,1.05469 1.05469,2.83203 0,2.11914 -1.42578,3.21289 -1.41602,1.09375 -4.160157,1.09375 -1.035157,0 -2.207032,-0.23437 -1.162109,-0.23438 -2.412109,-0.69336 v -2.03125 q 1.201172,0.67383 2.353516,1.01562 1.152343,0.3418 2.265625,0.3418 1.689457,0 2.607417,-0.66406 0.91797,-0.66406 0.91797,-1.89453 0,-1.07422 -0.66406,-1.67969 -0.6543,-0.60547 -2.1582,-0.9082 l -1.201174,-0.23438 q -2.207032,-0.43945 -3.19336,-1.37695 -0.986328,-0.9375 -0.986328,-2.60742 0,-1.9336 1.357422,-3.04688 1.367188,-1.11328 3.759766,-1.11328 1.025394,0 2.089844,0.18555 1.06445,0.18554 2.17773,0.55664 z" />
    <path
       id="path164"
       style=""
       d="m 106.17969,284.41992 h 12.33398 v 1.66016 h -5.17578 V 299 h -1.98242 v -12.91992 h -5.17578 z" />
    <path
       id="path166"
       style=""
       d="m 130.91602,283.80469 v 17.83203 h -4.14063 v -1.39649 h 2.33399 v -15.03906 h -2.33399 v -1.39648 z" />
  </g>
  <g
     id="text79"
     style="font-size:20px;font-family:'DejaVu Sans', sans-serif;text-anchor:middle;fill:#000000"
     aria-label="[ TEKST ]">
    <path
       id="path169"
       style=""
       d="m 166.07422,138.80469 h 4.14062 v 1.39648 h -2.34375 v 15.03906 h 2.34375 v 1.39649 h -4.14062 z" />
    <path
       id="path171"
       style=""
       d="m 178.47656,139.41992 h 12.33399 v 1.66016 h -5.17578 V 154 h -1.98243 v -12.91992 h -5.17578 z" />
    <path
       id="path173"
       style=""
       d="m 192.72461,139.41992 h 9.21875 v 1.66016 h -7.24609 v 4.3164 h 6.94336 v 1.66016 h -6.94336 v 5.2832 h 7.42187 V 154 h -9.39453 z" />
    <path
       id="path175"
       style=""
       d="m 205.38086,139.41992 h 1.97266 v 6.16211 l 6.54296,-6.16211 h 2.53907 l -7.23633,6.79688 7.75391,7.7832 h -2.59766 l -7.00195,-7.02148 V 154 h -1.97266 z" />
    <path
       id="path177"
       style=""
       d="m 227.24609,139.89844 v 1.92383 q -1.12304,-0.53711 -2.11914,-0.80079 -0.99609,-0.26367 -1.92382,-0.26367 -1.61133,0 -2.49024,0.625 -0.86914,0.625 -0.86914,1.77735 0,0.96679 0.57617,1.46484 0.58594,0.48828 2.20703,0.79102 l 1.19141,0.24414 q 2.20703,0.41992 3.25195,1.48437 1.05469,1.05469 1.05469,2.83203 0,2.11914 -1.42578,3.21289 -1.41602,1.09375 -4.16016,1.09375 -1.03515,0 -2.20703,-0.23437 -1.16211,-0.23438 -2.41211,-0.69336 v -2.03125 q 1.20117,0.67383 2.35352,1.01562 1.15234,0.3418 2.26562,0.3418 1.68946,0 2.60742,-0.66406 0.91797,-0.66406 0.91797,-1.89453 0,-1.07422 -0.66406,-1.67969 -0.6543,-0.60547 -2.1582,-0.9082 l -1.20117,-0.23438 q -2.20704,-0.43945 -3.19336,-1.37695 -0.98633,-0.9375 -0.98633,-2.60742 0,-1.9336 1.35742,-3.04688 1.36719,-1.11328 3.75977,-1.11328 1.02539,0 2.08984,0.18555 1.06445,0.18554 2.17773,0.55664 z" />
    <path
       id="path179"
       style=""
       d="m 229.17969,139.41992 h 12.33398 v 1.66016 h -5.17578 V 154 h -1.98242 v -12.91992 h -5.17578 z" />
    <path
       id="path181"
       style=""
       d="m 253.91602,138.80469 v 17.83203 h -4.14063 v -1.39649 h 2.33399 v -15.03906 h -2.33399 v -1.39648 z" />
  </g>
  <g
     id="text83"
     style="font-size:20px;font-family:'DejaVu Sans', sans-serif;text-anchor:middle;fill:#000000"
     aria-label="[ TEKST ]">
    <path
       id="path184"
       style=""
       d="m 166.07422,215.80469 h 4.14062 v 1.39648 h -2.34375 v 15.03906 h 2.34375 v 1.39649 h -4.14062 z" />
    <path
       id="path186"
       style=""
       d="m 178.47656,216.41992 h 12.33399 v 1.66016 h -5.17578 V 231 h -1.98243 v -12.91992 h -5.17578 z" />
    <path
       id="path188"
       style=""
       d="m 192.72461,216.41992 h 9.21875 v 1.66016 h -7.24609 v 4.3164 h 6.94336 v 1.66016 h -6.94336 v 5.2832 h 7.42187 V 231 h -9.39453 z" />
    <path
       id="path190"
       style=""
       d="m 205.38086,216.41992 h 1.97266 v 6.16211 l 6.54296,-6.16211 h 2.53907 l -7.23633,6.79688 7.75391,7.7832 h -2.59766 l -7.00195,-7.02148 V 231 h -1.97266 z" />
    <path
       id="path192"
       style=""
       d="m 227.24609,216.89844 v 1.92383 q -1.12304,-0.53711 -2.11914,-0.80079 -0.99609,-0.26367 -1.92382,-0.26367 -1.61133,0 -2.49024,0.625 -0.86914,0.625 -0.86914,1.77735 0,0.96679 0.57617,1.46484 0.58594,0.48828 2.20703,0.79102 l 1.19141,0.24414 q 2.20703,0.41992 3.25195,1.48437 1.05469,1.05469 1.05469,2.83203 0,2.11914 -1.42578,3.21289 -1.41602,1.09375 -4.16016,1.09375 -1.03515,0 -2.20703,-0.23437 -1.16211,-0.23438 -2.41211,-0.69336 v -2.03125 q 1.20117,0.67383 2.35352,1.01562 1.15234,0.3418 2.26562,0.3418 1.68946,0 2.60742,-0.66406 0.91797,-0.66406 0.91797,-1.89453 0,-1.07422 -0.66406,-1.67969 -0.6543,-0.60547 -2.1582,-0.9082 l -1.20117,-0.23438 q -2.20704,-0.43945 -3.19336,-1.37695 -0.98633,-0.9375 -0.98633,-2.60742 0,-1.9336 1.35742,-3.04688 1.36719,-1.11328 3.75977,-1.11328 1.02539,0 2.08984,0.18555 1.06445,0.18554 2.17773,0.55664 z" />
    <path
       id="path194"
       style=""
       d="m 229.17969,216.41992 h 12.33398 v 1.66016 h -5.17578 V 231 h -1.98242 v -12.91992 h -5.17578 z" />
    <path
       id="path196"
       style=""
       d="m 253.91602,215.80469 v 17.83203 h -4.14063 v -1.39649 h 2.33399 v -15.03906 h -2.33399 v -1.39648 z" />
  </g>
  <g
     id="text87"
     style="font-size:20px;font-family:'DejaVu Sans', sans-serif;text-anchor:middle;fill:#000000"
     aria-label="[ TEKST ]">
    <path
       id="path199"
       style=""
       d="m 166.07422,283.80469 h 4.14062 v 1.39648 h -2.34375 v 15.03906 h 2.34375 v 1.39649 h -4.14062 z" />
    <path
       id="path201"
       style=""
       d="m 178.47656,284.41992 h 12.33399 v 1.66016 h -5.17578 V 299 h -1.98243 v -12.91992 h -5.17578 z" />
    <path
       id="path203"
       style=""
       d="m 192.72461,284.41992 h 9.21875 v 1.66016 h -7.24609 v 4.3164 h 6.94336 v 1.66016 h -6.94336 v 5.2832 h 7.42187 V 299 h -9.39453 z" />
    <path
       id="path205"
       style=""
       d="m 205.38086,284.41992 h 1.97266 v 6.16211 l 6.54296,-6.16211 h 2.53907 l -7.23633,6.79688 7.75391,7.7832 h -2.59766 l -7.00195,-7.02148 V 299 h -1.97266 z" />
    <path
       id="path207"
       style=""
       d="m 227.24609,284.89844 v 1.92383 q -1.12304,-0.53711 -2.11914,-0.80079 -0.99609,-0.26367 -1.92382,-0.26367 -1.61133,0 -2.49024,0.625 -0.86914,0.625 -0.86914,1.77735 0,0.96679 0.57617,1.46484 0.58594,0.48828 2.20703,0.79102 l 1.19141,0.24414 q 2.20703,0.41992 3.25195,1.48437 1.05469,1.05469 1.05469,2.83203 0,2.11914 -1.42578,3.21289 -1.41602,1.09375 -4.16016,1.09375 -1.03515,0 -2.20703,-0.23437 -1.16211,-0.23438 -2.41211,-0.69336 v -2.03125 q 1.20117,0.67383 2.35352,1.01562 1.15234,0.3418 2.26562,0.3418 1.68946,0 2.60742,-0.66406 0.91797,-0.66406 0.91797,-1.89453 0,-1.07422 -0.66406,-1.67969 -0.6543,-0.60547 -2.1582,-0.9082 l -1.20117,-0.23438 q -2.20704,-0.43945 -3.19336,-1.37695 -0.98633,-0.9375 -0.98633,-2.60742 0,-1.9336 1.35742,-3.04688 1.36719,-1.11328 3.75977,-1.11328 1.02539,0 2.08984,0.18555 1.06445,0.18554 2.17773,0.55664 z" />
    <path
       id="path209"
       style=""
       d="m 229.17969,284.41992 h 12.33398 v 1.66016 h -5.17578 V 299 h -1.98242 v -12.91992 h -5.17578 z" />
    <path
       id="path211"
       style=""
       d="m 253.91602,283.80469 v 17.83203 h -4.14063 v -1.39649 h 2.33399 v -15.03906 h -2.33399 v -1.39648 z" />
  </g>
</svg>
