<?xml version="1.0" encoding="UTF-8" standalone="no"?>
<svg
   xmlns:dc="http://purl.org/dc/elements/1.1/"
   xmlns:cc="http://creativecommons.org/ns#"
   xmlns:rdf="http://www.w3.org/1999/02/22-rdf-syntax-ns#"
   xmlns:svg="http://www.w3.org/2000/svg"
   xmlns="http://www.w3.org/2000/svg"
   id="svg89"
   stroke-miterlimit="10"
   stroke-linecap="square"
   stroke="none"
   fill="none"
   viewBox="0.0 0.0 348.0 348.0"
   version="1.1">
  <metadata
     id="metadata95">
    <rdf:RDF>
      <cc:Work
         rdf:about="">
        <dc:format>image/svg+xml</dc:format>
        <dc:type
           rdf:resource="http://purl.org/dc/dcmitype/StillImage" />
      </cc:Work>
    </rdf:RDF>
  </metadata>
  <defs
     id="defs93" />
  <clipPath
     id="p.0">
    <path
       id="path2"
       clip-rule="nonzero"
       d="m0 0l348.0 0l0 348.0l-348.0 0l0 -348.0z" />
  </clipPath>
  <g
     id="g59"
     clip-path="url(#p.0)">
    <path
       style="fill:#000000;fill-opacity:0;fill-rule:nonzero"
       id="path5"
       d="M 0,0 H 348 V 348 H 0 Z" />
    <path
       style="fill:#ffffff;fill-rule:nonzero"
       id="path7"
       d="M -6,0 H 342 V 347.9685 H -6 Z" />
    <path
       style="fill:#000000;fill-opacity:0;fill-rule:nonzero"
       id="path9"
       d="m 5.07874,5.7758217 h 336.9134 V 343.44512 H 5.07874 Z" />
    <path
       style="fill-rule:nonzero;stroke:#000000;stroke-width:2;stroke-linecap:butt;stroke-linejoin:round"
       id="path11"
       d="m 5.07874,5.7758217 h 336.9134 V 343.44512 H 5.07874 Z" />
    <path
       style="fill:#ffffff;fill-rule:nonzero"
       id="path13"
       d="m 282.73444,40.553925 v 0 c 0,-8.375591 6.96603,-15.165352 15.55905,-15.165352 v 0 c 4.12653,0 8.08402,1.597773 11.00192,4.441828 2.91788,2.844057 4.55713,6.701422 4.55713,10.723524 v 0 c 0,8.375595 -6.966,15.165356 -15.55905,15.165356 v 0 c -8.59302,0 -15.55905,-6.789761 -15.55905,-15.165356 z" />
    <path
       style="fill-rule:nonzero;stroke:#000000;stroke-width:2;stroke-linecap:butt;stroke-linejoin:round"
       id="path15"
       d="m 282.73444,40.553925 v 0 c 0,-8.375591 6.96603,-15.165352 15.55905,-15.165352 v 0 c 4.12653,0 8.08402,1.597773 11.00192,4.441828 2.91788,2.844057 4.55713,6.701422 4.55713,10.723524 v 0 c 0,8.375595 -6.966,15.165356 -15.55905,15.165356 v 0 c -8.59302,0 -15.55905,-6.789761 -15.55905,-15.165356 z" />
    <path
       style="fill:#000000;fill-rule:nonzero"
       id="path17"
       d="M 34.771652,25.389738 H 267.18112 v 67.55905 H 34.771652 Z" />
    <path
       style="fill-rule:nonzero;stroke:#000000;stroke-width:2;stroke-linecap:butt;stroke-linejoin:round"
       id="path19"
       d="M 34.771652,25.389738 H 267.18112 v 67.55905 H 34.771652 Z" />
    <path
       style="fill-rule:nonzero;stroke:#000000;stroke-width:1;stroke-linecap:butt;stroke-linejoin:round"
       id="path21"
       d="M 34.771652,202.31795 H 141.41733 v 44.81891 H 34.771652 Z" />
    <path
       style="fill:#000000;fill-opacity:0;fill-rule:nonzero"
       id="path23"
       d="M 34.771652,125.22639 H 141.41733 v 44.8189 H 34.771652 Z" />
    <path
       style="fill-rule:nonzero;stroke:#000000;stroke-width:1;stroke-linecap:butt;stroke-linejoin:round"
       id="path25"
       d="M 34.771652,125.22639 H 141.41733 v 44.8189 H 34.771652 Z" />
    <path
       style="fill:#000000;fill-opacity:0;fill-rule:nonzero"
       id="path27"
       d="M 34.771652,270.60397 H 141.41733 v 44.81891 H 34.771652 Z" />
    <path
       style="fill-rule:nonzero;stroke:#000000;stroke-width:1;stroke-linecap:butt;stroke-linejoin:round"
       id="path29"
       d="M 34.771652,270.60397 H 141.41733 v 44.81891 H 34.771652 Z" />
    <path
       style="fill:#000000;fill-opacity:0;fill-rule:nonzero"
       id="path31"
       d="m 157.40683,202.31795 h 106.64566 v 44.81891 H 157.40683 Z" />
    <path
       style="fill-rule:nonzero;stroke:#000000;stroke-width:1;stroke-linecap:butt;stroke-linejoin:round"
       id="path33"
       d="m 157.40683,202.31795 h 106.64566 v 44.81891 H 157.40683 Z" />
    <path
       style="fill:#000000;fill-opacity:0;fill-rule:nonzero"
       id="path35"
       d="m 157.40683,125.22639 h 106.64566 v 44.8189 H 157.40683 Z" />
    <path
       style="fill-rule:nonzero;stroke:#000000;stroke-width:1;stroke-linecap:butt;stroke-linejoin:round"
       id="path37"
       d="m 157.40683,125.22639 h 106.64566 v 44.8189 H 157.40683 Z" />
    <path
       style="fill:#000000;fill-opacity:0;fill-rule:nonzero"
       id="path39"
       d="m 157.40683,270.60397 h 106.64566 v 44.81891 H 157.40683 Z" />
    <path
       style="fill-rule:nonzero;stroke:#000000;stroke-width:1;stroke-linecap:butt;stroke-linejoin:round"
       id="path41"
       d="m 157.40683,270.60397 h 106.64566 v 44.81891 H 157.40683 Z" />
    <path
       style="fill:#000000;fill-rule:nonzero"
       id="path43"
       d="m 277.46194,106.3832 h 52.66141 v 209.03937 h -52.66141 z" />
    <path
       style="fill-rule:nonzero;stroke:#000000;stroke-width:2;stroke-linecap:butt;stroke-linejoin:round"
       id="path45"
       d="m 277.46194,106.3832 h 52.66141 v 209.03937 h -52.66141 z" />
    <path
       style="fill:#ffffff;fill-rule:nonzero"
       id="path47"
       d="m 290.06036,245.11285 h 27.46457 v 16.47244 h -27.46457 z" />
    <path
       style="fill-rule:nonzero;stroke:#000000;stroke-width:2;stroke-linecap:butt;stroke-linejoin:round"
       id="path49"
       d="m 290.06036,245.11285 h 27.46457 v 16.47244 h -27.46457 z" />
    <path
       style="fill:#ffffff;fill-rule:nonzero"
       id="path51"
       d="m 290.06036,208.9029 h 27.46457 v 16.47243 h -27.46457 z" />
    <path
       style="fill-rule:nonzero;stroke:#000000;stroke-width:2;stroke-linecap:butt;stroke-linejoin:round"
       id="path53"
       d="m 290.06036,208.9029 h 27.46457 v 16.47243 h -27.46457 z" />
    <path
       style="fill:#ffffff;fill-rule:nonzero"
       id="path55"
       d="m 290.06036,281.32285 h 27.46457 v 16.47244 h -27.46457 z" />
    <path
       style="fill-rule:nonzero;stroke:#000000;stroke-width:2;stroke-linecap:butt;stroke-linejoin:round"
       id="path57"
       d="m 290.06036,281.32285 h 27.46457 v 16.47244 h -27.46457 z" />
  </g>
  <g
     id="text63"
     style="font-size:25.1428566px;font-family:'DejaVu Sans', sans-serif;text-anchor:middle;fill:#ffffff"
     aria-label="[ WYŚWIETLACZ ]">
    <path
       id="path97"
       style=""
       d="m 41.399556,47.468748 h 5.205357 v 1.755581 h -2.946429 v 18.906249 h 2.946429 v 1.75558 h -5.205357 z" />
    <path
       id="path99"
       style=""
       d="m 57.899556,48.242186 h 2.504465 l 3.85491,15.493303 3.842634,-15.493303 h 2.786831 l 3.85491,15.493303 3.842634,-15.493303 h 2.516741 l -4.603795,18.32924 H 73.380583 L 69.513396,50.660712 65.609378,66.571426 h -3.118304 z" />
    <path
       id="path101"
       style=""
       d="m 81.863841,48.242186 h 2.664063 l 5.082589,7.537946 5.045759,-7.537946 h 2.664062 l -6.482143,9.600446 v 8.728794 h -2.492187 v -8.728794 z" />
    <path
       id="path103"
       style=""
       d="m 106.07366,43.245534 h 2.2712 l -2.7991,3.241071 h -1.87835 z m 4.66518,5.598214 v 2.418527 q -1.41183,-0.675223 -2.66406,-1.006696 -1.25224,-0.331474 -2.41853,-0.331474 -2.02567,0 -3.13058,0.785715 -1.09264,0.785714 -1.09264,2.234375 0,1.215401 0.72434,1.841517 0.7366,0.61384 2.77455,0.99442 l 1.49777,0.30692 q 2.77455,0.527901 4.08817,1.866071 1.32589,1.325893 1.32589,3.560268 0,2.664062 -1.79241,4.039062 -1.78014,1.375 -5.22991,1.375 -1.30134,0 -2.77456,-0.294643 -1.46093,-0.294643 -3.032362,-0.871651 v -2.553572 q 1.510042,0.847098 2.958702,1.276786 1.44866,0.429687 2.84822,0.429687 2.12388,0 3.2779,-0.834821 1.15402,-0.834821 1.15402,-2.381696 0,-1.350447 -0.83482,-2.111608 -0.82255,-0.76116 -2.71317,-1.141741 l -1.51005,-0.294642 q -2.77455,-0.552456 -4.01451,-1.731027 -1.239953,-1.178572 -1.239953,-3.277902 0,-2.430803 1.706473,-3.830357 1.71875,-1.399553 4.72656,-1.399553 1.28907,0 2.62723,0.233258 1.33817,0.233259 2.73773,0.699777 z" />
    <path
       id="path105"
       style=""
       d="m 114.07813,48.242186 h 2.50446 l 3.85491,15.493303 3.84264,-15.493303 h 2.78683 l 3.85491,15.493303 3.84263,-15.493303 h 2.51674 l -4.60379,18.32924 h -3.11831 l -3.86718,-15.910714 -3.90402,15.910714 h -3.11831 z" />
    <path
       id="path107"
       style=""
       d="m 140.55915,48.242186 h 2.47991 v 18.32924 h -2.47991 z" />
    <path
       id="path109"
       style=""
       d="m 147.97433,48.242186 h 11.58928 v 2.087053 h -9.10937 v 5.426339 h 8.72879 v 2.087054 h -8.72879 v 6.641741 h 9.33036 v 2.087053 h -11.81027 z" />
    <path
       id="path111"
       style=""
       d="m 161.34375,48.242186 h 15.50558 v 2.087053 h -6.5067 v 16.242187 h -2.49219 V 50.329239 h -6.50669 z" />
    <path
       id="path113"
       style=""
       d="m 179.25558,48.242186 h 2.47991 v 16.242187 h 8.92522 v 2.087053 h -11.40513 z" />
    <path
       id="path115"
       style=""
       d="m 199.96652,50.685266 -3.36384,9.121652 h 6.73995 z m -1.39956,-2.44308 h 2.81139 l 6.98549,18.32924 h -2.57813 l -1.66964,-4.702008 h -8.26228 l -1.66964,4.702008 h -2.61495 z" />
    <path
       id="path117"
       style=""
       d="m 224.31138,49.654016 v 2.614955 q -1.25223,-1.166294 -2.67634,-1.743303 -1.41183,-0.577009 -3.00781,-0.577009 -3.14286,0 -4.8125,1.927455 -1.66965,1.915179 -1.66965,5.549107 0,3.621652 1.66965,5.549107 1.66964,1.915179 4.8125,1.915179 1.59598,0 3.00781,-0.577009 1.42411,-0.577009 2.67634,-1.743304 v 2.590402 q -1.30134,0.883929 -2.76228,1.325893 -1.44866,0.441964 -3.0692,0.441964 -4.16183,0 -6.5558,-2.541294 -2.39397,-2.553572 -2.39397,-6.960938 0,-4.419643 2.39397,-6.960937 2.39397,-2.553571 6.5558,-2.553571 1.64509,0 3.09375,0.441964 1.46094,0.429687 2.73773,1.301339 z" />
    <path
       id="path119"
       style=""
       d="m 227.11048,48.242186 h 14.40067 v 1.890625 l -11.58929,14.351562 h 11.87166 v 2.087053 H 226.82811 V 64.680801 L 238.4174,50.329239 h -11.30692 z" />
    <path
       id="path121"
       style=""
       d="m 258.58816,47.468748 v 22.41741 h -5.20536 v -1.75558 h 2.93416 V 49.224329 h -2.93416 v -1.755581 z" />
  </g>
  <g
     id="text67"
     style="font-size:20px;font-family:'DejaVu Sans', sans-serif;text-anchor:middle;fill:#000000"
     aria-label="[ TEKST ]">
    <path
       id="path124"
       style=""
       d="m 43.074219,138.80469 h 4.140625 v 1.39648 h -2.34375 v 15.03906 h 2.34375 v 1.39649 h -4.140625 z" />
    <path
       id="path126"
       style=""
       d="m 55.476563,139.41992 h 12.333984 v 1.66016 H 62.634766 V 154 h -1.982422 v -12.91992 h -5.175781 z" />
    <path
       id="path128"
       style=""
       d="m 69.724609,139.41992 h 9.21875 v 1.66016 h -7.246093 v 4.3164 h 6.943359 v 1.66016 h -6.943359 v 5.2832 h 7.421875 V 154 h -9.394532 z" />
    <path
       id="path130"
       style=""
       d="m 82.380859,139.41992 h 1.972657 v 6.16211 l 6.542968,-6.16211 h 2.539063 L 86.199219,146.2168 93.953125,154 h -2.597656 l -7.001953,-7.02148 V 154 h -1.972657 z" />
    <path
       id="path132"
       style=""
       d="m 104.24609,139.89844 v 1.92383 q -1.12304,-0.53711 -2.11914,-0.80079 -0.99609,-0.26367 -1.92383,-0.26367 -1.611323,0 -2.490229,0.625 -0.869141,0.625 -0.869141,1.77735 0,0.96679 0.576172,1.46484 0.585937,0.48828 2.207031,0.79102 l 1.191407,0.24414 q 2.20703,0.41992 3.25195,1.48437 1.05469,1.05469 1.05469,2.83203 0,2.11914 -1.42578,3.21289 -1.41602,1.09375 -4.160157,1.09375 -1.035157,0 -2.207032,-0.23437 -1.162109,-0.23438 -2.412109,-0.69336 v -2.03125 q 1.201172,0.67383 2.353516,1.01562 1.152343,0.3418 2.265625,0.3418 1.689457,0 2.607417,-0.66406 0.91797,-0.66406 0.91797,-1.89453 0,-1.07422 -0.66406,-1.67969 -0.6543,-0.60547 -2.1582,-0.9082 l -1.201174,-0.23438 q -2.207032,-0.43945 -3.19336,-1.37695 -0.986328,-0.9375 -0.986328,-2.60742 0,-1.9336 1.357422,-3.04688 1.367188,-1.11328 3.759766,-1.11328 1.025394,0 2.089844,0.18555 1.06445,0.18554 2.17773,0.55664 z" />
    <path
       id="path134"
       style=""
       d="m 106.17969,139.41992 h 12.33398 v 1.66016 h -5.17578 V 154 h -1.98242 v -12.91992 h -5.17578 z" />
    <path
       id="path136"
       style=""
       d="m 130.91602,138.80469 v 17.83203 h -4.14063 v -1.39649 h 2.33399 v -15.03906 h -2.33399 v -1.39648 z" />
  </g>
  <g
     id="text71"
     style="font-size:20px;font-family:'DejaVu Sans', sans-serif;text-anchor:middle;fill:#000000"
     aria-label="[ TEKST ]">
    <path
       id="path139"
       style=""
       d="m 43.074219,215.80469 h 4.140625 v 1.39648 h -2.34375 v 15.03906 h 2.34375 v 1.39649 h -4.140625 z" />
    <path
       id="path141"
       style=""
       d="m 55.476563,216.41992 h 12.333984 v 1.66016 H 62.634766 V 231 h -1.982422 v -12.91992 h -5.175781 z" />
    <path
       id="path143"
       style=""
       d="m 69.724609,216.41992 h 9.21875 v 1.66016 h -7.246093 v 4.3164 h 6.943359 v 1.66016 h -6.943359 v 5.2832 h 7.421875 V 231 h -9.394532 z" />
    <path
       id="path145"
       style=""
       d="m 82.380859,216.41992 h 1.972657 v 6.16211 l 6.542968,-6.16211 h 2.539063 L 86.199219,223.2168 93.953125,231 h -2.597656 l -7.001953,-7.02148 V 231 h -1.972657 z" />
    <path
       id="path147"
       style=""
       d="m 104.24609,216.89844 v 1.92383 q -1.12304,-0.53711 -2.11914,-0.80079 -0.99609,-0.26367 -1.92383,-0.26367 -1.611323,0 -2.490229,0.625 -0.869141,0.625 -0.869141,1.77735 0,0.96679 0.576172,1.46484 0.585937,0.48828 2.207031,0.79102 l 1.191407,0.24414 q 2.20703,0.41992 3.25195,1.48437 1.05469,1.05469 1.05469,2.83203 0,2.11914 -1.42578,3.21289 -1.41602,1.09375 -4.160157,1.09375 -1.035157,0 -2.207032,-0.23437 -1.162109,-0.23438 -2.412109,-0.69336 v -2.03125 q 1.201172,0.67383 2.353516,1.01562 1.152343,0.3418 2.265625,0.3418 1.689457,0 2.607417,-0.66406 0.91797,-0.66406 0.91797,-1.89453 0,-1.07422 -0.66406,-1.67969 -0.6543,-0.60547 -2.1582,-0.9082 l -1.201174,-0.23438 q -2.207032,-0.43945 -3.19336,-1.37695 -0.986328,-0.9375 -0.986328,-2.60742 0,-1.9336 1.357422,-3.04688 1.367188,-1.11328 3.759766,-1.11328 1.025394,0 2.089844,0.18555 1.06445,0.18554 2.17773,0.55664 z" />
    <path
       id="path149"
       style=""
       d="m 106.17969,216.41992 h 12.33398 v 1.66016 h -5.17578 V 231 h -1.98242 v -12.91992 h -5.17578 z" />
    <path
       id="path151"
       style=""
       d="m 130.91602,215.80469 v 17.83203 h -4.14063 v -1.39649 h 2.33399 v -15.03906 h -2.33399 v -1.39648 z" />
  </g>
  <g
     id="text75"
     style="font-size:20px;font-family:'DejaVu Sans', sans-serif;text-anchor:middle;fill:#000000"
     aria-label="[ TEKST ]">
    <path
       id="path154"
       style=""
       d="m 43.074219,283.80469 h 4.140625 v 1.39648 h -2.34375 v 15.03906 h 2.34375 v 1.39649 h -4.140625 z" />
    <path
       id="path156"
       style=""
       d="m 55.476563,284.41992 h 12.333984 v 1.66016 H 62.634766 V 299 h -1.982422 v -12.91992 h -5.175781 z" />
    <path
       id="path158"
       style=""
       d="m 69.724609,284.41992 h 9.21875 v 1.66016 h -7.246093 v 4.3164 h 6.943359 v 1.66016 h -6.943359 v 5.2832 h 7.421875 V 299 h -9.394532 z" />
    <path
       id="path160"
       style=""
       d="m 82.380859,284.41992 h 1.972657 v 6.16211 l 6.542968,-6.16211 h 2.539063 L 86.199219,291.2168 93.953125,299 h -2.597656 l -7.001953,-7.02148 V 299 h -1.972657 z" />
    <path
       id="path162"
       style=""
       d="m 104.24609,284.89844 v 1.92383 q -1.12304,-0.53711 -2.11914,-0.80079 -0.99609,-0.26367 -1.92383,-0.26367 -1.611323,0 -2.490229,0.625 -0.869141,0.625 -0.869141,1.77735 0,0.96679 0.576172,1.46484 0.585937,0.48828 2.207031,0.79102 l 1.191407,0.24414 q 2.20703,0.41992 3.25195,1.48437 1.05469,1.05469 1.05469,2.83203 0,2.11914 -1.42578,3.21289 -1.41602,1.09375 -4.160157,1.09375 -1.035157,0 -2.207032,-0.23437 -1.162109,-0.23438 -2.412109,-0.69336 v -2.03125 q 1.201172,0.67383 2.353516,1.01562 1.152343,0.3418 2.265625,0.3418 1.689457,0 2.607417,-0.66406 0.91797,-0.66406 0.91797,-1.89453 0,-1.07422 -0.66406,-1.67969 -0.6543,-0.60547 -2.1582,-0.9082 l -1.201174,-0.23438 q -2.207032,-0.43945 -3.19336,-1.37695 -0.986328,-0.9375 -0.986328,-2.60742 0,-1.9336 1.357422,-3.04688 1.367188,-1.11328 3.759766,-1.11328 1.025394,0 2.089844,0.18555 1.06445,0.18554 2.17773,0.55664 z" />
    <path
       id="path164"
       style=""
       d="m 106.17969,284.41992 h 12.33398 v 1.66016 h -5.17578 V 299 h -1.98242 v -12.91992 h -5.17578 z" />
    <path
       id="path166"
       style=""
       d="m 130.91602,283.80469 v 17.83203 h -4.14063 v -1.39649 h 2.33399 v -15.03906 h -2.33399 v -1.39648 z" />
  </g>
  <g
     id="text79"
     style="font-size:20px;font-family:'DejaVu Sans', sans-serif;text-anchor:middle;fill:#000000"
     aria-label="[ TEKST ]">
    <path
       id="path169"
       style=""
       d="m 166.07422,138.80469 h 4.14062 v 1.39648 h -2.34375 v 15.03906 h 2.34375 v 1.39649 h -4.14062 z" />
    <path
       id="path171"
       style=""
       d="m 178.47656,139.41992 h 12.33399 v 1.66016 h -5.17578 V 154 h -1.98243 v -12.91992 h -5.17578 z" />
    <path
       id="path173"
       style=""
       d="m 192.72461,139.41992 h 9.21875 v 1.66016 h -7.24609 v 4.3164 h 6.94336 v 1.66016 h -6.94336 v 5.2832 h 7.42187 V 154 h -9.39453 z" />
    <path
       id="path175"
       style=""
       d="m 205.38086,139.41992 h 1.97266 v 6.16211 l 6.54296,-6.16211 h 2.53907 l -7.23633,6.79688 7.75391,7.7832 h -2.59766 l -7.00195,-7.02148 V 154 h -1.97266 z" />
    <path
       id="path177"
       style=""
       d="m 227.24609,139.89844 v 1.92383 q -1.12304,-0.53711 -2.11914,-0.80079 -0.99609,-0.26367 -1.92382,-0.26367 -1.61133,0 -2.49024,0.625 -0.86914,0.625 -0.86914,1.77735 0,0.96679 0.57617,1.46484 0.58594,0.48828 2.20703,0.79102 l 1.19141,0.24414 q 2.20703,0.41992 3.25195,1.48437 1.05469,1.05469 1.05469,2.83203 0,2.11914 -1.42578,3.21289 -1.41602,1.09375 -4.16016,1.09375 -1.03515,0 -2.20703,-0.23437 -1.16211,-0.23438 -2.41211,-0.69336 v -2.03125 q 1.20117,0.67383 2.35352,1.01562 1.15234,0.3418 2.26562,0.3418 1.68946,0 2.60742,-0.66406 0.91797,-0.66406 0.91797,-1.89453 0,-1.07422 -0.66406,-1.67969 -0.6543,-0.60547 -2.1582,-0.9082 l -1.20117,-0.23438 q -2.20704,-0.43945 -3.19336,-1.37695 -0.98633,-0.9375 -0.98633,-2.60742 0,-1.9336 1.35742,-3.04688 1.36719,-1.11328 3.75977,-1.11328 1.02539,0 2.08984,0.18555 1.06445,0.18554 2.17773,0.55664 z" />
    <path
       id="path179"
       style=""
       d="m 229.17969,139.41992 h 12.33398 v 1.66016 h -5.17578 V 154 h -1.98242 v -12.91992 h -5.17578 z" />
    <path
       id="path181"
       style=""
       d="m 253.91602,138.80469 v 17.83203 h -4.14063 v -1.39649 h 2.33399 v -15.03906 h -2.33399 v -1.39648 z" />
  </g>
  <g
     id="text83"
     style="font-size:20px;font-family:'DejaVu Sans', sans-serif;text-anchor:middle;fill:#000000"
     aria-label="[ TEKST ]">
    <path
       id="path184"
       style=""
       d="m 166.07422,215.80469 h 4.14062 v 1.39648 h -2.34375 v 15.03906 h 2.34375 v 1.39649 h -4.14062 z" />
    <path
       id="path186"
       style=""
       d="m 178.47656,216.41992 h 12.33399 v 1.66016 h -5.17578 V 231 h -1.98243 v -12.91992 h -5.17578 z" />
    <path
       id="path188"
       style=""
       d="m 192.72461,216.41992 h 9.21875 v 1.66016 h -7.24609 v 4.3164 h 6.94336 v 1.66016 h -6.94336 v 5.2832 h 7.42187 V 231 h -9.39453 z" />
    <path
       id="path190"
       style=""
       d="m 205.38086,216.41992 h 1.97266 v 6.16211 l 6.54296,-6.16211 h 2.53907 l -7.23633,6.79688 7.75391,7.7832 h -2.59766 l -7.00195,-7.02148 V 231 h -1.97266 z" />
    <path
       id="path192"
       style=""
       d="m 227.24609,216.89844 v 1.92383 q -1.12304,-0.53711 -2.11914,-0.80079 -0.99609,-0.26367 -1.92382,-0.26367 -1.61133,0 -2.49024,0.625 -0.86914,0.625 -0.86914,1.77735 0,0.96679 0.57617,1.46484 0.58594,0.48828 2.20703,0.79102 l 1.19141,0.24414 q 2.20703,0.41992 3.25195,1.48437 1.05469,1.05469 1.05469,2.83203 0,2.11914 -1.42578,3.21289 -1.41602,1.09375 -4.16016,1.09375 -1.03515,0 -2.20703,-0.23437 -1.16211,-0.23438 -2.41211,-0.69336 v -2.03125 q 1.20117,0.67383 2.35352,1.01562 1.15234,0.3418 2.26562,0.3418 1.68946,0 2.60742,-0.66406 0.91797,-0.66406 0.91797,-1.89453 0,-1.07422 -0.66406,-1.67969 -0.6543,-0.60547 -2.1582,-0.9082 l -1.20117,-0.23438 q -2.20704,-0.43945 -3.19336,-1.37695 -0.98633,-0.9375 -0.98633,-2.60742 0,-1.9336 1.35742,-3.04688 1.36719,-1.11328 3.75977,-1.11328 1.02539,0 2.08984,0.18555 1.06445,0.18554 2.17773,0.55664 z" />
    <path
       id="path194"
       style=""
       d="m 229.17969,216.41992 h 12.33398 v 1.66016 h -5.17578 V 231 h -1.98242 v -12.91992 h -5.17578 z" />
    <path
       id="path196"
       style=""
       d="m 253.91602,215.80469 v 17.83203 h -4.14063 v -1.39649 h 2.33399 v -15.03906 h -2.33399 v -1.39648 z" />
  </g>
  <g
     id="text87"
     style="font-size:20px;font-family:'DejaVu Sans', sans-serif;text-anchor:middle;fill:#000000"
     aria-label="[ TEKST ]">
    <path
       id="path199"
       style=""
       d="m 166.07422,283.80469 h 4.14062 v 1.39648 h -2.34375 v 15.03906 h 2.34375 v 1.39649 h -4.14062 z" />
    <path
       id="path201"
       style=""
       d="m 178.47656,284.41992 h 12.33399 v 1.66016 h -5.17578 V 299 h -1.98243 v -12.91992 h -5.17578 z" />
    <path
       id="path203"
       style=""
       d="m 192.72461,284.41992 h 9.21875 v 1.66016 h -7.24609 v 4.3164 h 6.94336 v 1.66016 h -6.94336 v 5.2832 h 7.42187 V 299 h -9.39453 z" />
    <path
       id="path205"
       style=""
       d="m 205.38086,284.41992 h 1.97266 v 6.16211 l 6.54296,-6.16211 h 2.53907 l -7.23633,6.79688 7.75391,7.7832 h -2.59766 l -7.00195,-7.02148 V 299 h -1.97266 z" />
    <path
       id="path207"
       style=""
       d="m 227.24609,284.89844 v 1.92383 q -1.12304,-0.53711 -2.11914,-0.80079 -0.99609,-0.26367 -1.92382,-0.26367 -1.61133,0 -2.49024,0.625 -0.86914,0.625 -0.86914,1.77735 0,0.96679 0.57617,1.46484 0.58594,0.48828 2.20703,0.79102 l 1.19141,0.24414 q 2.20703,0.41992 3.25195,1.48437 1.05469,1.05469 1.05469,2.83203 0,2.11914 -1.42578,3.21289 -1.41602,1.09375 -4.16016,1.09375 -1.03515,0 -2.20703,-0.23437 -1.16211,-0.23438 -2.41211,-0.69336 v -2.03125 q 1.20117,0.67383 2.35352,1.01562 1.15234,0.3418 2.26562,0.3418 1.68946,0 2.60742,-0.66406 0.91797,-0.66406 0.91797,-1.89453 0,-1.07422 -0.66406,-1.67969 -0.6543,-0.60547 -2.1582,-0.9082 l -1.20117,-0.23438 q -2.20704,-0.43945 -3.19336,-1.37695 -0.98633,-0.9375 -0.98633,-2.60742 0,-1.9336 1.35742,-3.04688 1.36719,-1.11328 3.75977,-1.11328 1.02539,0 2.08984,0.18555 1.06445,0.18554 2.17773,0.55664 z" />
    <path
       id="path209"
       style=""
       d="m 229.17969,284.41992 h 12.33398 v 1.66016 h -5.17578 V 299 h -1.98242 v -12.91992 h -5.17578 z" />
    <path
       id="path211"
       style=""
       d="m 253.91602,283.80469 v 17.83203 h -4.14063 v -1.39649 h 2.33399 v -15.03906 h -2.33399 v -1.39648 z" />
  </g>
</svg>
