<?xml version="1.0" encoding="UTF-8" standalone="no"?>
<svg
   xmlns:dc="http://purl.org/dc/elements/1.1/"
   xmlns:cc="http://creativecommons.org/ns#"
   xmlns:rdf="http://www.w3.org/1999/02/22-rdf-syntax-ns#"
   xmlns:svg="http://www.w3.org/2000/svg"
   xmlns="http://www.w3.org/2000/svg"
   id="svg97"
   stroke-miterlimit="10"
   stroke-linecap="square"
   stroke="none"
   fill="none"
   viewBox="0.0 0.0 369.0 801.0"
   version="1.1">
  <metadata
     id="metadata103">
    <rdf:RDF>
      <cc:Work
         rdf:about="">
        <dc:format>image/svg+xml</dc:format>
        <dc:type
           rdf:resource="http://purl.org/dc/dcmitype/StillImage" />
      </cc:Work>
    </rdf:RDF>
  </metadata>
  <defs
     id="defs101" />
  <clipPath
     id="p.0">
    <path
       id="path2"
       clip-rule="nonzero"
       d="m0 0l369.0 0l0 801.0l-369.0 0l0 -801.0z" />
  </clipPath>
  <g
     id="g91"
     clip-path="url(#p.0)">
    <path
       id="path5"
       fill-rule="nonzero"
       d="M 0,0 H 369.1076 V 801.916 H 0 Z"
       fill-opacity="0"
       fill="#000000" />
    <path
       id="path7"
       fill-rule="nonzero"
       d="m 248.5753,444.2651 h 101.4803 v 67.55905 H 248.5753 Z"
       fill="#000000" />
    <path
       id="path9"
       fill-rule="nonzero"
       d="m 248.5753,444.2651 h 101.4803 v 67.55905 H 248.5753 Z"
       stroke-linecap="butt"
       stroke-linejoin="round"
       stroke-width="2"
       stroke="#000000" />
    <path
       id="path11"
       fill-rule="nonzero"
       d="m 289.4047,109.25535 h 67.3071 v 208.0315 h -67.3071 z"
       fill="#ffffff" />
    <path
       id="path13"
       fill-rule="nonzero"
       d="m 289.4047,109.25535 h 67.3071 v 208.0315 h -67.3071 z"
       stroke-linecap="butt"
       stroke-linejoin="round"
       stroke-width="2"
       stroke="#000000" />
    <path
       id="path15"
       fill-rule="nonzero"
       d="M 5.589649,165.38321 H 53.306183 V 273.09973 H 5.589649 Z"
       fill="#ffffff" />
    <path
       id="path17"
       fill-rule="nonzero"
       d="M 5.589649,165.38321 H 53.306183 V 273.09973 H 5.589649 Z"
       stroke-linecap="butt"
       stroke-linejoin="round"
       stroke-width="2"
       stroke="#000000" />
    <path
       id="path19"
       fill-rule="nonzero"
       d="m 278.36172,66.32809 h 68.82806 v 0 c 9.01667,0 16.32611,7.042313 16.32611,15.729446 0,8.687134 -7.30944,15.729446 -16.32611,15.729446 h -68.82806 v 0 c -9.01666,0 -16.32614,-7.042313 -16.32614,-15.729446 0,-8.687134 7.30948,-15.729446 16.32614,-15.729446 z"
       fill="#ffffff" />
    <path
       id="path21"
       fill-rule="nonzero"
       d="m 278.36172,66.32809 h 68.82806 v 0 c 9.01667,0 16.32611,7.042313 16.32611,15.729446 0,8.687134 -7.30944,15.729446 -16.32611,15.729446 h -68.82806 v 0 c -9.01666,0 -16.32614,-7.042313 -16.32614,-15.729446 0,-8.687134 7.30948,-15.729446 16.32614,-15.729446 z"
       stroke-linecap="butt"
       stroke-linejoin="round"
       stroke-width="2"
       stroke="#000000" />
    <path
       id="path23"
       fill-rule="nonzero"
       d="m 12.574803,486.2047 h 67.30708 v 208.0315 h -67.30708 z"
       fill="#ffffff" />
    <path
       id="path25"
       fill-rule="nonzero"
       d="m 12.574803,486.2047 h 67.30708 v 208.0315 h -67.30708 z"
       stroke-linecap="butt"
       stroke-linejoin="round"
       stroke-width="2"
       stroke="#000000" />
    <path
       id="path27"
       fill-rule="nonzero"
       d="m 243.86876,46.650917 h 92.15749 V 384.32022 h -92.15749 z"
       fill="#ffffff" />
    <path
       id="path29"
       fill-rule="nonzero"
       d="m 243.86876,46.650917 h 92.15749 V 384.32022 h -92.15749 z"
       stroke-linecap="butt"
       stroke-linejoin="round"
       stroke-width="2"
       stroke="#000000" />
    <path
       id="path31"
       fill-rule="nonzero"
       d="M 22.658957,122.89764 H 101.74557 V 304.53543 H 22.658957 Z"
       fill="#000000" />
    <path
       id="path33"
       fill-rule="nonzero"
       d="M 22.658957,122.89764 H 101.74557 V 304.53543 H 22.658957 Z"
       stroke-linecap="butt"
       stroke-linejoin="round"
       stroke-width="2"
       stroke="#000000" />
    <path
       id="path35"
       fill-rule="nonzero"
       d="m 22.689058,66.32809 h 68.82809 v 0 c 9.016662,0 16.326122,7.042313 16.326122,15.729446 0,8.687134 -7.30946,15.729446 -16.326122,15.729446 h -68.82809 v 0 c -9.016665,0 -16.326115,-7.042313 -16.326115,-15.729446 0,-8.687134 7.309451,-15.729446 16.326115,-15.729446 z"
       fill="#ffffff" />
    <path
       id="path37"
       fill-rule="nonzero"
       d="m 22.689058,66.32809 h 68.82809 v 0 c 9.016662,0 16.326122,7.042313 16.326122,15.729446 0,8.687134 -7.30946,15.729446 -16.326122,15.729446 h -68.82809 v 0 c -9.016665,0 -16.326115,-7.042313 -16.326115,-15.729446 0,-8.687134 7.309451,-15.729446 16.326115,-15.729446 z"
       stroke-linecap="butt"
       stroke-linejoin="round"
       stroke-width="2"
       stroke="#000000" />
    <path
       id="path39"
       fill-rule="nonzero"
       d="m 22.689058,443.84253 h 68.82809 v 0 c 9.016662,0 16.326122,7.0423 16.326122,15.72943 0,8.68713 -7.30946,15.72946 -16.326122,15.72946 h -68.82809 v 0 c -9.016665,0 -16.326115,-7.04233 -16.326115,-15.72946 0,-8.68713 7.309451,-15.72943 16.326115,-15.72943 z"
       fill="#ffffff" />
    <path
       id="path41"
       fill-rule="nonzero"
       d="m 22.689058,443.84253 h 68.82809 v 0 c 9.016662,0 16.326122,7.0423 16.326122,15.72943 0,8.68713 -7.30946,15.72946 -16.326122,15.72946 h -68.82809 v 0 c -9.016665,0 -16.326115,-7.04233 -16.326115,-15.72946 0,-8.68713 7.309451,-15.72943 16.326115,-15.72943 z"
       stroke-linecap="butt"
       stroke-linejoin="round"
       stroke-width="2"
       stroke="#000000" />
    <path
       id="path43"
       fill-rule="nonzero"
       d="M 31.853674,46.650917 H 86.814306 V 384.32022 H 31.853674 Z"
       fill="#ffffff" />
    <path
       id="path45"
       fill-rule="nonzero"
       d="M 31.853674,46.650917 H 86.814306 V 384.32022 H 31.853674 Z"
       stroke-linecap="butt"
       stroke-linejoin="round"
       stroke-width="2"
       stroke="#000000" />
    <path
       id="path47"
       fill-rule="nonzero"
       d="m 278.36368,443.84253 h 68.82809 v 0 c 9.01667,0 16.32611,7.0423 16.32611,15.72943 0,8.68713 -7.30944,15.72946 -16.32611,15.72946 h -68.82809 v 0 c -9.01666,0 -16.32611,-7.04233 -16.32611,-15.72946 0,-8.68713 7.30945,-15.72943 16.32611,-15.72943 z"
       fill="#ffffff" />
    <path
       id="path49"
       fill-rule="nonzero"
       d="m 278.36368,443.84253 h 68.82809 v 0 c 9.01667,0 16.32611,7.0423 16.32611,15.72943 0,8.68713 -7.30944,15.72946 -16.32611,15.72946 h -68.82809 v 0 c -9.01666,0 -16.32611,-7.04233 -16.32611,-15.72946 0,-8.68713 7.30945,-15.72943 16.32611,-15.72943 z"
       stroke-linecap="butt"
       stroke-linejoin="round"
       stroke-width="2"
       stroke="#000000" />
    <path
       id="path51"
       fill-rule="nonzero"
       d="M 251.84662,615.33795 H 358.49228 V 660.1568 H 251.84662 Z"
       fill="#ffffff" />
    <path
       id="path53"
       fill-rule="nonzero"
       d="M 251.84662,615.33795 H 358.49228 V 660.1568 H 251.84662 Z"
       stroke-linecap="butt"
       stroke-linejoin="round"
       stroke-width="2"
       stroke="#000000" />
    <path
       id="path55"
       fill-rule="nonzero"
       d="m 251.84662,544.1022 h 106.64566 v 44.81891 H 251.84662 Z"
       fill="#ffffff" />
    <path
       id="path57"
       fill-rule="nonzero"
       d="m 251.84662,544.1022 h 106.64566 v 44.81891 H 251.84662 Z"
       stroke-linecap="butt"
       stroke-linejoin="round"
       stroke-width="2"
       stroke="#000000" />
    <path
       id="path59"
       fill-rule="nonzero"
       d="m 251.84662,689.47974 h 106.64566 v 44.81891 H 251.84662 Z"
       fill="#ffffff" />
    <path
       id="path61"
       fill-rule="nonzero"
       d="m 251.84662,689.47974 h 106.64566 v 44.81891 H 251.84662 Z"
       stroke-linecap="butt"
       stroke-linejoin="round"
       stroke-width="2"
       stroke="#000000" />
    <path
       id="path63"
       fill-rule="nonzero"
       d="m 6.361959,517.22833 h 24.88189"
       fill-opacity="0"
       fill="#000000" />
    <path
       id="path65"
       fill-rule="nonzero"
       d="m 6.361959,517.22833 h 24.88189"
       stroke-linecap="butt"
       stroke-linejoin="round"
       stroke-width="2"
       stroke="#000000" />
    <path
       id="path67"
       fill-rule="nonzero"
       d="m 6.361959,569.0379 h 24.88189"
       fill-opacity="0"
       fill="#000000" />
    <path
       id="path69"
       fill-rule="nonzero"
       d="m 6.361959,569.0379 h 24.88189"
       stroke-linecap="butt"
       stroke-linejoin="round"
       stroke-width="2"
       stroke="#000000" />
    <path
       id="path71"
       fill-rule="nonzero"
       d="m 6.361959,616.8954 h 24.88189"
       fill-opacity="0"
       fill="#000000" />
    <path
       id="path73"
       fill-rule="nonzero"
       d="m 6.361959,616.8954 h 24.88189"
       stroke-linecap="butt"
       stroke-linejoin="round"
       stroke-width="2"
       stroke="#000000" />
    <path
       id="path75"
       fill-rule="nonzero"
       d="M 6.361959,673.9764 H 31.999753"
       fill-opacity="0"
       fill="#000000" />
    <path
       id="path77"
       fill-rule="nonzero"
       d="M 6.361959,673.9764 H 31.999753"
       stroke-linecap="butt"
       stroke-linejoin="round"
       stroke-width="2"
       stroke="#000000" />
    <path
       id="path79"
       fill-rule="nonzero"
       d="m 31.85023,423.8084 h 304.1575 V 761.47765 H 31.85023 Z"
       fill="#ffffff" />
    <path
       id="path81"
       fill-rule="nonzero"
       d="m 31.85023,423.8084 h 304.1575 V 761.47765 H 31.85023 Z"
       stroke-linecap="butt"
       stroke-linejoin="round"
       stroke-width="2"
       stroke="#000000" />
    <path
       id="path83"
       fill-rule="nonzero"
       d="M 56.01132,0.9422572 H 312.60974 V 800.97376 H 56.01132 Z"
       fill="#ffffff" />
    <path
       id="path85"
       fill-rule="nonzero"
       d="M 56.01132,0.9422572 H 312.60974 V 800.97376 H 56.01132 Z"
       stroke-linecap="butt"
       stroke-linejoin="round"
       stroke-width="2"
       stroke="#000000" />
    <path
       id="path87"
       fill-rule="nonzero"
       d="M 289.4042,31.199474 V 346.85303 H 221.84513 V 31.199474 Z"
       fill-opacity="0"
       fill="#000000" />
    <path
       id="path89"
       fill-rule="nonzero"
       d="M 289.4042,31.199474 V 386.85303 H 221.84513 V 31.199474 Z"
       stroke-linecap="butt"
       stroke-linejoin="round"
       stroke-width="2"
       stroke="#000000" />
  </g>
  <g
     style="font-size:30px;font-family:'DejaVu Sans', sans-serif;text-anchor:middle;fill:#000000"
     id="text95"
     transform="rotate(90)"
     aria-label="SARJANUMERO">
    <path
       id="path105"
       d="m 115.25781,-266.15234 v 2.88574 q -1.68457,-0.80567 -3.17871,-1.20117 -1.49414,-0.39551 -2.88574,-0.39551 -2.41699,0 -3.73535,0.9375 -1.30371,0.9375 -1.30371,2.66601 0,1.4502 0.86425,2.19727 0.87891,0.73242 3.31055,1.18652 l 1.78711,0.36621 q 3.31055,0.62989 4.87793,2.22657 1.58203,1.58203 1.58203,4.24804 0,3.17871 -2.13867,4.81934 -2.12402,1.64062 -6.24023,1.64062 -1.55274,0 -3.31055,-0.35156 -1.74317,-0.35156 -3.61817,-1.04004 v -3.04687 q 1.80176,1.01074 3.53028,1.52344 1.72851,0.51269 3.39844,0.51269 2.53418,0 3.91113,-0.99609 1.37695,-0.9961 1.37695,-2.8418 0,-1.61133 -0.99609,-2.51953 -0.98145,-0.9082 -3.23731,-1.36231 l -1.80175,-0.35156 q -3.31055,-0.65918 -4.79004,-2.06543 -1.4795,-1.40625 -1.4795,-3.91113 0,-2.90039 2.03614,-4.57031 2.05078,-1.66992 5.63965,-1.66992 1.53808,0 3.13476,0.27832 1.59668,0.27832 3.2666,0.83496 z" />
    <path
       id="path107"
       d="m 129.08594,-263.95508 -4.01367,10.88379 h 8.04199 z m -1.66992,-2.91504 h 3.35449 L 139.10547,-245 h -3.07617 l -1.99219,-5.61035 h -9.8584 L 122.18652,-245 h -3.12011 z" />
    <path
       id="path109"
       d="m 152.65527,-255.25391 q 0.95215,0.32227 1.84571,1.37696 0.9082,1.05468 1.8164,2.90039 L 159.32031,-245 h -3.17871 l -2.79785,-5.61035 q -1.08398,-2.19727 -2.10938,-2.91504 -1.01074,-0.71777 -2.76855,-0.71777 h -3.22266 V -245 h -2.95898 v -21.87012 h 6.67969 q 3.75,0 5.5957,1.56739 1.8457,1.56738 1.8457,4.73144 0,2.06543 -0.96679,3.42774 -0.95215,1.3623 -2.78321,1.88964 z m -7.41211,-9.18457 v 7.76368 h 3.72071 q 2.13867,0 3.22265,-0.98145 1.09864,-0.99609 1.09864,-2.91504 0,-1.91894 -1.09864,-2.88574 -1.08398,-0.98145 -3.22265,-0.98145 z" />
    <path
       id="path111"
       d="m 163.14355,-266.87012 h 2.95899 v 20.34668 q 0,3.95508 -1.50879,5.74219 -1.49414,1.78711 -4.81934,1.78711 h -1.12793 v -2.49023 h 0.92286 q 1.96289,0 2.76855,-1.09864 0.80566,-1.09863 0.80566,-3.94043 z" />
    <path
       id="path113"
       d="m 178.77344,-263.95508 -4.01367,10.88379 h 8.04199 z m -1.66992,-2.91504 h 3.35449 L 188.79297,-245 h -3.07617 l -1.99219,-5.61035 h -9.8584 L 171.87402,-245 h -3.12011 z" />
    <path
       id="path115"
       d="m 191.97168,-266.87012 h 3.98437 l 9.69727,18.2959 v -18.2959 h 2.87109 V -245 h -3.98437 l -9.69727,-18.2959 V -245 h -2.87109 z" />
    <path
       id="path117"
       d="m 214.07617,-266.87012 h 2.97363 v 13.28614 q 0,3.51562 1.27442,5.06836 1.27441,1.53808 4.13086,1.53808 2.84179,0 4.11621,-1.53808 1.27441,-1.55274 1.27441,-5.06836 v -13.28614 h 2.97364 v 13.65235 q 0,4.27734 -2.12403,6.45996 -2.10937,2.18261 -6.24023,2.18261 -4.14551,0 -6.26953,-2.18261 -2.10938,-2.18262 -2.10938,-6.45996 z" />
    <path
       id="path119"
       d="m 236.38574,-266.87012 h 4.40918 l 5.58106,14.88282 5.61035,-14.88282 h 4.40918 V -245 h -2.88574 v -19.2041 l -5.63965,15 h -2.97364 l -5.63964,-15 V -245 h -2.8711 z" />
    <path
       id="path121"
       d="m 262.28418,-266.87012 h 13.82812 v 2.49024 h -10.86914 v 6.47461 h 10.41504 v 2.49023 h -10.41504 v 7.92481 h 11.13282 V -245 h -14.0918 z" />
    <path
       id="path123"
       d="m 291.63965,-255.25391 q 0.95215,0.32227 1.8457,1.37696 0.9082,1.05468 1.81641,2.90039 L 298.30469,-245 h -3.17871 l -2.79786,-5.61035 q -1.08398,-2.19727 -2.10937,-2.91504 -1.01074,-0.71777 -2.76855,-0.71777 h -3.22266 V -245 h -2.95899 v -21.87012 h 6.67969 q 3.75,0 5.59571,1.56739 1.8457,1.56738 1.8457,4.73144 0,2.06543 -0.9668,3.42774 -0.95215,1.3623 -2.7832,1.88964 z m -7.41211,-9.18457 v 7.76368 h 3.7207 q 2.13867,0 3.22266,-0.98145 1.09863,-0.99609 1.09863,-2.91504 0,-1.91894 -1.09863,-2.88574 -1.08399,-0.98145 -3.22266,-0.98145 z" />
    <path
       id="path125"
       d="m 311.00488,-264.86328 q -3.22265,0 -5.12695,2.40234 -1.88965,2.40235 -1.88965,6.54785 0,4.13086 1.88965,6.53321 1.9043,2.40234 5.12695,2.40234 3.22266,0 5.09766,-2.40234 1.88965,-2.40235 1.88965,-6.53321 0,-4.1455 -1.88965,-6.54785 -1.875,-2.40234 -5.09766,-2.40234 z m 0,-2.40234 q 4.59961,0 7.35352,3.09082 2.7539,3.07617 2.7539,8.26171 0,5.1709 -2.7539,8.26172 -2.75391,3.07617 -7.35352,3.07617 -4.61426,0 -7.38281,-3.07617 -2.75391,-3.07617 -2.75391,-8.26172 0,-5.18554 2.75391,-8.26171 2.76855,-3.09082 7.38281,-3.09082 z" />
  </g>
</svg>
