<?xml version="1.0" encoding="UTF-8" standalone="no"?>
<svg
   xmlns:dc="http://purl.org/dc/elements/1.1/"
   xmlns:cc="http://creativecommons.org/ns#"
   xmlns:rdf="http://www.w3.org/1999/02/22-rdf-syntax-ns#"
   xmlns:svg="http://www.w3.org/2000/svg"
   xmlns="http://www.w3.org/2000/svg"
   id="svg95"
   stroke-miterlimit="10"
   stroke-linecap="square"
   stroke="none"
   fill="none"
   viewBox="0.0 0.0 348.0 348.0"
   version="1.1">
  <metadata
     id="metadata101">
    <rdf:RDF>
      <cc:Work
         rdf:about="">
        <dc:format>image/svg+xml</dc:format>
        <dc:type
           rdf:resource="http://purl.org/dc/dcmitype/StillImage" />
      </cc:Work>
    </rdf:RDF>
  </metadata>
  <defs
     id="defs99" />
  <clipPath
     id="p.0">
    <path
       id="path2"
       clip-rule="nonzero"
       d="m0 0l348.0 0l0 348.0l-348.0 0l0 -348.0z" />
  </clipPath>
  <g
     id="g81"
     clip-path="url(#p.0)">
    <path
       style="fill:#000000;fill-opacity:0;fill-rule:nonzero"
       id="path5"
       d="M 0,0 H 348 V 348 H 0 Z" />
    <path
       style="fill:#ffffff;fill-rule:nonzero"
       id="path7"
       d="M -6,0 H 348.01575 V 347.9685 H -6 Z" />
    <path
       style="fill:#000000;fill-opacity:0;fill-rule:nonzero"
       id="path9"
       d="m 5.07874,5.7758217 h 336.9134 V 343.44512 H 5.07874 Z" />
    <path
       style="fill-rule:nonzero;stroke:#000000;stroke-width:2;stroke-linecap:butt;stroke-linejoin:round"
       id="path11"
       d="m 5.07874,5.7758217 h 336.9134 V 343.44512 H 5.07874 Z" />
    <path
       style="fill:#000000;fill-rule:nonzero"
       id="path13"
       d="m 133.84251,15.666667 h 74.33072 v 56.881886 h -74.33072 z" />
    <path
       style="fill:#ffffff;fill-rule:nonzero"
       id="path15"
       d="m 154.53912,44.089794 q 0,-4.0625 0.82812,-6.53125 0.84375,-2.484375 2.48438,-3.828125 1.65625,-1.34375 4.15625,-1.34375 1.84375,0 3.23437,0.75 1.39063,0.734375 2.29688,2.140625 0.90625,1.390625 1.42187,3.40625 0.51563,2 0.51563,5.40625 0,4.03125 -0.82813,6.515625 -0.82812,2.46875 -2.48437,3.828125 -1.64063,1.34375 -4.15625,1.34375 -3.3125,0 -5.20313,-2.375 -2.26562,-2.859375 -2.26562,-9.3125 z m 2.89062,0 q 0,5.640625 1.3125,7.515625 1.32813,1.859375 3.26563,1.859375 1.9375,0 3.25,-1.875 1.32812,-1.875 1.32812,-7.5 0,-5.65625 -1.32812,-7.515625 -1.3125,-1.859375 -3.28125,-1.859375 -1.9375,0 -3.09375,1.640625 -1.45313,2.09375 -1.45313,7.734375 z m 14.90625,0 q 0,-4.0625 0.82813,-6.53125 0.84375,-2.484375 2.48437,-3.828125 1.65625,-1.34375 4.15625,-1.34375 1.84375,0 3.23438,0.75 1.39062,0.734375 2.29687,2.140625 0.90625,1.390625 1.42188,3.40625 0.51562,2 0.51562,5.40625 0,4.03125 -0.82812,6.515625 -0.82813,2.46875 -2.48438,3.828125 -1.64062,1.34375 -4.15625,1.34375 -3.3125,0 -5.20312,-2.375 -2.26563,-2.859375 -2.26563,-9.3125 z m 2.89063,0 q 0,5.640625 1.3125,7.515625 1.32812,1.859375 3.26562,1.859375 1.9375,0 3.25,-1.875 1.32813,-1.875 1.32813,-7.5 0,-5.65625 -1.32813,-7.515625 -1.3125,-1.859375 -3.28125,-1.859375 -1.9375,0 -3.09375,1.640625 -1.45312,2.09375 -1.45312,7.734375 z" />
    <path
       style="fill:#ffffff;fill-rule:nonzero"
       id="path17"
       d="M 15.262467,17.706038 H 125.15223 v 54.83464 H 15.262467 Z" />
    <path
       style="fill-rule:nonzero;stroke:#000000;stroke-width:2;stroke-linecap:butt;stroke-linejoin:round"
       id="path19"
       d="M 15.262467,17.706038 H 125.15223 v 54.83464 H 15.262467 Z" />
    <path
       style="fill:#000000;fill-opacity:0;fill-rule:nonzero"
       id="path21"
       d="M 15.262467,72.65354 54.947507,18.5748" />
    <path
       style="fill-rule:nonzero;stroke:#000000;stroke-width:2;stroke-linecap:butt;stroke-linejoin:round"
       id="path23"
       d="M 15.262467,72.65354 54.947507,18.5748" />
    <path
       style="fill:#000000;fill-opacity:0;fill-rule:nonzero"
       id="path25"
       d="M 37.56649,72.65354 77.251533,18.5748" />
    <path
       style="fill-rule:nonzero;stroke:#000000;stroke-width:2;stroke-linecap:butt;stroke-linejoin:round"
       id="path27"
       d="M 37.56649,72.65354 77.251533,18.5748" />
    <path
       style="fill:#000000;fill-opacity:0;fill-rule:nonzero"
       id="path29"
       d="M 59.870514,72.65354 99.555557,18.5748" />
    <path
       style="fill-rule:nonzero;stroke:#000000;stroke-width:2;stroke-linecap:butt;stroke-linejoin:round"
       id="path31"
       d="M 59.870514,72.65354 99.555557,18.5748" />
    <path
       style="fill:#000000;fill-opacity:0;fill-rule:nonzero"
       id="path33"
       d="M 82.17454,72.65354 121.85958,18.5748" />
    <path
       style="fill-rule:nonzero;stroke:#000000;stroke-width:2;stroke-linecap:butt;stroke-linejoin:round"
       id="path35"
       d="M 82.17454,72.65354 121.85958,18.5748" />
    <path
       style="fill:#ffffff;fill-rule:nonzero"
       id="path37"
       d="M 32.97638,83.031494 H 315.02362 V 325.3937 H 32.97638 Z" />
    <path
       style="fill-rule:nonzero;stroke:#000000;stroke-width:2;stroke-linecap:butt;stroke-linejoin:round"
       id="path39"
       d="M 32.97638,83.031494 H 315.02362 V 325.3937 H 32.97638 Z" />
    <path
       style="fill:#ffffff;fill-rule:nonzero"
       id="path41"
       d="m 216.86351,16.633858 h 109.88975 v 54.83465 H 216.86351 Z" />
    <path
       style="fill-rule:nonzero;stroke:#000000;stroke-width:2;stroke-linecap:butt;stroke-linejoin:round"
       id="path43"
       d="m 216.86351,16.633858 h 109.88975 v 54.83465 H 216.86351 Z" />
    <path
       style="fill:#000000;fill-opacity:0;fill-rule:nonzero"
       id="path45"
       d="M 216.86351,71.58137 256.54855,17.502627" />
    <path
       style="fill-rule:nonzero;stroke:#000000;stroke-width:2;stroke-linecap:butt;stroke-linejoin:round"
       id="path47"
       d="M 216.86351,71.58137 256.54855,17.502627" />
    <path
       style="fill:#000000;fill-opacity:0;fill-rule:nonzero"
       id="path49"
       d="M 239.16754,71.58137 278.85257,17.502627" />
    <path
       style="fill-rule:nonzero;stroke:#000000;stroke-width:2;stroke-linecap:butt;stroke-linejoin:round"
       id="path51"
       d="M 239.16754,71.58137 278.85257,17.502627" />
    <path
       style="fill:#000000;fill-opacity:0;fill-rule:nonzero"
       id="path53"
       d="M 261.47156,71.58137 301.15662,17.502627" />
    <path
       style="fill-rule:nonzero;stroke:#000000;stroke-width:2;stroke-linecap:butt;stroke-linejoin:round"
       id="path55"
       d="M 261.47156,71.58137 301.15662,17.502627" />
    <path
       style="fill:#000000;fill-opacity:0;fill-rule:nonzero"
       id="path57"
       d="M 283.7756,71.58137 323.46063,17.502627" />
    <path
       style="fill-rule:nonzero;stroke:#000000;stroke-width:2;stroke-linecap:butt;stroke-linejoin:round"
       id="path59"
       d="M 283.7756,71.58137 323.46063,17.502627" />
    <path
       style="fill:#000000;fill-rule:nonzero"
       id="path61"
       d="M 44.490814,88.11811 H 303.48294 V 252.05512 H 44.490814 Z" />
    <path
       style="fill-rule:nonzero;stroke:#000000;stroke-width:1;stroke-linecap:butt;stroke-linejoin:round"
       id="path63"
       d="m 113.77165,267.51697 h 49.25984 v 45.48032 h -49.25984 z" />
    <path
       style="fill:#000000;fill-opacity:0;fill-rule:nonzero"
       id="path65"
       d="m 182.79527,267.51697 h 49.25984 v 45.48032 h -49.25984 z" />
    <path
       style="fill-rule:nonzero;stroke:#000000;stroke-width:1;stroke-linecap:butt;stroke-linejoin:round"
       id="path67"
       d="m 182.79527,267.51697 h 49.25984 v 45.48032 h -49.25984 z" />
    <path
       style="fill:#ffffff;fill-rule:nonzero"
       id="path69"
       d="m 260.08136,270.74014 h 36.72443 v 25.63782 h -36.72443 z" />
    <path
       style="fill-rule:nonzero;stroke:#000000;stroke-width:2;stroke-linecap:butt;stroke-linejoin:round"
       id="path71"
       d="m 260.08136,270.74014 h 36.72443 v 25.63782 h -36.72443 z" />
    <path
       style="fill:#ffffff;fill-rule:nonzero"
       id="path73"
       d="m 265.46457,305.50656 v 0 c 0,-2.35699 1.91071,-4.26773 4.2677,-4.26773 v 0 c 1.1319,0 2.21741,0.44965 3.01773,1.25 0.80035,0.80035 1.25,1.88586 1.25,3.01773 v 0 c 0,2.35699 -1.91074,4.26773 -4.26773,4.26773 v 0 c -2.35699,0 -4.2677,-1.91074 -4.2677,-4.26773 z" />
    <path
       style="fill-rule:nonzero;stroke:#000000;stroke-width:2;stroke-linecap:butt;stroke-linejoin:round"
       id="path75"
       d="m 265.46457,305.50656 v 0 c 0,-2.35699 1.91071,-4.26773 4.2677,-4.26773 v 0 c 1.1319,0 2.21741,0.44965 3.01773,1.25 0.80035,0.80035 1.25,1.88586 1.25,3.01773 v 0 c 0,2.35699 -1.91074,4.26773 -4.26773,4.26773 v 0 c -2.35699,0 -4.2677,-1.91074 -4.2677,-4.26773 z" />
    <path
       style="fill:#ffffff;fill-rule:nonzero"
       id="path77"
       d="m 282.8084,305.50656 v 0 c 0,-2.35699 1.91071,-4.26773 4.2677,-4.26773 v 0 c 1.13187,0 2.21738,0.44965 3.01773,1.25 0.80035,0.80035 1.25,1.88586 1.25,3.01773 v 0 c 0,2.35699 -1.91074,4.26773 -4.26773,4.26773 v 0 c -2.35699,0 -4.2677,-1.91074 -4.2677,-4.26773 z" />
    <path
       style="fill-rule:nonzero;stroke:#000000;stroke-width:2;stroke-linecap:butt;stroke-linejoin:round"
       id="path79"
       d="m 282.8084,305.50656 v 0 c 0,-2.35699 1.91071,-4.26773 4.2677,-4.26773 v 0 c 1.13187,0 2.21738,0.44965 3.01773,1.25 0.80035,0.80035 1.25,1.88586 1.25,3.01773 v 0 c 0,2.35699 -1.91074,4.26773 -4.26773,4.26773 v 0 c -2.35699,0 -4.2677,-1.91074 -4.2677,-4.26773 z" />
  </g>
  <g
     id="text85"
     style="font-size:42px;font-family:'DejaVu Sans', sans-serif;text-anchor:middle;fill:#ffffff"
     aria-label="[ TESTO ]">
    <path
       id="path103"
       style=""
       d="m 79.007813,106.08984 h 8.695312 v 2.93262 H 82.78125 v 31.58203 h 4.921875 v 2.93262 h -8.695312 z" />
    <path
       id="path105"
       style=""
       d="m 105.05273,107.38184 h 25.90137 v 3.48632 H 120.08496 V 138 h -4.16309 v -27.13184 h -10.86914 z" />
    <path
       id="path107"
       style=""
       d="m 134.97363,107.38184 h 19.35938 v 3.48632 h -15.2168 v 9.06446 h 14.58106 v 3.48633 h -14.58106 v 11.09472 h 15.58594 V 138 h -19.72852 z" />
    <path
       id="path109"
       style=""
       d="m 179.90625,108.38672 v 4.04004 q -2.3584,-1.12793 -4.4502,-1.68164 -2.09179,-0.55371 -4.04003,-0.55371 -3.38379,0 -5.2295,1.3125 -1.82519,1.3125 -1.82519,3.73242 0,2.03027 1.20996,3.07617 1.23047,1.02539 4.63476,1.66113 l 2.50196,0.5127 q 4.63476,0.88183 6.8291,3.11719 2.21484,2.21484 2.21484,5.94726 0,4.4502 -2.99414,6.74707 -2.97363,2.29688 -8.73633,2.29688 -2.17382,0 -4.63476,-0.49219 -2.44043,-0.49219 -5.06543,-1.45606 v -4.26562 q 2.52246,1.41504 4.94238,2.13281 2.41992,0.71778 4.75781,0.71778 3.54786,0 5.47559,-1.39454 1.92773,-1.39453 1.92773,-3.97851 0,-2.25586 -1.39453,-3.52735 -1.37402,-1.27148 -4.53222,-1.90722 l -2.52246,-0.49219 q -4.63477,-0.92285 -6.70606,-2.8916 -2.07129,-1.96875 -2.07129,-5.47559 0,-4.06054 2.85059,-6.39843 2.87109,-2.3379 7.89551,-2.3379 2.15332,0 4.38867,0.38965 2.23535,0.38965 4.57324,1.16895 z" />
    <path
       id="path111"
       style=""
       d="m 183.9668,107.38184 h 25.90136 v 3.48632 H 198.99902 V 138 h -4.16308 V 110.86816 H 183.9668 Z" />
    <path
       id="path113"
       style=""
       d="m 226.31543,110.19141 q -4.51172,0 -7.17773,3.36328 -2.64551,3.36328 -2.64551,9.16699 0,5.7832 2.64551,9.14648 2.66601,3.36329 7.17773,3.36329 4.51172,0 7.13672,-3.36329 2.64551,-3.36328 2.64551,-9.14648 0,-5.80371 -2.64551,-9.16699 -2.625,-3.36328 -7.13672,-3.36328 z m 0,-3.36329 q 6.43945,0 10.29492,4.32715 3.85547,4.30664 3.85547,11.56641 0,7.23926 -3.85547,11.56641 -3.85547,4.30664 -10.29492,4.30664 -6.45996,0 -10.33594,-4.30664 -3.85547,-4.30664 -3.85547,-11.56641 0,-7.25977 3.85547,-11.56641 3.87598,-4.32715 10.33594,-4.32715 z" />
    <path
       id="path115"
       style=""
       d="m 268.97168,106.08984 v 37.44727 h -8.69531 v -2.93262 h 4.90136 v -31.58203 h -4.90136 v -2.93262 z" />
  </g>
  <g
     id="text89"
     style="font-size:24px;font-family:'DejaVu Sans', sans-serif;text-anchor:middle;fill:#000000"
     aria-label="S">
    <path
       id="path118"
       style=""
       d="m 143.22656,280.07813 v 2.30859 q -1.34765,-0.64453 -2.54297,-0.96094 -1.19531,-0.3164 -2.30859,-0.3164 -1.93359,0 -2.98828,0.75 -1.04297,0.75 -1.04297,2.13281 0,1.16015 0.69141,1.75781 0.70312,0.58594 2.64843,0.94922 l 1.42969,0.29297 q 2.64844,0.5039 3.90235,1.78125 1.26562,1.26562 1.26562,3.39844 0,2.54296 -1.71094,3.85546 -1.69922,1.3125 -4.99218,1.3125 -1.24219,0 -2.64844,-0.28125 -1.39453,-0.28125 -2.89453,-0.83203 v -2.4375 q 1.4414,0.8086 2.82422,1.21875 1.38281,0.41016 2.71875,0.41016 2.02734,0 3.1289,-0.79688 1.10156,-0.79687 1.10156,-2.27343 0,-1.28907 -0.79687,-2.01563 -0.78516,-0.72656 -2.58984,-1.08984 l -1.44141,-0.28125 q -2.64844,-0.52735 -3.83203,-1.65235 -1.1836,-1.125 -1.1836,-3.1289 0,-2.32031 1.62891,-3.65625 1.64063,-1.33594 4.51172,-1.33594 1.23047,0 2.50781,0.22266 1.27735,0.22265 2.61328,0.66797 z" />
  </g>
  <g
     id="text93"
     style="font-size:24px;font-family:'DejaVu Sans', sans-serif;text-anchor:middle;fill:#000000"
     aria-label="N">
    <path
       id="path121"
       style=""
       d="m 201.37891,279.50391 h 3.1875 l 7.75781,14.63672 v -14.63672 h 2.29687 V 297 h -3.1875 l -7.75781,-14.63672 V 297 h -2.29687 z" />
  </g>
</svg>
