<?xml version="1.0" encoding="UTF-8" standalone="no"?>
<svg
   xmlns:dc="http://purl.org/dc/elements/1.1/"
   xmlns:cc="http://creativecommons.org/ns#"
   xmlns:rdf="http://www.w3.org/1999/02/22-rdf-syntax-ns#"
   xmlns:svg="http://www.w3.org/2000/svg"
   xmlns="http://www.w3.org/2000/svg"
   id="svg97"
   stroke-miterlimit="10"
   stroke-linecap="square"
   stroke="none"
   fill="none"
   viewBox="0.0 0.0 369.0 801.0"
   version="1.1">
  <metadata
     id="metadata103">
    <rdf:RDF>
      <cc:Work
         rdf:about="">
        <dc:format>image/svg+xml</dc:format>
        <dc:type
           rdf:resource="http://purl.org/dc/dcmitype/StillImage" />
      </cc:Work>
    </rdf:RDF>
  </metadata>
  <defs
     id="defs101" />
  <clipPath
     id="p.0">
    <path
       id="path2"
       clip-rule="nonzero"
       d="m0 0l369.0 0l0 801.0l-369.0 0l0 -801.0z" />
  </clipPath>
  <g
     id="g91"
     clip-path="url(#p.0)">
    <path
       style="fill:#000000;fill-opacity:0;fill-rule:nonzero"
       id="path5"
       d="M 0,0 H 369.1076 V 801.916 H 0 Z" />
    <path
       style="fill:#000000;fill-rule:nonzero"
       id="path7"
       d="m 248.5753,444.2651 h 101.4803 v 67.55905 H 248.5753 Z" />
    <path
       style="fill-rule:nonzero;stroke:#000000;stroke-width:2;stroke-linecap:butt;stroke-linejoin:round"
       id="path9"
       d="m 248.5753,444.2651 h 101.4803 v 67.55905 H 248.5753 Z" />
    <path
       style="fill:#ffffff;fill-rule:nonzero"
       id="path11"
       d="m 289.4047,109.25535 h 67.3071 v 208.0315 h -67.3071 z" />
    <path
       style="fill-rule:nonzero;stroke:#000000;stroke-width:2;stroke-linecap:butt;stroke-linejoin:round"
       id="path13"
       d="m 289.4047,109.25535 h 67.3071 v 208.0315 h -67.3071 z" />
    <path
       style="fill:#ffffff;fill-rule:nonzero"
       id="path15"
       d="M 5.589649,165.38321 H 53.306183 V 273.09973 H 5.589649 Z" />
    <path
       style="fill-rule:nonzero;stroke:#000000;stroke-width:2;stroke-linecap:butt;stroke-linejoin:round"
       id="path17"
       d="M 5.589649,165.38321 H 53.306183 V 273.09973 H 5.589649 Z" />
    <path
       style="fill:#ffffff;fill-rule:nonzero"
       id="path19"
       d="m 278.36172,66.32809 h 68.82806 v 0 c 9.01667,0 16.32611,7.042313 16.32611,15.729446 0,8.687134 -7.30944,15.729446 -16.32611,15.729446 h -68.82806 v 0 c -9.01666,0 -16.32614,-7.042313 -16.32614,-15.729446 0,-8.687134 7.30948,-15.729446 16.32614,-15.729446 z" />
    <path
       style="fill-rule:nonzero;stroke:#000000;stroke-width:2;stroke-linecap:butt;stroke-linejoin:round"
       id="path21"
       d="m 278.36172,66.32809 h 68.82806 v 0 c 9.01667,0 16.32611,7.042313 16.32611,15.729446 0,8.687134 -7.30944,15.729446 -16.32611,15.729446 h -68.82806 v 0 c -9.01666,0 -16.32614,-7.042313 -16.32614,-15.729446 0,-8.687134 7.30948,-15.729446 16.32614,-15.729446 z" />
    <path
       style="fill:#ffffff;fill-rule:nonzero"
       id="path23"
       d="m 12.574803,486.2047 h 67.30708 v 208.0315 h -67.30708 z" />
    <path
       style="fill-rule:nonzero;stroke:#000000;stroke-width:2;stroke-linecap:butt;stroke-linejoin:round"
       id="path25"
       d="m 12.574803,486.2047 h 67.30708 v 208.0315 h -67.30708 z" />
    <path
       style="fill:#ffffff;fill-rule:nonzero"
       id="path27"
       d="m 243.86876,46.650917 h 92.15749 V 384.32022 h -92.15749 z" />
    <path
       style="fill-rule:nonzero;stroke:#000000;stroke-width:2;stroke-linecap:butt;stroke-linejoin:round"
       id="path29"
       d="m 243.86876,46.650917 h 92.15749 V 384.32022 h -92.15749 z" />
    <path
       style="fill:#000000;fill-rule:nonzero"
       id="path31"
       d="M 22.658957,122.89764 H 101.74557 V 304.53543 H 22.658957 Z" />
    <path
       style="fill-rule:nonzero;stroke:#000000;stroke-width:2;stroke-linecap:butt;stroke-linejoin:round"
       id="path33"
       d="M 22.658957,122.89764 H 101.74557 V 304.53543 H 22.658957 Z" />
    <path
       style="fill:#ffffff;fill-rule:nonzero"
       id="path35"
       d="m 22.689058,66.32809 h 68.82809 v 0 c 9.016662,0 16.326122,7.042313 16.326122,15.729446 0,8.687134 -7.30946,15.729446 -16.326122,15.729446 h -68.82809 v 0 c -9.016665,0 -16.326115,-7.042313 -16.326115,-15.729446 0,-8.687134 7.309451,-15.729446 16.326115,-15.729446 z" />
    <path
       style="fill-rule:nonzero;stroke:#000000;stroke-width:2;stroke-linecap:butt;stroke-linejoin:round"
       id="path37"
       d="m 22.689058,66.32809 h 68.82809 v 0 c 9.016662,0 16.326122,7.042313 16.326122,15.729446 0,8.687134 -7.30946,15.729446 -16.326122,15.729446 h -68.82809 v 0 c -9.016665,0 -16.326115,-7.042313 -16.326115,-15.729446 0,-8.687134 7.309451,-15.729446 16.326115,-15.729446 z" />
    <path
       style="fill:#ffffff;fill-rule:nonzero"
       id="path39"
       d="m 22.689058,443.84253 h 68.82809 v 0 c 9.016662,0 16.326122,7.0423 16.326122,15.72943 0,8.68714 -7.30946,15.72946 -16.326122,15.72946 h -68.82809 v 0 c -9.016665,0 -16.326115,-7.04232 -16.326115,-15.72946 0,-8.68713 7.309451,-15.72943 16.326115,-15.72943 z" />
    <path
       style="fill-rule:nonzero;stroke:#000000;stroke-width:2;stroke-linecap:butt;stroke-linejoin:round"
       id="path41"
       d="m 22.689058,443.84253 h 68.82809 v 0 c 9.016662,0 16.326122,7.0423 16.326122,15.72943 0,8.68714 -7.30946,15.72946 -16.326122,15.72946 h -68.82809 v 0 c -9.016665,0 -16.326115,-7.04232 -16.326115,-15.72946 0,-8.68713 7.309451,-15.72943 16.326115,-15.72943 z" />
    <path
       style="fill:#ffffff;fill-rule:nonzero"
       id="path43"
       d="M 31.853674,46.650917 H 86.814306 V 384.32022 H 31.853674 Z" />
    <path
       style="fill-rule:nonzero;stroke:#000000;stroke-width:2;stroke-linecap:butt;stroke-linejoin:round"
       id="path45"
       d="M 31.853674,46.650917 H 86.814306 V 384.32022 H 31.853674 Z" />
    <path
       style="fill:#ffffff;fill-rule:nonzero"
       id="path47"
       d="m 278.36368,443.84253 h 68.82809 v 0 c 9.01667,0 16.32611,7.0423 16.32611,15.72943 0,8.68714 -7.30944,15.72946 -16.32611,15.72946 h -68.82809 v 0 c -9.01666,0 -16.32611,-7.04232 -16.32611,-15.72946 0,-8.68713 7.30945,-15.72943 16.32611,-15.72943 z" />
    <path
       style="fill-rule:nonzero;stroke:#000000;stroke-width:2;stroke-linecap:butt;stroke-linejoin:round"
       id="path49"
       d="m 278.36368,443.84253 h 68.82809 v 0 c 9.01667,0 16.32611,7.0423 16.32611,15.72943 0,8.68714 -7.30944,15.72946 -16.32611,15.72946 h -68.82809 v 0 c -9.01666,0 -16.32611,-7.04232 -16.32611,-15.72946 0,-8.68713 7.30945,-15.72943 16.32611,-15.72943 z" />
    <path
       style="fill:#ffffff;fill-rule:nonzero"
       id="path51"
       d="M 251.84662,615.33795 H 358.49228 V 660.1568 H 251.84662 Z" />
    <path
       style="fill-rule:nonzero;stroke:#000000;stroke-width:2;stroke-linecap:butt;stroke-linejoin:round"
       id="path53"
       d="M 251.84662,615.33795 H 358.49228 V 660.1568 H 251.84662 Z" />
    <path
       style="fill:#ffffff;fill-rule:nonzero"
       id="path55"
       d="m 251.84662,544.1022 h 106.64566 v 44.81891 H 251.84662 Z" />
    <path
       style="fill-rule:nonzero;stroke:#000000;stroke-width:2;stroke-linecap:butt;stroke-linejoin:round"
       id="path57"
       d="m 251.84662,544.1022 h 106.64566 v 44.81891 H 251.84662 Z" />
    <path
       style="fill:#ffffff;fill-rule:nonzero"
       id="path59"
       d="m 251.84662,689.47974 h 106.64566 v 44.81891 H 251.84662 Z" />
    <path
       style="fill-rule:nonzero;stroke:#000000;stroke-width:2;stroke-linecap:butt;stroke-linejoin:round"
       id="path61"
       d="m 251.84662,689.47974 h 106.64566 v 44.81891 H 251.84662 Z" />
    <path
       style="fill:#000000;fill-opacity:0;fill-rule:nonzero"
       id="path63"
       d="m 6.361959,517.22833 h 24.88189" />
    <path
       style="fill-rule:nonzero;stroke:#000000;stroke-width:2;stroke-linecap:butt;stroke-linejoin:round"
       id="path65"
       d="m 6.361959,517.22833 h 24.88189" />
    <path
       style="fill:#000000;fill-opacity:0;fill-rule:nonzero"
       id="path67"
       d="m 6.361959,569.0379 h 24.88189" />
    <path
       style="fill-rule:nonzero;stroke:#000000;stroke-width:2;stroke-linecap:butt;stroke-linejoin:round"
       id="path69"
       d="m 6.361959,569.0379 h 24.88189" />
    <path
       style="fill:#000000;fill-opacity:0;fill-rule:nonzero"
       id="path71"
       d="m 6.361959,616.8954 h 24.88189" />
    <path
       style="fill-rule:nonzero;stroke:#000000;stroke-width:2;stroke-linecap:butt;stroke-linejoin:round"
       id="path73"
       d="m 6.361959,616.8954 h 24.88189" />
    <path
       style="fill:#000000;fill-opacity:0;fill-rule:nonzero"
       id="path75"
       d="M 6.361959,673.9764 H 31.999753" />
    <path
       style="fill-rule:nonzero;stroke:#000000;stroke-width:2;stroke-linecap:butt;stroke-linejoin:round"
       id="path77"
       d="M 6.361959,673.9764 H 31.999753" />
    <path
       style="fill:#ffffff;fill-rule:nonzero"
       id="path79"
       d="m 31.85023,423.8084 h 304.1575 V 761.47765 H 31.85023 Z" />
    <path
       style="fill-rule:nonzero;stroke:#000000;stroke-width:2;stroke-linecap:butt;stroke-linejoin:round"
       id="path81"
       d="m 31.85023,423.8084 h 304.1575 V 761.47765 H 31.85023 Z" />
    <path
       style="fill:#ffffff;fill-rule:nonzero"
       id="path83"
       d="M 56.01132,0.9422572 H 312.60974 V 800.97376 H 56.01132 Z" />
    <path
       style="fill-rule:nonzero;stroke:#000000;stroke-width:2;stroke-linecap:butt;stroke-linejoin:round"
       id="path85"
       d="M 56.01132,0.9422572 H 312.60974 V 800.97376 H 56.01132 Z" />
    <path
       style="fill:#000000;fill-opacity:0;fill-rule:nonzero"
       id="path87"
       d="M 289.4042,31.199474 V 346.85303 H 221.84513 V 31.199474 Z" />
    <path
       style="fill-rule:nonzero;stroke:#000000;stroke-width:2;stroke-linecap:butt;stroke-linejoin:round"
       id="path89"
       d="M 289.4042,31.199474 V 386.85303 H 221.84513 V 31.199474 Z" />
  </g>
  <g
     id="text95"
     style="font-size:30px;font-family:'DejaVu Sans', sans-serif;text-anchor:middle;fill:#000000"
     transform="rotate(90)"
     aria-label="[СЕРИЙНЫЙ №]">
    <path
       id="path105"
       style=""
       d="m 94.251953,-267.79297 h 6.210937 v 2.09473 h -3.515624 v 22.55859 h 3.515624 v 2.09473 h -6.210937 z" />
    <path
       id="path107"
       style=""
       d="m 122.71387,-265.18555 v 3.12012 q -1.49414,-1.3916 -3.19336,-2.08008 -1.68457,-0.68847 -3.58887,-0.68847 -3.75,0 -5.74219,2.2998 -1.99218,2.28516 -1.99218,6.62109 0,4.32129 1.99218,6.6211 1.99219,2.28515 5.74219,2.28515 1.9043,0 3.58887,-0.68847 1.69922,-0.68848 3.19336,-2.08008 v 3.09082 q -1.55274,1.05469 -3.2959,1.58203 -1.72852,0.52734 -3.66211,0.52734 -4.96582,0 -7.82227,-3.03222 -2.85644,-3.04688 -2.85644,-8.30567 0,-5.27343 2.85644,-8.30566 2.85645,-3.04688 7.82227,-3.04688 1.96289,0 3.69141,0.52735 1.74316,0.51269 3.2666,1.55273 z" />
    <path
       id="path109"
       style=""
       d="m 127.31348,-266.87012 h 13.82812 v 2.49024 h -10.86914 v 6.47461 h 10.41504 v 2.49023 h -10.41504 v 7.92481 h 11.13281 V -245 h -14.09179 z" />
    <path
       id="path111"
       style=""
       d="m 149.25684,-264.43848 v 8.21778 h 3.7207 q 2.06543,0 3.19336,-1.06934 1.12793,-1.06934 1.12793,-3.04687 0,-1.96289 -1.12793,-3.03223 -1.12793,-1.06934 -3.19336,-1.06934 z m -2.95899,-2.43164 h 6.67969 q 3.67676,0 5.55176,1.66992 1.88965,1.65528 1.88965,4.86329 0,3.2373 -1.88965,4.89257 -1.875,1.65528 -5.55176,1.65528 h -3.7207 V -245 h -2.95899 z" />
    <path
       id="path113"
       style=""
       d="M 180.95605,-266.87012 V -245 h -2.87109 v -18.2959 L 168.3877,-245 h -3.98438 v -21.87012 h 2.87109 v 18.2959 l 9.69727,-18.2959 z" />
    <path
       id="path115"
       style=""
       d="M 203.39746,-266.87012 V -245 h -2.87109 v -18.2959 L 190.8291,-245 h -3.98437 v -21.87012 h 2.87109 v 18.2959 l 9.69727,-18.2959 z m -12.99316,-5.97656 h 1.72851 q 0.19043,0.79102 0.90821,1.21582 0.73242,0.41016 1.94824,0.41016 1.20117,0 1.90429,-0.39551 0.71778,-0.41016 0.95215,-1.23047 h 1.72852 q -0.14649,1.74316 -1.31836,2.65137 -1.17188,0.89355 -3.2666,0.89355 -2.10938,0 -3.28125,-0.89355 -1.15723,-0.89356 -1.30371,-2.65137 z" />
    <path
       id="path117"
       style=""
       d="m 209.28613,-266.87012 h 2.95899 v 8.96485 h 10.75195 v -8.96485 h 2.95898 V -245 h -2.95898 v -10.41504 H 212.24512 V -245 h -2.95899 z" />
    <path
       id="path119"
       style=""
       d="m 244.2373,-251.43066 q 0,-2.03614 -1.15722,-3.03223 -1.14258,-0.98145 -3.53028,-0.98145 h -4.74609 v 8.0127 h 4.74609 q 2.3877,0 3.53028,-0.99609 1.15722,-0.98145 1.15722,-3.00293 z m -12.39257,-15.43946 h 2.95898 v 8.99414 h 4.89258 q 3.67676,0 5.66894,1.59668 1.99219,1.59668 1.99219,4.84864 0,3.2373 -1.99219,4.83398 Q 243.37305,-245 239.69629,-245 h -7.85156 z m 17.62207,0 h 2.95898 V -245 h -2.95898 z" />
    <path
       id="path121"
       style=""
       d="M 274.88184,-266.87012 V -245 h -2.8711 v -18.2959 L 262.31348,-245 h -3.98438 v -21.87012 h 2.8711 v 18.2959 l 9.69726,-18.2959 z m -12.99317,-5.97656 h 1.72852 q 0.19043,0.79102 0.9082,1.21582 0.73242,0.41016 1.94824,0.41016 1.20117,0 1.9043,-0.39551 0.71777,-0.41016 0.95215,-1.23047 h 1.72851 q -0.14648,1.74316 -1.31836,2.65137 -1.17187,0.89355 -3.2666,0.89355 -2.10937,0 -3.28125,-0.89355 -1.15722,-0.89356 -1.30371,-2.65137 z" />
    <path
       id="path123"
       style=""
       d="m 288.16797,-245 v -2.49023 q 2.15332,0 2.15332,-1.56739 v -17.8125 h 3.98437 l 9.69727,18.2959 v -14.23828 q 0,-1.875 1.14258,-2.95898 1.15722,-1.09864 3.88183,-1.09864 v 2.49024 q -2.15332,0 -2.15332,1.56738 V -245 h -3.98437 l -9.69727,-18.2959 v 14.23828 q 0,1.875 -1.15722,2.97364 Q 290.89258,-245 288.16797,-245 Z m 21.0498,-9.11133 q 0,-2.02148 1.05469,-3.41308 1.05469,-1.40625 2.56348,-1.40625 1.50879,0 2.56347,1.40625 1.05469,1.3916 1.05469,3.41308 0,2.02149 -1.05469,3.42774 -1.05468,1.3916 -2.56347,1.3916 -1.50879,0 -2.56348,-1.3916 -1.05469,-1.40625 -1.05469,-3.42774 z m 2.05078,0 q 0,1.14258 0.41016,1.9043 0.42481,0.74707 1.15723,0.74707 0.73242,0 1.14258,-0.74707 0.4248,-0.76172 0.4248,-1.9043 0,-1.14258 -0.4248,-1.88965 -0.41016,-0.76172 -1.14258,-0.76172 -0.73242,0 -1.15723,0.76172 -0.41016,0.74707 -0.41016,1.88965 z M 309.21777,-245 v -1.80176 h 7.23633 V -245 Z" />
    <path
       id="path125"
       style=""
       d="m 327.7334,-267.79297 v 26.74805 h -6.21094 v -2.09473 h 3.50098 v -22.55859 h -3.50098 v -2.09473 z" />
  </g>
</svg>
