<?xml version="1.0" encoding="UTF-8" standalone="no"?>
<svg
   xmlns:dc="http://purl.org/dc/elements/1.1/"
   xmlns:cc="http://creativecommons.org/ns#"
   xmlns:rdf="http://www.w3.org/1999/02/22-rdf-syntax-ns#"
   xmlns:svg="http://www.w3.org/2000/svg"
   xmlns="http://www.w3.org/2000/svg"
   id="svg111"
   stroke-miterlimit="10"
   stroke-linecap="square"
   stroke="none"
   fill="none"
   viewBox="0.0 0.0 348.0 348.0"
   version="1.1">
  <metadata
     id="metadata117">
    <rdf:RDF>
      <cc:Work
         rdf:about="">
        <dc:format>image/svg+xml</dc:format>
        <dc:type
           rdf:resource="http://purl.org/dc/dcmitype/StillImage" />
      </cc:Work>
    </rdf:RDF>
  </metadata>
  <defs
     id="defs115" />
  <clipPath
     id="p.0">
    <path
       id="path2"
       clip-rule="nonzero"
       d="m0 0l348.0 0l0 348.0l-348.0 0l0 -348.0z" />
  </clipPath>
  <g
     id="g85"
     clip-path="url(#p.0)">
    <path
       id="path5"
       fill-rule="evenodd"
       d="M 0,0 H 348 V 348 H 0 Z"
       fill-opacity="0"
       fill="#000000" />
    <path
       id="path7"
       fill-rule="evenodd"
       d="M -6,0 H 348.01575 V 347.9685 H -6 Z"
       fill="#ffffff" />
    <path
       id="path9"
       fill-rule="evenodd"
       d="m 5.07874,5.7758217 h 336.9134 V 343.4451 H 5.07874 Z"
       fill-opacity="0"
       fill="#000000" />
    <path
       id="path11"
       fill-rule="evenodd"
       d="m 5.07874,5.7758217 h 336.9134 V 343.4451 H 5.07874 Z"
       stroke-linecap="butt"
       stroke-linejoin="round"
       stroke-width="2"
       stroke="#000000" />
    <path
       id="path13"
       fill-rule="evenodd"
       d="m 282.73444,40.553925 v 0 c 0,-8.375591 6.96603,-15.165352 15.55905,-15.165352 v 0 c 4.12653,0 8.08402,1.597773 11.00192,4.441828 2.91788,2.844057 4.55713,6.701422 4.55713,10.723524 v 0 c 0,8.375595 -6.966,15.165356 -15.55905,15.165356 v 0 c -8.59302,0 -15.55905,-6.789761 -15.55905,-15.165356 z"
       fill="#ffffff" />
    <path
       id="path15"
       fill-rule="evenodd"
       d="m 282.73444,40.553925 v 0 c 0,-8.375591 6.96603,-15.165352 15.55905,-15.165352 v 0 c 4.12653,0 8.08402,1.597773 11.00192,4.441828 2.91788,2.844057 4.55713,6.701422 4.55713,10.723524 v 0 c 0,8.375595 -6.966,15.165356 -15.55905,15.165356 v 0 c -8.59302,0 -15.55905,-6.789761 -15.55905,-15.165356 z"
       stroke-linecap="butt"
       stroke-linejoin="round"
       stroke-width="2"
       stroke="#000000" />
    <path
       id="path17"
       fill-rule="evenodd"
       d="M 50.949955,90.04964 60.41452,72.726802 69.879089,90.04964 Z"
       fill="#000000" />
    <path
       id="path19"
       fill-rule="evenodd"
       d="M 50.949955,90.04964 60.41452,72.726802 69.879089,90.04964 Z"
       stroke-linecap="butt"
       stroke-linejoin="round"
       stroke-width="2"
       stroke="#000000" />
    <path
       id="path21"
       fill-rule="evenodd"
       d="m 122.04724,268.00525 h 97.92126 v 41.88977 h -97.92126 z"
       fill-opacity="0"
       fill="#000000" />
    <path
       id="path23"
       fill-rule="evenodd"
       d="m 122.04724,268.00525 h 97.92126 v 41.88977 h -97.92126 z"
       stroke-linecap="butt"
       stroke-linejoin="round"
       stroke-width="2"
       stroke="#000000" />
    <path
       id="path25"
       fill-rule="evenodd"
       d="M 29.517061,106.30446 H 289.61154 v 96.81889 H 29.517061 Z"
       fill="#000000" />
    <path
       id="path27"
       fill-rule="evenodd"
       d="M 29.517061,106.30446 H 289.61154 v 96.81889 H 29.517061 Z"
       stroke-linecap="butt"
       stroke-linejoin="round"
       stroke-width="2"
       stroke="#000000" />
    <path
       id="path29"
       fill-rule="evenodd"
       d="m 35.627296,113.07874 h 49.574806 v 82.14173 H 35.627296 Z"
       fill="#ffffff" />
    <path
       id="path31"
       fill-rule="evenodd"
       d="m 35.627296,113.07874 h 49.574806 v 82.14173 H 35.627296 Z"
       stroke-linecap="butt"
       stroke-linejoin="round"
       stroke-width="1"
       stroke="#000000" />
    <path
       id="path33"
       fill-rule="evenodd"
       d="m 85.2021,113.07874 h 49.5748 v 82.14173 H 85.2021 Z"
       fill="#ffffff" />
    <path
       id="path35"
       fill-rule="evenodd"
       d="m 85.2021,113.07874 h 49.5748 v 82.14173 H 85.2021 Z"
       stroke-linecap="butt"
       stroke-linejoin="round"
       stroke-width="1"
       stroke="#000000" />
    <path
       id="path37"
       fill-rule="evenodd"
       d="m 134.77843,113.07874 h 49.5748 v 82.14173 h -49.5748 z"
       fill="#ffffff" />
    <path
       id="path39"
       fill-rule="evenodd"
       d="m 134.77843,113.07874 h 49.5748 v 82.14173 h -49.5748 z"
       stroke-linecap="butt"
       stroke-linejoin="round"
       stroke-width="1"
       stroke="#000000" />
    <path
       id="path41"
       fill-rule="evenodd"
       d="m 184.35214,113.07874 h 49.5748 v 82.14173 h -49.5748 z"
       fill="#ffffff" />
    <path
       id="path43"
       fill-rule="evenodd"
       d="m 184.35214,113.07874 h 49.5748 v 82.14173 h -49.5748 z"
       stroke-linecap="butt"
       stroke-linejoin="round"
       stroke-width="1"
       stroke="#000000" />
    <path
       id="path45"
       fill-rule="evenodd"
       d="m 233.9265,113.07874 h 49.57481 v 82.14173 H 233.9265 Z"
       fill="#ffffff" />
    <path
       id="path47"
       fill-rule="evenodd"
       d="m 233.9265,113.07874 h 49.57481 v 82.14173 H 233.9265 Z"
       stroke-linecap="butt"
       stroke-linejoin="round"
       stroke-width="1"
       stroke="#000000" />
    <path
       id="path49"
       fill-rule="evenodd"
       d="m 100.52476,90.04964 9.46457,-17.322838 9.46457,17.322838 z"
       fill="#000000" />
    <path
       id="path51"
       fill-rule="evenodd"
       d="m 100.52476,90.04964 9.46457,-17.322838 9.46457,17.322838 z"
       stroke-linecap="butt"
       stroke-linejoin="round"
       stroke-width="2"
       stroke="#000000" />
    <path
       id="path53"
       fill-rule="evenodd"
       d="m 150.09956,90.04964 9.46457,-17.322838 9.46457,17.322838 z"
       fill="#000000" />
    <path
       id="path55"
       fill-rule="evenodd"
       d="m 150.09956,90.04964 9.46457,-17.322838 9.46457,17.322838 z"
       stroke-linecap="butt"
       stroke-linejoin="round"
       stroke-width="2"
       stroke="#000000" />
    <path
       id="path57"
       fill-rule="evenodd"
       d="m 199.67436,90.04964 9.46457,-17.322838 9.46457,17.322838 z"
       fill="#000000" />
    <path
       id="path59"
       fill-rule="evenodd"
       d="m 199.67436,90.04964 9.46457,-17.322838 9.46457,17.322838 z"
       stroke-linecap="butt"
       stroke-linejoin="round"
       stroke-width="2"
       stroke="#000000" />
    <path
       id="path61"
       fill-rule="evenodd"
       d="m 249.24916,90.04964 9.46458,-17.322838 9.46457,17.322838 z"
       fill="#000000" />
    <path
       id="path63"
       fill-rule="evenodd"
       d="m 249.24916,90.04964 9.46458,-17.322838 9.46457,17.322838 z"
       stroke-linecap="butt"
       stroke-linejoin="round"
       stroke-width="2"
       stroke="#000000" />
    <path
       id="path65"
       fill-rule="evenodd"
       d="m 268.1783,219.37772 -9.46457,17.32284 -9.46458,-17.32284 z"
       fill="#000000" />
    <path
       id="path67"
       fill-rule="evenodd"
       d="m 268.1783,219.37772 -9.46457,17.32284 -9.46458,-17.32284 z"
       stroke-linecap="butt"
       stroke-linejoin="round"
       stroke-width="2"
       stroke="#000000" />
    <path
       id="path69"
       fill-rule="evenodd"
       d="m 218.6035,219.37772 -9.46457,17.32284 -9.46457,-17.32284 z"
       fill="#000000" />
    <path
       id="path71"
       fill-rule="evenodd"
       d="m 218.6035,219.37772 -9.46457,17.32284 -9.46457,-17.32284 z"
       stroke-linecap="butt"
       stroke-linejoin="round"
       stroke-width="2"
       stroke="#000000" />
    <path
       id="path73"
       fill-rule="evenodd"
       d="m 169.0287,219.37772 -9.46457,17.32284 -9.46457,-17.32284 z"
       fill="#000000" />
    <path
       id="path75"
       fill-rule="evenodd"
       d="m 169.0287,219.37772 -9.46457,17.32284 -9.46457,-17.32284 z"
       stroke-linecap="butt"
       stroke-linejoin="round"
       stroke-width="2"
       stroke="#000000" />
    <path
       id="path77"
       fill-rule="evenodd"
       d="m 119.4539,219.37772 -9.46457,17.32284 -9.46457,-17.32284 z"
       fill="#000000" />
    <path
       id="path79"
       fill-rule="evenodd"
       d="m 119.4539,219.37772 -9.46457,17.32284 -9.46457,-17.32284 z"
       stroke-linecap="butt"
       stroke-linejoin="round"
       stroke-width="2"
       stroke="#000000" />
    <path
       id="path81"
       fill-rule="evenodd"
       d="m 69.87909,219.37772 -9.464569,17.32284 -9.464565,-17.32284 z"
       fill="#000000" />
    <path
       id="path83"
       fill-rule="evenodd"
       d="m 69.87909,219.37772 -9.464569,17.32284 -9.464565,-17.32284 z"
       stroke-linecap="butt"
       stroke-linejoin="round"
       stroke-width="2"
       stroke="#000000" />
  </g>
  <g
     style="font-size:20px;font-family:'DejaVu Sans', sans-serif;text-anchor:middle;fill:#000000"
     id="text89"
     aria-label="SENDEN">
    <path
       id="path119"
       d="m 140.04297,281.89844 v 1.92383 q -1.12305,-0.53711 -2.11914,-0.80079 -0.9961,-0.26367 -1.92383,-0.26367 -1.61133,0 -2.49023,0.625 -0.86915,0.625 -0.86915,1.77735 0,0.96679 0.57618,1.46484 0.58593,0.48828 2.20703,0.79102 l 1.1914,0.24414 q 2.20704,0.41992 3.25196,1.48437 1.05468,1.05469 1.05468,2.83203 0,2.11914 -1.42578,3.21289 -1.41601,1.09375 -4.16015,1.09375 -1.03516,0 -2.20703,-0.23437 -1.16211,-0.23438 -2.41211,-0.69336 v -2.03125 q 1.20117,0.67383 2.35351,1.01562 1.15235,0.3418 2.26563,0.3418 1.68945,0 2.60742,-0.66406 0.91797,-0.66406 0.91797,-1.89453 0,-1.07422 -0.66406,-1.67969 -0.6543,-0.60547 -2.15821,-0.9082 l -1.20117,-0.23438 q -2.20703,-0.43945 -3.19336,-1.37695 -0.98633,-0.9375 -0.98633,-2.60742 0,-1.9336 1.35742,-3.04688 1.36719,-1.11328 3.75977,-1.11328 1.02539,0 2.08984,0.18555 1.06446,0.18554 2.17774,0.55664 z" />
    <path
       id="path121"
       d="m 143.99805,281.41992 h 9.21875 v 1.66016 h -7.2461 v 4.3164 h 6.94336 v 1.66016 h -6.94336 v 5.2832 h 7.42188 V 296 h -9.39453 z" />
    <path
       id="path123"
       d="m 156.6543,281.41992 h 2.65625 l 6.46484,12.19727 v -12.19727 h 1.91406 V 296 h -2.65625 l -6.46484,-12.19727 V 296 h -1.91406 z" />
    <path
       id="path125"
       d="m 173.58789,283.04102 v 11.33789 h 2.38281 q 3.01758,0 4.41407,-1.36719 1.40625,-1.36719 1.40625,-4.31641 0,-2.92969 -1.40625,-4.28711 -1.39649,-1.36718 -4.41407,-1.36718 z m -1.97266,-1.6211 h 4.05274 q 4.23828,0 6.2207,1.76758 1.98242,1.75781 1.98242,5.50781 0,3.76953 -1.99218,5.53711 Q 179.88672,296 175.66797,296 h -4.05274 z" />
    <path
       id="path127"
       d="m 187.00586,281.41992 h 9.21875 v 1.66016 h -7.24609 v 4.3164 h 6.94335 v 1.66016 h -6.94335 v 5.2832 h 7.42187 V 296 h -9.39453 z" />
    <path
       id="path129"
       d="m 199.66211,281.41992 h 2.65625 l 6.46484,12.19727 v -12.19727 h 1.91407 V 296 h -2.65625 l -6.46485,-12.19727 V 296 h -1.91406 z" />
  </g>
  <g
     style="font-size:42px;font-family:'DejaVu Sans', sans-serif;text-anchor:middle;fill:#000000"
     id="text93"
     aria-label="A">
    <path
       id="path132"
       d="m 60,143.46289 -5.619141,15.23731 h 11.258789 z m -2.337891,-4.08105 h 4.696289 L 74.027344,170 h -4.306641 l -2.789062,-7.85449 H 53.129883 L 50.34082,170 h -4.368164 z" />
  </g>
  <g
     style="font-size:42px;font-family:'DejaVu Sans', sans-serif;text-anchor:middle;fill:#000000"
     id="text97"
     aria-label="A">
    <path
       id="path135"
       d="m 110,143.46289 -5.61914,15.23731 h 11.25879 z m -2.33789,-4.08105 h 4.69629 L 124.02734,170 h -4.30664 l -2.78906,-7.85449 H 103.12988 L 100.34082,170 h -4.368164 z" />
  </g>
  <g
     style="font-size:42px;font-family:'DejaVu Sans', sans-serif;text-anchor:middle;fill:#000000"
     id="text101"
     aria-label="A">
    <path
       id="path138"
       d="m 160,143.46289 -5.61914,15.23731 h 11.25879 z m -2.33789,-4.08105 h 4.69629 L 174.02734,170 h -4.30664 l -2.78906,-7.85449 H 153.12988 L 150.34082,170 h -4.36816 z" />
  </g>
  <g
     style="font-size:42px;font-family:'DejaVu Sans', sans-serif;text-anchor:middle;fill:#000000"
     id="text105"
     aria-label="A">
    <path
       id="path141"
       d="m 210,143.46289 -5.61914,15.23731 h 11.25879 z m -2.33789,-4.08105 h 4.69629 L 224.02734,170 h -4.30664 l -2.78906,-7.85449 H 203.12988 L 200.34082,170 h -4.36816 z" />
  </g>
  <g
     style="font-size:42px;font-family:'DejaVu Sans', sans-serif;text-anchor:middle;fill:#000000"
     id="text109"
     aria-label="A">
    <path
       id="path144"
       d="m 260,143.46289 -5.61914,15.23731 h 11.25879 z m -2.33789,-4.08105 h 4.69629 L 274.02734,170 h -4.30664 l -2.78906,-7.85449 H 253.12988 L 250.34082,170 h -4.36816 z" />
  </g>
</svg>
