<?xml version="1.0" encoding="UTF-8" standalone="no"?>
<svg
   xmlns:dc="http://purl.org/dc/elements/1.1/"
   xmlns:cc="http://creativecommons.org/ns#"
   xmlns:rdf="http://www.w3.org/1999/02/22-rdf-syntax-ns#"
   xmlns:svg="http://www.w3.org/2000/svg"
   xmlns="http://www.w3.org/2000/svg"
   id="svg25"
   stroke-miterlimit="10"
   stroke-linecap="square"
   stroke="none"
   fill="none"
   viewBox="0.0 0.0 288.0 115.0"
   version="1.1">
  <metadata
     id="metadata31">
    <rdf:RDF>
      <cc:Work
         rdf:about="">
        <dc:format>image/svg+xml</dc:format>
        <dc:type
           rdf:resource="http://purl.org/dc/dcmitype/StillImage" />
      </cc:Work>
    </rdf:RDF>
  </metadata>
  <defs
     id="defs29" />
  <clipPath
     id="p.0">
    <path
       id="path2"
       clip-rule="nonzero"
       d="m0 0l288.0 0l0 115.0l-288.0 0l0 -115.0z" />
  </clipPath>
  <g
     id="g19"
     clip-path="url(#p.0)">
    <path
       style="fill:#000000;fill-opacity:0;fill-rule:nonzero"
       id="path5"
       d="M 0,0 H 288 V 115 H 0 Z" />
    <path
       style="fill:#ffffff;fill-rule:nonzero"
       id="path7"
       d="M 12,8.503937 H 276 V 107.49607 H 12 Z" />
    <path
       style="fill-rule:nonzero;stroke:#000000;stroke-width:2;stroke-linecap:butt;stroke-linejoin:round"
       id="path9"
       d="M 12,8.503937 H 276 V 107.49607 H 12 Z" />
    <path
       style="fill:#000000;fill-rule:nonzero"
       id="path11"
       d="M 114,32 H 259.00787 V 85.984253 H 114 Z" />
    <path
       style="fill-rule:nonzero;stroke:#000000;stroke-width:2;stroke-linecap:butt;stroke-linejoin:round"
       id="path13"
       d="M 114,32 H 259.00787 V 85.984253 H 114 Z" />
    <path
       style="fill:#ffffff;fill-rule:nonzero"
       id="path15"
       d="m 36,58 v 0 C 36,43.092659 48.084785,31.007874 62.992126,31.007874 v 0 c 7.15876,0 14.024307,2.843807 19.086311,7.905811 C 87.140449,43.975689 89.984252,50.841244 89.984252,58 v 0 c 0,14.907341 -12.084785,26.992126 -26.992126,26.992126 v 0 C 48.084785,84.992126 36,72.907341 36,58 Z" />
    <path
       style="fill-rule:nonzero;stroke:#000000;stroke-width:2;stroke-linecap:butt;stroke-linejoin:round"
       id="path17"
       d="m 36,58 v 0 C 36,43.092659 48.084785,31.007874 62.992126,31.007874 v 0 c 7.15876,0 14.024307,2.843807 19.086311,7.905811 C 87.140449,43.975689 89.984252,50.841244 89.984252,58 v 0 c 0,14.907341 -12.084785,26.992126 -26.992126,26.992126 v 0 C 48.084785,84.992126 36,72.907341 36,58 Z" />
  </g>
  <g
     id="text23"
     style="font-size:27.4285717px;font-family:'DejaVu Sans', sans-serif;text-anchor:middle;fill:#ffffff"
     aria-label="[ETIKEDO]">
    <path
       id="path33"
       style=""
       d="m 118.50893,46.875001 h 5.67857 v 1.915178 h -3.21429 V 69.41518 h 3.21429 v 1.915178 h -5.67857 z" />
    <path
       id="path35"
       style=""
       d="m 129.55804,47.718751 h 12.64285 v 2.276786 h -9.9375 v 5.919643 h 9.52232 v 2.276785 h -9.52232 v 7.245536 h 10.17857 v 2.276786 h -12.88392 z" />
    <path
       id="path37"
       style=""
       d="m 144.14286,47.718751 h 16.91518 v 2.276786 h -7.09822 v 17.71875 h -2.71875 v -17.71875 h -7.09821 z" />
    <path
       id="path39"
       style=""
       d="m 163.68304,47.718751 h 2.70535 v 19.995536 h -2.70535 z" />
    <path
       id="path41"
       style=""
       d="m 171.77232,47.718751 h 2.70536 v 8.450893 l 8.97321,-8.450893 h 3.48215 l -9.92411,9.321429 10.63393,10.674107 h -3.5625 l -9.60268,-9.629465 v 9.629465 h -2.70536 z" />
    <path
       id="path43"
       style=""
       d="m 189.77232,47.718751 h 12.64286 v 2.276786 h -9.9375 V 55.91518 H 202 v 2.276785 h -9.52232 v 7.245536 h 10.17857 v 2.276786 h -12.88393 z" />
    <path
       id="path45"
       style=""
       d="m 209.83482,49.941965 v 15.549107 h 3.26786 q 4.13839,0 6.05357,-1.875 1.92857,-1.875 1.92857,-5.919642 0,-4.017858 -1.92857,-5.879465 -1.91518,-1.875 -6.05357,-1.875 z m -2.70536,-2.223214 h 5.55804 q 5.8125,0 8.53125,2.424107 2.71875,2.410714 2.71875,7.553572 0,5.169642 -2.73214,7.59375 -2.73215,2.424107 -8.51786,2.424107 h -5.55804 z" />
    <path
       id="path47"
       style=""
       d="m 236.35268,49.553572 q -2.94643,0 -4.6875,2.196429 -1.72768,2.196429 -1.72768,5.986607 0,3.776786 1.72768,5.973214 1.74107,2.196429 4.6875,2.196429 2.94643,0 4.66072,-2.196429 1.72767,-2.196428 1.72767,-5.973214 0,-3.790178 -1.72767,-5.986607 -1.71429,-2.196429 -4.66072,-2.196429 z m 0,-2.196428 q 4.20536,0 6.72322,2.825893 2.51785,2.8125 2.51785,7.553571 0,4.727679 -2.51785,7.553572 -2.51786,2.8125 -6.72322,2.8125 -4.21875,0 -6.75,-2.8125 -2.51786,-2.8125 -2.51786,-7.553572 0,-4.741071 2.51786,-7.553571 2.53125,-2.825893 6.75,-2.825893 z" />
    <path
       id="path49"
       style=""
       d="m 255.47768,46.875001 v 24.455357 h -5.67857 V 69.41518 H 253 V 48.790179 h -3.20089 v -1.915178 z" />
  </g>
</svg>
