<?xml version="1.0" encoding="UTF-8" standalone="no"?>
<svg
   xmlns:dc="http://purl.org/dc/elements/1.1/"
   xmlns:cc="http://creativecommons.org/ns#"
   xmlns:rdf="http://www.w3.org/1999/02/22-rdf-syntax-ns#"
   xmlns:svg="http://www.w3.org/2000/svg"
   xmlns="http://www.w3.org/2000/svg"
   id="svg25"
   stroke-miterlimit="10"
   stroke-linecap="square"
   stroke="none"
   fill="none"
   viewBox="0.0 0.0 288.0 115.0"
   version="1.1">
  <metadata
     id="metadata31">
    <rdf:RDF>
      <cc:Work
         rdf:about="">
        <dc:format>image/svg+xml</dc:format>
        <dc:type
           rdf:resource="http://purl.org/dc/dcmitype/StillImage" />
      </cc:Work>
    </rdf:RDF>
  </metadata>
  <defs
     id="defs29" />
  <clipPath
     id="p.0">
    <path
       id="path2"
       clip-rule="nonzero"
       d="m0 0l288.0 0l0 115.0l-288.0 0l0 -115.0z" />
  </clipPath>
  <g
     id="g19"
     clip-path="url(#p.0)">
    <path
       style="fill:#000000;fill-opacity:0;fill-rule:nonzero"
       id="path5"
       d="M 0,0 H 288 V 115 H 0 Z" />
    <path
       style="fill:#ffffff;fill-rule:nonzero"
       id="path7"
       d="M 12,8.503937 H 276 V 107.49607 H 12 Z" />
    <path
       style="fill-rule:nonzero;stroke:#000000;stroke-width:2;stroke-linecap:butt;stroke-linejoin:round"
       id="path9"
       d="M 12,8.503937 H 276 V 107.49607 H 12 Z" />
    <path
       style="fill:#000000;fill-rule:nonzero"
       id="path11"
       d="M 114,32 H 259.00787 V 85.984253 H 114 Z" />
    <path
       style="fill-rule:nonzero;stroke:#000000;stroke-width:2;stroke-linecap:butt;stroke-linejoin:round"
       id="path13"
       d="M 114,32 H 259.00787 V 85.984253 H 114 Z" />
    <path
       style="fill:#ffffff;fill-rule:nonzero"
       id="path15"
       d="m 36,58 v 0 C 36,43.092659 48.084785,31.007874 62.992126,31.007874 v 0 c 7.15876,0 14.024307,2.843807 19.086311,7.905811 C 87.140449,43.975689 89.984252,50.841244 89.984252,58 v 0 c 0,14.907341 -12.084785,26.992126 -26.992126,26.992126 v 0 C 48.084785,84.992126 36,72.907341 36,58 Z" />
    <path
       style="fill-rule:nonzero;stroke:#000000;stroke-width:2;stroke-linecap:butt;stroke-linejoin:round"
       id="path17"
       d="m 36,58 v 0 C 36,43.092659 48.084785,31.007874 62.992126,31.007874 v 0 c 7.15876,0 14.024307,2.843807 19.086311,7.905811 C 87.140449,43.975689 89.984252,50.841244 89.984252,58 v 0 c 0,14.907341 -12.084785,26.992126 -26.992126,26.992126 v 0 C 48.084785,84.992126 36,72.907341 36,58 Z" />
  </g>
  <g
     id="text23"
     style="font-size:32px;font-family:'DejaVu Sans', sans-serif;text-anchor:middle;fill:#ffffff"
     aria-label="[ETIKEDO]">
    <path
       id="path33"
       style=""
       d="m 107.09375,45.6875 h 6.625 v 2.234375 h -3.75 v 24.0625 h 3.75 v 2.234375 h -6.625 z" />
    <path
       id="path35"
       style=""
       d="m 119.98437,46.671875 h 14.75001 v 2.65625 h -11.59376 v 6.90625 H 134.25 v 2.65625 h -11.10938 v 8.453125 h 11.87501 V 70 h -15.03126 z" />
    <path
       id="path37"
       style=""
       d="m 137,46.671875 h 19.73438 v 2.65625 h -8.28125 V 70 h -3.17188 V 49.328125 H 137 Z" />
    <path
       id="path39"
       style=""
       d="m 159.79688,46.671875 h 3.15625 V 70 h -3.15625 z" />
    <path
       id="path41"
       style=""
       d="m 169.23438,46.671875 h 3.15625 v 9.859375 l 10.46875,-9.859375 h 4.0625 l -11.57813,10.875 L 187.75,70 h -4.15625 L 172.39063,58.765625 V 70 h -3.15625 z" />
    <path
       id="path43"
       style=""
       d="m 190.23438,46.671875 h 14.75 v 2.65625 h -11.59375 v 6.90625 H 204.5 v 2.65625 h -11.10937 v 8.453125 h 11.875 V 70 h -15.03125 z" />
    <path
       id="path45"
       style=""
       d="M 213.64063,49.265625 V 67.40625 h 3.8125 q 4.82812,0 7.0625,-2.1875 2.25,-2.1875 2.25,-6.90625 0,-4.6875 -2.25,-6.859375 -2.23438,-2.1875 -7.0625,-2.1875 z m -3.15625,-2.59375 h 6.48437 q 6.78125,0 9.95313,2.828125 3.17187,2.8125 3.17187,8.8125 0,6.03125 -3.1875,8.859375 Q 223.71875,70 216.96875,70 h -6.48437 z" />
    <path
       id="path47"
       style=""
       d="m 244.57813,48.8125 q -3.4375,0 -5.46875,2.5625 -2.01563,2.5625 -2.01563,6.984375 0,4.40625 2.01563,6.96875 2.03125,2.5625 5.46875,2.5625 3.4375,0 5.4375,-2.5625 2.01562,-2.5625 2.01562,-6.96875 0,-4.421875 -2.01562,-6.984375 -2,-2.5625 -5.4375,-2.5625 z m 0,-2.5625 q 4.90625,0 7.84375,3.296875 2.9375,3.28125 2.9375,8.8125 0,5.515625 -2.9375,8.8125 -2.9375,3.28125 -7.84375,3.28125 -4.92188,0 -7.875,-3.28125 -2.9375,-3.28125 -2.9375,-8.8125 0,-5.53125 2.9375,-8.8125 2.95312,-3.296875 7.875,-3.296875 z" />
    <path
       id="path49"
       style=""
       d="m 266.89063,45.6875 v 28.53125 h -6.625 V 71.984375 H 264 v -24.0625 h -3.73437 V 45.6875 Z" />
  </g>
</svg>
