<?xml version="1.0" encoding="UTF-8" standalone="no"?>
<svg
   xmlns:dc="http://purl.org/dc/elements/1.1/"
   xmlns:cc="http://creativecommons.org/ns#"
   xmlns:rdf="http://www.w3.org/1999/02/22-rdf-syntax-ns#"
   xmlns:svg="http://www.w3.org/2000/svg"
   xmlns="http://www.w3.org/2000/svg"
   id="svg121"
   stroke-miterlimit="10"
   stroke-linecap="square"
   stroke="none"
   fill="none"
   viewBox="0.0 0.0 348.0 348.0"
   version="1.1">
  <metadata
     id="metadata127">
    <rdf:RDF>
      <cc:Work
         rdf:about="">
        <dc:format>image/svg+xml</dc:format>
        <dc:type
           rdf:resource="http://purl.org/dc/dcmitype/StillImage" />
      </cc:Work>
    </rdf:RDF>
  </metadata>
  <defs
     id="defs125" />
  <clipPath
     id="p.0">
    <path
       id="path2"
       clip-rule="nonzero"
       d="m0 0l348.0 0l0 348.0l-348.0 0l0 -348.0z" />
  </clipPath>
  <g
     id="g111"
     clip-path="url(#p.0)">
    <path
       style="fill:#000000;fill-opacity:0;fill-rule:evenodd"
       id="path5"
       d="M 0,0 H 348 V 348 H 0 Z" />
    <path
       style="fill:#ffffff;fill-rule:evenodd"
       id="path7"
       d="M -6,0 H 342 V 347.9685 H -6 Z" />
    <path
       style="fill:#000000;fill-opacity:0;fill-rule:evenodd"
       id="path9"
       d="m 5.07874,5.7758217 h 336.9134 V 343.44512 H 5.07874 Z" />
    <path
       style="fill-rule:evenodd;stroke:#000000;stroke-width:2;stroke-linecap:butt;stroke-linejoin:round"
       id="path11"
       d="m 5.07874,5.7758217 h 336.9134 V 343.44512 H 5.07874 Z" />
    <path
       style="fill:#ffffff;fill-rule:evenodd"
       id="path13"
       d="m 282.73444,40.553925 v 0 c 0,-8.375591 6.96603,-15.165352 15.55905,-15.165352 v 0 c 4.12653,0 8.08402,1.597773 11.00192,4.441828 2.91788,2.844057 4.55713,6.701422 4.55713,10.723524 v 0 c 0,8.375595 -6.966,15.165356 -15.55905,15.165356 v 0 c -8.59302,0 -15.55905,-6.789761 -15.55905,-15.165356 z" />
    <path
       style="fill-rule:evenodd;stroke:#000000;stroke-width:2;stroke-linecap:butt;stroke-linejoin:round"
       id="path15"
       d="m 282.73444,40.553925 v 0 c 0,-8.375591 6.96603,-15.165352 15.55905,-15.165352 v 0 c 4.12653,0 8.08402,1.597773 11.00192,4.441828 2.91788,2.844057 4.55713,6.701422 4.55713,10.723524 v 0 c 0,8.375595 -6.966,15.165356 -15.55905,15.165356 v 0 c -8.59302,0 -15.55905,-6.789761 -15.55905,-15.165356 z" />
    <path
       style="fill:#ffffff;fill-rule:evenodd"
       id="path17"
       d="m 117.83202,290.61154 h 87.90551 v 34.80316 h -87.90551 z" />
    <path
       style="fill-rule:evenodd;stroke:#000000;stroke-width:2;stroke-linecap:butt;stroke-linejoin:round"
       id="path19"
       d="m 117.83202,290.61154 h 87.90551 v 34.80316 h -87.90551 z" />
    <path
       style="fill:#ffffff;fill-rule:evenodd"
       id="path21"
       d="M 16.482939,118.44095 H 319.3176 v 157.5433 H 16.482939 Z" />
    <path
       style="fill-rule:evenodd;stroke:#000000;stroke-width:2;stroke-linecap:butt;stroke-linejoin:round"
       id="path23"
       d="M 16.482939,118.44095 H 319.3176 v 157.5433 H 16.482939 Z" />
    <path
       style="fill:#000000;fill-rule:evenodd"
       id="path25"
       d="m 58.66142,187.43045 h 218.67717 v 72.03149 H 58.66142 Z" />
    <path
       style="fill:#000000;fill-rule:evenodd"
       id="path27"
       d="M 48.307087,196.76903 25.440945,223.4462 48.307087,250.12337 Z" />
    <path
       style="fill-rule:evenodd;stroke:#000000;stroke-width:2;stroke-linecap:butt;stroke-linejoin:round"
       id="path29"
       d="M 48.307087,196.76903 25.440945,223.4462 48.307087,250.12337 Z" />
    <path
       style="fill:#000000;fill-rule:evenodd"
       id="path31"
       d="m 287.6929,196.76903 22.86615,26.67717 -22.86615,26.67717 z" />
    <path
       style="fill-rule:evenodd;stroke:#000000;stroke-width:2;stroke-linecap:butt;stroke-linejoin:round"
       id="path33"
       d="m 287.6929,196.76903 22.86615,26.67717 -22.86615,26.67717 z" />
    <path
       style="fill:#000000;fill-opacity:0;fill-rule:evenodd"
       id="path35"
       d="m 161.49081,49.87664 113.82678,0.566929" />
    <path
       style="fill-rule:evenodd;stroke:#000000;stroke-width:2;stroke-linecap:butt;stroke-linejoin:round"
       id="path37"
       d="m 161.49081,49.87664 113.82678,0.566929" />
    <path
       style="fill:#000000;fill-opacity:0;fill-rule:evenodd"
       id="path39"
       d="M 29.713911,49.87664 5.115486,5.97113" />
    <path
       style="fill-rule:evenodd;stroke:#000000;stroke-width:2;stroke-linecap:butt;stroke-linejoin:round"
       id="path41"
       d="M 29.713911,49.87664 5.115486,5.97113" />
    <path
       style="fill:#000000;fill-rule:evenodd"
       id="path43"
       d="M 45.790028,23.199474 H 58.671917 V 76.55381 H 45.790028 Z" />
    <path
       style="fill-rule:evenodd;stroke:#000000;stroke-width:2;stroke-linecap:butt;stroke-linejoin:round"
       id="path45"
       d="M 45.790028,23.199474 H 58.671917 V 76.55381 H 45.790028 Z" />
    <path
       style="fill:#000000;fill-rule:evenodd"
       id="path47"
       d="m 132.35695,23.199474 h 12.8819 V 76.55381 h -12.8819 z" />
    <path
       style="fill-rule:evenodd;stroke:#000000;stroke-width:2;stroke-linecap:butt;stroke-linejoin:round"
       id="path49"
       d="m 132.35695,23.199474 h 12.8819 V 76.55381 h -12.8819 z" />
    <path
       style="fill:#ffffff;fill-rule:evenodd"
       id="path51"
       d="m 43.34646,139.81102 h 252.75589 v 30.33072 H 43.34646 Z" />
    <path
       style="fill-rule:evenodd;stroke:#000000;stroke-width:2;stroke-linecap:butt;stroke-linejoin:round"
       id="path53"
       d="m 43.34646,139.81102 h 252.75589 v 30.33072 H 43.34646 Z" />
    <path
       style="fill:#000000;fill-opacity:0;fill-rule:evenodd"
       id="path55"
       d="m 59.220474,170.94751 v -9.76378" />
    <path
       style="fill-rule:evenodd;stroke:#000000;stroke-width:2;stroke-linecap:butt;stroke-linejoin:round"
       id="path57"
       d="m 59.220474,170.94751 v -9.76378" />
    <path
       style="fill:#000000;fill-opacity:0;fill-rule:evenodd"
       id="path59"
       d="m 84.05541,139.81102 v 12.81891" />
    <path
       style="fill-rule:evenodd;stroke:#000000;stroke-width:2;stroke-linecap:butt;stroke-linejoin:round"
       id="path61"
       d="m 84.05541,139.81102 v 12.81891" />
    <path
       style="fill:#000000;fill-opacity:0;fill-rule:evenodd"
       id="path63"
       d="m 133.72528,139.40814 v 12.81889" />
    <path
       style="fill-rule:evenodd;stroke:#000000;stroke-width:2;stroke-linecap:butt;stroke-linejoin:round"
       id="path65"
       d="m 133.72528,139.40814 v 12.81889" />
    <path
       style="fill:#000000;fill-opacity:0;fill-rule:evenodd"
       id="path67"
       d="m 108.89035,170.54462 v -9.76378" />
    <path
       style="fill-rule:evenodd;stroke:#000000;stroke-width:2;stroke-linecap:butt;stroke-linejoin:round"
       id="path69"
       d="m 108.89035,170.54462 v -9.76378" />
    <path
       style="fill:#000000;fill-opacity:0;fill-rule:evenodd"
       id="path71"
       d="m 233.06505,139.40683 v 12.81889" />
    <path
       style="fill-rule:evenodd;stroke:#000000;stroke-width:2;stroke-linecap:butt;stroke-linejoin:round"
       id="path73"
       d="m 233.06505,139.40683 v 12.81889" />
    <path
       style="fill:#000000;fill-opacity:0;fill-rule:evenodd"
       id="path75"
       d="m 208.23009,170.5433 v -9.76378" />
    <path
       style="fill-rule:evenodd;stroke:#000000;stroke-width:2;stroke-linecap:butt;stroke-linejoin:round"
       id="path77"
       d="m 208.23009,170.5433 v -9.76378" />
    <path
       style="fill:#000000;fill-opacity:0;fill-rule:evenodd"
       id="path79"
       d="m 282.7349,139.40683 v 12.81889" />
    <path
       style="fill-rule:evenodd;stroke:#000000;stroke-width:2;stroke-linecap:butt;stroke-linejoin:round"
       id="path81"
       d="m 282.7349,139.40683 v 12.81889" />
    <path
       style="fill:#000000;fill-opacity:0;fill-rule:evenodd"
       id="path83"
       d="m 257.89996,170.5433 v -9.76378" />
    <path
       style="fill-rule:evenodd;stroke:#000000;stroke-width:2;stroke-linecap:butt;stroke-linejoin:round"
       id="path85"
       d="m 257.89996,170.5433 v -9.76378" />
    <path
       style="fill:#000000;fill-opacity:0;fill-rule:evenodd"
       id="path87"
       d="m 158.56023,170.54462 v -9.76378" />
    <path
       style="fill-rule:evenodd;stroke:#000000;stroke-width:2;stroke-linecap:butt;stroke-linejoin:round"
       id="path89"
       d="m 158.56023,170.54462 v -9.76378" />
    <path
       style="fill:#000000;fill-opacity:0;fill-rule:evenodd"
       id="path91"
       d="m 183.39516,139.40814 v 12.81889" />
    <path
       style="fill-rule:evenodd;stroke:#000000;stroke-width:2;stroke-linecap:butt;stroke-linejoin:round"
       id="path93"
       d="m 183.39516,139.40814 v 12.81889" />
    <path
       style="fill:#000000;fill-rule:evenodd"
       id="path95"
       d="m 64.10499,136.14699 h 8.535431 v 40.28346 H 64.10499 Z" />
    <path
       style="fill-rule:evenodd;stroke:#000000;stroke-width:2;stroke-linecap:butt;stroke-linejoin:round"
       id="path97"
       d="m 64.10499,136.14699 h 8.535431 v 40.28346 H 64.10499 Z" />
    <path
       style="fill:#000000;fill-opacity:0;fill-rule:evenodd"
       id="path99"
       d="m 56.43307,30.55643 h 75.937 v 40.283466 h -75.937 z" />
    <path
       style="fill-rule:evenodd;stroke:#000000;stroke-width:2;stroke-linecap:butt;stroke-linejoin:round"
       id="path101"
       d="m 56.43307,30.55643 h 75.937 v 40.283466 h -75.937 z" />
    <path
       style="fill:#000000;fill-rule:evenodd"
       id="path103"
       d="m 145.23885,34.711285 h 8.12598 v 0 c 4.48787,0 8.12599,6.789761 8.12599,15.165356 0,8.375595 -3.63812,15.165352 -8.12599,15.165352 h -8.12598 z" />
    <path
       style="fill-rule:evenodd;stroke:#000000;stroke-width:2;stroke-linecap:butt;stroke-linejoin:round"
       id="path105"
       d="m 145.23885,34.711285 h 8.12598 v 0 c 4.48787,0 8.12599,6.789761 8.12599,15.165356 0,8.375595 -3.63812,15.165352 -8.12599,15.165352 h -8.12598 z" />
    <path
       style="fill:#000000;fill-rule:evenodd"
       id="path107"
       d="m 45,65.04199 h -8.125984 v 0 c -4.487858,0 -8.125984,-6.789757 -8.125984,-15.165352 0,-8.375595 3.638126,-15.165356 8.125984,-15.165356 H 45 Z" />
    <path
       style="fill-rule:evenodd;stroke:#000000;stroke-width:2;stroke-linecap:butt;stroke-linejoin:round"
       id="path109"
       d="m 45,65.04199 h -8.125984 v 0 c -4.487858,0 -8.125984,-6.789757 -8.125984,-15.165352 0,-8.375595 3.638126,-15.165356 8.125984,-15.165356 H 45 Z" />
  </g>
  <g
     id="text115"
     style="font-size:36px;font-family:'DejaVu Sans', sans-serif;text-anchor:middle;fill:#ffffff"
     aria-label="3.500 HMz">
    <path
       id="path129"
       style=""
       d="m 85.771484,222.84961 q 2.548829,0.54492 3.972657,2.26758 1.441406,1.72265 1.441406,4.2539 0,3.88477 -2.671875,6.01172 -2.671875,2.12696 -7.59375,2.12696 -1.652344,0 -3.410156,-0.33399 -1.740235,-0.3164 -3.603516,-0.9668 v -3.42773 q 1.476563,0.86133 3.234375,1.30078 1.757813,0.43945 3.673828,0.43945 3.339844,0 5.080078,-1.31835 1.757813,-1.31836 1.757813,-3.83204 0,-2.32031 -1.634766,-3.62109 Q 84.400391,224.43164 81.5,224.43164 h -3.058594 v -2.91797 h 3.199219 q 2.619141,0 4.007813,-1.03711 1.388671,-1.05468 1.388671,-3.02343 0,-2.02149 -1.441406,-3.09375 -1.423828,-1.08985 -4.095703,-1.08985 -1.458984,0 -3.128906,0.31641 -1.669922,0.3164 -3.673828,0.98437 v -3.16406 q 2.021484,-0.5625 3.779297,-0.84375 1.77539,-0.28125 3.339843,-0.28125 4.042969,0 6.398438,1.8457 2.355469,1.82813 2.355469,4.95703 0,2.17969 -1.248047,3.69141 -1.248047,1.49414 -3.550782,2.07422 z" />
    <path
       id="path131"
       style=""
       d="m 97.935547,232.53516 h 3.708983 V 237 h -3.708983 z" />
    <path
       id="path133"
       style=""
       d="m 109.43164,210.75586 h 13.93945 v 2.98828 h -10.6875 v 6.43359 q 0.77344,-0.26367 1.54688,-0.38671 0.77344,-0.14063 1.54687,-0.14063 4.39453,0 6.96094,2.4082 2.56641,2.40821 2.56641,6.52149 0,4.23633 -2.63672,6.5918 -2.63672,2.33789 -7.43555,2.33789 -1.65234,0 -3.375,-0.28125 -1.70508,-0.28125 -3.5332,-0.84375 v -3.56836 q 1.58203,0.86132 3.26953,1.2832 1.6875,0.42187 3.56836,0.42187 3.04101,0 4.81641,-1.5996 1.77539,-1.59961 1.77539,-4.3418 0,-2.74219 -1.77539,-4.3418 -1.7754,-1.59961 -4.81641,-1.59961 -1.42383,0 -2.84766,0.31641 -1.40625,0.3164 -2.88281,0.98437 z" />
    <path
       id="path135"
       style=""
       d="m 139.91211,213.09375 q -2.74219,0 -4.13086,2.70703 -1.37109,2.68945 -1.37109,8.10352 0,5.39648 1.37109,8.10351 1.38867,2.68946 4.13086,2.68946 2.75977,0 4.13086,-2.68946 1.38867,-2.70703 1.38867,-8.10351 0,-5.41407 -1.38867,-8.10352 -1.37109,-2.70703 -4.13086,-2.70703 z m 0,-2.8125 q 4.41211,0 6.73242,3.49805 2.33789,3.48047 2.33789,10.125 0,6.62695 -2.33789,10.125 -2.32031,3.48047 -6.73242,3.48047 -4.41211,0 -6.75,-3.48047 -2.32031,-3.49805 -2.32031,-10.125 0,-6.64453 2.32031,-10.125 2.33789,-3.49805 6.75,-3.49805 z" />
    <path
       id="path137"
       style=""
       d="m 162.83398,213.09375 q -2.74218,0 -4.13085,2.70703 -1.3711,2.68945 -1.3711,8.10352 0,5.39648 1.3711,8.10351 1.38867,2.68946 4.13085,2.68946 2.75977,0 4.13086,-2.68946 1.38868,-2.70703 1.38868,-8.10351 0,-5.41407 -1.38868,-8.10352 -1.37109,-2.70703 -4.13086,-2.70703 z m 0,-2.8125 q 4.41211,0 6.73243,3.49805 2.33789,3.48047 2.33789,10.125 0,6.62695 -2.33789,10.125 -2.32032,3.48047 -6.73243,3.48047 -4.4121,0 -6.75,-3.48047 -2.32031,-3.49805 -2.32031,-10.125 0,-6.64453 2.32031,-10.125 2.3379,-3.49805 6.75,-3.49805 z" />
    <path
       id="path139"
       style=""
       d="m 189.30664,210.75586 h 3.55078 v 10.75781 h 12.90235 v -10.75781 h 3.55078 V 237 h -3.55078 V 224.50195 H 192.85742 V 237 h -3.55078 z" />
    <path
       id="path141"
       style=""
       d="m 216.37695,210.75586 h 5.29102 l 6.69726,17.85937 6.73243,-17.85937 h 5.29101 V 237 h -3.46289 v -23.04492 l -6.76758,18 h -3.56836 l -6.76757,-18 V 237 h -3.44532 z" />
    <path
       id="path143"
       style=""
       d="m 245.9082,217.3125 h 15.36328 v 2.95313 l -12.16406,14.15039 h 12.16406 V 237 h -15.80273 v -2.95312 l 12.16406,-14.1504 H 245.9082 Z" />
  </g>
  <g
     id="text119"
     style="font-size:20px;font-family:sans-serif;text-anchor:middle;fill:#000000"
     aria-label="[MISSING: MorseComponent/button_transmit]">
    <path
       id="path146"
       style="fill:#ff0000"
       d="m -65.011719,299.80469 h 4.140625 v 1.39648 h -2.34375 v 15.03906 h 2.34375 v 1.39649 h -4.140625 z" />
    <path
       id="path148"
       style="fill:#ff0000"
       d="m -56.955078,300.41992 h 2.939453 l 3.720703,9.92188 3.740234,-9.92188 h 2.939454 V 315 h -1.923829 v -12.80273 l -3.759765,10 h -1.982422 l -3.759766,-10 V 315 h -1.914062 z" />
    <path
       id="path150"
       style="fill:#ff0000"
       d="m -39.689453,300.41992 h 1.972656 V 315 h -1.972656 z" />
    <path
       id="path152"
       style="fill:#ff0000"
       d="m -25.050781,300.89844 v 1.92383 q -1.123047,-0.53711 -2.119141,-0.80079 -0.996094,-0.26367 -1.923828,-0.26367 -1.611328,0 -2.490234,0.625 -0.869141,0.625 -0.869141,1.77735 0,0.96679 0.576172,1.46484 0.585937,0.48828 2.207031,0.79102 l 1.191406,0.24414 q 2.207032,0.41992 3.251953,1.48437 1.054688,1.05469 1.054688,2.83203 0,2.11914 -1.425781,3.21289 -1.416016,1.09375 -4.160157,1.09375 -1.035156,0 -2.207031,-0.23437 -1.162109,-0.23438 -2.412109,-0.69336 v -2.03125 q 1.201172,0.67383 2.353515,1.01562 1.152344,0.3418 2.265625,0.3418 1.689454,0 2.607422,-0.66406 0.917969,-0.66406 0.917969,-1.89453 0,-1.07422 -0.664062,-1.67969 -0.654297,-0.60547 -2.158204,-0.9082 l -1.201171,-0.23438 q -2.207032,-0.43945 -3.19336,-1.37695 -0.986328,-0.9375 -0.986328,-2.60742 0,-1.9336 1.357422,-3.04688 1.367187,-1.11328 3.759766,-1.11328 1.02539,0 2.089843,0.18555 1.064453,0.18554 2.177735,0.55664 z" />
    <path
       id="path154"
       style="fill:#ff0000"
       d="m -12.355469,300.89844 v 1.92383 q -1.123047,-0.53711 -2.11914,-0.80079 -0.996094,-0.26367 -1.923829,-0.26367 -1.611328,0 -2.490234,0.625 -0.869141,0.625 -0.869141,1.77735 0,0.96679 0.576172,1.46484 0.585938,0.48828 2.207032,0.79102 l 1.191406,0.24414 q 2.207031,0.41992 3.251953,1.48437 1.054688,1.05469 1.054688,2.83203 0,2.11914 -1.425782,3.21289 -1.416015,1.09375 -4.160156,1.09375 -1.035156,0 -2.207031,-0.23437 -1.16211,-0.23438 -2.41211,-0.69336 v -2.03125 q 1.201172,0.67383 2.353516,1.01562 1.152344,0.3418 2.265625,0.3418 1.689453,0 2.607422,-0.66406 0.917969,-0.66406 0.917969,-1.89453 0,-1.07422 -0.664063,-1.67969 -0.654297,-0.60547 -2.158203,-0.9082 l -1.201172,-0.23438 q -2.207031,-0.43945 -3.193359,-1.37695 -0.986328,-0.9375 -0.986328,-2.60742 0,-1.9336 1.357421,-3.04688 1.367188,-1.11328 3.759766,-1.11328 1.025391,0 2.089844,0.18555 1.064453,0.18554 2.177734,0.55664 z" />
    <path
       id="path156"
       style="fill:#ff0000"
       d="m -8.4003906,300.41992 h 1.9726562 V 315 h -1.9726562 z" />
    <path
       id="path158"
       style="fill:#ff0000"
       d="M -2.5019531,300.41992 H 0.15429687 L 6.6191406,312.61719 V 300.41992 H 8.5332031 V 315 h -2.65625 L -0.58789063,302.80273 V 315 H -2.5019531 Z" />
    <path
       id="path160"
       style="fill:#ff0000"
       d="m 22.400391,312.91992 v -3.91601 h -3.222657 v -1.6211 h 5.175782 v 6.25977 q -1.142578,0.81055 -2.519532,1.23047 -1.376953,0.41015 -2.939453,0.41015 -3.417969,0 -5.351562,-1.99218 -1.923828,-2.00196 -1.923828,-5.56641 0,-3.57422 1.923828,-5.56641 1.933593,-2.00195 5.351562,-2.00195 1.425782,0 2.705078,0.35156 1.289063,0.35157 2.373047,1.03516 v 2.09961 q -1.09375,-0.92774 -2.324218,-1.39649 -1.230469,-0.46875 -2.587891,-0.46875 -2.675781,0 -4.023438,1.49414 -1.33789,1.49415 -1.33789,4.45313 0,2.94922 1.33789,4.44336 1.347657,1.49414 4.023438,1.49414 1.044922,0 1.865234,-0.17578 0.820313,-0.18555 1.47461,-0.56641 z" />
    <path
       id="path162"
       style="fill:#ff0000"
       d="m 28.347656,312.51953 h 2.060547 V 315 h -2.060547 z m 0,-7.86133 h 2.060547 v 2.48047 h -2.060547 z" />
    <path
       id="path164"
       style="fill:#ff0000"
       d="m 41.091797,300.41992 h 2.939453 l 3.720703,9.92188 3.740235,-9.92188 h 2.939453 V 315 h -1.923828 v -12.80273 l -3.759766,10 h -1.982422 l -3.759766,-10 V 315 h -1.914062 z" />
    <path
       id="path166"
       style="fill:#ff0000"
       d="m 62.517578,305.32227 q -1.445312,0 -2.285156,1.13281 -0.839844,1.12305 -0.839844,3.08594 0,1.96289 0.830078,3.0957 0.839844,1.12305 2.294922,1.12305 1.435547,0 2.275391,-1.13282 0.839844,-1.13281 0.839844,-3.08593 0,-1.94336 -0.839844,-3.07618 -0.839844,-1.14257 -2.275391,-1.14257 z m 0,-1.52344 q 2.34375,0 3.681641,1.52344 1.33789,1.52343 1.33789,4.21875 0,2.68554 -1.33789,4.21875 -1.337891,1.52343 -3.681641,1.52343 -2.353515,0 -3.691406,-1.52343 -1.328125,-1.53321 -1.328125,-4.21875 0,-2.69532 1.328125,-4.21875 1.337891,-1.52344 3.691406,-1.52344 z" />
    <path
       id="path168"
       style="fill:#ff0000"
       d="m 76.84375,305.74219 q -0.302734,-0.17578 -0.664062,-0.25391 -0.351563,-0.0879 -0.78125,-0.0879 -1.523438,0 -2.34375,0.99609 -0.810547,0.98633 -0.810547,2.8418 V 315 H 70.4375 v -10.9375 h 1.806641 v 1.69922 q 0.566406,-0.99609 1.474609,-1.47461 0.908203,-0.48828 2.207031,-0.48828 0.185547,0 0.410157,0.0293 0.224609,0.0195 0.498046,0.0684 z" />
    <path
       id="path170"
       style="fill:#ff0000"
       d="m 85.720703,304.38477 v 1.69921 q -0.761719,-0.39062 -1.582031,-0.58593 -0.820313,-0.19532 -1.699219,-0.19532 -1.33789,0 -2.011719,0.41016 -0.664062,0.41016 -0.664062,1.23047 0,0.625 0.478516,0.98633 0.478515,0.35156 1.923828,0.67383 l 0.615234,0.13671 q 1.914063,0.41016 2.714844,1.16211 0.810547,0.74219 0.810547,2.08008 0,1.52344 -1.210938,2.41211 -1.201172,0.88867 -3.310547,0.88867 -0.878906,0 -1.835937,-0.17578 -0.947266,-0.16601 -2.001953,-0.50781 v -1.85547 q 0.996093,0.51758 1.96289,0.78125 0.966797,0.25391 1.914063,0.25391 1.269531,0 1.953125,-0.42969 0.683594,-0.43945 0.683594,-1.23047 0,-0.73242 -0.498047,-1.12305 -0.488282,-0.39062 -2.158203,-0.75195 l -0.625,-0.14648 q -1.669922,-0.35157 -2.41211,-1.07422 -0.742187,-0.73242 -0.742187,-2.00196 0,-1.54296 1.09375,-2.38281 1.09375,-0.83984 3.105468,-0.83984 0.996094,0 1.875,0.14648 0.878907,0.14649 1.621094,0.43946 z" />
    <path
       id="path172"
       style="fill:#ff0000"
       d="m 98.533203,309.08203 v 0.87891 h -8.261719 q 0.117188,1.85547 1.113282,2.83203 1.005859,0.9668 2.792968,0.9668 1.035157,0 2.001954,-0.25391 0.976562,-0.25391 1.933593,-0.76172 v 1.69922 q -0.966797,0.41016 -1.982422,0.625 -1.015625,0.21484 -2.060546,0.21484 -2.617188,0 -4.150391,-1.52343 -1.523438,-1.52344 -1.523438,-4.1211 0,-2.68554 1.445313,-4.25781 1.455078,-1.58203 3.916016,-1.58203 2.207031,0 3.486328,1.42578 1.289062,1.41602 1.289062,3.85742 z m -1.796875,-0.52734 q -0.01953,-1.47461 -0.830078,-2.35352 -0.800781,-0.8789 -2.128906,-0.8789 -1.503906,0 -2.41211,0.84961 -0.898437,0.8496 -1.035156,2.39257 z" />
    <path
       id="path174"
       style="fill:#ff0000"
       d="m 112.47852,301.54297 v 2.08008 q -0.9961,-0.92774 -2.12891,-1.38672 -1.12305,-0.45899 -2.39258,-0.45899 -2.5,0 -3.82812,1.53321 -1.32813,1.52343 -1.32813,4.41406 0,2.88086 1.32813,4.41406 1.32812,1.52344 3.82812,1.52344 1.26953,0 2.39258,-0.45898 1.13281,-0.45899 2.12891,-1.38672 v 2.06054 q -1.03516,0.70313 -2.19727,1.05469 -1.15234,0.35156 -2.44141,0.35156 -3.31054,0 -5.21484,-2.02148 -1.9043,-2.03125 -1.9043,-5.53711 0,-3.51563 1.9043,-5.53711 1.9043,-2.03125 5.21484,-2.03125 1.3086,0 2.46094,0.35156 1.16211,0.3418 2.17774,1.03516 z" />
    <path
       id="path176"
       style="fill:#ff0000"
       d="m 119.70508,305.32227 q -1.44531,0 -2.28516,1.13281 -0.83984,1.12305 -0.83984,3.08594 0,1.96289 0.83008,3.0957 0.83984,1.12305 2.29492,1.12305 1.43554,0 2.27539,-1.13282 0.83984,-1.13281 0.83984,-3.08593 0,-1.94336 -0.83984,-3.07618 -0.83985,-1.14257 -2.27539,-1.14257 z m 0,-1.52344 q 2.34375,0 3.68164,1.52344 1.33789,1.52343 1.33789,4.21875 0,2.68554 -1.33789,4.21875 -1.33789,1.52343 -3.68164,1.52343 -2.35352,0 -3.69141,-1.52343 -1.32812,-1.53321 -1.32812,-4.21875 0,-2.69532 1.32812,-4.21875 1.33789,-1.52344 3.69141,-1.52344 z" />
    <path
       id="path178"
       style="fill:#ff0000"
       d="m 136.20898,306.16211 q 0.67383,-1.21094 1.61133,-1.78711 0.9375,-0.57617 2.20703,-0.57617 1.70899,0 2.63672,1.20117 0.92774,1.19141 0.92774,3.39844 V 315 h -1.80664 v -6.54297 q 0,-1.57226 -0.55664,-2.33398 -0.55664,-0.76172 -1.69922,-0.76172 -1.39649,0 -2.20703,0.92773 -0.81055,0.92774 -0.81055,2.5293 V 315 h -1.80664 v -6.54297 q 0,-1.58203 -0.55664,-2.33398 -0.55664,-0.76172 -1.71875,-0.76172 -1.37696,0 -2.1875,0.9375 -0.81055,0.92773 -0.81055,2.51953 V 315 H 127.625 v -10.9375 h 1.80664 v 1.69922 q 0.61524,-1.00586 1.47461,-1.48438 0.85938,-0.47851 2.04102,-0.47851 1.1914,0 2.02148,0.60547 0.83984,0.60547 1.24023,1.75781 z" />
    <path
       id="path180"
       style="fill:#ff0000"
       d="m 148.92383,313.35938 v 5.80078 h -1.80664 V 304.0625 h 1.80664 v 1.66016 q 0.5664,-0.97657 1.42578,-1.44532 0.86914,-0.47851 2.07031,-0.47851 1.99219,0 3.23242,1.58203 1.25,1.58203 1.25,4.16016 0,2.57812 -1.25,4.16015 -1.24023,1.58203 -3.23242,1.58203 -1.20117,0 -2.07031,-0.46875 -0.85938,-0.47851 -1.42578,-1.45507 z m 6.11328,-3.81836 q 0,-1.98243 -0.82031,-3.10547 -0.81055,-1.13282 -2.23633,-1.13282 -1.42578,0 -2.24609,1.13282 -0.81055,1.12304 -0.81055,3.10547 0,1.98242 0.81055,3.11523 0.82031,1.12305 2.24609,1.12305 1.42578,0 2.23633,-1.12305 0.82031,-1.13281 0.82031,-3.11523 z" />
    <path
       id="path182"
       style="fill:#ff0000"
       d="m 164.11914,305.32227 q -1.44531,0 -2.28516,1.13281 -0.83984,1.12305 -0.83984,3.08594 0,1.96289 0.83008,3.0957 0.83984,1.12305 2.29492,1.12305 1.43555,0 2.27539,-1.13282 0.83985,-1.13281 0.83985,-3.08593 0,-1.94336 -0.83985,-3.07618 -0.83984,-1.14257 -2.27539,-1.14257 z m 0,-1.52344 q 2.34375,0 3.68164,1.52344 1.33789,1.52343 1.33789,4.21875 0,2.68554 -1.33789,4.21875 -1.33789,1.52343 -3.68164,1.52343 -2.35351,0 -3.69141,-1.52343 -1.32812,-1.53321 -1.32812,-4.21875 0,-2.69532 1.32812,-4.21875 1.3379,-1.52344 3.69141,-1.52344 z" />
    <path
       id="path184"
       style="fill:#ff0000"
       d="M 181.19922,308.39844 V 315 h -1.79688 v -6.54297 q 0,-1.55273 -0.60546,-2.32422 -0.60547,-0.77148 -1.81641,-0.77148 -1.45508,0 -2.29492,0.92773 -0.83985,0.92774 -0.83985,2.5293 V 315 h -1.80664 v -10.9375 h 1.80664 v 1.69922 q 0.64453,-0.98633 1.51368,-1.47461 0.8789,-0.48828 2.02148,-0.48828 1.88477,0 2.85156,1.17187 0.9668,1.16211 0.9668,3.42774 z" />
    <path
       id="path186"
       style="fill:#ff0000"
       d="m 194.1582,309.08203 v 0.87891 h -8.26172 q 0.11719,1.85547 1.11329,2.83203 1.00586,0.9668 2.79296,0.9668 1.03516,0 2.00196,-0.25391 0.97656,-0.25391 1.93359,-0.76172 v 1.69922 q -0.9668,0.41016 -1.98242,0.625 -1.01563,0.21484 -2.06055,0.21484 -2.61718,0 -4.15039,-1.52343 -1.52344,-1.52344 -1.52344,-4.1211 0,-2.68554 1.44532,-4.25781 1.45508,-1.58203 3.91601,-1.58203 2.20703,0 3.48633,1.42578 1.28906,1.41602 1.28906,3.85742 z m -1.79687,-0.52734 q -0.0195,-1.47461 -0.83008,-2.35352 -0.80078,-0.8789 -2.12891,-0.8789 -1.5039,0 -2.41211,0.84961 -0.89843,0.8496 -1.03515,2.39257 z" />
    <path
       id="path188"
       style="fill:#ff0000"
       d="M 206.19922,308.39844 V 315 h -1.79688 v -6.54297 q 0,-1.55273 -0.60546,-2.32422 -0.60547,-0.77148 -1.81641,-0.77148 -1.45508,0 -2.29492,0.92773 -0.83985,0.92774 -0.83985,2.5293 V 315 h -1.80664 v -10.9375 h 1.80664 v 1.69922 q 0.64453,-0.98633 1.51368,-1.47461 0.8789,-0.48828 2.02148,-0.48828 1.88477,0 2.85156,1.17187 0.9668,1.16211 0.9668,3.42774 z" />
    <path
       id="path190"
       style="fill:#ff0000"
       d="m 211.58008,300.95703 v 3.10547 h 3.70117 v 1.39648 h -3.70117 v 5.9375 q 0,1.3379 0.36133,1.71875 0.37109,0.38086 1.49414,0.38086 h 1.8457 V 315 h -1.8457 q -2.08008,0 -2.8711,-0.77148 -0.79101,-0.78125 -0.79101,-2.83204 v -5.9375 h -1.31836 v -1.39648 h 1.31836 v -3.10547 z" />
    <path
       id="path192"
       style="fill:#ff0000"
       d="m 220.84766,300.41992 h 1.66015 l -5.07812,16.43555 h -1.66016 z" />
    <path
       id="path194"
       style="fill:#ff0000"
       d="m 232.26367,309.54102 q 0,-1.98243 -0.82031,-3.10547 -0.81055,-1.13282 -2.23633,-1.13282 -1.42578,0 -2.24609,1.13282 -0.81055,1.12304 -0.81055,3.10547 0,1.98242 0.81055,3.11523 0.82031,1.12305 2.24609,1.12305 1.42578,0 2.23633,-1.12305 0.82031,-1.13281 0.82031,-3.11523 z m -6.11328,-3.81836 q 0.56641,-0.97657 1.42578,-1.44532 0.86914,-0.47851 2.07031,-0.47851 1.99219,0 3.23243,1.58203 1.25,1.58203 1.25,4.16016 0,2.57812 -1.25,4.16015 -1.24024,1.58203 -3.23243,1.58203 -1.20117,0 -2.07031,-0.46875 -0.85937,-0.47851 -1.42578,-1.45507 V 315 h -1.80664 v -15.19531 h 1.80664 z" />
    <path
       id="path196"
       style="fill:#ff0000"
       d="m 236.92188,310.68359 v -6.62109 h 1.79687 v 6.55273 q 0,1.55274 0.60547,2.33399 0.60547,0.77148 1.81641,0.77148 1.45507,0 2.29492,-0.92773 0.84961,-0.92774 0.84961,-2.5293 v -6.20117 h 1.79687 V 315 h -1.79687 v -1.67969 q -0.6543,0.9961 -1.52344,1.48438 -0.85938,0.47851 -2.00195,0.47851 -1.88477,0 -2.86133,-1.17187 -0.97656,-1.17188 -0.97656,-3.42774 z m 4.52148,-6.88476 z" />
    <path
       id="path198"
       style="fill:#ff0000"
       d="m 251.58008,300.95703 v 3.10547 h 3.70117 v 1.39648 h -3.70117 v 5.9375 q 0,1.3379 0.36133,1.71875 0.37109,0.38086 1.49414,0.38086 h 1.8457 V 315 h -1.8457 q -2.08008,0 -2.8711,-0.77148 -0.79101,-0.78125 -0.79101,-2.83204 v -5.9375 h -1.31836 v -1.39648 h 1.31836 v -3.10547 z" />
    <path
       id="path200"
       style="fill:#ff0000"
       d="m 259.43164,300.95703 v 3.10547 h 3.70117 v 1.39648 h -3.70117 v 5.9375 q 0,1.3379 0.36133,1.71875 0.37109,0.38086 1.49414,0.38086 h 1.8457 V 315 h -1.8457 q -2.08008,0 -2.87109,-0.77148 -0.79102,-0.78125 -0.79102,-2.83204 v -5.9375 h -1.31836 v -1.39648 h 1.31836 v -3.10547 z" />
    <path
       id="path202"
       style="fill:#ff0000"
       d="m 269.74414,305.32227 q -1.44531,0 -2.28516,1.13281 -0.83984,1.12305 -0.83984,3.08594 0,1.96289 0.83008,3.0957 0.83984,1.12305 2.29492,1.12305 1.43555,0 2.27539,-1.13282 0.83985,-1.13281 0.83985,-3.08593 0,-1.94336 -0.83985,-3.07618 -0.83984,-1.14257 -2.27539,-1.14257 z m 0,-1.52344 q 2.34375,0 3.68164,1.52344 1.33789,1.52343 1.33789,4.21875 0,2.68554 -1.33789,4.21875 -1.33789,1.52343 -3.68164,1.52343 -2.35351,0 -3.69141,-1.52343 -1.32812,-1.53321 -1.32812,-4.21875 0,-2.69532 1.32812,-4.21875 1.3379,-1.52344 3.69141,-1.52344 z" />
    <path
       id="path204"
       style="fill:#ff0000"
       d="M 286.82422,308.39844 V 315 h -1.79688 v -6.54297 q 0,-1.55273 -0.60546,-2.32422 -0.60547,-0.77148 -1.81641,-0.77148 -1.45508,0 -2.29492,0.92773 -0.83985,0.92774 -0.83985,2.5293 V 315 h -1.80664 v -10.9375 h 1.80664 v 1.69922 q 0.64453,-0.98633 1.51368,-1.47461 0.8789,-0.48828 2.02148,-0.48828 1.88477,0 2.85156,1.17187 0.9668,1.16211 0.9668,3.42774 z" />
    <path
       id="path206"
       style="fill:#ff0000"
       d="m 298.73828,318.32031 v 1.39649 h -10.39062 v -1.39649 z" />
    <path
       id="path208"
       style="fill:#ff0000"
       d="m 302.20508,300.95703 v 3.10547 h 3.70117 v 1.39648 h -3.70117 v 5.9375 q 0,1.3379 0.36133,1.71875 0.37109,0.38086 1.49414,0.38086 h 1.8457 V 315 h -1.8457 q -2.08008,0 -2.8711,-0.77148 -0.79101,-0.78125 -0.79101,-2.83204 v -5.9375 h -1.31836 v -1.39648 h 1.31836 v -3.10547 z" />
    <path
       id="path210"
       style="fill:#ff0000"
       d="m 314.61719,305.74219 q -0.30274,-0.17578 -0.66406,-0.25391 -0.35157,-0.0879 -0.78125,-0.0879 -1.52344,0 -2.34375,0.99609 -0.81055,0.98633 -0.81055,2.8418 V 315 h -1.80664 v -10.9375 h 1.80664 v 1.69922 q 0.5664,-0.99609 1.47461,-1.47461 0.9082,-0.48828 2.20703,-0.48828 0.18555,0 0.41016,0.0293 0.2246,0.0195 0.49804,0.0684 z" />
    <path
       id="path212"
       style="fill:#ff0000"
       d="m 321.49219,309.50195 q -2.17774,0 -3.01758,0.49805 -0.83984,0.49805 -0.83984,1.69922 0,0.95703 0.625,1.52344 0.63476,0.55664 1.71875,0.55664 1.49414,0 2.39257,-1.05469 0.90821,-1.06445 0.90821,-2.82227 v -0.40039 z m 3.58398,-0.74218 V 315 h -1.79687 v -1.66016 q -0.61524,0.9961 -1.53321,1.47461 -0.91796,0.46875 -2.24609,0.46875 -1.67969,0 -2.67578,-0.9375 -0.98633,-0.94726 -0.98633,-2.52929 0,-1.84571 1.23047,-2.78321 1.24023,-0.9375 3.69141,-0.9375 h 2.51953 v -0.17578 q 0,-1.24023 -0.82032,-1.91406 -0.81054,-0.68359 -2.28515,-0.68359 -0.9375,0 -1.82617,0.22461 -0.88868,0.2246 -1.70899,0.67382 v -1.66015 q 0.98633,-0.38086 1.91406,-0.56641 0.92774,-0.19531 1.80665,-0.19531 2.37304,0 3.54492,1.23047 1.17187,1.23047 1.17187,3.73047 z" />
    <path
       id="path214"
       style="fill:#ff0000"
       d="M 337.87891,308.39844 V 315 h -1.79688 v -6.54297 q 0,-1.55273 -0.60547,-2.32422 -0.60547,-0.77148 -1.8164,-0.77148 -1.45508,0 -2.29493,0.92773 -0.83984,0.92774 -0.83984,2.5293 V 315 h -1.80664 v -10.9375 h 1.80664 v 1.69922 q 0.64453,-0.98633 1.51367,-1.47461 0.87891,-0.48828 2.02149,-0.48828 1.88476,0 2.85156,1.17187 0.9668,1.16211 0.9668,3.42774 z" />
    <path
       id="path216"
       style="fill:#ff0000"
       d="m 348.45508,304.38477 v 1.69921 q -0.76172,-0.39062 -1.58203,-0.58593 -0.82032,-0.19532 -1.69922,-0.19532 -1.33789,0 -2.01172,0.41016 -0.66406,0.41016 -0.66406,1.23047 0,0.625 0.47851,0.98633 0.47852,0.35156 1.92383,0.67383 l 0.61524,0.13671 q 1.91406,0.41016 2.71484,1.16211 0.81055,0.74219 0.81055,2.08008 0,1.52344 -1.21094,2.41211 -1.20117,0.88867 -3.31055,0.88867 -0.8789,0 -1.83594,-0.17578 -0.94726,-0.16601 -2.00195,-0.50781 v -1.85547 q 0.99609,0.51758 1.96289,0.78125 0.9668,0.25391 1.91406,0.25391 1.26954,0 1.95313,-0.42969 0.68359,-0.43945 0.68359,-1.23047 0,-0.73242 -0.49804,-1.12305 -0.48829,-0.39062 -2.15821,-0.75195 l -0.625,-0.14648 q -1.66992,-0.35157 -2.41211,-1.07422 -0.74218,-0.73242 -0.74218,-2.00196 0,-1.54296 1.09375,-2.38281 1.09375,-0.83984 3.10546,-0.83984 0.9961,0 1.875,0.14648 0.87891,0.14649 1.6211,0.43946 z" />
    <path
       id="path218"
       style="fill:#ff0000"
       d="m 360.42773,306.16211 q 0.67383,-1.21094 1.61133,-1.78711 0.9375,-0.57617 2.20703,-0.57617 1.70899,0 2.63672,1.20117 0.92774,1.19141 0.92774,3.39844 V 315 h -1.80664 v -6.54297 q 0,-1.57226 -0.55664,-2.33398 -0.55664,-0.76172 -1.69922,-0.76172 -1.39649,0 -2.20703,0.92773 -0.81055,0.92774 -0.81055,2.5293 V 315 h -1.80664 v -6.54297 q 0,-1.58203 -0.55664,-2.33398 -0.55664,-0.76172 -1.71875,-0.76172 -1.37696,0 -2.1875,0.9375 -0.81055,0.92773 -0.81055,2.51953 V 315 h -1.80664 v -10.9375 h 1.80664 v 1.69922 q 0.61524,-1.00586 1.47461,-1.48438 0.85938,-0.47851 2.04102,-0.47851 1.1914,0 2.02148,0.60547 0.83984,0.60547 1.24023,1.75781 z" />
    <path
       id="path220"
       style="fill:#ff0000"
       d="m 371.4043,304.0625 h 1.79687 V 315 h -1.79687 z m 0,-4.25781 h 1.79687 v 2.27539 h -1.79687 z" />
    <path
       id="path222"
       style="fill:#ff0000"
       d="m 378.72852,300.95703 v 3.10547 h 3.70117 v 1.39648 h -3.70117 v 5.9375 q 0,1.3379 0.36132,1.71875 0.3711,0.38086 1.49414,0.38086 h 1.84571 V 315 h -1.84571 q -2.08007,0 -2.87109,-0.77148 -0.79101,-0.78125 -0.79101,-2.83204 v -5.9375 h -1.31836 v -1.39648 h 1.31836 v -3.10547 z" />
    <path
       id="path224"
       style="fill:#ff0000"
       d="m 389.00195,299.80469 v 17.83203 h -4.14062 v -1.39649 h 2.33398 v -15.03906 h -2.33398 v -1.39648 z" />
  </g>
</svg>
