<?xml version="1.0" encoding="UTF-8" standalone="no"?>
<svg
   xmlns:dc="http://purl.org/dc/elements/1.1/"
   xmlns:cc="http://creativecommons.org/ns#"
   xmlns:rdf="http://www.w3.org/1999/02/22-rdf-syntax-ns#"
   xmlns:svg="http://www.w3.org/2000/svg"
   xmlns="http://www.w3.org/2000/svg"
   id="svg173"
   stroke-miterlimit="10"
   stroke-linecap="square"
   stroke="none"
   fill="none"
   viewBox="0.0 0.0 1234.0 802.0"
   version="1.1">
  <metadata
     id="metadata179">
    <rdf:RDF>
      <cc:Work
         rdf:about="">
        <dc:format>image/svg+xml</dc:format>
        <dc:type
           rdf:resource="http://purl.org/dc/dcmitype/StillImage" />
      </cc:Work>
    </rdf:RDF>
  </metadata>
  <defs
     id="defs177" />
  <clipPath
     id="p.0">
    <path
       id="path2"
       clip-rule="nonzero"
       d="m0 0l1234.0 0l0 802.0l-1234.0 0l0 -802.0z" />
  </clipPath>
  <g
     id="g167"
     clip-path="url(#p.0)">
    <path
       style="fill:#000000;fill-opacity:0;fill-rule:evenodd"
       id="path5"
       d="M 0,0 H 1234 V 802 H 0 Z" />
    <path
       style="fill:#ffffff;fill-rule:evenodd"
       id="path7"
       d="M 0,-0.00131234 H 1232 V 800.03025 H 0 Z" />
    <path
       style="fill-rule:evenodd;stroke:#000000;stroke-width:2;stroke-linecap:butt;stroke-linejoin:round"
       id="path9"
       d="M 0,-0.00131234 H 1232 V 800.03025 H 0 Z" />
    <path
       style="fill:#ffffff;fill-rule:evenodd"
       id="path11"
       d="m 54.20866,40.560368 h 348 V 388.52887 h -348 z" />
    <path
       style="fill:#000000;fill-opacity:0;fill-rule:evenodd"
       id="path13"
       d="m 65.2874,46.33619 h 336.9134 v 337.6693 H 65.2874 Z" />
    <path
       style="fill-rule:evenodd;stroke:#000000;stroke-width:2;stroke-linecap:butt;stroke-linejoin:round"
       id="path15"
       d="m 65.2874,46.33619 h 336.9134 v 337.6693 H 65.2874 Z" />
    <path
       style="fill:#ffffff;fill-rule:evenodd"
       id="path17"
       d="m 81.65092,139.12111 h 304.189 v 208.03148 h -304.189 z" />
    <path
       style="fill-rule:evenodd;stroke:#000000;stroke-width:2;stroke-linecap:butt;stroke-linejoin:round"
       id="path19"
       d="m 81.65092,139.12111 h 304.189 v 208.03148 h -304.189 z" />
    <path
       style="fill:#000000;fill-opacity:0;fill-rule:evenodd"
       id="path21"
       d="m 89.41207,150.47804 h 288.78738 v 181.6378 H 89.41207 Z" />
    <path
       style="fill:#000000;fill-rule:nonzero"
       id="path23"
       d="m 114.55576,263.17694 11.8125,-1 q 1.3125,8.625 6.09376,12.96875 4.78125,4.34375 11.53125,4.34375 8.125,0 13.75,-6.125 5.625,-6.125 5.625,-16.25 0,-9.62501 -5.40625,-15.18751 -5.40625,-5.5625 -14.15625,-5.5625 -5.4375,0 -9.8125,2.46875 -4.375,2.46875 -6.87501,6.40625 l -10.5625,-1.375 8.875,-47.0625 h 45.56251 v 10.75 h -36.5625 l -4.9375,24.625 q 8.25,-5.75 17.3125,-5.75 12,0 20.25,8.3125 8.25,8.3125 8.25,21.37501 0,12.4375 -7.25,21.5 -8.8125,11.125 -24.0625,11.125 -12.5,0 -20.40626,-7 -7.90625,-7 -9.03125,-18.5625 z m 77.43751,-29.56251 v -12.8125 h 12.8125 v 12.8125 z m 0,53.56251 v -12.8125 h 12.8125 v 12.8125 z m 29.3125,-45.18751 q 0,-16.25 3.34375,-26.15625 3.34375,-9.90625 9.9375,-15.28125 6.59375,-5.375 16.59375,-5.375 7.37498,0 12.93748,2.96875 5.5625,2.96875 9.1875,8.5625 3.625,5.59375 5.6875,13.625 2.0625,8.03125 2.0625,21.65625 0,16.12501 -3.3125,26.03126 -3.3125,9.90625 -9.90625,15.3125 -6.59375,5.40625 -16.65623,5.40625 -13.25,0 -20.8125,-9.5 -9.0625,-11.4375 -9.0625,-37.25001 z m 11.5625,0 q 0,22.56251 5.28125,30.03126 5.28125,7.46875 13.03125,7.46875 7.74998,0 13.03123,-7.5 5.28125,-7.5 5.28125,-30.00001 0,-22.625 -5.28125,-30.0625 -5.28125,-7.4375 -13.15623,-7.4375 -7.75,0 -12.375,6.5625 -5.8125,8.375 -5.8125,30.9375 z m 59.62498,0 q 0,-16.25 3.34375,-26.15625 3.34375,-9.90625 9.9375,-15.28125 6.59375,-5.375 16.59375,-5.375 7.375,0 12.9375,2.96875 5.5625,2.96875 9.1875,8.5625 3.625,5.59375 5.6875,13.625 2.0625,8.03125 2.0625,21.65625 0,16.12501 -3.3125,26.03126 -3.3125,9.90625 -9.90625,15.3125 -6.59375,5.40625 -16.65625,5.40625 -13.25,0 -20.8125,-9.5 -9.0625,-11.4375 -9.0625,-37.25001 z m 11.5625,0 q 0,22.56251 5.28125,30.03126 5.28125,7.46875 13.03125,7.46875 7.75,0 13.03125,-7.5 5.28125,-7.5 5.28125,-30.00001 0,-22.625 -5.28125,-30.0625 -5.28125,-7.4375 -13.15625,-7.4375 -7.75,0 -12.375,6.5625 -5.8125,8.375 -5.8125,30.9375 z" />
    <path
       style="fill:#000000;fill-opacity:0;fill-rule:evenodd"
       id="path25"
       d="M 457.3281,422.8664 H 794.24146 V 760.5357 H 457.3281 Z" />
    <path
       style="fill-rule:evenodd;stroke:#000000;stroke-width:2;stroke-linecap:butt;stroke-linejoin:round"
       id="path27"
       d="M 457.3281,422.8664 H 794.24146 V 760.5357 H 457.3281 Z" />
    <path
       style="fill:#000000;fill-opacity:0;fill-rule:evenodd"
       id="path29"
       d="M 843.65356,45.708893 H 1180.5669 V 383.37819 H 843.65356 Z" />
    <path
       style="fill-rule:evenodd;stroke:#000000;stroke-width:2;stroke-linecap:butt;stroke-linejoin:round"
       id="path31"
       d="M 843.65356,45.708893 H 1180.5669 V 383.37819 H 843.65356 Z" />
    <path
       style="fill:#000000;fill-opacity:0;fill-rule:evenodd"
       id="path33"
       d="m 183.8924,65.91076 h 106.64566 v 63.40157 H 183.8924 Z" />
    <path
       style="fill-rule:evenodd;stroke:#000000;stroke-width:2;stroke-linecap:butt;stroke-linejoin:round"
       id="path35"
       d="m 183.8924,65.91076 h 106.64566 v 63.40157 H 183.8924 Z" />
    <path
       style="fill:#000000;fill-opacity:0;fill-rule:evenodd"
       id="path37"
       d="m 308.15222,97.61155 v 0 c 0,-17.507866 15.0672,-31.70079 33.65356,-31.70079 v 0 c 8.92548,0 17.48539,3.339897 23.79663,9.28495 6.31128,5.945045 9.85691,14.00827 9.85691,22.41584 v 0 c 0,17.50786 -15.0672,31.70078 -33.65354,31.70078 v 0 c -18.58636,0 -33.65356,-14.19292 -33.65356,-31.70078 z" />
    <path
       style="fill-rule:evenodd;stroke:#000000;stroke-width:2;stroke-linecap:butt;stroke-linejoin:round"
       id="path39"
       d="m 308.15222,97.61155 v 0 c 0,-17.507866 15.0672,-31.70079 33.65356,-31.70079 v 0 c 8.92548,0 17.48539,3.339897 23.79663,9.28495 6.31128,5.945045 9.85691,14.00827 9.85691,22.41584 v 0 c 0,17.50786 -15.0672,31.70078 -33.65354,31.70078 v 0 c -18.58636,0 -33.65356,-14.19292 -33.65356,-31.70078 z" />
    <path
       style="fill:#000000;fill-opacity:0;fill-rule:evenodd"
       id="path41"
       d="m 183.8924,65.91076 h 929.5433 V 174.3517 H 183.8924 Z" />
    <path
       style="fill:#ffffff;fill-rule:evenodd"
       id="path43"
       d="M 446.66858,40.343136 H 792.85895 V 390.39948 H 446.66858 Z" />
    <path
       style="fill:#000000;fill-opacity:0;fill-rule:evenodd"
       id="path45"
       d="m 457.68973,46.15361 h 335.1614 v 339.6953 h -335.1614 z" />
    <path
       style="fill-rule:evenodd;stroke:#000000;stroke-width:2;stroke-linecap:butt;stroke-linejoin:round"
       id="path47"
       d="m 457.68973,46.15361 h 335.1614 v 339.6953 h -335.1614 z" />
    <path
       style="fill:#ffffff;fill-rule:evenodd"
       id="path49"
       d="M 469.5857,111.94842 H 693.7995 V 348.69903 H 469.5857 Z" />
    <path
       style="fill-rule:evenodd;stroke:#000000;stroke-width:2;stroke-linecap:butt;stroke-linejoin:round"
       id="path51"
       d="M 469.5857,111.94842 H 693.7995 V 348.69903 H 469.5857 Z" />
    <path
       style="fill:#000000;fill-rule:evenodd"
       id="path53"
       d="M 724.6719,150.9634 H 770.699 V 348.70975 H 724.6719 Z" />
    <path
       style="fill-rule:evenodd;stroke:#000000;stroke-width:2;stroke-linecap:butt;stroke-linejoin:round"
       id="path55"
       d="M 724.6719,150.9634 H 770.699 V 348.70975 H 724.6719 Z" />
    <path
       style="fill:#ffffff;fill-rule:evenodd"
       id="path57"
       d="m 733.9016,81.14039 v 0 c 0,-8.42585 6.92981,-15.256348 15.47815,-15.256348 v 0 c 4.10504,0 8.04199,1.607361 10.9447,4.468475 2.90271,2.861122 4.53345,6.741638 4.53345,10.787872 v 0 c 0,8.425842 -6.92981,15.256348 -15.47815,15.256348 v 0 c -8.54834,0 -15.47815,-6.830505 -15.47815,-15.256347 z" />
    <path
       style="fill-rule:evenodd;stroke:#000000;stroke-width:2;stroke-linecap:butt;stroke-linejoin:round"
       id="path59"
       d="m 733.9016,81.14039 v 0 c 0,-8.42585 6.92981,-15.256348 15.47815,-15.256348 v 0 c 4.10504,0 8.04199,1.607361 10.9447,4.468475 2.90271,2.861122 4.53345,6.741638 4.53345,10.787872 v 0 c 0,8.425842 -6.92981,15.256348 -15.47815,15.256348 v 0 c -8.54834,0 -15.47815,-6.830505 -15.47815,-15.256347 z" />
    <path
       style="fill:#ffffff;fill-rule:evenodd"
       id="path61"
       d="m 484.02972,230.32394 v 0 c 0,-55.27986 43.7251,-100.09305 97.66272,-100.09305 v 0 c 25.90173,0 50.74268,10.54549 69.05798,29.31657 18.31531,18.77109 28.60474,44.23015 28.60474,70.77648 v 0 c 0,55.27987 -43.7251,100.09305 -97.66272,100.09305 v 0 c -53.93763,0 -97.66272,-44.81317 -97.66272,-100.09305 z" />
    <path
       style="fill-rule:evenodd;stroke:#000000;stroke-width:2;stroke-linecap:butt;stroke-linejoin:round"
       id="path63"
       d="m 484.02972,230.32394 v 0 c 0,-55.27986 43.7251,-100.09305 97.66272,-100.09305 v 0 c 25.90173,0 50.74268,10.54549 69.05798,29.31657 18.31531,18.77109 28.60474,44.23015 28.60474,70.77648 v 0 c 0,55.27987 -43.7251,100.09305 -97.66272,100.09305 v 0 c -53.93763,0 -97.66272,-44.81317 -97.66272,-100.09305 z" />
    <path
       style="fill:#000000;fill-opacity:0;fill-rule:evenodd"
       id="path65"
       d="m 497.82376,194.7483 h 201.46658 v 71.10121 H 497.82376 Z" />
    <path
       style="fill:#000000;fill-opacity:0;fill-rule:evenodd"
       id="path67"
       d="m 493.3942,136.91644 h 176.99606 v 186.815 H 493.3942 Z" />
    <path
       style="fill-rule:evenodd;stroke:#000000;stroke-width:1;stroke-linecap:butt;stroke-linejoin:round"
       id="path69"
       d="m 493.3942,136.91644 h 176.99606 v 186.815 H 493.3942 Z" />
    <path
       style="fill:#000000;fill-opacity:0;fill-rule:evenodd"
       id="path71"
       d="m 470.25397,113.67552 23.34256,23.19345" />
    <path
       style="fill-rule:evenodd;stroke:#000000;stroke-width:1;stroke-linecap:butt;stroke-linejoin:round"
       id="path73"
       d="m 470.25397,113.67552 23.34256,23.19345" />
    <path
       style="fill:#000000;fill-opacity:0;fill-rule:evenodd"
       id="path75"
       d="m 670.5952,323.72885 22.96655,24.42917" />
    <path
       style="fill-rule:evenodd;stroke:#000000;stroke-width:1;stroke-linecap:butt;stroke-linejoin:round"
       id="path77"
       d="m 670.5952,323.72885 22.96655,24.42917" />
    <path
       style="fill:#000000;fill-opacity:0;fill-rule:evenodd"
       id="path79"
       d="m 693.53564,113.67552 -22.52789,23.19345" />
    <path
       style="fill-rule:evenodd;stroke:#000000;stroke-width:1;stroke-linecap:butt;stroke-linejoin:round"
       id="path81"
       d="m 693.53564,113.67552 -22.52789,23.19345" />
    <path
       style="fill:#000000;fill-opacity:0;fill-rule:evenodd"
       id="path83"
       d="m 493.18918,323.73413 -22.52789,23.19345" />
    <path
       style="fill-rule:evenodd;stroke:#000000;stroke-width:1;stroke-linecap:butt;stroke-linejoin:round"
       id="path85"
       d="m 493.18918,323.73413 -22.52789,23.19345" />
    <path
       style="fill:#000000;fill-opacity:0;fill-rule:evenodd"
       id="path87"
       d="m 507.53677,99.58888 h 25.81778 v 12.35716 h -25.81778 z" />
    <path
       style="fill-rule:evenodd;stroke:#000000;stroke-width:2;stroke-linecap:butt;stroke-linejoin:round"
       id="path89"
       d="m 507.53677,99.58888 h 25.81778 v 12.35716 h -25.81778 z" />
    <path
       style="fill:#000000;fill-opacity:0;fill-rule:evenodd"
       id="path91"
       d="m 632.0356,99.58888 h 25.81781 v 12.35716 H 632.0356 Z" />
    <path
       style="fill-rule:evenodd;stroke:#000000;stroke-width:2;stroke-linecap:butt;stroke-linejoin:round"
       id="path93"
       d="m 632.0356,99.58888 h 25.81781 v 12.35716 H 632.0356 Z" />
    <path
       style="fill:#000000;fill-opacity:0;fill-rule:evenodd"
       id="path95"
       d="m 536.34155,104.14625 h 91.77228 v 7.79452 h -91.77228 z" />
    <path
       style="fill-rule:evenodd;stroke:#000000;stroke-width:2;stroke-linecap:butt;stroke-linejoin:round"
       id="path97"
       d="m 536.34155,104.14625 h 91.77228 v 7.79452 h -91.77228 z" />
    <path
       style="fill:#ffffff;fill-rule:evenodd"
       id="path99"
       d="M 54.209972,415.29398 H 402.20997 V 763.26246 H 54.209972 Z" />
    <path
       style="fill:#000000;fill-opacity:0;fill-rule:evenodd"
       id="path101"
       d="m 65.28871,421.0698 h 336.9134 V 758.73908 H 65.28871 Z" />
    <path
       style="fill-rule:evenodd;stroke:#000000;stroke-width:2;stroke-linecap:butt;stroke-linejoin:round"
       id="path103"
       d="m 65.28871,421.0698 h 336.9134 V 758.73908 H 65.28871 Z" />
    <path
       style="fill:#000000;fill-opacity:0;fill-rule:evenodd"
       id="path105"
       d="m 128.61154,590.35956 52.56694,-52.5669 52.56692,52.5669 -52.56692,52.56696 z" />
    <path
       style="fill-rule:evenodd;stroke:#000000;stroke-width:2;stroke-linecap:butt;stroke-linejoin:round"
       id="path107"
       d="m 128.61154,590.35956 52.56694,-52.5669 52.56692,52.5669 -52.56692,52.56696 z" />
    <path
       style="fill:#000000;fill-opacity:0;fill-rule:evenodd"
       id="path109"
       d="m 181.47244,642.4724 52.56693,-52.5669 52.56692,52.5669 -52.56692,52.56696 z" />
    <path
       style="fill-rule:evenodd;stroke:#000000;stroke-width:2;stroke-linecap:butt;stroke-linejoin:round"
       id="path111"
       d="m 181.47244,642.4724 52.56693,-52.5669 52.56692,52.5669 -52.56692,52.56696 z" />
    <path
       style="fill:#000000;fill-opacity:0;fill-rule:evenodd"
       id="path113"
       d="m 233.7454,590.35956 52.56694,-52.5669 52.56693,52.5669 -52.56693,52.56696 z" />
    <path
       style="fill-rule:evenodd;stroke:#000000;stroke-width:2;stroke-linecap:butt;stroke-linejoin:round"
       id="path115"
       d="m 233.7454,590.35956 52.56694,-52.5669 52.56693,52.5669 -52.56693,52.56696 z" />
    <path
       style="fill:#000000;fill-opacity:0;fill-rule:evenodd"
       id="path117"
       d="m 181.47244,537.33856 52.56693,-52.56689 52.56692,52.56689 -52.56692,52.56696 z" />
    <path
       style="fill-rule:evenodd;stroke:#000000;stroke-width:2;stroke-linecap:butt;stroke-linejoin:round"
       id="path119"
       d="m 181.47244,537.33856 52.56693,-52.56689 52.56692,52.56689 -52.56692,52.56696 z" />
    <path
       style="fill:#ffffff;fill-rule:evenodd"
       id="path121"
       d="m 342.9444,455.8479 v 0 c 0,-8.37561 6.96603,-15.16538 15.55908,-15.16538 v 0 c 4.1265,0 8.08402,1.59778 11.00189,4.44184 2.91791,2.84405 4.55716,6.70141 4.55716,10.72354 v 0 c 0,8.37558 -6.96603,15.16534 -15.55905,15.16534 v 0 c -8.59305,0 -15.55908,-6.78976 -15.55908,-15.16534 z" />
    <path
       style="fill-rule:evenodd;stroke:#000000;stroke-width:2;stroke-linecap:butt;stroke-linejoin:round"
       id="path123"
       d="m 342.9444,455.8479 v 0 c 0,-8.37561 6.96603,-15.16538 15.55908,-15.16538 v 0 c 4.1265,0 8.08402,1.59778 11.00189,4.44184 2.91791,2.84405 4.55716,6.70141 4.55716,10.72354 v 0 c 0,8.37558 -6.96603,15.16534 -15.55905,15.16534 v 0 c -8.59305,0 -15.55908,-6.78976 -15.55908,-15.16534 z" />
    <path
       style="fill:#ffffff;fill-rule:evenodd"
       id="path125"
       d="m 829.4068,419.04724 h 348.0001 v 347.9685 H 829.4068 Z" />
    <path
       style="fill:#000000;fill-opacity:0;fill-rule:evenodd"
       id="path127"
       d="m 840.48553,424.82306 h 336.91337 v 337.6693 H 840.48553 Z" />
    <path
       style="fill-rule:evenodd;stroke:#000000;stroke-width:2;stroke-linecap:butt;stroke-linejoin:round"
       id="path129"
       d="m 840.48553,424.82306 h 336.91337 v 337.6693 H 840.48553 Z" />
    <path
       style="fill:#ffffff;fill-rule:evenodd"
       id="path131"
       d="m 1118.1412,459.60117 v 0 c 0,-8.37558 6.9661,-15.16534 15.5591,-15.16534 v 0 c 4.1264,0 8.084,1.59777 11.0019,4.44183 2.9179,2.84405 4.5572,6.70142 4.5572,10.72351 v 0 c 0,8.37561 -6.9661,15.16534 -15.5591,15.16534 v 0 c -8.593,0 -15.5591,-6.78973 -15.5591,-15.16534 z" />
    <path
       style="fill-rule:evenodd;stroke:#000000;stroke-width:2;stroke-linecap:butt;stroke-linejoin:round"
       id="path133"
       d="m 1118.1412,459.60117 v 0 c 0,-8.37558 6.9661,-15.16534 15.5591,-15.16534 v 0 c 4.1264,0 8.084,1.59777 11.0019,4.44183 2.9179,2.84405 4.5572,6.70142 4.5572,10.72351 v 0 c 0,8.37561 -6.9661,15.16534 -15.5591,15.16534 v 0 c -8.593,0 -15.5591,-6.78973 -15.5591,-15.16534 z" />
    <path
       style="fill:#000000;fill-opacity:0;fill-rule:evenodd"
       id="path135"
       d="m 882.43304,480.79266 h 29.1654 v 225.7323 h -29.1654 z" />
    <path
       style="fill-rule:evenodd;stroke:#000000;stroke-width:2;stroke-linecap:butt;stroke-linejoin:round"
       id="path137"
       d="m 882.43304,480.79266 h 29.1654 v 225.7323 h -29.1654 z" />
    <path
       style="fill:#000000;fill-opacity:0;fill-rule:evenodd"
       id="path139"
       d="m 1092.9763,525.6352 h 29.1654 v 178.20471 h -29.1654 z" />
    <path
       style="fill-rule:evenodd;stroke:#000000;stroke-width:2;stroke-linecap:butt;stroke-linejoin:round"
       id="path141"
       d="m 1092.9763,525.6352 h 29.1654 v 178.20471 h -29.1654 z" />
    <path
       style="fill:#000000;fill-opacity:0;fill-rule:evenodd"
       id="path143"
       d="m 897.0131,513.10205 c 10.84711,-2.32684 19.52801,12.0625 30.56696,13.16534 24.49322,2.44709 49.25921,-2.85345 73.83194,-1.40942 11.6878,0.68683 20.1348,12.745 31.5092,15.51965 25.0114,6.10132 50.6969,9.06037 76.1838,12.69556" />
    <path
       style="fill-rule:evenodd;stroke:#000000;stroke-width:2;stroke-linecap:butt;stroke-linejoin:round"
       id="path145"
       d="m 897.0131,513.10205 c 10.84711,-2.32684 19.52801,12.0625 30.56696,13.16534 24.49322,2.44709 49.25921,-2.85345 73.83194,-1.40942 11.6878,0.68683 20.1348,12.745 31.5092,15.51965 25.0114,6.10132 50.6969,9.06037 76.1838,12.69556" />
    <path
       style="fill:#000000;fill-opacity:0;fill-rule:evenodd"
       id="path147"
       d="m 900.7743,549.31165 c 24.46918,-11.12347 52.59796,13.95001 79.47504,13.63782 23.98266,-0.27857 49.30706,-7.90027 71.95286,0 18.9275,6.60315 43.6676,30.63415 57.8425,16.45929" />
    <path
       style="fill-rule:evenodd;stroke:#000000;stroke-width:2;stroke-linecap:butt;stroke-linejoin:round"
       id="path149"
       d="m 900.7743,549.31165 c 24.46918,-11.12347 52.59796,13.95001 79.47504,13.63782 23.98266,-0.27857 49.30706,-7.90027 71.95286,0 18.9275,6.60315 43.6676,30.63415 57.8425,16.45929" />
    <path
       style="fill:#000000;fill-opacity:0;fill-rule:evenodd"
       id="path151"
       d="m 897.4829,582.23114 c 13.5943,-1.78241 28.33264,-9.68384 40.91339,-4.23358 8.54523,3.70196 7.23016,21.3305 16.45935,22.57483 30.32599,4.08856 61.21616,-1.60498 91.70346,-4.23358 21.8703,-1.88568 43.4159,7.99475 65.3674,7.99475" />
    <path
       style="fill-rule:evenodd;stroke:#000000;stroke-width:2;stroke-linecap:butt;stroke-linejoin:round"
       id="path153"
       d="m 897.4829,582.23114 c 13.5943,-1.78241 28.33264,-9.68384 40.91339,-4.23358 8.54523,3.70196 7.23016,21.3305 16.45935,22.57483 30.32599,4.08856 61.21616,-1.60498 91.70346,-4.23358 21.8703,-1.88568 43.4159,7.99475 65.3674,7.99475" />
    <path
       style="fill:#000000;fill-opacity:0;fill-rule:evenodd"
       id="path155"
       d="m 896.5407,609.50684 c 14.41009,-0.97375 29.28052,-5.96173 43.26508,-2.35168 11.1842,2.88714 21.44329,9.5205 32.92126,10.81628 22.41309,2.53021 45.28646,2.3772 67.24666,7.5249 11.8427,2.77606 21.6269,5.82349 29.1575,6.11286 13.7923,0.52996 29.0403,-7.58667 41.3832,-1.40943" />
    <path
       style="fill-rule:evenodd;stroke:#000000;stroke-width:2;stroke-linecap:butt;stroke-linejoin:round"
       id="path157"
       d="m 896.5407,609.50684 c 14.41009,-0.97375 29.28052,-5.96173 43.26508,-2.35168 11.1842,2.88714 21.44329,9.5205 32.92126,10.81628 22.41309,2.53021 45.28646,2.3772 67.24666,7.5249 11.8427,2.77606 21.6269,5.82349 29.1575,6.11286 13.7923,0.52996 29.0403,-7.58667 41.3832,-1.40943" />
    <path
       style="fill:#000000;fill-opacity:0;fill-rule:evenodd"
       id="path159"
       d="m 896.5407,681.4593 c 9.02869,12.40344 31.70154,12.57263 45.61676,6.11292 10.12317,-4.69941 17.9967,-16.45935 29.15747,-16.45935 9.07165,0 18.35089,1.4132 26.80579,4.7008 6.32168,2.45813 4.52398,16.40192 11.28608,16.93176 32.746,2.5658 66.4223,0.91828 98.2861,-7.05511" />
    <path
       style="fill-rule:evenodd;stroke:#000000;stroke-width:2;stroke-linecap:butt;stroke-linejoin:round"
       id="path161"
       d="m 896.5407,681.4593 c 9.02869,12.40344 31.70154,12.57263 45.61676,6.11292 10.12317,-4.69941 17.9967,-16.45935 29.15747,-16.45935 9.07165,0 18.35089,1.4132 26.80579,4.7008 6.32168,2.45813 4.52398,16.40192 11.28608,16.93176 32.746,2.5658 66.4223,0.91828 98.2861,-7.05511" />
    <path
       style="fill:#000000;fill-opacity:0;fill-rule:evenodd"
       id="path163"
       d="m 901.7139,646.66 c 46.12604,-8.5426 94.6983,5.85767 139.2021,20.69025 8.9125,2.97046 16.0248,-11.53241 25.3937,-12.22571 14.257,-1.05499 28.4992,2.82153 42.7953,2.82153" />
    <path
       style="fill-rule:evenodd;stroke:#000000;stroke-width:2;stroke-linecap:butt;stroke-linejoin:round"
       id="path165"
       d="m 901.7139,646.66 c 46.12604,-8.5426 94.6983,5.85767 139.2021,20.69025 8.9125,2.97046 16.0248,-11.53241 25.3937,-12.22571 14.257,-1.05499 28.4992,2.82153 42.7953,2.82153" />
  </g>
  <g
     id="text171"
     style="font-size:37.33333206px;font-family:'DejaVu Sans', sans-serif;text-anchor:middle;fill:#000000"
     aria-label="[ SZÖVEG ]">
    <path
       id="path181"
       style=""
       d="m 480.6823,217.30209 h 7.72916 v 2.60677 h -4.375 v 28.07292 h 4.375 v 2.60677 h -7.72916 z" />
    <path
       id="path183"
       style=""
       d="m 523.92188,219.34376 v 3.59114 q -2.09636,-1.0026 -3.95573,-1.49479 -1.85938,-0.49219 -3.59115,-0.49219 -3.00781,0 -4.64843,1.16667 -1.6224,1.16667 -1.6224,3.31771 0,1.80468 1.07552,2.73437 1.09375,0.91146 4.11979,1.47656 l 2.22396,0.45573 q 4.11979,0.78386 6.07031,2.77084 1.96875,1.96875 1.96875,5.28646 0,3.95572 -2.66146,5.99739 -2.64322,2.04167 -7.76562,2.04167 -1.93229,0 -4.11979,-0.4375 -2.16927,-0.4375 -4.50261,-1.29427 v -3.79167 q 2.24219,1.25781 4.39323,1.89583 2.15104,0.63802 4.22917,0.63802 3.15365,0 4.86719,-1.23958 1.71354,-1.23958 1.71354,-3.53646 0,-2.00521 -1.23958,-3.13541 -1.22136,-1.13021 -4.02865,-1.69532 l -2.24219,-0.4375 q -4.11979,-0.82031 -5.96093,-2.57031 -1.84115,-1.75 -1.84115,-4.86719 0,-3.60937 2.53385,-5.6875 2.55209,-2.07812 7.01823,-2.07812 1.91406,0 3.90104,0.34635 1.98698,0.34636 4.06511,1.03907 z" />
    <path
       id="path185"
       style=""
       d="m 529.73698,218.45053 h 21.38281 v 2.80729 l -17.20833,21.30989 h 17.6276 v 3.09896 h -22.22135 v -2.80729 l 17.20833,-21.30989 h -16.78906 z" />
    <path
       id="path187"
       style=""
       d="m 567.94531,220.94792 q -4.01041,0 -6.38021,2.98959 -2.35156,2.98958 -2.35156,8.14843 0,5.14063 2.35156,8.13021 2.3698,2.98958 6.38021,2.98958 4.01042,0 6.34375,-2.98958 2.35157,-2.98958 2.35157,-8.13021 0,-5.15885 -2.35157,-8.14843 -2.33333,-2.98959 -6.34375,-2.98959 z m 0,-2.98958 q 5.72396,0 9.15104,3.84635 3.42709,3.82813 3.42709,10.28125 0,6.4349 -3.42709,10.28125 -3.42708,3.82813 -9.15104,3.82813 -5.74218,0 -9.1875,-3.82813 -3.42708,-3.82812 -3.42708,-10.28125 0,-6.45312 3.42708,-10.28125 3.44532,-3.84635 9.1875,-3.84635 z m 1.71354,-6.38021 h 3.70053 v 3.70052 h -3.70053 z m -7.1276,0 h 3.70052 v 3.70052 h -3.70052 z" />
    <path
       id="path189"
       style=""
       d="m 592.64583,245.66667 -10.39062,-27.21614 h 3.84635 l 8.6224,22.91406 8.64062,-22.91406 h 3.82813 l -10.3724,27.21614 z" />
    <path
       id="path191"
       style=""
       d="m 611.14843,218.45053 h 17.20833 v 3.09896 h -13.52604 v 8.05729 h 12.96094 v 3.09895 h -12.96094 v 9.86198 h 13.85417 v 3.09896 h -17.53646 z" />
    <path
       id="path193"
       style=""
       d="m 653.33072,241.78386 v -7.3099 h -6.01562 v -3.02604 h 9.66146 v 11.6849 q -2.13282,1.51302 -4.70313,2.29687 -2.57031,0.76563 -5.48698,0.76563 -6.38021,0 -9.98958,-3.71875 -3.59115,-3.73698 -3.59115,-10.39063 0,-6.67187 3.59115,-10.39062 3.60937,-3.73698 9.98958,-3.73698 2.66146,0 5.04948,0.65625 2.40625,0.65625 4.42969,1.93229 v 3.91927 q -2.04167,-1.73177 -4.33854,-2.60677 -2.29688,-0.875 -4.83073,-0.875 -4.99479,0 -7.51042,2.78906 -2.4974,2.78907 -2.4974,8.3125 0,5.50521 2.4974,8.29427 2.51563,2.78907 7.51042,2.78907 1.95052,0 3.48177,-0.32813 1.53125,-0.34635 2.7526,-1.05729 z" />
    <path
       id="path195"
       style=""
       d="m 683.29948,217.30209 v 33.28646 h -7.72916 v -2.60677 h 4.35677 v -28.07292 h -4.35677 v -2.60677 z" />
  </g>
</svg>
