<?xml version="1.0" encoding="UTF-8" standalone="no"?>
<svg
   xmlns:dc="http://purl.org/dc/elements/1.1/"
   xmlns:cc="http://creativecommons.org/ns#"
   xmlns:rdf="http://www.w3.org/1999/02/22-rdf-syntax-ns#"
   xmlns:svg="http://www.w3.org/2000/svg"
   xmlns="http://www.w3.org/2000/svg"
   id="svg95"
   stroke-miterlimit="10"
   stroke-linecap="square"
   stroke="none"
   fill="none"
   viewBox="0.0 0.0 348.0 348.0"
   version="1.1">
  <metadata
     id="metadata101">
    <rdf:RDF>
      <cc:Work
         rdf:about="">
        <dc:format>image/svg+xml</dc:format>
        <dc:type
           rdf:resource="http://purl.org/dc/dcmitype/StillImage" />
      </cc:Work>
    </rdf:RDF>
  </metadata>
  <defs
     id="defs99" />
  <clipPath
     id="p.0">
    <path
       id="path2"
       clip-rule="nonzero"
       d="m0 0l348.0 0l0 348.0l-348.0 0l0 -348.0z" />
  </clipPath>
  <g
     id="g81"
     clip-path="url(#p.0)">
    <path
       id="path5"
       fill-rule="nonzero"
       d="M 0,0 H 348 V 348 H 0 Z"
       fill-opacity="0"
       fill="#000000" />
    <path
       id="path7"
       fill-rule="nonzero"
       d="M -6,0 H 348.01575 V 347.9685 H -6 Z"
       fill="#ffffff" />
    <path
       id="path9"
       fill-rule="nonzero"
       d="m 5.07874,5.7758217 h 336.9134 V 343.44512 H 5.07874 Z"
       fill-opacity="0"
       fill="#000000" />
    <path
       id="path11"
       fill-rule="nonzero"
       d="m 5.07874,5.7758217 h 336.9134 V 343.44512 H 5.07874 Z"
       stroke-linecap="butt"
       stroke-linejoin="round"
       stroke-width="2"
       stroke="#000000" />
    <path
       id="path13"
       fill-rule="nonzero"
       d="m 133.84251,15.666667 h 74.33072 v 56.881886 h -74.33072 z"
       fill="#000000" />
    <path
       id="path15"
       fill-rule="nonzero"
       d="m 154.53912,44.089794 q 0,-4.0625 0.82812,-6.53125 0.84375,-2.484375 2.48438,-3.828125 1.65625,-1.34375 4.15625,-1.34375 1.84375,0 3.23437,0.75 1.39063,0.734375 2.29688,2.140625 0.90625,1.390625 1.42187,3.40625 0.51563,2 0.51563,5.40625 0,4.03125 -0.82813,6.515625 -0.82812,2.46875 -2.48437,3.828125 -1.64063,1.34375 -4.15625,1.34375 -3.3125,0 -5.20313,-2.375 -2.26562,-2.859375 -2.26562,-9.3125 z m 2.89062,0 q 0,5.640625 1.3125,7.515625 1.32813,1.859375 3.26563,1.859375 1.9375,0 3.25,-1.875 1.32812,-1.875 1.32812,-7.5 0,-5.65625 -1.32812,-7.515625 -1.3125,-1.859375 -3.28125,-1.859375 -1.9375,0 -3.09375,1.640625 -1.45313,2.09375 -1.45313,7.734375 z m 14.90625,0 q 0,-4.0625 0.82813,-6.53125 0.84375,-2.484375 2.48437,-3.828125 1.65625,-1.34375 4.15625,-1.34375 1.84375,0 3.23438,0.75 1.39062,0.734375 2.29687,2.140625 0.90625,1.390625 1.42188,3.40625 0.51562,2 0.51562,5.40625 0,4.03125 -0.82812,6.515625 -0.82813,2.46875 -2.48438,3.828125 -1.64062,1.34375 -4.15625,1.34375 -3.3125,0 -5.20312,-2.375 -2.26563,-2.859375 -2.26563,-9.3125 z m 2.89063,0 q 0,5.640625 1.3125,7.515625 1.32812,1.859375 3.26562,1.859375 1.9375,0 3.25,-1.875 1.32813,-1.875 1.32813,-7.5 0,-5.65625 -1.32813,-7.515625 -1.3125,-1.859375 -3.28125,-1.859375 -1.9375,0 -3.09375,1.640625 -1.45312,2.09375 -1.45312,7.734375 z"
       fill="#ffffff" />
    <path
       id="path17"
       fill-rule="nonzero"
       d="M 15.262467,17.706038 H 125.15223 v 54.83464 H 15.262467 Z"
       fill="#ffffff" />
    <path
       id="path19"
       fill-rule="nonzero"
       d="M 15.262467,17.706038 H 125.15223 v 54.83464 H 15.262467 Z"
       stroke-linecap="butt"
       stroke-linejoin="round"
       stroke-width="2"
       stroke="#000000" />
    <path
       id="path21"
       fill-rule="nonzero"
       d="M 15.262467,72.65354 54.947507,18.5748"
       fill-opacity="0"
       fill="#000000" />
    <path
       id="path23"
       fill-rule="nonzero"
       d="M 15.262467,72.65354 54.947507,18.5748"
       stroke-linecap="butt"
       stroke-linejoin="round"
       stroke-width="2"
       stroke="#000000" />
    <path
       id="path25"
       fill-rule="nonzero"
       d="M 37.56649,72.65354 77.251533,18.5748"
       fill-opacity="0"
       fill="#000000" />
    <path
       id="path27"
       fill-rule="nonzero"
       d="M 37.56649,72.65354 77.251533,18.5748"
       stroke-linecap="butt"
       stroke-linejoin="round"
       stroke-width="2"
       stroke="#000000" />
    <path
       id="path29"
       fill-rule="nonzero"
       d="M 59.870514,72.65354 99.555557,18.5748"
       fill-opacity="0"
       fill="#000000" />
    <path
       id="path31"
       fill-rule="nonzero"
       d="M 59.870514,72.65354 99.555557,18.5748"
       stroke-linecap="butt"
       stroke-linejoin="round"
       stroke-width="2"
       stroke="#000000" />
    <path
       id="path33"
       fill-rule="nonzero"
       d="M 82.17454,72.65354 121.85958,18.5748"
       fill-opacity="0"
       fill="#000000" />
    <path
       id="path35"
       fill-rule="nonzero"
       d="M 82.17454,72.65354 121.85958,18.5748"
       stroke-linecap="butt"
       stroke-linejoin="round"
       stroke-width="2"
       stroke="#000000" />
    <path
       id="path37"
       fill-rule="nonzero"
       d="M 32.97638,83.031494 H 315.02362 V 325.3937 H 32.97638 Z"
       fill="#ffffff" />
    <path
       id="path39"
       fill-rule="nonzero"
       d="M 32.97638,83.031494 H 315.02362 V 325.3937 H 32.97638 Z"
       stroke-linecap="butt"
       stroke-linejoin="round"
       stroke-width="2"
       stroke="#000000" />
    <path
       id="path41"
       fill-rule="nonzero"
       d="m 216.86351,16.633858 h 109.88975 v 54.83465 H 216.86351 Z"
       fill="#ffffff" />
    <path
       id="path43"
       fill-rule="nonzero"
       d="m 216.86351,16.633858 h 109.88975 v 54.83465 H 216.86351 Z"
       stroke-linecap="butt"
       stroke-linejoin="round"
       stroke-width="2"
       stroke="#000000" />
    <path
       id="path45"
       fill-rule="nonzero"
       d="M 216.86351,71.58137 256.54855,17.502627"
       fill-opacity="0"
       fill="#000000" />
    <path
       id="path47"
       fill-rule="nonzero"
       d="M 216.86351,71.58137 256.54855,17.502627"
       stroke-linecap="butt"
       stroke-linejoin="round"
       stroke-width="2"
       stroke="#000000" />
    <path
       id="path49"
       fill-rule="nonzero"
       d="M 239.16754,71.58137 278.85257,17.502627"
       fill-opacity="0"
       fill="#000000" />
    <path
       id="path51"
       fill-rule="nonzero"
       d="M 239.16754,71.58137 278.85257,17.502627"
       stroke-linecap="butt"
       stroke-linejoin="round"
       stroke-width="2"
       stroke="#000000" />
    <path
       id="path53"
       fill-rule="nonzero"
       d="M 261.47156,71.58137 301.15662,17.502627"
       fill-opacity="0"
       fill="#000000" />
    <path
       id="path55"
       fill-rule="nonzero"
       d="M 261.47156,71.58137 301.15662,17.502627"
       stroke-linecap="butt"
       stroke-linejoin="round"
       stroke-width="2"
       stroke="#000000" />
    <path
       id="path57"
       fill-rule="nonzero"
       d="M 283.7756,71.58137 323.46063,17.502627"
       fill-opacity="0"
       fill="#000000" />
    <path
       id="path59"
       fill-rule="nonzero"
       d="M 283.7756,71.58137 323.46063,17.502627"
       stroke-linecap="butt"
       stroke-linejoin="round"
       stroke-width="2"
       stroke="#000000" />
    <path
       id="path61"
       fill-rule="nonzero"
       d="M 44.490814,88.11811 H 303.48294 V 252.05512 H 44.490814 Z"
       fill="#000000" />
    <path
       id="path63"
       fill-rule="nonzero"
       d="m 113.77165,267.51697 h 49.25984 v 45.48032 h -49.25984 z"
       stroke-linecap="butt"
       stroke-linejoin="round"
       stroke-width="1"
       stroke="#000000" />
    <path
       id="path65"
       fill-rule="nonzero"
       d="m 182.79527,267.51697 h 49.25984 v 45.48032 h -49.25984 z"
       fill-opacity="0"
       fill="#000000" />
    <path
       id="path67"
       fill-rule="nonzero"
       d="m 182.79527,267.51697 h 49.25984 v 45.48032 h -49.25984 z"
       stroke-linecap="butt"
       stroke-linejoin="round"
       stroke-width="1"
       stroke="#000000" />
    <path
       id="path69"
       fill-rule="nonzero"
       d="m 260.08136,270.74014 h 36.72443 v 25.63782 h -36.72443 z"
       fill="#ffffff" />
    <path
       id="path71"
       fill-rule="nonzero"
       d="m 260.08136,270.74014 h 36.72443 v 25.63782 h -36.72443 z"
       stroke-linecap="butt"
       stroke-linejoin="round"
       stroke-width="2"
       stroke="#000000" />
    <path
       id="path73"
       fill-rule="nonzero"
       d="m 265.46457,305.50656 v 0 c 0,-2.35699 1.91071,-4.26773 4.2677,-4.26773 v 0 c 1.1319,0 2.21741,0.44965 3.01773,1.25 0.80035,0.80035 1.25,1.88586 1.25,3.01773 v 0 c 0,2.35699 -1.91074,4.26773 -4.26773,4.26773 v 0 c -2.35699,0 -4.2677,-1.91074 -4.2677,-4.26773 z"
       fill="#ffffff" />
    <path
       id="path75"
       fill-rule="nonzero"
       d="m 265.46457,305.50656 v 0 c 0,-2.35699 1.91071,-4.26773 4.2677,-4.26773 v 0 c 1.1319,0 2.21741,0.44965 3.01773,1.25 0.80035,0.80035 1.25,1.88586 1.25,3.01773 v 0 c 0,2.35699 -1.91074,4.26773 -4.26773,4.26773 v 0 c -2.35699,0 -4.2677,-1.91074 -4.2677,-4.26773 z"
       stroke-linecap="butt"
       stroke-linejoin="round"
       stroke-width="2"
       stroke="#000000" />
    <path
       id="path77"
       fill-rule="nonzero"
       d="m 282.8084,305.50656 v 0 c 0,-2.35699 1.91071,-4.26773 4.2677,-4.26773 v 0 c 1.13187,0 2.21738,0.44965 3.01773,1.25 0.80035,0.80035 1.25,1.88586 1.25,3.01773 v 0 c 0,2.35699 -1.91074,4.26773 -4.26773,4.26773 v 0 c -2.35699,0 -4.2677,-1.91074 -4.2677,-4.26773 z"
       fill="#ffffff" />
    <path
       id="path79"
       fill-rule="nonzero"
       d="m 282.8084,305.50656 v 0 c 0,-2.35699 1.91071,-4.26773 4.2677,-4.26773 v 0 c 1.13187,0 2.21738,0.44965 3.01773,1.25 0.80035,0.80035 1.25,1.88586 1.25,3.01773 v 0 c 0,2.35699 -1.91074,4.26773 -4.26773,4.26773 v 0 c -2.35699,0 -4.2677,-1.91074 -4.2677,-4.26773 z"
       stroke-linecap="butt"
       stroke-linejoin="round"
       stroke-width="2"
       stroke="#000000" />
  </g>
  <g
     style="font-size:42px;font-family:'DejaVu Sans', sans-serif;text-anchor:middle;fill:#ffffff"
     id="text85"
     aria-label="[ ТЕКСТ ]">
    <path
       id="path103"
       d="m 79.253906,106.08984 h 8.695313 v 2.93262 h -4.921875 v 31.58203 h 4.921875 v 2.93262 h -8.695313 z" />
    <path
       id="path105"
       d="m 105.29883,107.38184 h 25.90137 v 3.48632 H 120.33105 V 138 h -4.16308 v -27.13184 h -10.86914 z" />
    <path
       id="path107"
       d="m 135.21973,107.38184 h 19.35937 v 3.48632 h -15.2168 v 9.06446 h 14.58106 v 3.48633 H 139.3623 v 11.09472 h 15.58594 V 138 h -19.72851 z" />
    <path
       id="path109"
       d="m 161.79785,107.38184 h 4.14258 v 15.13476 l 14.80664,-15.13476 h 5.31152 l -11.833,12.09961 L 186.67383,138 h -4.51172 l -10.62305,-15.77051 -5.59863,5.72168 V 138 h -4.14258 z" />
    <path
       id="path111"
       d="m 214.58496,109.74023 v 4.36817 q -2.0918,-1.94824 -4.4707,-2.91211 -2.3584,-0.96387 -5.02442,-0.96387 -5.25,0 -8.03906,3.21973 -2.78906,3.19922 -2.78906,9.26953 0,6.0498 2.78906,9.26953 2.78906,3.19922 8.03906,3.19922 2.66602,0 5.02442,-0.96387 2.3789,-0.96386 4.4707,-2.91211 v 4.32715 q -2.17383,1.47656 -4.61426,2.21485 -2.41992,0.73828 -5.12695,0.73828 -6.95215,0 -10.95117,-4.24512 -3.99903,-4.26563 -3.99903,-11.62793 0,-7.38281 3.99903,-11.62793 3.99902,-4.26562 10.95117,-4.26562 2.74805,0 5.16797,0.73828 2.44043,0.71777 4.57324,2.17382 z" />
    <path
       id="path113"
       d="m 216.7793,107.38184 h 25.90136 v 3.48632 H 231.81152 V 138 h -4.16308 V 110.86816 H 216.7793 Z" />
    <path
       id="path115"
       d="m 268.72559,106.08984 v 37.44727 h -8.69532 v -2.93262 h 4.90137 v -31.58203 h -4.90137 v -2.93262 z" />
  </g>
  <g
     style="font-size:24px;font-family:'DejaVu Sans', sans-serif;text-anchor:middle;fill:#000000"
     id="text89"
     aria-label="Д">
    <path
       id="path118"
       d="m 134.09766,295.00781 h 7.73437 v -13.51172 h -5.68359 v 2.48438 q 0,5.84765 -1.3125,9.72656 -0.26953,0.79688 -0.73828,1.30078 z m -3.45704,0 q 1.57032,-0.73828 2.01563,-2.14453 1.13672,-3.60937 1.13672,-10.05469 v -3.30468 h 10.40625 v 15.5039 h 1.99219 v 5.75391 h -1.99219 V 297 h -12.39844 v 3.76172 h -1.99219 v -5.75391 z" />
  </g>
  <g
     style="font-size:24px;font-family:'DejaVu Sans', sans-serif;text-anchor:middle;fill:#000000"
     id="text93"
     aria-label="Н">
    <path
       id="path121"
       d="m 201.33203,279.50391 h 2.36719 v 7.17187 h 8.60156 v -7.17187 h 2.36719 V 297 h -2.36719 v -8.33203 h -8.60156 V 297 h -2.36719 z" />
  </g>
</svg>
