<?xml version="1.0" encoding="UTF-8" standalone="no"?>
<svg
   xmlns:dc="http://purl.org/dc/elements/1.1/"
   xmlns:cc="http://creativecommons.org/ns#"
   xmlns:rdf="http://www.w3.org/1999/02/22-rdf-syntax-ns#"
   xmlns:svg="http://www.w3.org/2000/svg"
   xmlns="http://www.w3.org/2000/svg"
   id="svg89"
   stroke-miterlimit="10"
   stroke-linecap="square"
   stroke="none"
   fill="none"
   viewBox="0.0 0.0 348.0 348.0"
   version="1.1">
  <metadata
     id="metadata95">
    <rdf:RDF>
      <cc:Work
         rdf:about="">
        <dc:format>image/svg+xml</dc:format>
        <dc:type
           rdf:resource="http://purl.org/dc/dcmitype/StillImage" />
      </cc:Work>
    </rdf:RDF>
  </metadata>
  <defs
     id="defs93" />
  <clipPath
     id="p.0">
    <path
       id="path2"
       clip-rule="nonzero"
       d="m0 0l348.0 0l0 348.0l-348.0 0l0 -348.0z" />
  </clipPath>
  <g
     id="g59"
     clip-path="url(#p.0)">
    <path
       style="fill:#000000;fill-opacity:0;fill-rule:nonzero"
       id="path5"
       d="M 0,0 H 348 V 348 H 0 Z" />
    <path
       style="fill:#ffffff;fill-rule:nonzero"
       id="path7"
       d="M -6,0 H 342 V 347.9685 H -6 Z" />
    <path
       style="fill:#000000;fill-opacity:0;fill-rule:nonzero"
       id="path9"
       d="m 5.07874,5.7758217 h 336.9134 V 343.44512 H 5.07874 Z" />
    <path
       style="fill-rule:nonzero;stroke:#000000;stroke-width:2;stroke-linecap:butt;stroke-linejoin:round"
       id="path11"
       d="m 5.07874,5.7758217 h 336.9134 V 343.44512 H 5.07874 Z" />
    <path
       style="fill:#ffffff;fill-rule:nonzero"
       id="path13"
       d="m 282.73444,40.553925 v 0 c 0,-8.375591 6.96603,-15.165352 15.55905,-15.165352 v 0 c 4.12653,0 8.08402,1.597773 11.00192,4.441828 2.91788,2.844057 4.55713,6.701422 4.55713,10.723524 v 0 c 0,8.375595 -6.966,15.165356 -15.55905,15.165356 v 0 c -8.59302,0 -15.55905,-6.789761 -15.55905,-15.165356 z" />
    <path
       style="fill-rule:nonzero;stroke:#000000;stroke-width:2;stroke-linecap:butt;stroke-linejoin:round"
       id="path15"
       d="m 282.73444,40.553925 v 0 c 0,-8.375591 6.96603,-15.165352 15.55905,-15.165352 v 0 c 4.12653,0 8.08402,1.597773 11.00192,4.441828 2.91788,2.844057 4.55713,6.701422 4.55713,10.723524 v 0 c 0,8.375595 -6.966,15.165356 -15.55905,15.165356 v 0 c -8.59302,0 -15.55905,-6.789761 -15.55905,-15.165356 z" />
    <path
       style="fill:#000000;fill-rule:nonzero"
       id="path17"
       d="M 34.771652,25.389738 H 267.18112 v 67.55905 H 34.771652 Z" />
    <path
       style="fill-rule:nonzero;stroke:#000000;stroke-width:2;stroke-linecap:butt;stroke-linejoin:round"
       id="path19"
       d="M 34.771652,25.389738 H 267.18112 v 67.55905 H 34.771652 Z" />
    <path
       style="fill-rule:nonzero;stroke:#000000;stroke-width:1;stroke-linecap:butt;stroke-linejoin:round"
       id="path21"
       d="M 34.771652,202.31795 H 141.41733 v 44.81891 H 34.771652 Z" />
    <path
       style="fill:#000000;fill-opacity:0;fill-rule:nonzero"
       id="path23"
       d="M 34.771652,125.22639 H 141.41733 v 44.8189 H 34.771652 Z" />
    <path
       style="fill-rule:nonzero;stroke:#000000;stroke-width:1;stroke-linecap:butt;stroke-linejoin:round"
       id="path25"
       d="M 34.771652,125.22639 H 141.41733 v 44.8189 H 34.771652 Z" />
    <path
       style="fill:#000000;fill-opacity:0;fill-rule:nonzero"
       id="path27"
       d="M 34.771652,270.60397 H 141.41733 v 44.81891 H 34.771652 Z" />
    <path
       style="fill-rule:nonzero;stroke:#000000;stroke-width:1;stroke-linecap:butt;stroke-linejoin:round"
       id="path29"
       d="M 34.771652,270.60397 H 141.41733 v 44.81891 H 34.771652 Z" />
    <path
       style="fill:#000000;fill-opacity:0;fill-rule:nonzero"
       id="path31"
       d="m 157.40683,202.31795 h 106.64566 v 44.81891 H 157.40683 Z" />
    <path
       style="fill-rule:nonzero;stroke:#000000;stroke-width:1;stroke-linecap:butt;stroke-linejoin:round"
       id="path33"
       d="m 157.40683,202.31795 h 106.64566 v 44.81891 H 157.40683 Z" />
    <path
       style="fill:#000000;fill-opacity:0;fill-rule:nonzero"
       id="path35"
       d="m 157.40683,125.22639 h 106.64566 v 44.8189 H 157.40683 Z" />
    <path
       style="fill-rule:nonzero;stroke:#000000;stroke-width:1;stroke-linecap:butt;stroke-linejoin:round"
       id="path37"
       d="m 157.40683,125.22639 h 106.64566 v 44.8189 H 157.40683 Z" />
    <path
       style="fill:#000000;fill-opacity:0;fill-rule:nonzero"
       id="path39"
       d="m 157.40683,270.60397 h 106.64566 v 44.81891 H 157.40683 Z" />
    <path
       style="fill-rule:nonzero;stroke:#000000;stroke-width:1;stroke-linecap:butt;stroke-linejoin:round"
       id="path41"
       d="m 157.40683,270.60397 h 106.64566 v 44.81891 H 157.40683 Z" />
    <path
       style="fill:#000000;fill-rule:nonzero"
       id="path43"
       d="m 277.46194,106.3832 h 52.66141 v 209.03937 h -52.66141 z" />
    <path
       style="fill-rule:nonzero;stroke:#000000;stroke-width:2;stroke-linecap:butt;stroke-linejoin:round"
       id="path45"
       d="m 277.46194,106.3832 h 52.66141 v 209.03937 h -52.66141 z" />
    <path
       style="fill:#ffffff;fill-rule:nonzero"
       id="path47"
       d="m 290.06036,245.11285 h 27.46457 v 16.47244 h -27.46457 z" />
    <path
       style="fill-rule:nonzero;stroke:#000000;stroke-width:2;stroke-linecap:butt;stroke-linejoin:round"
       id="path49"
       d="m 290.06036,245.11285 h 27.46457 v 16.47244 h -27.46457 z" />
    <path
       style="fill:#ffffff;fill-rule:nonzero"
       id="path51"
       d="m 290.06036,208.9029 h 27.46457 v 16.47243 h -27.46457 z" />
    <path
       style="fill-rule:nonzero;stroke:#000000;stroke-width:2;stroke-linecap:butt;stroke-linejoin:round"
       id="path53"
       d="m 290.06036,208.9029 h 27.46457 v 16.47243 h -27.46457 z" />
    <path
       style="fill:#ffffff;fill-rule:nonzero"
       id="path55"
       d="m 290.06036,281.32285 h 27.46457 v 16.47244 h -27.46457 z" />
    <path
       style="fill-rule:nonzero;stroke:#000000;stroke-width:2;stroke-linecap:butt;stroke-linejoin:round"
       id="path57"
       d="m 290.06036,281.32285 h 27.46457 v 16.47244 h -27.46457 z" />
  </g>
  <g
     id="text63"
     style="font-size:32px;font-family:'DejaVu Sans', sans-serif;text-anchor:middle;fill:#ffffff"
     aria-label="[ ЭКРАН ]">
    <path
       id="path97"
       style=""
       d="M 74.875,45.6875 H 81.5 v 2.234375 h -3.75 v 24.0625 h 3.75 v 2.234375 h -6.625 z" />
    <path
       id="path99"
       style=""
       d="m 96.546875,64.90625 q 3.296875,2.953125 7.296875,2.953125 4.125,0 5.98437,-2.21875 1.85938,-2.21875 2.20313,-5.953125 H 99.5625 v -2.65625 h 12.46875 q -0.34375,-3.734375 -2.20313,-5.953125 -1.85937,-2.234375 -5.98437,-2.234375 -4,0 -7.296875,2.953125 V 48.46875 q 3.25,-2.21875 7.484375,-2.21875 5.23437,0 8.28125,3.25 3.04687,3.234375 3.04687,8.84375 0,5.625 -3.04687,8.875 -3.04688,3.234375 -8.28125,3.234375 -4.171875,0 -7.484375,-2.25 z" />
    <path
       id="path101"
       style=""
       d="m 120.32812,46.671875 h 3.15625 v 11.53125 l 11.28126,-11.53125 h 4.04687 l -9.01562,9.21875 L 139.28125,70 h -3.4375 L 127.75,57.984375 123.48437,62.34375 V 70 h -3.15625 z" />
    <path
       id="path103"
       style=""
       d="m 146.23438,49.265625 v 8.765625 h 3.96875 q 2.20312,0 3.40625,-1.140625 1.20312,-1.140625 1.20312,-3.25 0,-2.09375 -1.20312,-3.234375 -1.20313,-1.140625 -3.40625,-1.140625 z m -3.15625,-2.59375 h 7.125 q 3.92187,0 5.92187,1.78125 2.01563,1.765625 2.01563,5.1875 0,3.453125 -2.01563,5.21875 -2,1.765625 -5.92187,1.765625 h -3.96875 V 70 h -3.15625 z" />
    <path
       id="path105"
       style=""
       d="m 170.1875,49.78125 -4.28125,11.609375 h 8.57813 z m -1.78125,-3.109375 h 3.57813 L 180.875,70 h -3.28125 l -2.125,-5.984375 H 164.95313 L 162.82813,70 H 159.5 Z" />
    <path
       id="path107"
       style=""
       d="m 184.26563,46.671875 h 3.15625 v 9.5625 h 11.46875 v -9.5625 h 3.15625 V 70 h -3.15625 V 58.890625 H 187.42188 V 70 h -3.15625 z" />
    <path
       id="path109"
       style=""
       d="m 225.10938,45.6875 v 28.53125 h -6.625 v -2.234375 h 3.73437 v -24.0625 h -3.73437 V 45.6875 Z" />
  </g>
  <g
     id="text67"
     style="font-size:20px;font-family:'DejaVu Sans', sans-serif;text-anchor:middle;fill:#000000"
     aria-label="[ ТЕКСТ ]">
    <path
       id="path112"
       style=""
       d="m 41.882813,138.80469 h 4.140625 v 1.39648 h -2.34375 v 15.03906 h 2.34375 v 1.39649 h -4.140625 z" />
    <path
       id="path114"
       style=""
       d="m 54.285156,139.41992 h 12.333985 v 1.66016 H 61.443359 V 154 h -1.982421 v -12.91992 h -5.175782 z" />
    <path
       id="path116"
       style=""
       d="m 68.533203,139.41992 h 9.21875 v 1.66016 h -7.246094 v 4.3164 h 6.94336 v 1.66016 h -6.94336 v 5.2832 h 7.421875 V 154 h -9.394531 z" />
    <path
       id="path118"
       style=""
       d="m 81.189453,139.41992 h 1.972656 v 7.20703 l 7.050782,-7.20703 h 2.529297 L 87.107422,145.18164 93.035156,154 h -2.148437 l -5.058594,-7.50977 -2.666016,2.72461 V 154 h -1.972656 z" />
    <path
       id="path120"
       style=""
       d="m 106.32617,140.54297 v 2.08008 q -0.99609,-0.92774 -2.1289,-1.38672 -1.12305,-0.45899 -2.39258,-0.45899 -2.500002,0 -3.828127,1.53321 -1.328125,1.52343 -1.328125,4.41406 0,2.88086 1.328125,4.41406 1.328125,1.52344 3.828127,1.52344 1.26953,0 2.39258,-0.45898 1.13281,-0.45899 2.1289,-1.38672 v 2.06054 q -1.03515,0.70313 -2.19726,1.05469 -1.15235,0.35156 -2.44141,0.35156 -3.310547,0 -5.214844,-2.02148 -1.904297,-2.03125 -1.904297,-5.53711 0,-3.51563 1.904297,-5.53711 1.904297,-2.03125 5.214844,-2.03125 1.30859,0 2.46094,0.35156 1.16211,0.3418 2.17773,1.03516 z" />
    <path
       id="path122"
       style=""
       d="m 107.37109,139.41992 h 12.33399 v 1.66016 H 114.5293 V 154 h -1.98243 v -12.91992 h -5.17578 z" />
    <path
       id="path124"
       style=""
       d="m 132.10742,138.80469 v 17.83203 h -4.14062 v -1.39649 h 2.33398 v -15.03906 h -2.33398 v -1.39648 z" />
  </g>
  <g
     id="text71"
     style="font-size:20px;font-family:'DejaVu Sans', sans-serif;text-anchor:middle;fill:#000000"
     aria-label="[ ТЕКСТ ]">
    <path
       id="path127"
       style=""
       d="m 41.882813,215.80469 h 4.140625 v 1.39648 h -2.34375 v 15.03906 h 2.34375 v 1.39649 h -4.140625 z" />
    <path
       id="path129"
       style=""
       d="m 54.285156,216.41992 h 12.333985 v 1.66016 H 61.443359 V 231 h -1.982421 v -12.91992 h -5.175782 z" />
    <path
       id="path131"
       style=""
       d="m 68.533203,216.41992 h 9.21875 v 1.66016 h -7.246094 v 4.3164 h 6.94336 v 1.66016 h -6.94336 v 5.2832 h 7.421875 V 231 h -9.394531 z" />
    <path
       id="path133"
       style=""
       d="m 81.189453,216.41992 h 1.972656 v 7.20703 l 7.050782,-7.20703 h 2.529297 L 87.107422,222.18164 93.035156,231 h -2.148437 l -5.058594,-7.50977 -2.666016,2.72461 V 231 h -1.972656 z" />
    <path
       id="path135"
       style=""
       d="m 106.32617,217.54297 v 2.08008 q -0.99609,-0.92774 -2.1289,-1.38672 -1.12305,-0.45899 -2.39258,-0.45899 -2.500002,0 -3.828127,1.53321 -1.328125,1.52343 -1.328125,4.41406 0,2.88086 1.328125,4.41406 1.328125,1.52344 3.828127,1.52344 1.26953,0 2.39258,-0.45898 1.13281,-0.45899 2.1289,-1.38672 v 2.06054 q -1.03515,0.70313 -2.19726,1.05469 -1.15235,0.35156 -2.44141,0.35156 -3.310547,0 -5.214844,-2.02148 -1.904297,-2.03125 -1.904297,-5.53711 0,-3.51563 1.904297,-5.53711 1.904297,-2.03125 5.214844,-2.03125 1.30859,0 2.46094,0.35156 1.16211,0.3418 2.17773,1.03516 z" />
    <path
       id="path137"
       style=""
       d="m 107.37109,216.41992 h 12.33399 v 1.66016 H 114.5293 V 231 h -1.98243 v -12.91992 h -5.17578 z" />
    <path
       id="path139"
       style=""
       d="m 132.10742,215.80469 v 17.83203 h -4.14062 v -1.39649 h 2.33398 v -15.03906 h -2.33398 v -1.39648 z" />
  </g>
  <g
     id="text75"
     style="font-size:20px;font-family:'DejaVu Sans', sans-serif;text-anchor:middle;fill:#000000"
     aria-label="[ ТЕКСТ ]">
    <path
       id="path142"
       style=""
       d="m 41.882813,283.80469 h 4.140625 v 1.39648 h -2.34375 v 15.03906 h 2.34375 v 1.39649 h -4.140625 z" />
    <path
       id="path144"
       style=""
       d="m 54.285156,284.41992 h 12.333985 v 1.66016 H 61.443359 V 299 h -1.982421 v -12.91992 h -5.175782 z" />
    <path
       id="path146"
       style=""
       d="m 68.533203,284.41992 h 9.21875 v 1.66016 h -7.246094 v 4.3164 h 6.94336 v 1.66016 h -6.94336 v 5.2832 h 7.421875 V 299 h -9.394531 z" />
    <path
       id="path148"
       style=""
       d="m 81.189453,284.41992 h 1.972656 v 7.20703 l 7.050782,-7.20703 h 2.529297 L 87.107422,290.18164 93.035156,299 h -2.148437 l -5.058594,-7.50977 -2.666016,2.72461 V 299 h -1.972656 z" />
    <path
       id="path150"
       style=""
       d="m 106.32617,285.54297 v 2.08008 q -0.99609,-0.92774 -2.1289,-1.38672 -1.12305,-0.45899 -2.39258,-0.45899 -2.500002,0 -3.828127,1.53321 -1.328125,1.52343 -1.328125,4.41406 0,2.88086 1.328125,4.41406 1.328125,1.52344 3.828127,1.52344 1.26953,0 2.39258,-0.45898 1.13281,-0.45899 2.1289,-1.38672 v 2.06054 q -1.03515,0.70313 -2.19726,1.05469 -1.15235,0.35156 -2.44141,0.35156 -3.310547,0 -5.214844,-2.02148 -1.904297,-2.03125 -1.904297,-5.53711 0,-3.51563 1.904297,-5.53711 1.904297,-2.03125 5.214844,-2.03125 1.30859,0 2.46094,0.35156 1.16211,0.3418 2.17773,1.03516 z" />
    <path
       id="path152"
       style=""
       d="m 107.37109,284.41992 h 12.33399 v 1.66016 H 114.5293 V 299 h -1.98243 v -12.91992 h -5.17578 z" />
    <path
       id="path154"
       style=""
       d="m 132.10742,283.80469 v 17.83203 h -4.14062 v -1.39649 h 2.33398 v -15.03906 h -2.33398 v -1.39648 z" />
  </g>
  <g
     id="text79"
     style="font-size:20px;font-family:'DejaVu Sans', sans-serif;text-anchor:middle;fill:#000000"
     aria-label="[ ТЕКСТ ]">
    <path
       id="path157"
       style=""
       d="m 164.88281,138.80469 h 4.14063 v 1.39648 h -2.34375 v 15.03906 h 2.34375 v 1.39649 h -4.14063 z" />
    <path
       id="path159"
       style=""
       d="m 177.28516,139.41992 h 12.33398 v 1.66016 h -5.17578 V 154 h -1.98242 v -12.91992 h -5.17578 z" />
    <path
       id="path161"
       style=""
       d="m 191.5332,139.41992 h 9.21875 v 1.66016 h -7.24609 v 4.3164 h 6.94336 v 1.66016 h -6.94336 v 5.2832 h 7.42187 V 154 h -9.39453 z" />
    <path
       id="path163"
       style=""
       d="m 204.18945,139.41992 h 1.97266 v 7.20703 l 7.05078,-7.20703 h 2.5293 l -5.63477,5.76172 5.92774,8.81836 h -2.14844 l -5.05859,-7.50977 -2.66602,2.72461 V 154 h -1.97266 z" />
    <path
       id="path165"
       style=""
       d="m 229.32617,140.54297 v 2.08008 q -0.99609,-0.92774 -2.1289,-1.38672 -1.12305,-0.45899 -2.39258,-0.45899 -2.5,0 -3.82813,1.53321 -1.32812,1.52343 -1.32812,4.41406 0,2.88086 1.32812,4.41406 1.32813,1.52344 3.82813,1.52344 1.26953,0 2.39258,-0.45898 1.13281,-0.45899 2.1289,-1.38672 v 2.06054 q -1.03515,0.70313 -2.19726,1.05469 -1.15235,0.35156 -2.44141,0.35156 -3.31055,0 -5.21484,-2.02148 -1.9043,-2.03125 -1.9043,-5.53711 0,-3.51563 1.9043,-5.53711 1.90429,-2.03125 5.21484,-2.03125 1.30859,0 2.46094,0.35156 1.16211,0.3418 2.17773,1.03516 z" />
    <path
       id="path167"
       style=""
       d="m 230.37109,139.41992 h 12.33399 v 1.66016 H 237.5293 V 154 h -1.98242 v -12.91992 h -5.17579 z" />
    <path
       id="path169"
       style=""
       d="m 255.10742,138.80469 v 17.83203 h -4.14062 v -1.39649 h 2.33398 v -15.03906 h -2.33398 v -1.39648 z" />
  </g>
  <g
     id="text83"
     style="font-size:20px;font-family:'DejaVu Sans', sans-serif;text-anchor:middle;fill:#000000"
     aria-label="[ ТЕКСТ ]">
    <path
       id="path172"
       style=""
       d="m 164.88281,215.80469 h 4.14063 v 1.39648 h -2.34375 v 15.03906 h 2.34375 v 1.39649 h -4.14063 z" />
    <path
       id="path174"
       style=""
       d="m 177.28516,216.41992 h 12.33398 v 1.66016 h -5.17578 V 231 h -1.98242 v -12.91992 h -5.17578 z" />
    <path
       id="path176"
       style=""
       d="m 191.5332,216.41992 h 9.21875 v 1.66016 h -7.24609 v 4.3164 h 6.94336 v 1.66016 h -6.94336 v 5.2832 h 7.42187 V 231 h -9.39453 z" />
    <path
       id="path178"
       style=""
       d="m 204.18945,216.41992 h 1.97266 v 7.20703 l 7.05078,-7.20703 h 2.5293 l -5.63477,5.76172 5.92774,8.81836 h -2.14844 l -5.05859,-7.50977 -2.66602,2.72461 V 231 h -1.97266 z" />
    <path
       id="path180"
       style=""
       d="m 229.32617,217.54297 v 2.08008 q -0.99609,-0.92774 -2.1289,-1.38672 -1.12305,-0.45899 -2.39258,-0.45899 -2.5,0 -3.82813,1.53321 -1.32812,1.52343 -1.32812,4.41406 0,2.88086 1.32812,4.41406 1.32813,1.52344 3.82813,1.52344 1.26953,0 2.39258,-0.45898 1.13281,-0.45899 2.1289,-1.38672 v 2.06054 q -1.03515,0.70313 -2.19726,1.05469 -1.15235,0.35156 -2.44141,0.35156 -3.31055,0 -5.21484,-2.02148 -1.9043,-2.03125 -1.9043,-5.53711 0,-3.51563 1.9043,-5.53711 1.90429,-2.03125 5.21484,-2.03125 1.30859,0 2.46094,0.35156 1.16211,0.3418 2.17773,1.03516 z" />
    <path
       id="path182"
       style=""
       d="m 230.37109,216.41992 h 12.33399 v 1.66016 H 237.5293 V 231 h -1.98242 v -12.91992 h -5.17579 z" />
    <path
       id="path184"
       style=""
       d="m 255.10742,215.80469 v 17.83203 h -4.14062 v -1.39649 h 2.33398 v -15.03906 h -2.33398 v -1.39648 z" />
  </g>
  <g
     id="text87"
     style="font-size:20px;font-family:'DejaVu Sans', sans-serif;text-anchor:middle;fill:#000000"
     aria-label="[ ТЕКСТ ]">
    <path
       id="path187"
       style=""
       d="m 164.88281,283.80469 h 4.14063 v 1.39648 h -2.34375 v 15.03906 h 2.34375 v 1.39649 h -4.14063 z" />
    <path
       id="path189"
       style=""
       d="m 177.28516,284.41992 h 12.33398 v 1.66016 h -5.17578 V 299 h -1.98242 v -12.91992 h -5.17578 z" />
    <path
       id="path191"
       style=""
       d="m 191.5332,284.41992 h 9.21875 v 1.66016 h -7.24609 v 4.3164 h 6.94336 v 1.66016 h -6.94336 v 5.2832 h 7.42187 V 299 h -9.39453 z" />
    <path
       id="path193"
       style=""
       d="m 204.18945,284.41992 h 1.97266 v 7.20703 l 7.05078,-7.20703 h 2.5293 l -5.63477,5.76172 5.92774,8.81836 h -2.14844 l -5.05859,-7.50977 -2.66602,2.72461 V 299 h -1.97266 z" />
    <path
       id="path195"
       style=""
       d="m 229.32617,285.54297 v 2.08008 q -0.99609,-0.92774 -2.1289,-1.38672 -1.12305,-0.45899 -2.39258,-0.45899 -2.5,0 -3.82813,1.53321 -1.32812,1.52343 -1.32812,4.41406 0,2.88086 1.32812,4.41406 1.32813,1.52344 3.82813,1.52344 1.26953,0 2.39258,-0.45898 1.13281,-0.45899 2.1289,-1.38672 v 2.06054 q -1.03515,0.70313 -2.19726,1.05469 -1.15235,0.35156 -2.44141,0.35156 -3.31055,0 -5.21484,-2.02148 -1.9043,-2.03125 -1.9043,-5.53711 0,-3.51563 1.9043,-5.53711 1.90429,-2.03125 5.21484,-2.03125 1.30859,0 2.46094,0.35156 1.16211,0.3418 2.17773,1.03516 z" />
    <path
       id="path197"
       style=""
       d="m 230.37109,284.41992 h 12.33399 v 1.66016 H 237.5293 V 299 h -1.98242 v -12.91992 h -5.17579 z" />
    <path
       id="path199"
       style=""
       d="m 255.10742,283.80469 v 17.83203 h -4.14062 v -1.39649 h 2.33398 v -15.03906 h -2.33398 v -1.39648 z" />
  </g>
</svg>
